<svg xmlns="http://www.w3.org/2000/svg">
<defs>
<font id="TypoHoopDemo" horiz-adv-x="1793" >
  <font-face 
    font-family="Typo Hoop Demo"
    font-weight="400"
    font-stretch="normal"
    units-per-em="2048"
    panose-1="2 0 5 0 0 0 0 0 0 0"
    ascent="1638"
    descent="-410"
    x-height="1134"
    cap-height="1427"
    bbox="-208.951 -514 2471 1860"
    underline-thickness="150"
    underline-position="-292"
    unicode-range="U+001D-277F"
  />
<missing-glyph horiz-adv-x="1547" 
d="M100 -282v1710h1335v-1710h-1335zM135 -242h1264v1640h-1264v-1640zM725 471h3l11 -1v-18q2 -70 2 -126l-7 -2h-6q-3 71 -3 138v3v6zM1224 471h1l14 -1q-1 -9 -1 -13q0 -55 3 -131l-11 -2h-4q-2 58 -3 129q1 12 1 18zM790 466h4q0 -2 7 -12q-4 -18 -4 -30v-18
q0 -44 15 -58h1q21 0 35 117h2q12 -4 13 -4q-6 -58 -6 -86q0 -31 12 -31q2 -16 2 -20h-8q-13 0 -20 32h-1q-11 -28 -27 -28h-5q-20 0 -27 61q-1 4 -1 22v11q0 25 8 44zM1094 466h6q12 0 28 -28q12 -22 12 -44v-9q0 -37 -40 -58q-7 -3 -14 -3h-7q-30 0 -35 43v9q0 50 40 88
q8 2 10 2zM249 462h9q28 -5 28 -40q0 -34 -33 -49q-12 -5 -27 -7v-37h-1q-5 0 -14 3v34h-5l-5 1q0 11 5 19h5v0q0 41 -6 41q-6 7 -6 11q18 24 50 24zM1059 376v-8q0 -21 25 -24q22 0 37 27q5 8 5 18v3q0 27 -26 53q-3 0 -3 2q-17 0 -35 -50q-3 -11 -3 -21zM224 435
q1 -35 1 -47q1 0 1 -2q29 6 37 17q8 10 8 18q0 18 -15 21h-6q-26 -3 -26 -7zM404 438q19 0 28 -49q-1 0 -15 -4q-6 33 -13 33q-17 -9 -20 -75q1 -14 1 -15q-10 -2 -15 -2q-13 69 -13 87q12 2 15 2v-1q0 -4 3 -19h1q10 43 28 43zM537 432q20 0 33 -32q2 -9 2 -17v-3
q0 -36 -35 -53q-5 -1 -9 -1q-27 4 -27 38q0 50 25 65q2 1 11 3zM614 432q19 0 36 -89q1 0 1 -7q-8 -7 -12 -7q-15 62 -23 80q-9 -13 -18 -70q-1 0 -5 -10h-7q-7 0 -9 57q-2 14 -2 23q7 2 14 2q3 -17 3 -20h1q7 41 21 41zM1185 432q16 0 35 -96q-9 -7 -13 -7q-15 66 -24 80
q-6 -12 -19 -74q-3 -6 -4 -6h-6q-7 0 -10 80q6 2 15 2q1 -19 1 -22h1q7 43 24 43zM472 430q18 -5 18 -17v-1q0 -2 -10 -8h-1q-4 7 -13 7q-13 0 -16 -11q0 -5 29 -6q20 -11 20 -34q0 -25 -20 -34l-8 -2h-5q-24 0 -34 23v1q1 3 9 11h1q12 -15 28 -15q14 4 14 16q-4 15 -21 15

<glyph glyph-name=".notdef" horiz-adv-x="1547" 
d="M100 -282v1710h1335v-1710h-1335zM135 -242h1264v1640h-1264v-1640zM725 471h3l11 -1v-18q2 -70 2 -126l-7 -2h-6q-3 71 -3 138v3v6zM1224 471h1l14 -1q-1 -9 -1 -13q0 -55 3 -131l-11 -2h-4q-2 58 -3 129q1 12 1 18zM790 466h4q0 -2 7 -12q-4 -18 -4 -30v-18
q0 -44 15 -58h1q21 0 35 117h2q12 -4 13 -4q-6 -58 -6 -86q0 -31 12 -31q2 -16 2 -20h-8q-13 0 -20 32h-1q-11 -28 -27 -28h-5q-20 0 -27 61q-1 4 -1 22v11q0 25 8 44zM1094 466h6q12 0 28 -28q12 -22 12 -44v-9q0 -37 -40 -58q-7 -3 -14 -3h-7q-30 0 -35 43v9q0 50 40 88
q8 2 10 2zM249 462h9q28 -5 28 -40q0 -34 -33 -49q-12 -5 -27 -7v-37h-1q-5 0 -14 3v34h-5l-5 1q0 11 5 19h5v0q0 41 -6 41q-6 7 -6 11q18 24 50 24zM1059 376v-8q0 -21 25 -24q22 0 37 27q5 8 5 18v3q0 27 -26 53q-3 0 -3 2q-17 0 -35 -50q-3 -11 -3 -21zM224 435
q1 -35 1 -47q1 0 1 -2q29 6 37 17q8 10 8 18q0 18 -15 21h-6q-26 -3 -26 -7zM404 438q19 0 28 -49q-1 0 -15 -4q-6 33 -13 33q-17 -9 -20 -75q1 -14 1 -15q-10 -2 -15 -2q-13 69 -13 87q12 2 15 2v-1q0 -4 3 -19h1q10 43 28 43zM537 432q20 0 33 -32q2 -9 2 -17v-3
q0 -36 -35 -53q-5 -1 -9 -1q-27 4 -27 38q0 50 25 65q2 1 11 3zM614 432q19 0 36 -89q1 0 1 -7q-8 -7 -12 -7q-15 62 -23 80q-9 -13 -18 -70q-1 0 -5 -10h-7q-7 0 -9 57q-2 14 -2 23q7 2 14 2q3 -17 3 -20h1q7 41 21 41zM1185 432q16 0 35 -96q-9 -7 -13 -7q-15 66 -24 80
q-6 -12 -19 -74q-3 -6 -4 -6h-6q-7 0 -10 80q6 2 15 2q1 -19 1 -22h1q7 43 24 43zM472 430q18 -5 18 -17v-1q0 -2 -10 -8h-1q-4 7 -13 7q-13 0 -16 -11q0 -5 29 -6q20 -11 20 -34q0 -25 -20 -34l-8 -2h-5q-24 0 -34 23v1q1 3 9 11h1q12 -15 28 -15q14 4 14 16q-4 15 -21 15
q-28 0 -28 22v3q0 30 37 30zM912 430q13 0 20 -18v-1q-11 -7 -14 -7q0 6 -11 7q-12 0 -17 -10v-1q0 -5 29 -6q19 -9 19 -36q0 -26 -24 -34h-8q-23 0 -35 23v1q8 11 10 11h1q12 -15 27 -15q14 4 14 16t-16 15q-25 0 -30 11q-2 11 -2 14q0 30 37 30zM1249 429v0q13 -2 14 -2
q-1 -18 -1 -26v-9q2 -35 13 -35h1q18 13 18 67v0h15v-3q7 -78 7 -88q0 -46 -30 -56h-5h-5q-18 0 -23 19q-1 5 -1 10v0q0 15 3 15h1q9 -6 12 -6l-1 -9q0 -8 9 -9h2q23 0 23 42q0 5 -1 21h-1q-8 -24 -26 -24h-1q-19 0 -25 47v17q0 10 2 29zM331 428q23 -4 23 -22v-6
q0 -20 -39 -36h-10q0 -11 17 -16q11 0 21 18h4q8 -12 8 -15q-17 -22 -30 -22h-7q-26 0 -30 45q0 40 32 53zM681 428h11q27 -9 27 -45q-1 -21 -1 -35l2 -16q-9 -8 -13 -8h-1l-2 11q-12 -8 -23 -8h-7q-22 3 -22 21v8q0 30 32 35q11 -1 20 -6v1q-4 25 -17 25q-9 0 -18 -10h-3
q-2 1 -8 11v2q12 14 23 14zM983 428q24 -4 24 -23q0 -29 -42 -41h-7v-2q7 -14 16 -14q10 0 23 18h1q1 0 9 -12q0 -9 -21 -22q-4 -3 -9 -3h-7q-24 0 -29 44q0 40 30 54zM516 365q2 -18 12 -18h3q24 7 26 35v3q-6 26 -20 26h-2q-13 0 -18 -32q-1 -7 -1 -14zM305 385
q19 0 33 18v2q-7 2 -9 2q-16 0 -24 -19v-3zM958 385h3q17 0 31 19q-6 3 -9 3h-3q-16 0 -22 -21v-1zM667 354v-3q0 -3 10 -6q17 0 25 17q-8 7 -19 7q-16 -3 -16 -15zM618 254q13 0 15 -34v-3l-6 -1h-2q-3 21 -8 21q-6 0 -8 -19q1 -2 1 -4q0 -10 2 -39q5 3 9 3h3v-15l-11 -3
q5 -57 5 -69h-11q-4 54 -4 65h-1q-5 -2 -10 -2v17q6 0 10 2q-3 21 -3 52q3 29 17 29h2zM816 254q12 0 16 -37l-8 -1h-2v1q0 15 -7 20q-8 -5 -8 -15q0 -8 3 -46v-1q5 3 10 3h1l1 -8v-7q-1 0 -12 -3l2 -3q0 -12 4 -66h-11q0 6 -4 65q-9 -2 -12 -2v17l11 1q-3 46 -3 52
q0 30 19 30zM709 237h4h6v-9q0 -61 3 -132h-11q-2 65 -2 102v39zM735 237h1h8v-30q0 -32 3 -111h-11q-3 66 -3 136v3q0 2 2 2zM529 234q8 -2 10 -2q-2 -29 -2 -42h2l12 2v-17q-1 0 -14 -2l4 -74l-2 -2h-8q-3 29 -5 75h-13v16l11 1h2v18q0 27 3 27zM994 234q3 0 12 -2
q-3 -13 -3 -29v-13h3l12 2v-17h-3l-12 -2l5 -74l-5 -2h-6q-3 62 -3 75h-15l1 8v8l11 1h1v1q0 21 2 44zM1140 234q3 0 12 -2q-2 -18 -2 -34v-8h2l12 2v-8v-9q-1 0 -14 -2v-6q0 -15 4 -68l-2 -2h-9l-4 75h-13v16l11 1h1zM404 231h10q14 0 23 -23q-6 -6 -6 -9h-3q-9 15 -21 15
q-17 0 -35 -26q-9 -19 -9 -34v-5q0 -29 24 -35q2 -1 8 -1q31 3 31 20v10q-4 3 -12 3h-10v17q28 0 33 -9q2 -7 2 -9q-2 -25 -2 -29q0 -11 4 -26q-1 0 -8 -5h-1q-4 0 -6 22q-6 -8 -29 -12h-2q-38 0 -43 51v4q0 58 45 79zM866 199q23 0 34 -38v-14q0 -34 -34 -50l-7 -1
q-16 0 -24 20q-2 11 -2 17v4q0 41 19 57q8 5 14 5zM943 199q15 0 34 -94h-1q-5 -4 -9 -4q-15 67 -24 79q-7 -7 -23 -79l-2 -1h-4q-6 0 -9 76l8 2h2q3 -16 3 -33h1q9 54 24 54zM487 195q20 -4 20 -20q1 0 1 -2q0 -23 -35 -36q-5 -3 -15 -3v-1q0 -11 17 -17h1q10 0 23 16h3
q0 -2 6 -9v-1q-14 -22 -29 -22h-6q-19 0 -27 32v15q0 33 26 46q5 2 15 2zM1083 195h11q16 0 24 -28q2 -16 3 -18q-1 -6 -3 -26q2 -4 2 -23l-6 -4h-3l-3 12q-10 -11 -25 -11h-4q-21 3 -21 20v8q3 32 30 32q12 0 21 -8v3q0 25 -18 29h-3q-6 0 -17 -8h-1q-1 0 -6 7v2
q10 13 19 13zM634 193q2 0 11 -3q0 -74 14 -74q19 12 28 66q1 5 1 11h1q3 0 10 -3q-3 -24 -3 -45v-12q0 -9 5 -19q-5 -7 -5 -11h-2q-7 4 -8 26h-2q-4 -15 -19 -29h-9q-20 0 -20 75v10zM843 137q2 -23 15 -23h1q16 0 27 25q3 8 3 11q-6 31 -22 31h-4q-15 0 -20 -44zM457 150
q23 0 39 22q-2 6 -11 6h-3q-19 0 -25 -28zM1068 122q3 -8 11 -8h6q14 0 22 18q-9 8 -17 8h-2q-20 -3 -20 -18zM507 45q1 0 17 -4q-4 -38 -5 -92q0 -34 10 -69q-11 -10 -12 -10h-1q-3 0 -6 13h-2q0 -8 -21 -16q-33 0 -47 42q-3 12 -3 28q0 48 34 58h4q14 0 29 -16v1q0 8 3 65
zM316 39l15 -5q-2 -23 -2 -36v-14q13 3 15 3q2 -20 2 -24h-2q-9 -1 -15 -1q3 -63 5 -91q-12 -2 -17 -2v1q-5 61 -5 88l-2 2h-14v24h15v9q0 46 5 46zM674 39h1l15 -5q-2 -28 -2 -45v-5q14 3 16 3l1 -14v-10q-16 -1 -16 -2q0 -23 5 -90q-13 -2 -17 -2v1q-5 75 -5 90h-18v24h17
q0 34 3 55zM546 36q9 0 11 -14v-1q0 -11 -8 -16h-7q-8 5 -8 17q2 14 12 14zM607 -5q25 0 41 -38q2 -11 2 -17v-9q0 -40 -39 -60q-4 -2 -13 -2q-27 0 -32 41v14q0 51 30 69q10 2 11 2zM800 -5h5q11 0 11 -3v-2q9 5 19 5q25 0 33 -44q0 -11 1 -14q-3 -52 -31 -64l-8 -1h-10
l1 -8q0 -6 1 -40h-17q-5 132 -5 171zM915 -5q23 0 39 -35q4 -13 4 -24q0 -43 -38 -65q-8 -2 -14 -2q-22 0 -31 27q-2 12 -2 23q0 54 30 74q11 2 12 2zM1117 -5q24 0 39 -35q4 -8 4 -19v-8q0 -43 -39 -62q-4 -2 -13 -2q-28 0 -32 41v14q0 51 30 69q10 2 11 2zM1211 -5
q17 0 27 -58h1q8 58 27 58h1q24 0 40 -118h-2q-11 -5 -13 -5h-1q-19 98 -25 98q-10 -22 -17 -82q-3 -10 -10 -10q-8 0 -11 15q-13 76 -19 76q-16 -58 -16 -93q-10 -4 -17 -4v1l-12 104q13 6 17 6q2 -8 4 -31h2q9 43 24 43zM258 -6q24 -5 24 -21v-1q-1 -2 -12 -9h-3
q0 7 -13 8h-1q-13 0 -20 -10v-4q0 -6 31 -6q27 -12 27 -38v-5q0 -28 -22 -38q-5 -3 -10 -3h-9q-23 0 -39 25q0 5 11 16h3q8 -18 30 -18q18 0 18 20q0 15 -21 18q-27 0 -32 12q-4 8 -4 12v8q0 34 42 34zM713 -7q12 -4 15 -4q-1 -23 -1 -34v-6q0 -33 12 -44h5q22 18 22 72v10
h17v-1q8 -89 8 -103v-10q0 -44 -28 -60q-10 -4 -16 -4q-22 0 -29 20q-2 4 -2 9v9q0 15 4 15l14 -7l-1 -8v-4q0 -8 11 -10h4q20 0 25 33q1 4 1 12v20l-1 13h-1q-10 -30 -29 -30h-2q-23 0 -30 50q-1 8 -1 20v9q0 33 3 33zM1033 -8h8q6 0 15 -9q11 -12 11 -18q-11 -13 -12 -13
v0q-11 15 -18 15h-2q-12 -5 -18 -28l-4 -21q0 -22 14 -24h3q11 0 34 16h1q6 -20 6 -22q-25 -18 -47 -18q-23 0 -28 46q0 34 19 64q12 12 18 12zM537 -10h12l6 -1q0 -3 -1 -8q1 -67 4 -109h-18l-1 8q-2 68 -2 110zM350 -11q17 -5 17 -6v-20q0 -67 12 -67h5q17 19 24 55
q5 10 6 38h2q15 -2 15 -6q-3 -42 -3 -59v-10q0 -10 5 -20q0 -6 -10 -18v0q-12 12 -12 25h-1q-11 -29 -28 -29h-3q-29 0 -29 93v24zM454 -67q0 -34 30 -40h3q12 0 15 26v3q0 36 -21 48l-6 1h-2q-17 0 -19 -35v-3zM583 -82q0 -22 15 -25h4q15 0 29 29q2 4 2 9v9q-7 31 -24 31
h-2q-21 0 -24 -53zM816 -37q0 -3 3 -67l7 -1q22 0 26 42q-3 34 -17 34h-1q-10 0 -18 -8zM890 -82v-5q0 -17 15 -20h2q16 0 30 26q4 8 4 18q-6 34 -28 34q-19 0 -23 -53zM1092 -82q0 -25 17 -25h3q14 0 29 30q2 6 2 10v7q-8 31 -25 31h-1q-20 0 -25 -53zM977 -96q9 0 12 -14
v-5q-3 -13 -12 -13t-11 15q1 17 11 17zM717 1368v-242h-261q-54 0 -103 -38v10q147 270 364 270zM800 1368h10q132 0 279 -149q56 -68 56 -93h-345v242zM428 1042h289v-94q-35 19 -75 19h-214q-19 0 -19 19v37q3 19 19 19zM800 1042h383l9 -94v-18q0 -185 -131 -298h-167
q-94 12 -94 93v317zM325 967h9q0 -72 140 -84h177q66 0 66 -65v-103q0 -83 -103 -83h-158q-131 120 -131 279v56zM754 604h9q61 -56 187 -56v-10q-108 -37 -187 -37h-9q-80 0 -187 37v10q132 0 187 56z" />
    <glyph glyph-name=".null" horiz-adv-x="200" 
 />
    <glyph glyph-name=".null" horiz-adv-x="200" 
 />
    <glyph glyph-name="nonmarkingreturn" horiz-adv-x="200" 
 />
    <glyph glyph-name="space" unicode=" " horiz-adv-x="602" 
 />
    <glyph glyph-name="space" unicode="&#xa0;" horiz-adv-x="602" 
 />
    <glyph glyph-name="exclam" unicode="!" horiz-adv-x="491" 
d="M150 1333q0 39 28 67t67 28q40 0 68 -28t28 -67v-852q0 -39 -28 -67t-68 -28q-39 0 -67 28t-28 67v852zM178 28.5q-28 28.5 -28 67.5q0 40 28 68t67 28t67 -28t28 -68q0 -39 -28 -67.5t-67 -28.5t-67 28.5z" />
    <glyph glyph-name="quotedbl" unicode="&#x22;" horiz-adv-x="704" 
d="M100 1333q0 39 28 67t67 28q40 0 67 -28q28 -28 28 -67v-352q0 -39 -28 -67q-27 -28 -67 -28q-39 0 -67 28t-28 67v352zM414 1332q0 40 28 68t67 28q40 0 68 -28q27 -28 27 -68v-351q0 -40 -27 -68q-28 -28 -68 -28q-39 0 -67 28t-28 68v351z" />
    <glyph glyph-name="numbersign" unicode="#" horiz-adv-x="1349" 
d="M195 823q-39 0 -67 28t-28 67q0 40 28 68q28 27 67 27h179v319q0 39 28 67t68 28q39 0 67 -28t28 -67v-319h219v319q0 39 28 67t67 28q40 0 68 -28t28 -67v-319h179q39 0 67 -27q28 -28 28 -68q0 -39 -28 -67t-67 -28h-179v-219h179q39 0 67 -28t28 -67q0 -40 -28 -68
q-28 -27 -67 -27h-179v-319q0 -39 -28 -67t-68 -28q-39 0 -67 28t-28 67v319h-219v-319q0 -39 -28 -67t-67 -28q-40 0 -68 28t-28 67v319h-179q-39 0 -67 27q-28 28 -28 68q0 39 28 67t67 28h179v219h-179zM784 823h-219v-219h219v219z" />
    <glyph glyph-name="dollar" unicode="$" horiz-adv-x="1009" 
d="M419 1486q0 45 27 71q24 23 58 23q35 0 59 -23q26 -26 26 -71v-72q69 -14 129 -52q100 -62 150 -167q17 -35 4 -72t-48 -54q-36 -18 -73 -5t-54 49q-27 56 -79 88q-14 9 -29 15v-429q154 -39 223 -105q97 -93 97 -281q0 -167 -119 -286q-84 -84 -201 -109v-73
q0 -44 -26 -70q-24 -23 -59 -23q-34 0 -58 23q-27 26 -27 70v73q-91 20 -165 78q-111 88 -143 225q-9 38 12 71q20 34 59 43q38 9 72 -12q33 -21 42 -59q17 -73 75 -119q22 -18 48 -29v429q-154 40 -222 106q-97 93 -97 280q0 168 118 286q85 85 201 110v71zM589 205
q38 16 67 45q62 62 62 151q0 137 -129 186v-382zM419 1216q-37 -17 -66 -45q-63 -63 -63 -152q0 -136 129 -186v383z" />
    <glyph glyph-name="percent" unicode="%" horiz-adv-x="1410" 
d="M1104 1421q39 7 71 -15q33 -22 40 -60q8 -39 -14 -72l-834 -1236q-22 -33 -61 -40q-39 -8 -71 14q-33 22 -40 61q-8 38 14 71l834 1237q22 32 61 40zM140 1322q-90 -90 -90 -217t90 -216q89 -90 216 -90t217 90q90 89 90 216t-90 216l-1 1q-89 89 -216 89t-216 -89z
M438 1187q34 -34 34 -82t-34 -82t-82 -34t-82 34t-34 82t34 82t82 34t82 -34zM837 518q-89 -89 -89 -216t89 -217q90 -89 217 -89t216 89q90 90 90 217t-90 216q-89 90 -216 90t-217 -90zM1136 384q34 -34 34 -82t-34 -82t-82 -34t-82 34t-34 82t34 82t82 34t82 -34z" />
    <glyph glyph-name="ampersand" unicode="&#x26;" horiz-adv-x="1542" 
d="M1103 1100q-16 -36 -53 -51q-36 -14 -72 1q-37 16 -51 53q-25 61 -79 98t-120 37h-143q-89 0 -152 -63t-63 -151q0 -89 63 -152t152 -63h357v42q0 40 28 67q28 28 67 28t67 -28q28 -27 28 -67v-42h215q39 0 67 -27q28 -28 28 -68q0 -39 -28 -67t-67 -28h-215v-225
q4 -82 63 -141q63 -63 152 -63q39 0 67 -27q28 -28 28 -68q0 -39 -28 -67t-67 -28q-168 0 -287 119q-12 12 -23 25q-11 -13 -23 -25q-119 -119 -286 -119h-143q-168 0 -286 119q-119 118 -119 286q0 167 119 286q12 12 25 23q-13 11 -25 24q-119 118 -119 286q0 167 119 286
q118 118 286 118h143q123 0 226 -70q104 -70 150 -185q14 -37 -1 -73zM585 619q-89 0 -152 -63t-63 -151q0 -89 63 -152t152 -63h143q88 0 151 63t63 160v206h-357z" />
    <glyph glyph-name="quotesingle" unicode="'" horiz-adv-x="491" 
d="M150 1333q0 39 28 67t67 28q40 0 68 -28t28 -67v-352q0 -39 -28 -67t-68 -28q-39 0 -67 28t-28 67v352z" />
    <glyph glyph-name="parenleft" unicode="(" horiz-adv-x="755" 
d="M703 -388q2 -39 -25 -68q-27 -28 -66 -29q-39 -2 -68 25q-45 43 -82 81q-361 387 -361 851q0 463 362 849q41 45 81 82q29 26 68 25t66 -30t26 -68q-2 -40 -31 -66q-40 -38 -72 -72q-310 -332 -310 -720q0 -389 310 -721q37 -40 72 -73q29 -26 30 -66z" />
    <glyph glyph-name="parenright" unicode=")" horiz-adv-x="754" 
d="M82 -322q35 33 72 73q310 332 310 721q0 388 -310 720q-32 34 -72 72q-29 26 -31 66q-1 39 26 68t66 30t68 -25q40 -37 81 -82q362 -386 362 -849q0 -464 -361 -851q-37 -38 -82 -81q-29 -27 -68 -25q-39 1 -66 29q-27 29 -25 68q1 40 30 66z" />
    <glyph glyph-name="asterisk" unicode="*" horiz-adv-x="1141" 
d="M475 1332q0 39 28 67t67 28q40 0 68 -28q27 -28 27 -67v-256l244 79q37 12 72 -6t47 -55q13 -37 -5 -72q-18 -36 -56 -48l-243 -79l151 -207q23 -32 16 -71q-6 -39 -38 -62t-70 -17q-39 7 -62 39l-151 206l-150 -206q-23 -32 -62 -39q-39 -6 -71 17t-38 62t17 71l151 207
l-244 79q-37 13 -55 48t-6 72t47 55t73 6l243 -79v256z" />
    <glyph glyph-name="plus" unicode="+" horiz-adv-x="1171" 
d="M195 590q-39 0 -67 28q-28 27 -28 67q0 39 28 67t67 28h295v295q0 39 28 67t67 28q40 0 68 -28q27 -28 27 -67v-295h295q40 0 68 -28t28 -67q0 -40 -28 -67q-28 -28 -68 -28h-295v-295q0 -40 -27 -68q-28 -27 -68 -27q-39 0 -67 27q-28 28 -28 68v295h-295z" />
    <glyph glyph-name="comma" unicode="," horiz-adv-x="390" 
d="M122 149q12 38 47 56q34 19 72 7t56 -47q19 -34 7 -72l-104 -336q-11 -38 -46 -56q-35 -19 -73 -7q-37 12 -56 46q-18 35 -7 73z" />
    <glyph glyph-name="hyphen" unicode="-" horiz-adv-x="911" 
d="M195 542q-39 0 -67 28q-28 27 -28 67q0 39 28 67t67 28h520q40 0 68 -28t28 -67q0 -40 -28 -67q-28 -28 -68 -28h-520z" />
    <glyph glyph-name="hyphen" unicode="&#xad;" horiz-adv-x="911" 
d="M195 542q-39 0 -67 28q-28 27 -28 67q0 39 28 67t67 28h520q40 0 68 -28t28 -67q0 -40 -28 -67q-28 -28 -68 -28h-520z" />
    <glyph glyph-name="period" unicode="." horiz-adv-x="1547" 
d="M100 -282v1710h1335v-1710h-1335zM135 -242h1264v1640h-1264v-1640zM725 471h3l11 -1v-18q2 -70 2 -126l-7 -2h-6q-3 71 -3 138v3v6zM1224 471h1l14 -1q-1 -9 -1 -13q0 -55 3 -131l-11 -2h-4q-2 58 -3 129q1 12 1 18zM790 466h4q0 -2 7 -12q-4 -18 -4 -30v-18
q0 -44 15 -58h1q21 0 35 117h2q12 -4 13 -4q-6 -58 -6 -86q0 -31 12 -31q2 -16 2 -20h-8q-13 0 -20 32h-1q-11 -28 -27 -28h-5q-20 0 -27 61q-1 4 -1 22v11q0 25 8 44zM1094 466h6q12 0 28 -28q12 -22 12 -44v-9q0 -37 -40 -58q-7 -3 -14 -3h-7q-30 0 -35 43v9q0 50 40 88
q8 2 10 2zM249 462h9q28 -5 28 -40q0 -34 -33 -49q-12 -5 -27 -7v-37h-1q-5 0 -14 3v34h-5l-5 1q0 11 5 19h5v0q0 41 -6 41q-6 7 -6 11q18 24 50 24zM1059 376v-8q0 -21 25 -24q22 0 37 27q5 8 5 18v3q0 27 -26 53q-3 0 -3 2q-17 0 -35 -50q-3 -11 -3 -21zM224 435
q1 -35 1 -47q1 0 1 -2q29 6 37 17q8 10 8 18q0 18 -15 21h-6q-26 -3 -26 -7zM404 438q19 0 28 -49q-1 0 -15 -4q-6 33 -13 33q-17 -9 -20 -75q1 -14 1 -15q-10 -2 -15 -2q-13 69 -13 87q12 2 15 2v-1q0 -4 3 -19h1q10 43 28 43zM537 432q20 0 33 -32q2 -9 2 -17v-3
q0 -36 -35 -53q-5 -1 -9 -1q-27 4 -27 38q0 50 25 65q2 1 11 3zM614 432q19 0 36 -89q1 0 1 -7q-8 -7 -12 -7q-15 62 -23 80q-9 -13 -18 -70q-1 0 -5 -10h-7q-7 0 -9 57q-2 14 -2 23q7 2 14 2q3 -17 3 -20h1q7 41 21 41zM1185 432q16 0 35 -96q-9 -7 -13 -7q-15 66 -24 80
q-6 -12 -19 -74q-3 -6 -4 -6h-6q-7 0 -10 80q6 2 15 2q1 -19 1 -22h1q7 43 24 43zM472 430q18 -5 18 -17v-1q0 -2 -10 -8h-1q-4 7 -13 7q-13 0 -16 -11q0 -5 29 -6q20 -11 20 -34q0 -25 -20 -34l-8 -2h-5q-24 0 -34 23v1q1 3 9 11h1q12 -15 28 -15q14 4 14 16q-4 15 -21 15
q-28 0 -28 22v3q0 30 37 30zM912 430q13 0 20 -18v-1q-11 -7 -14 -7q0 6 -11 7q-12 0 -17 -10v-1q0 -5 29 -6q19 -9 19 -36q0 -26 -24 -34h-8q-23 0 -35 23v1q8 11 10 11h1q12 -15 27 -15q14 4 14 16t-16 15q-25 0 -30 11q-2 11 -2 14q0 30 37 30zM1249 429v0q13 -2 14 -2
q-1 -18 -1 -26v-9q2 -35 13 -35h1q18 13 18 67v0h15v-3q7 -78 7 -88q0 -46 -30 -56h-5h-5q-18 0 -23 19q-1 5 -1 10v0q0 15 3 15h1q9 -6 12 -6l-1 -9q0 -8 9 -9h2q23 0 23 42q0 5 -1 21h-1q-8 -24 -26 -24h-1q-19 0 -25 47v17q0 10 2 29zM331 428q23 -4 23 -22v-6
q0 -20 -39 -36h-10q0 -11 17 -16q11 0 21 18h4q8 -12 8 -15q-17 -22 -30 -22h-7q-26 0 -30 45q0 40 32 53zM681 428h11q27 -9 27 -45q-1 -21 -1 -35l2 -16q-9 -8 -13 -8h-1l-2 11q-12 -8 -23 -8h-7q-22 3 -22 21v8q0 30 32 35q11 -1 20 -6v1q-4 25 -17 25q-9 0 -18 -10h-3
q-2 1 -8 11v2q12 14 23 14zM983 428q24 -4 24 -23q0 -29 -42 -41h-7v-2q7 -14 16 -14q10 0 23 18h1q1 0 9 -12q0 -9 -21 -22q-4 -3 -9 -3h-7q-24 0 -29 44q0 40 30 54zM516 365q2 -18 12 -18h3q24 7 26 35v3q-6 26 -20 26h-2q-13 0 -18 -32q-1 -7 -1 -14zM305 385
q19 0 33 18v2q-7 2 -9 2q-16 0 -24 -19v-3zM958 385h3q17 0 31 19q-6 3 -9 3h-3q-16 0 -22 -21v-1zM667 354v-3q0 -3 10 -6q17 0 25 17q-8 7 -19 7q-16 -3 -16 -15zM618 254q13 0 15 -34v-3l-6 -1h-2q-3 21 -8 21q-6 0 -8 -19q1 -2 1 -4q0 -10 2 -39q5 3 9 3h3v-15l-11 -3
q5 -57 5 -69h-11q-4 54 -4 65h-1q-5 -2 -10 -2v17q6 0 10 2q-3 21 -3 52q3 29 17 29h2zM816 254q12 0 16 -37l-8 -1h-2v1q0 15 -7 20q-8 -5 -8 -15q0 -8 3 -46v-1q5 3 10 3h1l1 -8v-7q-1 0 -12 -3l2 -3q0 -12 4 -66h-11q0 6 -4 65q-9 -2 -12 -2v17l11 1q-3 46 -3 52
q0 30 19 30zM709 237h4h6v-9q0 -61 3 -132h-11q-2 65 -2 102v39zM735 237h1h8v-30q0 -32 3 -111h-11q-3 66 -3 136v3q0 2 2 2zM529 234q8 -2 10 -2q-2 -29 -2 -42h2l12 2v-17q-1 0 -14 -2l4 -74l-2 -2h-8q-3 29 -5 75h-13v16l11 1h2v18q0 27 3 27zM994 234q3 0 12 -2
q-3 -13 -3 -29v-13h3l12 2v-17h-3l-12 -2l5 -74l-5 -2h-6q-3 62 -3 75h-15l1 8v8l11 1h1v1q0 21 2 44zM1140 234q3 0 12 -2q-2 -18 -2 -34v-8h2l12 2v-8v-9q-1 0 -14 -2v-6q0 -15 4 -68l-2 -2h-9l-4 75h-13v16l11 1h1zM404 231h10q14 0 23 -23q-6 -6 -6 -9h-3q-9 15 -21 15
q-17 0 -35 -26q-9 -19 -9 -34v-5q0 -29 24 -35q2 -1 8 -1q31 3 31 20v10q-4 3 -12 3h-10v17q28 0 33 -9q2 -7 2 -9q-2 -25 -2 -29q0 -11 4 -26q-1 0 -8 -5h-1q-4 0 -6 22q-6 -8 -29 -12h-2q-38 0 -43 51v4q0 58 45 79zM866 199q23 0 34 -38v-14q0 -34 -34 -50l-7 -1
q-16 0 -24 20q-2 11 -2 17v4q0 41 19 57q8 5 14 5zM943 199q15 0 34 -94h-1q-5 -4 -9 -4q-15 67 -24 79q-7 -7 -23 -79l-2 -1h-4q-6 0 -9 76l8 2h2q3 -16 3 -33h1q9 54 24 54zM487 195q20 -4 20 -20q1 0 1 -2q0 -23 -35 -36q-5 -3 -15 -3v-1q0 -11 17 -17h1q10 0 23 16h3
q0 -2 6 -9v-1q-14 -22 -29 -22h-6q-19 0 -27 32v15q0 33 26 46q5 2 15 2zM1083 195h11q16 0 24 -28q2 -16 3 -18q-1 -6 -3 -26q2 -4 2 -23l-6 -4h-3l-3 12q-10 -11 -25 -11h-4q-21 3 -21 20v8q3 32 30 32q12 0 21 -8v3q0 25 -18 29h-3q-6 0 -17 -8h-1q-1 0 -6 7v2
q10 13 19 13zM634 193q2 0 11 -3q0 -74 14 -74q19 12 28 66q1 5 1 11h1q3 0 10 -3q-3 -24 -3 -45v-12q0 -9 5 -19q-5 -7 -5 -11h-2q-7 4 -8 26h-2q-4 -15 -19 -29h-9q-20 0 -20 75v10zM843 137q2 -23 15 -23h1q16 0 27 25q3 8 3 11q-6 31 -22 31h-4q-15 0 -20 -44zM457 150
q23 0 39 22q-2 6 -11 6h-3q-19 0 -25 -28zM1068 122q3 -8 11 -8h6q14 0 22 18q-9 8 -17 8h-2q-20 -3 -20 -18zM507 45q1 0 17 -4q-4 -38 -5 -92q0 -34 10 -69q-11 -10 -12 -10h-1q-3 0 -6 13h-2q0 -8 -21 -16q-33 0 -47 42q-3 12 -3 28q0 48 34 58h4q14 0 29 -16v1q0 8 3 65
zM316 39l15 -5q-2 -23 -2 -36v-14q13 3 15 3q2 -20 2 -24h-2q-9 -1 -15 -1q3 -63 5 -91q-12 -2 -17 -2v1q-5 61 -5 88l-2 2h-14v24h15v9q0 46 5 46zM674 39h1l15 -5q-2 -28 -2 -45v-5q14 3 16 3l1 -14v-10q-16 -1 -16 -2q0 -23 5 -90q-13 -2 -17 -2v1q-5 75 -5 90h-18v24h17
q0 34 3 55zM546 36q9 0 11 -14v-1q0 -11 -8 -16h-7q-8 5 -8 17q2 14 12 14zM607 -5q25 0 41 -38q2 -11 2 -17v-9q0 -40 -39 -60q-4 -2 -13 -2q-27 0 -32 41v14q0 51 30 69q10 2 11 2zM800 -5h5q11 0 11 -3v-2q9 5 19 5q25 0 33 -44q0 -11 1 -14q-3 -52 -31 -64l-8 -1h-10
l1 -8q0 -6 1 -40h-17q-5 132 -5 171zM915 -5q23 0 39 -35q4 -13 4 -24q0 -43 -38 -65q-8 -2 -14 -2q-22 0 -31 27q-2 12 -2 23q0 54 30 74q11 2 12 2zM1117 -5q24 0 39 -35q4 -8 4 -19v-8q0 -43 -39 -62q-4 -2 -13 -2q-28 0 -32 41v14q0 51 30 69q10 2 11 2zM1211 -5
q17 0 27 -58h1q8 58 27 58h1q24 0 40 -118h-2q-11 -5 -13 -5h-1q-19 98 -25 98q-10 -22 -17 -82q-3 -10 -10 -10q-8 0 -11 15q-13 76 -19 76q-16 -58 -16 -93q-10 -4 -17 -4v1l-12 104q13 6 17 6q2 -8 4 -31h2q9 43 24 43zM258 -6q24 -5 24 -21v-1q-1 -2 -12 -9h-3
q0 7 -13 8h-1q-13 0 -20 -10v-4q0 -6 31 -6q27 -12 27 -38v-5q0 -28 -22 -38q-5 -3 -10 -3h-9q-23 0 -39 25q0 5 11 16h3q8 -18 30 -18q18 0 18 20q0 15 -21 18q-27 0 -32 12q-4 8 -4 12v8q0 34 42 34zM713 -7q12 -4 15 -4q-1 -23 -1 -34v-6q0 -33 12 -44h5q22 18 22 72v10
h17v-1q8 -89 8 -103v-10q0 -44 -28 -60q-10 -4 -16 -4q-22 0 -29 20q-2 4 -2 9v9q0 15 4 15l14 -7l-1 -8v-4q0 -8 11 -10h4q20 0 25 33q1 4 1 12v20l-1 13h-1q-10 -30 -29 -30h-2q-23 0 -30 50q-1 8 -1 20v9q0 33 3 33zM1033 -8h8q6 0 15 -9q11 -12 11 -18q-11 -13 -12 -13
v0q-11 15 -18 15h-2q-12 -5 -18 -28l-4 -21q0 -22 14 -24h3q11 0 34 16h1q6 -20 6 -22q-25 -18 -47 -18q-23 0 -28 46q0 34 19 64q12 12 18 12zM537 -10h12l6 -1q0 -3 -1 -8q1 -67 4 -109h-18l-1 8q-2 68 -2 110zM350 -11q17 -5 17 -6v-20q0 -67 12 -67h5q17 19 24 55
q5 10 6 38h2q15 -2 15 -6q-3 -42 -3 -59v-10q0 -10 5 -20q0 -6 -10 -18v0q-12 12 -12 25h-1q-11 -29 -28 -29h-3q-29 0 -29 93v24zM454 -67q0 -34 30 -40h3q12 0 15 26v3q0 36 -21 48l-6 1h-2q-17 0 -19 -35v-3zM583 -82q0 -22 15 -25h4q15 0 29 29q2 4 2 9v9q-7 31 -24 31
h-2q-21 0 -24 -53zM816 -37q0 -3 3 -67l7 -1q22 0 26 42q-3 34 -17 34h-1q-10 0 -18 -8zM890 -82v-5q0 -17 15 -20h2q16 0 30 26q4 8 4 18q-6 34 -28 34q-19 0 -23 -53zM1092 -82q0 -25 17 -25h3q14 0 29 30q2 6 2 10v7q-8 31 -25 31h-1q-20 0 -25 -53zM977 -96q9 0 12 -14
v-5q-3 -13 -12 -13t-11 15q1 17 11 17zM717 1368v-242h-261q-54 0 -103 -38v10q147 270 364 270zM800 1368h10q132 0 279 -149q56 -68 56 -93h-345v242zM428 1042h289v-94q-35 19 -75 19h-214q-19 0 -19 19v37q3 19 19 19zM800 1042h383l9 -94v-18q0 -185 -131 -298h-167
q-94 12 -94 93v317zM325 967h9q0 -72 140 -84h177q66 0 66 -65v-103q0 -83 -103 -83h-158q-131 120 -131 279v56zM754 604h9q61 -56 187 -56v-10q-108 -37 -187 -37h-9q-80 0 -187 37v10q132 0 187 56z" />
    <glyph glyph-name="slash" unicode="/" horiz-adv-x="773" 
d="M625 1418q37 15 73 -1t50 -53q15 -36 -1 -72l-547 -1237q-16 -37 -53 -51q-36 -14 -72 2t-51 52q-14 37 2 73l547 1237q16 36 52 50z" />
    <glyph glyph-name="zero" unicode="0" horiz-adv-x="1267" 
d="M1053 1210q164 -207 164 -496q0 -288 -164 -496q-171 -218 -419 -218t-420 218q-164 208 -164 496q0 289 164 496q172 218 420 218t419 -218zM634 1238q-157 0 -271 -145q-123 -155 -123 -379t123 -379q114 -144 271 -144q156 0 271 144q122 155 122 379t-122 379
q-115 145 -271 145z" />
    <glyph glyph-name="one" unicode="1" horiz-adv-x="768" 
d="M578 96q0 -40 -28 -68t-67 -28q-40 0 -67 28q-28 28 -28 68v1142h-283q-39 0 -67 27q-28 28 -28 68q0 39 28 67t67 28h378q39 0 67 -28t28 -67v-1237z" />
    <glyph glyph-name="two" unicode="2" horiz-adv-x="1152" 
d="M285 909q-28 -28 -67 -28q-40 0 -68 28q-28 27 -28 67q0 187 133 320q132 132 319 132q188 0 320 -132q133 -133 133 -320q0 -236 -126 -344q-75 -65 -281 -122q-145 -40 -204 -85q-100 -76 -120 -234h661q39 0 67 -28t28 -67q0 -40 -28 -68t-67 -28h-762q-39 0 -67 28
t-28 68q0 310 149 450q89 83 320 147q135 37 185 77q82 66 82 206q0 108 -76 185q-77 77 -186 77q-108 0 -185 -77q-76 -77 -76 -185q0 -40 -28 -67z" />
    <glyph glyph-name="three" unicode="3" horiz-adv-x="1104" 
d="M195 0q-39 0 -67 28t-28 68q0 39 28 67t67 28h258q244 0 324 169q26 55 26 116q0 60 -26 116q-82 172 -329 172h-103q-39 0 -67 28t-28 67q0 48 39 77l358 302h-439q-39 0 -67 28q-28 27 -28 67q0 39 28 67t67 28h693q47 2 78 -34q25 -30 22 -69t-33 -65l-379 -319
q257 -52 360 -268q44 -93 44 -197t-44 -197q-59 -125 -180 -198q-133 -81 -316 -81h-258z" />
    <glyph glyph-name="four" unicode="4" horiz-adv-x="1130" 
d="M729 1240l-482 -733l-3 -6h485v739zM919 96q0 -40 -28 -68t-67 -28t-67 28t-28 68v215h-485q-54 0 -100 28q-46 29 -70 78q-24 47 -19 100q4 49 34 94l485 738q35 53 97 72q58 18 118 -2q59 -19 94 -69q36 -49 36 -111v-738h95q40 0 68 -28q28 -27 28 -67q0 -39 -28 -67
t-68 -28h-95v-215z" />
    <glyph glyph-name="five" unicode="5" horiz-adv-x="1206" 
d="M120 449q21 34 59 43q38 10 72 -11q33 -20 43 -58q24 -100 111 -167q87 -66 195 -66q130 0 224 91q91 90 91 215q0 122 -94 213q-97 93 -229 93q-74 0 -144 -32q-69 -31 -110 -81q-25 -30 -64 -34t-70 21q-39 32 -34 83l59 582q4 37 31 61q27 25 64 25v0h572q39 0 67 -28
t28 -67q0 -40 -28 -67q-28 -28 -67 -28h-487l-29 -289q104 44 212 44q208 0 361 -146q153 -147 153 -350q0 -204 -150 -351q-149 -145 -356 -145q-172 0 -310 106q-140 106 -181 271q-9 38 11 72z" />
    <glyph glyph-name="six" unicode="6" horiz-adv-x="1161" 
d="M657 1397q27 29 66 31q39 1 68 -25q29 -27 31 -66q1 -40 -25 -69l-191 -207q204 -10 350 -155q155 -155 155 -375t-155 -375q-156 -156 -376 -156q-219 0 -375 156q-155 155 -155 375q0 215 150 369zM580 871q-140 0 -240 -100q-100 -99 -100 -240t100 -241
q100 -99 240 -99q141 0 241 99q100 100 100 241t-100 240q-100 100 -241 100z" />
    <glyph glyph-name="seven" unicode="7" horiz-adv-x="1111" 
d="M451 13q-37 -13 -73 3q-36 17 -49 54q-14 37 2 72l509 1103h-705q-39 0 -67 27q-28 28 -28 68q0 39 28 67t67 28h854q21 0 40 -9q35 -16 49 -53q13 -37 -3 -73l-571 -1237q-17 -36 -53 -50z" />
    <glyph glyph-name="eight" unicode="8" horiz-adv-x="1004" 
d="M748 1326q101 -102 101 -245q0 -135 -90 -234q38 -26 70 -58q135 -135 135 -326q0 -192 -135 -327q-135 -136 -327 -136q-191 0 -327 136q-135 135 -135 327q0 191 135 326q33 32 70 58q-90 99 -90 234q0 143 102 245q101 102 245 102t246 -102zM502 733q-9 0 -18 1
q-102 -7 -174 -79q-80 -80 -80 -192q0 -113 80 -193q80 -79 192 -79q113 0 192 79q80 80 80 193q0 112 -80 192q-72 72 -174 79q-9 -1 -18 -1zM502 1238q-65 0 -111 -46t-46 -111t46 -111q40 -40 95 -46q8 1 16 1t16 -1q56 6 95 46q46 46 46 111t-46 111t-111 46z" />
    <glyph glyph-name="nine" unicode="9" horiz-adv-x="1161" 
d="M504 32q-27 -29 -66 -30q-39 -2 -68 25q-29 26 -31 66q-1 39 25 68l191 208q-204 9 -350 154q-155 156 -155 375q0 220 155 376q156 155 375 155q220 0 376 -155q155 -156 155 -376q0 -215 -150 -369zM580 558q141 0 241 100t100 240q0 141 -100 241t-241 100
q-140 0 -240 -100t-100 -241q0 -140 100 -240t240 -100z" />
    <glyph glyph-name="colon" unicode=":" horiz-adv-x="414" 
d="M282.5 184.5q31.5 -31.5 31.5 -76.5t-31.5 -76.5t-75.5 -31.5t-75.5 31.5t-31.5 76.5t31.5 76.5t75.5 31.5t75.5 -31.5zM282.5 910.5q31.5 -31.5 31.5 -76.5t-31.5 -76.5t-75.5 -31.5t-75.5 31.5t-31.5 76.5t31.5 76.5t75.5 31.5t75.5 -31.5z" />
    <glyph glyph-name="semicolon" unicode=";" horiz-adv-x="416" 
d="M122 149q12 38 47 56q34 19 72 7t56 -47q19 -34 7 -72l-104 -336q-11 -38 -46 -56q-35 -19 -73 -7q-37 12 -56 46q-18 35 -7 73zM282.5 910.5q31.5 -31.5 31.5 -76.5t-31.5 -76.5t-75.5 -31.5t-75.5 31.5t-31.5 76.5t31.5 76.5t75.5 31.5t75.5 -31.5z" />
    <glyph glyph-name="semicolon" unicode="&#x37e;" horiz-adv-x="416" 
d="M122 149q12 38 47 56q34 19 72 7t56 -47q19 -34 7 -72l-104 -336q-11 -38 -46 -56q-35 -19 -73 -7q-37 12 -56 46q-18 35 -7 73zM282.5 910.5q31.5 -31.5 31.5 -76.5t-31.5 -76.5t-75.5 -31.5t-75.5 31.5t-31.5 76.5t31.5 76.5t75.5 31.5t75.5 -31.5z" />
    <glyph glyph-name="less" unicode="&#x3c;" horiz-adv-x="1201" 
d="M1028 1114q37 -12 55 -47t6 -72q-12 -38 -47 -56l-632 -326l632 -326q35 -18 47 -56q12 -37 -6 -72t-55 -47q-38 -12 -73 6l-795 410q-28 14 -42 41q-18 35 -6 73q12 37 47 55l796 411q35 18 73 6z" />
    <glyph glyph-name="equal" unicode="=" horiz-adv-x="1141" 
d="M195 752q-39 0 -67 28q-28 27 -28 67q0 39 28 67t67 28h750q40 0 68 -28t28 -67q0 -40 -28 -67q-28 -28 -68 -28h-750zM195 244q-39 0 -67 28t-28 67q0 40 28 67q28 28 67 28h750q40 0 68 -28q28 -27 28 -67q0 -39 -28 -67t-68 -28h-750z" />
    <glyph glyph-name="greater" unicode="&#x3e;" horiz-adv-x="1201" 
d="M246 1108l796 -411q35 -18 47 -55q12 -38 -6 -73q-14 -27 -41 -41l-796 -410q-35 -18 -73 -6q-37 12 -55 47t-6 72q12 38 47 56l633 326l-633 326q-35 18 -47 56q-12 37 6 72t55 47q38 12 73 -6z" />
    <glyph glyph-name="question" unicode="?" horiz-adv-x="1055" 
d="M262 932q-27 -27 -67 -27q-39 0 -67 27q-28 28 -28 68q0 177 125 302t302 125t303 -125q125 -125 125 -302t-125 -302q-88 -88 -207 -115v-195q0 -40 -28 -67q-28 -28 -68 -28q-39 0 -67 28q-28 27 -28 67v280q0 39 28 67t67 28q99 0 168 69q70 70 70 168t-70 167
q-69 70 -168 70q-98 0 -167 -70q-70 -69 -70 -167q0 -40 -28 -68zM602.5 184.5q31.5 -31.5 31.5 -76.5t-31.5 -76.5t-75.5 -31.5t-75.5 31.5t-31.5 76.5t31.5 76.5t75.5 31.5t75.5 -31.5z" />
    <glyph glyph-name="at" unicode="@" horiz-adv-x="1727" 
d="M1186 153q37 -13 55 -49q17 -35 4 -72t-48 -55q-78 -38 -163 -57q-83 -20 -171 -20h-1q-315 0 -538 223t-224 540q0 316 224 540q223 223 539 223t540 -223q224 -224 224 -540q0 -172 -84 -313q-101 -171 -242 -178q-196 -10 -209 241q-1 26 -1 75v170q0 160 -137 215
q-47 19 -101 19t-100 -19q-137 -55 -137 -215q0 -46 15 -86l1 -4q26 -66 87 -106q62 -41 137 -41v1q43 0 83 14q37 14 72 -3q36 -16 50 -53q13 -37 -3 -73q-17 -36 -54 -49q-71 -27 -148 -27v1q-131 0 -241 71q-113 74 -161 197l-2 6q-27 72 -27 152q0 145 75 250
q67 95 182 141q82 33 171 33q90 0 172 -33q115 -46 182 -141q75 -105 75 -250l-5 -236q0 -57 16 -60q37 1 86 85q57 96 57 216q0 237 -168 405q-167 168 -405 168q-237 0 -405 -168t-168 -406q0 -237 168 -405q167 -167 405 -167q64 0 128 15q63 14 122 43q36 18 73 5z" />
    <glyph glyph-name="A" unicode="A" horiz-adv-x="1485" 
d="M290 642h904v143q0 186 -133 319q-132 133 -319 133q-186 0 -319 -133t-133 -319v-143zM1194 452h-904v-357q0 -40 -28 -68q-27 -27 -67 -27q-39 0 -67 27q-28 28 -28 68v690q0 265 189 453q188 189 453 189t454 -189q189 -188 189 -453v-690q0 -40 -28 -68
q-28 -27 -68 -27q-39 0 -67 27q-28 28 -28 68v357z" />
    <glyph glyph-name="B" unicode="B" horiz-adv-x="1350" 
d="M903 1427q156 0 266 -111q111 -110 111 -265q0 -179 -127 -306q-13 -13 -27 -24q24 -18 46 -40q127 -127 127 -305q0 -156 -111 -266q-110 -110 -266 -110h-584q-98 0 -168 69q-70 70 -70 168v952q0 98 70 168t168 70h565zM290 618v-381q0 -19 14 -33t34 -14h584
q77 0 132 55q54 54 54 131q0 100 -71 171t-171 71h-576zM338 1237q-20 0 -34 -14t-14 -34v-381h557q100 0 171 72q71 71 71 171q0 76 -55 131q-54 55 -131 55h-565z" />
    <glyph glyph-name="C" unicode="C" horiz-adv-x="1466" 
d="M1278 503q38 11 72 -9q35 -19 45 -57q11 -38 -8 -72q-95 -169 -263 -267q-167 -98 -360 -98q-296 0 -505 209t-209 504q0 296 209 505t505 209q193 0 360 -98q168 -98 263 -267q19 -34 8 -72q-10 -38 -45 -57q-34 -20 -72 -9t-57 45q-70 125 -193 197q-121 71 -264 71
q-217 0 -370 -154q-154 -153 -154 -370q0 -216 154 -369q153 -154 370 -154q143 0 264 71q123 72 193 197q19 34 57 45z" />
    <glyph glyph-name="D" unicode="D" horiz-adv-x="1387" 
d="M623 1427q294 0 504 -210q210 -209 210 -504q0 -294 -210 -504q-210 -209 -504 -209h-333q-78 0 -134 55v1q-56 56 -56 134v1047q0 78 56 134t134 56h333zM290 1237v-1047h333q216 0 369 154q154 153 154 369t-154 370q-153 154 -369 154h-333z" />
    <glyph glyph-name="E" unicode="E" horiz-adv-x="1141" 
d="M955 808q39 0 67 -28q28 -27 28 -67q0 -39 -28 -67t-67 -28h-665v-428h720q39 0 67 -28t28 -67q0 -40 -28 -68q-28 -27 -67 -27h-815q-39 0 -67 27q-28 28 -28 68v1237q0 39 28 67t67 28h815q39 0 67 -28t28 -67q0 -40 -28 -68q-28 -27 -67 -27h-720v-429h665z" />
    <glyph glyph-name="F" unicode="F" horiz-adv-x="1085" 
d="M917 808q39 0 67 -28q28 -27 28 -67q0 -39 -28 -67t-67 -28h-627v-523q0 -40 -28 -68q-27 -27 -67 -27q-39 0 -67 27q-28 28 -28 68v1237q0 39 28 67t67 28h777q39 0 67 -28t28 -67q0 -40 -28 -68q-28 -27 -67 -27h-682v-429h627z" />
    <glyph glyph-name="G" unicode="G" horiz-adv-x="1527" 
d="M764 618q-40 0 -68 28t-28 67q0 40 28 68t68 28h618q39 0 67 -28t28 -68q0 -295 -209 -504t-504 -209q-296 0 -505 209t-209 504q0 296 209 505t505 209q189 0 354 -94q164 -94 261 -259q20 -34 10 -72t-44 -58t-72 -10t-58 44q-70 120 -192 190q-120 69 -259 69
q-217 0 -370 -154q-154 -153 -154 -370q0 -216 154 -369q153 -154 370 -154q216 0 369 154q116 115 145 274h-514z" />
    <glyph glyph-name="H" unicode="H" horiz-adv-x="1400" 
d="M1300 95q0 -40 -28 -68q-27 -27 -67 -27q-39 0 -67 27q-28 28 -28 68v523h-820v-523q0 -40 -28 -68q-27 -27 -67 -27q-39 0 -67 27q-28 28 -28 68v1237q0 39 28 67t67 28q40 0 67 -28q28 -28 28 -67v-524h820v524q0 39 28 67t67 28q40 0 67 -28q28 -28 28 -67v-1237z" />
    <glyph glyph-name="I" unicode="I" horiz-adv-x="490" 
d="M340 95q0 -40 -28 -68q-27 -27 -67 -27q-39 0 -67 27q-28 28 -28 68v1237q0 39 28 67t67 28q40 0 67 -28q28 -28 28 -67v-1237z" />
    <glyph glyph-name="J" unicode="J" horiz-adv-x="1117" 
d="M38 546q28 28 67 28q40 0 67 -28q28 -28 28 -67q0 -119 85 -204t204 -85q118 0 203 85t85 204v869q0 40 28 67q28 28 67 28t67 -28q28 -27 28 -67v-869q0 -198 -140 -339q-141 -140 -338 -140q-198 0 -339 140q-140 141 -140 339q0 39 28 67z" />
    <glyph glyph-name="K" unicode="K" horiz-adv-x="1263" 
d="M1185 28q-28 -28 -67 -28q-40 0 -67 28q-28 28 -28 67q0 217 -153 370q-154 153 -370 153h-210v-523q0 -39 -28 -67q-27 -28 -67 -28q-39 0 -67 28t-28 67v1237q0 39 28 67t67 28q40 0 67 -28q28 -28 28 -67v-523h210q216 0 370 153q153 153 153 370q0 39 28 67
q27 28 67 28q39 0 67 -28t28 -67q0 -296 -209 -505q-67 -66 -148 -114q81 -47 148 -113q209 -209 209 -505q0 -39 -28 -67z" />
    <glyph glyph-name="L" unicode="L" horiz-adv-x="1057" 
d="M100 1332q0 39 28 67t67 28q40 0 67 -28q28 -28 28 -67v-1143h663q39 0 67 -27q28 -28 28 -67q0 -40 -28 -67q-28 -28 -67 -28h-749h-9q-39 0 -67 27q-28 28 -28 68v1237z" />
    <glyph glyph-name="M" unicode="M" horiz-adv-x="1979" 
d="M290 95q0 -40 -28 -68q-27 -27 -67 -27q-39 0 -67 27q-28 28 -28 68v840q0 203 144 348q144 144 348 144t348 -144q27 -27 49 -58q23 31 50 58q144 144 348 144q203 0 348 -144q144 -145 144 -348v-840q0 -40 -28 -67q-28 -28 -67 -28q-40 0 -67 28q-28 27 -28 67v840
q0 125 -89 213q-88 89 -213 89q-126 0 -214 -89q-88 -88 -88 -213v-840q0 -40 -28 -68q-28 -27 -68 -27q-39 0 -67 27q-28 28 -28 68v840q0 125 -88 213q-89 89 -214 89t-213 -89q-89 -88 -89 -213v-840z" />
    <glyph glyph-name="N" unicode="N" horiz-adv-x="1468" 
d="M290 95q0 -40 -28 -68q-27 -27 -67 -27q-39 0 -67 27q-28 28 -28 68v1086q0 106 84 179q3 3 7 6q75 61 177 61q86 0 155 -46q71 -47 103 -127l387 -1000q15 -36 36 -51q19 -13 51 -13q38 0 63 20q15 11 15 43v1079q0 39 28 67q27 28 67 28q39 0 67 -28t28 -67v-1099
q0 -103 -87 -172q-77 -61 -181 -61q-93 0 -162 49h1q-65 47 -101 132q-61 152 -193 502q-122 326 -195 501q-10 24 -32 39q-20 14 -50 14q-34 0 -56 -17l-3 -3q-19 -16 -19 -46v-1076z" />
    <glyph glyph-name="O" unicode="O" horiz-adv-x="1527" 
d="M1268 1218q209 -209 209 -505q0 -295 -209 -504t-504 -209q-296 0 -505 209t-209 504q0 296 209 505t505 209q295 0 504 -209zM764 1237q-217 0 -370 -154q-154 -153 -154 -370t154 -370q153 -153 370 -153q216 0 370 153q153 153 153 370t-153 370q-154 154 -370 154z
" />
    <glyph glyph-name="P" unicode="P" horiz-adv-x="1266" 
d="M100 867q0 233 164 397q165 164 397 164t397 -164q164 -164 164 -397q0 -232 -164 -396q-165 -164 -397 -164h-370v-212q0 -39 -28 -67t-68 -28q-39 0 -67 28t-28 67v772zM291 497h370q153 0 262 109q108 108 108 261q0 154 -108 262q-109 109 -262 109t-262 -109
q-108 -108 -108 -262v-370z" />
    <glyph glyph-name="Q" unicode="Q" horiz-adv-x="1527" 
d="M668 198v213q0 39 28 67t67 28q40 0 68 -28t28 -67v-213q156 27 275 145q153 153 153 370t-153 370q-154 154 -370 154q-217 0 -370 -154q-154 -153 -154 -370t154 -370q118 -118 274 -145zM859 6v-207q0 -39 -28 -67t-68 -28q-39 0 -67 28t-28 67v207q-235 29 -409 203
q-209 209 -209 504q0 296 209 505t505 209q295 0 504 -209t209 -505q0 -295 -209 -504q-175 -175 -409 -203z" />
    <glyph glyph-name="R" unicode="R" horiz-adv-x="1293" 
d="M1152 121q11 -38 -9 -72q-19 -35 -57 -45q-38 -11 -72 8l-633 307q-35 19 -45 57q-11 38 8 73q27 48 83 48h234q153 0 261 109q109 108 109 261q0 154 -109 262q-108 109 -261 109q-154 0 -262 -109q-109 -108 -109 -262v-772q0 -39 -28 -67q-27 -28 -67 -28
q-39 0 -67 28t-28 67v772q0 233 164 397t397 164q232 0 396 -164t164 -397q0 -232 -164 -396q-120 -120 -273 -140l323 -153q34 -19 45 -57z" />
    <glyph glyph-name="S" unicode="S" horiz-adv-x="1233" 
d="M1113 1185q-2 -38 -31 -64q-28 -26 -67 -24q-38 2 -64 30q-45 49 -127 79q-90 33 -202 34q-163 0 -272 -67q-102 -62 -102 -163v-1v0q0 -119 119 -164q71 -26 261 -39q278 -18 382 -69q173 -85 173 -319q0 -191 -172 -308q-160 -109 -399 -110q-188 -1 -335 70
q-156 75 -212 209q-15 36 0 71q15 36 50 51q36 15 72 0q35 -15 50 -51q29 -68 121 -112q108 -52 254 -52q182 1 295 78q89 61 89 154q0 118 -118 162q-72 27 -261 40q-278 18 -383 69q-173 85 -173 320v2q2 205 192 321q154 95 369 95q146 -1 266 -45q125 -46 201 -130
q26 -28 24 -67z" />
    <glyph glyph-name="T" unicode="T" horiz-adv-x="1305" 
d="M644 1426q5 1 9 1t8 -1h539q40 0 67 -27q28 -28 28 -67q0 -40 -28 -67q-27 -28 -67 -28h-452v-1142q0 -40 -28 -68q-28 -27 -67 -27q-40 0 -68 27q-28 28 -28 68v1142h-452q-39 0 -67 28q-28 27 -28 67q0 39 28 67q28 27 67 27h539z" />
    <glyph glyph-name="U" unicode="U" horiz-adv-x="1485" 
d="M100 1333q0 39 28 67t67 28q40 0 67 -28q28 -28 28 -67v-691q0 -186 133 -319t319 -133q187 0 319 133q133 133 133 319v691q0 39 28 67t67 28q40 0 68 -28t28 -67v-691q0 -265 -189 -454q-189 -188 -454 -188t-453 188q-189 189 -189 454v691z" />
    <glyph glyph-name="V" unicode="V" horiz-adv-x="1272" 
d="M25 1367q15 37 51 52t72 0q37 -14 52 -51l436 -1030l436 1030q15 37 52 51q36 15 72 0t51 -52q15 -36 0 -72l-524 -1237q-15 -36 -50 -51q-36 -15 -73 0q-36 15 -51 51l-524 1237q-15 36 0 72z" />
    <glyph glyph-name="W" unicode="W" horiz-adv-x="1979" 
d="M100 1332q0 39 28 67t67 28q40 0 67 -28q28 -28 28 -67v-840q0 -125 89 -214q88 -88 213 -88t214 88q88 88 88 213v841q0 39 28 67t67 28q40 0 68 -28t28 -67v-841q0 -125 88 -213t214 -88q125 0 213 88q89 89 89 214v840q0 39 28 67q27 27 67 27q39 0 67 -27
q28 -28 28 -67v-840q0 -204 -144 -348q-145 -144 -348 -144q-204 0 -348 144q-27 26 -50 57q-22 -31 -49 -57q-144 -144 -348 -144t-348 144t-144 348v840z" />
    <glyph glyph-name="X" unicode="X" horiz-adv-x="1485" 
d="M290 95q0 -40 -28 -68q-27 -27 -67 -27q-39 0 -67 27q-28 28 -28 68v71q0 265 189 454q53 53 118 93q-65 40 -118 94q-189 188 -189 453v72q0 39 28 67t67 28q40 0 67 -28q28 -28 28 -67v-72q0 -186 133 -319t319 -133q187 0 319 133q133 133 133 319v72q0 39 28 67
t67 28q40 0 68 -28t28 -67v-72q0 -265 -189 -453q-54 -54 -118 -94q64 -40 118 -93q189 -189 189 -454v-71q0 -40 -28 -68q-28 -27 -68 -27q-39 0 -67 27q-28 28 -28 68v71q0 186 -133 319q-132 133 -319 133q-186 0 -319 -133t-133 -319v-71z" />
    <glyph glyph-name="Y" unicode="Y" horiz-adv-x="1330" 
d="M760 95q0 -39 -28 -67t-67 -28t-67 28t-28 67v387q-77 12 -147 42q-159 70 -251 211q-102 157 -102 373v224q0 39 28 67t67 28q40 0 68 -28q27 -28 27 -67v-224q0 -154 69 -263q63 -100 169 -147q79 -34 167 -34t167 34q106 47 169 147q69 109 69 263v224q0 39 27 67
q28 28 68 28q39 0 67 -28t28 -67v-224q0 -216 -102 -373q-92 -141 -251 -211q-70 -30 -147 -42v-387z" />
    <glyph glyph-name="Z" unicode="Z" horiz-adv-x="1333" 
d="M175 1237q-40 0 -68 27q-27 28 -27 68q0 39 27 67q28 28 68 28h822q69 0 127 -33q59 -33 93 -92q41 -73 23 -159q-16 -82 -81 -136l-880 -744q-31 -28 -12 -57q14 -17 47 -17h854q40 0 67 -27q28 -28 28 -67q0 -40 -28 -67q-27 -28 -67 -28h-854q-99 0 -170 65
q-74 69 -74 167q0 44 17 84q15 38 44 69q4 6 10 10l896 757q24 23 15 56q-14 28 -55 29h-822z" />
    <glyph glyph-name="bracketleft" unicode="[" horiz-adv-x="777" 
d="M582 1427q39 0 67 -28t28 -67t-28 -67t-67 -28h-292v-1534l292 1q39 0 67 -28t28 -67t-28 -67t-67 -28l-387 -1q-39 0 -67 28t-28 67v1724q0 39 28 67t67 28h387z" />
    <glyph glyph-name="backslash" unicode="\" horiz-adv-x="659" 
d="M38 1372q17 35 54 48q38 12 73 -5q35 -18 47 -55l414 -1237q13 -37 -5 -73q-17 -35 -55 -47q-37 -13 -72 5q-35 17 -48 55l-414 1237q-12 37 6 72z" />
    <glyph glyph-name="bracketright" unicode="]" horiz-adv-x="777" 
d="M582 1427q39 0 67 -28t28 -67v-1724q0 -39 -28 -67t-67 -28l-387 1q-39 0 -67 28t-28 67t28 67t67 28l292 -1v1534h-292q-39 0 -67 28t-28 67t28 67t67 28h387z" />
    <glyph glyph-name="asciicircum" unicode="^" horiz-adv-x="963" 
d="M201 925q-39 -2 -68 24q-29 27 -31 66q-2 40 24 69l285 313q27 29 66 31q42 0 69 -25l291 -319q26 -29 25 -69q-2 -39 -31 -66q-29 -26 -69 -24q-39 2 -66 31l-214 236l-215 -236q-26 -29 -66 -31z" />
    <glyph glyph-name="underscore" unicode="_" horiz-adv-x="1308" 
d="M-15 -190q-39 0 -67 27q-28 28 -28 68q0 39 28 67t67 28h1338q40 0 68 -28q27 -28 27 -67q0 -40 -27 -68q-28 -27 -68 -27h-1338z" />
    <glyph glyph-name="grave" unicode="`" horiz-adv-x="451" 
d="M37 1429q-27 27 -13 54q11 24 58 24h98q41 0 68 -34l162 -190q31 -39 19 -63t-58 -24h-46q-37 0 -54 17z" />
    <glyph glyph-name="a" unicode="a" horiz-adv-x="1292" 
d="M1025 975q167 -167 167 -404v-475q0 -40 -28 -68t-67 -28q-40 0 -67 28q-28 28 -28 68v50q-163 -146 -381 -146q-236 0 -404 168q-167 167 -167 403q0 237 167 404q168 167 404 167q237 0 404 -167zM621 952q-158 0 -269 -111q-112 -112 -112 -270q0 -157 112 -269
q111 -111 269 -111t269 111q112 112 112 269q0 158 -112 270q-111 111 -269 111z" />
    <glyph glyph-name="b" unicode="b" horiz-adv-x="1292" 
d="M267 168q-167 167 -167 403v762q0 39 28 67t67 28q40 0 67 -28q28 -28 28 -67v-336q163 145 381 145q237 0 404 -167t167 -404q0 -236 -167 -403q-167 -168 -404 -168q-236 0 -404 168zM671 191q158 0 269 111q112 112 112 269q0 158 -112 270q-111 111 -269 111
t-269 -111q-112 -112 -112 -270q0 -157 112 -269q111 -111 269 -111z" />
    <glyph glyph-name="c" unicode="c" horiz-adv-x="1112" 
d="M964 339q39 1 67 -27q29 -27 30 -66t-26 -68q-81 -85 -189 -131q-107 -47 -225 -47q-236 0 -404 168q-167 167 -167 403q0 237 167 404q168 167 404 167q118 0 225 -46l5 -2q105 -46 184 -129q27 -29 26 -68q-1 -40 -30 -67q-28 -27 -67 -26q-40 1 -67 30q-52 55 -122 86
l-4 1q-71 31 -150 31q-158 0 -269 -111q-112 -112 -112 -270q0 -157 112 -269q111 -111 269 -111q79 0 150 30q72 31 126 88q27 29 67 30z" />
    <glyph glyph-name="d" unicode="d" horiz-adv-x="1292" 
d="M890 302q112 112 112 269q0 158 -112 270q-111 111 -269 111t-269 -111q-112 -112 -112 -270q0 -157 112 -269q111 -111 269 -111t269 111zM1002 1333q0 39 28 67q27 28 67 28q39 0 67 -28t28 -67v-762q0 -236 -167 -403q-167 -168 -404 -168q-236 0 -404 168
q-167 167 -167 403q0 237 167 404q168 167 404 167q218 0 381 -145v336z" />
    <glyph glyph-name="e" unicode="e" horiz-adv-x="1232" 
d="M993 299q39 -4 64 -34t22 -70q-4 -39 -34 -64q-87 -63 -191 -97t-223 -34q-246 0 -414 168q-167 167 -167 403q0 237 167 404q168 167 404 167q237 0 404 -167t167 -404q0 -39 -28 -67t-67 -28h-845q26 -100 100 -174q111 -111 279 -111q88 0 159 22t133 65q31 25 70 21z
M252 667h738q-26 100 -100 174q-111 111 -269 111t-269 -111q-74 -74 -100 -174z" />
    <glyph glyph-name="f" unicode="f" horiz-adv-x="1030" 
d="M102 940q0 203 143 345q143 143 345 143q126 0 237 -62q111 -61 177 -169q21 -33 12 -71q-9 -39 -42 -60q-34 -20 -72 -11t-59 42q-41 66 -109 104q-66 37 -144 37q-123 0 -211 -88q-87 -87 -87 -210v-133h593q40 0 67 -28q28 -28 28 -67q0 -40 -28 -68q-27 -28 -67 -28
h-593v-521q0 -39 -28 -67t-67 -28t-67 28t-28 67v845z" />
    <glyph glyph-name="g" unicode="g" horiz-adv-x="1312" 
d="M1045 975q167 -167 167 -404v-485q0 -236 -167 -404q-167 -167 -404 -167q-168 0 -310 92t-211 247q-16 35 -2 72t50 53t72 2q37 -14 53 -50q46 -103 141 -165q94 -61 207 -61q158 0 269 112q112 111 112 269v60q-163 -146 -381 -146q-236 0 -404 168q-167 167 -167 403
q0 237 167 404q168 167 404 167q237 0 404 -167zM641 952q-158 0 -269 -111q-112 -112 -112 -270q0 -157 112 -269q111 -111 269 -111t269 111q112 112 112 269q0 158 -112 270q-111 111 -269 111z" />
    <glyph glyph-name="h" unicode="h" horiz-adv-x="1342" 
d="M290 997q163 145 381 145q237 0 404 -167t167 -404v-475q0 -40 -28 -68t-67 -28q-40 0 -67 28q-28 28 -28 68v475q0 158 -112 270q-111 111 -269 111t-269 -111q-112 -112 -112 -270v-475q0 -40 -28 -68q-27 -28 -67 -28q-39 0 -67 28t-28 68v1237q0 39 28 67t67 28
q40 0 67 -28q28 -28 28 -67v-336z" />
    <glyph glyph-name="i" unicode="i" horiz-adv-x="491" 
d="M340 96q0 -40 -28 -68q-27 -28 -67 -28q-39 0 -67 28t-28 68v951q0 40 28 68q28 27 67 27q40 0 67 -27q28 -28 28 -68v-951zM313 1400q28 -28 28 -68t-28 -68t-67 -28q-40 0 -67.5 28t-27.5 68t27.5 68t67.5 28q39 0 67 -28z" />
    <glyph glyph-name="j" unicode="j" horiz-adv-x="491" 
d="M313 1400q28 -28 28 -68t-28 -68t-67 -28q-40 0 -67.5 28t-27.5 68t27.5 68t67.5 28q39 0 67 -28zM340 -105q0 -157 -112 -269t-269 -112h-7q-39 0 -67 28t-28 68q0 39 28 67t67 28h7q79 0 135 56q55 56 55 134v1152q0 39 28 67t68 28q39 0 67 -28t28 -67v-1152z" />
    <glyph glyph-name="k" unicode="k" horiz-adv-x="1192" 
d="M1114 28q-28 -28 -67 -28q-40 0 -68 28t-28 67q0 158 -111 269q-112 112 -269 112h-281v-381q0 -39 -28 -67q-27 -28 -67 -28q-39 0 -67 28t-28 67v1237q0 39 28 67t67 28q40 0 67 -28q28 -28 28 -67v-666h281q157 0 269 111q111 112 111 270q0 39 28 67t68 28
q39 0 67 -28t28 -67q0 -237 -168 -404q-40 -41 -88 -72q48 -32 88 -72q168 -167 168 -404q0 -39 -28 -67z" />
    <glyph glyph-name="l" unicode="l" horiz-adv-x="490" 
d="M340 96q0 -40 -28 -68q-27 -28 -67 -28q-39 0 -67 28t-28 68v1237q0 39 28 67t67 28q40 0 67 -28q28 -28 28 -67v-1237z" />
    <glyph glyph-name="m" unicode="m" horiz-adv-x="1883" 
d="M290 95q0 -39 -28 -67q-27 -28 -67 -28q-39 0 -67 28t-28 67v579q0 194 137 331t331 137t331 -137q23 -23 42 -48q20 25 43 48q137 137 331 137t331 -137t137 -331v-579q0 -39 -28 -67t-67 -28q-40 0 -67 28q-28 28 -28 67v579q0 115 -82 196q-81 82 -196 82
q-116 0 -197 -82q-81 -81 -81 -196v-579q0 -39 -28 -67t-68 -28q-39 0 -67 28t-28 67v579q0 115 -81 196q-81 82 -197 82q-115 0 -196 -82q-82 -81 -82 -196v-579z" />
    <glyph glyph-name="n" unicode="n" horiz-adv-x="1342" 
d="M1242 96q0 -40 -28 -68t-67 -28q-40 0 -67 28q-28 28 -28 68v475q0 158 -112 270q-111 111 -269 111t-269 -111q-112 -112 -112 -270v-475q0 -40 -28 -68q-27 -28 -67 -28q-39 0 -67 28t-28 68v475q0 237 167 404q168 167 404 167q237 0 404 -167t167 -404v-475z" />
    <glyph glyph-name="o" unicode="o" horiz-adv-x="1242" 
d="M352 841q-112 -112 -112 -270q0 -157 112 -269q111 -111 269 -111t269 111q112 112 112 269q0 158 -112 270q-111 111 -269 111t-269 -111zM621 1142q237 0 404 -167t167 -404q0 -236 -167 -403q-167 -168 -404 -168q-236 0 -404 168q-167 167 -167 403q0 237 167 404
q168 167 404 167z" />
    <glyph glyph-name="p" unicode="p" horiz-adv-x="1292" 
d="M290 -390q0 -39 -28 -67q-27 -28 -67 -28q-39 0 -67 28t-28 67v961q0 237 167 404q168 167 404 167q237 0 404 -167t167 -404q0 -236 -167 -403q-167 -168 -404 -168q-218 0 -381 146v-536zM402 841q-112 -112 -112 -270q0 -157 112 -269q111 -111 269 -111t269 111
q112 112 112 269q0 158 -112 270q-111 111 -269 111t-269 -111z" />
    <glyph glyph-name="q" unicode="q" horiz-adv-x="1292" 
d="M1192 -390q0 -39 -28 -67t-67 -28q-40 0 -67 28q-28 28 -28 67v536q-163 -146 -381 -146q-236 0 -404 168q-167 167 -167 403q0 237 167 404q168 167 404 167q237 0 404 -167t167 -404v-961zM621 952q-158 0 -269 -111q-112 -112 -112 -270q0 -157 112 -269
q111 -111 269 -111t269 111q112 112 112 269q0 158 -112 270q-111 111 -269 111z" />
    <glyph glyph-name="r" unicode="r" horiz-adv-x="1152" 
d="M1086 569q-28 -28 -67 -28q-40 0 -68 28q-27 28 -27 67q0 131 -93 223q-92 93 -223 93t-223 -93q-93 -92 -93 -223v-541q0 -39 -27 -67q-28 -28 -68 -28q-39 0 -67 28t-28 67v541q0 210 148 358t358 148t358 -148t148 -358q0 -39 -28 -67z" />
    <glyph glyph-name="s" unicode="s" horiz-adv-x="1123" 
d="M1048 910q0 -37 -26 -65q-26 -27 -63 -28q-38 -1 -65 25q-59 56 -142 86q-87 31 -189 32v-1h-1q-144 0 -239 -51q-81 -44 -81 -108q1 -78 73 -108q75 -31 250 -32q220 -2 311 -36q187 -70 187 -282q0 -160 -154 -255q-136 -85 -341 -87q-136 -1 -257 43q-124 45 -216 130
q-28 25 -29 63q-2 38 24 65q25 28 63 30q38 1 65 -24q66 -61 155 -93q91 -33 194 -32q152 1 246 60q67 41 67 100q0 86 -67 111q-62 24 -249 25q-211 2 -318 45q-186 76 -186 277q1 172 176 268q137 74 327 74q135 -1 251 -43q119 -43 205 -125q28 -26 29 -64z" />
    <glyph glyph-name="t" unicode="t" horiz-adv-x="1048" 
d="M102 1333q0 39 28 67t67 28t67 -28t28 -67v-190h593q40 0 67 -28q28 -28 28 -68q0 -39 -28 -67q-27 -28 -67 -28h-593v-464q0 -123 87 -210q88 -88 211 -88q78 0 144 37q68 38 109 104q21 33 59 42t72 -11q33 -21 42 -60q9 -38 -12 -71q-66 -108 -177 -169
q-111 -62 -237 -62q-202 0 -345 143q-143 142 -143 345v845z" />
    <glyph glyph-name="u" unicode="u" horiz-adv-x="1342" 
d="M1052 1047q0 40 28 68q27 27 67 27q39 0 67 -27q28 -28 28 -68v-476q0 -236 -167 -403q-167 -168 -404 -168q-236 0 -404 168q-167 167 -167 403v476q0 40 28 68q28 27 67 27q40 0 67 -27q28 -28 28 -68v-476q0 -157 112 -269q111 -111 269 -111t269 111q112 112 112 269
v476z" />
    <glyph glyph-name="v" unicode="v" horiz-adv-x="1176" 
d="M22 1074q13 37 48 55t72 5q38 -12 55 -47l391 -783l391 783q18 35 55 47q37 13 72 -5t48 -55q12 -37 -5 -72l-476 -952q-14 -28 -42 -42q-36 -18 -73 -5q-37 12 -55 47l-475 952q-18 35 -6 72z" />
    <glyph glyph-name="w" unicode="w" horiz-adv-x="1883" 
d="M290 468q0 -115 82 -196q81 -82 196 -82q116 0 197 82q81 81 81 196v579q0 39 28 67t67 28q40 0 68 -28t28 -67v-579q0 -115 81 -196q81 -82 197 -82q115 0 196 82q82 81 82 196v579q0 39 28 67q27 28 67 28q39 0 67 -28t28 -67v-579q0 -194 -137 -331t-331 -137
t-331 137q-23 23 -43 48q-19 -25 -42 -48q-137 -137 -331 -137t-331 137t-137 331v579q0 39 28 67t67 28q40 0 67 -28q28 -28 28 -67v-579z" />
    <glyph glyph-name="x" unicode="x" horiz-adv-x="1342" 
d="M100 1047q0 40 28 68q28 27 67 27q40 0 67 -27q28 -28 28 -68v-3q0 -158 112 -269q111 -111 268 -112h2q157 1 268 112q112 111 112 269v3q0 40 28 68q27 27 67 27q39 0 67 -27q28 -28 28 -68v-3q0 -236 -167 -404q-38 -37 -82 -67q249 -156 249 -474v-3q0 -40 -28 -68
t-67 -28q-40 0 -67 28q-28 28 -28 68v3q0 129 -64 221q-58 84 -158 123q-74 30 -158 30h-2q-82 0 -154 -28l-4 -2q-100 -39 -158 -123q-64 -92 -64 -221v-3q0 -40 -28 -68q-27 -28 -67 -28q-39 0 -67 28t-28 68v3q0 318 249 474q-44 30 -82 67q-167 168 -167 404v3z" />
    <glyph glyph-name="y" unicode="y" horiz-adv-x="1342" 
d="M1242 86q0 -236 -167 -404q-167 -167 -404 -167q-169 0 -310 92q-142 92 -211 247q-16 35 -2 72t50 53t72 2q37 -14 53 -50q46 -103 141 -165q94 -61 207 -61q158 0 269 112q112 111 112 269v60q-163 -146 -381 -146q-236 0 -404 168q-167 167 -167 403v476q0 40 28 68
q28 27 67 27q40 0 67 -27q28 -28 28 -68v-476q0 -157 112 -269q111 -111 269 -111t269 111q112 112 112 269v476q0 40 28 68q27 27 67 27q39 0 67 -27q28 -28 28 -68v-961z" />
    <glyph glyph-name="z" unicode="z" horiz-adv-x="1182" 
d="M145 952q-39 0 -67 28t-28 67q0 40 28 68q28 27 67 27h757q58 0 106 -32q48 -31 70 -85q23 -57 12 -114q-13 -63 -63 -102l-776 -618h786q39 0 67 -28t28 -67q0 -40 -28 -68t-67 -28h-787q-58 0 -106 33q-48 31 -70 85q-23 57 -12 113q13 64 63 102l776 619h-756z" />
    <glyph glyph-name="braceleft" unicode="{" horiz-adv-x="706" 
d="M614 1401q28 -28 28 -67t-28 -67t-68 -28q-52 0 -82 -8q-22 -6 -32 -40q-9 -38 -9 -105v-262q0 -200 -63 -297q-2 -3 -5 -6q-17 -26 -41 -47q26 -25 45 -54q34 -52 50 -133q14 -71 14 -167v-262q3 -120 19 -135q19 -18 107 -18h42q39 0 67 -28q28 -27 28 -67
q0 -39 -28 -67t-67 -28h-42q-79 0 -135 15q-69 19 -110 63q-40 42 -57 118q-14 62 -14 147v262q0 79 -11 132q-8 43 -22 64q-12 19 -36 34q-28 17 -70 28q-59 10 -75 68q-9 37 8 72q19 34 57 45q48 14 79 33q23 15 38 35q32 49 32 193v262q0 85 13 147q17 75 57 118
q41 43 110 63q57 15 133 15q40 0 68 -28z" />
    <glyph glyph-name="bar" unicode="|" horiz-adv-x="490" 
d="M340 -390q0 -40 -28 -68q-27 -27 -67 -27q-39 0 -67 27q-28 28 -28 68v1722q0 39 28 67t67 28q40 0 67 -28q28 -28 28 -67v-1722z" />
    <glyph glyph-name="braceright" unicode="}" horiz-adv-x="706" 
d="M155 1429q77 0 133 -15q70 -20 110 -63t57 -118q14 -62 14 -147v-262q0 -144 32 -193q15 -20 38 -35q31 -19 79 -33q37 -11 57 -45q17 -35 8 -72q-16 -58 -75 -68q-42 -11 -70 -28q-24 -15 -36 -34q-14 -21 -23 -64q-10 -53 -10 -132v-262q0 -85 -14 -147
q-17 -76 -57 -118q-41 -44 -110 -63q-57 -15 -135 -15h-42q-39 0 -67 28t-28 67q0 40 28 67q28 28 67 28h42q88 0 107 18q16 15 19 135v262q0 96 14 167q15 81 49 133q20 29 46 54q-24 21 -42 47l-4 6q-63 97 -63 297v262q0 67 -9 105q-10 34 -32 40q-30 8 -83 8
q-39 0 -67 28t-28 67t28 67t67 28z" />
    <glyph glyph-name="asciitilde" unicode="~" horiz-adv-x="1004" 
d="M767 1745q36 14 72 -2q36 -15 51 -52q14 -36 -2 -73q-33 -76 -100 -120t-151 -44q-86 1 -190 77q-51 37 -70 38q-21 1 -42 -14q-28 -19 -50 -58q-20 -34 -58 -45q-38 -10 -72 10q-34 19 -45 57q-10 38 10 72q44 78 108 122q72 48 154 46q79 -3 178 -75q54 -40 78 -40
q26 0 46 13t30 37q16 36 53 51z" />
    <glyph glyph-name="exclamdown" unicode="&#xa1;" horiz-adv-x="491" 
d="M341 -191q0 -39 -28 -67t-67 -28q-40 0 -68 28t-28 67v852q0 39 28 67t68 28q39 0 67 -28t28 -67v-852zM313 1113.5q28 -28.5 28 -67.5q0 -40 -28 -68t-67 -28t-67 28t-28 68q0 39 28 67.5t67 28.5t67 -28.5z" />
    <glyph glyph-name="cent" unicode="&#xa2;" horiz-adv-x="972" 
d="M723 -60q0 -40 -28 -67q-28 -28 -68 -28q-39 0 -67 28q-28 27 -28 67v103q-190 17 -327 153q-155 156 -155 374q0 219 155 374q137 137 327 153v103q0 40 28 68t67 28q40 0 68 -28t28 -68v-101q54 0 57 -1q40 -2 66 -31t24 -69q-2 -39 -31 -65q-29 -25 -69 -24h-191
q-139 0 -239 -99q-100 -100 -100 -240q0 -139 100 -239t239 -100h191q40 0 69 -23q29 -27 31 -66t-24 -69q-26 -29 -66 -31h-57v-102z" />
    <glyph glyph-name="sterling" unicode="&#xa3;" horiz-adv-x="1144" 
d="M191 191q17 4 29 24q31 54 31 160v253h-56q-39 0 -67 28t-28 67q0 40 28 68t67 28h56v44q0 264 96 407q108 160 317 160q60 0 116 -12q58 -12 106 -36q35 -18 47 -55q13 -37 -5 -73q-18 -35 -55 -47t-72 5q-26 14 -59 21q-35 7 -78 7q-108 0 -159 -77q-64 -94 -64 -300
v-44h301q39 0 67 -28t28 -68q0 -39 -28 -67t-67 -28h-301v-253q0 -103 -27 -185h266q150 0 190 30q39 29 39 152q0 40 28 68t67 28q40 0 68 -28q27 -28 27 -68q0 -218 -116 -304q-90 -67 -303 -67l-483 -1h-84q-39 0 -67 28t-28 68q0 39 28 67t67 28h78z" />
    <glyph glyph-name="currency" unicode="&#xa4;" horiz-adv-x="1282" 
d="M902 1107l117 117q28 28 68 28q39 0 67 -28t28 -67q0 -40 -28 -68l-117 -117q78 -118 78 -261t-78 -261l117 -118q28 -27 28 -67q0 -39 -28 -67t-67 -28q-40 0 -68 28l-117 117q-118 -78 -261 -78t-261 78l-118 -117q-27 -28 -67 -28q-39 0 -67 28t-28 67q0 40 28 67
l117 118q-78 118 -78 261t78 261l-117 117q-28 28 -28 68q0 39 28 67t67 28q40 0 67 -28l118 -117q118 78 261 78t261 -78zM641 995q-117 0 -201 -83v-1q-83 -83 -83 -200t83 -200v-1q84 -83 201 -83t200 83l1 1q83 83 83 200t-83 200l-1 1q-83 83 -200 83z" />
    <glyph glyph-name="yen" unicode="&#xa5;" horiz-adv-x="1014" 
d="M1004 1428l-407 -773h293v-163h-302v-103h302v-163h-302v-226h-177v226h-284v163h284v103h-284v163h275l-392 773h182l307 -636l329 636h176z" />
    <glyph glyph-name="brokenbar" unicode="&#xa6;" horiz-adv-x="390" 
d="M100 1332q0 39 28 67t67 28q40 0 67 -28q28 -28 28 -67v-637q0 -39 -28 -67q-27 -28 -67 -28q-39 0 -67 28t-28 67v637zM100 245q0 40 28 67q28 28 67 28q40 0 67 -28q28 -27 28 -67v-637q0 -39 -28 -67q-27 -28 -67 -28q-39 0 -67 28t-28 67v637z" />
    <glyph glyph-name="section" unicode="&#xa7;" horiz-adv-x="1185" 
d="M482 664q-79 0 -135 -56q-57 -57 -57 -136q0 -74 53 -127q57 -56 142 -64h218q79 0 136 56q56 56 56 135t-56 136q-57 56 -136 56h-221zM973 168q112 -112 112 -270t-112 -270t-270 -112h-486q-39 0 -67 28t-28 67q0 40 28 67q28 28 67 28h486q79 0 136 57q56 56 56 135
t-56 136q-57 56 -136 56h-221v0l-7 1q-158 12 -266 119q-109 109 -109 262q0 158 112 271q10 10 21 19q-12 11 -24 23q-109 108 -109 262q0 157 112 270q112 112 270 112h398q39 0 67 -28t28 -67q0 -40 -28 -68q-28 -27 -67 -27h-398q-79 0 -135 -57q-57 -56 -57 -135
q0 -75 53 -128q57 -56 142 -64h218q158 0 270 -112q112 -113 112 -271q0 -157 -112 -270q-8 -8 -18 -17q9 -8 18 -17z" />
    <glyph glyph-name="dieresis" unicode="&#xa8;" horiz-adv-x="615" 
d="M205.5 1399.5q26.5 -26.5 26.5 -64.5t-26.5 -65t-64.5 -27t-64.5 27t-26.5 65t26.5 64.5t64.5 26.5t64.5 -26.5zM538.5 1399.5q26.5 -26.5 26.5 -65.5q0 -38 -26.5 -64.5t-64.5 -26.5q-37 0 -64 26.5t-27 64.5q0 39 27 65.5t64 26.5q38 0 64.5 -26.5z" />
    <glyph glyph-name="copyright" unicode="&#xa9;" horiz-adv-x="1631" 
d="M1321 1221q210 -210 210 -506t-210 -506q-209 -209 -506 -209q-296 0 -505 209q-210 210 -210 506t210 506q209 209 505 209q297 0 506 -209zM815 1240q-217 0 -371 -154t-154 -371q0 -218 154 -371q154 -154 371 -154q218 0 372 154q153 153 153 371q0 217 -153 371
q-154 154 -372 154zM899 493q-32 -16 -70 -16q-64 0 -109 45q-46 46 -46 110v166q0 64 46 109q45 46 109 46q44 0 81 -23t57 -61q18 -35 55 -47q38 -13 73 5t47 56q12 37 -6 72q-45 87 -128 138q-82 50 -179 50q-142 0 -244 -101q-101 -101 -101 -244v-166q0 -143 101 -244
q102 -102 244 -102q82 0 156 39q75 38 123 104q23 32 17 71t-38 62t-71 17q-38 -6 -62 -38q-22 -31 -55 -48z" />
    <glyph glyph-name="guillemotleft" unicode="&#xab;" horiz-adv-x="1258" 
d="M635 1034q39 -3 65 -33q26 -29 23 -68q-3 -40 -33 -65l-347 -300l347 -299q30 -26 33 -65t-23 -69q-26 -29 -65 -32t-69 23l-429 370q-6 4 -11 10q-26 30 -23 69t32 65l431 371q30 26 69 23zM1081 1034q39 -3 65 -33q26 -29 23 -68q-3 -40 -33 -65l-347 -300l347 -299
q30 -26 33 -65t-23 -69q-26 -29 -65 -32t-69 23l-429 370q-6 4 -11 10q-26 30 -23 69t32 65l431 371q30 26 69 23z" />
    <glyph glyph-name="logicalnot" unicode="&#xac;" horiz-adv-x="1324" 
d="M195 833q-39 0 -67 28t-28 67t28 67t67 28h934q39 0 67 -28t28 -67v-472q0 -39 -28 -67t-67 -28q-40 0 -67 28q-28 28 -28 67v377h-839z" />
    <glyph glyph-name="registered" unicode="&#xae;" horiz-adv-x="1631" 
d="M687 382q0 -40 -28 -67q-27 -28 -67 -28q-39 0 -67 28q-28 27 -28 67v286q0 12 3 24q-3 12 -3 24v199q0 94 67 161t161 67h167q86 0 144 -53q53 -48 73 -127q19 -76 2 -153q-17 -79 -68 -130q91 -87 91 -212v-86q0 -40 -28 -67q-28 -28 -67 -28q-40 0 -68 28
q-28 27 -28 67v110q0 43 -30 74q-31 31 -74 31h-152v-215zM892 763q36 0 36 95q1 95 -36 95h-167q-15 0 -26 -11q-12 -12 -12 -27v-152h205zM310 1221q-210 -210 -210 -506t210 -506q209 -209 505 -209q297 0 506 209q210 210 210 506t-210 506q-209 209 -506 209
q-296 0 -505 -209zM1187 1086q153 -154 153 -371q0 -218 -153 -371q-154 -154 -372 -154q-217 0 -371 154q-154 153 -154 371q0 217 154 371t371 154q218 0 372 -154z" />
    <glyph glyph-name="macron" unicode="&#xaf;" horiz-adv-x="731" 
d="M105 1257q-39 0 -67 28t-28 67q0 40 28 68q28 27 67 27h520q40 0 68 -27q28 -28 28 -68q0 -39 -28 -67t-68 -28h-520z" />
    <glyph glyph-name="degree" unicode="&#xb0;" horiz-adv-x="1015" 
d="M796 1309q119 -120 119 -288q0 -169 -119 -289q-119 -119 -288 -119t-289 119q-119 120 -119 289q0 168 119 288q120 119 289 119t288 -119zM508 1238q-90 0 -154 -64q-64 -63 -64 -153q0 -91 64 -154q64 -64 154 -64t153 64q64 63 64 154q0 90 -64 153q-63 64 -153 64z
" />
    <glyph glyph-name="plusminus" unicode="&#xb1;" horiz-adv-x="1171" 
d="M195 730q-39 0 -67 28q-28 27 -28 67q0 39 28 67t67 28h295v295q0 39 28 67t67 28q40 0 68 -28q27 -28 27 -67v-295h295q40 0 68 -28t28 -67q0 -40 -28 -67q-28 -28 -68 -28h-295v-295q0 -40 -27 -68q-28 -27 -68 -27q-39 0 -67 27q-28 28 -28 68v295h-295zM195 50
q-39 0 -67 28t-28 67q0 40 28 67q28 28 67 28h770q40 0 68 -28q28 -27 28 -67q0 -39 -28 -67t-68 -28h-770z" />
    <glyph glyph-name="acute" unicode="&#xb4;" horiz-adv-x="451" 
d="M181 1213q-18 -17 -55 -17h-45q-47 0 -59 24q-11 24 19 63l163 190q26 34 67 34h98q47 0 59 -24q13 -27 -13 -54z" />
    <glyph glyph-name="mu" unicode="&#xb5;" horiz-adv-x="1093" 
d="M100 1046q0 40 28 68q28 27 67 27q40 0 67 -27q28 -28 28 -68v-248q3 -27 6 -87q9 -164 42 -232q56 -117 209 -116q149 2 209 80q43 55 47 151v452q0 40 28 68t67 28q40 0 68 -28q27 -28 27 -68v-951q0 -40 -27 -68q-28 -28 -68 -28q-39 0 -67 28t-28 68v141
q-103 -61 -254 -62q-160 -2 -259 57v-622q0 -39 -28 -67q-27 -28 -67 -28q-39 0 -67 28t-28 67v1437z" />
    <glyph glyph-name="paragraph" unicode="&#xb6;" horiz-adv-x="1198" 
d="M1002 1427q40 0 68 -28t28 -67q0 -40 -28 -67q-28 -28 -68 -28h-46v-1445q0 -40 -28 -68t-67 -28q-40 0 -68 28t-28 68v1445h-95v-1444q0 -40 -28 -68q-28 -27 -67 -27q-40 0 -68 27q-28 28 -28 68v813q-154 4 -264 114q-115 115 -115 277v39q0 161 115 276t276 115h511z
" />
    <glyph glyph-name="periodcentered" unicode="&#xb7;" horiz-adv-x="282" 
d="M205.5 779q26.5 -27 26.5 -65t-26.5 -65t-64.5 -27t-64.5 27t-26.5 65t26.5 65t64.5 27t64.5 -27z" />
    <glyph glyph-name="periodcentered" unicode="&#x2219;" horiz-adv-x="282" 
d="M205.5 779q26.5 -27 26.5 -65t-26.5 -65t-64.5 -27t-64.5 27t-26.5 65t26.5 65t64.5 27t64.5 -27z" />
    <glyph glyph-name="cedilla" unicode="&#xb8;" horiz-adv-x="390" 
d="M118 -104q10 34 41 50q32 17 65 6q34 -10 51 -41q16 -32 6 -65l-75 -242q-11 -34 -42 -50q-31 -17 -65 -6q-33 10 -50 41q-16 31 -6 65z" />
    <glyph glyph-name="guillemotright" unicode="&#xbb;" horiz-adv-x="1266" 
d="M260 1011l430 -371q30 -26 33 -65t-23 -69q-5 -6 -11 -10l-429 -370q-30 -26 -69 -23q-40 3 -65 32q-26 30 -23 69t32 65l348 299l-348 300q-29 25 -32 65q-3 39 23 68q25 30 65 33q39 3 69 -23zM706 1011l430 -371q30 -26 33 -65t-23 -69q-5 -6 -11 -10l-429 -370
q-30 -26 -69 -23q-40 3 -65 32q-26 30 -23 69t32 65l348 299l-348 300q-29 25 -32 65q-3 39 23 68q25 30 65 33q39 3 69 -23z" />
    <glyph glyph-name="onequarter" unicode="&#xbc;" horiz-adv-x="2134" 
d="M512 696q0 -40 -28 -68t-67 -28q-40 0 -68 28t-28 68v855h-195q-39 0 -67 28t-28 68q0 39 28 67t67 28h291q39 0 67 -28t28 -67v-951zM1016 1481q24 9 49 -2q23 -10 33 -35q10 -24 -1 -48l-474 -1450q-11 -23 -35 -33t-49 1q-24 10 -33 35q-10 25 1 49l473 1449
q12 24 36 34zM1948 408q0 -40 -28 -68t-67 -28q-40 0 -68 28t-28 68v143h-351q-47 0 -88 25t-62 68q-21 42 -17 89q4 44 30 83l373 567q31 48 86 65q52 16 105 -2q52 -17 83 -61q32 -44 32 -98v-545h51q39 0 67 -28t28 -68q0 -39 -28 -67t-67 -28h-51v-143zM1757 1247
l-329 -500q-1 -3 -2 -5h331v505z" />
    <glyph glyph-name="onehalf" unicode="&#xbd;" horiz-adv-x="2111" 
d="M512 696q0 -40 -28 -68t-67 -28q-40 0 -68 28t-28 68v855h-195q-39 0 -67 28t-28 68q0 39 28 67t67 28h291q39 0 67 -28t28 -67v-951zM1016 1481q24 9 49 -2q23 -10 33 -35q10 -24 -1 -48l-474 -1450q-11 -23 -35 -33t-49 1q-24 10 -33 35q-10 25 1 49l473 1449
q12 24 36 34zM1435 1020q-28 -28 -68 -28q-39 0 -67 28t-28 67q0 153 108 262q109 108 262 108t261 -108q108 -109 108 -262q0 -193 -101 -280q-61 -53 -228 -99q-98 -27 -139 -56q-69 -49 -89 -146h482q39 0 67 -28t28 -67q0 -40 -28 -68t-67 -28h-586q-39 0 -67 28t-28 68
q0 250 120 362q71 66 257 118q96 26 131 54q58 46 58 142q0 74 -52 127q-53 52 -127 52t-127 -52q-52 -53 -52 -127q0 -39 -28 -67z" />
    <glyph glyph-name="threequarters" unicode="&#xbe;" horiz-adv-x="2393" 
d="M175 600q-39 0 -67 28t-28 68q0 39 28 67t67 28h198q174 0 230 117q18 38 18 80q0 41 -18 79q-57 120 -233 120h-79q-40 0 -68 28t-28 67q0 48 39 77l228 193h-277q-39 0 -67 28q-28 27 -28 67q0 39 28 67q28 27 67 28h531q48 2 78 -34q26 -30 23 -69q-4 -40 -34 -65
l-258 -218q175 -52 249 -207q36 -76 37 -161q0 -85 -36 -161q-49 -102 -146 -161q-108 -66 -256 -66h-198zM1275 1481q24 9 49 -2q23 -10 33 -35q10 -24 -1 -48l-474 -1450q-11 -23 -35 -33t-49 1q-24 10 -33 35q-10 25 1 49l473 1449q12 24 36 34zM2207 408q0 -40 -28 -68
t-67 -28q-40 0 -68 28t-28 68v143h-351q-47 0 -88 25t-62 68q-21 42 -17 89q4 44 30 83l373 567q31 48 86 65q52 16 105 -2q52 -17 83 -61q32 -44 32 -98v-545h51q39 0 67 -28t28 -68q0 -39 -28 -67t-67 -28h-51v-143zM2016 1247l-329 -500q-1 -3 -2 -5h331v505z" />
    <glyph glyph-name="questiondown" unicode="&#xbf;" horiz-adv-x="1055" 
d="M793 210q27 27 67 27q39 0 67 -27q28 -28 28 -68q0 -177 -125 -302t-302 -125t-303 125q-125 125 -125 302t125 302q88 88 207 115v195q0 40 28 67q28 28 68 28q39 0 67 -28q28 -27 28 -67v-280q0 -39 -28 -67t-67 -28q-99 0 -168 -69q-70 -70 -70 -168t70 -167
q69 -70 168 -70q98 0 167 70q70 69 70 167q0 40 28 68zM452.5 957.5q-31.5 31.5 -31.5 76.5t31.5 76.5t75.5 31.5t75.5 -31.5t31.5 -76.5t-31.5 -76.5t-75.5 -31.5t-75.5 31.5z" />
    <glyph glyph-name="Agrave" unicode="&#xc0;" horiz-adv-x="1485" 
d="M290 642h904v143q0 186 -133 319q-132 133 -319 133q-186 0 -319 -133t-133 -319v-143zM1194 452h-904v-357q0 -40 -28 -68q-27 -27 -67 -27q-39 0 -67 27q-28 28 -28 68v690q0 265 189 453q188 189 453 189t454 -189q189 -188 189 -453v-690q0 -40 -28 -68
q-28 -27 -68 -27q-39 0 -67 27q-28 28 -28 68v357zM485 1715q-27 27 -13 54q11 24 58 24h98q41 0 68 -34l162 -190q31 -39 19 -63t-58 -24h-46q-37 0 -54 17z" />
    <glyph glyph-name="Aacute" unicode="&#xc1;" horiz-adv-x="1485" 
d="M290 642h904v143q0 186 -133 319q-132 133 -319 133q-186 0 -319 -133t-133 -319v-143zM1194 452h-904v-357q0 -40 -28 -68q-27 -27 -67 -27q-39 0 -67 27q-28 28 -28 68v690q0 265 189 453q188 189 453 189t454 -189q189 -188 189 -453v-690q0 -40 -28 -68
q-28 -27 -68 -27q-39 0 -67 27q-28 28 -28 68v357zM767 1499q-18 -17 -55 -17h-45q-47 0 -59 24q-11 24 19 63l163 190q26 34 67 34h98q47 0 59 -24q13 -27 -13 -54z" />
    <glyph glyph-name="Acircumflex" unicode="&#xc2;" horiz-adv-x="1485" 
d="M290 642h904v143q0 186 -133 319q-132 133 -319 133q-186 0 -319 -133t-133 -319v-143zM1194 452h-904v-357q0 -40 -28 -68q-27 -27 -67 -27q-39 0 -67 27q-28 28 -28 68v690q0 265 189 453q188 189 453 189t454 -189q189 -188 189 -453v-690q0 -40 -28 -68
q-28 -27 -68 -27q-39 0 -67 27q-28 28 -28 68v357zM895 1779l192 -236q16 -21 5 -45q-12 -24 -59 -24h-32q-50 0 -91 39l-167 196l-164 -194q-44 -41 -80 -41h-47q-47 0 -58 24q-12 24 5 45l195 241q58 65 149 65q91 -1 152 -70z" />
    <glyph glyph-name="Atilde" unicode="&#xc3;" horiz-adv-x="1485" 
d="M290 642h904v143q0 186 -133 319q-132 133 -319 133q-186 0 -319 -133t-133 -319v-143zM1194 452h-904v-357q0 -40 -28 -68q-27 -27 -67 -27q-39 0 -67 27q-28 28 -28 68v690q0 265 189 453q188 189 453 189t454 -189q189 -188 189 -453v-690q0 -40 -28 -68
q-28 -27 -68 -27q-39 0 -67 27q-28 28 -28 68v357zM427 1683q64 54 162 54q83 0 199 -54q53 -25 109 -23q69 1 83 51q9 36 48 36h58q23 0 37 -17q15 -16 12 -38q-15 -90 -69 -141q-60 -56 -159 -56q-83 0 -195 58q-58 30 -116 30q-74 -1 -88 -58q-8 -37 -48 -37h-60
q-23 0 -38 16q-15 17 -11 38q14 88 76 141z" />
    <glyph glyph-name="Adieresis" unicode="&#xc4;" horiz-adv-x="1485" 
d="M290 642h904v143q0 186 -133 319q-132 133 -319 133q-186 0 -319 -133t-133 -319v-143zM1194 452h-904v-357q0 -40 -28 -68q-27 -27 -67 -27q-39 0 -67 27q-28 28 -28 68v690q0 265 189 453q188 189 453 189t454 -189q189 -188 189 -453v-690q0 -40 -28 -68
q-28 -27 -68 -27q-39 0 -67 27q-28 28 -28 68v357zM640.5 1685.5q26.5 -26.5 26.5 -64.5t-26.5 -65t-64.5 -27t-64.5 27t-26.5 65t26.5 64.5t64.5 26.5t64.5 -26.5zM973.5 1685.5q26.5 -26.5 26.5 -65.5q0 -38 -26.5 -64.5t-64.5 -26.5q-37 0 -64 26.5t-27 64.5
q0 39 27 65.5t64 26.5q38 0 64.5 -26.5z" />
    <glyph glyph-name="Aring" unicode="&#xc5;" horiz-adv-x="1485" 
d="M290 642h904v143q0 186 -133 319q-132 133 -319 133q-186 0 -319 -133t-133 -319v-143zM1194 452h-904v-357q0 -40 -28 -68q-27 -27 -67 -27q-39 0 -67 27q-28 28 -28 68v690q0 265 189 453q188 189 453 189t454 -189q189 -188 189 -453v-690q0 -40 -28 -68
q-28 -27 -68 -27q-39 0 -67 27q-28 28 -28 68v357zM665 1714q29 30 71 30h14q41 0 70 -30q30 -29 30 -70t-30 -71q-29 -29 -70 -29h-14q-42 0 -71 29q-29 30 -29 71t29 70zM578 1491q63 -63 152 -63h25q89 0 153 63q63 64 63 153t-63 153q-64 63 -153 63h-25q-89 0 -152 -63
q-64 -64 -64 -153t64 -153z" />
    <glyph glyph-name="AE" unicode="&#xc6;" horiz-adv-x="1960" 
d="M1154 1426h670q40 0 68 -27q28 -28 28 -68q0 -39 -28 -67t-68 -28h-639v-428h584q39 0 67 -28t28 -67q0 -40 -28 -67q-28 -28 -67 -28h-584v-429h639q40 0 68 -27q28 -28 28 -68q0 -39 -28 -67t-68 -28h-735q-39 0 -67 28t-28 67v358h-704v-357q0 -40 -28 -68
q-27 -27 -67 -27q-39 0 -67 27q-28 28 -28 68v690q0 265 189 453q188 189 453 189h412v-1zM994 642v595h-252q-186 0 -319 -133t-133 -319v-143h704z" />
    <glyph glyph-name="Ccedilla" unicode="&#xc7;" horiz-adv-x="1466" 
d="M1278 503q38 11 72 -9q35 -19 45 -57q11 -38 -8 -72q-95 -169 -263 -267q-167 -98 -360 -98q-296 0 -505 209t-209 504q0 296 209 505t505 209q193 0 360 -98q168 -98 263 -267q19 -34 8 -72q-10 -38 -45 -57q-34 -20 -72 -9t-57 45q-70 125 -193 197q-121 71 -264 71
q-217 0 -370 -154q-154 -153 -154 -370q0 -216 154 -369q153 -154 370 -154q143 0 264 71q123 72 193 197q19 34 57 45zM642 -101q10 34 41 50q32 17 65 6q34 -10 51 -41q16 -32 6 -65l-75 -242q-11 -34 -42 -50q-31 -17 -65 -6q-33 10 -50 41q-16 31 -6 65z" />
    <glyph glyph-name="Egrave" unicode="&#xc8;" horiz-adv-x="1141" 
d="M955 808q39 0 67 -28q28 -27 28 -67q0 -39 -28 -67t-67 -28h-665v-428h720q39 0 67 -28t28 -67q0 -40 -28 -68q-28 -27 -67 -27h-815q-39 0 -67 27q-28 28 -28 68v1237q0 39 28 67t67 28h815q39 0 67 -28t28 -67q0 -40 -28 -68q-28 -27 -67 -27h-720v-429h665zM345 1715
q-27 27 -13 54q11 24 58 24h98q41 0 68 -34l162 -190q31 -39 19 -63t-58 -24h-46q-37 0 -54 17z" />
    <glyph glyph-name="Eacute" unicode="&#xc9;" horiz-adv-x="1141" 
d="M955 808q39 0 67 -28q28 -27 28 -67q0 -39 -28 -67t-67 -28h-665v-428h720q39 0 67 -28t28 -67q0 -40 -28 -68q-28 -27 -67 -27h-815q-39 0 -67 27q-28 28 -28 68v1237q0 39 28 67t67 28h815q39 0 67 -28t28 -67q0 -40 -28 -68q-28 -27 -67 -27h-720v-429h665zM627 1499
q-18 -17 -55 -17h-45q-47 0 -59 24q-11 24 19 63l163 190q26 34 67 34h98q47 0 59 -24q13 -27 -13 -54z" />
    <glyph glyph-name="Ecircumflex" unicode="&#xca;" horiz-adv-x="1141" 
d="M955 808q39 0 67 -28q28 -27 28 -67q0 -39 -28 -67t-67 -28h-665v-428h720q39 0 67 -28t28 -67q0 -40 -28 -68q-28 -27 -67 -27h-815q-39 0 -67 27q-28 28 -28 68v1237q0 39 28 67t67 28h815q39 0 67 -28t28 -67q0 -40 -28 -68q-28 -27 -67 -27h-720v-429h665zM755 1779
l192 -236q16 -21 5 -45q-12 -24 -59 -24h-32q-50 0 -91 39l-167 196l-164 -194q-44 -41 -80 -41h-47q-47 0 -58 24q-12 24 5 45l195 241q58 65 149 65q91 -1 152 -70z" />
    <glyph glyph-name="Edieresis" unicode="&#xcb;" horiz-adv-x="1141" 
d="M955 808q39 0 67 -28q28 -27 28 -67q0 -39 -28 -67t-67 -28h-665v-428h720q39 0 67 -28t28 -67q0 -40 -28 -68q-28 -27 -67 -27h-815q-39 0 -67 27q-28 28 -28 68v1237q0 39 28 67t67 28h815q39 0 67 -28t28 -67q0 -40 -28 -68q-28 -27 -67 -27h-720v-429h665z
M500.5 1685.5q26.5 -26.5 26.5 -64.5t-26.5 -65t-64.5 -27t-64.5 27t-26.5 65t26.5 64.5t64.5 26.5t64.5 -26.5zM833.5 1685.5q26.5 -26.5 26.5 -65.5q0 -38 -26.5 -64.5t-64.5 -26.5q-37 0 -64 26.5t-27 64.5q0 39 27 65.5t64 26.5q38 0 64.5 -26.5z" />
    <glyph glyph-name="Igrave" unicode="&#xcc;" horiz-adv-x="490" 
d="M340 95q0 -40 -28 -68q-27 -27 -67 -27q-39 0 -67 27q-28 28 -28 68v1237q0 39 28 67t67 28q40 0 67 -28q28 -28 28 -67v-1237zM-12 1715q-27 27 -13 54q11 24 58 24h98q41 0 68 -34l162 -190q31 -39 19 -63t-58 -24h-46q-37 0 -54 17z" />
    <glyph glyph-name="Iacute" unicode="&#xcd;" horiz-adv-x="490" 
d="M340 95q0 -40 -28 -68q-27 -27 -67 -27q-39 0 -67 27q-28 28 -28 68v1237q0 39 28 67t67 28q40 0 67 -28q28 -28 28 -67v-1237zM269 1499q-18 -17 -55 -17h-45q-47 0 -59 24q-11 24 19 63l163 190q26 34 67 34h98q47 0 59 -24q13 -27 -13 -54z" />
    <glyph glyph-name="Icircumflex" unicode="&#xce;" horiz-adv-x="490" 
d="M340 95q0 -40 -28 -68q-27 -27 -67 -27q-39 0 -67 27q-28 28 -28 68v1237q0 39 28 67t67 28q40 0 67 -28q28 -28 28 -67v-1237zM397 1779l192 -236q16 -21 5 -45q-12 -24 -59 -24h-32q-50 0 -91 39l-167 196l-164 -194q-44 -41 -80 -41h-47q-47 0 -58 24q-12 24 5 45
l195 241q58 65 149 65q91 -1 152 -70z" />
    <glyph glyph-name="Idieresis" unicode="&#xcf;" horiz-adv-x="490" 
d="M340 95q0 -40 -28 -68q-27 -27 -67 -27q-39 0 -67 27q-28 28 -28 68v1237q0 39 28 67t67 28q40 0 67 -28q28 -28 28 -67v-1237zM143.5 1685.5q26.5 -26.5 26.5 -64.5t-26.5 -65t-64.5 -27t-64.5 27t-26.5 65t26.5 64.5t64.5 26.5t64.5 -26.5zM476.5 1685.5
q26.5 -26.5 26.5 -65.5q0 -38 -26.5 -64.5t-64.5 -26.5q-37 0 -64 26.5t-27 64.5q0 39 27 65.5t64 26.5q38 0 64.5 -26.5z" />
    <glyph glyph-name="Eth" unicode="&#xd0;" horiz-adv-x="1673" 
d="M738 809q40 0 68 -28q28 -27 28 -67q0 -39 -28 -67t-68 -28h-211v-428h333q215 0 369 154q154 153 154 369t-154 370t-369 154h-333v-429h211zM337 619h-142q-39 0 -67 28t-28 67q0 40 28 67q28 28 67 28h142v429q0 78 55 134h1q56 56 134 56h333q294 0 504 -210
q209 -209 209 -504q0 -294 -209 -504q-210 -210 -504 -210h-333q-78 0 -134 56l-1 1q-55 56 -55 134v428zM527 190v1v0v-1zM527 190v1v-1z" />
    <glyph glyph-name="Ntilde" unicode="&#xd1;" horiz-adv-x="1468" 
d="M290 95q0 -40 -28 -68q-27 -27 -67 -27q-39 0 -67 27q-28 28 -28 68v1086q0 106 84 179q3 3 7 6q75 61 177 61q86 0 155 -46q71 -47 103 -127l387 -1000q15 -36 36 -51q19 -13 51 -13q38 0 63 20q15 11 15 43v1079q0 39 28 67q27 28 67 28q39 0 67 -28t28 -67v-1099
q0 -103 -87 -172q-77 -61 -181 -61q-93 0 -162 49h1q-65 47 -101 132q-61 152 -193 502q-122 326 -195 501q-10 24 -32 39q-20 14 -50 14q-34 0 -56 -17l-3 -3q-19 -16 -19 -46v-1076zM418 1683q64 54 162 54q83 0 199 -54q53 -25 109 -23q69 1 83 51q9 36 48 36h58
q23 0 37 -17q15 -16 12 -38q-15 -90 -69 -141q-60 -56 -159 -56q-83 0 -195 58q-58 30 -116 30q-74 -1 -88 -58q-8 -37 -48 -37h-60q-23 0 -38 16q-15 17 -11 38q14 88 76 141z" />
    <glyph glyph-name="Ograve" unicode="&#xd2;" horiz-adv-x="1527" 
d="M1268 1218q209 -209 209 -505q0 -295 -209 -504t-504 -209q-296 0 -505 209t-209 504q0 296 209 505t505 209q295 0 504 -209zM764 1237q-217 0 -370 -154q-154 -153 -154 -370t154 -370q153 -153 370 -153q216 0 370 153q153 153 153 370t-153 370q-154 154 -370 154z
M506 1715q-27 27 -13 54q11 24 58 24h98q41 0 68 -34l162 -190q31 -39 19 -63t-58 -24h-46q-37 0 -54 17z" />
    <glyph glyph-name="Oacute" unicode="&#xd3;" horiz-adv-x="1527" 
d="M1268 1218q209 -209 209 -505q0 -295 -209 -504t-504 -209q-296 0 -505 209t-209 504q0 296 209 505t505 209q295 0 504 -209zM764 1237q-217 0 -370 -154q-154 -153 -154 -370t154 -370q153 -153 370 -153q216 0 370 153q153 153 153 370t-153 370q-154 154 -370 154z
M788 1499q-18 -17 -55 -17h-45q-47 0 -59 24q-11 24 19 63l163 190q26 34 67 34h98q47 0 59 -24q13 -27 -13 -54z" />
    <glyph glyph-name="Ocircumflex" unicode="&#xd4;" horiz-adv-x="1527" 
d="M1268 1218q209 -209 209 -505q0 -295 -209 -504t-504 -209q-296 0 -505 209t-209 504q0 296 209 505t505 209q295 0 504 -209zM764 1237q-217 0 -370 -154q-154 -153 -154 -370t154 -370q153 -153 370 -153q216 0 370 153q153 153 153 370t-153 370q-154 154 -370 154z
M916 1779l192 -236q16 -21 5 -45q-12 -24 -59 -24h-32q-50 0 -91 39l-167 196l-164 -194q-44 -41 -80 -41h-47q-47 0 -58 24q-12 24 5 45l195 241q58 65 149 65q91 -1 152 -70z" />
    <glyph glyph-name="Otilde" unicode="&#xd5;" horiz-adv-x="1527" 
d="M1268 1218q209 -209 209 -505q0 -295 -209 -504t-504 -209q-296 0 -505 209t-209 504q0 296 209 505t505 209q295 0 504 -209zM764 1237q-217 0 -370 -154q-154 -153 -154 -370t154 -370q153 -153 370 -153q216 0 370 153q153 153 153 370t-153 370q-154 154 -370 154z
M448 1683q64 54 162 54q83 0 199 -54q53 -25 109 -23q69 1 83 51q9 36 48 36h58q23 0 37 -17q15 -16 12 -38q-15 -90 -69 -141q-60 -56 -159 -56q-83 0 -195 58q-58 30 -116 30q-74 -1 -88 -58q-8 -37 -48 -37h-60q-23 0 -38 16q-15 17 -11 38q14 88 76 141z" />
    <glyph glyph-name="Odieresis" unicode="&#xd6;" horiz-adv-x="1527" 
d="M1268 1218q209 -209 209 -505q0 -295 -209 -504t-504 -209q-296 0 -505 209t-209 504q0 296 209 505t505 209q295 0 504 -209zM764 1237q-217 0 -370 -154q-154 -153 -154 -370t154 -370q153 -153 370 -153q216 0 370 153q153 153 153 370t-153 370q-154 154 -370 154z
M661.5 1685.5q26.5 -26.5 26.5 -64.5t-26.5 -65t-64.5 -27t-64.5 27t-26.5 65t26.5 64.5t64.5 26.5t64.5 -26.5zM994.5 1685.5q26.5 -26.5 26.5 -65.5q0 -38 -26.5 -64.5t-64.5 -26.5q-37 0 -64 26.5t-27 64.5q0 39 27 65.5t64 26.5q38 0 64.5 -26.5z" />
    <glyph glyph-name="multiply" unicode="&#xd7;" horiz-adv-x="842" 
d="M212 342q-27 -28 -67 -28q-39 0 -67 28t-28 67t28 67l208 209l-208 208q-28 28 -28 68q0 39 28 67t67 28q40 0 67 -28l209 -209l209 209q27 28 67 28q39 0 67 -28t28 -67q0 -40 -28 -68l-208 -208l208 -209q28 -28 28 -67t-28 -67t-67 -28q-40 0 -67 28l-209 208z" />
    <glyph glyph-name="Oslash" unicode="&#xd8;" horiz-adv-x="1528" 
d="M1252 1430q39 4 70 -20q30 -25 35 -64q4 -39 -21 -70l-54 -68q196 -206 196 -491q0 -295 -210 -505q-209 -209 -504 -209q-200 0 -370 104l-55 -68q-24 -31 -64 -35q-39 -4 -69 21q-31 24 -35 63t20 70l55 68q-196 206 -196 491q0 296 209 505t505 209q200 0 370 -103
l54 67q25 31 64 35zM515 257q116 -63 249 -63q217 0 370 153t153 370q0 194 -126 341zM1013 1178q-116 63 -249 63q-217 0 -370 -154q-154 -153 -154 -370q0 -194 127 -341z" />
    <glyph glyph-name="Ugrave" unicode="&#xd9;" horiz-adv-x="1485" 
d="M100 1333q0 39 28 67t67 28q40 0 67 -28q28 -28 28 -67v-691q0 -186 133 -319t319 -133q187 0 319 133q133 133 133 319v691q0 39 28 67t67 28q40 0 68 -28t28 -67v-691q0 -265 -189 -454q-189 -188 -454 -188t-453 188q-189 189 -189 454v691zM485 1715q-27 27 -13 54
q11 24 58 24h98q41 0 68 -34l162 -190q31 -39 19 -63t-58 -24h-46q-37 0 -54 17z" />
    <glyph glyph-name="Uacute" unicode="&#xda;" horiz-adv-x="1485" 
d="M100 1333q0 39 28 67t67 28q40 0 67 -28q28 -28 28 -67v-691q0 -186 133 -319t319 -133q187 0 319 133q133 133 133 319v691q0 39 28 67t67 28q40 0 68 -28t28 -67v-691q0 -265 -189 -454q-189 -188 -454 -188t-453 188q-189 189 -189 454v691zM767 1499q-18 -17 -55 -17
h-45q-47 0 -59 24q-11 24 19 63l163 190q26 34 67 34h98q47 0 59 -24q13 -27 -13 -54z" />
    <glyph glyph-name="Ucircumflex" unicode="&#xdb;" horiz-adv-x="1485" 
d="M100 1333q0 39 28 67t67 28q40 0 67 -28q28 -28 28 -67v-691q0 -186 133 -319t319 -133q187 0 319 133q133 133 133 319v691q0 39 28 67t67 28q40 0 68 -28t28 -67v-691q0 -265 -189 -454q-189 -188 -454 -188t-453 188q-189 189 -189 454v691zM895 1779l192 -236
q16 -21 5 -45q-12 -24 -59 -24h-32q-50 0 -91 39l-167 196l-164 -194q-44 -41 -80 -41h-47q-47 0 -58 24q-12 24 5 45l195 241q58 65 149 65q91 -1 152 -70z" />
    <glyph glyph-name="Udieresis" unicode="&#xdc;" horiz-adv-x="1485" 
d="M100 1333q0 39 28 67t67 28q40 0 67 -28q28 -28 28 -67v-691q0 -186 133 -319t319 -133q187 0 319 133q133 133 133 319v691q0 39 28 67t67 28q40 0 68 -28t28 -67v-691q0 -265 -189 -454q-189 -188 -454 -188t-453 188q-189 189 -189 454v691zM640.5 1685.5
q26.5 -26.5 26.5 -64.5t-26.5 -65t-64.5 -27t-64.5 27t-26.5 65t26.5 64.5t64.5 26.5t64.5 -26.5zM973.5 1685.5q26.5 -26.5 26.5 -65.5q0 -38 -26.5 -64.5t-64.5 -26.5q-37 0 -64 26.5t-27 64.5q0 39 27 65.5t64 26.5q38 0 64.5 -26.5z" />
    <glyph glyph-name="Yacute" unicode="&#xdd;" horiz-adv-x="1330" 
d="M760 95q0 -39 -28 -67t-67 -28t-67 28t-28 67v387q-77 12 -147 42q-159 70 -251 211q-102 157 -102 373v224q0 39 28 67t67 28q40 0 68 -28q27 -28 27 -67v-224q0 -154 69 -263q63 -100 169 -147q79 -34 167 -34t167 34q106 47 169 147q69 109 69 263v224q0 39 27 67
q28 28 68 28q39 0 67 -28t28 -67v-224q0 -216 -102 -373q-92 -141 -251 -211q-70 -30 -147 -42v-387zM689 1499q-18 -17 -55 -17h-45q-47 0 -59 24q-11 24 19 63l163 190q26 34 67 34h98q47 0 59 -24q13 -27 -13 -54z" />
    <glyph glyph-name="Thorn" unicode="&#xde;" horiz-adv-x="1219" 
d="M290 1008v-603h402q124 0 213 88q88 88 88 213t-88 213q-89 89 -213 89h-402zM290 1198h402q203 0 347 -144t144 -348q0 -203 -144 -347t-347 -144h-402v-120q0 -40 -28 -68q-27 -27 -67 -27q-39 0 -67 27q-28 28 -28 68v1237q0 39 28 67t67 28q40 0 67 -28
q28 -28 28 -67v-134z" />
    <glyph glyph-name="germandbls" unicode="&#xdf;" horiz-adv-x="1073" 
d="M295 98q0 -40 -28 -67q-28 -28 -68 -28q-39 0 -67 28q-28 27 -28 67v894q-4 131 47 241q91 197 331 197q159 0 257 -66q55 -37 84 -91q31 -55 31 -121q0 -103 -76 -215q-49 -74 -65 -111q-12 -25 -10 -35q4 -31 115 -115q176 -134 206 -244q7 -27 11 -58q3 -31 3 -64
q0 -116 -82 -200q-69 -70 -173 -95q-102 -25 -202 2q-152 40 -235 175q-20 33 -11 71q10 39 43 59q34 21 72 11q38 -9 59 -42q42 -70 120 -91q55 -14 110 -1q51 13 81 44q28 28 28 67q0 24 -2 42q-2 17 -6 31q-13 48 -137 142q-173 132 -188 238q-10 65 24 141q23 51 82 138
q42 64 42 110q0 18 -6 30q-8 14 -24 24q-49 33 -151 33q-119 0 -164 -106q-26 -60 -24 -133q1 -5 1 -11v-891z" />
    <glyph glyph-name="agrave" unicode="&#xe0;" horiz-adv-x="1292" 
d="M1025 975q167 -167 167 -404v-475q0 -40 -28 -68t-67 -28q-40 0 -67 28q-28 28 -28 68v50q-163 -146 -381 -146q-236 0 -404 168q-167 167 -167 403q0 237 167 404q168 167 404 167q237 0 404 -167zM621 952q-158 0 -269 -111q-112 -112 -112 -270q0 -157 112 -269
q111 -111 269 -111t269 111q112 112 112 269q0 158 -112 270q-111 111 -269 111zM364 1429q-27 27 -13 54q11 24 58 24h98q41 0 68 -34l162 -190q31 -39 19 -63t-58 -24h-46q-37 0 -54 17z" />
    <glyph glyph-name="aacute" unicode="&#xe1;" horiz-adv-x="1292" 
d="M1025 975q167 -167 167 -404v-475q0 -40 -28 -68t-67 -28q-40 0 -67 28q-28 28 -28 68v50q-163 -146 -381 -146q-236 0 -404 168q-167 167 -167 403q0 237 167 404q168 167 404 167q237 0 404 -167zM621 952q-158 0 -269 -111q-112 -112 -112 -270q0 -157 112 -269
q111 -111 269 -111t269 111q112 112 112 269q0 158 -112 270q-111 111 -269 111zM645 1213q-18 -17 -55 -17h-45q-47 0 -59 24q-11 24 19 63l163 190q26 34 67 34h98q47 0 59 -24q13 -27 -13 -54z" />
    <glyph glyph-name="acircumflex" unicode="&#xe2;" horiz-adv-x="1292" 
d="M1025 975q167 -167 167 -404v-475q0 -40 -28 -68t-67 -28q-40 0 -67 28q-28 28 -28 68v50q-163 -146 -381 -146q-236 0 -404 168q-167 167 -167 403q0 237 167 404q168 167 404 167q237 0 404 -167zM621 952q-158 0 -269 -111q-112 -112 -112 -270q0 -157 112 -269
q111 -111 269 -111t269 111q112 112 112 269q0 158 -112 270q-111 111 -269 111zM773 1493l192 -236q16 -21 5 -45q-12 -24 -59 -24h-32q-50 0 -91 39l-167 196l-164 -194q-44 -41 -80 -41h-47q-47 0 -58 24q-12 24 5 45l195 241q58 65 149 65q91 -1 152 -70z" />
    <glyph glyph-name="atilde" unicode="&#xe3;" horiz-adv-x="1292" 
d="M1025 975q167 -167 167 -404v-475q0 -40 -28 -68t-67 -28q-40 0 -67 28q-28 28 -28 68v50q-163 -146 -381 -146q-236 0 -404 168q-167 167 -167 403q0 237 167 404q168 167 404 167q237 0 404 -167zM621 952q-158 0 -269 -111q-112 -112 -112 -270q0 -157 112 -269
q111 -111 269 -111t269 111q112 112 112 269q0 158 -112 270q-111 111 -269 111zM305 1397q64 54 162 54q83 0 199 -54q53 -25 109 -23q69 1 83 51q9 36 48 36h58q23 0 37 -17q15 -16 12 -38q-15 -90 -69 -141q-60 -56 -159 -56q-83 0 -195 58q-58 30 -116 30
q-74 -1 -88 -58q-8 -37 -48 -37h-60q-23 0 -38 16q-15 17 -11 38q14 88 76 141z" />
    <glyph glyph-name="adieresis" unicode="&#xe4;" horiz-adv-x="1292" 
d="M1025 975q167 -167 167 -404v-475q0 -40 -28 -68t-67 -28q-40 0 -67 28q-28 28 -28 68v50q-163 -146 -381 -146q-236 0 -404 168q-167 167 -167 403q0 237 167 404q168 167 404 167q237 0 404 -167zM621 952q-158 0 -269 -111q-112 -112 -112 -270q0 -157 112 -269
q111 -111 269 -111t269 111q112 112 112 269q0 158 -112 270q-111 111 -269 111zM518.5 1399.5q26.5 -26.5 26.5 -64.5t-26.5 -65t-64.5 -27t-64.5 27t-26.5 65t26.5 64.5t64.5 26.5t64.5 -26.5zM851.5 1399.5q26.5 -26.5 26.5 -65.5q0 -38 -26.5 -64.5t-64.5 -26.5
q-37 0 -64 26.5t-27 64.5q0 39 27 65.5t64 26.5q38 0 64.5 -26.5z" />
    <glyph glyph-name="aring" unicode="&#xe5;" horiz-adv-x="1292" 
d="M1025 975q167 -167 167 -404v-475q0 -40 -28 -68t-67 -28q-40 0 -67 28q-28 28 -28 68v50q-163 -146 -381 -146q-236 0 -404 168q-167 167 -167 403q0 237 167 404q168 167 404 167q237 0 404 -167zM621 952q-158 0 -269 -111q-112 -112 -112 -270q0 -157 112 -269
q111 -111 269 -111t269 111q112 112 112 269q0 158 -112 270q-111 111 -269 111zM543 1448q29 30 71 30h14q41 0 70 -30q30 -29 30 -70t-30 -71q-29 -29 -70 -29h-14q-42 0 -71 29q-29 30 -29 71t29 70zM456 1225q63 -63 152 -63h25q89 0 153 63q63 64 63 153t-63 153
q-64 63 -153 63h-25q-89 0 -152 -63q-64 -64 -64 -153t64 -153z" />
    <glyph glyph-name="ae" unicode="&#xe6;" horiz-adv-x="2176" 
d="M621 952q-158 0 -269 -111q-112 -112 -112 -270q0 -157 112 -269q111 -111 269 -111t269 111q112 112 112 269q0 158 -112 270q-111 111 -269 111zM1194 539l722 191q-37 82 -105 138q-103 84 -238 85q-157 -1 -269 -113t-112 -269q0 -16 2 -32zM1192 146v-50
q0 -40 -28 -68t-67 -28q-40 0 -67 28q-28 28 -28 68v50q-163 -146 -381 -146q-236 0 -404 168q-167 167 -167 403q0 237 167 404q168 167 404 167q237 0 404 -167q41 -41 72 -87q31 45 72 86q167 167 404 168q203 0 358 -127q156 -129 200 -331q8 -38 -13 -71t-59 -41
l-802 -213q21 -30 47 -57q111 -111 269 -111q94 0 177 32q82 31 143 89q28 27 68 26q39 -1 66 -29q27 -29 26 -68t-29 -66q-90 -85 -206 -130t-245 -45q-220 0 -381 146z" />
    <glyph glyph-name="ccedilla" unicode="&#xe7;" horiz-adv-x="1112" 
d="M964 339q39 1 67 -27q29 -27 30 -66t-26 -68q-81 -85 -189 -131q-107 -47 -225 -47q-236 0 -404 168q-167 167 -167 403q0 237 167 404q168 167 404 167q118 0 225 -46l5 -2q105 -46 184 -129q27 -29 26 -68q-1 -40 -30 -67q-28 -27 -67 -26q-40 1 -67 30q-52 55 -122 86
l-4 1q-71 31 -150 31q-158 0 -269 -111q-112 -112 -112 -270q0 -157 112 -269q111 -111 269 -111q79 0 150 30q72 31 126 88q27 29 67 30zM508 -101q10 34 41 50q32 17 65 6q34 -10 51 -41q16 -32 6 -65l-75 -242q-11 -34 -42 -50q-31 -17 -65 -6q-33 10 -50 41
q-16 31 -6 65z" />
    <glyph glyph-name="egrave" unicode="&#xe8;" horiz-adv-x="1237" 
d="M993 299q39 -4 64 -34t22 -70q-4 -39 -34 -64q-87 -63 -191 -97t-223 -34q-246 0 -414 168q-167 167 -167 403q0 237 167 404q168 167 404 167q237 0 404 -167t167 -404q0 -39 -28 -67t-67 -28h-845q26 -100 100 -174q111 -111 279 -111q88 0 159 22t133 65q31 25 70 21z
M252 667h738q-26 100 -100 174q-111 111 -269 111t-269 -111q-74 -74 -100 -174zM358 1429q-27 27 -13 54q11 24 58 24h98q41 0 68 -34l162 -190q31 -39 19 -63t-58 -24h-46q-37 0 -54 17z" />
    <glyph glyph-name="eacute" unicode="&#xe9;" horiz-adv-x="1237" 
d="M993 299q39 -4 64 -34t22 -70q-4 -39 -34 -64q-87 -63 -191 -97t-223 -34q-246 0 -414 168q-167 167 -167 403q0 237 167 404q168 167 404 167q237 0 404 -167t167 -404q0 -39 -28 -67t-67 -28h-845q26 -100 100 -174q111 -111 279 -111q88 0 159 22t133 65q31 25 70 21z
M252 667h738q-26 100 -100 174q-111 111 -269 111t-269 -111q-74 -74 -100 -174zM640 1213q-18 -17 -55 -17h-45q-47 0 -59 24q-11 24 19 63l163 190q26 34 67 34h98q47 0 59 -24q13 -27 -13 -54z" />
    <glyph glyph-name="ecircumflex" unicode="&#xea;" horiz-adv-x="1237" 
d="M993 299q39 -4 64 -34t22 -70q-4 -39 -34 -64q-87 -63 -191 -97t-223 -34q-246 0 -414 168q-167 167 -167 403q0 237 167 404q168 167 404 167q237 0 404 -167t167 -404q0 -39 -28 -67t-67 -28h-845q26 -100 100 -174q111 -111 279 -111q88 0 159 22t133 65q31 25 70 21z
M252 667h738q-26 100 -100 174q-111 111 -269 111t-269 -111q-74 -74 -100 -174zM768 1493l192 -236q16 -21 5 -45q-12 -24 -59 -24h-32q-50 0 -91 39l-167 196l-164 -194q-44 -41 -80 -41h-47q-47 0 -58 24q-12 24 5 45l195 241q58 65 149 65q91 -1 152 -70z" />
    <glyph glyph-name="edieresis" unicode="&#xeb;" horiz-adv-x="1237" 
d="M993 299q39 -4 64 -34t22 -70q-4 -39 -34 -64q-87 -63 -191 -97t-223 -34q-246 0 -414 168q-167 167 -167 403q0 237 167 404q168 167 404 167q237 0 404 -167t167 -404q0 -39 -28 -67t-67 -28h-845q26 -100 100 -174q111 -111 279 -111q88 0 159 22t133 65q31 25 70 21z
M252 667h738q-26 100 -100 174q-111 111 -269 111t-269 -111q-74 -74 -100 -174zM513.5 1399.5q26.5 -26.5 26.5 -64.5t-26.5 -65t-64.5 -27t-64.5 27t-26.5 65t26.5 64.5t64.5 26.5t64.5 -26.5zM846.5 1399.5q26.5 -26.5 26.5 -65.5q0 -38 -26.5 -64.5t-64.5 -26.5
q-37 0 -64 26.5t-27 64.5q0 39 27 65.5t64 26.5q38 0 64.5 -26.5z" />
    <glyph glyph-name="igrave" unicode="&#xec;" horiz-adv-x="491" 
d="M340 96q0 -40 -28 -68q-27 -28 -67 -28q-39 0 -67 28t-28 68v951q0 40 28 68q28 27 67 27q40 0 67 -27q28 -28 28 -68v-951zM-12 1429q-27 27 -13 54q11 24 58 24h98q41 0 68 -34l162 -190q31 -39 19 -63t-58 -24h-46q-37 0 -54 17z" />
    <glyph glyph-name="iacute" unicode="&#xed;" horiz-adv-x="491" 
d="M340 96q0 -40 -28 -68q-27 -28 -67 -28q-39 0 -67 28t-28 68v951q0 40 28 68q28 27 67 27q40 0 67 -27q28 -28 28 -68v-951zM269 1213q-18 -17 -55 -17h-45q-47 0 -59 24q-11 24 19 63l163 190q26 34 67 34h98q47 0 59 -24q13 -27 -13 -54z" />
    <glyph glyph-name="icircumflex" unicode="&#xee;" horiz-adv-x="491" 
d="M340 96q0 -40 -28 -68q-27 -28 -67 -28q-39 0 -67 28t-28 68v951q0 40 28 68q28 27 67 27q40 0 67 -27q28 -28 28 -68v-951zM397 1493l192 -236q16 -21 5 -45q-12 -24 -59 -24h-32q-50 0 -91 39l-167 196l-164 -194q-44 -41 -80 -41h-47q-47 0 -58 24q-12 24 5 45
l195 241q58 65 149 65q91 -1 152 -70z" />
    <glyph glyph-name="idieresis" unicode="&#xef;" horiz-adv-x="491" 
d="M340 96q0 -40 -28 -68q-27 -28 -67 -28q-39 0 -67 28t-28 68v951q0 40 28 68q28 27 67 27q40 0 67 -27q28 -28 28 -68v-951zM143.5 1399.5q26.5 -26.5 26.5 -64.5t-26.5 -65t-64.5 -27t-64.5 27t-26.5 65t26.5 64.5t64.5 26.5t64.5 -26.5zM476.5 1399.5
q26.5 -26.5 26.5 -65.5q0 -38 -26.5 -64.5t-64.5 -26.5q-37 0 -64 26.5t-27 64.5q0 39 27 65.5t64 26.5q38 0 64.5 -26.5z" />
    <glyph glyph-name="eth" unicode="&#xf0;" horiz-adv-x="1120" 
d="M703 1074l-38 -23q-34 -21 -72 -12q-38 10 -59 43q-20 34 -11 72t43 59l31 19q-17 20 -33 36q-28 28 -28 67q0 40 28 67q28 28 67 28q40 0 67 -28q31 -31 62 -70l36 22q34 20 72 11t59 -43q20 -33 11 -72q-9 -38 -43 -58l-30 -19q64 -116 109 -243q96 -277 66 -496
q-21 -168 -141 -289q-146 -145 -352 -145t-351 145q-146 146 -146 352t146 351q145 146 351 146q116 0 218 -50q-28 68 -62 130zM547 804q-127 0 -217 -90t-90 -217t90 -217t217 -90t217 90t90 217t-90 217t-217 90z" />
    <glyph glyph-name="ntilde" unicode="&#xf1;" horiz-adv-x="1342" 
d="M1242 96q0 -40 -28 -68t-67 -28q-40 0 -67 28q-28 28 -28 68v475q0 158 -112 270q-111 111 -269 111t-269 -111q-112 -112 -112 -270v-475q0 -40 -28 -68q-27 -28 -67 -28q-39 0 -67 28t-28 68v475q0 237 167 404q168 167 404 167q237 0 404 -167t167 -404v-475z
M355 1397q64 54 162 54q83 0 199 -54q53 -25 109 -23q69 1 83 51q9 36 48 36h58q23 0 37 -17q15 -16 12 -38q-15 -90 -69 -141q-60 -56 -159 -56q-83 0 -195 58q-58 30 -116 30q-74 -1 -88 -58q-8 -37 -48 -37h-60q-23 0 -38 16q-15 17 -11 38q14 88 76 141z" />
    <glyph glyph-name="ograve" unicode="&#xf2;" horiz-adv-x="1242" 
d="M352 841q-112 -112 -112 -270q0 -157 112 -269q111 -111 269 -111t269 111q112 112 112 269q0 158 -112 270q-111 111 -269 111t-269 -111zM621 1142q237 0 404 -167t167 -404q0 -236 -167 -403q-167 -168 -404 -168q-236 0 -404 168q-167 167 -167 403q0 237 167 404
q168 167 404 167zM364 1429q-27 27 -13 54q11 24 58 24h98q41 0 68 -34l162 -190q31 -39 19 -63t-58 -24h-46q-37 0 -54 17z" />
    <glyph glyph-name="oacute" unicode="&#xf3;" horiz-adv-x="1242" 
d="M352 841q-112 -112 -112 -270q0 -157 112 -269q111 -111 269 -111t269 111q112 112 112 269q0 158 -112 270q-111 111 -269 111t-269 -111zM621 1142q237 0 404 -167t167 -404q0 -236 -167 -403q-167 -168 -404 -168q-236 0 -404 168q-167 167 -167 403q0 237 167 404
q168 167 404 167zM645 1213q-18 -17 -55 -17h-45q-47 0 -59 24q-11 24 19 63l163 190q26 34 67 34h98q47 0 59 -24q13 -27 -13 -54z" />
    <glyph glyph-name="ocircumflex" unicode="&#xf4;" horiz-adv-x="1242" 
d="M352 841q-112 -112 -112 -270q0 -157 112 -269q111 -111 269 -111t269 111q112 112 112 269q0 158 -112 270q-111 111 -269 111t-269 -111zM621 1142q237 0 404 -167t167 -404q0 -236 -167 -403q-167 -168 -404 -168q-236 0 -404 168q-167 167 -167 403q0 237 167 404
q168 167 404 167zM773 1493l192 -236q16 -21 5 -45q-12 -24 -59 -24h-32q-50 0 -91 39l-167 196l-164 -194q-44 -41 -80 -41h-47q-47 0 -58 24q-12 24 5 45l195 241q58 65 149 65q91 -1 152 -70z" />
    <glyph glyph-name="otilde" unicode="&#xf5;" horiz-adv-x="1242" 
d="M352 841q-112 -112 -112 -270q0 -157 112 -269q111 -111 269 -111t269 111q112 112 112 269q0 158 -112 270q-111 111 -269 111t-269 -111zM621 1142q237 0 404 -167t167 -404q0 -236 -167 -403q-167 -168 -404 -168q-236 0 -404 168q-167 167 -167 403q0 237 167 404
q168 167 404 167zM305 1397q64 54 162 54q83 0 199 -54q53 -25 109 -23q69 1 83 51q9 36 48 36h58q23 0 37 -17q15 -16 12 -38q-15 -90 -69 -141q-60 -56 -159 -56q-83 0 -195 58q-58 30 -116 30q-74 -1 -88 -58q-8 -37 -48 -37h-60q-23 0 -38 16q-15 17 -11 38
q14 88 76 141z" />
    <glyph glyph-name="odieresis" unicode="&#xf6;" horiz-adv-x="1242" 
d="M352 841q-112 -112 -112 -270q0 -157 112 -269q111 -111 269 -111t269 111q112 112 112 269q0 158 -112 270q-111 111 -269 111t-269 -111zM621 1142q237 0 404 -167t167 -404q0 -236 -167 -403q-167 -168 -404 -168q-236 0 -404 168q-167 167 -167 403q0 237 167 404
q168 167 404 167zM518.5 1399.5q26.5 -26.5 26.5 -64.5t-26.5 -65t-64.5 -27t-64.5 27t-26.5 65t26.5 64.5t64.5 26.5t64.5 -26.5zM851.5 1399.5q26.5 -26.5 26.5 -65.5q0 -38 -26.5 -64.5t-64.5 -26.5q-37 0 -64 26.5t-27 64.5q0 39 27 65.5t64 26.5q38 0 64.5 -26.5z" />
    <glyph glyph-name="divide" unicode="&#xf7;" horiz-adv-x="911" 
d="M195 542q-39 0 -67 28q-28 27 -28 67q0 39 28 67t67 28h520q40 0 68 -28t28 -67q0 -40 -28 -67q-28 -28 -68 -28h-520zM530.5 250.5q31.5 -31.5 31.5 -76.5t-31.5 -76.5t-75.5 -31.5t-75.5 31.5t-31.5 76.5t31.5 76.5t75.5 31.5t75.5 -31.5zM530.5 976.5
q31.5 -31.5 31.5 -76.5t-31.5 -76.5t-75.5 -31.5t-75.5 31.5t-31.5 76.5t31.5 76.5t75.5 31.5t75.5 -31.5z" />
    <glyph glyph-name="oslash" unicode="&#xf8;" horiz-adv-x="1242" 
d="M994 1142q39 4 70 -21q31 -24 35 -64q4 -39 -21 -69l-30 -38q144 -162 144 -379q0 -236 -167 -403q-167 -168 -404 -168q-150 0 -279 73l-31 -37q-24 -31 -63 -35t-70 21q-31 24 -35 63t21 70l30 38q-144 162 -144 378q0 237 167 404q168 167 404 167q150 0 279 -73
l31 38q24 30 63 35zM464 225q74 -34 157 -34q158 0 269 111q112 112 112 269q0 127 -76 228zM778 918q-74 34 -157 34q-158 0 -269 -111q-112 -112 -112 -270q0 -126 76 -227z" />
    <glyph glyph-name="ugrave" unicode="&#xf9;" horiz-adv-x="1342" 
d="M1052 1047q0 40 28 68q27 27 67 27q39 0 67 -27q28 -28 28 -68v-476q0 -236 -167 -403q-167 -168 -404 -168q-236 0 -404 168q-167 167 -167 403v476q0 40 28 68q28 27 67 27q40 0 67 -27q28 -28 28 -68v-476q0 -157 112 -269q111 -111 269 -111t269 111q112 112 112 269
v476zM414 1429q-27 27 -13 54q11 24 58 24h98q41 0 68 -34l162 -190q31 -39 19 -63t-58 -24h-46q-37 0 -54 17z" />
    <glyph glyph-name="uacute" unicode="&#xfa;" horiz-adv-x="1342" 
d="M1052 1047q0 40 28 68q27 27 67 27q39 0 67 -27q28 -28 28 -68v-476q0 -236 -167 -403q-167 -168 -404 -168q-236 0 -404 168q-167 167 -167 403v476q0 40 28 68q28 27 67 27q40 0 67 -27q28 -28 28 -68v-476q0 -157 112 -269q111 -111 269 -111t269 111q112 112 112 269
v476zM695 1213q-18 -17 -55 -17h-45q-47 0 -59 24q-11 24 19 63l163 190q26 34 67 34h98q47 0 59 -24q13 -27 -13 -54z" />
    <glyph glyph-name="ucircumflex" unicode="&#xfb;" horiz-adv-x="1342" 
d="M1052 1047q0 40 28 68q27 27 67 27q39 0 67 -27q28 -28 28 -68v-476q0 -236 -167 -403q-167 -168 -404 -168q-236 0 -404 168q-167 167 -167 403v476q0 40 28 68q28 27 67 27q40 0 67 -27q28 -28 28 -68v-476q0 -157 112 -269q111 -111 269 -111t269 111q112 112 112 269
v476zM823 1493l192 -236q16 -21 5 -45q-12 -24 -59 -24h-32q-50 0 -91 39l-167 196l-164 -194q-44 -41 -80 -41h-47q-47 0 -58 24q-12 24 5 45l195 241q58 65 149 65q91 -1 152 -70z" />
    <glyph glyph-name="udieresis" unicode="&#xfc;" horiz-adv-x="1342" 
d="M1052 1047q0 40 28 68q27 27 67 27q39 0 67 -27q28 -28 28 -68v-476q0 -236 -167 -403q-167 -168 -404 -168q-236 0 -404 168q-167 167 -167 403v476q0 40 28 68q28 27 67 27q40 0 67 -27q28 -28 28 -68v-476q0 -157 112 -269q111 -111 269 -111t269 111q112 112 112 269
v476zM568.5 1399.5q26.5 -26.5 26.5 -64.5t-26.5 -65t-64.5 -27t-64.5 27t-26.5 65t26.5 64.5t64.5 26.5t64.5 -26.5zM901.5 1399.5q26.5 -26.5 26.5 -65.5q0 -38 -26.5 -64.5t-64.5 -26.5q-37 0 -64 26.5t-27 64.5q0 39 27 65.5t64 26.5q38 0 64.5 -26.5z" />
    <glyph glyph-name="yacute" unicode="&#xfd;" horiz-adv-x="1342" 
d="M1242 86q0 -236 -167 -404q-167 -167 -404 -167q-169 0 -310 92q-142 92 -211 247q-16 35 -2 72t50 53t72 2q37 -14 53 -50q46 -103 141 -165q94 -61 207 -61q158 0 269 112q112 111 112 269v60q-163 -146 -381 -146q-236 0 -404 168q-167 167 -167 403v476q0 40 28 68
q28 27 67 27q40 0 67 -27q28 -28 28 -68v-476q0 -157 112 -269q111 -111 269 -111t269 111q112 112 112 269v476q0 40 28 68q27 27 67 27q39 0 67 -27q28 -28 28 -68v-961zM695 1213q-18 -17 -55 -17h-45q-47 0 -59 24q-11 24 19 63l163 190q26 34 67 34h98q47 0 59 -24
q13 -27 -13 -54z" />
    <glyph glyph-name="thorn" unicode="&#xfe;" horiz-adv-x="1284" 
d="M402 840q-110 -111 -112 -266v-7q2 -156 112 -266q111 -111 269 -111t269 111q112 112 112 269q0 158 -112 270q-111 111 -269 111t-269 -111zM290 996q163 145 381 145q236 0 404 -167q167 -167 167 -404q0 -236 -167 -403q-168 -168 -404 -168q-218 0 -381 146v-392
q0 -40 -28 -67q-27 -28 -67 -28q-39 0 -67 28q-28 27 -28 67v1580q0 39 28 67t67 28q40 0 67 -28q28 -28 28 -67v-337z" />
    <glyph glyph-name="ydieresis" unicode="&#xff;" horiz-adv-x="1342" 
d="M1242 86q0 -236 -167 -404q-167 -167 -404 -167q-169 0 -310 92q-142 92 -211 247q-16 35 -2 72t50 53t72 2q37 -14 53 -50q46 -103 141 -165q94 -61 207 -61q158 0 269 112q112 111 112 269v60q-163 -146 -381 -146q-236 0 -404 168q-167 167 -167 403v476q0 40 28 68
q28 27 67 27q40 0 67 -27q28 -28 28 -68v-476q0 -157 112 -269q111 -111 269 -111t269 111q112 112 112 269v476q0 40 28 68q27 27 67 27q39 0 67 -27q28 -28 28 -68v-961zM568.5 1399.5q26.5 -26.5 26.5 -64.5t-26.5 -65t-64.5 -27t-64.5 27t-26.5 65t26.5 64.5t64.5 26.5
t64.5 -26.5zM901.5 1399.5q26.5 -26.5 26.5 -65.5q0 -38 -26.5 -64.5t-64.5 -26.5q-37 0 -64 26.5t-27 64.5q0 39 27 65.5t64 26.5q38 0 64.5 -26.5z" />
    <glyph glyph-name="dotlessi" unicode="&#x131;" horiz-adv-x="491" 
d="M340 96q0 -40 -28 -68q-27 -28 -67 -28q-39 0 -67 28t-28 68v951q0 40 28 68q28 27 67 27q40 0 67 -27q28 -28 28 -68v-951z" />
    <glyph glyph-name="circumflex" unicode="&#x2c6;" horiz-adv-x="781" 
d="M543 1493l192 -236q16 -21 5 -45q-12 -24 -59 -24h-32q-50 0 -91 39l-167 196l-164 -194q-44 -41 -80 -41h-47q-47 0 -58 24q-12 24 5 45l195 241q58 65 149 65q91 -1 152 -70z" />
    <glyph glyph-name="caron" unicode="&#x2c7;" horiz-adv-x="781" 
d="M391 1318l167 196q41 39 91 39h32q47 0 59 -24q11 -24 -5 -45l-192 -236q-32 -40 -72 -40h-160q-41 0 -69 35l-195 241q-17 21 -5 45q11 24 58 24h47q36 0 80 -41z" />
    <glyph glyph-name="uni02C9" unicode="&#x2c9;" horiz-adv-x="731" 
d="M92 1276q-34 0 -58 24t-24 57q0 35 24 59q24 23 58 23h547q34 0 58 -23q24 -24 24 -59q0 -33 -24 -57t-58 -24h-547z" />
    <glyph glyph-name="breve" unicode="&#x2d8;" horiz-adv-x="686" 
d="M608 1505q31 0 50 -25q18 -26 8 -55q-37 -108 -130 -169q-86 -56 -193 -56q-108 0 -194 56q-92 61 -129 169q-10 29 8 55q18 25 50 25h20q42 0 57 -38q24 -59 77 -93q50 -31 111 -31t111 31q54 33 77 93q15 38 57 38h20z" />
    <glyph glyph-name="dotaccent" unicode="&#x2d9;" horiz-adv-x="282" 
d="M205.5 1399.5q26.5 -26.5 26.5 -64.5t-26.5 -65t-64.5 -27t-64.5 27t-26.5 65t26.5 64.5t64.5 26.5t64.5 -26.5z" />
    <glyph glyph-name="ring" unicode="&#x2da;" horiz-adv-x="477" 
d="M161 1428q29 30 71 30h14q41 0 70 -30q30 -29 30 -70t-30 -71q-29 -29 -70 -29h-14q-42 0 -71 29q-29 30 -29 71t29 70zM74 1205q63 -63 152 -63h25q89 0 153 63q63 64 63 153t-63 153q-64 63 -153 63h-25q-89 0 -152 -63q-64 -64 -64 -153t64 -153z" />
    <glyph glyph-name="ogonek" unicode="&#x2db;" horiz-adv-x="416" 
d="M141 71h140q-117 -243 -88 -294q25 -44 78 -41q32 2 68 21q4 3 9 5q24 11 41 2q17 -8 17 -33q-1 -49 -56 -84q-53 -34 -123 -37q-74 -3 -122 34q-55 42 -55 124q0 114 91 303z" />
    <glyph glyph-name="tilde" unicode="&#x2dc;" horiz-adv-x="811" 
d="M90 1397q64 54 162 54q83 0 199 -54q53 -25 109 -23q69 1 83 51q9 36 48 36h58q23 0 37 -17q15 -16 12 -38q-15 -90 -69 -141q-60 -56 -159 -56q-83 0 -195 58q-58 30 -116 30q-74 -1 -88 -58q-8 -37 -48 -37h-60q-23 0 -38 16q-15 17 -11 38q14 88 76 141z" />
    <glyph glyph-name="hungarumlaut" unicode="&#x2dd;" horiz-adv-x="1024" 
d="M-47 1213q-18 -17 -55 -17h-45q-47 0 -59 24q-11 24 19 63l163 190q26 34 67 34h98q47 0 59 -24q13 -27 -13 -54zM409 1213q-18 -17 -55 -17h-45q-47 0 -59 24q-11 24 19 63l163 190q26 34 67 34h98q47 0 59 -24q13 -27 -13 -54z" />
    <glyph glyph-name="endash" unicode="&#x2013;" horiz-adv-x="1528" 
d="M195 494q-39 0 -67 27q-28 28 -28 68q0 39 28 67t67 28h1138q40 0 68 -28q27 -28 27 -67q0 -40 -27 -68q-28 -27 -68 -27h-1138z" />
    <glyph glyph-name="emdash" unicode="&#x2014;" horiz-adv-x="2228" 
d="M195 494q-39 0 -67 27q-28 28 -28 68q0 39 28 67t67 28h1838q40 0 68 -28q27 -28 27 -67q0 -40 -27 -68q-28 -27 -68 -27h-1838z" />
    <glyph glyph-name="quoteleft" unicode="&#x2018;" horiz-adv-x="274" 
d="M40 1174l66 212q7 24 29 35q22 12 46 4q24 -7 35 -29q12 -22 4 -46l-41 -134q18 -8 34 -24q31 -31 31 -76t-31.5 -76.5t-75.5 -31.5t-75.5 31.5t-31.5 76.5q0 22 10 58z" />
    <glyph glyph-name="quoteright" unicode="&#x2019;" horiz-adv-x="274" 
d="M234 1262l-66 -212q-7 -24 -29 -35q-22 -12 -46 -4q-24 7 -35 29q-12 22 -4 46l41 134q-18 8 -33 24q-32 31 -32 76t31.5 76.5t75.5 31.5t75.5 -31.5t31.5 -76.5q0 -22 -10 -58z" />
    <glyph glyph-name="quotesinglbase" unicode="&#x201a;" horiz-adv-x="274" 
d="M234 44l-66 -212q-7 -24 -29 -35q-22 -12 -46 -4q-24 7 -35 29q-12 22 -4 46l41 134q-18 8 -33 24q-32 31 -32 76t31.5 76.5t75.5 31.5t75.5 -31.5t31.5 -76.5q0 -22 -10 -58z" />
    <glyph glyph-name="quotedblleft" unicode="&#x201c;" horiz-adv-x="534" 
d="M40 1174l66 212q7 24 29 35q22 12 46 4q24 -7 35 -29q12 -22 4 -46l-41 -134q18 -8 34 -24q31 -31 31 -76t-31.5 -76.5t-75.5 -31.5t-75.5 31.5t-31.5 76.5q0 22 10 58zM300 1174l66 212q7 24 29 35q22 12 46 4q24 -7 35 -29q12 -22 4 -46l-41 -134q18 -8 34 -24
q31 -31 31 -76t-31.5 -76.5t-75.5 -31.5t-75.5 31.5t-31.5 76.5q0 22 10 58z" />
    <glyph glyph-name="quotedblright" unicode="&#x201d;" horiz-adv-x="540" 
d="M234 1262l-66 -212q-7 -24 -29 -35q-22 -12 -46 -4q-24 7 -35 29q-12 22 -4 46l41 134q-18 8 -33 24q-32 31 -32 76t31.5 76.5t75.5 31.5t75.5 -31.5t31.5 -76.5q0 -22 -10 -58zM494 1262l-66 -212q-7 -24 -29 -35q-22 -12 -46 -4q-24 7 -35 29q-12 22 -4 46l41 134
q-18 8 -33 24q-32 31 -32 76t31.5 76.5t75.5 31.5t75.5 -31.5t31.5 -76.5q0 -22 -10 -58z" />
    <glyph glyph-name="quotedblbase" unicode="&#x201e;" horiz-adv-x="540" 
d="M234 44l-66 -212q-7 -24 -29 -35q-22 -12 -46 -4q-24 7 -35 29q-12 22 -4 46l41 134q-18 8 -33 24q-32 31 -32 76t31.5 76.5t75.5 31.5t75.5 -31.5t31.5 -76.5q0 -22 -10 -58zM494 44l-66 -212q-7 -24 -29 -35q-22 -12 -46 -4q-24 7 -35 29q-12 22 -4 46l41 134
q-18 8 -33 24q-32 31 -32 76t31.5 76.5t75.5 31.5t75.5 -31.5t31.5 -76.5q0 -22 -10 -58z" />
    <glyph glyph-name="dagger" unicode="&#x2020;" horiz-adv-x="1062" 
d="M626 806v-1196q0 -40 -28 -68q-27 -27 -67 -27q-39 0 -67 27q-28 28 -28 68v1196h-331q-39 0 -67 27q-28 28 -28 68q0 39 28 67t67 28h331v336q0 39 28 67t67 28q40 0 67 -28q28 -28 28 -67v-336h331q40 0 67 -28q28 -28 28 -67q0 -40 -28 -68q-27 -27 -67 -27h-331z" />
    <glyph glyph-name="daggerdbl" unicode="&#x2021;" horiz-adv-x="1062" 
d="M436 996v336q0 39 28 67t67 28q40 0 67 -28q28 -28 28 -67v-336h331q40 0 67 -28q28 -28 28 -67q0 -40 -28 -68q-27 -27 -67 -27h-331v-671h331q40 0 67 -28q28 -28 28 -67q0 -40 -28 -68q-27 -27 -67 -27h-331v-335q0 -40 -28 -68q-27 -27 -67 -27q-39 0 -67 27
q-28 28 -28 68v335h-331q-39 0 -67 27q-28 28 -28 68q0 39 28 67t67 28h331v671h-331q-39 0 -67 27q-28 28 -28 68q0 39 28 67t67 28h331z" />
    <glyph glyph-name="bullet" unicode="&#x2022;" horiz-adv-x="923" 
d="M738.5 976q114.5 -115 114.5 -277t-114.5 -276.5t-277.5 -114.5q-162 0 -276.5 114.5t-114.5 276.5t114.5 277t276.5 115q163 0 277.5 -115z" />
    <glyph glyph-name="ellipsis" unicode="&#x2026;" horiz-adv-x="2048" 
d="M282.5 184.5q31.5 -31.5 31.5 -76.5t-31.5 -76.5t-75.5 -31.5t-75.5 31.5t-31.5 76.5t31.5 76.5t75.5 31.5t75.5 -31.5zM965.5 184.5q31.5 -31.5 31.5 -76.5t-31.5 -76.5t-75.5 -31.5t-75.5 31.5t-31.5 76.5t31.5 76.5t75.5 31.5t75.5 -31.5zM1648.5 184.5
q31.5 -31.5 31.5 -76.5t-31.5 -76.5t-75.5 -31.5t-75.5 31.5t-31.5 76.5t31.5 76.5t75.5 31.5t75.5 -31.5z" />
    <glyph glyph-name="guilsinglleft" unicode="&#x2039;" horiz-adv-x="826" 
d="M635 1034q39 -3 65 -33q26 -29 23 -68q-3 -40 -33 -65l-347 -300l347 -299q30 -26 33 -65t-23 -69q-26 -29 -65 -32t-69 23l-429 370q-6 4 -11 10q-26 30 -23 69t32 65l431 371q30 26 69 23z" />
    <glyph glyph-name="guilsinglright" unicode="&#x203a;" horiz-adv-x="826" 
d="M260 1011l430 -371q30 -26 33 -65t-23 -69q-5 -6 -11 -10l-429 -370q-30 -26 -69 -23q-40 3 -65 32q-26 30 -23 69t32 65l348 299l-348 300q-29 25 -32 65q-3 39 23 68q25 30 65 33q39 3 69 -23z" />
    <glyph glyph-name="fraction" unicode="&#x2044;" horiz-adv-x="319" 
d="M375 1481q24 9 49 -2q23 -10 33 -35q10 -24 -1 -48l-474 -1450q-11 -23 -35 -33t-49 1q-24 10 -33 35q-10 25 1 49l473 1449q12 24 36 34z" />
    <glyph glyph-name="fraction" unicode="&#x2215;" horiz-adv-x="319" 
d="M375 1481q24 9 49 -2q23 -10 33 -35q10 -24 -1 -48l-474 -1450q-11 -23 -35 -33t-49 1q-24 10 -33 35q-10 25 1 49l473 1449q12 24 36 34z" />
    <glyph glyph-name="franc" unicode="&#x20a3;" horiz-adv-x="1215" 
d="M218 441v891q0 39 28 67q27 28 67 28h777q39 0 67 -28t28 -67q0 -40 -28 -68q-28 -27 -67 -27h-682v-429h626q40 0 68 -28q27 -27 27 -67q0 -39 -27 -67q-28 -28 -68 -28h-626v-177h182q37 0 63 -26q27 -26 27 -64q0 -37 -27 -63q-26 -26 -63 -26h-182v-167
q0 -40 -28 -68q-28 -27 -67 -27q-40 0 -67 27q-28 28 -28 68v167h-118q-37 0 -64 26q-26 26 -26 63q0 38 26 64q27 26 64 26h118z" />
    <glyph glyph-name="lira" unicode="&#x20a4;" horiz-adv-x="1144" 
d="M191 191q17 4 29 24q31 54 31 160v253h-56q-39 0 -67 28t-28 67q0 40 28 68t67 28h56v44q0 264 96 407q108 160 317 160q60 0 116 -12q58 -12 106 -36q35 -18 47 -55q13 -37 -5 -73q-18 -35 -55 -47t-72 5q-26 14 -59 21q-35 7 -78 7q-108 0 -159 -77q-64 -94 -64 -300
v-44h301q39 0 67 -28t28 -68q0 -39 -28 -67t-67 -28h-301v-253q0 -103 -27 -185h266q150 0 190 30q39 29 39 152q0 40 28 68t67 28q40 0 68 -28q27 -28 27 -68q0 -218 -116 -304q-90 -67 -303 -67l-483 -1h-84q-39 0 -67 28t-28 68q0 39 28 67t67 28h78z" />
    <glyph glyph-name="peseta" unicode="&#x20a7;" horiz-adv-x="2507" 
d="M543 1238q-113 0 -192 -89q-80 -88 -80 -213v-301h362q111 0 192 88q79 88 79 213t-79 213q-81 89 -192 89h-90zM271 445v-350q0 -40 -25 -68q-24 -27 -60 -27t-61 27q-25 28 -25 68v841q0 204 130 348q129 144 313 144h90q183 0 312 -144q130 -144 130 -348
q0 -203 -130 -347q-129 -144 -312 -144h-362zM1620 952h-250v-571q0 -78 56 -134t134 -56h578q59 0 101 42t42 100q0 59 -42 101t-101 42h-216q-138 0 -235 98q-98 98 -98 235q0 78 31 143zM1560 0q-157 0 -269 112q-111 112 -111 269v952q0 39 28 67t67 28t67 -28t28 -67
v-191h883q39 0 67 -27q28 -28 28 -68q0 -39 -28 -67t-67 -28h-331q-59 0 -101 -42t-42 -101q0 -58 42 -100t101 -42h216q137 0 235 -98t98 -236q0 -137 -98 -235t-235 -98h-578z" />
    <glyph glyph-name="Euro" unicode="&#x20ac;" horiz-adv-x="1358" 
d="M1162 433q33 16 67 4t49 -45q16 -32 4 -66q-58 -161 -191 -245q-129 -81 -318 -81q-263 0 -402 143q-122 125 -143 352h-110q-36 0 -61 25q-26 26 -26 62t26 61q25 26 61 26h106v106h-106q-36 0 -61 26q-26 25 -26 61t26 62q25 25 61 25h112q24 202 135 323
q143 155 408 155q189 0 318 -81q133 -84 191 -245q12 -34 -4 -66q-15 -33 -49 -45t-67 4q-32 15 -44 49q-37 105 -119 156q-86 54 -226 54q-189 0 -280 -99q-68 -74 -87 -205h464q36 0 61 -25q26 -26 26 -62t-26 -61q-25 -26 -61 -26h-472v-106h395q37 0 62 -26
q26 -25 26 -61t-26 -62q-25 -25 -62 -25h-389q42 -321 369 -321q140 0 226 54q82 51 119 156q12 34 44 49z" />
    <glyph glyph-name="uni2116" unicode="&#x2116;" horiz-adv-x="2374" 
d="M290 95q0 -40 -28 -68q-27 -27 -67 -27q-39 0 -67 27q-28 28 -28 68v1086q0 106 84 179q3 3 7 6q75 61 177 61q86 0 155 -46q71 -47 103 -127l387 -1000q15 -36 36 -51q19 -13 51 -13q38 0 63 20q15 11 15 43v1079q0 39 28 67q27 28 67 28q39 0 67 -28t28 -67v-1099
q0 -103 -87 -172q-77 -61 -181 -61q-93 0 -162 49h1q-65 47 -101 132q-61 152 -193 502q-122 326 -195 501q-10 24 -32 39q-20 14 -50 14q-34 0 -56 -17l-3 -3q-19 -16 -19 -46v-1076zM2189 1002q119 -120 119 -288q0 -169 -119 -289q-119 -119 -288 -119t-289 119
q-119 120 -119 289q0 168 119 288q120 119 289 119t288 -119zM1901 931q-90 0 -154 -64q-64 -63 -64 -153q0 -91 64 -154q64 -64 154 -64t153 64q64 63 64 154q0 90 -64 153q-63 64 -153 64zM1640 0q-39 0 -67 28q-28 27 -28 67q0 39 28 67t67 28h520q40 0 68 -28t28 -67
q0 -40 -28 -67q-28 -28 -68 -28h-520z" />
    <glyph glyph-name="trademark" unicode="&#x2122;" horiz-adv-x="1718" 
d="M329.442 1070.5q2.75 0.5 4.9502 0.5t4.40039 -0.5h296.443q21.999 0 36.8486 -13.5q15.3994 -14 15.3994 -33.5q0 -20 -15.3994 -33.5q-14.8496 -14 -36.8486 -14h-248.595v-571q0 -20 -15.3994 -34q-15.4004 -13.5 -36.8496 -13.5q-22 0 -37.3994 13.5
q-15.3994 14 -15.3994 34v571h-248.595q-21.4492 0 -36.8486 14q-15.4004 13.5 -15.4004 33.5q0 19.5 15.4004 33.5q15.3994 13.5 36.8486 13.5h296.443zM483.439 405q0 -20 -15.3994 -34q-14.8506 -13.5 -36.8496 -13.5q-21.4492 0 -36.8496 13.5q-15.3994 14 -15.3994 34
v420q0 101.5 79.1982 174q79.1982 72 191.396 72q112.198 0 191.396 -72q14.8496 -13.5 26.9492 -29q12.6494 15.5 27.499 29q79.1982 72 191.396 72q111.648 0 191.396 -72q79.1982 -72.5 79.1982 -174v-420q0 -20 -15.3994 -33.5q-15.4004 -14 -36.8496 -14
q-22 0 -36.8496 14q-15.3994 13.5 -15.3994 33.5v420q0 62.5 -48.9492 106.5q-48.3984 44.5 -117.147 44.5q-69.2979 0 -117.697 -44.5q-48.3984 -44 -48.3984 -106.5v-420q0 -20 -15.3994 -34q-15.4004 -13.5 -37.3994 -13.5q-21.4492 0 -36.8496 13.5
q-15.3994 14 -15.3994 34v420q0 62.5 -48.3984 106.5q-48.9492 44.5 -117.698 44.5q-68.748 0 -117.146 -44.5q-48.9492 -44 -48.9492 -106.5v-420z" />
    <glyph glyph-name="partialdiff" unicode="&#x2202;" horiz-adv-x="1107" 
d="M452 982l-186 87l43 93q34 72 97 145q126 144 273 144q162 0 251 -141q77 -122 77 -318v-35l-1 11v-17q0 -336 -76 -544q-109 -299 -374 -398q-78 -29 -150 -29q-20 0 -39 2q-104 12 -174 84q-93 95 -93 262q0 36 4 76q29 263 239 405q176 118 458 132v38q-1 0 -1 -10v23
q0 138 -44 208q-28 44 -77 44q-103 0 -184 -169zM792 733q-211 -13 -334 -95q-130 -88 -149 -257q-3 -30 -3 -55q0 -81 34 -116q19 -19 51 -23q9 -1 18 -1q34 0 74 15q177 67 254 277q40 109 55 255z" />
    <glyph glyph-name="Delta" unicode="&#x2206;" horiz-adv-x="1551" 
d="M1189 207l-410 913l-409 -913h819zM211 0q-22 0 -42 9q-39 18 -54 58q-15 39 2 78l568 1269q16 36 52 52q39 17 79 2t57 -54l565 -1261q13 -23 13 -50q0 -42 -31 -73q-30 -30 -73 -30h-1136z" />
    <glyph glyph-name="product" unicode="&#x220f;" horiz-adv-x="1495" 
d="M306 -419h-206v1774q0 43 30 73q30 31 73 31h1089q43 0 73 -31q30 -30 30 -73v-1774h-206v1671h-883v-1671z" />
    <glyph glyph-name="summation" unicode="&#x2211;" horiz-adv-x="1513" 
d="M1413 1460v-207h-994l504 -637q22 -29 22 -65q-1 -36 -23 -64l-503 -636h994v-207h-1206v1q-36 0 -64 22q-33 26 -38 68q-5 43 21 76l585 741l-579 733q-28 30 -28 71q0 43 30 73q30 31 73 31h1206z" />
    <glyph glyph-name="minus" unicode="&#x2212;" horiz-adv-x="911" 
d="M195 542q-39 0 -67 28q-28 27 -28 67q0 39 28 67t67 28h520q40 0 68 -28t28 -67q0 -40 -28 -67q-28 -28 -68 -28h-520z" />
    <glyph glyph-name="radical" unicode="&#x221a;" horiz-adv-x="1176" 
d="M88 518l-78 190l95 40l220 90q38 16 76 1q38 -14 55 -51h1l263 -539l206 1279l16 101l203 -32l-16 -101l-257 -1593q-5 -58 -57 -83q-39 -19 -79 -5t-59 52l-363 744l-131 -54z" />
    <glyph glyph-name="infinity" unicode="&#x221e;" horiz-adv-x="1357" 
d="M635 719q134 174 315 174q165 0 242 -95q65 -80 65 -242q0 -160 -79 -246q-83 -90 -235 -90q-176 0 -309 167q-112 -115 -268 -115q-168 0 -234 133q-32 64 -32 158q0 89 37 155q66 119 221 127h10q153 0 267 -126zM368 659q-35 -1 -47 -24q-15 -25 -15 -72q0 -55 14 -82
q12 -23 46 -23q73 0 149 94q-80 106 -147 107zM943 406q56 0 76 22q31 34 31 128q0 103 -24 133q-14 18 -76 18q-82 0 -190 -156q103 -145 183 -145z" />
    <glyph glyph-name="integral" unicode="&#x222b;" horiz-adv-x="788" 
d="M778 1614l-76 -191l-95 38q-54 25 -86 30q-29 -56 -24 -799t-48 -845q-55 -106 -205 -97q-72 5 -138 31l-96 38l76 191l95 -38q60 -28 86 -29q29 55 24 798t48 845q55 106 205 97q72 -5 139 -31z" />
    <glyph glyph-name="approxequal" unicode="&#x2248;" horiz-adv-x="1029" 
d="M957 671q-121 -78 -212 -87t-218 54q-117 59 -229 43q-102 -15 -210 -95v191q108 71 210 85q112 16 229 -43q127 -63 218 -54t212 97v-191zM957 327q-121 -78 -212 -87t-218 54q-117 59 -229 43q-102 -15 -210 -95v191q108 71 210 85q112 16 229 -43q127 -63 218 -54
t212 97v-191z" />
    <glyph glyph-name="lessequal" unicode="&#x2264;" horiz-adv-x="1162" 
d="M1062 1202v-224l-592 -249l592 -249v-224l-898 378q-39 16 -55 55q-9 21 -9 41q0 19 8 38q16 40 56 56l823 346zM130 0v187h932v-187h-932z" />
    <glyph glyph-name="greaterequal" unicode="&#x2265;" horiz-adv-x="1145" 
d="M175 1170l823 -346q40 -16 56 -56q8 -19 8 -38q0 -20 -9 -41q-16 -39 -55 -55l-898 -378v224l592 249l-592 249v224zM100 0v187h932v-187h-932z" />
    <glyph glyph-name="uni2117" unicode="&#x2117;" horiz-adv-x="1631" 
d="M310 1221q-210 -210 -210 -506t210 -506q209 -209 505 -209q297 0 506 209q210 210 210 506t-210 506q-209 209 -506 209q-296 0 -505 -209zM1187 1086q153 -154 153 -371q0 -218 -153 -371q-154 -154 -372 -154q-217 0 -371 154q-154 153 -154 371q0 217 154 371
t371 154q218 0 372 -154zM929 762q35 0 36 107q-1 83 -36 83h-167q-15 0 -26 -11q-12 -12 -12 -27v-152h205zM1156 872q2 -47 -10 -94q-20 -79 -73 -127q-58 -53 -144 -53h-50v-2h-155v-215q0 -40 -28 -67q-27 -28 -67 -28q-39 0 -67 28q-28 27 -28 67v286q0 12 3 24
q-3 12 -3 24v199q0 94 67 161t161 67h167q86 0 144 -53q53 -48 73 -127q11 -45 10 -90z" />
    <glyph glyph-name="onethird" unicode="&#x2153;" horiz-adv-x="1934" 
d="M512 411q0 -40 -28 -68t-67 -28q-40 0 -68 28t-28 68v855h-195q-39 0 -67 28t-28 68q0 39 28 67t67 28h291q39 0 67 -28t28 -67v-951zM1066 1481q24 9 49 -2q23 -10 33 -35q10 -24 -1 -48l-474 -1450q-11 -23 -35 -33t-49 1q-24 10 -33 35q-10 25 1 49l473 1449
q12 24 36 34zM1255 -30q-39 0 -67 28t-28 68q0 39 28 67t67 28h198q174 0 230 117q18 38 18 80q0 41 -18 79q-57 120 -233 120h-79q-40 0 -68 28t-28 67q0 48 39 77l228 193h-277q-39 0 -67 28q-28 27 -28 67q0 39 28 67q28 27 67 28h531q48 2 78 -34q26 -30 23 -69
q-4 -40 -34 -65l-258 -218q175 -52 249 -207q36 -76 37 -161q0 -85 -36 -161q-49 -102 -146 -161q-108 -66 -256 -66h-198z" />
    <glyph glyph-name="twothirds" unicode="&#x2154;" horiz-adv-x="2172" 
d="M260 1020q-28 -28 -68 -28q-39 0 -67 28t-28 67q0 153 108 262q109 108 262 108t261 -108q108 -109 108 -262q0 -193 -101 -280q-61 -53 -228 -99q-98 -27 -139 -56q-69 -49 -89 -146h482q39 0 67 -28t28 -67q0 -40 -28 -68t-67 -28h-586q-39 0 -67 28t-28 68
q0 250 120 362q71 66 257 118q96 26 131 54q58 46 58 142q0 74 -52 127q-53 52 -127 52t-127 -52q-52 -53 -52 -127q0 -39 -28 -67zM1331 1481q24 9 49 -2q23 -10 33 -35q10 -24 -1 -48l-474 -1450q-11 -23 -35 -33t-49 1q-24 10 -33 35q-10 25 1 49l473 1449q12 24 36 34z
M1490 -30q-39 0 -67 28t-28 68q0 39 28 67t67 28h198q174 0 230 117q18 38 18 80q0 41 -18 79q-57 120 -233 120h-79q-40 0 -68 28t-28 67q0 48 39 77l228 193h-277q-39 0 -67 28q-28 27 -28 67q0 39 28 67q28 27 67 28h531q48 2 78 -34q26 -30 23 -69q-4 -40 -34 -65
l-258 -218q175 -52 249 -207q36 -76 37 -161q0 -85 -36 -161q-49 -102 -146 -161q-108 -66 -256 -66h-198z" />
    <glyph glyph-name="oneeighth" unicode="&#x215b;" horiz-adv-x="1934" 
d="M512 411q0 -40 -28 -68t-67 -28q-40 0 -68 28t-28 68v855h-195q-39 0 -67 28t-28 68q0 39 28 67t67 28h291q39 0 67 -28t28 -67v-951zM1076 1481q24 9 49 -2q23 -10 33 -35q10 -24 -1 -48l-474 -1450q-11 -23 -35 -33t-49 1q-24 10 -33 35q-10 25 1 49l473 1449
q12 24 36 34zM1743 1022q90 -89 90 -216q0 -109 -70 -194q15 -11 29 -24q113 -106 113 -257t-113 -257q-110 -104 -265 -104q-154 0 -264 104q-113 106 -113 257t113 257q14 13 29 24q-70 85 -70 194q0 127 89 216h1q89 90 215 90t216 -90zM1527 921q-47 0 -81 -33
q-34 -34 -34 -82q0 -44 30 -77l4 -4q33 -33 80 -33h3q47 0 80 33q33 34 33 81q0 48 -33 82q-34 33 -82 33zM1527 501q-79 0 -134 -52q-52 -49 -52 -118t52 -119q55 -51 134 -51q80 0 135 51q52 50 52 119t-52 118q-55 52 -135 52z" />
    <glyph glyph-name="threeeighths" unicode="&#x215c;" horiz-adv-x="2134" 
d="M175 316q-39 0 -67 28t-28 68q0 39 28 67t67 28h198q174 0 230 117q18 38 18 80q0 41 -18 79q-57 120 -233 120h-79q-40 0 -68 28t-28 67q0 48 39 77l228 193h-277q-39 0 -67 28q-28 27 -28 67q0 39 28 67q28 27 67 28h531q48 2 78 -34q26 -30 23 -69q-4 -40 -34 -65
l-258 -218q175 -52 249 -207q36 -76 37 -161q0 -85 -36 -161q-49 -102 -146 -161q-108 -66 -256 -66h-198zM1275 1481q24 9 49 -2q23 -10 33 -35q10 -24 -1 -48l-474 -1450q-11 -23 -35 -33t-49 1q-24 10 -33 35q-10 25 1 49l473 1449q12 24 36 34zM1892 1022
q90 -89 90 -216q0 -109 -70 -194q15 -11 29 -24q113 -106 113 -257t-113 -257q-110 -104 -265 -104q-154 0 -264 104q-113 106 -113 257t113 257q14 13 29 24q-70 85 -70 194q0 127 89 216h1q89 90 215 90t216 -90zM1676 921q-47 0 -81 -33q-34 -34 -34 -82q0 -44 30 -77
l4 -4q33 -33 80 -33h3q47 0 80 33q33 34 33 81q0 48 -33 82q-34 33 -82 33zM1676 501q-79 0 -134 -52q-52 -49 -52 -118t52 -119q55 -51 134 -51q80 0 135 51q52 50 52 119t-52 118q-55 52 -135 52z" />
    <glyph glyph-name="fiveeighths" unicode="&#x215d;" horiz-adv-x="2213" 
d="M100 694q21 34 59 44q38 9 72 -11q34 -21 43 -59q17 -69 77 -116q61 -46 137 -46q91 0 157 64q63 62 63 149q0 85 -65 148q-68 65 -161 65q-53 0 -102 -22q-48 -22 -77 -56q-25 -31 -64 -35q-39 -3 -69 22q-39 32 -34 82l45 448q4 37 31 61q27 25 63 25h440q40 0 68 -28
t28 -67q0 -40 -28 -68t-68 -28h-354l-17 -166q69 23 138 23q169 0 292 -119q125 -119 125 -285t-122 -285q-121 -119 -289 -119q-140 0 -252 86q-114 87 -147 222q-9 38 11 71zM1354 1481q24 9 49 -2q23 -10 33 -35q10 -24 -1 -48l-474 -1450q-11 -23 -35 -33t-49 1
q-24 10 -33 35q-10 25 1 49l473 1449q12 24 36 34zM1971 1022q90 -89 90 -216q0 -109 -70 -194q15 -11 29 -24q113 -106 113 -257t-113 -257q-110 -104 -265 -104q-154 0 -264 104q-113 106 -113 257t113 257q14 13 29 24q-70 85 -70 194q0 127 89 216h1q89 90 215 90
t216 -90zM1755 921q-47 0 -81 -33q-34 -34 -34 -82q0 -44 30 -77l4 -4q33 -33 80 -33h3q47 0 80 33q33 34 33 81q0 48 -33 82q-34 33 -82 33zM1755 501q-79 0 -134 -52q-52 -49 -52 -118t52 -119q55 -51 134 -51q80 0 135 51q52 50 52 119t-52 118q-55 52 -135 52z" />
    <glyph glyph-name="seveneighths" unicode="&#x215e;" horiz-adv-x="2157" 
d="M425 322q-37 -13 -72 3q-36 17 -50 54q-13 37 3 72l377 816h-508q-39 0 -67 28t-28 68q0 39 28 67t67 28h656v0q21 0 40 -9q36 -17 50 -53q13 -37 -3 -73l-439 -951q-17 -36 -54 -50zM1249 1481q24 9 49 -2q23 -10 33 -35q10 -24 -1 -48l-474 -1450q-11 -23 -35 -33
t-49 1q-24 10 -33 35q-10 25 1 49l473 1449q12 24 36 34zM1904 1022q90 -89 90 -216q0 -109 -70 -194q15 -11 29 -24q113 -106 113 -257t-113 -257q-110 -104 -265 -104q-154 0 -264 104q-113 106 -113 257t113 257q14 13 29 24q-70 85 -70 194q0 127 89 216h1q89 90 215 90
t216 -90zM1688 921q-47 0 -81 -33q-34 -34 -34 -82q0 -44 30 -77l4 -4q33 -33 80 -33h3q47 0 80 33q33 34 33 81q0 48 -33 82q-34 33 -82 33zM1688 501q-79 0 -134 -52q-52 -49 -52 -118t52 -119q55 -51 134 -51q80 0 135 51q52 50 52 119t-52 118q-55 52 -135 52z" />
    <glyph glyph-name="Amacron" unicode="&#x100;" horiz-adv-x="1485" 
d="M290 642h904v143q0 186 -133 319q-132 133 -319 133q-186 0 -319 -133t-133 -319v-143zM1194 452h-904v-357q0 -40 -28 -68q-27 -27 -67 -27q-39 0 -67 27q-28 28 -28 68v690q0 265 189 453q188 189 453 189t454 -189q189 -188 189 -453v-690q0 -40 -28 -68
q-28 -27 -68 -27q-39 0 -67 27q-28 28 -28 68v357zM469 1562q-34 0 -58 24t-24 57q0 35 24 59q24 23 58 23h547q34 0 58 -23q24 -24 24 -59q0 -33 -24 -57t-58 -24h-547z" />
    <glyph glyph-name="amacron" unicode="&#x101;" horiz-adv-x="1292" 
d="M1025 975q167 -167 167 -404v-475q0 -40 -28 -68t-67 -28q-40 0 -67 28q-28 28 -28 68v50q-163 -146 -381 -146q-236 0 -404 168q-167 167 -167 403q0 237 167 404q168 167 404 167q237 0 404 -167zM621 952q-158 0 -269 -111q-112 -112 -112 -270q0 -157 112 -269
q111 -111 269 -111t269 111q112 112 112 269q0 158 -112 270q-111 111 -269 111zM348 1276q-34 0 -58 24t-24 57q0 35 24 59q24 23 58 23h547q34 0 58 -23q24 -24 24 -59q0 -33 -24 -57t-58 -24h-547z" />
    <glyph glyph-name="Abreve" unicode="&#x102;" horiz-adv-x="1485" 
d="M290 642h904v143q0 186 -133 319q-132 133 -319 133q-186 0 -319 -133t-133 -319v-143zM1194 452h-904v-357q0 -40 -28 -68q-27 -27 -67 -27q-39 0 -67 27q-28 28 -28 68v690q0 265 189 453q188 189 453 189t454 -189q189 -188 189 -453v-690q0 -40 -28 -68
q-28 -27 -68 -27q-39 0 -67 27q-28 28 -28 68v357zM1007 1791q31 0 50 -25q18 -26 8 -55q-37 -108 -130 -169q-86 -56 -193 -56q-108 0 -194 56q-92 61 -129 169q-10 29 8 55q18 25 50 25h20q42 0 57 -38q24 -59 77 -93q50 -31 111 -31t111 31q54 33 77 93q15 38 57 38h20z
" />
    <glyph glyph-name="abreve" unicode="&#x103;" horiz-adv-x="1292" 
d="M1025 975q167 -167 167 -404v-475q0 -40 -28 -68t-67 -28q-40 0 -67 28q-28 28 -28 68v50q-163 -146 -381 -146q-236 0 -404 168q-167 167 -167 403q0 237 167 404q168 167 404 167q237 0 404 -167zM621 952q-158 0 -269 -111q-112 -112 -112 -270q0 -157 112 -269
q111 -111 269 -111t269 111q112 112 112 269q0 158 -112 270q-111 111 -269 111zM886 1505q31 0 50 -25q18 -26 8 -55q-37 -108 -130 -169q-86 -56 -193 -56q-108 0 -194 56q-92 61 -129 169q-10 29 8 55q18 25 50 25h20q42 0 57 -38q24 -59 77 -93q50 -31 111 -31t111 31
q54 33 77 93q15 38 57 38h20z" />
    <glyph glyph-name="Aogonek" unicode="&#x104;" horiz-adv-x="1485" 
d="M290 642h904v143q0 186 -133 319q-132 133 -319 133q-186 0 -319 -133t-133 -319v-143zM1210 42q-16 23 -16 53v357h-904v-357q0 -40 -28 -68q-27 -27 -67 -27q-39 0 -67 27q-28 28 -28 68v690q0 265 189 453q188 189 453 189t454 -189q189 -188 189 -453v-690
q0 -40 -28 -68q-10 -10 -21 -16q-79 -177 -54 -220q25 -44 77 -41q33 2 69 21q4 3 8 5q25 11 42 2q17 -8 17 -33q-1 -49 -57 -84q-52 -34 -122 -37q-74 -3 -122 34q-55 42 -55 124q0 101 71 260z" />
    <glyph glyph-name="aogonek" unicode="&#x105;" horiz-adv-x="1292" 
d="M621 952q-158 0 -269 -111q-112 -112 -112 -270q0 -157 112 -269q111 -111 269 -111t269 111q112 112 112 269q0 158 -112 270q-111 111 -269 111zM1016 46q-14 22 -14 50v50q-163 -146 -381 -146q-236 0 -404 168q-167 167 -167 403q0 237 167 404q168 167 404 167
q237 0 404 -167t167 -404v-475q0 -40 -28 -68q-12 -12 -26 -19q-83 -186 -58 -230t78 -41q32 2 68 21q4 3 9 5q24 11 41 2q17 -8 17 -33q0 -49 -56 -84q-53 -34 -122 -37q-75 -3 -122 34q-56 42 -56 124q0 106 79 276z" />
    <glyph glyph-name="Cacute" unicode="&#x106;" horiz-adv-x="1466" 
d="M1278 503q38 11 72 -9q35 -19 45 -57q11 -38 -8 -72q-95 -169 -263 -267q-167 -98 -360 -98q-296 0 -505 209t-209 504q0 296 209 505t505 209q193 0 360 -98q168 -98 263 -267q19 -34 8 -72q-10 -38 -45 -57q-34 -20 -72 -9t-57 45q-70 125 -193 197q-121 71 -264 71
q-217 0 -370 -154q-154 -153 -154 -370q0 -216 154 -369q153 -154 370 -154q143 0 264 71q123 72 193 197q19 34 57 45zM749 1499q-18 -17 -55 -17h-45q-47 0 -59 24q-11 24 19 63l163 190q26 34 67 34h98q47 0 59 -24q13 -27 -13 -54z" />
    <glyph glyph-name="cacute" unicode="&#x107;" horiz-adv-x="1112" 
d="M964 339q39 1 67 -27q29 -27 30 -66t-26 -68q-81 -85 -189 -131q-107 -47 -225 -47q-236 0 -404 168q-167 167 -167 403q0 237 167 404q168 167 404 167q118 0 225 -46l5 -2q105 -46 184 -129q27 -29 26 -68q-1 -40 -30 -67q-28 -27 -67 -26q-40 1 -67 30q-52 55 -122 86
l-4 1q-71 31 -150 31q-158 0 -269 -111q-112 -112 -112 -270q0 -157 112 -269q111 -111 269 -111q79 0 150 30q72 31 126 88q27 29 67 30zM580 1213q-18 -17 -55 -17h-45q-47 0 -59 24q-11 24 19 63l163 190q26 34 67 34h98q47 0 59 -24q13 -27 -13 -54z" />
    <glyph glyph-name="Ccircumflex" unicode="&#x108;" horiz-adv-x="1466" 
d="M1278 503q38 11 72 -9q35 -19 45 -57q11 -38 -8 -72q-95 -169 -263 -267q-167 -98 -360 -98q-296 0 -505 209t-209 504q0 296 209 505t505 209q193 0 360 -98q168 -98 263 -267q19 -34 8 -72q-10 -38 -45 -57q-34 -20 -72 -9t-57 45q-70 125 -193 197q-121 71 -264 71
q-217 0 -370 -154q-154 -153 -154 -370q0 -216 154 -369q153 -154 370 -154q143 0 264 71q123 72 193 197q19 34 57 45zM907 1779l192 -236q16 -21 5 -45q-12 -24 -59 -24h-32q-50 0 -91 39l-167 196l-164 -194q-44 -41 -80 -41h-47q-47 0 -58 24q-12 24 5 45l195 241
q58 65 149 65q91 -1 152 -70z" />
    <glyph glyph-name="ccircumflex" unicode="&#x109;" horiz-adv-x="1112" 
d="M964 339q39 1 67 -27q29 -27 30 -66t-26 -68q-81 -85 -189 -131q-107 -47 -225 -47q-236 0 -404 168q-167 167 -167 403q0 237 167 404q168 167 404 167q118 0 225 -46l5 -2q105 -46 184 -129q27 -29 26 -68q-1 -40 -30 -67q-28 -27 -67 -26q-40 1 -67 30q-52 55 -122 86
l-4 1q-71 31 -150 31q-158 0 -269 -111q-112 -112 -112 -270q0 -157 112 -269q111 -111 269 -111q79 0 150 30q72 31 126 88q27 29 67 30zM738 1493l192 -236q16 -21 5 -45q-12 -24 -59 -24h-32q-50 0 -91 39l-167 196l-164 -194q-44 -41 -80 -41h-47q-47 0 -58 24
q-12 24 5 45l195 241q58 65 149 65q91 -1 152 -70z" />
    <glyph glyph-name="Cdotaccent" unicode="&#x10a;" horiz-adv-x="1466" 
d="M1278 503q38 11 72 -9q35 -19 45 -57q11 -38 -8 -72q-95 -169 -263 -267q-167 -98 -360 -98q-296 0 -505 209t-209 504q0 296 209 505t505 209q193 0 360 -98q168 -98 263 -267q19 -34 8 -72q-10 -38 -45 -57q-34 -20 -72 -9t-57 45q-70 125 -193 197q-121 71 -264 71
q-217 0 -370 -154q-154 -153 -154 -370q0 -216 154 -369q153 -154 370 -154q143 0 264 71q123 72 193 197q19 34 57 45zM829.5 1685.5q26.5 -26.5 26.5 -64.5t-26.5 -65t-64.5 -27t-64.5 27t-26.5 65t26.5 64.5t64.5 26.5t64.5 -26.5z" />
    <glyph glyph-name="cdotaccent" unicode="&#x10b;" horiz-adv-x="1112" 
d="M964 339q39 1 67 -27q29 -27 30 -66t-26 -68q-81 -85 -189 -131q-107 -47 -225 -47q-236 0 -404 168q-167 167 -167 403q0 237 167 404q168 167 404 167q118 0 225 -46l5 -2q105 -46 184 -129q27 -29 26 -68q-1 -40 -30 -67q-28 -27 -67 -26q-40 1 -67 30q-52 55 -122 86
l-4 1q-71 31 -150 31q-158 0 -269 -111q-112 -112 -112 -270q0 -157 112 -269q111 -111 269 -111q79 0 150 30q72 31 126 88q27 29 67 30zM680.5 1399.5q26.5 -26.5 26.5 -64.5t-26.5 -65t-64.5 -27t-64.5 27t-26.5 65t26.5 64.5t64.5 26.5t64.5 -26.5z" />
    <glyph glyph-name="Ccaron" unicode="&#x10c;" horiz-adv-x="1466" 
d="M1278 503q38 11 72 -9q35 -19 45 -57q11 -38 -8 -72q-95 -169 -263 -267q-167 -98 -360 -98q-296 0 -505 209t-209 504q0 296 209 505t505 209q193 0 360 -98q168 -98 263 -267q19 -34 8 -72q-10 -38 -45 -57q-34 -20 -72 -9t-57 45q-70 125 -193 197q-121 71 -264 71
q-217 0 -370 -154q-154 -153 -154 -370q0 -216 154 -369q153 -154 370 -154q143 0 264 71q123 72 193 197q19 34 57 45zM755 1604l167 196q41 39 91 39h32q47 0 59 -24q11 -24 -5 -45l-192 -236q-32 -40 -72 -40h-160q-41 0 -69 35l-195 241q-17 21 -5 45q11 24 58 24h47
q36 0 80 -41z" />
    <glyph glyph-name="ccaron" unicode="&#x10d;" horiz-adv-x="1112" 
d="M964 339q39 1 67 -27q29 -27 30 -66t-26 -68q-81 -85 -189 -131q-107 -47 -225 -47q-236 0 -404 168q-167 167 -167 403q0 237 167 404q168 167 404 167q118 0 225 -46l5 -2q105 -46 184 -129q27 -29 26 -68q-1 -40 -30 -67q-28 -27 -67 -26q-40 1 -67 30q-52 55 -122 86
l-4 1q-71 31 -150 31q-158 0 -269 -111q-112 -112 -112 -270q0 -157 112 -269q111 -111 269 -111q79 0 150 30q72 31 126 88q27 29 67 30zM586 1318l167 196q41 39 91 39h32q47 0 59 -24q11 -24 -5 -45l-192 -236q-32 -40 -72 -40h-160q-41 0 -69 35l-195 241q-17 21 -5 45
q11 24 58 24h47q36 0 80 -41z" />
    <glyph glyph-name="Dcaron" unicode="&#x10e;" horiz-adv-x="1387" 
d="M623 1427q294 0 504 -210q210 -209 210 -504q0 -294 -210 -504q-210 -209 -504 -209h-333q-78 0 -134 55v1q-56 56 -56 134v1047q0 78 56 134t134 56h333zM290 1237v-1047h333q216 0 369 154q154 153 154 369t-154 370q-153 154 -369 154h-333zM679 1604l167 196
q41 39 91 39h32q47 0 59 -24q11 -24 -5 -45l-192 -236q-32 -40 -72 -40h-160q-41 0 -69 35l-195 241q-17 21 -5 45q11 24 58 24h47q36 0 80 -41z" />
    <glyph glyph-name="dcaron" unicode="&#x10f;" horiz-adv-x="1566" 
d="M890 302q112 112 112 269q0 158 -112 270q-111 111 -269 111t-269 -111q-112 -112 -112 -270q0 -157 112 -269q111 -111 269 -111t269 111zM1002 1333q0 39 28 67q27 28 67 28q39 0 67 -28t28 -67v-762q0 -236 -167 -403q-167 -168 -404 -168q-236 0 -404 168
q-167 167 -167 403q0 237 167 404q168 167 404 167q218 0 381 -145v336zM1526 1262l-66 -212q-7 -24 -29 -35q-22 -12 -46 -4q-24 7 -35 29q-12 22 -4 46l41 134q-18 8 -33 24q-32 31 -32 76t31.5 76.5t75.5 31.5t75.5 -31.5t31.5 -76.5q0 -22 -10 -58z" />
    <glyph glyph-name="Dcroat" unicode="&#x110;" horiz-adv-x="1533" 
d="M648 809q40 0 68 -28q28 -27 28 -67q0 -39 -28 -67t-68 -28h-211v-428h333q215 0 369 154q154 153 154 369t-154 370t-369 154h-333v-429h211zM247 619h-142q-39 0 -67 28t-28 67q0 40 28 67q28 28 67 28h142v429q0 78 55 134h1q56 56 134 56h333q294 0 504 -210
q209 -209 209 -504q0 -294 -209 -504q-210 -210 -504 -210h-333q-78 0 -134 56l-1 1q-55 56 -55 134v428zM437 190v1v0v-1zM437 190v1v-1z" />
    <glyph glyph-name="dcroat" unicode="&#x111;" horiz-adv-x="1341" 
d="M1236 1326q39 0 67 -28t28 -67t-28 -67t-67 -28h-44v-565q0 -236 -167 -403q-167 -168 -404 -168q-236 0 -404 168q-167 167 -167 403q0 237 167 404q168 167 404 167q218 0 381 -145v139h-162q-39 0 -67 28t-28 67t28 67t67 28h162v7q0 39 28 67q27 28 67 28
q39 0 67 -28t28 -67v-7h44zM890 302q112 112 112 269q0 158 -112 270q-111 111 -269 111t-269 -111q-112 -112 -112 -270q0 -157 112 -269q111 -111 269 -111t269 111z" />
    <glyph glyph-name="Emacron" unicode="&#x112;" horiz-adv-x="1141" 
d="M955 808q39 0 67 -28q28 -27 28 -67q0 -39 -28 -67t-67 -28h-665v-428h720q39 0 67 -28t28 -67q0 -40 -28 -68q-28 -27 -67 -27h-815q-39 0 -67 27q-28 28 -28 68v1237q0 39 28 67t67 28h815q39 0 67 -28t28 -67q0 -40 -28 -68q-28 -27 -67 -27h-720v-429h665zM329 1562
q-34 0 -58 24t-24 57q0 35 24 59q24 23 58 23h547q34 0 58 -23q24 -24 24 -59q0 -33 -24 -57t-58 -24h-547z" />
    <glyph glyph-name="emacron" unicode="&#x113;" horiz-adv-x="1237" 
d="M993 299q39 -4 64 -34t22 -70q-4 -39 -34 -64q-87 -63 -191 -97t-223 -34q-246 0 -414 168q-167 167 -167 403q0 237 167 404q168 167 404 167q237 0 404 -167t167 -404q0 -39 -28 -67t-67 -28h-845q26 -100 100 -174q111 -111 279 -111q88 0 159 22t133 65q31 25 70 21z
M252 667h738q-26 100 -100 174q-111 111 -269 111t-269 -111q-74 -74 -100 -174zM342 1276q-34 0 -58 24t-24 57q0 35 24 59q24 23 58 23h547q34 0 58 -23q24 -24 24 -59q0 -33 -24 -57t-58 -24h-547z" />
    <glyph glyph-name="Ebreve" unicode="&#x114;" horiz-adv-x="1141" 
d="M955 808q39 0 67 -28q28 -27 28 -67q0 -39 -28 -67t-67 -28h-665v-428h720q39 0 67 -28t28 -67q0 -40 -28 -68q-28 -27 -67 -27h-815q-39 0 -67 27q-28 28 -28 68v1237q0 39 28 67t67 28h815q39 0 67 -28t28 -67q0 -40 -28 -68q-28 -27 -67 -27h-720v-429h665zM868 1791
q31 0 50 -25q18 -26 8 -55q-37 -108 -130 -169q-86 -56 -193 -56q-108 0 -194 56q-92 61 -129 169q-10 29 8 55q18 25 50 25h20q42 0 57 -38q24 -59 77 -93q50 -31 111 -31t111 31q54 33 77 93q15 38 57 38h20z" />
    <glyph glyph-name="ebreve" unicode="&#x115;" horiz-adv-x="1237" 
d="M993 299q39 -4 64 -34t22 -70q-4 -39 -34 -64q-87 -63 -191 -97t-223 -34q-246 0 -414 168q-167 167 -167 403q0 237 167 404q168 167 404 167q237 0 404 -167t167 -404q0 -39 -28 -67t-67 -28h-845q26 -100 100 -174q111 -111 279 -111q88 0 159 22t133 65q31 25 70 21z
M252 667h738q-26 100 -100 174q-111 111 -269 111t-269 -111q-74 -74 -100 -174zM880 1505q31 0 50 -25q18 -26 8 -55q-37 -108 -130 -169q-86 -56 -193 -56q-108 0 -194 56q-92 61 -129 169q-10 29 8 55q18 25 50 25h20q42 0 57 -38q24 -59 77 -93q50 -31 111 -31t111 31
q54 33 77 93q15 38 57 38h20z" />
    <glyph glyph-name="Edotaccent" unicode="&#x116;" horiz-adv-x="1141" 
d="M955 808q39 0 67 -28q28 -27 28 -67q0 -39 -28 -67t-67 -28h-665v-428h720q39 0 67 -28t28 -67q0 -40 -28 -68q-28 -27 -67 -27h-815q-39 0 -67 27q-28 28 -28 68v1237q0 39 28 67t67 28h815q39 0 67 -28t28 -67q0 -40 -28 -68q-28 -27 -67 -27h-720v-429h665z
M667.5 1685.5q26.5 -26.5 26.5 -64.5t-26.5 -65t-64.5 -27t-64.5 27t-26.5 65t26.5 64.5t64.5 26.5t64.5 -26.5z" />
    <glyph glyph-name="edotaccent" unicode="&#x117;" horiz-adv-x="1237" 
d="M993 299q39 -4 64 -34t22 -70q-4 -39 -34 -64q-87 -63 -191 -97t-223 -34q-246 0 -414 168q-167 167 -167 403q0 237 167 404q168 167 404 167q237 0 404 -167t167 -404q0 -39 -28 -67t-67 -28h-845q26 -100 100 -174q111 -111 279 -111q88 0 159 22t133 65q31 25 70 21z
M252 667h738q-26 100 -100 174q-111 111 -269 111t-269 -111q-74 -74 -100 -174zM679.5 1399.5q26.5 -26.5 26.5 -64.5t-26.5 -65t-64.5 -27t-64.5 27t-26.5 65t26.5 64.5t64.5 26.5t64.5 -26.5z" />
    <glyph glyph-name="Eogonek" unicode="&#x118;" horiz-adv-x="1141" 
d="M809 0h-614q-39 0 -67 27q-28 28 -28 68v1237q0 39 28 67t67 28h815q39 0 67 -28t28 -67q0 -40 -28 -68q-28 -27 -67 -27h-720v-429h665q39 0 67 -28q28 -27 28 -67q0 -39 -28 -67t-67 -28h-665v-428h720q39 0 67 -28t28 -67q0 -40 -28 -68q-28 -27 -67 -27h-63
q-79 -180 -55 -223q26 -44 78 -41q32 2 68 21q4 3 9 5q24 11 41 2q17 -8 17 -33q0 -49 -56 -84q-53 -34 -122 -37q-74 -3 -122 34q-56 42 -56 124q0 92 60 232z" />
    <glyph glyph-name="eogonek" unicode="&#x119;" horiz-adv-x="1237" 
d="M242 539l722 191q-37 82 -105 138q-103 84 -238 84q-157 0 -269 -112t-112 -269q0 -16 2 -32zM856 41q-111 -41 -235 -41q-236 0 -404 168q-167 167 -167 403t167 403t404 168q203 0 358 -128q156 -128 200 -330q8 -38 -13 -71t-59 -42l-802 -212q21 -31 47 -57
q111 -111 269 -111q94 0 177 32q82 31 143 89q28 27 68 26q39 -1 66 -29q27 -29 26 -68t-29 -67q-18 -17 -36 -32q-95 -206 -68 -252q25 -43 77 -40q33 2 69 20q4 3 9 5q24 12 41 3t17 -33q-1 -49 -56 -85q-53 -34 -123 -36q-74 -3 -122 33q-55 42 -55 125q0 67 31 159z" />
    <glyph glyph-name="Ecaron" unicode="&#x11a;" horiz-adv-x="1141" 
d="M955 808q39 0 67 -28q28 -27 28 -67q0 -39 -28 -67t-67 -28h-665v-428h720q39 0 67 -28t28 -67q0 -40 -28 -68q-28 -27 -67 -27h-815q-39 0 -67 27q-28 28 -28 68v1237q0 39 28 67t67 28h815q39 0 67 -28t28 -67q0 -40 -28 -68q-28 -27 -67 -27h-720v-429h665zM603 1604
l167 196q41 39 91 39h32q47 0 59 -24q11 -24 -5 -45l-192 -236q-32 -40 -72 -40h-160q-41 0 -69 35l-195 241q-17 21 -5 45q11 24 58 24h47q36 0 80 -41z" />
    <glyph glyph-name="ecaron" unicode="&#x11b;" horiz-adv-x="1237" 
d="M993 299q39 -4 64 -34t22 -70q-4 -39 -34 -64q-87 -63 -191 -97t-223 -34q-246 0 -414 168q-167 167 -167 403q0 237 167 404q168 167 404 167q237 0 404 -167t167 -404q0 -39 -28 -67t-67 -28h-845q26 -100 100 -174q111 -111 279 -111q88 0 159 22t133 65q31 25 70 21z
M252 667h738q-26 100 -100 174q-111 111 -269 111t-269 -111q-74 -74 -100 -174zM616 1318l167 196q41 39 91 39h32q47 0 59 -24q11 -24 -5 -45l-192 -236q-32 -40 -72 -40h-160q-41 0 -69 35l-195 241q-17 21 -5 45q11 24 58 24h47q36 0 80 -41z" />
    <glyph glyph-name="Gcircumflex" unicode="&#x11c;" horiz-adv-x="1527" 
d="M764 618q-40 0 -68 28t-28 67q0 40 28 68t68 28h618q39 0 67 -28t28 -68q0 -295 -209 -504t-504 -209q-296 0 -505 209t-209 504q0 296 209 505t505 209q189 0 354 -94q164 -94 261 -259q20 -34 10 -72t-44 -58t-72 -10t-58 44q-70 120 -192 190q-120 69 -259 69
q-217 0 -370 -154q-154 -153 -154 -370q0 -216 154 -369q153 -154 370 -154q216 0 369 154q116 115 145 274h-514zM916 1779l192 -236q16 -21 5 -45q-12 -24 -59 -24h-32q-50 0 -91 39l-167 196l-164 -194q-44 -41 -80 -41h-47q-47 0 -58 24q-12 24 5 45l195 241
q58 65 149 65q91 -1 152 -70z" />
    <glyph glyph-name="gcircumflex" unicode="&#x11d;" horiz-adv-x="1312" 
d="M1045 975q167 -167 167 -404v-485q0 -236 -167 -404q-167 -167 -404 -167q-168 0 -310 92t-211 247q-16 35 -2 72t50 53t72 2q37 -14 53 -50q46 -103 141 -165q94 -61 207 -61q158 0 269 112q112 111 112 269v60q-163 -146 -381 -146q-236 0 -404 168q-167 167 -167 403
q0 237 167 404q168 167 404 167q237 0 404 -167zM641 952q-158 0 -269 -111q-112 -112 -112 -270q0 -157 112 -269q111 -111 269 -111t269 111q112 112 112 269q0 158 -112 270q-111 111 -269 111zM793 1493l192 -236q16 -21 5 -45q-12 -24 -59 -24h-32q-50 0 -91 39
l-167 196l-164 -194q-44 -41 -80 -41h-47q-47 0 -58 24q-12 24 5 45l195 241q58 65 149 65q91 -1 152 -70z" />
    <glyph glyph-name="Gbreve" unicode="&#x11e;" horiz-adv-x="1527" 
d="M764 618q-40 0 -68 28t-28 67q0 40 28 68t68 28h618q39 0 67 -28t28 -68q0 -295 -209 -504t-504 -209q-296 0 -505 209t-209 504q0 296 209 505t505 209q189 0 354 -94q164 -94 261 -259q20 -34 10 -72t-44 -58t-72 -10t-58 44q-70 120 -192 190q-120 69 -259 69
q-217 0 -370 -154q-154 -153 -154 -370q0 -216 154 -369q153 -154 370 -154q216 0 369 154q116 115 145 274h-514zM1029 1791q31 0 50 -25q18 -26 8 -55q-37 -108 -130 -169q-86 -56 -193 -56q-108 0 -194 56q-92 61 -129 169q-10 29 8 55q18 25 50 25h20q42 0 57 -38
q24 -59 77 -93q50 -31 111 -31t111 31q54 33 77 93q15 38 57 38h20z" />
    <glyph glyph-name="gbreve" unicode="&#x11f;" horiz-adv-x="1312" 
d="M1045 975q167 -167 167 -404v-485q0 -236 -167 -404q-167 -167 -404 -167q-168 0 -310 92t-211 247q-16 35 -2 72t50 53t72 2q37 -14 53 -50q46 -103 141 -165q94 -61 207 -61q158 0 269 112q112 111 112 269v60q-163 -146 -381 -146q-236 0 -404 168q-167 167 -167 403
q0 237 167 404q168 167 404 167q237 0 404 -167zM641 952q-158 0 -269 -111q-112 -112 -112 -270q0 -157 112 -269q111 -111 269 -111t269 111q112 112 112 269q0 158 -112 270q-111 111 -269 111zM906 1505q31 0 50 -25q18 -26 8 -55q-37 -108 -130 -169q-86 -56 -193 -56
q-108 0 -194 56q-92 61 -129 169q-10 29 8 55q18 25 50 25h20q42 0 57 -38q24 -59 77 -93q50 -31 111 -31t111 31q54 33 77 93q15 38 57 38h20z" />
    <glyph glyph-name="Gdotaccent" unicode="&#x120;" horiz-adv-x="1527" 
d="M764 618q-40 0 -68 28t-28 67q0 40 28 68t68 28h618q39 0 67 -28t28 -68q0 -295 -209 -504t-504 -209q-296 0 -505 209t-209 504q0 296 209 505t505 209q189 0 354 -94q164 -94 261 -259q20 -34 10 -72t-44 -58t-72 -10t-58 44q-70 120 -192 190q-120 69 -259 69
q-217 0 -370 -154q-154 -153 -154 -370q0 -216 154 -369q153 -154 370 -154q216 0 369 154q116 115 145 274h-514zM828.5 1685.5q26.5 -26.5 26.5 -64.5t-26.5 -65t-64.5 -27t-64.5 27t-26.5 65t26.5 64.5t64.5 26.5t64.5 -26.5z" />
    <glyph glyph-name="gdotaccent" unicode="&#x121;" horiz-adv-x="1312" 
d="M1045 975q167 -167 167 -404v-485q0 -236 -167 -404q-167 -167 -404 -167q-168 0 -310 92t-211 247q-16 35 -2 72t50 53t72 2q37 -14 53 -50q46 -103 141 -165q94 -61 207 -61q158 0 269 112q112 111 112 269v60q-163 -146 -381 -146q-236 0 -404 168q-167 167 -167 403
q0 237 167 404q168 167 404 167q237 0 404 -167zM641 952q-158 0 -269 -111q-112 -112 -112 -270q0 -157 112 -269q111 -111 269 -111t269 111q112 112 112 269q0 158 -112 270q-111 111 -269 111zM705.5 1399.5q26.5 -26.5 26.5 -64.5t-26.5 -65t-64.5 -27t-64.5 27
t-26.5 65t26.5 64.5t64.5 26.5t64.5 -26.5z" />
    <glyph glyph-name="uni0122" unicode="&#x122;" horiz-adv-x="1527" 
d="M764 618q-40 0 -68 28t-28 67q0 40 28 68t68 28h618q39 0 67 -28t28 -68q0 -295 -209 -504t-504 -209q-296 0 -505 209t-209 504q0 296 209 505t505 209q189 0 354 -94q164 -94 261 -259q20 -34 10 -72t-44 -58t-72 -10t-58 44q-70 120 -192 190q-120 69 -259 69
q-217 0 -370 -154q-154 -153 -154 -370q0 -216 154 -369q153 -154 370 -154q216 0 369 154q116 115 145 274h-514zM861 -234l-66 -212q-7 -24 -29 -35q-22 -12 -46 -4q-24 7 -35 29q-12 22 -4 46l41 134q-18 8 -33 24q-32 31 -32 76t31.5 76.5t75.5 31.5t75.5 -31.5
t31.5 -76.5q0 -22 -10 -58z" />
    <glyph glyph-name="uni0123" unicode="&#x123;" horiz-adv-x="1312" 
d="M1045 975q167 -167 167 -404v-485q0 -236 -167 -404q-167 -167 -404 -167q-168 0 -310 92t-211 247q-16 35 -2 72t50 53t72 2q37 -14 53 -50q46 -103 141 -165q94 -61 207 -61q158 0 269 112q112 111 112 269v60q-163 -146 -381 -146q-236 0 -404 168q-167 167 -167 403
q0 237 167 404q168 167 404 167q237 0 404 -167zM641 952q-158 0 -269 -111q-112 -112 -112 -270q0 -157 112 -269q111 -111 269 -111t269 111q112 112 112 269q0 158 -112 270q-111 111 -269 111zM544 1377l66 212q7 24 29 35q22 12 46 4q24 -7 35 -29q12 -22 4 -46
l-41 -134q18 -8 34 -24q31 -31 31 -76t-31.5 -76.5t-75.5 -31.5t-75.5 31.5t-31.5 76.5q0 21 10 58z" />
    <glyph glyph-name="Hcircumflex" unicode="&#x124;" horiz-adv-x="1400" 
d="M1300 95q0 -40 -28 -68q-27 -27 -67 -27q-39 0 -67 27q-28 28 -28 68v523h-820v-523q0 -40 -28 -68q-27 -27 -67 -27q-39 0 -67 27q-28 28 -28 68v1237q0 39 28 67t67 28q40 0 67 -28q28 -28 28 -67v-524h820v524q0 39 28 67t67 28q40 0 67 -28q28 -28 28 -67v-1237z
M852 1779l192 -236q16 -21 5 -45q-12 -24 -59 -24h-32q-50 0 -91 39l-167 196l-164 -194q-44 -41 -80 -41h-47q-47 0 -58 24q-12 24 5 45l195 241q58 65 149 65q91 -1 152 -70z" />
    <glyph glyph-name="hcircumflex" unicode="&#x125;" horiz-adv-x="1342" 
d="M290 997q163 145 381 145q237 0 404 -167t167 -404v-475q0 -40 -28 -68t-67 -28q-40 0 -67 28q-28 28 -28 68v475q0 158 -112 270q-111 111 -269 111t-269 -111q-112 -112 -112 -270v-475q0 -40 -28 -68q-27 -28 -67 -28q-39 0 -67 28t-28 68v1237q0 39 28 67t67 28
q40 0 67 -28q28 -28 28 -67v-336zM823 1703l192 -236q16 -21 5 -45q-12 -24 -59 -24h-32q-50 0 -91 39l-167 196l-164 -194q-44 -41 -80 -41h-47q-47 0 -58 24q-12 24 5 45l195 241q58 65 149 65q91 -1 152 -70z" />
    <glyph glyph-name="Hbar" unicode="&#x126;" horiz-adv-x="1557" 
d="M1329 1041v-946q0 -40 -28 -68q-28 -27 -67 -27q-40 0 -68 27q-28 28 -28 68v523h-719v-523q0 -40 -28 -68q-28 -27 -68 -27q-39 0 -67 27q-28 28 -28 68v946h-103q-48 0 -81 26q-34 26 -34 63q0 36 34 62q33 26 81 26h103v114q0 39 28 67t67 28q40 0 68 -28t28 -67v-114
h719v114q0 39 28 67t68 28q39 0 67 -28t28 -67v-114h103q48 0 81 -26q34 -26 34 -62q0 -37 -34 -63q-33 -26 -81 -26h-103zM419 1041v-233h719v233h-719z" />
    <glyph glyph-name="hbar" unicode="&#x127;" horiz-adv-x="1402" 
d="M350 1170v-223q163 145 381 145q237 0 404 -167t167 -404v-425q0 -40 -28 -68t-67 -28q-40 0 -67 28q-28 28 -28 68v425q0 158 -112 270q-111 111 -269 111t-269 -111q-112 -112 -112 -270v-425q0 -40 -28 -68q-27 -28 -67 -28q-39 0 -67 28t-28 68v1074h-79
q-29 0 -50 26t-21 63t21 63t50 26h80q5 30 27 52q28 28 67 28q40 0 67 -28q22 -22 27 -52h328q29 0 50 -26t21 -63t-21 -63t-50 -26h-327z" />
    <glyph glyph-name="Itilde" unicode="&#x128;" horiz-adv-x="490" 
d="M340 95q0 -40 -28 -68q-27 -27 -67 -27q-39 0 -67 27q-28 28 -28 68v1237q0 39 28 67t67 28q40 0 67 -28q28 -28 28 -67v-1237zM-71 1683q64 54 162 54q83 0 199 -54q53 -25 109 -23q69 1 83 51q9 36 48 36h58q23 0 37 -17q15 -16 12 -38q-15 -90 -69 -141
q-60 -56 -159 -56q-83 0 -195 58q-58 30 -116 30q-74 -1 -88 -58q-8 -37 -48 -37h-60q-23 0 -38 16q-15 17 -11 38q14 88 76 141z" />
    <glyph glyph-name="itilde" unicode="&#x129;" horiz-adv-x="491" 
d="M340 96q0 -40 -28 -68q-27 -28 -67 -28q-39 0 -67 28t-28 68v951q0 40 28 68q28 27 67 27q40 0 67 -27q28 -28 28 -68v-951zM-71 1397q64 54 162 54q83 0 199 -54q53 -25 109 -23q69 1 83 51q9 36 48 36h58q23 0 37 -17q15 -16 12 -38q-15 -90 -69 -141q-60 -56 -159 -56
q-83 0 -195 58q-58 30 -116 30q-74 -1 -88 -58q-8 -37 -48 -37h-60q-23 0 -38 16q-15 17 -11 38q14 88 76 141z" />
    <glyph glyph-name="Imacron" unicode="&#x12a;" horiz-adv-x="490" 
d="M340 95q0 -40 -28 -68q-27 -27 -67 -27q-39 0 -67 27q-28 28 -28 68v1237q0 39 28 67t67 28q40 0 67 -28q28 -28 28 -67v-1237zM-28 1562q-34 0 -58 24t-24 57q0 35 24 59q24 23 58 23h547q34 0 58 -23q24 -24 24 -59q0 -33 -24 -57t-58 -24h-547z" />
    <glyph glyph-name="imacron" unicode="&#x12b;" horiz-adv-x="491" 
d="M340 96q0 -40 -28 -68q-27 -28 -67 -28q-39 0 -67 28t-28 68v951q0 40 28 68q28 27 67 27q40 0 67 -27q28 -28 28 -68v-951zM-28 1276q-34 0 -58 24t-24 57q0 35 24 59q24 23 58 23h547q34 0 58 -23q24 -24 24 -59q0 -33 -24 -57t-58 -24h-547z" />
    <glyph glyph-name="Ibreve" unicode="&#x12c;" horiz-adv-x="490" 
d="M340 95q0 -40 -28 -68q-27 -27 -67 -27q-39 0 -67 27q-28 28 -28 68v1237q0 39 28 67t67 28q40 0 67 -28q28 -28 28 -67v-1237zM510 1791q31 0 50 -25q18 -26 8 -55q-37 -108 -130 -169q-86 -56 -193 -56q-108 0 -194 56q-92 61 -129 169q-10 29 8 55q18 25 50 25h20
q42 0 57 -38q24 -59 77 -93q50 -31 111 -31t111 31q54 33 77 93q15 38 57 38h20z" />
    <glyph glyph-name="ibreve" unicode="&#x12d;" horiz-adv-x="491" 
d="M340 96q0 -40 -28 -68q-27 -28 -67 -28q-39 0 -67 28t-28 68v951q0 40 28 68q28 27 67 27q40 0 67 -27q28 -28 28 -68v-951zM510 1505q31 0 50 -25q18 -26 8 -55q-37 -108 -130 -169q-86 -56 -193 -56q-108 0 -194 56q-92 61 -129 169q-10 29 8 55q18 25 50 25h20
q42 0 57 -38q24 -59 77 -93q50 -31 111 -31t111 31q54 33 77 93q15 38 57 38h20z" />
    <glyph glyph-name="Iogonek" unicode="&#x12e;" horiz-adv-x="490" 
d="M172 40q-17 24 -17 55v1237q0 39 28 67t67 28q40 0 67 -28q28 -28 28 -67v-1237q0 -40 -28 -68q-8 -8 -17 -13q-86 -192 -61 -237q25 -44 78 -41q32 2 68 21q4 3 9 5q24 11 41 2q17 -8 17 -33q-1 -49 -56 -84q-53 -34 -123 -37q-74 -3 -122 34q-55 42 -55 124
q0 104 76 272z" />
    <glyph glyph-name="iogonek" unicode="&#x12f;" horiz-adv-x="491" 
d="M336 1332q0 -40 -28 -68t-67 -28q-40 0 -67.5 28t-27.5 68t27.5 68t67.5 28q39 0 67 -28t28 -68zM162 41q-17 24 -17 55v951q0 40 28 68q28 27 67 27q40 0 67 -27q28 -28 28 -68v-951q0 -40 -28 -68q-8 -9 -18 -15q-86 -191 -61 -236q25 -44 78 -41q32 2 68 21q4 3 9 5
q24 11 41 2q17 -8 17 -33q-1 -49 -56 -84q-53 -34 -123 -37q-74 -3 -122 34q-55 42 -55 124q0 105 77 273z" />
    <glyph glyph-name="Idotaccent" unicode="&#x130;" horiz-adv-x="490" 
d="M340 95q0 -40 -28 -68q-27 -27 -67 -27q-39 0 -67 27q-28 28 -28 68v1237q0 39 28 67t67 28q40 0 67 -28q28 -28 28 -67v-1237zM309.5 1685.5q26.5 -26.5 26.5 -64.5t-26.5 -65t-64.5 -27t-64.5 27t-26.5 65t26.5 64.5t64.5 26.5t64.5 -26.5z" />
    <glyph glyph-name="IJ" unicode="&#x132;" horiz-adv-x="1519" 
d="M340 95q0 -40 -28 -68q-27 -27 -67 -27q-39 0 -67 27q-28 28 -28 68v1237q0 39 28 67t67 28q40 0 67 -28q28 -28 28 -67v-1237zM435 546q28 28 67 28q40 0 67 -28q28 -28 28 -67q0 -119 85 -204t204 -85q118 0 203 85t85 204v869q0 40 28 67q28 28 67 28t67 -28
q28 -27 28 -67v-869q0 -198 -140 -339q-141 -140 -338 -140q-198 0 -339 140q-140 141 -140 339q0 39 28 67z" />
    <glyph glyph-name="ij" unicode="&#x133;" horiz-adv-x="982" 
d="M340 96q0 -40 -28 -68q-27 -28 -67 -28q-39 0 -67 28t-28 68v951q0 40 28 68q28 27 67 27q40 0 67 -27q28 -28 28 -68v-951zM313 1400q28 -28 28 -68t-28 -68t-67 -28q-40 0 -67.5 28t-27.5 68t27.5 68t67.5 28q39 0 67 -28zM804 1400q28 -28 28 -68t-28 -68t-67 -28
q-40 0 -67.5 28t-27.5 68t27.5 68t67.5 28q39 0 67 -28zM831 -105q0 -157 -112 -269t-269 -112h-7q-39 0 -67 28t-28 68q0 39 28 67t67 28h7q79 0 135 56q55 56 55 134v1152q0 39 28 67t68 28q39 0 67 -28t28 -67v-1152z" />
    <glyph glyph-name="Jcircumflex" unicode="&#x134;" horiz-adv-x="1117" 
d="M38 546q28 28 67 28q40 0 67 -28q28 -28 28 -67q0 -119 85 -204t204 -85q118 0 203 85t85 204v869q0 40 28 67q28 28 67 28t67 -28q28 -27 28 -67v-869q0 -198 -140 -339q-141 -140 -338 -140q-198 0 -339 140q-140 141 -140 339q0 39 28 67zM1013 1779l192 -236
q16 -21 5 -45q-12 -24 -59 -24h-32q-50 0 -91 39l-167 196l-164 -194q-44 -41 -80 -41h-47q-47 0 -58 24q-12 24 5 45l195 241q58 65 149 65q91 -1 152 -70z" />
    <glyph glyph-name="jcircumflex" unicode="&#x135;" horiz-adv-x="501" 
d="M353 -105q0 -157 -112 -269t-269 -112h-7q-39 0 -67 28t-28 68q0 39 28 67t67 28h7q79 0 135 56q55 56 55 134v1152q0 39 28 67t68 28q39 0 67 -28t28 -67v-1152zM95 1229q-44 -41 -80 -41h-47q-46 0 -58 24t5 45l195 241q28 35 69 35h160q41 0 72 -40l192 -236
q16 -21 5 -45q-12 -24 -59 -24h-32q-50 0 -91 39l-167 196z" />
    <glyph glyph-name="uni0136" unicode="&#x136;" horiz-adv-x="1263" 
d="M1185 28q-28 -28 -67 -28q-40 0 -67 28q-28 28 -28 67q0 217 -153 370q-154 153 -370 153h-210v-523q0 -39 -28 -67q-27 -28 -67 -28q-39 0 -67 28t-28 67v1237q0 39 28 67t67 28q40 0 67 -28q28 -28 28 -67v-523h210q216 0 370 153q153 153 153 370q0 39 28 67
q27 28 67 28q39 0 67 -28t28 -67q0 -296 -209 -505q-67 -66 -148 -114q81 -47 148 -113q209 -209 209 -505q0 -39 -28 -67zM754 -234l-66 -212q-7 -24 -29 -35q-22 -12 -46 -4q-24 7 -35 29q-12 22 -4 46l41 134q-18 8 -33 24q-32 31 -32 76t31.5 76.5t75.5 31.5t75.5 -31.5
t31.5 -76.5q0 -22 -10 -58z" />
    <glyph glyph-name="uni0137" unicode="&#x137;" horiz-adv-x="1192" 
d="M1114 28q-28 -28 -67 -28q-40 0 -68 28t-28 67q0 158 -111 269q-112 112 -269 112h-281v-381q0 -39 -28 -67q-27 -28 -67 -28q-39 0 -67 28t-28 67v1237q0 39 28 67t67 28q40 0 67 -28q28 -28 28 -67v-666h281q157 0 269 111q111 112 111 270q0 39 28 67t68 28
q39 0 67 -28t28 -67q0 -237 -168 -404q-40 -41 -88 -72q48 -32 88 -72q168 -167 168 -404q0 -39 -28 -67zM718 -234l-66 -212q-7 -24 -29 -35q-22 -12 -46 -4q-24 7 -35 29q-12 22 -4 46l41 134q-18 8 -33 24q-32 31 -32 76t31.5 76.5t75.5 31.5t75.5 -31.5t31.5 -76.5
q0 -22 -10 -58z" />
    <glyph glyph-name="kgreenlandic" unicode="&#x138;" horiz-adv-x="917" 
d="M890 96q0 -40 -28 -68t-67 -28q-40 0 -68 28l-437 437v-369q0 -40 -28 -68q-27 -28 -67 -28q-39 0 -67 28t-28 68v951q0 39 28 67t67 28q40 0 67 -28q28 -28 28 -67v-370l437 438q28 27 68 27q39 0 67 -27q28 -28 28 -68q0 -39 -28 -67l-409 -409l409 -408q28 -28 28 -67
z" />
    <glyph glyph-name="Lacute" unicode="&#x139;" horiz-adv-x="1057" 
d="M100 1332q0 39 28 67t67 28q40 0 67 -28q28 -28 28 -67v-1143h663q39 0 67 -27q28 -28 28 -67q0 -40 -28 -67q-28 -28 -67 -28h-749h-9q-39 0 -67 27q-28 28 -28 68v1237zM474 1499q-18 -17 -55 -17h-45q-47 0 -59 24q-11 24 19 63l163 190q26 34 67 34h98q47 0 59 -24
q13 -27 -13 -54z" />
    <glyph glyph-name="lacute" unicode="&#x13a;" horiz-adv-x="490" 
d="M340 96q0 -40 -28 -68q-27 -28 -67 -28q-39 0 -67 28t-28 68v1237q0 39 28 67t67 28q40 0 67 -28q28 -28 28 -67v-1237zM201 1449q-18 -17 -55 -17h-45q-47 0 -59 24q-11 24 19 63l163 190q26 34 67 34h98q47 0 59 -24q13 -27 -13 -54z" />
    <glyph glyph-name="uni013B" unicode="&#x13b;" horiz-adv-x="1057" 
d="M100 1332q0 39 28 67t67 28q40 0 67 -28q28 -28 28 -67v-1143h663q39 0 67 -27q28 -28 28 -67q0 -40 -28 -67q-28 -28 -67 -28h-749h-9q-39 0 -67 27q-28 28 -28 68v1237zM671 -234l-66 -212q-7 -24 -29 -35q-22 -12 -46 -4q-24 7 -35 29q-12 22 -4 46l41 134
q-18 8 -33 24q-32 31 -32 76t31.5 76.5t75.5 31.5t75.5 -31.5t31.5 -76.5q0 -22 -10 -58z" />
    <glyph glyph-name="uni013C" unicode="&#x13c;" horiz-adv-x="490" 
d="M340 96q0 -40 -28 -68q-27 -28 -67 -28q-39 0 -67 28t-28 68v1237q0 39 28 67t67 28q40 0 67 -28q28 -28 28 -67v-1237zM342 -234l-66 -212q-7 -24 -29 -35q-22 -12 -46 -4q-24 7 -35 29q-12 22 -4 46l41 134q-18 8 -33 24q-32 31 -32 76t31.5 76.5t75.5 31.5t75.5 -31.5
t31.5 -76.5q0 -22 -10 -58z" />
    <glyph glyph-name="Lcaron" unicode="&#x13d;" horiz-adv-x="1057" 
d="M100 1332q0 39 28 67t67 28q40 0 67 -28q28 -28 28 -67v-1143h663q39 0 67 -27q28 -28 28 -67q0 -40 -28 -67q-28 -28 -67 -28h-749h-9q-39 0 -67 27q-28 28 -28 68v1237zM998 1262l-66 -212q-7 -24 -29 -35q-22 -12 -46 -4q-24 7 -35 29q-12 22 -4 46l41 134
q-18 8 -33 24q-32 31 -32 76t31.5 76.5t75.5 31.5t75.5 -31.5t31.5 -76.5q0 -22 -10 -58z" />
    <glyph glyph-name="lcaron" unicode="&#x13e;" horiz-adv-x="764" 
d="M340 96q0 -40 -28 -68q-27 -28 -67 -28q-39 0 -67 28t-28 68v1237q0 39 28 67t67 28q40 0 67 -28q28 -28 28 -67v-1237zM724 1262l-66 -212q-7 -24 -29 -35q-22 -12 -46 -4q-24 7 -35 29q-12 22 -4 46l41 134q-18 8 -33 24q-32 31 -32 76t31.5 76.5t75.5 31.5t75.5 -31.5
t31.5 -76.5q0 -22 -10 -58z" />
    <glyph glyph-name="Ldot" unicode="&#x13f;" horiz-adv-x="1057" 
d="M100 1332q0 39 28 67t67 28q40 0 67 -28q28 -28 28 -67v-1143h663q39 0 67 -27q28 -28 28 -67q0 -40 -28 -67q-28 -28 -67 -28h-749h-9q-39 0 -67 27q-28 28 -28 68v1237zM851.5 862q26.5 -27 26.5 -65t-26.5 -65t-64.5 -27t-64.5 27t-26.5 65t26.5 65t64.5 27t64.5 -27z
" />
    <glyph glyph-name="ldot" unicode="&#x140;" horiz-adv-x="663" 
d="M340 96q0 -40 -28 -68q-27 -28 -67 -28q-39 0 -67 28t-28 68v1237q0 39 28 67t67 28q40 0 67 -28q28 -28 28 -67v-1237zM619.5 779q26.5 -27 26.5 -65t-26.5 -65t-64.5 -27t-64.5 27t-26.5 65t26.5 65t64.5 27t64.5 -27z" />
    <glyph glyph-name="Lslash" unicode="&#x141;" horiz-adv-x="1114" 
d="M157 685v647q0 39 28 67t67 28q40 0 67 -28q28 -28 28 -67v-553l205 100q31 15 63 4t47 -42q15 -30 4 -62t-42 -47l-277 -136v-407h663q39 0 67 -27q28 -28 28 -67q0 -40 -28 -67q-28 -28 -67 -28h-758q-39 0 -67 27q-28 28 -28 68v408l-27 -13q-30 -15 -63 -4
q-32 11 -47 41q-15 31 -4 63t42 47z" />
    <glyph glyph-name="lslash" unicode="&#x142;" horiz-adv-x="692" 
d="M441 660v-564q0 -40 -28 -68q-27 -28 -67 -28q-39 0 -67 28t-28 68v471l-116 -57q-30 -15 -63 -4q-32 11 -47 41q-15 31 -4 63t42 47l188 92v584q0 39 28 67t67 28q40 0 67 -28q28 -28 28 -67v-491l116 57q31 15 63 4t47 -42q15 -30 4 -62t-42 -47z" />
    <glyph glyph-name="Nacute" unicode="&#x143;" horiz-adv-x="1468" 
d="M290 95q0 -40 -28 -68q-27 -27 -67 -27q-39 0 -67 27q-28 28 -28 68v1086q0 106 84 179q3 3 7 6q75 61 177 61q86 0 155 -46q71 -47 103 -127l387 -1000q15 -36 36 -51q19 -13 51 -13q38 0 63 20q15 11 15 43v1079q0 39 28 67q27 28 67 28q39 0 67 -28t28 -67v-1099
q0 -103 -87 -172q-77 -61 -181 -61q-93 0 -162 49h1q-65 47 -101 132q-61 152 -193 502q-122 326 -195 501q-10 24 -32 39q-20 14 -50 14q-34 0 -56 -17l-3 -3q-19 -16 -19 -46v-1076zM758 1499q-18 -17 -55 -17h-45q-47 0 -59 24q-11 24 19 63l163 190q26 34 67 34h98
q47 0 59 -24q13 -27 -13 -54z" />
    <glyph glyph-name="nacute" unicode="&#x144;" horiz-adv-x="1342" 
d="M1242 96q0 -40 -28 -68t-67 -28q-40 0 -67 28q-28 28 -28 68v475q0 158 -112 270q-111 111 -269 111t-269 -111q-112 -112 -112 -270v-475q0 -40 -28 -68q-27 -28 -67 -28q-39 0 -67 28t-28 68v475q0 237 167 404q168 167 404 167q237 0 404 -167t167 -404v-475z
M695 1213q-18 -17 -55 -17h-45q-47 0 -59 24q-11 24 19 63l163 190q26 34 67 34h98q47 0 59 -24q13 -27 -13 -54z" />
    <glyph glyph-name="uni0145" unicode="&#x145;" horiz-adv-x="1468" 
d="M290 95q0 -40 -28 -68q-27 -27 -67 -27q-39 0 -67 27q-28 28 -28 68v1086q0 106 84 179q3 3 7 6q75 61 177 61q86 0 155 -46q71 -47 103 -127l387 -1000q15 -36 36 -51q19 -13 51 -13q38 0 63 20q15 11 15 43v1079q0 39 28 67q27 28 67 28q39 0 67 -28t28 -67v-1099
q0 -103 -87 -172q-77 -61 -181 -61q-93 0 -162 49h1q-65 47 -101 132q-61 152 -193 502q-122 326 -195 501q-10 24 -32 39q-20 14 -50 14q-34 0 -56 -17l-3 -3q-19 -16 -19 -46v-1076zM831 -234l-66 -212q-7 -24 -29 -35q-22 -12 -46 -4q-24 7 -35 29q-12 22 -4 46l41 134
q-18 8 -33 24q-32 31 -32 76t31.5 76.5t75.5 31.5t75.5 -31.5t31.5 -76.5q0 -22 -10 -58z" />
    <glyph glyph-name="uni0146" unicode="&#x146;" horiz-adv-x="1342" 
d="M1242 96q0 -40 -28 -68t-67 -28q-40 0 -67 28q-28 28 -28 68v475q0 158 -112 270q-111 111 -269 111t-269 -111q-112 -112 -112 -270v-475q0 -40 -28 -68q-27 -28 -67 -28q-39 0 -67 28t-28 68v475q0 237 167 404q168 167 404 167q237 0 404 -167t167 -404v-475z
M768 -234l-66 -212q-7 -24 -29 -35q-22 -12 -46 -4q-24 7 -35 29q-12 22 -4 46l41 134q-18 8 -33 24q-32 31 -32 76t31.5 76.5t75.5 31.5t75.5 -31.5t31.5 -76.5q0 -22 -10 -58z" />
    <glyph glyph-name="Ncaron" unicode="&#x147;" horiz-adv-x="1468" 
d="M290 95q0 -40 -28 -68q-27 -27 -67 -27q-39 0 -67 27q-28 28 -28 68v1086q0 106 84 179q3 3 7 6q75 61 177 61q86 0 155 -46q71 -47 103 -127l387 -1000q15 -36 36 -51q19 -13 51 -13q38 0 63 20q15 11 15 43v1079q0 39 28 67q27 28 67 28q39 0 67 -28t28 -67v-1099
q0 -103 -87 -172q-77 -61 -181 -61q-93 0 -162 49h1q-65 47 -101 132q-61 152 -193 502q-122 326 -195 501q-10 24 -32 39q-20 14 -50 14q-34 0 -56 -17l-3 -3q-19 -16 -19 -46v-1076zM734 1604l167 196q41 39 91 39h32q47 0 59 -24q11 -24 -5 -45l-192 -236
q-32 -40 -72 -40h-160q-41 0 -69 35l-195 241q-17 21 -5 45q11 24 58 24h47q36 0 80 -41z" />
    <glyph glyph-name="ncaron" unicode="&#x148;" horiz-adv-x="1342" 
d="M1242 96q0 -40 -28 -68t-67 -28q-40 0 -67 28q-28 28 -28 68v475q0 158 -112 270q-111 111 -269 111t-269 -111q-112 -112 -112 -270v-475q0 -40 -28 -68q-27 -28 -67 -28q-39 0 -67 28t-28 68v475q0 237 167 404q168 167 404 167q237 0 404 -167t167 -404v-475z
M671 1318l167 196q41 39 91 39h32q47 0 59 -24q11 -24 -5 -45l-192 -236q-32 -40 -72 -40h-160q-41 0 -69 35l-195 241q-17 21 -5 45q11 24 58 24h47q36 0 80 -41z" />
    <glyph glyph-name="napostrophe" unicode="&#x149;" horiz-adv-x="1379" 
d="M234 1262l-66 -212q-7 -24 -29 -35q-22 -12 -46 -4q-24 7 -35 29q-12 22 -4 46l41 134q-18 8 -33 24q-32 31 -32 76t31.5 76.5t75.5 31.5t75.5 -31.5t31.5 -76.5q0 -22 -10 -58zM1279 96q0 -40 -28 -68t-67 -28q-40 0 -67 28q-28 28 -28 68v475q0 158 -112 270
q-111 111 -269 111t-269 -111q-112 -112 -112 -270v-475q0 -40 -28 -68q-27 -28 -67 -28q-39 0 -67 28t-28 68v475q0 237 167 404q168 167 404 167q237 0 404 -167t167 -404v-475z" />
    <glyph glyph-name="Eng" unicode="&#x14a;" horiz-adv-x="1523" 
d="M100 1332q0 39 28 67t67 28t67 -28t28 -67v-81q177 176 477 176q309 0 487 -187q179 -188 179 -507v-105q0 -318 -132 -482q-195 -245 -625 -124q-38 10 -57 45q-19 34 -8 72q10 37 44 57q35 19 72 8q310 -87 427 59q89 112 89 365v105q0 244 -126 377q-122 127 -350 127
q-229 0 -351 -127q-126 -133 -126 -377v-637q0 -39 -28 -67t-67 -28t-67 28t-28 67v1236z" />
    <glyph glyph-name="eng" unicode="&#x14b;" horiz-adv-x="1184" 
d="M99 1047q0 40 28 67q28 28 67 28q35 0 62 -23q27 -24 32 -58q119 81 303 81q238 0 366 -134q127 -133 127 -377v-471q0 -207 -78 -326q-120 -185 -384 -146q-39 6 -63 37q-23 32 -17 71q5 38 37 62q31 23 70 18q145 -22 198 61q47 71 47 223v471q0 169 -74 246
q-72 75 -229 75t-228 -75q-73 -76 -74 -241v-537q0 -39 -28 -67t-67 -28t-67 28t-28 67v948z" />
    <glyph glyph-name="Omacron" unicode="&#x14c;" horiz-adv-x="1527" 
d="M1268 1218q209 -209 209 -505q0 -295 -209 -504t-504 -209q-296 0 -505 209t-209 504q0 296 209 505t505 209q295 0 504 -209zM764 1237q-217 0 -370 -154q-154 -153 -154 -370t154 -370q153 -153 370 -153q216 0 370 153q153 153 153 370t-153 370q-154 154 -370 154z
M490 1562q-34 0 -58 24t-24 57q0 35 24 59q24 23 58 23h547q34 0 58 -23q24 -24 24 -59q0 -33 -24 -57t-58 -24h-547z" />
    <glyph glyph-name="omacron" unicode="&#x14d;" horiz-adv-x="1242" 
d="M352 841q-112 -112 -112 -270q0 -157 112 -269q111 -111 269 -111t269 111q112 112 112 269q0 158 -112 270q-111 111 -269 111t-269 -111zM621 1142q237 0 404 -167t167 -404q0 -236 -167 -403q-167 -168 -404 -168q-236 0 -404 168q-167 167 -167 403q0 237 167 404
q168 167 404 167zM348 1276q-34 0 -58 24t-24 57q0 35 24 59q24 23 58 23h547q34 0 58 -23q24 -24 24 -59q0 -33 -24 -57t-58 -24h-547z" />
    <glyph glyph-name="Obreve" unicode="&#x14e;" horiz-adv-x="1527" 
d="M1268 1218q209 -209 209 -505q0 -295 -209 -504t-504 -209q-296 0 -505 209t-209 504q0 296 209 505t505 209q295 0 504 -209zM764 1237q-217 0 -370 -154q-154 -153 -154 -370t154 -370q153 -153 370 -153q216 0 370 153q153 153 153 370t-153 370q-154 154 -370 154z
M1029 1791q31 0 50 -25q18 -26 8 -55q-37 -108 -130 -169q-86 -56 -193 -56q-108 0 -194 56q-92 61 -129 169q-10 29 8 55q18 25 50 25h20q42 0 57 -38q24 -59 77 -93q50 -31 111 -31t111 31q54 33 77 93q15 38 57 38h20z" />
    <glyph glyph-name="obreve" unicode="&#x14f;" horiz-adv-x="1242" 
d="M352 841q-112 -112 -112 -270q0 -157 112 -269q111 -111 269 -111t269 111q112 112 112 269q0 158 -112 270q-111 111 -269 111t-269 -111zM621 1142q237 0 404 -167t167 -404q0 -236 -167 -403q-167 -168 -404 -168q-236 0 -404 168q-167 167 -167 403q0 237 167 404
q168 167 404 167zM886 1505q31 0 50 -25q18 -26 8 -55q-37 -108 -130 -169q-86 -56 -193 -56q-108 0 -194 56q-92 61 -129 169q-10 29 8 55q18 25 50 25h20q42 0 57 -38q24 -59 77 -93q50 -31 111 -31t111 31q54 33 77 93q15 38 57 38h20z" />
    <glyph glyph-name="Ohungarumlaut" unicode="&#x150;" horiz-adv-x="1527" 
d="M1268 1218q209 -209 209 -505q0 -295 -209 -504t-504 -209q-296 0 -505 209t-209 504q0 296 209 505t505 209q295 0 504 -209zM764 1237q-217 0 -370 -154q-154 -153 -154 -370t154 -370q153 -153 370 -153q216 0 370 153q153 153 153 370t-153 370q-154 154 -370 154z
M491 1499q-18 -17 -55 -17h-45q-47 0 -59 24q-11 24 19 63l163 190q26 34 67 34h98q47 0 59 -24q13 -27 -13 -54zM947 1499q-18 -17 -55 -17h-45q-47 0 -59 24q-11 24 19 63l163 190q26 34 67 34h98q47 0 59 -24q13 -27 -13 -54z" />
    <glyph glyph-name="ohungarumlaut" unicode="&#x151;" horiz-adv-x="1242" 
d="M352 841q-112 -112 -112 -270q0 -157 112 -269q111 -111 269 -111t269 111q112 112 112 269q0 158 -112 270q-111 111 -269 111t-269 -111zM621 1142q237 0 404 -167t167 -404q0 -236 -167 -403q-167 -168 -404 -168q-236 0 -404 168q-167 167 -167 403q0 237 167 404
q168 167 404 167zM348 1213q-18 -17 -55 -17h-45q-47 0 -59 24q-11 24 19 63l163 190q26 34 67 34h98q47 0 59 -24q13 -27 -13 -54zM804 1213q-18 -17 -55 -17h-45q-47 0 -59 24q-11 24 19 63l163 190q26 34 67 34h98q47 0 59 -24q13 -27 -13 -54z" />
    <glyph glyph-name="OE" unicode="&#x152;" horiz-adv-x="2326" 
d="M1284 773q-18 178 -150 310q-154 154 -370 154q-217 0 -370 -154q-154 -153 -154 -370t154 -370q153 -153 370 -153q216 0 370 153q132 132 150 310v120zM1284 225l-16 -16q-209 -209 -504 -209q-296 0 -505 209t-209 504q0 296 209 505t505 209q295 0 504 -209l16 -16
v129q0 40 28 68t67 28h815q39 0 67 -28t28 -68q0 -39 -28 -67t-67 -28h-720v-428h665q39 0 67 -28t28 -67q0 -40 -28 -67q-28 -28 -67 -28h-665v-428h720q39 0 67 -28t28 -68q0 -39 -28 -67t-67 -28h-815q-39 0 -67 28t-28 67v131z" />
    <glyph glyph-name="oe" unicode="&#x153;" horiz-adv-x="2165" 
d="M352 841q-112 -112 -112 -270q0 -157 112 -269q111 -111 269 -111t269 111q112 112 112 269q0 158 -112 270q-111 111 -269 111t-269 -111zM1198 539l722 191q-37 82 -105 138q-103 84 -238 84q-157 0 -269 -112t-112 -269q0 -16 2 -32zM1099 257q-32 -47 -74 -89
q-167 -168 -404 -168q-236 0 -404 168q-167 167 -167 403q0 237 167 404q168 167 404 167q237 0 404 -167q43 -43 74 -90q32 47 74 89q167 167 404 168q203 0 358 -128q156 -128 199 -330q8 -38 -13 -71q-20 -33 -58 -42l-802 -212q20 -31 47 -57q111 -111 269 -111
q94 0 177 32q81 31 143 89q28 27 68 26q39 -1 66 -29q27 -29 26 -68t-29 -67q-90 -85 -206 -129q-116 -45 -245 -45q-237 0 -404 168q-42 42 -74 89z" />
    <glyph glyph-name="Racute" unicode="&#x154;" horiz-adv-x="1293" 
d="M1152 121q11 -38 -9 -72q-19 -35 -57 -45q-38 -11 -72 8l-633 307q-35 19 -45 57q-11 38 8 73q27 48 83 48h234q153 0 261 109q109 108 109 261q0 154 -109 262q-108 109 -261 109q-154 0 -262 -109q-109 -108 -109 -262v-772q0 -39 -28 -67q-27 -28 -67 -28
q-39 0 -67 28t-28 67v772q0 233 164 397t397 164q232 0 396 -164t164 -397q0 -232 -164 -396q-120 -120 -273 -140l323 -153q34 -19 45 -57zM696 1499q-18 -17 -55 -17h-45q-47 0 -59 24q-11 24 19 63l163 190q26 34 67 34h98q47 0 59 -24q13 -27 -13 -54z" />
    <glyph glyph-name="racute" unicode="&#x155;" horiz-adv-x="1152" 
d="M1086 569q-28 -28 -67 -28q-40 0 -68 28q-27 28 -27 67q0 131 -93 223q-92 93 -223 93t-223 -93q-93 -92 -93 -223v-541q0 -39 -27 -67q-28 -28 -68 -28q-39 0 -67 28t-28 67v541q0 210 148 358t358 148t358 -148t148 -358q0 -39 -28 -67zM632 1213q-18 -17 -55 -17h-45
q-47 0 -59 24q-11 24 19 63l163 190q26 34 67 34h98q47 0 59 -24q13 -27 -13 -54z" />
    <glyph glyph-name="uni0156" unicode="&#x156;" horiz-adv-x="1293" 
d="M1152 121q11 -38 -9 -72q-19 -35 -57 -45q-38 -11 -72 8l-633 307q-35 19 -45 57q-11 38 8 73q27 48 83 48h234q153 0 261 109q109 108 109 261q0 154 -109 262q-108 109 -261 109q-154 0 -262 -109q-109 -108 -109 -262v-772q0 -39 -28 -67q-27 -28 -67 -28
q-39 0 -67 28t-28 67v772q0 233 164 397t397 164q232 0 396 -164t164 -397q0 -232 -164 -396q-120 -120 -273 -140l323 -153q34 -19 45 -57zM769 -234l-66 -212q-7 -24 -29 -35q-22 -12 -46 -4q-24 7 -35 29q-12 22 -4 46l41 134q-18 8 -33 24q-32 31 -32 76t31.5 76.5
t75.5 31.5t75.5 -31.5t31.5 -76.5q0 -22 -10 -58z" />
    <glyph glyph-name="uni0157" unicode="&#x157;" horiz-adv-x="1152" 
d="M1086 569q-28 -28 -67 -28q-40 0 -68 28q-27 28 -27 67q0 131 -93 223q-92 93 -223 93t-223 -93q-93 -92 -93 -223v-541q0 -39 -27 -67q-28 -28 -68 -28q-39 0 -67 28t-28 67v541q0 210 148 358t358 148t358 -148t148 -358q0 -39 -28 -67zM332 -234l-66 -212
q-7 -24 -29 -35q-22 -12 -46 -4q-24 7 -35 29q-12 22 -4 46l41 134q-18 8 -33 24q-32 31 -32 76t31.5 76.5t75.5 31.5t75.5 -31.5t31.5 -76.5q0 -22 -10 -58z" />
    <glyph glyph-name="Rcaron" unicode="&#x158;" horiz-adv-x="1293" 
d="M1152 121q11 -38 -9 -72q-19 -35 -57 -45q-38 -11 -72 8l-633 307q-35 19 -45 57q-11 38 8 73q27 48 83 48h234q153 0 261 109q109 108 109 261q0 154 -109 262q-108 109 -261 109q-154 0 -262 -109q-109 -108 -109 -262v-772q0 -39 -28 -67q-27 -28 -67 -28
q-39 0 -67 28t-28 67v772q0 233 164 397t397 164q232 0 396 -164t164 -397q0 -232 -164 -396q-120 -120 -273 -140l323 -153q34 -19 45 -57zM672 1604l167 196q41 39 91 39h32q47 0 59 -24q11 -24 -5 -45l-192 -236q-32 -40 -72 -40h-160q-41 0 -69 35l-195 241
q-17 21 -5 45q11 24 58 24h47q36 0 80 -41z" />
    <glyph glyph-name="rcaron" unicode="&#x159;" horiz-adv-x="1152" 
d="M1086 569q-28 -28 -67 -28q-40 0 -68 28q-27 28 -27 67q0 131 -93 223q-92 93 -223 93t-223 -93q-93 -92 -93 -223v-541q0 -39 -27 -67q-28 -28 -68 -28q-39 0 -67 28t-28 67v541q0 210 148 358t358 148t358 -148t148 -358q0 -39 -28 -67zM608 1318l167 196q41 39 91 39
h32q47 0 59 -24q11 -24 -5 -45l-192 -236q-32 -40 -72 -40h-160q-41 0 -69 35l-195 241q-17 21 -5 45q11 24 58 24h47q36 0 80 -41z" />
    <glyph glyph-name="Sacute" unicode="&#x15a;" horiz-adv-x="1233" 
d="M1113 1185q-2 -38 -31 -64q-28 -26 -67 -24q-38 2 -64 30q-45 49 -127 79q-90 33 -202 34q-163 0 -272 -67q-102 -62 -102 -163v-1v0q0 -119 119 -164q71 -26 261 -39q278 -18 382 -69q173 -85 173 -319q0 -191 -172 -308q-160 -109 -399 -110q-188 -1 -335 70
q-156 75 -212 209q-15 36 0 71q15 36 50 51q36 15 72 0q35 -15 50 -51q29 -68 121 -112q108 -52 254 -52q182 1 295 78q89 61 89 154q0 118 -118 162q-72 27 -261 40q-278 18 -383 69q-173 85 -173 320v2q2 205 192 321q154 95 369 95q146 -1 266 -45q125 -46 201 -130
q26 -28 24 -67zM644 1499q-18 -17 -55 -17h-45q-47 0 -59 24q-11 24 19 63l163 190q26 34 67 34h98q47 0 59 -24q13 -27 -13 -54z" />
    <glyph glyph-name="sacute" unicode="&#x15b;" horiz-adv-x="1123" 
d="M1048 910q0 -37 -26 -65q-26 -27 -63 -28q-38 -1 -65 25q-59 56 -142 86q-87 31 -189 32v-1h-1q-144 0 -239 -51q-81 -44 -81 -108q1 -78 73 -108q75 -31 250 -32q220 -2 311 -36q187 -70 187 -282q0 -160 -154 -255q-136 -85 -341 -87q-136 -1 -257 43q-124 45 -216 130
q-28 25 -29 63q-2 38 24 65q25 28 63 30q38 1 65 -24q66 -61 155 -93q91 -33 194 -32q152 1 246 60q67 41 67 100q0 86 -67 111q-62 24 -249 25q-211 2 -318 45q-186 76 -186 277q1 172 176 268q137 74 327 74q135 -1 251 -43q119 -43 205 -125q28 -26 29 -64zM586 1213
q-18 -17 -55 -17h-45q-47 0 -59 24q-11 24 19 63l163 190q26 34 67 34h98q47 0 59 -24q13 -27 -13 -54z" />
    <glyph glyph-name="Scircumflex" unicode="&#x15c;" horiz-adv-x="1233" 
d="M1113 1185q-2 -38 -31 -64q-28 -26 -67 -24q-38 2 -64 30q-45 49 -127 79q-90 33 -202 34q-163 0 -272 -67q-102 -62 -102 -163v-1v0q0 -119 119 -164q71 -26 261 -39q278 -18 382 -69q173 -85 173 -319q0 -191 -172 -308q-160 -109 -399 -110q-188 -1 -335 70
q-156 75 -212 209q-15 36 0 71q15 36 50 51q36 15 72 0q35 -15 50 -51q29 -68 121 -112q108 -52 254 -52q182 1 295 78q89 61 89 154q0 118 -118 162q-72 27 -261 40q-278 18 -383 69q-173 85 -173 320v2q2 205 192 321q154 95 369 95q146 -1 266 -45q125 -46 201 -130
q26 -28 24 -67zM772 1779l192 -236q16 -21 5 -45q-12 -24 -59 -24h-32q-50 0 -91 39l-167 196l-164 -194q-44 -41 -80 -41h-47q-47 0 -58 24q-12 24 5 45l195 241q58 65 149 65q91 -1 152 -70z" />
    <glyph glyph-name="scircumflex" unicode="&#x15d;" horiz-adv-x="1123" 
d="M1048 910q0 -37 -26 -65q-26 -27 -63 -28q-38 -1 -65 25q-59 56 -142 86q-87 31 -189 32v-1h-1q-144 0 -239 -51q-81 -44 -81 -108q1 -78 73 -108q75 -31 250 -32q220 -2 311 -36q187 -70 187 -282q0 -160 -154 -255q-136 -85 -341 -87q-136 -1 -257 43q-124 45 -216 130
q-28 25 -29 63q-2 38 24 65q25 28 63 30q38 1 65 -24q66 -61 155 -93q91 -33 194 -32q152 1 246 60q67 41 67 100q0 86 -67 111q-62 24 -249 25q-211 2 -318 45q-186 76 -186 277q1 172 176 268q137 74 327 74q135 -1 251 -43q119 -43 205 -125q28 -26 29 -64zM714 1493
l192 -236q16 -21 5 -45q-12 -24 -59 -24h-32q-50 0 -91 39l-167 196l-164 -194q-44 -41 -80 -41h-47q-47 0 -58 24q-12 24 5 45l195 241q58 65 149 65q91 -1 152 -70z" />
    <glyph glyph-name="Scedilla" unicode="&#x15e;" horiz-adv-x="1233" 
d="M1113 1185q-2 -38 -31 -64q-28 -26 -67 -24q-38 2 -64 30q-45 49 -127 79q-90 33 -202 34q-163 0 -272 -67q-102 -62 -102 -163v-1v0q0 -119 119 -164q71 -26 261 -39q278 -18 382 -69q173 -85 173 -319q0 -191 -172 -308q-160 -109 -399 -110q-188 -1 -335 70
q-156 75 -212 209q-15 36 0 71q15 36 50 51q36 15 72 0q35 -15 50 -51q29 -68 121 -112q108 -52 254 -52q182 1 295 78q89 61 89 154q0 118 -118 162q-72 27 -261 40q-278 18 -383 69q-173 85 -173 320v2q2 205 192 321q154 95 369 95q146 -1 266 -45q125 -46 201 -130
q26 -28 24 -67zM526 -104q10 34 41 50q32 17 65 6q34 -10 51 -41q16 -32 6 -65l-75 -242q-11 -34 -42 -50q-31 -17 -65 -6q-33 10 -50 41q-16 31 -6 65z" />
    <glyph glyph-name="scedilla" unicode="&#x15f;" horiz-adv-x="1123" 
d="M1048 910q0 -37 -26 -65q-26 -27 -63 -28q-38 -1 -65 25q-59 56 -142 86q-87 31 -189 32v-1h-1q-144 0 -239 -51q-81 -44 -81 -108q1 -78 73 -108q75 -31 250 -32q220 -2 311 -36q187 -70 187 -282q0 -160 -154 -255q-136 -85 -341 -87q-136 -1 -257 43q-124 45 -216 130
q-28 25 -29 63q-2 38 24 65q25 28 63 30q38 1 65 -24q66 -61 155 -93q91 -33 194 -32q152 1 246 60q67 41 67 100q0 86 -67 111q-62 24 -249 25q-211 2 -318 45q-186 76 -186 277q1 172 176 268q137 74 327 74q135 -1 251 -43q119 -43 205 -125q28 -26 29 -64zM518 -104
q10 34 41 50q32 17 65 6q34 -10 51 -41q16 -32 6 -65l-75 -242q-11 -34 -42 -50q-31 -17 -65 -6q-33 10 -50 41q-16 31 -6 65z" />
    <glyph glyph-name="Scaron" unicode="&#x160;" horiz-adv-x="1233" 
d="M1113 1185q-2 -38 -31 -64q-28 -26 -67 -24q-38 2 -64 30q-45 49 -127 79q-90 33 -202 34q-163 0 -272 -67q-102 -62 -102 -163v-1v0q0 -119 119 -164q71 -26 261 -39q278 -18 382 -69q173 -85 173 -319q0 -191 -172 -308q-160 -109 -399 -110q-188 -1 -335 70
q-156 75 -212 209q-15 36 0 71q15 36 50 51q36 15 72 0q35 -15 50 -51q29 -68 121 -112q108 -52 254 -52q182 1 295 78q89 61 89 154q0 118 -118 162q-72 27 -261 40q-278 18 -383 69q-173 85 -173 320v2q2 205 192 321q154 95 369 95q146 -1 266 -45q125 -46 201 -130
q26 -28 24 -67zM620 1604l167 196q41 39 91 39h32q47 0 59 -24q11 -24 -5 -45l-192 -236q-32 -40 -72 -40h-160q-41 0 -69 35l-195 241q-17 21 -5 45q11 24 58 24h47q36 0 80 -41z" />
    <glyph glyph-name="scaron" unicode="&#x161;" horiz-adv-x="1123" 
d="M1048 910q0 -37 -26 -65q-26 -27 -63 -28q-38 -1 -65 25q-59 56 -142 86q-87 31 -189 32v-1h-1q-144 0 -239 -51q-81 -44 -81 -108q1 -78 73 -108q75 -31 250 -32q220 -2 311 -36q187 -70 187 -282q0 -160 -154 -255q-136 -85 -341 -87q-136 -1 -257 43q-124 45 -216 130
q-28 25 -29 63q-2 38 24 65q25 28 63 30q38 1 65 -24q66 -61 155 -93q91 -33 194 -32q152 1 246 60q67 41 67 100q0 86 -67 111q-62 24 -249 25q-211 2 -318 45q-186 76 -186 277q1 172 176 268q137 74 327 74q135 -1 251 -43q119 -43 205 -125q28 -26 29 -64zM562 1318
l167 196q41 39 91 39h32q47 0 59 -24q11 -24 -5 -45l-192 -236q-32 -40 -72 -40h-160q-41 0 -69 35l-195 241q-17 21 -5 45q11 24 58 24h47q36 0 80 -41z" />
    <glyph glyph-name="uni0162" unicode="&#x162;" horiz-adv-x="1305" 
d="M644 1426q5 1 9 1t8 -1h539q40 0 67 -27q28 -28 28 -67q0 -40 -28 -67q-27 -28 -67 -28h-452v-1142q0 -40 -28 -68q-28 -27 -67 -27q-40 0 -68 27q-28 28 -28 68v1142h-452q-39 0 -67 28q-28 27 -28 67q0 39 28 67q28 27 67 27h539zM559 -104q10 34 41 50q32 17 65 6
q34 -10 51 -41q16 -32 6 -65l-75 -242q-11 -34 -42 -50q-31 -17 -65 -6q-33 10 -50 41q-16 31 -6 65z" />
    <glyph glyph-name="uni0163" unicode="&#x163;" horiz-adv-x="1048" 
d="M102 1333q0 39 28 67t67 28t67 -28t28 -67v-190h593q40 0 67 -28q28 -28 28 -68q0 -39 -28 -67q-27 -28 -67 -28h-593v-464q0 -123 87 -210q88 -88 211 -88q78 0 144 37q68 38 109 104q21 33 59 42t72 -11q33 -21 42 -60q9 -38 -12 -71q-66 -108 -177 -169
q-111 -62 -237 -62q-202 0 -345 143q-143 142 -143 345v845zM516 -104q10 34 41 50q32 17 65 6q34 -10 51 -41q16 -32 6 -65l-75 -242q-11 -34 -42 -50q-31 -17 -65 -6q-33 10 -50 41q-16 31 -6 65z" />
    <glyph glyph-name="Tcaron" unicode="&#x164;" horiz-adv-x="1305" 
d="M644 1426q5 1 9 1t8 -1h539q40 0 67 -27q28 -28 28 -67q0 -40 -28 -67q-27 -28 -67 -28h-452v-1142q0 -40 -28 -68q-28 -27 -67 -27q-40 0 -68 27q-28 28 -28 68v1142h-452q-39 0 -67 28q-28 27 -28 67q0 39 28 67q28 27 67 27h539zM653 1604l167 196q41 39 91 39h32
q47 0 59 -24q11 -24 -5 -45l-192 -236q-32 -40 -72 -40h-160q-41 0 -69 35l-195 241q-17 21 -5 45q11 24 58 24h47q36 0 80 -41z" />
    <glyph glyph-name="tcaron" unicode="&#x165;" horiz-adv-x="1221" 
d="M102 1333q0 39 28 67t67 28t67 -28t28 -67v-190h593q40 0 67 -28q28 -28 28 -68q0 -39 -28 -67q-27 -28 -67 -28h-593v-464q0 -123 87 -210q88 -88 211 -88q78 0 144 37q68 38 109 104q21 33 59 42t72 -11q33 -21 42 -60q9 -38 -12 -71q-66 -108 -177 -169
q-111 -62 -237 -62q-202 0 -345 143q-143 142 -143 345v845zM1199 1262l-66 -212q-7 -24 -29 -35q-22 -12 -46 -4q-24 7 -35 29q-12 22 -4 46l41 134q-18 8 -33 24q-32 31 -32 76t31.5 76.5t75.5 31.5t75.5 -31.5t31.5 -76.5q0 -22 -10 -58z" />
    <glyph glyph-name="Tbar" unicode="&#x166;" horiz-adv-x="1205" 
d="M507 808v429h-402q-39 0 -67 28q-28 27 -28 67q0 39 28 67q28 27 67 27h489q5 1 9 1t8 -1h489q40 0 67 -27q28 -28 28 -67q0 -40 -28 -67q-27 -28 -67 -28h-402v-429h351q30 0 50 -26q21 -25 21 -62t-21 -62q-20 -26 -50 -26h-351v-537q0 -40 -28 -68q-28 -27 -67 -27
q-40 0 -68 27q-28 28 -28 68v537h-351q-29 0 -50 26q-21 25 -21 62t21 62q21 26 50 26h351z" />
    <glyph glyph-name="tbar" unicode="&#x167;" horiz-adv-x="1048" 
d="M292 535v-47q0 -123 87 -210q88 -88 211 -88q78 0 144 37q68 38 109 104q21 33 59 42t72 -11q33 -21 42 -60q9 -38 -12 -71q-66 -108 -177 -169q-111 -62 -237 -62q-202 0 -345 143q-143 142 -143 345v845q0 39 28 67t67 28t67 -28t28 -67v-190h593q40 0 67 -28
q28 -28 28 -68q0 -39 -28 -67q-27 -28 -67 -28h-593v-227h598q40 0 68 -28t28 -67q0 -40 -28 -67q-28 -28 -68 -28h-598z" />
    <glyph glyph-name="Utilde" unicode="&#x168;" horiz-adv-x="1485" 
d="M100 1333q0 39 28 67t67 28q40 0 67 -28q28 -28 28 -67v-691q0 -186 133 -319t319 -133q187 0 319 133q133 133 133 319v691q0 39 28 67t67 28q40 0 68 -28t28 -67v-691q0 -265 -189 -454q-189 -188 -454 -188t-453 188q-189 189 -189 454v691zM427 1683q64 54 162 54
q83 0 199 -54q53 -25 109 -23q69 1 83 51q9 36 48 36h58q23 0 37 -17q15 -16 12 -38q-15 -90 -69 -141q-60 -56 -159 -56q-83 0 -195 58q-58 30 -116 30q-74 -1 -88 -58q-8 -37 -48 -37h-60q-23 0 -38 16q-15 17 -11 38q14 88 76 141z" />
    <glyph glyph-name="utilde" unicode="&#x169;" horiz-adv-x="1342" 
d="M1052 1047q0 40 28 68q27 27 67 27q39 0 67 -27q28 -28 28 -68v-476q0 -236 -167 -403q-167 -168 -404 -168q-236 0 -404 168q-167 167 -167 403v476q0 40 28 68q28 27 67 27q40 0 67 -27q28 -28 28 -68v-476q0 -157 112 -269q111 -111 269 -111t269 111q112 112 112 269
v476zM355 1397q64 54 162 54q83 0 199 -54q53 -25 109 -23q69 1 83 51q9 36 48 36h58q23 0 37 -17q15 -16 12 -38q-15 -90 -69 -141q-60 -56 -159 -56q-83 0 -195 58q-58 30 -116 30q-74 -1 -88 -58q-8 -37 -48 -37h-60q-23 0 -38 16q-15 17 -11 38q14 88 76 141z" />
    <glyph glyph-name="Umacron" unicode="&#x16a;" horiz-adv-x="1485" 
d="M100 1333q0 39 28 67t67 28q40 0 67 -28q28 -28 28 -67v-691q0 -186 133 -319t319 -133q187 0 319 133q133 133 133 319v691q0 39 28 67t67 28q40 0 68 -28t28 -67v-691q0 -265 -189 -454q-189 -188 -454 -188t-453 188q-189 189 -189 454v691zM469 1562q-34 0 -58 24
t-24 57q0 35 24 59q24 23 58 23h547q34 0 58 -23q24 -24 24 -59q0 -33 -24 -57t-58 -24h-547z" />
    <glyph glyph-name="umacron" unicode="&#x16b;" horiz-adv-x="1342" 
d="M1052 1047q0 40 28 68q27 27 67 27q39 0 67 -27q28 -28 28 -68v-476q0 -236 -167 -403q-167 -168 -404 -168q-236 0 -404 168q-167 167 -167 403v476q0 40 28 68q28 27 67 27q40 0 67 -27q28 -28 28 -68v-476q0 -157 112 -269q111 -111 269 -111t269 111q112 112 112 269
v476zM398 1276q-34 0 -58 24t-24 57q0 35 24 59q24 23 58 23h547q34 0 58 -23q24 -24 24 -59q0 -33 -24 -57t-58 -24h-547z" />
    <glyph glyph-name="Ubreve" unicode="&#x16c;" horiz-adv-x="1485" 
d="M100 1333q0 39 28 67t67 28q40 0 67 -28q28 -28 28 -67v-691q0 -186 133 -319t319 -133q187 0 319 133q133 133 133 319v691q0 39 28 67t67 28q40 0 68 -28t28 -67v-691q0 -265 -189 -454q-189 -188 -454 -188t-453 188q-189 189 -189 454v691zM1007 1791q31 0 50 -25
q18 -26 8 -55q-37 -108 -130 -169q-86 -56 -193 -56q-108 0 -194 56q-92 61 -129 169q-10 29 8 55q18 25 50 25h20q42 0 57 -38q24 -59 77 -93q50 -31 111 -31t111 31q54 33 77 93q15 38 57 38h20z" />
    <glyph glyph-name="ubreve" unicode="&#x16d;" horiz-adv-x="1342" 
d="M1052 1047q0 40 28 68q27 27 67 27q39 0 67 -27q28 -28 28 -68v-476q0 -236 -167 -403q-167 -168 -404 -168q-236 0 -404 168q-167 167 -167 403v476q0 40 28 68q28 27 67 27q40 0 67 -27q28 -28 28 -68v-476q0 -157 112 -269q111 -111 269 -111t269 111q112 112 112 269
v476zM936 1505q31 0 50 -25q18 -26 8 -55q-37 -108 -130 -169q-86 -56 -193 -56q-108 0 -194 56q-92 61 -129 169q-10 29 8 55q18 25 50 25h20q42 0 57 -38q24 -59 77 -93q50 -31 111 -31t111 31q54 33 77 93q15 38 57 38h20z" />
    <glyph glyph-name="Uring" unicode="&#x16e;" horiz-adv-x="1485" 
d="M100 1333q0 39 28 67t67 28q40 0 67 -28q28 -28 28 -67v-691q0 -186 133 -319t319 -133q187 0 319 133q133 133 133 319v691q0 39 28 67t67 28q40 0 68 -28t28 -67v-691q0 -265 -189 -454q-189 -188 -454 -188t-453 188q-189 189 -189 454v691zM665 1714q29 30 71 30h14
q41 0 70 -30q30 -29 30 -70t-30 -71q-29 -29 -70 -29h-14q-42 0 -71 29q-29 30 -29 71t29 70zM578 1491q63 -63 152 -63h25q89 0 153 63q63 64 63 153t-63 153q-64 63 -153 63h-25q-89 0 -152 -63q-64 -64 -64 -153t64 -153z" />
    <glyph glyph-name="uring" unicode="&#x16f;" horiz-adv-x="1342" 
d="M1052 1047q0 40 28 68q27 27 67 27q39 0 67 -27q28 -28 28 -68v-476q0 -236 -167 -403q-167 -168 -404 -168q-236 0 -404 168q-167 167 -167 403v476q0 40 28 68q28 27 67 27q40 0 67 -27q28 -28 28 -68v-476q0 -157 112 -269q111 -111 269 -111t269 111q112 112 112 269
v476zM593 1428q29 30 71 30h14q41 0 70 -30q30 -29 30 -70t-30 -71q-29 -29 -70 -29h-14q-42 0 -71 29q-29 30 -29 71t29 70zM506 1205q63 -63 152 -63h25q89 0 153 63q63 64 63 153t-63 153q-64 63 -153 63h-25q-89 0 -152 -63q-64 -64 -64 -153t64 -153z" />
    <glyph glyph-name="Uhungarumlaut" unicode="&#x170;" horiz-adv-x="1485" 
d="M100 1333q0 39 28 67t67 28q40 0 67 -28q28 -28 28 -67v-691q0 -186 133 -319t319 -133q187 0 319 133q133 133 133 319v691q0 39 28 67t67 28q40 0 68 -28t28 -67v-691q0 -265 -189 -454q-189 -188 -454 -188t-453 188q-189 189 -189 454v691zM470 1499q-18 -17 -55 -17
h-45q-47 0 -59 24q-11 24 19 63l163 190q26 34 67 34h98q47 0 59 -24q13 -27 -13 -54zM926 1499q-18 -17 -55 -17h-45q-47 0 -59 24q-11 24 19 63l163 190q26 34 67 34h98q47 0 59 -24q13 -27 -13 -54z" />
    <glyph glyph-name="uhungarumlaut" unicode="&#x171;" horiz-adv-x="1342" 
d="M1052 1047q0 40 28 68q27 27 67 27q39 0 67 -27q28 -28 28 -68v-476q0 -236 -167 -403q-167 -168 -404 -168q-236 0 -404 168q-167 167 -167 403v476q0 40 28 68q28 27 67 27q40 0 67 -27q28 -28 28 -68v-476q0 -157 112 -269q111 -111 269 -111t269 111q112 112 112 269
v476zM398 1213q-18 -17 -55 -17h-45q-47 0 -59 24q-11 24 19 63l163 190q26 34 67 34h98q47 0 59 -24q13 -27 -13 -54zM854 1213q-18 -17 -55 -17h-45q-47 0 -59 24q-11 24 19 63l163 190q26 34 67 34h98q47 0 59 -24q13 -27 -13 -54z" />
    <glyph glyph-name="Uogonek" unicode="&#x172;" horiz-adv-x="1485" 
d="M693 2q-234 16 -404 186q-189 189 -189 454v691q0 39 28 67t67 28q40 0 67 -28q28 -28 28 -67v-691q0 -186 133 -319t319 -133q187 0 319 133q133 133 133 319v691q0 39 28 67t67 28q40 0 68 -28t28 -67v-691q0 -265 -189 -454q-156 -155 -363 -182q-77 -176 -53 -219
q25 -43 78 -40q32 2 68 21q4 2 9 5q24 11 41 2t17 -33q0 -49 -56 -85q-53 -33 -122 -36q-75 -3 -122 33q-56 42 -56 125q0 89 56 223z" />
    <glyph glyph-name="uogonek" unicode="&#x173;" horiz-adv-x="1342" 
d="M812 16q-67 -16 -141 -16q-236 0 -404 168q-167 167 -167 403v476q0 40 28 68q28 27 67 27q40 0 67 -27q28 -28 28 -68v-476q0 -157 112 -269q111 -111 269 -111t269 111q112 112 112 269v476q0 40 28 68q27 27 67 27q39 0 67 -27q28 -28 28 -68v-476q0 -236 -167 -403
q-43 -44 -91 -76q-105 -222 -77 -270q25 -44 78 -41q32 2 68 21q4 3 9 5q24 11 41 2q17 -8 17 -33q0 -49 -56 -84q-53 -34 -122 -37q-75 -3 -122 34q-56 42 -56 124t48 203z" />
    <glyph glyph-name="Wcircumflex" unicode="&#x174;" horiz-adv-x="1979" 
d="M100 1332q0 39 28 67t67 28q40 0 67 -28q28 -28 28 -67v-840q0 -125 89 -214q88 -88 213 -88t214 88q88 88 88 213v841q0 39 28 67t67 28q40 0 68 -28t28 -67v-841q0 -125 88 -213t214 -88q125 0 213 88q89 89 89 214v840q0 39 28 67q27 27 67 27q39 0 67 -27
q28 -28 28 -67v-840q0 -204 -144 -348q-145 -144 -348 -144q-204 0 -348 144q-27 26 -50 57q-22 -31 -49 -57q-144 -144 -348 -144t-348 144t-144 348v840zM1142 1779l192 -236q16 -21 5 -45q-12 -24 -59 -24h-32q-50 0 -91 39l-167 196l-164 -194q-44 -41 -80 -41h-47
q-47 0 -58 24q-12 24 5 45l195 241q58 65 149 65q91 -1 152 -70z" />
    <glyph glyph-name="wcircumflex" unicode="&#x175;" horiz-adv-x="1883" 
d="M290 468q0 -115 82 -196q81 -82 196 -82q116 0 197 82q81 81 81 196v579q0 39 28 67t67 28q40 0 68 -28t28 -67v-579q0 -115 81 -196q81 -82 197 -82q115 0 196 82q82 81 82 196v579q0 39 28 67q27 28 67 28q39 0 67 -28t28 -67v-579q0 -194 -137 -331t-331 -137
t-331 137q-23 23 -43 48q-19 -25 -42 -48q-137 -137 -331 -137t-331 137t-137 331v579q0 39 28 67t67 28q40 0 67 -28q28 -28 28 -67v-579zM1094 1493l192 -236q16 -21 5 -45q-12 -24 -59 -24h-32q-50 0 -91 39l-167 196l-164 -194q-44 -41 -80 -41h-47q-47 0 -58 24
q-12 24 5 45l195 241q58 65 149 65q91 -1 152 -70z" />
    <glyph glyph-name="Ycircumflex" unicode="&#x176;" horiz-adv-x="1330" 
d="M760 95q0 -39 -28 -67t-67 -28t-67 28t-28 67v387q-77 12 -147 42q-159 70 -251 211q-102 157 -102 373v224q0 39 28 67t67 28q40 0 68 -28q27 -28 27 -67v-224q0 -154 69 -263q63 -100 169 -147q79 -34 167 -34t167 34q106 47 169 147q69 109 69 263v224q0 39 27 67
q28 28 68 28q39 0 67 -28t28 -67v-224q0 -216 -102 -373q-92 -141 -251 -211q-70 -30 -147 -42v-387zM817 1779l192 -236q16 -21 5 -45q-12 -24 -59 -24h-32q-50 0 -91 39l-167 196l-164 -194q-44 -41 -80 -41h-47q-47 0 -58 24q-12 24 5 45l195 241q58 65 149 65
q91 -1 152 -70z" />
    <glyph glyph-name="ycircumflex" unicode="&#x177;" horiz-adv-x="1342" 
d="M1242 86q0 -236 -167 -404q-167 -167 -404 -167q-169 0 -310 92q-142 92 -211 247q-16 35 -2 72t50 53t72 2q37 -14 53 -50q46 -103 141 -165q94 -61 207 -61q158 0 269 112q112 111 112 269v60q-163 -146 -381 -146q-236 0 -404 168q-167 167 -167 403v476q0 40 28 68
q28 27 67 27q40 0 67 -27q28 -28 28 -68v-476q0 -157 112 -269q111 -111 269 -111t269 111q112 112 112 269v476q0 40 28 68q27 27 67 27q39 0 67 -27q28 -28 28 -68v-961zM823 1493l192 -236q16 -21 5 -45q-12 -24 -59 -24h-32q-50 0 -91 39l-167 196l-164 -194
q-44 -41 -80 -41h-47q-47 0 -58 24q-12 24 5 45l195 241q58 65 149 65q91 -1 152 -70z" />
    <glyph glyph-name="Ydieresis" unicode="&#x178;" horiz-adv-x="1330" 
d="M760 95q0 -39 -28 -67t-67 -28t-67 28t-28 67v387q-77 12 -147 42q-159 70 -251 211q-102 157 -102 373v224q0 39 28 67t67 28q40 0 68 -28q27 -28 27 -67v-224q0 -154 69 -263q63 -100 169 -147q79 -34 167 -34t167 34q106 47 169 147q69 109 69 263v224q0 39 27 67
q28 28 68 28q39 0 67 -28t28 -67v-224q0 -216 -102 -373q-92 -141 -251 -211q-70 -30 -147 -42v-387zM563.5 1685.5q26.5 -26.5 26.5 -64.5t-26.5 -65t-64.5 -27t-64.5 27t-26.5 65t26.5 64.5t64.5 26.5t64.5 -26.5zM896.5 1685.5q26.5 -26.5 26.5 -65.5q0 -38 -26.5 -64.5
t-64.5 -26.5q-37 0 -64 26.5t-27 64.5q0 39 27 65.5t64 26.5q38 0 64.5 -26.5z" />
    <glyph glyph-name="Zacute" unicode="&#x179;" horiz-adv-x="1333" 
d="M175 1237q-40 0 -68 27q-27 28 -27 68q0 39 27 67q28 28 68 28h822q69 0 127 -33q59 -33 93 -92q41 -73 23 -159q-16 -82 -81 -136l-880 -744q-31 -28 -12 -57q14 -17 47 -17h854q40 0 67 -27q28 -28 28 -67q0 -40 -28 -67q-27 -28 -67 -28h-854q-99 0 -170 65
q-74 69 -74 167q0 44 17 84q15 38 44 69q4 6 10 10l896 757q24 23 15 56q-14 28 -55 29h-822zM691 1499q-18 -17 -55 -17h-45q-47 0 -59 24q-11 24 19 63l163 190q26 34 67 34h98q47 0 59 -24q13 -27 -13 -54z" />
    <glyph glyph-name="zacute" unicode="&#x17a;" horiz-adv-x="1182" 
d="M145 952q-39 0 -67 28t-28 67q0 40 28 68q28 27 67 27h757q58 0 106 -32q48 -31 70 -85q23 -57 12 -114q-13 -63 -63 -102l-776 -618h786q39 0 67 -28t28 -67q0 -40 -28 -68t-67 -28h-787q-58 0 -106 33q-48 31 -70 85q-23 57 -12 113q13 64 63 102l776 619h-756z
M615 1213q-18 -17 -55 -17h-45q-47 0 -59 24q-11 24 19 63l163 190q26 34 67 34h98q47 0 59 -24q13 -27 -13 -54z" />
    <glyph glyph-name="Zdotaccent" unicode="&#x17b;" horiz-adv-x="1333" 
d="M175 1237q-40 0 -68 27q-27 28 -27 68q0 39 27 67q28 28 68 28h822q69 0 127 -33q59 -33 93 -92q41 -73 23 -159q-16 -82 -81 -136l-880 -744q-31 -28 -12 -57q14 -17 47 -17h854q40 0 67 -27q28 -28 28 -67q0 -40 -28 -67q-27 -28 -67 -28h-854q-99 0 -170 65
q-74 69 -74 167q0 44 17 84q15 38 44 69q4 6 10 10l896 757q24 23 15 56q-14 28 -55 29h-822zM731.5 1685.5q26.5 -26.5 26.5 -64.5t-26.5 -65t-64.5 -27t-64.5 27t-26.5 65t26.5 64.5t64.5 26.5t64.5 -26.5z" />
    <glyph glyph-name="zdotaccent" unicode="&#x17c;" horiz-adv-x="1182" 
d="M145 952q-39 0 -67 28t-28 67q0 40 28 68q28 27 67 27h757q58 0 106 -32q48 -31 70 -85q23 -57 12 -114q-13 -63 -63 -102l-776 -618h786q39 0 67 -28t28 -67q0 -40 -28 -68t-67 -28h-787q-58 0 -106 33q-48 31 -70 85q-23 57 -12 113q13 64 63 102l776 619h-756z
M655.5 1399.5q26.5 -26.5 26.5 -64.5t-26.5 -65t-64.5 -27t-64.5 27t-26.5 65t26.5 64.5t64.5 26.5t64.5 -26.5z" />
    <glyph glyph-name="Zcaron" unicode="&#x17d;" horiz-adv-x="1333" 
d="M175 1237q-40 0 -68 27q-27 28 -27 68q0 39 27 67q28 28 68 28h822q69 0 127 -33q59 -33 93 -92q41 -73 23 -159q-16 -82 -81 -136l-880 -744q-31 -28 -12 -57q14 -17 47 -17h854q40 0 67 -27q28 -28 28 -67q0 -40 -28 -67q-27 -28 -67 -28h-854q-99 0 -170 65
q-74 69 -74 167q0 44 17 84q15 38 44 69q4 6 10 10l896 757q24 23 15 56q-14 28 -55 29h-822zM667 1604l167 196q41 39 91 39h32q47 0 59 -24q11 -24 -5 -45l-192 -236q-32 -40 -72 -40h-160q-41 0 -69 35l-195 241q-17 21 -5 45q11 24 58 24h47q36 0 80 -41z" />
    <glyph glyph-name="zcaron" unicode="&#x17e;" horiz-adv-x="1182" 
d="M145 952q-39 0 -67 28t-28 67q0 40 28 68q28 27 67 27h757q58 0 106 -32q48 -31 70 -85q23 -57 12 -114q-13 -63 -63 -102l-776 -618h786q39 0 67 -28t28 -67q0 -40 -28 -68t-67 -28h-787q-58 0 -106 33q-48 31 -70 85q-23 57 -12 113q13 64 63 102l776 619h-756z
M591 1318l167 196q41 39 91 39h32q47 0 59 -24q11 -24 -5 -45l-192 -236q-32 -40 -72 -40h-160q-41 0 -69 35l-195 241q-17 21 -5 45q11 24 58 24h47q36 0 80 -41z" />
    <glyph glyph-name="longs" unicode="&#x17f;" horiz-adv-x="1106" 
d="M102 940q0 203 143 345q143 143 345 143q126 0 237 -62q111 -61 177 -169q21 -33 12 -71q-9 -39 -42 -60q-34 -20 -72 -11t-59 42q-41 66 -109 104q-66 37 -144 37q-123 0 -211 -88q-87 -87 -87 -210v-133h593q40 0 67 -28q28 -28 28 -67q0 -40 -28 -68q-27 -28 -67 -28
h-593v-521q0 -39 -28 -67t-67 -28t-67 28t-28 67v845z" />
    <glyph glyph-name="uni20BA" unicode="&#x20ba;" horiz-adv-x="1335" 
d="M441 894v84l-291 -73l-50 200l341 86v276h207v-224l299 76l50 -200l-349 -88v-85l299 75l50 -200l-349 -88v-516q141 25 235 112q135 125 147 357l205 -10q-22 -417 -324 -584q-168 -92 -361 -90h-5q-43 0 -73 31q-31 30 -31 73v575l-291 -74l-50 200z" />
    <glyph glyph-name="uni0312" unicode="&#x312;" horiz-adv-x="274" 
d="M40 1174l66 212q7 24 29 35q22 12 46 4q24 -7 35 -29q12 -22 4 -46l-41 -134q18 -8 34 -24q31 -31 31 -76t-31.5 -76.5t-75.5 -31.5t-75.5 31.5t-31.5 76.5q0 21 10 58z" />
    <glyph glyph-name="uni0313" unicode="&#x313;" horiz-adv-x="274" 
d="M234 1262l-66 -212q-7 -24 -29 -35q-22 -12 -46 -4q-24 7 -35 29q-12 22 -4 46l41 134q-18 8 -33 24q-32 31 -32 76t31.5 76.5t75.5 31.5t75.5 -31.5t31.5 -76.5q0 -22 -10 -58z" />
    <glyph glyph-name="uni0314" unicode="&#x314;" horiz-adv-x="274" 
d="M30 1320q0 45 31.5 76.5t75.5 31.5t75.5 -31.5t31.5 -76.5t-31 -76q-16 -16 -34 -24l41 -134q8 -24 -4 -46q-11 -22 -35 -29q-24 -8 -46 4q-22 11 -29 35l-66 212q-10 36 -10 58z" />
    <glyph glyph-name="uni0315" unicode="&#x315;" horiz-adv-x="274" 
d="M234 1262l-66 -212q-7 -24 -29 -35q-22 -12 -46 -4q-24 7 -35 29q-12 22 -4 46l41 134q-18 8 -33 24q-32 31 -32 76t31.5 76.5t75.5 31.5t75.5 -31.5t31.5 -76.5q0 -22 -10 -58z" />
    <glyph glyph-name="uni031B" unicode="&#x31b;" horiz-adv-x="274" 
d="M234 1262l-66 -212q-7 -24 -29 -35q-22 -12 -46 -4q-24 7 -35 29q-12 22 -4 46l41 134q-18 8 -33 24q-32 31 -32 76t31.5 76.5t75.5 31.5t75.5 -31.5t31.5 -76.5q0 -22 -10 -58z" />
    <glyph glyph-name="uni0326" unicode="&#x326;" horiz-adv-x="274" 
d="M234 -234l-66 -212q-7 -24 -29 -35q-22 -12 -46 -4q-24 7 -35 29q-12 22 -4 46l41 134q-18 8 -33 24q-32 31 -32 76t31.5 76.5t75.5 31.5t75.5 -31.5t31.5 -76.5q0 -22 -10 -58z" />
    <glyph glyph-name="uni02BB" unicode="&#x2bb;" horiz-adv-x="274" 
d="M40 1377l66 212q7 24 29 35q22 12 46 4q24 -7 35 -29q12 -22 4 -46l-41 -134q18 -8 34 -24q31 -31 31 -76t-31.5 -76.5t-75.5 -31.5t-75.5 31.5t-31.5 76.5q0 21 10 58z" />
    <glyph glyph-name="uni02BC" unicode="&#x2bc;" horiz-adv-x="274" 
d="M234 1262l-66 -212q-7 -24 -29 -35q-22 -12 -46 -4q-24 7 -35 29q-12 22 -4 46l41 134q-18 8 -33 24q-32 31 -32 76t31.5 76.5t75.5 31.5t75.5 -31.5t31.5 -76.5q0 -22 -10 -58z" />
    <glyph glyph-name="a.smcp" horiz-adv-x="1192" 
d="M271 538h650v88q0 134 -95 230q-96 95 -230 95t-230 -95q-95 -96 -95 -230v-88zM921 348h-650v-252q0 -40 -28 -68t-68 -28q-39 0 -67 28t-28 68v530q0 213 151 364q152 152 365 152t364 -152q152 -151 152 -364v-530q0 -40 -28 -68t-67 -28q-40 0 -68 28t-28 68v252z
" />
    <glyph glyph-name="b.smcp" horiz-adv-x="1126" 
d="M271 476v-271q0 -6 4 -10t10 -4h449q50 0 86 35q35 36 35 86q0 67 -48 116q-48 48 -116 48h-420zM285 951q-6 0 -10 -4h-1q-3 -4 -3 -10v-271h405q68 0 116 49q49 48 49 115q0 51 -36 86q-35 35 -85 35h-435zM942 562q104 -104 104 -250q0 -129 -92 -220
q-91 -92 -220 -92h-449q-84 0 -144 60l-1 1q-60 60 -60 144v732q0 84 60 145q60 60 145 60h435q128 0 219 -92h1q91 -92 91 -220q0 -146 -104 -250l-2 -2q9 -8 17 -16z" />
    <glyph glyph-name="c.smcp" horiz-adv-x="1248" 
d="M1040 430q38 11 72 -8q35 -20 45 -57q11 -38 -8 -73q-76 -135 -210 -213q-134 -79 -288 -79q-237 0 -404 167q-167 168 -167 404t167 404q167 167 404 167q154 0 288 -78q134 -79 210 -214q19 -34 8 -72q-10 -38 -45 -58q-34 -19 -72 -8q-38 10 -57 45q-51 91 -140 143
q-88 51 -192 51q-158 0 -269 -111t-111 -269q0 -157 111 -269q111 -111 269 -111q104 0 192 51q89 53 140 143q19 35 57 45z" />
    <glyph glyph-name="d.smcp" horiz-adv-x="1155" 
d="M504 1142q236 0 403 -168q168 -167 168 -403t-168 -403q-167 -168 -403 -168h-256q-69 0 -118 50h-1q-49 49 -49 119v804q0 70 50 119h-1q50 50 119 50h256zM271 951v-760h233q157 0 269 112q111 111 111 268t-111 269q-112 111 -269 111h-233z" />
    <glyph glyph-name="e.smcp" horiz-adv-x="954" 
d="M759 666q40 0 68 -28q27 -27 27 -67q0 -39 -27 -67q-28 -28 -68 -28h-488v-285h531q39 0 67 -28t28 -67q0 -40 -28 -68t-67 -28h-627q-39 0 -67 28t-28 68v951q0 39 28 67t67 28h627q39 0 67 -28t28 -67q0 -40 -28 -68t-67 -28h-531v-285h488z" />
    <glyph glyph-name="f.smcp" horiz-adv-x="910" 
d="M730 666q39 0 67 -28q28 -27 28 -67q0 -39 -28 -67t-67 -28h-459v-380q0 -40 -28 -68t-68 -28q-39 0 -67 28t-28 68v951q0 39 28 67t67 28h598q39 0 67 -28t28 -67q0 -40 -28 -68t-67 -28h-502v-285h459z" />
    <glyph glyph-name="g.smcp" horiz-adv-x="1302" 
d="M651 476q-40 0 -68 28q-27 28 -27 67q0 40 27 67q28 28 68 28h475q40 0 68 -28q28 -27 28 -67q0 -236 -168 -404q-167 -167 -403 -167q-237 0 -404 167q-167 168 -167 404t167 404q167 167 404 167q139 0 262 -64q124 -64 204 -178q23 -32 16 -71t-39 -62
q-32 -22 -71 -16q-39 7 -61 39q-54 76 -136 119q-82 42 -175 42q-158 0 -269 -111t-111 -269q0 -157 111 -269q111 -111 269 -111q157 0 269 111q73 74 99 174h-368z" />
    <glyph glyph-name="h.smcp" horiz-adv-x="1050" 
d="M970 96q0 -40 -28 -68t-67 -28t-67 28t-28 68v380h-509v-380q0 -40 -28 -68t-68 -28q-39 0 -67 28t-28 68v951q0 39 28 67t67 28q40 0 68 -28t28 -67v-381h509v381q0 39 28 67t67 28t67 -28t28 -67v-951z" />
    <glyph glyph-name="i.smcp" horiz-adv-x="451" 
d="M321 96q0 -40 -28 -68t-68 -28q-39 0 -67 28t-28 68v951q0 39 28 67t67 28q40 0 68 -28t28 -67v-951z" />
    <glyph glyph-name="j.smcp" horiz-adv-x="900" 
d="M68 458q28 28 67 28q40 0 68 -28t28 -68q0 -82 58 -141q59 -58 141 -58t141 58q59 59 59 141v657q0 39 28 67q27 28 67 28q39 0 67 -28t28 -67v-657q0 -161 -114 -275q-115 -115 -276 -115t-276 115q-114 114 -114 275q0 40 28 68z" />
    <glyph glyph-name="k.smcp" horiz-adv-x="960" 
d="M911 98q1 -39 -27 -68q-27 -28 -66 -29t-68 26l-479 458v-389q0 -40 -28 -68t-68 -28q-39 0 -67 28t-28 68v951q0 39 28 67t67 28q40 0 68 -28t28 -67v-390l479 458q29 28 68 27t66 -30q28 -28 27 -68q-1 -39 -30 -66l-425 -407l425 -407q29 -27 30 -66z" />
    <glyph glyph-name="l.smcp" horiz-adv-x="895" 
d="M80 1047q0 39 28 67t67 28q40 0 68 -28t28 -67v-857h487q39 0 67 -27q28 -28 28 -67q0 -40 -28 -68q-28 -27 -67 -27h-574q-5 -1 -9 -1q-39 0 -67 28t-28 68v951z" />
    <glyph glyph-name="m.smcp" horiz-adv-x="1572" 
d="M271 96q0 -40 -28 -68t-68 -28q-39 0 -67 28t-28 68v645q0 166 117 284q118 117 284 117t283 -117l22 -24l22 24q117 117 283 117t284 -117q117 -118 117 -284v-645q0 -40 -28 -68t-67 -28q-40 0 -68 28t-28 68v645q0 87 -61 149q-62 61 -149 61t-148 -61t-62 -148v-646
q0 -40 -28 -68t-67 -28t-67 28t-28 68v646q-1 87 -62 148t-148 61t-149 -61q-61 -62 -61 -149v-645z" />
    <glyph glyph-name="n.smcp" horiz-adv-x="1179" 
d="M271 96q0 -40 -28 -68t-68 -28q-39 0 -67 28t-28 68v835q0 91 72 154q65 57 156 57q73 0 132 -39q60 -40 87 -108l298 -769v1q9 -22 19 -30q9 -6 27 -6q22 0 35 10q3 2 3 21v825q0 39 27 67q28 28 68 28q39 0 67 -28t28 -67v-845q0 -90 -75 -150q-65 -52 -153 -52
q-78 0 -137 42q-55 40 -85 112q-47 116 -148 386q-94 250 -150 385q-5 12 -16 20q-11 6 -27 6q-20 0 -31 -9q-6 -6 -6 -21v-825z" />
    <glyph glyph-name="o.smcp" horiz-adv-x="1302" 
d="M1054 975q168 -168 168 -404t-168 -404q-167 -167 -403 -167q-237 0 -404 167q-167 168 -167 404t167 404q167 167 404 167q236 0 403 -167zM651 951q-158 0 -269 -111q-112 -111 -112 -269q0 -157 112 -269q111 -111 269 -111q157 0 269 111q111 112 111 269
q0 158 -111 269q-112 111 -269 111z" />
    <glyph glyph-name="p.smcp" horiz-adv-x="960" 
d="M271 96q0 -40 -28 -68t-68 -28q-39 0 -67 28t-28 68v646q0 166 117 283t283 117t283 -117t117 -283t-117 -283t-283 -117h-209v-246zM271 532h209q87 0 148 62q62 61 62 148t-62 148q-61 61 -148 61t-148 -61t-61 -148v-210z" />
    <glyph glyph-name="q.smcp" horiz-adv-x="1302" 
d="M556 351q0 39 27 67q28 28 68 28q39 0 67 -28t28 -67v-149q100 26 174 99q111 112 111 269q0 158 -111 269q-112 111 -269 111q-158 0 -269 -111t-111 -269q0 -157 111 -269q73 -73 174 -99v149zM746 -125q0 -39 -28 -67t-67 -28q-40 0 -68 28q-27 28 -27 67v132
q-180 30 -309 159q-167 168 -167 404t167 404q167 167 404 167q236 0 403 -167q168 -168 168 -404t-168 -404q-129 -129 -308 -159v-132z" />
    <glyph glyph-name="r.smcp" horiz-adv-x="1033" 
d="M271 100q0 -40 -28 -68t-68 -28q-39 0 -67 28t-28 68v646q0 166 117 283t283 117h73q166 0 283 -117t117 -283t-117 -283q-86 -86 -206 -110l235 -178q31 -24 36 -63q6 -39 -18 -70t-63 -36q-39 -6 -70 18l-356 270q-3 2 -6 5q-29 21 -43 55q-2 4 -3 9q-13 40 -1 81
q13 41 48 67q35 25 78 25h86q87 0 148 62q62 61 62 148t-62 148q-61 61 -148 61h-73q-87 0 -148 -61t-61 -148v-646z" />
    <glyph glyph-name="s.smcp" horiz-adv-x="1119" 
d="M852 1142q39 0 67 -28t28 -67q0 -40 -28 -68t-67 -28h-439q-59 0 -101 -42q-41 -42 -41 -100q0 -55 39 -94q42 -42 106 -49h290q137 0 235 -97q98 -98 98 -236q0 -137 -98 -235t-235 -98h-512q-40 0 -68 28t-28 68q0 39 28 67t68 28h512q58 0 100 42t42 100q0 59 -42 101
t-100 42h-300q-138 11 -231 104q-95 95 -95 229q0 137 98 235t235 98h439z" />
    <glyph glyph-name="t.smcp" horiz-adv-x="1035" 
d="M509 1141q5 1 9 1t8 -1h374q40 0 68 -27q27 -28 27 -67q0 -40 -27 -67q-28 -28 -68 -28h-287v-856q0 -40 -28 -68t-67 -28q-40 0 -68 28t-28 68v856h-287q-39 0 -67 28q-28 27 -28 67q0 39 28 67q28 27 67 27h374z" />
    <glyph glyph-name="u.smcp" horiz-adv-x="1192" 
d="M80 1047q0 39 28 67t67 28q40 0 68 -28q27 -28 27 -67v-531q0 -134 96 -230q96 -95 230 -95t230 95q95 96 95 230v531q0 39 28 67t68 28q39 0 67 -28t28 -67v-531q0 -213 -152 -364q-151 -152 -364 -152t-365 152q-151 151 -151 364v531z" />
    <glyph glyph-name="v.smcp" horiz-adv-x="1196" 
d="M53 1075q13 37 49 54q35 17 72 4t54 -48l370 -773l370 773q17 35 54 48t73 -4q35 -17 48 -54t-4 -72l-455 -951q-15 -31 -45 -45q-35 -17 -72 -4t-54 49l-456 951q-17 35 -4 72z" />
    <glyph glyph-name="w.smcp" horiz-adv-x="1675" 
d="M80 1047q0 39 28 67t67 28q40 0 68 -28t28 -67v-646q0 -85 66 -146q69 -64 169 -64q101 0 170 64q66 61 66 146v646q0 39 28 67t67 28q40 0 68 -28t28 -67v-646q0 -85 66 -146q69 -64 170 -64q100 0 169 64q66 61 66 146h1v646q0 39 27 67q28 28 68 28q39 0 67 -28
q27 -28 27 -67v-646h1q0 -168 -128 -286q-124 -115 -298 -115q-175 0 -299 115q-17 16 -33 34q-15 -18 -32 -34q-125 -115 -299 -115t-298 115q-128 118 -128 286v646z" />
    <glyph glyph-name="x.smcp" horiz-adv-x="1192" 
d="M271 96q0 -40 -28 -68t-68 -28q-39 0 -67 28t-28 68v54q0 213 151 365q31 31 67 56q-36 25 -67 56q-151 152 -151 365v55q0 39 28 67t67 28q40 0 68 -28t28 -67v-55q0 -134 95 -230q96 -96 230 -96t230 96q95 96 95 230v55q0 39 28 67t68 28q39 0 67 -28t28 -67v-55
q0 -213 -152 -365q-31 -31 -66 -56q35 -25 66 -56q152 -152 152 -365v-54q0 -40 -28 -68t-67 -28q-40 0 -68 28t-28 68v54q0 134 -95 230q-96 96 -230 96t-230 -96q-95 -96 -95 -230v-54z" />
    <glyph glyph-name="y.smcp" horiz-adv-x="1192" 
d="M80 1047q0 39 28 67t67 28q40 0 68 -28t28 -67v-172q0 -134 95 -230q96 -96 230 -96t230 96q95 96 95 230v172q0 39 28 67t68 28q39 0 67 -28t28 -67v-172q0 -213 -152 -365q-113 -113 -269 -142v-272q0 -40 -28 -68t-67 -28q-40 0 -67 28q-28 28 -28 68v272
q-156 29 -270 142q-151 152 -151 365v172z" />
    <glyph glyph-name="z.smcp" horiz-adv-x="1082" 
d="M163 951q-40 0 -68 28t-28 68q0 39 28 67t68 28h632q58 0 108 -28q51 -28 80 -79q36 -64 20 -138q-14 -70 -69 -117l-683 -577v0v-2q0 -2 2 -5q6 -5 17 -5v-1h657q39 0 67 -27q28 -28 28 -67q0 -40 -28 -68q-28 -27 -67 -27h-657v-1q-85 0 -146 57q-64 59 -64 144
q0 38 14 73q13 32 38 59q5 6 10 10l689 582q5 5 6 10t1 6q-3 5 -7 7q-6 3 -16 3h-632z" />
    <glyph glyph-name="zero.sups" horiz-adv-x="1042" 
d="M861 1272q131 -166 131 -395t-131 -395q-139 -176 -340 -176t-340 176q-131 166 -131 395t131 395q139 176 340 176t340 -176zM521 1257q-110 0 -191 -102q-89 -113 -89 -278t89 -277q81 -103 191 -103t191 103q89 112 89 277t-89 278q-81 102 -191 102z" />
    <glyph glyph-name="one.sups" horiz-adv-x="581" 
d="M531 402q0 -40 -28 -68t-67 -28q-40 0 -68 28t-28 68v855h-195q-39 0 -67 28t-28 68q0 39 28 67t67 28h291q39 0 67 -28t28 -67v-951z" />
    <glyph glyph-name="two.sups" horiz-adv-x="876" 
d="M230 1010q-28 -28 -68 -28q-39 0 -67 28t-28 67q0 153 108 262q109 108 262 108t261 -108q108 -109 108 -262q0 -193 -101 -280q-61 -53 -228 -99q-98 -27 -139 -56q-69 -49 -89 -146h482q39 0 67 -28t28 -67q0 -40 -28 -68t-67 -28h-586q-39 0 -67 28t-28 68
q0 250 120 362q71 66 257 118q96 26 131 54q58 46 58 142q0 74 -52 127q-53 52 -127 52t-127 -52q-52 -53 -52 -127q0 -39 -28 -67z" />
    <glyph glyph-name="three.sups" horiz-adv-x="840" 
d="M145 306q-39 0 -67 28t-28 68q0 39 28 67t67 28h198q174 0 230 117q18 38 18 80q0 41 -18 79q-57 120 -233 120h-79q-40 0 -68 28t-28 67q0 48 39 77l228 193h-277q-39 0 -67 28q-28 27 -28 67q0 39 28 67q28 27 67 27l531 1q48 2 78 -34q26 -30 23 -69q-4 -40 -34 -65
l-258 -218q175 -52 249 -207q36 -76 37 -161q0 -85 -36 -161q-49 -102 -146 -161q-108 -66 -256 -66h-198z" />
    <glyph glyph-name="four.sups" horiz-adv-x="959" 
d="M763 400q0 -40 -28 -68t-67 -28q-40 0 -68 28t-28 68v143h-351q-47 0 -88 25t-62 68q-21 42 -17 89q4 44 30 83l373 567q31 48 86 65q52 16 105 -2q52 -17 83 -61q32 -44 32 -98v-545h51q39 0 67 -28t28 -68q0 -39 -28 -67t-67 -28h-51v-143zM572 1239l-329 -500
q-1 -3 -2 -5h331v505z" />
    <glyph glyph-name="five.sups" horiz-adv-x="919" 
d="M70 685q21 34 59 44q38 9 72 -11q34 -21 43 -59q17 -69 77 -116q61 -46 137 -46q91 0 157 64q63 62 63 149q0 85 -65 148q-68 65 -161 65q-53 0 -102 -22q-48 -22 -77 -56q-25 -31 -64 -35q-39 -3 -69 22q-39 32 -34 82l45 448q4 37 31 61q27 25 63 25h440q40 0 68 -28
t28 -67q0 -40 -28 -68t-68 -28h-354l-17 -166q69 23 138 23q169 0 292 -119q125 -119 125 -285t-122 -285q-121 -119 -289 -119q-140 0 -252 86q-114 87 -147 222q-9 38 11 71z" />
    <glyph glyph-name="six.sups" horiz-adv-x="960" 
d="M522 1417q27 29 67 31q39 1 68 -25q29 -27 30 -66q2 -40 -25 -69l-117 -127q139 -21 239 -121q126 -126 126 -304t-126 -304t-304 -126t-304 126t-126 304q0 175 122 301zM480 976q-99 0 -169 -71q-70 -70 -70 -169t70 -169t169 -70t169 70t70 169t-70 169
q-70 71 -169 71z" />
    <glyph glyph-name="seven.sups" horiz-adv-x="954" 
d="M395 310q-37 -13 -72 3q-36 17 -50 54q-13 37 3 72l377 816h-508q-39 0 -67 28t-28 68q0 39 28 67t67 28h656v0q21 0 40 -9q36 -17 50 -53q13 -37 -3 -73l-439 -951q-17 -36 -54 -50z" />
    <glyph glyph-name="eight.sups" horiz-adv-x="855" 
d="M643 1358q90 -89 90 -216q0 -109 -70 -194q15 -11 29 -24q113 -106 113 -257t-113 -257q-110 -104 -265 -104q-154 0 -264 104q-113 106 -113 257t113 257q14 13 29 24q-70 85 -70 194q0 127 89 216h1q89 90 215 90t216 -90zM427 1257q-47 0 -81 -33q-34 -34 -34 -82
q0 -44 30 -77l4 -4q33 -33 80 -33h3q47 0 80 33q33 34 33 81q0 48 -33 82q-34 33 -82 33zM427 837q-79 0 -134 -52q-52 -49 -52 -118t52 -119q55 -51 134 -51q80 0 135 51q52 50 52 119t-52 118q-55 52 -135 52z" />
    <glyph glyph-name="nine.sups" horiz-adv-x="960" 
d="M437 335q-26 -29 -66 -30q-39 -2 -68 25q-29 26 -31 66q-1 39 25 68l117 127q-138 21 -238 121q-126 126 -126 304t126 304t304 126t304 -126t126 -304q0 -175 -123 -301zM480 777q99 0 169 70t70 169t-70 169t-169 70t-169 -70t-70 -169t70 -169t169 -70z" />
    <glyph glyph-name="uni2070" unicode="&#x2070;" horiz-adv-x="1102" 
d="M891 1282q131 -166 131 -395t-131 -395q-139 -176 -340 -176t-340 176q-131 166 -131 395t131 395q139 176 340 176t340 -176zM551 1267q-110 0 -191 -102q-89 -113 -89 -278t89 -277q81 -103 191 -103t191 103q89 112 89 277t-89 278q-81 102 -191 102z" />
    <glyph glyph-name="uni2074" unicode="&#x2074;" horiz-adv-x="959" 
d="M773 408q0 -40 -28 -68t-67 -28q-40 0 -68 28t-28 68v143h-351q-47 0 -88 25t-62 68q-21 42 -17 89q4 44 30 83l373 567q31 48 86 65q52 16 105 -2q52 -17 83 -61q32 -44 32 -98v-545h51q39 0 67 -28t28 -68q0 -39 -28 -67t-67 -28h-51v-143zM582 1247l-329 -500
q-1 -3 -2 -5h331v505z" />
    <glyph glyph-name="uni2075" unicode="&#x2075;" horiz-adv-x="979" 
d="M100 694q21 34 59 44q38 9 72 -11q34 -21 43 -59q17 -69 77 -116q61 -46 137 -46q91 0 157 64q63 62 63 149q0 85 -65 148q-68 65 -161 65q-53 0 -102 -22q-48 -22 -77 -56q-25 -31 -64 -35q-39 -3 -69 22q-39 32 -34 82l45 448q4 37 31 61q27 25 63 25h440q40 0 68 -28
t28 -67q0 -40 -28 -68t-68 -28h-354l-17 -166q69 23 138 23q169 0 292 -119q125 -119 125 -285t-122 -285q-121 -119 -289 -119q-140 0 -252 86q-114 87 -147 222q-9 38 11 71z" />
    <glyph glyph-name="uni2076" unicode="&#x2076;" horiz-adv-x="1020" 
d="M552 1426q27 29 67 31q39 1 68 -25q29 -27 30 -66q2 -40 -25 -69l-117 -127q139 -21 239 -121q126 -126 126 -304t-126 -304t-304 -126t-304 126t-126 304q0 175 122 301zM510 985q-99 0 -169 -71q-70 -70 -70 -169t70 -169t169 -70t169 70t70 169t-70 169
q-70 71 -169 71z" />
    <glyph glyph-name="uni2077" unicode="&#x2077;" horiz-adv-x="1014" 
d="M425 322q-37 -13 -72 3q-36 17 -50 54q-13 37 3 72l377 816h-508q-39 0 -67 28t-28 68q0 39 28 67t67 28h656v0q21 0 40 -9q36 -17 50 -53q13 -37 -3 -73l-439 -951q-17 -36 -54 -50z" />
    <glyph glyph-name="uni2078" unicode="&#x2078;" horiz-adv-x="915" 
d="M673 1368q90 -89 90 -216q0 -109 -70 -194q15 -11 29 -24q113 -106 113 -257t-113 -257q-110 -104 -265 -104q-154 0 -264 104q-113 106 -113 257t113 257q14 13 29 24q-70 85 -70 194q0 127 89 216h1q89 90 215 90t216 -90zM457 1267q-47 0 -81 -33q-34 -34 -34 -82
q0 -44 30 -77l4 -4q33 -33 80 -33h3q47 0 80 33q33 34 33 81q0 48 -33 82q-34 33 -82 33zM457 847q-79 0 -134 -52q-52 -49 -52 -118t52 -119q55 -51 134 -51q80 0 135 51q52 50 52 119t-52 118q-55 52 -135 52z" />
    <glyph glyph-name="uni2079" unicode="&#x2079;" horiz-adv-x="1020" 
d="M467 348q-26 -29 -66 -30q-39 -2 -68 25q-29 26 -31 66q-1 39 25 68l117 127q-138 21 -238 121q-126 126 -126 304t126 304t304 126t304 -126t126 -304q0 -175 -123 -301zM510 790q99 0 169 70t70 169t-70 169t-169 70t-169 -70t-70 -169t70 -169t169 -70z" />
    <glyph glyph-name="uni00B2" unicode="&#xb2;" horiz-adv-x="936" 
d="M260 1020q-28 -28 -68 -28q-39 0 -67 28t-28 67q0 153 108 262q109 108 262 108t261 -108q108 -109 108 -262q0 -193 -101 -280q-61 -53 -228 -99q-98 -27 -139 -56q-69 -49 -89 -146h482q39 0 67 -28t28 -67q0 -40 -28 -68t-67 -28h-586q-39 0 -67 28t-28 68
q0 250 120 362q71 66 257 118q96 26 131 54q58 46 58 142q0 74 -52 127q-53 52 -127 52t-127 -52q-52 -53 -52 -127q0 -39 -28 -67z" />
    <glyph glyph-name="uni00B3" unicode="&#xb3;" horiz-adv-x="900" 
d="M175 316q-39 0 -67 28t-28 68q0 39 28 67t67 28h198q174 0 230 117q18 38 18 80q0 41 -18 79q-57 120 -233 120h-79q-40 0 -68 28t-28 67q0 48 39 77l228 193h-277q-39 0 -67 28q-28 27 -28 67q0 39 28 67q28 27 67 28h531q48 2 78 -34q26 -30 23 -69q-4 -40 -34 -65
l-258 -218q175 -52 249 -207q36 -76 37 -161q0 -85 -36 -161q-49 -102 -146 -161q-108 -66 -256 -66h-198z" />
    <glyph glyph-name="uni00B9" unicode="&#xb9;" horiz-adv-x="641" 
d="M512 411q0 -40 -28 -68t-67 -28q-40 0 -68 28t-28 68v855h-195q-39 0 -67 28t-28 68q0 39 28 67t67 28h291q39 0 67 -28t28 -67v-951z" />
    <glyph glyph-name="ordmasculine" unicode="&#xba;" horiz-adv-x="1102" 
d="M891 1281q131 -166 131 -395t-131 -395q-139 -176 -340 -176t-340 176q-131 166 -131 395t131 395q139 176 340 176t340 -176zM551 1266q-110 0 -191 -102q-89 -113 -89 -278t89 -277q81 -103 191 -103t191 103q89 112 89 277t-89 278q-81 102 -191 102z" />
    <glyph glyph-name="circle" unicode="&#x25cb;" 
d="M1495 1303q248 -248 248 -599q0 -350 -248 -598t-598 -248q-351 0 -599 248t-248 598q0 351 248 599t599 248q350 0 598 -248zM897 1454q-311 0 -530 -219.5t-219 -530.5q0 -310 219 -529.5t530 -219.5q310 0 529.5 219.5t219.5 529.5q0 311 -219.5 530.5t-529.5 219.5z
" />
    <glyph glyph-name="H18533" unicode="&#x25cf;" 
d="M897 1551q-351 0 -599 -248t-248 -599q0 -350 248 -598t599 -248q350 0 598 248t248 598q0 351 -248 599t-598 248z" />
    <glyph glyph-name="uni2776" unicode="&#x2776;" horiz-adv-x="716" 
d="M519 -104q0 -40 -28 -68t-67 -28q-40 0 -68 28t-28 68v855h-195q-39 0 -67 28t-28 68q0 39 28 67t67 28h291q39 0 67 -28t28 -67v-951z" />
    <glyph glyph-name="uni2777" unicode="&#x2777;" horiz-adv-x="876" 
d="M230 506q-28 -28 -68 -28q-39 0 -67 28t-28 67q0 153 108 262q109 108 262 108t261 -108q108 -109 108 -262q0 -193 -101 -280q-61 -53 -228 -99q-98 -27 -139 -56q-69 -49 -89 -146h482q39 0 67 -28t28 -67q0 -40 -28 -68t-67 -28h-586q-39 0 -67 28t-28 68
q0 250 120 362q71 66 257 118q96 26 131 54q58 46 58 142q0 74 -52 127q-53 52 -127 52t-127 -52q-52 -53 -52 -127q0 -39 -28 -67z" />
    </font>
</defs>
</svg>
