<svg id="transformation-arrow1" width="608px" height="323px" viewBox="0 0 608 323" version="1.1" xmlns="http://www.w3.org/2000/svg" xmlns:xlink="http://www.w3.org/1999/xlink">
  <g stroke="none" stroke-width="3" fill="none" fill-rule="evenodd">
    <g transform="translate(0.000000, -0.000169)">
      <path class="path" fill="none" stroke="#1babbe" stroke-width="2" stroke-linejoin="round" stroke-miterlimit="10" d="M414.716,0 C423.865748,0 430.647479,0 435.061193,0 C486.891922,0 527.036888,12.9174999 555.309949,40.0711694 C590.432594,74.0341447 607.966632,113.423667 607.912065,158.239737 C604.652112,211.193515 586.29165,251.245739 552.830677,278.396408 C519.369704,305.547076 473.331479,317.74833 414.716,315.000169 L0,315.000169"></path>
      <path class="path-default" fill="none" stroke="#fff" stroke-width="2" stroke-linejoin="round" stroke-miterlimit="10" d="M414.716,0 C423.865748,0 430.647479,0 435.061193,0 C486.891922,0 527.036888,12.9174999 555.309949,40.0711694 C590.432594,74.0341447 607.966632,113.423667 607.912065,158.239737 C604.652112,211.193515 586.29165,251.245739 552.830677,278.396408 C519.369704,305.547076 473.331479,317.74833 414.716,315.000169 L0,315.000169"></path>
      <path class="dashed" fill="none" stroke="#181818" d="M414.716,0 C423.865748,0 430.647479,0 435.061193,0 C486.891922,0 527.036888,12.9174999 555.309949,40.0711694 C590.432594,74.0341447 607.966632,113.423667 607.912065,158.239737 C604.652112,211.193515 586.29165,251.245739 552.830677,278.396408 C519.369704,305.547076 473.331479,317.74833 414.716,315.000169 L0,315.000169"></path>
      <polyline class="polyline" stroke="#1babbe" points="6.65685 322.071169 -5.68434189e-14 315.000169 6.65685 307.929169"></polyline>
      <polyline class="polyline-default" stroke="#fff" points="6.65685 322.071169 -5.68434189e-14 315.000169 6.65685 307.929169"></polyline>
    </g>
  </g>
</svg>