<svg width="172" height="214" viewBox="0 0 172 214" fill="none" xmlns="http://www.w3.org/2000/svg">
<g clip-path="url(#clip0)">
<path d="M30.2999 86.7C40.0202 86.7 47.9 78.8202 47.9 69.1C47.9 59.3798 40.0202 51.5 30.2999 51.5C20.5797 51.5 12.7 59.3798 12.7 69.1C12.7 78.8202 20.5797 86.7 30.2999 86.7Z" stroke="white" stroke-miterlimit="10"/>
<path d="M19.2 120C28.9202 120 36.8 112.12 36.8 102.4C36.8 92.6798 28.9202 84.8 19.2 84.8C9.47976 84.8 1.59998 92.6798 1.59998 102.4C1.59998 112.12 9.47976 120 19.2 120Z" stroke="white" stroke-miterlimit="10"/>
<path d="M20.9 155.1C30.6203 155.1 38.5 147.22 38.5 137.5C38.5 127.78 30.6203 119.9 20.9 119.9C11.1798 119.9 3.30005 127.78 3.30005 137.5C3.30005 147.22 11.1798 155.1 20.9 155.1Z" stroke="white" stroke-miterlimit="10"/>
<path d="M35.2 187.8C44.9202 187.8 52.8 179.92 52.8 170.2C52.8 160.48 44.9202 152.6 35.2 152.6C25.4798 152.6 17.6 160.48 17.6 170.2C17.6 179.92 25.4798 187.8 35.2 187.8Z" stroke="white" stroke-miterlimit="10"/>
<path d="M60.2 213.4C69.9754 213.4 77.9 205.475 77.9 195.7C77.9 185.925 69.9754 178 60.2 178C50.4246 178 42.5 185.925 42.5 195.7C42.5 205.475 50.4246 213.4 60.2 213.4Z" stroke="white" stroke-miterlimit="10"/>
<path d="M52.5 59.2C62.2202 59.2 70.1 51.3202 70.1 41.6C70.1 31.8798 62.2202 24 52.5 24C42.7798 24 34.9 31.8798 34.9 41.6C34.9 51.3202 42.7798 59.2 52.5 59.2Z" stroke="white" stroke-miterlimit="10"/>
<path d="M83.4 41.4C93.1203 41.4 101 33.5202 101 23.7999C101 14.0797 93.1203 6.19995 83.4 6.19995C73.6798 6.19995 65.8 14.0797 65.8 23.7999C65.8 33.5202 73.6798 41.4 83.4 41.4Z" stroke="white" stroke-miterlimit="10"/>
<path d="M118.5 35.9C128.22 35.9 136.1 28.0202 136.1 18.2999C136.1 8.57974 128.22 0.699951 118.5 0.699951C108.78 0.699951 100.9 8.57974 100.9 18.2999C100.9 28.0202 108.78 35.9 118.5 35.9Z" fill="#356E7A"/>
<path d="M153 43.3C162.72 43.3 170.6 35.4202 170.6 25.7C170.6 15.9798 162.72 8.09998 153 8.09998C143.28 8.09998 135.4 15.9798 135.4 25.7C135.4 35.4202 143.28 43.3 153 43.3Z" fill="#356E7A"/>
<path d="M158.2 8.90002C165.3 11.1 170.5 17.8 170.5 25.7C170.5 35.4 162.6 43.3 152.9 43.3C150 43.3 147.2 42.6 144.8 41.3" stroke="white" stroke-miterlimit="10"/>
<path d="M49.4 209.8C19.8 189 0.5 154.6 0.5 115.6C0.5 52 52 0.5 115.6 0.5C131.3 0.5 147.1 4.3 160.7 9.9" stroke="white" stroke-miterlimit="10"/>
<path d="M70.8 181.6C68.9 180.3 66.3 178 64.6 176.5C47.2 161.9 36.1 140 36.1 115.6C36.1 71.7 71.7 36.5 115.5 36.2C126.2 36.1 134.7 37.3 146.8 42.2" stroke="white" stroke-miterlimit="10"/>
</g>
<defs>
<clipPath id="clip0">
<rect width="171.1" height="213.9" fill="white"/>
</clipPath>
</defs>
</svg>
