<svg width="142" height="128" viewBox="0 0 142 128" fill="none" xmlns="http://www.w3.org/2000/svg">
<path d="M98.5955 43.8535L126.097 16.3044" stroke="white" stroke-miterlimit="10"/>
<path d="M96.5375 78.8989L121.794 104.012" stroke="white" stroke-miterlimit="10"/>
<path d="M102.15 63.3441H121.794" stroke="white" stroke-miterlimit="10"/>
<path d="M62.3004 52.6618L18.3347 22.489" stroke="white" stroke-miterlimit="10"/>
<path d="M75.3966 41.4172L72.029 23.8008" stroke="white" stroke-miterlimit="10"/>
<path d="M66.2293 82.2723L37.0435 111.508" stroke="white" stroke-miterlimit="10"/>
<path d="M131.149 21.7394C137.142 21.7394 142 16.8729 142 10.8697C142 4.86653 137.142 0 131.149 0C125.156 0 120.298 4.86653 120.298 10.8697C120.298 16.8729 125.156 21.7394 131.149 21.7394Z" fill="#356E7A"/>
<path d="M128.155 74.2137C134.148 74.2137 139.007 69.3472 139.007 63.3441C139.007 57.3409 134.148 52.4744 128.155 52.4744C122.163 52.4744 117.304 57.3409 117.304 63.3441C117.304 69.3472 122.163 74.2137 128.155 74.2137Z" fill="#356E7A"/>
<path d="M126.097 118.63C132.09 118.63 136.949 113.763 136.949 107.76C136.949 101.757 132.09 96.8901 126.097 96.8901C120.105 96.8901 115.246 101.757 115.246 107.76C115.246 113.763 120.105 118.63 126.097 118.63Z" fill="#356E7A"/>
<path d="M29.3729 127.813C35.3658 127.813 40.224 122.946 40.224 116.943C40.224 110.94 35.3658 106.073 29.3729 106.073C23.3799 106.073 18.5217 110.94 18.5217 116.943C18.5217 122.946 23.3799 127.813 29.3729 127.813Z" fill="#356E7A"/>
<path d="M10.8511 27.1742C16.844 27.1742 21.7022 22.3077 21.7022 16.3045C21.7022 10.3013 16.844 5.43481 10.8511 5.43481C4.85821 5.43481 0 10.3013 0 16.3045C0 22.3077 4.85821 27.1742 10.8511 27.1742Z" fill="#356E7A"/>
<path d="M70.9065 25.3002C76.8994 25.3002 81.7576 20.4336 81.7576 14.4305C81.7576 8.42732 76.8994 3.56079 70.9065 3.56079C64.9135 3.56079 60.0553 8.42732 60.0553 14.4305C60.0553 20.4336 64.9135 25.3002 70.9065 25.3002Z" fill="#356E7A"/>
<path d="M80.0738 36.3572C65.2938 36.3572 53.3202 48.3513 53.3202 63.1566C53.3202 77.9619 65.2938 89.956 80.0738 89.956C94.8538 89.956 106.827 77.9619 106.827 63.1566C107.014 48.5387 94.8538 36.3572 80.0738 36.3572ZM76.1449 73.2766V69.3411H80.0738L76.1449 59.4084L70.7194 73.2766H66.2293L74.087 53.4114H78.0158L86.0606 73.2766H76.1449ZM93.9183 73.2766H89.9895V53.4114H93.9183V73.2766Z" fill="#356E7A"/>
<path d="M80.0738 34.4832C64.1713 34.4832 51.4493 47.4143 51.4493 63.1567C51.4493 78.899 64.3584 91.8301 80.0738 91.8301C95.7892 91.8301 108.698 78.899 108.698 63.1567C108.698 47.4143 95.9763 34.4832 80.0738 34.4832ZM80.0738 91.0805C64.7325 91.0805 52.3847 78.7116 52.3847 63.3441C52.3847 47.9766 64.7325 35.6076 80.0738 35.6076C95.415 35.6076 107.763 47.9766 107.763 63.3441C107.95 78.7116 95.415 91.0805 80.0738 91.0805Z" fill="#356E7A"/>
<path d="M80.0738 35.4202C64.7325 35.4202 52.3847 47.7891 52.3847 63.1566C52.3847 78.5241 64.7325 90.8931 80.0738 90.8931C95.415 90.8931 107.95 78.7115 107.95 63.344C107.95 47.9765 95.415 35.4202 80.0738 35.4202ZM80.0738 90.1434C65.2938 90.1434 53.3202 78.1493 53.3202 63.344C53.3202 48.5388 65.2938 36.5446 80.0738 36.5446C94.8538 36.5446 106.827 48.5388 106.827 63.344C107.014 78.1493 94.8538 90.1434 80.0738 90.1434Z" fill="#356E7A"/>
</svg>
