<svg width="425" height="305" viewBox="0 0 425 305" fill="none" xmlns="http://www.w3.org/2000/svg">
<path fill-rule="evenodd" clip-rule="evenodd" d="M126.828 0V0.841379C146.566 0.841379 164.205 4.62759 179.743 12.6207C195.282 20.6138 208.72 31.131 219.639 44.5931C230.558 58.0552 238.958 74.0414 244.837 92.5517C250.716 111.062 253.656 131.255 253.656 153.131C253.656 175.007 250.716 195.2 244.837 213.71C238.958 232.221 230.558 248.207 219.639 261.669C208.72 275.131 195.282 285.648 179.743 293.641C164.205 301.214 146.566 305 126.828 305C107.09 305 89.4516 301.214 73.913 293.641C58.3745 285.648 44.9358 274.71 34.0168 261.248C23.0978 247.786 14.6986 231.8 8.81917 213.29C2.93972 194.779 0 174.586 0 152.71C0 130.834 2.93972 110.641 8.81917 92.131C14.6986 73.6207 23.0978 57.6345 34.0168 44.1724C44.9358 30.7103 58.3745 19.7724 73.913 11.7793C89.4516 3.78621 107.09 0 126.828 0ZM126.828 67.731C107.51 67.731 93.2312 75.3035 84.4121 90.869C75.5929 106.434 70.9733 127.048 70.9733 153.131C70.9733 179.214 75.5929 199.828 84.4121 215.393C93.2312 230.959 107.51 238.531 126.828 238.531C145.726 238.531 160.005 230.538 169.244 214.972C178.483 199.407 183.103 178.793 183.103 153.131C183.103 127.469 178.483 106.855 169.244 91.2897C160.005 75.7241 145.726 67.731 126.828 67.731ZM425 5.88966H377.544L281.793 101.807L325.049 143.034L336.808 131.255C339.748 128.311 342.267 125.366 344.787 122.421L344.788 122.421C347.307 119.476 349.407 116.952 351.087 114.428C352.767 111.903 354.447 110.221 355.707 108.959L357.386 106.855H357.806V112.324C357.806 115.69 357.806 120.317 357.386 125.786C356.966 131.255 356.546 137.145 356.546 143.876V163.228V300.372H424.58L425 5.88966Z" fill="white"/>
</svg>
