<svg width="184" height="185" viewBox="0 0 184 185" fill="none" xmlns="http://www.w3.org/2000/svg">
<g clip-path="url(#clip0)">
<path d="M183.721 110.591V139.08C183.721 139.08 155.251 153.514 155.642 153.271C156.032 153.028 155.642 124.884 155.642 124.884L183.721 110.591Z" stroke="white" stroke-linecap="round" stroke-linejoin="round"/>
<path d="M0.279114 79.2462V107.735C0.279114 107.735 28.7491 122.174 28.3528 121.932C27.9564 121.689 28.3528 93.5443 28.3528 93.5443L0.279114 79.2462Z" stroke="white" stroke-linecap="round" stroke-linejoin="round"/>
<path d="M0.279114 110.591V139.08C0.279114 139.08 28.7491 153.519 28.3528 153.277C27.9564 153.034 28.3528 124.884 28.3528 124.884L0.279114 110.591Z" stroke="white" stroke-linecap="round" stroke-linejoin="round"/>
<path d="M183.721 79.2462V107.735C183.721 107.735 155.251 122.174 155.642 121.932C156.032 121.689 155.642 93.5386 155.642 93.5386L183.721 79.2462Z" stroke="white" stroke-linecap="round" stroke-linejoin="round"/>
<path d="M0.279114 47.822V76.3053C0.279114 76.3053 28.7491 90.7445 28.3528 90.5017C27.9564 90.259 28.3528 62.1145 28.3528 62.1145L0.279114 47.822Z" stroke="white" stroke-linecap="round" stroke-linejoin="round"/>
<path d="M2.05429 45.6094L30.1447 59.8341L57.8611 45.8239C57.448 45.9819 29.7707 31.6105 29.7707 31.6105L2.05429 45.6094Z" stroke="white" stroke-linecap="round" stroke-linejoin="round"/>
<path d="M33.0196 29.9509L61.1268 44.1643L88.8432 30.1484C88.4189 30.3234 60.736 15.9407 60.736 15.9407L33.0196 29.9509Z" stroke="white" stroke-linecap="round" stroke-linejoin="round"/>
<path d="M63.9905 14.2981L92.1089 28.5058L119.825 14.49C119.384 14.6763 91.7069 0.282227 91.7069 0.282227L63.9905 14.2981Z" stroke="white" stroke-linecap="round" stroke-linejoin="round"/>
<path d="M33.282 61.3976L61.4059 75.6054L89.1223 61.5952C88.698 61.7702 61.0207 47.3875 61.0207 47.3875L33.282 61.3976Z" fill="#1A6F7C" stroke="white" stroke-miterlimit="10"/>
<path d="M64.2473 45.7222L92.3545 59.9356L120.071 45.9198C119.647 46.0948 91.9637 31.712 91.9637 31.712L64.2473 45.7222Z" fill="#1A6F7C" stroke="white" stroke-miterlimit="10"/>
<path d="M95.2183 30.0864L123.32 44.2941L151.036 30.2783C150.612 30.4533 122.935 16.0706 122.935 16.0706L95.2183 30.0864Z" stroke="white" stroke-linecap="round" stroke-linejoin="round"/>
<path d="M63.9905 76.9262L92.1089 91.134L119.825 77.1182C119.401 77.2931 91.7237 62.9104 91.7237 62.9104L63.9905 76.9262Z" stroke="white" stroke-linecap="round" stroke-linejoin="round"/>
<path d="M94.9559 61.2678L123.063 75.4755L150.779 61.4654C150.355 61.6347 122.672 47.252 122.672 47.252L94.9559 61.2678Z" fill="#1A6F7C" stroke="white" stroke-miterlimit="10"/>
<path d="M125.927 45.6093L154.028 59.834L181.745 45.8238C181.321 45.9988 153.643 31.6161 153.643 31.6161L125.927 45.6093Z" stroke="white" stroke-linecap="round" stroke-linejoin="round"/>
<path d="M183.721 47.8164V76.3053C183.721 76.3053 155.251 90.7445 155.642 90.5018C156.032 90.259 155.642 62.1145 155.642 62.1145L183.721 47.8164Z" stroke="white" stroke-linecap="round" stroke-linejoin="round"/>
<path d="M31.384 126.318V154.806C31.384 154.806 59.854 169.24 59.4577 168.997C59.0613 168.754 59.4577 140.61 59.4577 140.61L31.384 126.318Z" fill="#1A6F7C" stroke="white" stroke-miterlimit="10"/>
<path d="M152.616 126.318V154.801C152.616 154.801 124.146 169.24 124.542 168.997C124.939 168.754 124.542 140.61 124.542 140.61L152.616 126.318Z" stroke="white" stroke-linecap="round" stroke-linejoin="round"/>
<path d="M31.384 94.9724V123.461C31.384 123.461 59.854 137.9 59.4577 137.658C59.0613 137.415 59.4577 109.27 59.4577 109.27L31.384 94.9724Z" stroke="white" stroke-linecap="round" stroke-linejoin="round"/>
<path d="M152.616 94.9724V123.461C152.616 123.461 124.146 137.895 124.542 137.652C124.939 137.409 124.542 109.265 124.542 109.265L152.616 94.9724Z" fill="#1A6F7C" stroke="white" stroke-miterlimit="10"/>
<path d="M31.384 63.5426V92.0089C31.384 92.0089 59.854 106.448 59.4577 106.205C59.0613 105.963 59.4577 77.8181 59.4577 77.8181L31.384 63.5426Z" stroke="white" stroke-linecap="round" stroke-linejoin="round"/>
<path d="M152.616 63.5426V92.0089C152.616 92.0089 124.146 106.448 124.542 106.2C124.939 105.951 124.542 77.8125 124.542 77.8125L152.616 63.5426Z" stroke="white" stroke-linecap="round" stroke-linejoin="round"/>
<path d="M62.4666 142.032V170.521C62.4666 170.521 90.9365 184.955 90.5402 184.712C90.1439 184.469 90.5402 156.325 90.5402 156.325L62.4666 142.032Z" stroke="white" stroke-linecap="round" stroke-linejoin="round"/>
<path d="M121.533 142.032V170.516C121.533 170.516 93.0634 184.955 93.4598 184.712C93.8561 184.469 93.4598 156.325 93.4598 156.325L121.533 142.032Z" stroke="white" stroke-linecap="round" stroke-linejoin="round"/>
<path d="M62.4666 110.687V139.176C62.4666 139.176 90.9365 153.615 90.5402 153.373C90.1439 153.13 90.5402 124.985 90.5402 124.985L62.4666 110.687Z" stroke="white" stroke-linecap="round" stroke-linejoin="round"/>
<path d="M121.533 110.687V139.176C121.533 139.176 93.0634 153.61 93.4598 153.367C93.8561 153.124 93.4598 124.98 93.4598 124.98L121.533 110.687Z" stroke="white" stroke-linecap="round" stroke-linejoin="round"/>
<path d="M62.4666 79.2574V107.746C62.4666 107.746 90.9365 122.186 90.5402 121.943C90.1439 121.7 90.5402 93.5555 90.5402 93.5555L62.4666 79.2574Z" stroke="white" stroke-linecap="round" stroke-linejoin="round"/>
<path d="M121.533 79.2574V107.746C121.533 107.746 93.0634 122.18 93.4598 121.937C93.8561 121.694 93.4598 93.5499 93.4598 93.5499L121.533 79.2574Z" stroke="white" stroke-linecap="round" stroke-linejoin="round"/>
</g>
<defs>
<clipPath id="clip0">
<rect width="184" height="185" fill="white"/>
</clipPath>
</defs>
</svg>
