<svg width="222" height="117" viewBox="0 0 222 117" fill="none" xmlns="http://www.w3.org/2000/svg">
<g clip-path="url(#clip0)">
<path d="M110.8 57.3L205.3 0.5" stroke="white" stroke-miterlimit="10" stroke-linecap="round"/>
<path d="M110.8 57.3L208.2 5.5" stroke="white" stroke-miterlimit="10" stroke-linecap="round"/>
<path d="M110.8 57.2999L210.8 10.7" stroke="white" stroke-miterlimit="10" stroke-linecap="round"/>
<path d="M110.8 57.3L213.1 16" stroke="white" stroke-miterlimit="10" stroke-linecap="round"/>
<path d="M110.8 57.3L215.1 21.4" stroke="white" stroke-miterlimit="10" stroke-linecap="round"/>
<path d="M110.8 57.3L216.8 26.9" stroke="white" stroke-miterlimit="10" stroke-linecap="round"/>
<path d="M110.8 57.3L218.3 32.5" stroke="white" stroke-miterlimit="10" stroke-linecap="round"/>
<path d="M110.8 57.2999L219.4 38.2" stroke="white" stroke-miterlimit="10" stroke-linecap="round"/>
<path d="M110.8 57.3L220.3 43.9" stroke="white" stroke-miterlimit="10" stroke-linecap="round"/>
<path d="M110.8 57.3L220.8 49.6" stroke="white" stroke-miterlimit="10" stroke-linecap="round"/>
<path d="M110.8 57.3L221.1 55.4" stroke="white" stroke-miterlimit="10" stroke-linecap="round"/>
<path d="M110.8 57.3L221 61.2001" stroke="white" stroke-miterlimit="10" stroke-linecap="round"/>
<path d="M110.8 57.3L165.9 64.3001" stroke="#356E7A" stroke-miterlimit="10" stroke-linecap="round"/>
<path d="M111.1 57.3L163.5 57.4001" stroke="white" stroke-miterlimit="10" stroke-linecap="round"/>
<path d="M110.8 57.2001L167.6 51.8" stroke="white" stroke-miterlimit="10" stroke-linecap="round"/>
<path d="M111 57.1L172.2 44" stroke="white" stroke-miterlimit="10" stroke-linecap="round"/>
<path d="M111.1 57.1L179.6 34.9" stroke="white" stroke-miterlimit="10" stroke-linecap="round"/>
<path d="M111.1 57.1L184 25" stroke="white" stroke-miterlimit="10" stroke-linecap="round"/>
<path d="M111.1 57.2001L188.4 12.8" stroke="white" stroke-miterlimit="10" stroke-linecap="round"/>
<path d="M110.8 57.3L163.9 73.8001" stroke="#356E7A" stroke-miterlimit="10" stroke-linecap="round"/>
<path d="M110.8 57.3L160.2 82.8001" stroke="#356E7A" stroke-miterlimit="10" stroke-linecap="round"/>
<path d="M110.8 57.3L155 91" stroke="#356E7A" stroke-miterlimit="10" stroke-linecap="round"/>
<path d="M110.8 57.3L148.5 98.1" stroke="#356E7A" stroke-miterlimit="10" stroke-linecap="round"/>
<path d="M110.8 57.3L142 105.2" stroke="#356E7A" stroke-miterlimit="10" stroke-linecap="round"/>
<path d="M110.8 57.3L136.3 112.1" stroke="#356E7A" stroke-miterlimit="10" stroke-linecap="round"/>
<path d="M110.8 57.3L121.1 113.8" stroke="#356E7A" stroke-miterlimit="10" stroke-linecap="round"/>
<path d="M110.8 57.3L125.8 116.4" stroke="#356E7A" stroke-miterlimit="10" stroke-linecap="round"/>
<path d="M110.8 57.3L130.8 115.9" stroke="#356E7A" stroke-miterlimit="10" stroke-linecap="round"/>
<path d="M111 57L90 117" stroke="#356E7A" stroke-miterlimit="10" stroke-linecap="round"/>
<path d="M110.8 57.3L112.6 95.7" stroke="#356E7A" stroke-miterlimit="10" stroke-linecap="round"/>
<path d="M110.8 57.3L115.7 102.9" stroke="#356E7A" stroke-miterlimit="10" stroke-linecap="round"/>
<path d="M110.8 57.3L16.2 0.5" stroke="white" stroke-miterlimit="10" stroke-linecap="round"/>
<path d="M110.8 57.3L13.4 5.5" stroke="white" stroke-miterlimit="10" stroke-linecap="round"/>
<path d="M110.8 57.2999L10.8 10.7" stroke="white" stroke-miterlimit="10" stroke-linecap="round"/>
<path d="M110.8 57.3L8.5 16" stroke="white" stroke-miterlimit="10" stroke-linecap="round"/>
<path d="M110.8 57.3L6.5 21.4" stroke="white" stroke-miterlimit="10" stroke-linecap="round"/>
<path d="M110.8 57.3L4.79999 26.9" stroke="white" stroke-miterlimit="10" stroke-linecap="round"/>
<path d="M110.8 57.3L3.29999 32.5" stroke="white" stroke-miterlimit="10" stroke-linecap="round"/>
<path d="M110.8 57.2999L2.20001 38.2" stroke="white" stroke-miterlimit="10" stroke-linecap="round"/>
<path d="M110.8 57.3L1.29999 43.9" stroke="white" stroke-miterlimit="10" stroke-linecap="round"/>
<path d="M110.8 57.3L0.799988 49.6" stroke="white" stroke-miterlimit="10" stroke-linecap="round"/>
<path d="M110.8 57.3L0.5 55.4" stroke="white" stroke-miterlimit="10" stroke-linecap="round"/>
<path d="M110.8 57.3L0.599976 61.2001" stroke="white" stroke-miterlimit="10" stroke-linecap="round"/>
<path d="M110.8 57.3L55.7 64.3001" stroke="#356E7A" stroke-miterlimit="10" stroke-linecap="round"/>
<path d="M110.5 57.3L58 57.4001" stroke="white" stroke-miterlimit="10" stroke-linecap="round"/>
<path d="M110.8 57.2001L53.9 51.8" stroke="white" stroke-miterlimit="10" stroke-linecap="round"/>
<path d="M110.5 57.1L49.4 44" stroke="white" stroke-miterlimit="10" stroke-linecap="round"/>
<path d="M110.5 57.1L42 34.9" stroke="white" stroke-miterlimit="10" stroke-linecap="round"/>
<path d="M110.5 57.1L37.6 25" stroke="white" stroke-miterlimit="10" stroke-linecap="round"/>
<path d="M110.5 57.2001L33.2 12.8" stroke="white" stroke-miterlimit="10" stroke-linecap="round"/>
<path d="M110.8 57.3L57.7 73.8001" stroke="#356E7A" stroke-miterlimit="10" stroke-linecap="round"/>
<path d="M110.8 57.3L61.4 82.8001" stroke="#356E7A" stroke-miterlimit="10" stroke-linecap="round"/>
<path d="M110.8 57.3L66.6 91" stroke="#356E7A" stroke-miterlimit="10" stroke-linecap="round"/>
<path d="M110.8 57.3L73.1 98.1" stroke="#356E7A" stroke-miterlimit="10" stroke-linecap="round"/>
<path d="M110.8 57.3L79.6 105.2" stroke="#356E7A" stroke-miterlimit="10" stroke-linecap="round"/>
<path d="M110.8 57.3L85.3 112.1" stroke="#356E7A" stroke-miterlimit="10" stroke-linecap="round"/>
<path d="M110.8 57.3L100.5 113.8" stroke="#356E7A" stroke-miterlimit="10" stroke-linecap="round"/>
<path d="M110.8 57.3L95.8 116.4" stroke="#356E7A" stroke-miterlimit="10" stroke-linecap="round"/>
<path d="M110.8 57.3L109 95.7" stroke="#356E7A" stroke-miterlimit="10" stroke-linecap="round"/>
<path d="M110.8 57.3L105.9 102.9" stroke="#356E7A" stroke-miterlimit="10" stroke-linecap="round"/>
</g>
<defs>
<clipPath id="clip0">
<rect width="221.6" height="116.9" fill="white"/>
</clipPath>
</defs>
</svg>
