<svg width="500" height="305" viewBox="0 0 500 305" fill="none" xmlns="http://www.w3.org/2000/svg">
<path fill-rule="evenodd" clip-rule="evenodd" d="M126.891 0V0.839065C146.639 0.839065 164.286 4.61486 179.832 12.586C195.378 20.5571 208.824 31.0454 219.748 44.4704C230.672 57.8955 239.076 73.8377 244.958 92.2971C250.84 110.757 253.782 130.894 253.782 152.71C253.782 174.525 250.84 194.663 244.958 213.122C239.076 231.582 230.672 247.524 219.748 260.949C208.824 274.374 195.378 284.862 179.832 292.834C164.286 300.385 146.639 304.161 126.891 304.161C107.143 304.161 89.4958 300.385 73.9496 292.834C58.4034 284.862 44.958 273.955 34.0336 260.53C23.1092 247.105 14.7059 231.162 8.82353 212.703C2.94118 194.243 0 174.106 0 152.29C0 130.475 2.94118 110.337 8.82353 91.8776C14.7059 73.4182 23.1092 57.4759 34.0336 44.0509C44.958 30.6259 58.4034 19.718 73.9496 11.7469C89.4958 3.77579 107.143 0 126.891 0ZM126.891 67.5447C107.563 67.5447 93.2773 75.0963 84.4538 90.619C75.6302 106.142 71.0084 126.699 71.0084 152.71C71.0084 178.721 75.6302 199.278 84.4538 214.801C93.2773 230.323 107.563 237.875 126.891 237.875C145.798 237.875 160.084 229.904 169.328 214.381C178.571 198.858 183.193 178.301 183.193 152.71C183.193 127.118 178.571 106.561 169.328 91.0385C160.084 75.5158 145.798 67.5447 126.891 67.5447ZM286.975 81.3893L347.899 97.3315C351.681 86.4237 356.723 77.6135 363.445 70.901C370.168 64.1884 378.992 60.8322 389.916 60.8322C400.42 60.8322 408.824 63.7689 415.126 69.2228C421.429 74.6768 424.37 81.8088 424.37 90.619C424.37 99.4292 421.429 106.981 415.546 113.274C409.664 119.567 400.42 122.503 388.235 122.503H365.546V176.623H389.496C401.681 176.623 411.345 179.56 418.908 185.853C426.471 192.146 430.252 200.117 430.252 209.766C430.252 220.254 426.471 228.645 418.908 234.519C411.345 240.392 402.101 243.329 391.597 243.329C378.571 243.329 368.067 239.972 360.504 232.84C352.941 225.708 347.479 217.318 344.538 207.669L282.353 224.45C285.294 236.197 289.916 247.105 296.639 256.754C303.361 266.403 311.765 274.794 321.429 281.926C331.092 289.058 342.017 294.931 354.202 299.127C366.387 302.902 379.412 305 393.277 305C408.403 305 422.269 302.902 435.294 298.707C448.319 294.092 459.664 287.799 469.328 279.828C478.992 271.857 486.555 262.208 492.017 251.3C497.479 240.392 500 228.226 500 215.22C500 203.893 497.899 194.243 494.118 185.853C490.336 177.462 485.294 170.75 479.412 165.296C473.529 159.842 466.807 155.646 459.664 152.71C452.521 149.773 445.798 148.514 439.496 148.514V148.095C444.538 147.675 450 146.417 456.303 143.9C462.605 141.382 468.487 137.607 473.95 132.572C479.412 127.538 484.034 121.245 487.815 113.693C491.597 106.142 493.277 97.3315 493.277 86.8432C493.277 74.6768 490.756 63.3494 486.134 52.8611C481.513 42.3728 474.79 33.5626 465.966 26.011C457.143 18.4594 446.639 12.586 434.454 8.39065C422.269 4.19532 408.403 2.09766 392.857 2.09766C364.706 2.09766 341.597 9.22971 323.109 23.4938C304.622 37.7579 292.017 57.8955 285.294 83.4869L286.975 81.3893Z" fill="white"/>
</svg>
