<svg width="497" height="305" viewBox="0 0 497 305" fill="none" xmlns="http://www.w3.org/2000/svg">
<path fill-rule="evenodd" clip-rule="evenodd" d="M126.769 0.841379V0C107.04 0 89.4096 3.78621 73.8784 11.7793C58.3471 19.7724 44.9147 30.7103 34.0008 44.1724C23.087 57.6345 14.6917 73.6207 8.81503 92.131C2.93834 110.641 0 130.834 0 152.71C0 174.586 2.93834 194.779 8.81503 213.29C14.6917 231.8 23.087 247.786 34.0008 261.248C44.9147 274.71 58.3471 285.648 73.8784 293.641C89.4096 301.214 107.04 305 126.769 305C146.497 305 164.128 301.214 179.659 293.641C195.19 285.648 208.622 275.131 219.536 261.669C230.45 248.207 238.845 232.221 244.722 213.71C250.599 195.2 253.537 175.007 253.537 153.131C253.537 131.255 250.599 111.062 244.722 92.5517C238.845 74.0414 230.45 58.0552 219.536 44.5931C208.622 31.131 195.19 20.6138 179.659 12.6207C164.128 4.62759 146.497 0.841379 126.769 0.841379ZM84.3725 90.869C93.1875 75.3035 107.459 67.731 126.769 67.731C145.658 67.731 159.93 75.7241 169.165 91.2897C178.399 106.855 183.017 127.469 183.017 153.131C183.017 178.793 178.399 199.407 169.165 214.972C159.93 230.538 145.658 238.531 126.769 238.531C107.459 238.531 93.1875 230.959 84.3725 215.393C75.5574 199.828 70.94 179.214 70.94 153.131C70.94 127.048 75.5574 106.434 84.3725 90.869ZM288.001 81.2047C287.842 81.7606 287.688 82.3177 287.538 82.8759L287.958 81.1931L288.001 81.2047ZM288.001 81.2047C290.951 70.8667 295.394 60.9269 300.97 51.7448C306.847 42.069 314.403 33.2345 323.218 25.6621C332.033 18.0897 342.527 12.2 354.28 7.9931C366.034 3.78621 379.046 1.68276 393.318 1.68276C408.85 1.68276 422.702 3.78621 435.295 8.41379C447.888 13.0414 458.802 19.3517 468.036 27.7655C477.271 36.1793 484.407 45.8552 489.444 57.2138C494.481 68.5724 497 80.7724 497 94.2345C497 107.276 494.901 119.055 491.123 129.152C487.345 139.248 482.308 148.503 475.592 156.917C468.876 165.331 461.32 172.903 452.925 180.055L452.924 180.056C444.529 187.207 436.134 194.359 427.319 201.51C421.025 206.557 415.149 211.184 409.274 215.81L409.269 215.814C403.393 220.441 398.356 224.228 393.738 227.593L382.824 235.586L378.627 238.531L379.046 238.952C379.466 238.952 385.343 238.531 397.096 237.69C408.85 236.848 424.381 236.428 443.27 236.428H495.321V301.634H290.896V246.524L290.94 246.482C309.395 228.827 327.85 211.172 345.885 193.938C363.922 176.702 382.378 159.046 400.834 141.39L400.874 141.352C408.85 133.359 415.146 125.366 419.764 117.793C424.381 110.221 426.9 102.228 426.9 94.2345C426.9 85.4 423.541 77.8276 417.245 71.5172C410.948 65.2069 402.553 61.8414 392.059 61.8414C385.763 61.8414 380.306 63.1035 375.688 65.2069C371.071 67.3103 367.293 70.2552 363.935 73.6207C360.577 76.9862 357.639 80.7724 355.54 84.9793C353.441 89.1862 351.762 93.3931 350.503 98.0207L288.001 81.2047Z" fill="white"/>
</svg>
