<?xml version="1.0" encoding="utf-8"?>
<!-- Generator: Adobe Illustrator 23.0.1, SVG Export Plug-In . SVG Version: 6.00 Build 0)  -->
<!DOCTYPE svg PUBLIC "-//W3C//DTD SVG 1.1//EN" "http://www.w3.org/Graphics/SVG/1.1/DTD/svg11.dtd" [
	<!ENTITY st0 "opacity:0.07;fill:#231F20;">
	<!ENTITY st1 "fill:#FFFFFF;">
	<!ENTITY st2 "fill:#E8E8E8;">
	<!ENTITY st3 "fill:#CE304F;">
	<!ENTITY st4 "fill:#A0183F;">
	<!ENTITY st5 "fill:#F1F2F2;">
]>
<svg version="1.1" id="Layer_1" xmlns="http://www.w3.org/2000/svg" xmlns:xlink="http://www.w3.org/1999/xlink" x="0px" y="0px"
	 viewBox="0 0 200 200" style="enable-background:new 0 0 200 200;" xml:space="preserve">
<path style="&st0;" d="M193.14,88.54c-0.24-0.24-0.49-0.46-0.75-0.69c-0.41-0.35-0.85-0.68-1.3-1.02c-1.61-1.22-2.99-2.27-3.4-4.38
	c-0.19-0.98-0.3-2.11-0.35-3.44c-0.01-0.42-0.02-0.84-0.02-1.27c0-0.87,0.02-1.76,0.04-2.67l0.05-1.39
	c0.06-1.88,0.13-3.82,0.08-5.75c-0.01-0.49-0.04-0.97-0.07-1.46c-0.14-2.2-0.47-4.09-1.01-5.77c-0.61-1.91-1.84-3.86-3.65-5.81
	c-0.42-0.45-0.87-0.9-1.34-1.33c-0.93-0.86-1.96-1.7-3.07-2.49c-0.27-0.2-0.55-0.39-0.84-0.58c-0.84-0.57-1.73-1.11-2.64-1.62
	c-0.3-0.17-0.61-0.33-0.92-0.49c-0.62-0.32-1.25-0.63-1.89-0.92c-0.32-0.14-0.64-0.28-0.96-0.42c-0.65-0.27-1.3-0.52-1.96-0.75
	c-0.74-0.26-1.49-0.49-2.24-0.69l-1.13-1.39l-1.31-1.56l-0.77-0.88c0,0-0.51-0.58-0.72-0.81l-0.63-0.68l-0.62-0.65l-0.86-0.86
	l-0.6-0.56c-0.12-0.11-0.59-0.52-0.59-0.52c-0.13-0.11-0.26-0.21-0.43-0.35l-0.14-0.11c-0.19-0.15-0.39-0.29-0.57-0.41
	c-0.58-0.39-1.21-0.79-1.86-1.2c-0.64-0.4-1.31-0.81-1.99-1.23l-2.06-1.27c-3.4-2.11-6.84-4.37-8.95-6.65
	c-0.5-0.54-1.16-1.32-2.15-2.53c-0.61-0.75-1.28-1.58-1.99-2.46l-0.07-0.09c-0.64-0.8-1.32-1.63-2.02-2.49
	c-1.33-1.63-2.48-3.01-3.53-4.22c-0.37-0.43-0.75-0.86-1.12-1.28c-0.8-0.9-1.58-1.73-2.3-2.48c-0.34-0.35-0.68-0.69-1.01-1.01
	c-0.34-0.33-0.67-0.63-1-0.93c-0.29-0.26-0.57-0.51-0.85-0.74c-1.24-1.03-2.31-1.71-3.27-2.06c-1.23-0.46-2.67-1.14-4.19-1.85
	C116.05,2.43,110.9,0,105.77,0c-0.24,0-0.49,0.01-0.73,0.02c-1.8,0.08-3.62,0.24-5.41,0.48c-2.48,0.32-4.73,0.77-6.7,1.32
	C91.6,2.18,90.41,2.6,89.4,3.06c-0.37,0.16-0.71,0.33-1.04,0.51c-0.4,0.21-0.79,0.45-1.2,0.74c-0.59,0.41-1.06,0.81-1.42,1.22
	c0,0-0.22,0.21-0.29,0.28c-0.05,0.05-0.09,0.1-0.13,0.15c-2.62,2.63-7.59,5.37-12.24,5.62c-0.92,0.05-2.03,0.07-3.32,0.08
	c-6.29,0.09-15.8,0.22-22.08,4.86c-7.9,5.84-16.61,23.27-19.03,38.08c-2.34,14.31-2.87,33.04-1.21,42.64
	c1.6,9.3,3.32,24.22,3.32,31.62c0,2.14-0.2,4.11-0.64,6.12c-0.05,0.01-0.6,0.1-0.6,0.1c-0.27,0.05-0.52,0.1-0.77,0.15
	c0,0-0.3,0.07-0.3,0.07c-0.28,0.06-0.55,0.13-0.81,0.19l-0.15,0.04c-0.29,0.08-0.56,0.15-0.82,0.23c-0.01,0-0.02,0-0.02,0.01
	c-2.19,0.66-3.5,1.39-3.98,1.69c-4.36,1.87-5.85,4.87-6.94,7.06c-0.96,1.93-1.36,2.61-2.72,2.77c-4.23,0.5-4.46,3.6-4.56,5.09
	c-0.09,1.29-0.09,1.29-0.94,1.41l-4.92,0.66c-0.56,0.07-1.06,0.38-1.37,0.85c-0.31,0.47-0.41,1.04-0.27,1.59
	c0.36,1.38,1.71,3.8,4.5,4.11c0.38,0.04,0.75,0.08,1.1,0.1c-0.28,1.22-0.45,2.77-0.44,4.74c0.05,6.32,5.43,23.41,11.04,26.81
	c4.22,2.56,4.25,2.56,4.93,2.56c0.3,0,0.59-0.07,0.85-0.19c0.73,0.5,1.56,1.01,2.52,1.53c0.47,0.26,0.97,0.52,1.5,0.78l0.57,0.28
	l0.59,0.28c0.46,0.21,0.93,0.43,1.44,0.66c1.62,0.71,3.39,1.17,5.27,1.35c0.44,0.04,0.87,0.07,1.31,0.08
	C36.3,200,36.49,200,36.69,200c0.24,0,0.48,0,0.72-0.01c0.43-0.02,0.85-0.04,1.27-0.08c1.2-0.11,2.42-0.32,3.62-0.63
	c0.38-0.1,0.76-0.2,1.13-0.32c0.72-0.22,1.42-0.47,2.1-0.75c0.97-0.4,1.88-0.85,2.69-1.33c2.3-1.37,4.89-3.96,6.22-5.39
	c1.5-1.6,2.93-3.32,4.01-4.84c0.46-0.65,0.86-1.26,1.19-1.82c0.37-0.62,0.65-1.19,0.85-1.7c0.32-0.82,0.62-1.7,0.89-2.62
	c0.09-0.31,0.17-0.61,0.25-0.9c0.19,0.06,0.39,0.09,0.59,0.09c0.18,0,0.37-0.03,0.55-0.08c0.71-0.21,1.24-0.79,1.37-1.51
	c0.01-0.03,0.13-0.69,0.24-1.71c0.04-0.34,0.07-0.72,0.1-1.13c0.01-0.21,0.03-0.42,0.03-0.64c0.02-0.44,0.03-0.91,0.02-1.4
	c-0.01-1.42-0.15-2.74-0.4-3.92c-0.27-1.24-0.59-2.45-0.91-3.53c0.06,0.03,0.12,0.06,0.18,0.1c0.12,0.06,0.23,0.13,0.34,0.2
	c0.25,0.16,0.36,0.27,0.41,0.32c0.3,0.75,1.03,1.24,1.82,1.24c0.1,0,0.21-0.01,0.32-0.03c0.95-0.15,1.65-0.97,1.65-1.94
	c0-3.03-0.93-5.75-2.68-7.87c-0.2-0.25-0.41-0.48-0.62-0.69c-0.38-0.39-0.79-0.75-1.21-1.08c-0.32-0.25-0.62-0.45-0.89-0.62
	c0.02-0.91-0.04-2.18-0.31-3.61c-0.73-3.71-2.64-6.79-5.53-8.91l-1.73-1.28c-0.52-0.38-1.03-0.76-1.53-1.12
	c-0.47-0.34-0.93-0.66-1.4-0.98c-0.6-0.41-1.2-0.81-1.8-1.18c-0.36-0.22-0.73-0.44-1.1-0.65c-1.37-0.77-2.75-1.38-4.17-1.86
	c0.01-0.99,0.04-4.12,0.04-4.59c0.59,0.38,1.27,0.58,1.99,0.58c1.7,0,3.14-1.11,3.57-2.75c2.99-11.32,15.11-38.14,62.96-42.69
	c11.29-1.07,21.06-1.62,29.05-1.62c1.5,0,2.96,0.02,4.35,0.06c0.1,0.02,0.2,0.03,0.31,0.03c24.07,0.74,26.88,6.82,29.86,13.27
	c0.27,0.57,0.53,1.15,0.82,1.75c0.24,0.49,0.45,0.95,0.64,1.39c0,0,0.08,0.17,0.08,0.17c1.44,3.3,1.58,4.97,1.57,5.54
	c-0.01,0.6,0.22,1.16,0.64,1.58c0.41,0.42,0.99,0.66,1.58,0.66c0,0,0,0,0,0c0.44,0,0.87-0.13,1.22-0.37
	c2.06-1.35,8.93-6.2,10.97-12.12c0.14-0.41,0.26-0.82,0.35-1.22C195.63,92.68,195.04,90.46,193.14,88.54z"/>
<path style="&st0;" d="M49.22,130.15c11.89-29.69,40.63-40.39,87.56-40.33c38.85,0.04,35.7,4.81,45.48,17.21
	c3.34,0.29,7.16-6.58,8.18-9.62s-22.42-42.08-77.39-24.23s-65.72,37.53-66.33,44.22C46.1,124.1,46,128.93,49.22,130.15z"/>
<path style="&st1;" d="M23.58,139.21c-7.3,3.04-5.17,9.43-10.35,10.04s-0.56,5.83-5.48,6.49s-4.92,0.66-4.92,0.66
	s0.63,2.41,2.83,2.66c3.89,0.45,4.17-0.36,4.17-0.36s-1.82,1.25-1.77,7.13s5.32,22.26,10.09,25.15c4.77,2.89,3.9,2.28,3.8,2.08
	c-0.1-0.2-2.69-3.7-2.08-6.64c0.25,3.5,0.97,6.18,10.45,10.35c6.05,2.66,13.13,0.66,16.89-1.57c3.75-2.23,10.14-9.43,11.46-12.78
	c1.32-3.35,1.72-6.59,1.72-6.59l1.83,1.93c0,0,0.81-4.26,0-8.01c-0.81-3.75-2.13-7.1-2.13-7.1s5.27,1.22,5.88,3.04
	c0-7-5.48-9.13-5.48-9.13s1.12-7.61-4.97-12.07s-10.04-7.91-18.97-8.01S23.58,139.21,23.58,139.21z"/>
<path style="&st2;" d="M62.23,177.75c0,0,0.81-4.26,0-8.01c-0.81-3.75-2.13-7.1-2.13-7.1s5.27,1.22,5.88,3.04
	c0-7-5.48-9.13-5.48-9.13s1.12-7.61-4.97-12.07c-6.09-4.46-10.04-7.91-18.97-8.01c-4.14-0.05-7.22,0.54-9.35,1.18l1.22,2.67
	c0,0-4.85,0.2-5.46,2.43c1.98-2.33,4.56,0.33,4.56,0.33s-4.64,2.05-4.11,5.55c0.76-4.64,5-2.28,5-2.28s-2.28,0.84-2.73,3.35
	c2.73,1.07,4.72-1.45,4.72-1.45s1.98,2.43,1.07,4.94c2.21-3.04,4.18-4.18,6.09-3.8c1.9,0.38,3.12,3.73,2.43,5.55
	c1.9-1.75,3.04-0.91,3.04-0.91s1.98,4.34,0.53,7.61c-1.45,3.27-4.03,3.05-4.03,3.05s2.43,0.53,2.88,1.82
	c0.46,1.29-3.35,3.35-1.98,6.09c1.22-3.65,3.19-0.84,3.19-0.84s2.13,4.49,0.76,7.38c-1.37,2.89-3.04,4.41-5.25,4.56
	c3.29,0.63,4.18,3.88,2.43,5.17c-1.75,1.29-3.65,0.76-3.65-0.68c-0.99,1.9,1.6,3.5-0.3,3.88c-1.9,0.38-6.9,4.5-11.28,2.76
	c1.12,0.61,2.41,1.25,3.95,1.93c6.05,2.66,13.13,0.66,16.89-1.57s10.14-9.43,11.46-12.78c1.32-3.35,1.72-6.59,1.72-6.59
	L62.23,177.75z"/>
<path style="&st3;" d="M171.46,54.92c0,0-9.43-13.39-14-16.43c-4.56-3.04-11.56-6.69-15.21-10.65S128.56,9.89,123.69,8.06
	c-4.87-1.83-11.87-6.39-18.56-6.09S89.91,3.8,87.18,6.85c-2.74,3.04-8.52,6.39-14,6.69c-5.48,0.3-17.34-0.61-24.34,4.56
	S33.01,40.01,30.58,54.92s-2.74,33.17-1.22,41.99c1.52,8.82,3.35,24.04,3.35,31.95c0,7.91-2.74,11.87-2.74,14.3
	s-0.27,3.96,3.97,4.56s9.42-1.83,9.11-5.48c-0.3-3.65,0.61-28.91-0.61-40.47c-1.22-11.56-4.87-11.87,20.39-34.08
	s67.85-22.21,67.85-22.21s17.4-0.83,27.72,2.42S171.46,54.92,171.46,54.92z"/>
<path style="&st4;" d="M64.38,27.4c-0.18-0.16-0.41-0.23-0.63-0.23c-0.26,0-0.52,0.1-0.71,0.3c-3.97,4.15-7.87,8.65-11.61,13.38
	c-1.11,1.43-2.32,3.04-3.53,4.75l0.5-6.22c0.22-2.05,1.01-4.28,2.35-6.62c1.26-2.16,2.75-4.15,4.44-5.92
	c0.36-0.38,0.36-0.98-0.01-1.36c-0.19-0.2-0.45-0.3-0.7-0.3c-0.24,0-0.47,0.08-0.66,0.26c-1.93,1.75-3.68,3.77-5.2,5.99
	c-1.74,2.6-2.8,5.06-3.26,7.55l-2.19,14.4c-0.53,1.06-0.95,1.96-1.3,2.82c-2.03,5.05-3.3,10.69-4,17.75
	c-0.53,5.41-0.71,11.25-0.56,17.83c0.01,0.53,0.45,0.96,0.98,0.96c0,0,3.19-0.04,3.19-0.04c0.53-0.01,0.97-0.44,0.97-0.97
	c0.03-5.89,0.1-11.65,0.56-17.31c0.48-5.41,1.19-11.16,3.18-16.57c1.82-5.18,4.9-9.99,8.17-14.88c3.4-5.05,7.04-10,10.19-14.24
	C64.84,28.31,64.77,27.73,64.38,27.4z"/>
<path style="&st4;" d="M157.47,38.49c-4.56-3.04-11.56-6.69-15.21-10.65c-3.65-3.96-13.69-17.95-18.56-19.78
	c-4.87-1.83-11.87-6.39-18.56-6.09c-6.69,0.3-15.21,1.83-17.95,4.87c-0.09,0.1-0.22,0.21-0.32,0.32c3.7,0.92,6.57,2.27,8.23,4.31
	c6.39,7.85,4.26,14.85,13.69,21.85c7.82,5.8,6.04,9.3,19.56,12.23c1.49-0.06,2.34-0.06,2.34-0.06s17.4-0.83,27.72,2.42
	c1.19,0.38,2.27,0.76,3.26,1.14c1.86,0.07,3.73,0.14,5.59,0.19C164.15,45.21,160.04,40.21,157.47,38.49z"/>
<path style="&st1;" d="M45.55,129.09c0.84,1.24,2.74,0.93,3.12-0.52c2.73-10.33,14.79-39.4,64.67-44.14
	c60.86-5.78,61.71,4.98,66.33,14.57c2.43,5.03,2.66,7.17,2.57,8.02c-0.02,0.18,0.18,0.29,0.33,0.19c1.92-1.26,9.17-6.33,10.49-12.13
	c1.52-6.69-6.09-5.97-7.3-12.26c-1.22-6.3,0.91-14.82-1.22-21.51S170.68,47,161.12,46.71c-9.57-0.29-33.17-3.65-46.56-1.52
	c-13.39,2.13-58.73,20.39-66.64,32.25S34.54,97.52,35.45,103s6.39,9.43,6.09,15.52C41.35,122.15,43.66,126.32,45.55,129.09z"/>
<g>
	<path style="&st5;" d="M185.76,82.82c-1.22-6.3,0.91-14.82-1.22-21.51c-2.13-6.69-13.86-14.31-23.43-14.61
		c-5-0.15-13.85-1.14-23.06-1.75c2.08,4.04,5.16,10.45,8.15,18.18c2.22,5.75,2.03,13.17,1.09,19.77
		c27.4,0.84,28.82,8.81,32.38,16.11c2.22,4.54,2.51,6.96,2.5,8c0,0.21,0.23,0.33,0.4,0.21c2.51-1.7,9.27-6.79,10.49-12.13
		C194.59,88.39,186.98,89.12,185.76,82.82z"/>
</g>
</svg>
