<svg width="130" height="28" viewBox="0 0 130 28" fill="none" xmlns="http://www.w3.org/2000/svg">
<g id="Logo">
<g id="Group">
<path id="Path" d="M117.495 27.1049C117.544 27.1049 117.577 27.0946 117.604 27.0809C117.535 27.1037 117.48 27.1049 117.48 27.1049H117.495Z" fill="#78BED7"/>
<path id="Path_2" d="M107.861 26.8928C109.47 22.8331 111.095 18.7346 112.727 14.6167C110.892 9.98732 109.047 5.33329 107.202 0.678467H97.0894C96.9008 0.678467 96.9714 0.849038 96.9714 0.849038C100.535 9.47376 104.17 18.269 107.733 26.8938C107.772 26.9864 107.844 27.0279 107.903 27.0473C107.819 27.0048 107.861 26.8928 107.861 26.8928Z" fill="#78BED7"/>
<path id="Path_3" d="M128.365 0.678467H118.252C116.407 5.33329 114.562 9.98732 112.727 14.6167C111.095 18.7346 109.47 22.8331 107.861 26.8928C107.861 26.8928 107.819 27.0048 107.903 27.0473C107.922 27.0571 107.947 27.0643 107.982 27.0643H107.992H117.462C117.462 27.0643 117.502 27.0635 117.551 27.0473C117.61 27.0279 117.682 26.9864 117.721 26.8938C121.284 18.2691 124.919 9.47378 128.483 0.849056C128.483 0.849038 128.553 0.678467 128.365 0.678467Z" fill="#89E872"/>
</g>
<path id="Shape" fill-rule="evenodd" clip-rule="evenodd" d="M17.6595 16.5919V21.0343H13.5869V6.56567H20.3954C21.1192 6.56567 21.7876 6.71189 22.4004 7.00386C23.013 7.29615 23.5386 7.67637 23.9771 8.14503C24.4159 8.61383 24.7604 9.15056 25.0111 9.755C25.2616 10.3596 25.387 10.9674 25.387 11.5788C25.387 12.4214 25.199 13.2058 24.823 13.9325C24.4471 14.6595 23.925 15.2538 23.2567 15.7155L26.5983 21.0343H22.0036L19.1841 16.5919H17.6595ZM20.124 10.0301H17.6595V13.1275H20.2284C20.4791 13.1275 20.7119 12.9919 20.928 12.72C21.1437 12.4484 21.2518 12.0678 21.2518 11.5788C21.2518 11.0763 21.1264 10.6923 20.8759 10.4273C20.6252 10.1626 20.3745 10.0301 20.124 10.0301Z" fill="black"/>
<path id="Path_4" d="M92.6043 6.56567H79.9897V10.0299H84.2713V21.0343H88.3438V10.0299H92.6043V6.56567Z" fill="black"/>
<path id="Shape_2" fill-rule="evenodd" clip-rule="evenodd" d="M39.2314 18.9252C38.6048 19.5977 37.853 20.1378 36.9759 20.5453C36.0987 20.9528 35.138 21.1567 34.0937 21.1567C33.0355 21.1567 32.0711 20.9462 31.2012 20.5249C30.3308 20.104 29.5858 19.5502 28.9665 18.8641C28.3468 18.1782 27.8665 17.3937 27.5254 16.5104C27.1841 15.6274 27.0137 14.7171 27.0137 13.7796C27.0137 12.8289 27.1912 11.912 27.5462 11.0287C27.9013 10.1457 28.3989 9.36784 29.0396 8.69533C29.6798 8.02282 30.4352 7.48626 31.3055 7.0855C32.1755 6.68493 33.1331 6.48438 34.1774 6.48438C35.2352 6.48438 36.1996 6.69501 37.0699 7.11598C37.9399 7.53727 38.6848 8.09418 39.3046 8.78707C39.9239 9.47995 40.401 10.268 40.7352 11.1509C41.0693 12.0342 41.2363 12.9375 41.2363 13.8613C41.2363 14.8123 41.0588 15.7258 40.7038 16.6022C40.3489 17.4784 39.858 18.2527 39.2314 18.9252ZM31.8695 11.2019C31.6258 11.5621 31.4445 11.9696 31.3264 12.4245C31.2079 12.8799 31.1489 13.3451 31.1489 13.8205C31.1489 14.3095 31.2079 14.7817 31.3264 15.2367C31.4445 15.692 31.6293 16.0961 31.8798 16.4493C32.1305 16.8027 32.4438 17.088 32.8198 17.3051C33.1957 17.5225 33.6342 17.6312 34.1354 17.6312C34.6505 17.6312 35.0962 17.5191 35.4721 17.295C35.8481 17.0708 36.1542 16.7788 36.391 16.4186C36.6276 16.059 36.8051 15.6478 36.9236 15.1857C37.0417 14.724 37.1011 14.2554 37.1011 13.7796C37.1011 13.2906 37.0385 12.8188 36.9132 12.3634C36.788 11.9085 36.6031 11.5076 36.3598 11.1611C36.116 10.8147 35.8063 10.5363 35.4304 10.3257C35.0544 10.1152 34.6159 10.0097 34.1145 10.0097C33.5993 10.0097 33.1572 10.1186 32.7884 10.3358C32.4194 10.5532 32.1129 10.842 31.8695 11.2019Z" fill="black"/>
<path id="Shape_3" fill-rule="evenodd" clip-rule="evenodd" d="M4.24497 16.5919V21.0343V21.0343H0.172363V6.56567H6.56316C7.28701 6.56567 7.95536 6.71189 8.56822 7.00386C9.18074 7.29615 9.70636 7.67637 10.1449 8.14503C10.5835 8.61383 10.9282 9.15056 11.1788 9.755C11.4294 10.3596 11.5548 10.9674 11.5548 11.5788C11.5548 12.2175 11.4363 12.839 11.1997 13.4434C10.9628 14.0481 10.6322 14.5846 10.2075 15.0533C9.78275 15.5219 9.26782 15.8958 8.66209 16.174C8.05654 16.4528 7.3914 16.5919 6.66755 16.5919H4.24497ZM6.29162 10.0301H4.24497V13.1275H6.39616C6.64667 13.1275 6.87969 13.0155 7.09575 12.7913C7.31146 12.5671 7.4194 12.163 7.4194 11.5788C7.4194 10.9811 7.29415 10.5736 7.04347 10.3561C6.79298 10.1388 6.5423 10.0301 6.29162 10.0301Z" fill="black"/>
<path id="Path_5" d="M41.6724 20.3618C42.5632 20.9598 43.6355 21.2585 44.8887 21.2585C46.239 21.2585 47.3145 21.0817 48.1154 20.7286C48.9158 20.3756 49.5251 19.8797 49.9428 19.241C50.3605 18.6026 50.632 17.8318 50.7573 16.9281C50.8827 16.0247 50.9453 15.0228 50.9453 13.9224V6.56567H46.8727V13.9224C46.8727 14.6151 46.8519 15.203 46.8101 15.6851C46.7683 16.1674 46.6776 16.5613 46.5386 16.867C46.3992 17.1726 46.1973 17.3936 45.9328 17.5292C45.6682 17.6651 45.32 17.733 44.8887 17.733C44.5963 17.733 44.3142 17.7061 44.0428 17.6516C43.7713 17.5974 43.5311 17.5363 43.3222 17.4681C43.1134 17.4004 42.9391 17.3325 42.8001 17.2644C42.6608 17.1965 42.5703 17.1491 42.5286 17.1217L41.6724 20.3618Z" fill="black"/>
<path id="Path_6" d="M57.9149 17.5701V15.2876H63.3033V12.0678H57.9149V10.0301H64.2222V6.56567H53.8423V21.0343H64.4102V17.5701H57.9149Z" fill="black"/>
<path id="Path_7" d="M66.3352 16.4083C66.683 17.3051 67.167 18.1068 67.7867 18.813C68.406 19.5197 69.1475 20.0867 70.0108 20.5146C70.874 20.9425 71.8207 21.1565 72.8513 21.1565C73.4361 21.1565 74.0346 21.0816 74.6474 20.9324C75.2599 20.783 75.8378 20.5656 76.3808 20.2803C76.9239 19.995 77.4074 19.6419 77.8324 19.2206C78.2568 18.7996 78.5737 18.324 78.7826 17.7941L75.4619 15.8582C75.3502 16.1843 75.2009 16.4593 75.0128 16.6836C74.825 16.9076 74.616 17.0911 74.3864 17.2337C74.1566 17.3763 73.9164 17.4783 73.6657 17.5394C73.4151 17.6005 73.1714 17.6311 72.9348 17.6311C72.4613 17.6311 72.04 17.526 71.6712 17.3152C71.3022 17.1047 70.9889 16.823 70.7315 16.4696C70.4737 16.1164 70.2788 15.7089 70.1466 15.2468C70.0142 14.7851 69.9482 14.3027 69.9482 13.8C69.9482 13.3517 70.0037 12.9002 70.1154 12.4448C70.2266 11.9898 70.4041 11.5822 70.648 11.2222C70.8913 10.8623 71.1977 10.57 71.5668 10.3458C71.9356 10.1218 72.3777 10.0096 72.893 10.0096C73.1155 10.0096 73.3594 10.037 73.624 10.0911C73.8882 10.1456 74.1389 10.2408 74.3759 10.3764C74.6124 10.5124 74.8317 10.6957 75.0337 10.9266C75.2353 11.1577 75.3993 11.4497 75.5245 11.8029L78.6363 9.64282C78.1628 8.69209 77.432 7.92784 76.4435 7.35023C75.4548 6.77294 74.2991 6.48413 72.9765 6.48413C71.8487 6.48413 70.8426 6.69493 69.9587 7.1159C69.0743 7.53719 68.3225 8.08732 67.7032 8.76645C67.0834 9.44608 66.6136 10.2133 66.2933 11.0693C65.9729 11.9251 65.813 12.7947 65.813 13.6777C65.813 14.6018 65.987 15.5118 66.3352 16.4083" fill="black"/>
</g>
</svg>
