<svg xmlns="http://www.w3.org/2000/svg" xmlns:xlink="http://www.w3.org/1999/xlink" viewBox="0 0 288 288"><defs><style>.cls-1{fill:#8d1b42;}.cls-2{isolation:isolate;}.cls-3{fill:#e6ae89;}.cls-4{fill:#ffcfb0;}.cls-5{fill:#4d163b;}.cls-6{fill:#991e4d;}.cls-7{fill:#631c4c;}.cls-8{fill:#ef4044;}.cls-9{fill:#bd2660;}.cls-10{fill:#a32153;}.cls-11{fill:#ffece0;}.cls-12{fill:#992563;}.cls-13{fill:#d4393c;}.cls-14{fill:#732058;}.cls-15{fill:#18274d;}.cls-16{fill:#1c2d59;}.cls-17{fill:#c42f48;}.cls-18{fill:#801f2f;}.cls-19{fill:#cf5b6f;}.cls-20{fill:none;stroke:#853a47;stroke-linecap:round;stroke-miterlimit:10;}.cls-21{fill:#a6283c;}.cls-22{fill:#6b1f52;}.cls-23{fill:#d18995;}.cls-24{fill:#221f1f;}.cls-25{fill:#7a1a34;}.cls-26,.cls-32{opacity:0.5;}.cls-26{mix-blend-mode:darken;fill:url(#Névtelen_színátmenet_17);}.cls-27{fill:#4c9c73;}.cls-28{fill:#e8d7cc;}.cls-29{fill:#891b3f;}.cls-30{clip-path:url(#clip-path);}.cls-31{opacity:0.75;fill:url(#Névtelen_színátmenet_28);}.cls-31,.cls-32{mix-blend-mode:lighten;}.cls-32{fill:#fa9600;}.cls-33{clip-path:url(#clip-path-2);}.cls-34{fill:url(#radial-gradient);}.cls-35{fill:#f7f7f7;}.cls-36,.cls-38{opacity:0.2;}.cls-36,.cls-37,.cls-38{mix-blend-mode:multiply;}.cls-36{fill:url(#linear-gradient);}.cls-37{opacity:0.3;fill:url(#linear-gradient-2);}.cls-38{fill:url(#linear-gradient-3);}.cls-39{opacity:0.4;}.cls-40{fill:url(#linear-gradient-4);}.cls-41{fill:url(#linear-gradient-5);}.cls-42{fill:url(#linear-gradient-6);}.cls-43{fill:url(#linear-gradient-7);}.cls-44{fill:#d53252;}.cls-45{fill:#404040;}.cls-46{font-size:3.72px;fill:#929497;font-family:WorkSans-SemiBold, Work Sans;font-weight:600;}.cls-47{letter-spacing:-0.02em;}.cls-48{letter-spacing:-0.01em;}.cls-49{letter-spacing:-0.02em;}</style><radialGradient id="Névtelen_színátmenet_17" cx="207.58" cy="175.6" r="66.06" gradientUnits="userSpaceOnUse"><stop offset="0" stop-color="#fff"/><stop offset="1" stop-opacity="0.4"/></radialGradient><clipPath id="clip-path"><path class="cls-1" d="M190.44,169a1.43,1.43,0,1,0,2.81,0,.82.82,0,0,0-1.41-.55.79.79,0,0,0-.63-.25C190.46,168.16,190.44,169,190.44,169Zm.8,0h.18v-.1h1v1a.16.16,0,0,1-.17.14h-.65s-.18,0-.18-.14v-.07h-.21a.07.07,0,0,1-.07-.07v-.64A.09.09,0,0,1,191.24,169Z"/></clipPath><linearGradient id="Névtelen_színátmenet_28" x1="34.41" y1="66.15" x2="170.86" y2="136.64" gradientUnits="userSpaceOnUse"><stop offset="0" stop-color="#bf7c17"/><stop offset="0.16" stop-color="#cf881e"/><stop offset="0.47" stop-color="#e79b29"/><stop offset="0.76" stop-color="#f5a630"/><stop offset="1" stop-color="#faaa32"/></linearGradient><clipPath id="clip-path-2"><path class="cls-1" d="M113.73,143a2.24,2.24,0,0,0-1.82.73,2.24,2.24,0,0,0-1.82-.73c-2.18,0-2.23,2.31-2.23,2.31,0,3.89,4,4.91,4,4.91s4.06-1,4.06-4.91A2.29,2.29,0,0,0,113.73,143Zm.22,2.57v1.83a.22.22,0,0,1-.22.22h-.6v.2c0,.4-.52.41-.52.41h-1.86a.47.47,0,0,1-.51-.41V145h2.89v.29h.53A.28.28,0,0,1,114,145.61Z"/></clipPath><radialGradient id="radial-gradient" cx="237.38" cy="40.94" r="20.9" gradientUnits="userSpaceOnUse"><stop offset="0.35" stop-color="#ef4044"/><stop offset="1" stop-color="#bc2560"/></radialGradient><linearGradient id="linear-gradient" x1="223.25" y1="48.94" x2="228.45" y2="54.14" gradientUnits="userSpaceOnUse"><stop offset="0" stop-opacity="0"/><stop offset="1"/></linearGradient><linearGradient id="linear-gradient-2" x1="228.44" y1="51.6" x2="229.91" y2="51.6" gradientUnits="userSpaceOnUse"><stop offset="0" stop-color="#221f1f"/><stop offset="0.07" stop-color="#585555"/><stop offset="0.15" stop-color="#8a8888"/><stop offset="0.23" stop-color="#b4b3b3"/><stop offset="0.31" stop-color="#d5d4d4"/><stop offset="0.38" stop-color="#ececec"/><stop offset="0.44" stop-color="#fafafa"/><stop offset="0.5" stop-color="#fff"/></linearGradient><linearGradient id="linear-gradient-3" x1="227.68" y1="50.28" x2="230.32" y2="52.91" xlink:href="#linear-gradient"/><linearGradient id="linear-gradient-4" x1="231.45" y1="54.17" x2="227.39" y2="50.11" xlink:href="#linear-gradient"/><linearGradient id="linear-gradient-5" x1="232.41" y1="53.2" x2="228.35" y2="49.15" xlink:href="#linear-gradient"/><linearGradient id="linear-gradient-6" x1="231.38" y1="54.24" x2="227.32" y2="50.18" xlink:href="#linear-gradient"/><linearGradient id="linear-gradient-7" x1="230.1" y1="55.53" x2="226.12" y2="51.54" xlink:href="#linear-gradient"/></defs><title>Rajztábla 1</title><g class="cls-2"><g id="Réteg_2_másolat_4" data-name="Réteg 2 másolat 4"><path class="cls-1" d="M151.42,100.58c3.18,0,3.25,3.35,3.25,3.35,0,5.65-5.9,7.14-5.9,7.14s-5.89-1.49-5.89-7.14c0,0,.07-3.35,3.25-3.35a3.22,3.22,0,0,1,2.64,1A3.25,3.25,0,0,1,151.42,100.58Z"/><path class="cls-1" d="M84.4,82.19c3.19,0,3.25,3.35,3.25,3.35,0,5.66-5.89,7.15-5.89,7.15s-5.9-1.49-5.9-7.15c0,0,.07-3.35,3.25-3.35a3.28,3.28,0,0,1,2.65,1A3.26,3.26,0,0,1,84.4,82.19Z"/><path class="cls-1" d="M118.61,117c3.19,0,3.25,3.35,3.25,3.35,0,5.65-5.9,7.14-5.9,7.14s-5.89-1.49-5.89-7.14c0,0,.07-3.35,3.25-3.35a3.25,3.25,0,0,1,2.64,1A3.28,3.28,0,0,1,118.61,117Z"/><path class="cls-3" d="M154.92,125.48a1.74,1.74,0,0,0-.38-.14l-3.61-.85a3,3,0,0,0-.9-.06l-3.25,1.16h-.23l-.15-.07,0,.08-.24,0-.81.54,0,.06a2.11,2.11,0,0,0-1.25,2.15l1.37-1.95.2.33.4,0-.11.45,1.81,2.17c-.14-2.56,2.42-2.14,2.42-2.14l1.83.7a3.7,3.7,0,0,1,.66.33l.89.56a1.33,1.33,0,0,0,1.42,0l-1.82-1.6a1.24,1.24,0,0,0-.34-.22l-2.24-1a3.82,3.82,0,0,1,.68,0l2.65.42a3.45,3.45,0,0,1,.72.18l1,.37a1.36,1.36,0,0,0,1.4-.29Z"/><path class="cls-3" d="M158.89,123.05a1.57,1.57,0,0,1-1.5.69l-1.21-.15a4.13,4.13,0,0,0-.86,0l-3.11.23a5,5,0,0,0-1.9.53l-2.25,1.15a3.28,3.28,0,0,0-.66,1.59v0a2.45,2.45,0,0,0,.51,1.68,1.81,1.81,0,0,0,1.63.66h0a3.53,3.53,0,0,1,1.48.14l2.05.61a1.08,1.08,0,0,1,.77,1v.72a.27.27,0,0,1-.28.28h-2.08a9.08,9.08,0,0,0-2.2.27l-2,.51a4,4,0,0,1-1,.12h-2.86a4.89,4.89,0,0,1-.54,0c-1-.09-5.1.36-6.79,1.86,0,0-2.4-1.11-2.2-2.86a2,2,0,0,1,.28-.83l7.25-5.07a7.27,7.27,0,0,1,.89-.54l3.33-1.75,4.71-1.54a3.27,3.27,0,0,1,1-.17h4.31a1.84,1.84,0,0,1,.47.07l2.39.7Z"/><path class="cls-4" d="M158.57,123a1.6,1.6,0,0,1-1.18.33l-1.21-.16a4.94,4.94,0,0,0-.86,0l-3.11.23a5,5,0,0,0-1.9.53L148.06,125a3,3,0,0,0-.66,2v0a2.45,2.45,0,0,0,.51,1.68,1.81,1.81,0,0,0,1.63.66h0a3.53,3.53,0,0,1,1.48.14l2.05.61a1.08,1.08,0,0,1,.77,1v.27a.27.27,0,0,1-.28.28h-2.08a9.08,9.08,0,0,0-2.2.27l-2,.51a4,4,0,0,1-1,.12h-2.86a4.89,4.89,0,0,1-.54,0c-1-.1-5.1.36-6.79,1.86,0,0-2-.93-2.2-2.41a2,2,0,0,1,.28-.83l7.25-5.07a7.27,7.27,0,0,1,.89-.54l3.33-1.75,4.71-1.54a3.27,3.27,0,0,1,1-.17h4.31a1.84,1.84,0,0,1,.47.07Z"/><path class="cls-5" d="M139.57,82.35s-6.43,9.56-4,18.9c0,0,1.5,10-6,6.92,0,0-7.62-2.88-7.27-6.34C122.3,101.83,130.65,74.41,139.57,82.35Z"/><path class="cls-3" d="M121.51,81.07,111.12,99a12.88,12.88,0,0,0-8.17,6.7l-2-1.14-12-6.68.84-3.34c13.59-8.46,23.93-11.68,28.76-12.84A30.62,30.62,0,0,1,121.51,81.07Z"/><path class="cls-4" d="M118.5,81.67l-9.57,16.46a12.93,12.93,0,0,0-8,6.4l-12-6.68.84-3.34C103.33,86.05,113.67,82.83,118.5,81.67Z"/><rect class="cls-4" x="149.57" y="188.24" width="2.79" height="22.05" transform="translate(-99.03 199.15) rotate(-52.83)"/><rect class="cls-4" x="107.24" y="222.36" width="2.79" height="22.05" transform="translate(49.6 -17.18) rotate(11.7)"/><path class="cls-6" d="M104.14,106.69l1.81,2.12s-10.71,45.47,29,21.9l5.71,6.78S93.81,159.31,95,136l6.81-25.27Z"/><path class="cls-7" d="M73.35,191.14s22.57,4.66,42.17-.06l-8.18,41.69,8.18,1.49,12.16-47.41,3-4.53L116,170.49,92.2,176.94Z"/><path class="cls-8" d="M102.36,123.89s4.49,11-5.25,17.16a16,16,0,0,0-2.06,1.51c-3.22,2.89-11,11.73-4.73,25.6,0,0-28.32,31.07-37.18,13.08a18.92,18.92,0,0,1-1.08-2.76s-7.31-53.3,34-81.24l3.85-2.56,0,0,14.25,12S100.21,115.29,102.36,123.89Z"/><path class="cls-9" d="M129.45,249.93v1.65s-12.94,1.37-15.28.55a2.68,2.68,0,0,0-2.89-2.2,2.42,2.42,0,0,0-2.65,2.47h-4.09a18.28,18.28,0,0,1-.09-6.48c.49,1,1.76,2.29,5,2.34,0,0,15.81,1.57,14.35-.66a10.17,10.17,0,0,0,1.35.06C126.58,247.63,129.06,247.87,129.45,249.93Z"/><path class="cls-4" d="M109.48,248.26c-3.27,0-4.54-1.3-5-2.34a2.59,2.59,0,0,1,.09-.4s.46-1.47.79-3.06h2.84s.46-.28,10.37,3.58h0c.9.36,2.21.85,3.47,1.22a10.24,10.24,0,0,0,1.82.34C125.29,249.83,109.48,248.26,109.48,248.26Z"/><path class="cls-9" d="M182.5,207.39l.36,1.61s-12.31,4.22-14.77,3.94a2.68,2.68,0,0,0-3.31-1.51,2.43,2.43,0,0,0-2,3l-4,.91a18.4,18.4,0,0,1-1.52-6.3c.71.9,2.22,1.85,5.42,1.16,0,0,15.76-2,13.85-3.83a9.59,9.59,0,0,0,1.32-.24C179.18,205.78,181.65,205.47,182.5,207.39Z"/><path class="cls-4" d="M162.65,210.2c-3.2.69-4.71-.26-5.42-1.16a2.67,2.67,0,0,1,0-.4s.11-1.54.08-3.16l2.78-.64s.38-.38,10.91,1.18h0a34,34,0,0,0,3.65.42,9.55,9.55,0,0,0,1.85-.07C178.41,208.22,162.65,210.2,162.65,210.2Z"/><path class="cls-3" d="M150.41,150.24l-2.86-3.68,2.53,3.78.94,1.4h-.4a1.8,1.8,0,0,1-1.29-.54l-3.76-3.75a.86.86,0,0,0-.45-.24l-2.81-.5a4.63,4.63,0,0,0-1.66,0l-7.17,1.36a17.38,17.38,0,0,1-5.14.2l-6.68-.73v-4.39l9.15-3a10.74,10.74,0,0,1,3.42-.55H140a3.75,3.75,0,0,1,2.22.72l6.6,4.8a1.91,1.91,0,0,1,.58.65l2.22,3.89.78,1.36H152a2,2,0,0,1-1.43-.59A1.54,1.54,0,0,1,150.41,150.24Z"/><path class="cls-4" d="M147.55,145.25l3.47,5.18h-.44a1.43,1.43,0,0,1-.5-.09,1.76,1.76,0,0,1-.75-.45l-3.76-3.76a.85.85,0,0,0-.45-.23l-2.81-.5a4.41,4.41,0,0,0-1.66,0l-7.17,1.35a17.38,17.38,0,0,1-5.14.2l-6.68-.73v-3.07l9.15-3a10.74,10.74,0,0,1,3.42-.55H140a3.75,3.75,0,0,1,2.22.72l6.6,4.8a1.91,1.91,0,0,1,.58.65l2.22,3.89a2.06,2.06,0,0,1-1.17-.74Z"/><path class="cls-10" d="M126.5,153.33s-28.83.76-44.53-1.4a8.86,8.86,0,0,1-1.94-.69s-11.14-17.69,4.12-49.76l.62-.33c2.42-1.16,11.16-4.39,12.77,8.73,0,0-23.36,41.42,24.91,33l2,5.24Z"/><path class="cls-9" d="M124.48,148.13c-8.89.11-27.95.13-39.68-1.49a9,9,0,0,1-1.93-.68s-10-15.87,1.9-44.81c2.42-1.16,11.16-4.39,12.77,8.73,0,0-23.36,41.42,24.91,33Z"/><path class="cls-4" d="M130.92,95.36a11.15,11.15,0,0,1-2,3.23,5.69,5.69,0,0,0-1.18,2.29l-.84,3.36a.67.67,0,0,1-1,.41l-2.39-1.41a.14.14,0,0,0-.15,0l-.63.36c-.41.23-.82.46-1.26.68s-1,.48-1.47.7a39.27,39.27,0,0,1-5.24,1.92S102.66,97.36,107,83.38c2.63-8.42,12.48-11.56,19.08-8.26a12.14,12.14,0,0,1,6.13,7.61A17.31,17.31,0,0,1,130.92,95.36Z"/><path class="cls-7" d="M126.12,98.09a1.46,1.46,0,0,1-.68.53l-1.91-1.29a1.33,1.33,0,0,1,.23-.83,1.42,1.42,0,1,1,2.36,1.59Z"/><path class="cls-7" d="M133,90.87a9.83,9.83,0,0,0-6.62.64,5.54,5.54,0,0,0-2.11,1.77c-1.69,2.13-8.73,1.65-11.14-2.43,0,0-1-7.35-6.55-3.09l1.89,5.86s-.78,5.69-6.5,4.45a8.79,8.79,0,0,1-6.45-6.79s-1-6.06,2.34-6.37c0,0,5.57-.34,2.55-4.09,0,0-3.7-3.79,0-6.55,0,0,19.18-12.94,37-.23a3.5,3.5,0,0,1,.69.64,8.79,8.79,0,0,1,1.48,9.23S137.7,89.78,133,90.87Z"/><path class="cls-7" d="M129.55,95.17a8.14,8.14,0,0,0-1.28-1,6.75,6.75,0,0,0-1.47-.74,4.89,4.89,0,0,0-1.61-.26,3.92,3.92,0,0,0-1.59.42h0a.11.11,0,0,1-.15-.06.12.12,0,0,1,0-.15,4.48,4.48,0,0,1,1.67-.65,5.57,5.57,0,0,1,1.82.1,7.89,7.89,0,0,1,1.7.63,8.58,8.58,0,0,1,1.56,1,.5.5,0,0,1,.08.7.5.5,0,0,1-.7.09l-.05,0Z"/><path class="cls-11" d="M121.53,104.28l-1,.51-.43.19a6.6,6.6,0,0,1-.7-.43,4.23,4.23,0,0,1-1.36-1.61,1.25,1.25,0,0,1,0-1.26Z"/><path class="cls-7" d="M120.49,104.79l-.43.19a6.6,6.6,0,0,1-.7-.43,4.23,4.23,0,0,1-1.36-1.61Z"/><circle class="cls-4" cx="110.26" cy="89.69" r="4.17"/><circle class="cls-12" cx="110.26" cy="89.69" r="2.26"/><path class="cls-13" d="M64.55,175.07l-11.41,6.17a18.92,18.92,0,0,1-1.08-2.76s-7.31-53.3,34-81.24l3.85-2.56C89,95.61,56.88,129.23,64.55,175.07Z"/><path class="cls-14" d="M52.07,178.48s18.79-19.16,72.39-13.2l32.75,28.78-7,6.45-22.58-13.66.12-2.17A4.09,4.09,0,0,0,126,181l-2.68-1.76a4.1,4.1,0,0,0-4.14-.2c-7.81,4.11-36,17.7-59.69,13.25C59.45,192.32,50.4,187.71,52.07,178.48Z"/><path class="cls-15" d="M107.07,192.57a13.11,13.11,0,0,1-1.57,2.54c-2.73,3.61-9.5,9.81-23.82,9.81H51.86s-23.61-2.65-21.35-40.68c0,0,1.78-30.36,19.72-43h0a29.2,29.2,0,0,1,7.36-3.77s5.48-.84-.57,9.85A42.47,42.47,0,0,0,53.24,136c-2,6.55-4.7,17.77-3.57,27.14.07.62.14,1.23.18,1.84.2,2.94,1.61,13.38,11.76,11.65,0,0,10.84-1.52,19.22,10a14.73,14.73,0,0,0,9.09,5.86C93.65,193.17,99.14,193.49,107.07,192.57Z"/><path class="cls-16" d="M107.07,192.57a13.11,13.11,0,0,1-1.57,2.54c-3.91,2.47-9.7,4.58-18,4.58H57.63S34,197,36.28,159c0,0,1.39-23.53,13.95-37.8h0a29.2,29.2,0,0,1,7.36-3.77s5.48-.84-.57,9.85A42.47,42.47,0,0,0,53.24,136c-2,6.55-4.7,17.77-3.57,27.14.07.62.14,1.23.18,1.84.2,2.94,1.61,13.38,11.76,11.65,0,0,10.84-1.52,19.22,10a14.73,14.73,0,0,0,9.09,5.86C93.65,193.17,99.14,193.49,107.07,192.57Z"/><path class="cls-15" d="M196.16,153.33H106.4a5.73,5.73,0,0,0-6,5.45v92.44a1.25,1.25,0,0,0,1.3,1.19h0a1.25,1.25,0,0,0,1.3-1.19V162.13a4.69,4.69,0,0,1,4.89-4.47h86.8a4.69,4.69,0,0,1,4.89,4.47v89.09a1.25,1.25,0,0,0,1.3,1.19h0a1.25,1.25,0,0,0,1.3-1.19V158.84A5.79,5.79,0,0,0,196.16,153.33Z"/><path class="cls-15" d="M88.79,246.41c-.25-3.95-4.32-4-4.32-4a12.31,12.31,0,0,1-11.12-6.17c0-.06-.84-31.37,3.74-31.37,0,0-8.36-6.44-9.93,0,0,0,2.61,2.44,2.61,31.37a12.31,12.31,0,0,1-11.12,6.18s-3.95,0-4.31,3.79a3.22,3.22,0,1,0,3.35.55h.19s-.3-1.18,1.08-1.18c0,0,6.73.76,10.81-2.7h0v3.47a2.22,2.22,0,0,0-.61,1.53v2.26a2.23,2.23,0,0,0,2.23,2.23h.34A2.23,2.23,0,0,0,74,250.18v-2.26a2.22,2.22,0,0,0-.62-1.53v-3.47c4.09,3.46,10.82,2.7,10.82,2.7,1.15,0,1.12.82,1.08,1.09A3.17,3.17,0,0,0,84,249.2a3.2,3.2,0,1,0,4.75-2.79Z"/><path class="cls-17" d="M283.57,187.35a15,15,0,0,1-5.4,7.93,7.53,7.53,0,0,1-.83.53l-.12.07a32,32,0,0,1-12.44,3.67c-.49,0-1,.08-1.49.09a28.68,28.68,0,0,1-7.88-.83l-.9-.24a29.94,29.94,0,0,1-7.33-3.22s-.48-.31-1.25-.76h0a0,0,0,0,0,0,0h0l-.45-.24-.73-.41-.33-.17c-.55-.29-1.17-.59-1.81-.88s-1.24-.53-1.87-.74c-2.15-.76-4.31-1.1-5.56-.14a3,3,0,0,0-1.07,2.37,20.71,20.71,0,0,0,0,2.73,19.66,19.66,0,0,0,1,4.83,10.5,10.5,0,0,0,6.78,7.11,11,11,0,0,0,2.21.4c2.1.19,8.43,1.37,5.75,8.84a15,15,0,0,1-8.57,8.69c-7.43,3-21.85,4.89-41.84-10.62-.17-.12-.32-.24-.48-.37a3.45,3.45,0,0,0-1.54-.61c-1.38-.17-3.15.49-2.26,5.43a4.65,4.65,0,0,1-.06,2,3.41,3.41,0,0,1-2.43,2.48,5.07,5.07,0,0,1-.61.12,5,5,0,0,1-1.77-.06,6,6,0,0,1-4-3.16c-1.18-2.29-2.43-6.19-2.26-12.27a27.09,27.09,0,0,0-.53-5A13,13,0,0,0,181.9,201c-.05-.08-.09-.16-.14-.23a13.3,13.3,0,0,0-1.67-2.22c-.24-.26-.49-.52-.75-.76l0,0a8.46,8.46,0,0,0-3.11-1.79,7,7,0,0,0-1.63-.36,7.47,7.47,0,0,0-3,.25l-.07,0a6.17,6.17,0,0,0-1,.44,6.09,6.09,0,0,0-.84.51,4.48,4.48,0,0,0-1.76,2.48,4.87,4.87,0,0,0,.1,2.6,3.71,3.71,0,0,1-.75,3.52,3.08,3.08,0,0,1-1.6,1l-.09,0a2,2,0,0,1-1-.07,2.74,2.74,0,0,1-1.69-1.44,4.35,4.35,0,0,1-.09-2.93,25.52,25.52,0,0,0,.52-3.62c.06-.88.1-1.87.07-2.94-.11-3.86-1.07-8.65-4.58-12.1,0,0-3.58-4.26-9.1-10.44l-.86-1c-3.78-4.21-8.36-9.2-13.29-14.3-1.37-1.42-2.77-2.85-4.18-4.27l-.06-.06-.32-.32-.26-.26H131l26.31.57,2.76.06,3.21.07.06-.13,0-.06,0,0h0l.62-1.44,12.66-29.55.08,0C214,140.89,236.42,139.7,243.5,138.6a18.19,18.19,0,0,1,7.42.3c4.41,1.16,5.84,3.23,5.94,5.31a6.39,6.39,0,0,1-.47,2.63c-.05.13-.1.26-.16.39s-.19.42-.3.63a7,7,0,0,1-.4.7,10.44,10.44,0,0,1-2.95,3.08l-.07.05a7.88,7.88,0,0,0-2.65,2.81,2.41,2.41,0,0,0-.15.33,4.17,4.17,0,0,0-.05,3,7.51,7.51,0,0,0,1.29,2.22,12.78,12.78,0,0,0,1,1.09A14.46,14.46,0,0,0,259.4,165a17.35,17.35,0,0,0,3.38.3l.91,0,.54,0a18.36,18.36,0,0,1,11.82,2.89A17.26,17.26,0,0,1,283.57,187.35Z"/><path class="cls-18" d="M143.79,173.13a2.67,2.67,0,0,1-5.26.17,2.6,2.6,0,0,1,.53-2.21h0a2.73,2.73,0,0,1,.52-.5,4.21,4.21,0,0,0,1.55-2.4.69.69,0,0,1,1.29-.15C144.27,171.48,143.79,173.13,143.79,173.13Z"/><path class="cls-18" d="M186.21,124.41s-1.51.5-4.77-1.22a.43.43,0,0,1,.11-.8,3.68,3.68,0,0,0,2.37-1.47,3,3,0,0,1,.41-.46h0a2.22,2.22,0,0,1,1.75-.53,2.27,2.27,0,0,1,.12,4.48Z"/><path class="cls-18" d="M256,207.87A2.29,2.29,0,0,1,254,209a2.25,2.25,0,0,1-1.64-.81h0a1.94,1.94,0,0,1-.33-.51,3.63,3.63,0,0,0-2.12-1.85.42.42,0,0,1,0-.8c3.51-1.16,4.93-.42,4.93-.42A2.26,2.26,0,0,1,256,207.87Z"/><path class="cls-18" d="M268.9,154.81s-2,1.62-7.78,1a.76.76,0,0,1-.32-1.39,5.91,5.91,0,0,0,2.57-3.54,3.52,3.52,0,0,1,.36-.93h0a3.62,3.62,0,0,1,2.34-1.83,3.68,3.68,0,0,1,2.83,6.71Z"/><path class="cls-19" d="M192.71,144.35a1.63,1.63,0,0,0-1.5,1.74v34.07a1,1,0,1,0,2,0v-10.7a1.39,1.39,0,0,1,1.28-1.48h36.62a1.39,1.39,0,0,1,1.29,1.48v10.7a1,1,0,1,0,2,0V146.09a1.63,1.63,0,0,0-1.51-1.74Z"/><polyline class="cls-20" points="195.35 160.26 197.65 154.82 202.74 161.66 204.98 158.58 207.59 162.59 212.82 154.5 216.95 158.83 222.27 150.25 225.75 153.32 231.65 146.6"/><path class="cls-21" d="M234,197.08a19.66,19.66,0,0,0,1,4.83c-4.46.09-9.12.14-13.9.14-10.32,0-20-.22-28.54-.61l-2.38-.11c-3-.15-5.79-.32-8.41-.52a13.3,13.3,0,0,0-1.67-2.22c-.24-.26-.49-.52-.75-.76l0,0a8.46,8.46,0,0,0-3.11-1.79,7,7,0,0,0-1.63-.36,7.47,7.47,0,0,0-3,.25l-.07,0a6.17,6.17,0,0,0-1,.44,6.09,6.09,0,0,0-.84.51,4.48,4.48,0,0,0-1.76,2.48,39.31,39.31,0,0,1-4.63-1c.06-.88.1-1.87.07-2.94a43.28,43.28,0,0,1,4.29-.88c.49-.08,1-.16,1.53-.23h.06l.85-.12.38-.05.24,0,.49-.06c.72-.09,1.48-.18,2.28-.26l1.37-.15,1.27-.12.6-.05c1.06-.11,2.16-.2,3.3-.29l.45,0,.42,0,.56,0,1.54-.11c2.27-.16,4.69-.3,7.23-.43l2.38-.11c5.79-.27,12.14-.45,18.88-.54h0l3.21,0q3.16,0,6.44,0c4.83,0,9.54,0,14,.14a3,3,0,0,0-1.07,2.37A20.71,20.71,0,0,0,234,197.08Z"/><path class="cls-21" d="M278.17,195.28a7.53,7.53,0,0,1-.83.53l-.12.07a32,32,0,0,1-12.44,3.67c-.49,0-1,.08-1.49.09a28.68,28.68,0,0,1-7.88-.83l-.9-.24a29.94,29.94,0,0,1-7.33-3.22s-.48-.31-1.25-.76h0a0,0,0,0,0,0,0h0l-.45-.24-.73-.41-.33-.17c-.55-.29-1.17-.59-1.81-.88s-1.24-.53-1.87-.74l1.7,0h0l2.93.1,3.08.12,5.28.26h0l1.75.1.45,0,.93.06,1.49.1c1.74.11,3.4.24,5,.37l1.49.13A99.28,99.28,0,0,1,278.17,195.28Z"/><path class="cls-7" d="M209.93,175.07h6.17a6.17,6.17,0,0,0,6.09-7.16l-3.29-20.26a6.17,6.17,0,0,0-6.09-5.18h0a6.16,6.16,0,0,0-6.1,5.3L203.82,168A6.18,6.18,0,0,0,209.93,175.07Z"/><rect class="cls-7" x="220.99" y="169.09" width="4.48" height="3.54" rx="1.77"/><path class="cls-7" d="M222.35,171.93h1.78a0,0,0,0,1,0,0v5.72a.89.89,0,0,1-.89.89h0a.89.89,0,0,1-.89-.89v-5.72A0,0,0,0,1,222.35,171.93Z"/><path class="cls-7" d="M212.13,171.62h1.78a0,0,0,0,1,0,0v5.72a.89.89,0,0,1-.89.89h0a.89.89,0,0,1-.89-.89v-5.72A0,0,0,0,1,212.13,171.62Z"/><rect class="cls-7" x="200.49" y="169.09" width="4.48" height="3.54" rx="1.77"/><path class="cls-7" d="M201.85,171.93h1.78a0,0,0,0,1,0,0v5.72a.89.89,0,0,1-.89.89h0a.89.89,0,0,1-.89-.89v-5.72a0,0,0,0,1,0,0Z"/><rect class="cls-7" x="201.41" y="176.44" width="23.21" height="3.58" rx="1.79"/><path class="cls-7" d="M219.21,194.34a1.52,1.52,0,0,0-1.54-1.41,4.41,4.41,0,0,1-4-2.2s-.3-11.17,1.34-11.17c0,0-3-2.3-3.54,0,0,0,.93.87.93,11.17a4.39,4.39,0,0,1-4,2.2,1.53,1.53,0,0,0-1.54,1.35,1.14,1.14,0,1,0,1.59,1.05,1.12,1.12,0,0,0-.39-.85h.07s-.11-.42.38-.42a5.78,5.78,0,0,0,3.85-1h0v1.23a.82.82,0,0,0-.22.55v.8a.8.8,0,0,0,.8.8h.12a.79.79,0,0,0,.79-.8v-.8a.78.78,0,0,0-.22-.55v-1.24a5.78,5.78,0,0,0,3.86,1c.41,0,.4.29.39.38a1.12,1.12,0,0,0-.44.89,1.14,1.14,0,1,0,1.7-1Z"/><path class="cls-22" d="M172.3,175.07h6.17a6.17,6.17,0,0,0,6.09-7.16l-3.29-20.26a6.17,6.17,0,0,0-6.09-5.18h0a6.18,6.18,0,0,0-6.11,5.3L166.19,168A6.18,6.18,0,0,0,172.3,175.07Z"/><rect class="cls-22" x="183.36" y="169.09" width="4.48" height="3.54" rx="1.77"/><path class="cls-22" d="M184.72,171.93h1.78a0,0,0,0,1,0,0v5.72a.89.89,0,0,1-.89.89h0a.89.89,0,0,1-.89-.89v-5.72a0,0,0,0,1,0,0Z"/><path class="cls-22" d="M174.5,171.62h1.78a0,0,0,0,1,0,0v5.72a.89.89,0,0,1-.89.89h0a.89.89,0,0,1-.89-.89v-5.72A0,0,0,0,1,174.5,171.62Z"/><rect class="cls-22" x="162.86" y="169.09" width="4.48" height="3.54" rx="1.77"/><path class="cls-22" d="M164.22,171.93H166a0,0,0,0,1,0,0v5.72a.89.89,0,0,1-.89.89h0a.89.89,0,0,1-.89-.89v-5.72A0,0,0,0,1,164.22,171.93Z"/><rect class="cls-22" x="163.78" y="176.44" width="23.21" height="3.58" rx="1.79"/><path class="cls-22" d="M182.16,195.33a1.18,1.18,0,0,1-.18.62,1.16,1.16,0,0,1-1,.52,1.06,1.06,0,0,1-.4-.08,1.1,1.1,0,0,1-.73-.94v0h0a.28.28,0,0,1,0-.09,1,1,0,0,1,.17-.57v0a1.2,1.2,0,0,1,.26-.29.34.34,0,0,0-.11-.32.5.5,0,0,0-.28-.07h-.16a6.16,6.16,0,0,1-3.09-.57,3.3,3.3,0,0,1-.6-.4v1.23a.82.82,0,0,1,.22.55v.8a.77.77,0,0,1-.08.34,7,7,0,0,0-1.63-.36v-.78a.78.78,0,0,1,.22-.55V193.1a4,4,0,0,1-1.37.72,6.91,6.91,0,0,1-2.28.26l-.21,0a.39.39,0,0,0-.28.08.34.34,0,0,0-.1.34h-.07a1.13,1.13,0,0,1-.05,1.75,1.14,1.14,0,0,1-.7.24l-.2,0a1.09,1.09,0,0,1-.82-.63,1,1,0,0,1-.12-.49,1.15,1.15,0,0,1,.53-1l.06,0,.11-.06a1.39,1.39,0,0,1,.55-1,1.59,1.59,0,0,1,.31-.17,1.89,1.89,0,0,1,.67-.15,4.39,4.39,0,0,0,4-2.2c0-7.23-.46-9.81-.74-10.71a1.11,1.11,0,0,0-.2-.46c.56-2.3,3.54,0,3.54,0-.2,0-.37.17-.52.46-1,2.1-.81,10.69-.81,10.71a4.39,4.39,0,0,0,4,2.2h0a2.21,2.21,0,0,1,.8.21,1.39,1.39,0,0,1,.46.39,1.52,1.52,0,0,1,.27.81A1.12,1.12,0,0,1,182.16,195.33Z"/><path class="cls-22" d="M260,169.17a6.05,6.05,0,0,1-.68,2.56c0,.07-.07.14-.11.2l-.05.08a5.21,5.21,0,0,1-.65.91,4.75,4.75,0,0,1-.38.4,5.91,5.91,0,0,1-1.86,1.25,5.68,5.68,0,0,1-1.08.35h0a5.92,5.92,0,0,1-1.34.15h-6.17a6.09,6.09,0,0,1-4.27-1.73,3.88,3.88,0,0,1-.39-.42,5.29,5.29,0,0,1-.69-1l0,0a1.24,1.24,0,0,1-.1-.2,5.94,5.94,0,0,1-.69-2.54,5.67,5.67,0,0,1,0-1.16L243,157.86l.23-1.59.4-2.83h0l.37-2.65v-.11l.41-2.9a6.19,6.19,0,0,1,2.07-3.79,6.16,6.16,0,0,1,9.93,2.86c-.05.13-.1.26-.16.39s-.19.42-.3.63a7,7,0,0,1-.4.7,10.44,10.44,0,0,1-2.95,3.08l-.07.05a7.88,7.88,0,0,0-2.65,2.81,2.41,2.41,0,0,0-.15.33,4.17,4.17,0,0,0-.05,3,7.51,7.51,0,0,0,1.29,2.22,12.78,12.78,0,0,0,1,1.09A14.46,14.46,0,0,0,259.4,165l.48,2.95A6,6,0,0,1,260,169.17Z"/><rect class="cls-22" x="258.69" y="169.09" width="4.48" height="3.54" rx="1.77"/><path class="cls-22" d="M260,171.93h1.78a0,0,0,0,1,0,0v5.72a.89.89,0,0,1-.89.89h0a.89.89,0,0,1-.89-.89v-5.72A0,0,0,0,1,260,171.93Z"/><path class="cls-22" d="M249.82,171.62h1.78a0,0,0,0,1,0,0v5.72a.89.89,0,0,1-.89.89h0a.89.89,0,0,1-.89-.89v-5.72A0,0,0,0,1,249.82,171.62Z"/><rect class="cls-22" x="238.19" y="169.09" width="4.48" height="3.54" rx="1.77"/><path class="cls-22" d="M239.54,171.93h1.78a0,0,0,0,1,0,0v5.72a.89.89,0,0,1-.89.89h0a.89.89,0,0,1-.89-.89v-5.72A0,0,0,0,1,239.54,171.93Z"/><rect class="cls-22" x="239.11" y="176.44" width="23.21" height="3.58" rx="1.79"/><path class="cls-22" d="M257.48,195.33a1.09,1.09,0,0,1-.18.61,1.12,1.12,0,0,1-1,.53,1,1,0,0,1-.36-.06,1.14,1.14,0,0,1-.75-.83v0a.43.43,0,0,1,0-.12.41.41,0,0,1,0-.11,1.15,1.15,0,0,1,.25-.71h0a1.29,1.29,0,0,1,.17-.16.32.32,0,0,0-.07-.28h0a.41.41,0,0,0-.31-.1h-.12a5.58,5.58,0,0,1-3.74-1v1.23a.78.78,0,0,1,.22.55v.8a.79.79,0,0,1-.79.8h-.12a.8.8,0,0,1-.8-.8v-.8a.78.78,0,0,1,.22-.55V193.1a5.78,5.78,0,0,1-3.85,1c-.49,0-.38.42-.38.42h-.07l.06.06,0,0h0l-.45-.24-.73-.41a1.24,1.24,0,0,1,.52-.68,1.14,1.14,0,0,1,.3-.17,2,2,0,0,1,.64-.13,4.7,4.7,0,0,0,2.25-.54,4.18,4.18,0,0,0,1.71-1.66c0-7.23-.46-9.81-.73-10.71a1.33,1.33,0,0,0-.2-.46c.56-2.3,3.54,0,3.54,0-.2,0-.37.17-.52.46-1.05,2.1-.82,10.69-.82,10.71a4.27,4.27,0,0,0,2.3,1.92h0a4.84,4.84,0,0,0,1.66.28h0a1.71,1.71,0,0,1,.43.09,1.36,1.36,0,0,1,.81.57h0a1.44,1.44,0,0,1,.24.74A1.12,1.12,0,0,1,257.48,195.33Z"/><polygon class="cls-16" points="168.64 154.82 158.9 171.93 192.55 171.93 181.78 154.84 168.64 154.82"/><circle class="cls-23" cx="175.35" cy="153.33" r="6.77"/><circle class="cls-23" cx="168.59" cy="152.11" r="1.39"/><circle class="cls-23" cx="182.12" cy="152.11" r="1.39"/><path class="cls-24" d="M168.85,150.73s6.91-8.89,15.79,0C184.64,150.73,178.06,159.93,168.85,150.73Z"/><path class="cls-24" d="M168.59,150.77s3.07-10.83,14.63-5.93C183.22,144.84,180.58,155.84,168.59,150.77Z"/><path class="cls-16" d="M182.81,174.33a5.94,5.94,0,0,1-.39,2.11H168.28a5.94,5.94,0,0,1-.39-2.11c0-3.65,3.34-6.61,7.46-6.61S182.81,170.68,182.81,174.33Z"/><path class="cls-1" d="M187.46,159.13v12.6H163.24v-12.6a1.28,1.28,0,0,1,1.28-1.27h21.66a1.27,1.27,0,0,1,1.13.69A1.14,1.14,0,0,1,187.46,159.13Z"/><path class="cls-25" d="M187.46,159.13v12.6H163.24l24.07-13.18A1.14,1.14,0,0,1,187.46,159.13Z"/><path class="cls-15" d="M164.67,175h4.88a1.09,1.09,0,0,1,1.09,1.09v0a1.09,1.09,0,0,1-1.09,1.09h-4.88a0,0,0,0,1,0,0V175a0,0,0,0,1,0,0Z" transform="translate(-36.27 43.7) rotate(-13.41)"/><path class="cls-15" d="M179.46,175h4.88a1.09,1.09,0,0,1,1.09,1.09v0a1.09,1.09,0,0,1-1.09,1.09h-4.88a0,0,0,0,1,0,0V175A0,0,0,0,1,179.46,175Z" transform="translate(319.07 389.65) rotate(-166.59)"/><path class="cls-24" d="M181.65,192.06l-.25,1-.1.43-.51,2.14-.17.72-.53,2.2c-.24-.26-.49-.52-.75-.76l0,0,.56-2.36v0h0l.16-.66v0l.15-.61.22-.95,0-.18.28-1.16Z"/><path class="cls-24" d="M170.47,196.37a6.09,6.09,0,0,0-.84.51l-.09-.43-.15-.79-.26-1.29v0l-.33-1.63.91-.18.14.71.19,1,.25,1.23.15.78Z"/><path class="cls-16" d="M267.92,171.93H234.26l.11-.2,4.2-7.36,3.71-6.51.91-1.59.82-1.45h5.7a4.17,4.17,0,0,0-.05,3,7.51,7.51,0,0,0,1.29,2.22,12.78,12.78,0,0,0,1,1.09A14.46,14.46,0,0,0,259.4,165a17.35,17.35,0,0,0,3.38.3l.91,0Z"/><path class="cls-23" d="M255.53,148.56a10.44,10.44,0,0,1-2.95,3.08l-.07.05a7.88,7.88,0,0,0-2.65,2.81,2.41,2.41,0,0,0-.15.33,4.17,4.17,0,0,0-.05,3,7.51,7.51,0,0,0,1.29,2.22h-.23a6.77,6.77,0,0,1-6.6-5.27,5.83,5.83,0,0,1-.16-1.33.86.86,0,0,1,0-.16,6.61,6.61,0,0,1,.38-2.23l.06-.16a.69.69,0,0,1,.05-.13,6.17,6.17,0,0,1,.67-1.27v0a6.76,6.76,0,0,1,5.6-3,6.52,6.52,0,0,1,1.88.27h0A6.84,6.84,0,0,1,255.53,148.56Z"/><circle class="cls-23" cx="243.96" cy="152.11" r="1.39"/><path class="cls-24" d="M256.86,144.21a6.39,6.39,0,0,1-.47,2.63c-.05.13-.1.26-.16.39s-.19.42-.3.63a7,7,0,0,1-.4.7,10.44,10.44,0,0,1-2.95,3.08l-.07.05a11.43,11.43,0,0,1-7.55-.53h0a4.33,4.33,0,0,1-.56-.22l-.37-.14-.06,0h0a.08.08,0,0,1,0,0v0h0v0c.29-.9,2.73-7.77,10.11-7A13,13,0,0,1,256.86,144.21Z"/><path class="cls-16" d="M258.18,174.33a5.94,5.94,0,0,1-.39,2.11H243.65a5.94,5.94,0,0,1-.39-2.11c0-3.65,3.34-6.61,7.46-6.61S258.18,170.68,258.18,174.33Z"/><path class="cls-15" d="M240,175h4.88a1.09,1.09,0,0,1,1.09,1.09v0a1.09,1.09,0,0,1-1.09,1.09H240a0,0,0,0,1,0,0V175a0,0,0,0,1,0,0Z" transform="translate(-34.22 61.18) rotate(-13.41)"/><path class="cls-15" d="M254.83,175h4.88a1.09,1.09,0,0,1,1.09,1.09v0a1.09,1.09,0,0,1-1.09,1.09h-4.88a0,0,0,0,1,0,0V175a0,0,0,0,1,0,0Z" transform="translate(467.75 407.14) rotate(-166.59)"/><path class="cls-24" d="M257,192.06l-.19.77-.18.76h0l-.49,2.07-.18.74-.57,2.4-.9-.24.72-3v0l0-.11.2-.83h0l.1-.44h0l.28-1.14.06-.25.22-.93Z"/><path class="cls-24" d="M245.43,194.32l-.73-.41-.33-.17-.2-1,.91-.18.14.69Z"/><path class="cls-1" d="M262.78,165.26v6.47H238.57v-12.6a1.27,1.27,0,0,1,1.28-1.27h9.81a7.51,7.51,0,0,0,1.29,2.22,12.78,12.78,0,0,0,1,1.09,13.59,13.59,0,0,0,2.46,1.9,15.11,15.11,0,0,0,5,1.89A17.35,17.35,0,0,0,262.78,165.26Z"/><path class="cls-25" d="M262.78,165.26v6.47H238.59l15.82-8.66a15.11,15.11,0,0,0,5,1.89A17.35,17.35,0,0,0,262.78,165.26Z"/><path class="cls-24" d="M264.78,172.33v27.22c-.49,0-1,.08-1.49.09V173.51c0-.3-.65-.56-1.48-.58H149.63l-.86-1,.26-.23h114.1a3.18,3.18,0,0,1,1.21.2C264.61,172,264.78,172.17,264.78,172.33Z"/><path class="cls-24" d="M255.93,147.86a7,7,0,0,1-.4.7,10.44,10.44,0,0,1-2.95,3.08l-.07.05a7.88,7.88,0,0,0-2.65,2.81,12.19,12.19,0,0,1-4.53-2.52c-.33-.26-.66-.56-1-.88l-.31-.3-.05-.05,0,0h0a9.7,9.7,0,0,1,1.14-1.17v0a9.85,9.85,0,0,1,7.48-2.69h0A9.59,9.59,0,0,1,255.93,147.86Z"/><path class="cls-15" d="M166.94,175.41h0a1.42,1.42,0,0,1,1.42,1.42V196a0,0,0,0,1,0,0h-2.84a0,0,0,0,1,0,0V176.83A1.42,1.42,0,0,1,166.94,175.41Z" transform="translate(-38.52 43.79) rotate(-13.41)"/><path class="cls-15" d="M181.8,175.41h2.84a0,0,0,0,1,0,0v19.13a1.42,1.42,0,0,1-1.42,1.42h0a1.42,1.42,0,0,1-1.42-1.42V175.41a0,0,0,0,1,0,0Z" transform="translate(318.37 408.81) rotate(-166.59)"/><path class="cls-15" d="M245.88,194.54v0l-.45-.24-.73-.41-.33-.17c-.55-.29-1.17-.59-1.81-.88l-.16-.69h0l-3.15-13.24,0-.09v-.05l-.07-.31v0l-.25-1a1.41,1.41,0,0,1,.67-1.55.92.92,0,0,1,.32-.14l.06,0a1.45,1.45,0,0,1,1.39.43,1,1,0,0,1,.2.32.79.79,0,0,1,.12.3l.18.74.6,2.54,2.92,12.25.19.79.34,1.42Z"/><path class="cls-15" d="M257.18,175.41H260a0,0,0,0,1,0,0v19.13a1.42,1.42,0,0,1-1.42,1.42h0a1.42,1.42,0,0,1-1.42-1.42V175.41A0,0,0,0,1,257.18,175.41Z" transform="translate(467.05 426.29) rotate(-166.59)"/><path class="cls-26" d="M283.57,187.34a15,15,0,0,1-5.4,7.93,7.53,7.53,0,0,1-.83.53l-.12.07a32,32,0,0,1-12.44,3.67c-.49.05-1,.08-1.49.09a28.68,28.68,0,0,1-7.88-.83l-.9-.24a29.94,29.94,0,0,1-7.33-3.22s-.48-.31-1.25-.76h-.05l-.45-.24-.73-.41-.33-.17c-.55-.29-1.17-.59-1.81-.88s-1.24-.53-1.87-.74c-2.15-.76-4.31-1.1-5.56-.14a3,3,0,0,0-1.07,2.37,20.71,20.71,0,0,0,0,2.73,19.66,19.66,0,0,0,1,4.83,10.5,10.5,0,0,0,6.78,7.11,11,11,0,0,0,2.21.4c2.1.19,8.43,1.37,5.75,8.84a15,15,0,0,1-8.57,8.69c-7.43,3-21.85,4.89-41.84-10.62-.17-.12-.32-.24-.48-.37a3.45,3.45,0,0,0-1.54-.61c-1.38-.17-3.15.49-2.26,5.43a4.65,4.65,0,0,1-.06,2,3.41,3.41,0,0,1-2.43,2.48,5.07,5.07,0,0,1-.61.12,5,5,0,0,1-1.77-.06,6,6,0,0,1-4-3.16c-1.18-2.29-2.43-6.19-2.26-12.27a27.09,27.09,0,0,0-.53-5A13,13,0,0,0,181.9,201c-.05-.08-.09-.16-.14-.23a13.3,13.3,0,0,0-1.67-2.22c-.24-.26-.49-.52-.75-.76l0,0a8.46,8.46,0,0,0-3.11-1.79,7,7,0,0,0-1.63-.36,7.47,7.47,0,0,0-3,.25l-.07,0a6.17,6.17,0,0,0-1,.44,6.09,6.09,0,0,0-.84.51,4.48,4.48,0,0,0-1.76,2.48,4.87,4.87,0,0,0,.1,2.6,3.71,3.71,0,0,1-.75,3.52,3.08,3.08,0,0,1-1.6,1l-.09,0a2,2,0,0,1-1-.07,2.74,2.74,0,0,1-1.69-1.44,4.35,4.35,0,0,1-.09-2.93,25.52,25.52,0,0,0,.52-3.62c.06-.88.1-1.87.07-2.94-.11-3.86-1.07-8.65-4.58-12.1,0,0-3.58-4.26-9.1-10.44l-.86-1c-3.78-4.21-8.36-9.2-13.29-14.3-1.37-1.42-2.77-2.85-4.18-4.27l-.38-.38a1,1,0,0,1,.05-.25l19,.41,6.75.15h.58l2.76.06,3.21.07.06-.13,0-.06,0,0h0l.62-1.44,12.66-29.55.08,0c37.32,18.62,59.71,17.43,66.79,16.33a18.19,18.19,0,0,1,7.42.3c4.41,1.16,5.84,3.23,5.94,5.31a6.39,6.39,0,0,1-.47,2.63c-.05.13-.1.26-.16.39s-.19.42-.3.63a7,7,0,0,1-.4.7,10.44,10.44,0,0,1-2.95,3.08l-.07.05a7.88,7.88,0,0,0-2.65,2.81,2.41,2.41,0,0,0-.15.33,4.17,4.17,0,0,0-.05,3,7.51,7.51,0,0,0,1.29,2.22,12.78,12.78,0,0,0,1,1.09A14.46,14.46,0,0,0,259.4,165a17.35,17.35,0,0,0,3.38.3l.91,0,.54,0a18.36,18.36,0,0,1,11.82,2.89A17.26,17.26,0,0,1,283.57,187.34Z"/><path class="cls-27" d="M156.45,155a22.65,22.65,0,0,0-1.66,11.11s0,0,0,0,0,.25.05.36a.78.78,0,0,1,0,.14.06.06,0,0,1,0,0,.17.17,0,0,1,0,.14.19.19,0,0,1-.3,0,.08.08,0,0,1,0,0l-.15-.24a2.59,2.59,0,0,1-.19-.31A29.54,29.54,0,0,1,150,154.15a3.89,3.89,0,0,1,0-.49,2.74,2.74,0,0,1,0-.5l6.75.15a1.23,1.23,0,0,1,0,.19A3.33,3.33,0,0,1,156.45,155Z"/><path class="cls-7" d="M154.85,166.82a19.9,19.9,0,0,1-2-6.41,32.53,32.53,0,0,1-.27-6.77.5.5,0,0,1,.53-.47.5.5,0,0,1,.47.53v.06a33,33,0,0,0-.23,6.6A19.54,19.54,0,0,0,154.85,166.82Z"/><path class="cls-27" d="M150.13,160a2.47,2.47,0,0,0-.54-.88,2.1,2.1,0,1,0-3.1,2.81l.24.24a21.76,21.76,0,0,0,7.74,4.71.13.13,0,0,0,.11-.22A16.6,16.6,0,0,1,150.13,160Z"/><path class="cls-7" d="M154.63,166.71a14.49,14.49,0,0,1-3.85-2.46,25.24,25.24,0,0,1-3.2-3.33.5.5,0,0,1,.78-.62l0,0v0a24.23,24.23,0,0,0,2.72,3.53A14.46,14.46,0,0,0,154.63,166.71Z"/><path class="cls-27" d="M158.08,164a1.45,1.45,0,0,0,.44-.35,1.15,1.15,0,1,0-1.73-1.5l-.11.15a11.92,11.92,0,0,0-2.05,4.5.07.07,0,0,0,.13.05A8.91,8.91,0,0,1,158.08,164Z"/><path class="cls-7" d="M154.72,166.83a7.72,7.72,0,0,1,1-2.31,13.56,13.56,0,0,1,1.53-2.06.51.51,0,0,1,.75.68l-.07.06h0a13.49,13.49,0,0,0-1.79,1.61A7.6,7.6,0,0,0,154.72,166.83Z"/><rect class="cls-7" x="151.75" y="166.21" width="5.52" height="5.52"/><path class="cls-27" d="M234.21,155a3.4,3.4,0,0,0-3.08-4.76,3.41,3.41,0,0,0-3.46,3.41,3.89,3.89,0,0,0,0,.49,29.79,29.79,0,0,0,4.55,12.66.2.2,0,0,0,.37-.14A22.14,22.14,0,0,1,234.21,155Z"/><path class="cls-7" d="M232.61,166.82a19.67,19.67,0,0,1-2-6.41,33.23,33.23,0,0,1-.26-6.77.49.49,0,0,1,.53-.47.52.52,0,0,1,.47.53v.06a33,33,0,0,0-.23,6.6A19.54,19.54,0,0,0,232.61,166.82Z"/><path class="cls-27" d="M227.89,160a2.47,2.47,0,0,0-.54-.88,2.1,2.1,0,1,0-3.1,2.81,2.72,2.72,0,0,0,.24.24,21.79,21.79,0,0,0,7.73,4.71.13.13,0,0,0,.12-.22A16.6,16.6,0,0,1,227.89,160Z"/><path class="cls-7" d="M232.39,166.71a14.49,14.49,0,0,1-3.85-2.46,25.24,25.24,0,0,1-3.2-3.33.5.5,0,0,1,.78-.62l0,0v0a23.62,23.62,0,0,0,2.73,3.53A14.27,14.27,0,0,0,232.39,166.71Z"/><path class="cls-27" d="M235.83,164a1.37,1.37,0,0,0,.45-.35,1.23,1.23,0,0,0,0-1.65,1.21,1.21,0,0,0-1.71.15l-.11.15a11.92,11.92,0,0,0-2.05,4.5.07.07,0,0,0,.13.05A8.94,8.94,0,0,1,235.83,164Z"/><path class="cls-7" d="M232.47,166.83a8,8,0,0,1,1-2.31,13.56,13.56,0,0,1,1.53-2.06.5.5,0,0,1,.71,0,.5.5,0,0,1,0,.71l-.08.06h0a12.89,12.89,0,0,0-1.79,1.61A7.87,7.87,0,0,0,232.47,166.83Z"/><rect class="cls-7" x="229.5" y="166.21" width="5.52" height="5.52"/><path class="cls-28" d="M190,167.06v4.67h3.68v-.39h1.21a.48.48,0,0,0,.48-.49v-3a.47.47,0,0,0-.48-.48h-1.21v-.32Zm3.68.8h.73a.48.48,0,0,1,.47.37.41.41,0,0,1,0,.11v2a.47.47,0,0,1-.48.48h-.73Z"/><rect class="cls-29" x="191.26" y="169.08" width="0.17" height="0.56"/><path class="cls-1" d="M190.44,169a1.43,1.43,0,1,0,2.81,0,.82.82,0,0,0-1.41-.55.79.79,0,0,0-.63-.25C190.46,168.16,190.44,169,190.44,169Zm.8,0h.18v-.1h1v1a.16.16,0,0,1-.17.14h-.65s-.18,0-.18-.14v-.07h-.21a.07.07,0,0,1-.07-.07v-.64A.09.09,0,0,1,191.24,169Z"/><g class="cls-30"><polygon class="cls-29" points="192.96 170.14 190.44 168.49 190.34 169.08 190.82 170.5 192.31 171.01 192.96 170.14"/></g><path class="cls-31" d="M28.07,78.42a14.52,14.52,0,0,0-6.22,8.47,17.23,17.23,0,0,0,7.51,19.27,18.44,18.44,0,0,0,11.83,2.9,15.36,15.36,0,0,1,12.27,4c2.78,2.72,4.2,6.21-.62,9.53a10.3,10.3,0,0,0-3.65,4.4c-1.23,2.84-1.31,6.59,5.3,8.33a18,18,0,0,0,7.42.3c7.09-1.1,29.5-2.28,66.87,16.38h34l12-30.52c-14.85-14.86-28.07-30.61-28.07-30.61-6.87-6.77-4-18.67-4-18.67.77-3.07-.84-4-1.78-4.37a2,2,0,0,0-1-.06l-.09,0a3.49,3.49,0,0,0-2.35,4.47c1.34,4.66-3.54,6-3.54,6l-.06,0a8.15,8.15,0,0,1-7.76-1.93,13.16,13.16,0,0,1-2.56-3.21,12.59,12.59,0,0,1-1.45-3.83,27.76,27.76,0,0,1-.54-5c.17-6.08-1.08-10-2.26-12.27a5.74,5.74,0,0,0-5.8-3.22,3.42,3.42,0,0,0-3,2.59,4.5,4.5,0,0,0-.05,2c.88,4.95-.89,5.61-2.27,5.43a3.32,3.32,0,0,1-1.54-.6l-.47-.38c-20-15.5-34.42-13.62-41.84-10.61A15,15,0,0,0,55.68,56c-2.68,7.46,3.65,8.65,5.75,8.84a10.25,10.25,0,0,1,2.21.4c6.26,1.94,7.5,8.72,7.73,11.94a19.15,19.15,0,0,1,0,2.73c-.47,7.19-13.12-1-13.12-1-13.69-8.29-26.57-2.42-30-.53l-.12.06Z"/><path class="cls-32" d="M166.35,103.15a2.62,2.62,0,0,0,.53-2.22,2.67,2.67,0,0,0-5.25.17s-.49,1.66,1.36,5.1a.69.69,0,0,0,1.29-.15,4.24,4.24,0,0,1,1.55-2.39,2.74,2.74,0,0,0,.52-.5Z"/><path class="cls-32" d="M131,66.47a2.19,2.19,0,0,1-1.2-1.38,2.26,2.26,0,0,1,4-2s1.07,1.17.85,4.84a.43.43,0,0,1-.78.23,3.61,3.61,0,0,0-2.32-1.55,2.46,2.46,0,0,1-.58-.19Z"/><path class="cls-32" d="M53.07,66a2.19,2.19,0,0,0-1.64-.81,2.3,2.3,0,0,0-2.06,1.14,2.27,2.27,0,0,0,1.2,3.26s1.42.74,4.93-.43a.42.42,0,0,0,0-.79,3.7,3.7,0,0,1-2.12-1.85,2.18,2.18,0,0,0-.33-.52Z"/><path class="cls-32" d="M41.68,125.42a3.57,3.57,0,0,1-2.34,1.83,3.68,3.68,0,0,1-2.83-6.71s2-1.62,7.79-1a.76.76,0,0,1,.31,1.4A5.89,5.89,0,0,0,42,124.48a3.87,3.87,0,0,1-.35.93Z"/><rect class="cls-15" x="151.1" y="135.17" width="36.52" height="2.56" rx="1.28" transform="translate(360.74 33.11) rotate(112.77)"/><rect class="cls-15" x="127.5" y="150.82" width="36.52" height="2.56" rx="1.28"/><path class="cls-28" d="M106.68,139.87v.9h-3.51a1.4,1.4,0,0,0-1.39,1.4v8.63a1.4,1.4,0,0,0,1.39,1.4h3.51v1.13h10.6V139.87Zm0,10.93h-2.12a1.39,1.39,0,0,1-1.39-1.39v-5.85a.91.91,0,0,1,0-.33,1.36,1.36,0,0,1,1.34-1.06h2.12Z"/><rect class="cls-29" x="113.13" y="145.69" width="0.48" height="1.62"/><path class="cls-1" d="M113.73,143a2.24,2.24,0,0,0-1.82.73,2.24,2.24,0,0,0-1.82-.73c-2.18,0-2.23,2.31-2.23,2.31,0,3.89,4,4.91,4,4.91s4.06-1,4.06-4.91A2.29,2.29,0,0,0,113.73,143Zm.22,2.57v1.83a.22.22,0,0,1-.22.22h-.6v.2c0,.4-.52.41-.52.41h-1.86a.47.47,0,0,1-.51-.41V145h2.89v.29h.53A.28.28,0,0,1,114,145.61Z"/><g class="cls-33"><polygon class="cls-29" points="108.71 148.75 115.97 143.98 116.26 145.69 114.88 149.78 110.56 151.24 108.71 148.75"/></g><path class="cls-34" d="M226.22,46.73c1.19-1.53,4.7-2.49,6.61.21,2.3,3.28-.61,9.77-6.61,11.61-6-1.84-8.91-8.33-6.61-11.61C221.51,44.24,225,45.2,226.22,46.73Z"/><path class="cls-35" d="M228.44,48.93h-5.18v4.74a1.18,1.18,0,0,0,1.18,1.18h2.81a1.19,1.19,0,0,0,1.19-1.18Z"/><path class="cls-36" d="M228.44,48.93h-5.18v4.74a1.18,1.18,0,0,0,1.18,1.18h2.81a1.19,1.19,0,0,0,1.19-1.18Z"/><path class="cls-35" d="M229.91,53.08v-3a.59.59,0,0,0-.59-.6h-.88v.6h.88v3h-.88v.59h.88A.59.59,0,0,0,229.91,53.08Z"/><path class="cls-37" d="M229.91,53.08v-3a.59.59,0,0,0-.59-.6h-.88v.6h.88v3h-.88v.59h.88A.59.59,0,0,0,229.91,53.08Z"/><path class="cls-38" d="M229.91,53.08v-3a.59.59,0,0,0-.59-.6h-.88v.6h.88v3h-.88v.59h.88A.59.59,0,0,0,229.91,53.08Z"/><g class="cls-39"><polygon class="cls-40" points="229.32 50.12 228.44 50.12 228.44 52.78 228.44 53.08 229.32 53.08 229.32 50.12"/><polygon class="cls-41" points="229.03 49.52 228.44 48.93 228.44 49.52 229.03 49.52"/><path class="cls-42" d="M229.91,53.08V50.41l-.88-.89h-.59v.6h.88v3h-.88v.59h.88A.59.59,0,0,0,229.91,53.08Z"/><path class="cls-43" d="M229.91,50.12v3a.59.59,0,0,1-.59.59h-.88a1.19,1.19,0,0,1-1.19,1.18h-2.81a1.16,1.16,0,0,1-.82-.34l3.65,3.66a10.84,10.84,0,0,0,5.59-5.35l-3.11-3.11A.6.6,0,0,1,229.91,50.12Z"/></g><path class="cls-44" d="M275.4,51.56a1.1,1.1,0,0,0-1.32,0,.86.86,0,0,0,0,1.19,1.14,1.14,0,0,0,1.32,0,.86.86,0,0,0,0-1.19Z"/><path class="cls-45" d="M241.21,47.73a3,3,0,0,1,.74,2.19,3.08,3.08,0,0,1-.74,2.2,2.82,2.82,0,0,1-2.13.76h-2.51V47h2.51A2.82,2.82,0,0,1,241.21,47.73ZM240,51.27a2.76,2.76,0,0,0,0-2.69,1.28,1.28,0,0,0-1.09-.45h-.82v3.59h.82A1.28,1.28,0,0,0,240,51.27Z"/><path class="cls-45" d="M245.73,48.41l-.16,1.29a.67.67,0,0,0-.24-.09,1.15,1.15,0,0,0-.33,0,1,1,0,0,0-.71.27,1,1,0,0,0-.29.78v2.26h-1.52V48.4h1.34l.06,1a1.65,1.65,0,0,1,.51-.79,1.36,1.36,0,0,1,.86-.27A1,1,0,0,1,245.73,48.41Z"/><path class="cls-45" d="M250.37,51.08h-3.05a.87.87,0,0,0,.94.82,1.08,1.08,0,0,0,.54-.13.58.58,0,0,0,.28-.37l1.24.4a1.49,1.49,0,0,1-.73.87,2.72,2.72,0,0,1-1.33.3,2.47,2.47,0,0,1-1.8-.61,2.33,2.33,0,0,1,1.72-4,2.19,2.19,0,0,1,1.66.6,2.66,2.66,0,0,1,.53,2.17Zm-3.06-.82H249c-.07-.59-.34-.88-.82-.88S247.4,49.67,247.31,50.26Z"/><path class="cls-45" d="M255.6,52l-.11.85a1.34,1.34,0,0,1-.61.14c-.65,0-1-.23-1.16-.69a1.7,1.7,0,0,1-1.6.69,1.64,1.64,0,0,1-1-.28,1,1,0,0,1-.36-.84,1.19,1.19,0,0,1,.41-.93,3.09,3.09,0,0,1,1.34-.54l1-.2V50a.69.69,0,0,0-.17-.48.63.63,0,0,0-.47-.18.91.91,0,0,0-.56.16.79.79,0,0,0-.27.53l-1.24-.36a1.51,1.51,0,0,1,.64-1,3.11,3.11,0,0,1,3,.07A1.56,1.56,0,0,1,255,50v1.63c0,.24.11.35.32.35A1,1,0,0,0,255.6,52Zm-2.35-.17a.56.56,0,0,0,.25-.46V51l-.73.17a1.06,1.06,0,0,0-.41.18.41.41,0,0,0,0,.58.49.49,0,0,0,.32.1A1,1,0,0,0,253.25,51.81Z"/><path class="cls-45" d="M262.89,48.72a1.59,1.59,0,0,1,.42,1.18v3h-1.52V50.25c0-.52-.2-.77-.61-.77a.68.68,0,0,0-.57.26,1.1,1.1,0,0,0-.22.75v2.39h-1.52V50.25c0-.52-.21-.77-.61-.77a.7.7,0,0,0-.57.26,1.15,1.15,0,0,0-.22.78v2.36h-1.53V48.4h1.37l0,.86a1.56,1.56,0,0,1,.6-.71,1.69,1.69,0,0,1,.91-.24,1.67,1.67,0,0,1,.88.23,1.25,1.25,0,0,1,.53.68,1.58,1.58,0,0,1,.62-.68,1.76,1.76,0,0,1,.89-.23A1.57,1.57,0,0,1,262.89,48.72Z"/><path class="cls-45" d="M268.42,50.6a2.33,2.33,0,0,1-.65,1.75,2.58,2.58,0,0,1-1.84.62,2.5,2.5,0,0,1-1.68-.5,1.72,1.72,0,0,1-.57-1.37,2.77,2.77,0,0,1,.05-.56l1.52-.27a4.41,4.41,0,0,0,0,.56,1,1,0,0,0,.19.71.91.91,0,0,0,1.28-.09,2,2,0,0,0,.2-1V47h1.54Z"/><path class="cls-45" d="M273,48.92a2.7,2.7,0,0,1,0,3.44,2.8,2.8,0,0,1-3.49,0,2.7,2.7,0,0,1,0-3.44,2.8,2.8,0,0,1,3.49,0Zm-2.38.77a2.25,2.25,0,0,0,0,1.9.82.82,0,0,0,1.27,0,2.25,2.25,0,0,0,0-1.9.82.82,0,0,0-1.27,0Z"/><path class="cls-45" d="M279,52.18l.79-.86a1.4,1.4,0,0,0,1.32.64,1.15,1.15,0,0,0,.5-.09.25.25,0,0,0,.18-.23c0-.08-.06-.15-.19-.21a2.27,2.27,0,0,0-.63-.19,3.38,3.38,0,0,1-1.43-.54,1.1,1.1,0,0,1-.42-.9,1.25,1.25,0,0,1,.24-.73,1.62,1.62,0,0,1,.73-.55,3,3,0,0,1,1.19-.21,3.25,3.25,0,0,1,1.26.21,1.88,1.88,0,0,1,.79.63l-.79.77a1.21,1.21,0,0,0-.51-.45,1.55,1.55,0,0,0-.71-.15,1.13,1.13,0,0,0-.5.1q-.18.11-.18.24a.27.27,0,0,0,.18.23,3,3,0,0,0,.64.19,3.35,3.35,0,0,1,1.43.5,1.1,1.1,0,0,1,.43.92,1.24,1.24,0,0,1-.55,1.06,2.54,2.54,0,0,1-1.58.41A2.67,2.67,0,0,1,279,52.18Z"/><path class="cls-45" d="M278.29,48.93a1.65,1.65,0,0,0-1.36-.62,1.48,1.48,0,0,0-.82.22,1.53,1.53,0,0,0-.53.62V46.5h-1.52V51a1.58,1.58,0,0,1,.68-.15,1.36,1.36,0,0,1,.89.29,2.46,2.46,0,0,1-.05-.49V50.6a1.42,1.42,0,0,1,.22-.86.68.68,0,0,1,.61-.31.74.74,0,0,1,.62.3,1.49,1.49,0,0,1,.22.91,1.54,1.54,0,0,1-.22.92.75.75,0,0,1-.62.29.67.67,0,0,1-.38-.1,1.64,1.64,0,0,1,.05.41,1.44,1.44,0,0,1-.09.51l0,0a1.49,1.49,0,0,0,.91.28,1.65,1.65,0,0,0,1.37-.61,2.67,2.67,0,0,0,.48-1.7A2.7,2.7,0,0,0,278.29,48.93Z"/><text class="cls-46" transform="translate(245.84 57.07)">DO<tspan class="cls-47" x="5.43" y="0">L</tspan><tspan x="7.59" y="0">G</tspan><tspan class="cls-48" x="10.28" y="0">O</tspan><tspan x="13" y="0">ZNÉ</tspan><tspan class="cls-48" x="20.47" y="0">K</tspan><tspan x="22.96" y="0" xml:space="preserve"> IT</tspan><tspan class="cls-49" x="27.62" y="0">T</tspan><tspan x="29.9" y="0" xml:space="preserve"> ---</tspan></text></g></g></svg>