<?xml version="1.0" encoding="utf-8"?>
<!-- Generator: Adobe Illustrator 22.0.1, SVG Export Plug-In . SVG Version: 6.00 Build 0)  -->
<!DOCTYPE svg PUBLIC "-//W3C//DTD SVG 1.1//EN" "http://www.w3.org/Graphics/SVG/1.1/DTD/svg11.dtd" [
	<!ENTITY st0 "fill:#FFFFFF;">
]>
<svg version="1.1" id="dj_logo" xmlns="http://www.w3.org/2000/svg" xmlns:xlink="http://www.w3.org/1999/xlink" x="0px" y="0px"
	 viewBox="0 0 200.75 141.6" style="enable-background:new 0 0 200.75 141.6;" xml:space="preserve">
<path id="dj_x5F_logo_x5F_sq_x5F_mono_x5F_white" style="&st0;" d="M166.49,135.52c0.68,0.62,1.02,1.47,1.02,2.58
	c0,1.08-0.34,1.92-1.02,2.54c-0.68,0.62-1.62,0.92-2.83,0.92c-1.21,0-2.15-0.31-2.83-0.92c-0.68-0.62-1.02-1.46-1.02-2.54
	c0-1.1,0.34-1.96,1.02-2.58c0.68-0.62,1.62-0.92,2.83-0.92C164.86,134.6,165.81,134.91,166.49,135.52z M19.89,119.13
	c2.11,2.19,3.17,5.32,3.17,9.4c0,4.08-1.06,7.21-3.17,9.4c-2.11,2.19-5.16,3.29-9.13,3.29H0v-25.37h10.76
	C14.74,115.84,17.78,116.94,19.89,119.13z M16.3,128.53c0-2.56-0.5-4.48-1.5-5.77c-1-1.28-2.56-1.92-4.69-1.92h-3.5v15.38h3.5
	c2.13,0,3.69-0.64,4.69-1.92C15.8,133.01,16.3,131.09,16.3,128.53z M33.53,122.78c-0.99,0.78-1.71,1.9-2.17,3.36l-0.27-4.15h-5.77
	v19.22h6.54v-9.69c0-1.46,0.41-2.58,1.23-3.36c0.82-0.78,1.85-1.17,3.08-1.17c0.49,0,0.95,0.06,1.38,0.17
	c0.44,0.12,0.78,0.25,1.04,0.4l0.69-5.54c-0.51-0.28-1.21-0.42-2.08-0.42C35.74,121.61,34.52,122,33.53,122.78z M56.9,124.16
	c1.65,1.7,2.48,4.09,2.48,7.17c0,0.87-0.06,1.59-0.19,2.15H46.08c0.2,1.21,0.65,2.09,1.33,2.65c0.68,0.56,1.58,0.85,2.71,0.85
	c0.95,0,1.72-0.18,2.33-0.54c0.6-0.36,1.01-0.88,1.21-1.58l5.31,1.69c-0.54,1.64-1.58,2.89-3.13,3.75
	c-1.55,0.86-3.45,1.29-5.71,1.29c-3.36,0-5.93-0.87-7.71-2.61c-1.78-1.74-2.67-4.2-2.67-7.38c0-3.18,0.87-5.64,2.61-7.38
	c1.74-1.74,4.22-2.61,7.42-2.61C52.87,121.61,55.25,122.46,56.9,124.16z M53.27,129.95c-0.31-2.51-1.49-3.77-3.54-3.77
	c-2.08,0-3.31,1.26-3.69,3.77H53.27z M80.41,137.48c0.49,0,0.88-0.05,1.19-0.15l-0.5,3.65c-0.74,0.41-1.62,0.62-2.61,0.62
	c-2.77,0-4.42-0.99-4.96-2.96c-1.15,1.97-3.43,2.96-6.84,2.96c-1.92,0-3.4-0.41-4.42-1.23c-1.02-0.82-1.54-2.01-1.54-3.58
	c0-1.64,0.58-2.97,1.75-3.98c1.17-1.01,3.08-1.79,5.75-2.33l4.34-0.85v-0.69c0-0.87-0.24-1.56-0.73-2.08
	c-0.49-0.51-1.15-0.77-2-0.77c-0.97,0-1.77,0.23-2.38,0.69c-0.62,0.46-1.01,1.22-1.19,2.27l-5.31-1.54
	c0.33-1.87,1.26-3.33,2.77-4.36c1.51-1.04,3.55-1.56,6.11-1.56c3,0,5.28,0.62,6.84,1.85c1.56,1.23,2.35,3.08,2.35,5.54v7
	C79.03,136.98,79.49,137.48,80.41,137.48z M72.57,132.99l-3.11,0.73c-0.82,0.21-1.4,0.46-1.75,0.75c-0.35,0.3-0.52,0.71-0.52,1.25
	c0,0.54,0.17,0.95,0.5,1.23c0.33,0.28,0.8,0.42,1.38,0.42c0.9,0,1.7-0.25,2.42-0.75c0.72-0.5,1.08-1.16,1.08-1.98V132.99z
	 M108.09,121.61c-1.41,0-2.69,0.33-3.83,1c-1.14,0.67-2.02,1.63-2.63,2.88c-0.46-1.26-1.22-2.22-2.29-2.88c-1.06-0.67-2.33-1-3.79-1
	c-1.49,0-2.78,0.35-3.88,1.04c-1.1,0.69-1.96,1.7-2.58,3.04l-0.19-3.69h-5.84v19.22h6.54v-10.15c0-1.49,0.32-2.6,0.96-3.34
	c0.64-0.74,1.45-1.12,2.42-1.12c1.74,0,2.61,1.1,2.61,3.31v11.3h6.54v-10.26c0-1.41,0.31-2.49,0.92-3.23
	c0.61-0.74,1.44-1.12,2.46-1.12c1.74,0,2.61,1.1,2.61,3.31v11.3h6.54v-12.8c0-2.18-0.61-3.86-1.83-5.04
	C111.62,122.2,110.04,121.61,108.09,121.61z M129.95,130.76c0,1.97-0.29,3.41-0.87,4.31c-0.58,0.9-1.54,1.35-2.9,1.35
	c-1.15,0-2.01-0.31-2.56-0.94c-0.55-0.63-0.83-1.65-0.83-3.06c0-0.61,0.06-1.41,0.19-2.38l-6.54,1.15
	c-0.15,0.85-0.23,1.64-0.23,2.38c0,2.49,0.81,4.45,2.44,5.88c1.63,1.44,4.03,2.15,7.21,2.15c3.41,0,6.04-0.89,7.9-2.67
	c1.86-1.78,2.79-4.27,2.79-7.48v-15.61h-6.61V130.76z M156.11,124.24c1.78,1.76,2.67,4.21,2.67,7.36c0,3.15-0.89,5.61-2.67,7.36
	c-1.78,1.76-4.27,2.63-7.48,2.63c-3.2,0-5.7-0.88-7.48-2.63c-1.78-1.76-2.67-4.21-2.67-7.36c0-3.15,0.89-5.61,2.67-7.36
	c1.78-1.76,4.27-2.63,7.48-2.63C151.84,121.61,154.33,122.48,156.11,124.24z M152.25,131.6c0-1.87-0.29-3.23-0.88-4.08
	c-0.59-0.85-1.5-1.27-2.73-1.27c-1.23,0-2.14,0.42-2.73,1.27c-0.59,0.85-0.88,2.2-0.88,4.08c0,1.87,0.29,3.23,0.88,4.08
	c0.59,0.85,1.5,1.27,2.73,1.27c1.23,0,2.14-0.42,2.73-1.27C151.95,134.83,152.25,133.47,152.25,131.6z M198.76,131.35
	c-1.24-0.96-3.27-1.69-6.09-2.17c-1.31-0.26-2.22-0.52-2.75-0.79c-0.53-0.27-0.79-0.6-0.79-0.98c0-0.41,0.26-0.76,0.77-1.04
	c0.51-0.28,1.23-0.42,2.15-0.42c1.18,0,2.19,0.21,3.04,0.61c0.85,0.41,1.58,1.06,2.19,1.96l3.38-3.31c-0.87-1.2-2.01-2.11-3.4-2.71
	c-1.4-0.6-3.2-0.9-5.4-0.9c-2,0-3.7,0.3-5.09,0.9c-1.4,0.6-2.44,1.39-3.13,2.36c-0.69,0.97-1.04,2.01-1.04,3.11
	c0,1.61,0.61,2.91,1.83,3.88c1.22,0.97,3.26,1.74,6.13,2.31c1.28,0.26,2.18,0.52,2.71,0.79c0.52,0.27,0.79,0.58,0.79,0.94
	c0,0.41-0.26,0.74-0.77,0.98c-0.51,0.24-1.22,0.37-2.11,0.37c-2.69,0-4.59-0.91-5.69-2.73l-3.38,3.69c1.85,2.26,4.97,3.38,9.38,3.38
	c2.97,0,5.24-0.58,6.8-1.75c1.56-1.17,2.35-2.68,2.35-4.56C200.63,133.63,200.01,132.31,198.76,131.35z M173.08,121.61
	c-1.36,0-2.53,0.32-3.52,0.96c-0.99,0.64-1.75,1.53-2.29,2.65v-11.38h-6.54v19.48c0.84-0.41,1.81-0.64,2.92-0.64
	c1.55,0,2.83,0.42,3.84,1.21c-0.15-0.61-0.22-1.3-0.22-2.1v-0.38c0-1.59,0.31-2.82,0.92-3.69c0.61-0.87,1.49-1.31,2.61-1.31
	c1.15,0,2.04,0.42,2.67,1.27c0.63,0.85,0.94,2.15,0.94,3.92c0,1.77-0.31,3.08-0.94,3.92c-0.63,0.85-1.52,1.27-2.67,1.27
	c-0.62,0-1.16-0.15-1.63-0.42c0.15,0.5,0.24,1.07,0.24,1.72c0,0.79-0.14,1.53-0.41,2.19c0.04,0.03,0.08,0.07,0.12,0.1
	c1.12,0.81,2.43,1.21,3.94,1.21c2.51,0,4.46-0.87,5.84-2.61c1.38-1.74,2.08-4.18,2.08-7.3c0-3.18-0.7-5.65-2.11-7.42
	C177.47,122.49,175.54,121.61,173.08,121.61z M121.4,33.28h-6.02v20.07h6.02V33.28z M55.51,11.76
	c12.92-18.36,36.72-11.83,44.83-1.48c8.11-10.35,31.91-16.88,44.83,1.48c15.61,22.19-4.11,66.27-44.83,78.71
	C59.61,78.02,39.9,33.95,55.51,11.76z M80.27,57.36c0,4.41,3.61,8.03,8.03,8.03h19.06c4.41,0,8.03-3.61,8.03-8.03h6.02
	c2.21,0,4.01-1.81,4.01-4.01V33.28c0-2.21-1.81-4.01-4.01-4.01h-6.02v-4.01H80.27V57.36z"/>
</svg>
