<?xml version="1.0" encoding="utf-8"?>
<!-- Generator: Adobe Illustrator 22.1.0, SVG Export Plug-In . SVG Version: 6.00 Build 0)  -->
<svg version="1.1" id="Layer_1" xmlns="http://www.w3.org/2000/svg" xmlns:xlink="http://www.w3.org/1999/xlink" x="0px" y="0px"
	 viewBox="0 0 300 298.7" style="enable-background:new 0 0 300 298.7;" xml:space="preserve">
<style type="text/css">
	.st0{fill:url(#SVGID_1_);}
	.st1{fill:url(#SVGID_2_);}
	.st2{opacity:0.4;fill:url(#SVGID_3_);enable-background:new    ;}
	.st3{fill:#F7F7F7;}
	.st4{opacity:0.2;fill:url(#SVGID_4_);enable-background:new    ;}
	.st5{fill:#404040;}
	.st6{fill:#D53D5A;}
	.st7{fill:#FFFFFF;}
</style>
<g>
	
		<radialGradient id="SVGID_1_" cx="150" cy="448.67" r="149.33" gradientTransform="matrix(1 0 0 1 0 -299.34)" gradientUnits="userSpaceOnUse">
		<stop  offset="0.3351" style="stop-color:#000000;stop-opacity:0"/>
		<stop  offset="0.6946" style="stop-color:#000000;stop-opacity:0.15"/>
		<stop  offset="1" style="stop-color:#000000;stop-opacity:0"/>
	</radialGradient>
	<polygon class="st0" points="299.3,148.9 159.9,148.9 298.8,136.8 298.7,135.9 159.8,148 297.1,123.8 297,123 159.7,147.2 
		294.4,111.1 294.1,110.3 159.5,146.4 290.5,98.7 290.2,97.8 159.2,145.5 285.5,86.6 285.1,85.8 158.8,144.8 279.5,75 279.1,74.3 
		158.4,144 272.6,64 272.1,63.3 157.9,143.3 264.7,53.7 264.1,53 157.3,142.6 255.9,44 255.3,43.4 156.7,142 246.3,35.2 245.6,34.7 
		156,141.5 236,27.3 235.3,26.8 155.3,141 225,20.2 224.3,19.8 154.6,140.5 213.5,14.2 212.7,13.8 153.8,140.2 201.5,9.2 200.7,8.9 
		153,139.9 189.1,5.2 188.2,5 152.1,139.6 176.4,2.3 175.5,2.2 151.3,139.5 163.4,0.6 162.6,0.5 150.4,139.4 150.4,0 149.6,0 
		149.6,139.4 137.4,0.5 136.6,0.6 148.7,139.5 124.5,2.2 123.6,2.3 147.9,139.6 111.8,5 110.9,5.2 147,139.9 99.3,8.9 98.5,9.2 
		146.2,140.2 87.3,13.8 86.5,14.2 145.4,140.5 75.7,19.8 75,20.2 144.7,141 64.7,26.8 64,27.3 144,141.5 54.3,34.7 53.7,35.2 
		143.3,142 44.7,43.4 44.1,44 142.7,142.6 35.9,53 35.3,53.7 142.1,143.3 27.9,63.3 27.4,64 141.6,144 20.9,74.3 20.5,75 
		141.2,144.8 14.9,85.8 14.5,86.6 140.8,145.5 9.8,97.8 9.5,98.7 140.5,146.4 5.9,110.3 5.7,111.1 140.3,147.2 3,123 2.9,123.8 
		140.2,148 1.3,135.9 1.2,136.8 140.1,148.9 0.7,148.9 0.7,149.8 140.1,149.8 1.2,161.9 1.3,162.8 140.2,150.6 2.9,174.8 3,175.7 
		140.3,151.5 5.7,187.6 5.9,188.4 140.5,152.3 9.5,200 9.8,200.8 140.8,153.1 14.5,212.1 14.9,212.8 141.2,153.9 20.5,223.6 
		20.9,224.4 141.6,154.7 27.4,234.6 27.9,235.3 142.1,155.4 35.3,245 35.9,245.6 142.7,156 44.1,254.6 44.7,255.2 143.3,156.6 
		53.7,263.4 54.3,264 144,157.2 64,271.4 64.7,271.9 144.7,157.7 75,278.4 75.7,278.9 145.4,158.1 86.5,284.5 87.3,284.9 
		146.2,158.5 98.5,289.5 99.3,289.8 147,158.8 110.9,293.5 111.8,293.7 147.9,159 123.6,296.3 124.5,296.5 148.7,159.2 136.6,298 
		137.4,298.1 149.6,159.2 149.6,298.7 150.4,298.7 150.4,159.2 162.6,298.1 163.4,298 151.3,159.2 175.5,296.5 176.4,296.3 
		152.1,159 188.2,293.7 189.1,293.5 153,158.8 200.7,289.8 201.5,289.5 153.8,158.5 212.7,284.9 213.5,284.5 154.6,158.1 
		224.3,278.9 225,278.4 155.3,157.7 235.3,271.9 236,271.4 156,157.2 245.6,264 246.3,263.4 156.7,156.6 255.3,255.2 255.9,254.6 
		157.3,156 264.1,245.6 264.7,245 157.9,155.4 272.1,235.3 272.6,234.6 158.4,154.7 279.1,224.4 279.5,223.6 158.8,153.9 
		285.1,212.8 285.5,212.1 159.2,153.1 290.2,200.8 290.5,200 159.5,152.3 294.1,188.4 294.4,187.6 159.7,151.5 297,175.7 
		297.1,174.8 159.8,150.6 298.7,162.8 298.8,161.9 159.9,149.8 299.3,149.8 	"/>
	<g>
		<g id="Layer_1_5_">
			
				<radialGradient id="SVGID_2_" cx="298.9561" cy="-478.526" r="73.293" gradientTransform="matrix(0.96 0 0 -0.96 -95.1978 -339.9253)" gradientUnits="userSpaceOnUse">
				<stop  offset="0.35" style="stop-color:#EF4044"/>
				<stop  offset="1" style="stop-color:#BC2560"/>
			</radialGradient>
			<path class="st1" d="M149.7,117.5c-11.9,0-21.6,9.7-21.6,21.6l0,0c0,15.1,13,32.5,21.6,43.3c8.7-10.8,21.6-28.1,21.6-43.3
				C171.3,127.2,161.6,117.5,149.7,117.5z"/>
			
				<linearGradient id="SVGID_3_" gradientUnits="userSpaceOnUse" x1="150.4448" y1="-470.1517" x2="170.4949" y2="-490.2067" gradientTransform="matrix(1 0 0 -1 0 -331.9883)">
				<stop  offset="0" style="stop-color:#000000"/>
				<stop  offset="1" style="stop-color:#000000;stop-opacity:0"/>
			</linearGradient>
			<path class="st2" d="M141.1,146.4l20.1,20.1c5.1-8,9.3-16.8,10-25.2l-10.8-10.8L141.1,146.4z"/>
			<path class="st3" d="M149.7,131.1c2.1-2.7,8.3-4.4,11.6,0.4c4,5.8-1.1,17.1-11.6,20.4c-10.5-3.2-15.6-14.6-11.6-20.4
				C141.4,126.8,147.6,128.5,149.7,131.1z"/>
			
				<linearGradient id="SVGID_4_" gradientUnits="userSpaceOnUse" x1="141.3158" y1="-461.0736" x2="158.9004" y2="-478.6583" gradientTransform="matrix(1 0 0 -1 0 -331.9883)">
				<stop  offset="0" style="stop-color:#000000;stop-opacity:0"/>
				<stop  offset="1" style="stop-color:#000000"/>
			</linearGradient>
			<path class="st4" d="M149.7,131.1c2.1-2.7,8.3-4.4,11.6,0.4c4,5.8-1.1,17.1-11.6,20.4c-10.5-3.2-15.6-14.6-11.6-20.4
				C141.4,126.8,147.6,128.5,149.7,131.1z"/>
			<path class="st5" d="M91.5,134h-7.9c7-30.2,34.1-52.8,66.4-52.8s59.4,22.6,66.4,52.8h-7.9c-7-26.6-31-45.1-58.5-45.1
				C122.5,88.9,98.5,107.4,91.5,134z M150,209.8c-27.5,0-51.5-18.5-58.5-45.1h-7.9c7,30.2,34.1,52.8,66.4,52.8s59.4-22.6,66.4-52.8
				h-7.9C201.5,191.3,177.5,209.8,150,209.8z M177.5,144.5h50.3c0.7,0,1.2-0.5,1.2-1.2s-0.5-1.2-1.2-1.2h-50
				C177.7,142.9,177.6,143.7,177.5,144.5z M72.2,144.5h49.6c-0.1-0.8-0.2-1.6-0.3-2.4H72.2c-0.7,0-1.2,0.5-1.2,1.2
				S71.5,144.5,72.2,144.5z M236.9,148.1h-60c-0.2,0.8-0.4,1.6-0.6,2.4h60.7c0.7,0,1.2-0.5,1.2-1.2S237.5,148.1,236.9,148.1z
				 M122.5,148.1H63.2c-0.7,0-1.2,0.5-1.2,1.2s0.5,1.2,1.2,1.2h60C122.9,149.7,122.7,148.9,122.5,148.1z M124.4,154.2H72.2
				c-0.7,0-1.2,0.5-1.2,1.2c0,0.7,0.5,1.2,1.2,1.2h53.1C125,155.8,124.7,155,124.4,154.2z M227.8,154.2H175
				c-0.3,0.8-0.6,1.6-0.9,2.4h53.8c0.7,0,1.2-0.5,1.2-1.2C229,154.7,228.5,154.2,227.8,154.2z M184.9,115.2l1.4,1.3l1.4-1.5
				l-4.7-4.5l-1.4,1.5l1.4,1.3l-7.2,7.5l2,1.9L184.9,115.2z M169.6,197.2l-0.6-1.6l-2.8,0.9l-1.3-3.7l2.1-0.7l-0.6-1.7l-2.1,0.7
				l-1.1-3.1l2.7-0.9l-0.6-1.7l-5.1,1.8l4,11.7L169.6,197.2z M163,107.5l1.8,0.6l-1.7,5.2l2.6,0.9l3.9-11.8l-2.6-0.9l-1.6,4.8
				l-1.8-0.6l1.6-4.8l-2.6-0.9l-3.9,11.8l2.6,0.9L163,107.5z M178.2,192.7l-0.9-1.5l-2.5,1.4l-5.3-9.3l-2.2,1.3l6.1,10.8
				L178.2,192.7z M183.6,169.8l11.1,5.6l1.1-2.3l-4.5-2.3l-0.4-0.6l5.9,0.8l1.1-2.3l-7.2-0.8l-3.9-4.6l-1.1,2.2l3.6,4.3l-4.6-2.3
				L183.6,169.8z M172.6,181.6l6.7,4.1l3.2,3.8l1.8-1.6l-3.2-3.8l-3-7.3l-1.8,1.5l1.9,4.1l-3.9-2.5L172.6,181.6z M175.4,113.4l1-1.6
				l-1.8-1.2l1.6-2.6l2.4,1.5l1-1.6l-4.7-3l-6.6,10.5l4.7,3l1-1.6l-2.4-1.5l2-3.1L175.4,113.4z M192.6,119.6l0.7,1.1l3.7-0.4
				l-1.1-1.7L192.6,119.6z M179.2,175.6l9.7,7.7l3.4-4.3l-1.4-1.1l-1.8,2.3l-3-2.4l1.4-1.8l-1.4-1.1l-1.4,1.8l-2.6-2l1.8-2.3
				l-1.4-1.1L179.2,175.6z M154.7,111.2l0.9-10.3l1.9,0.2l0.2-2l-6.5-0.6l-0.2,2l1.9,0.2l-0.9,10.3L154.7,111.2z M157,200.5l2.5-0.3
				l-1.4-12.3l-2.5,0.3l0.6,5.1l-2.2,0.3l-0.6-5.1l-2.5,0.3l1.4,12.3l2.5-0.3l-0.6-5.5l2.2-0.3L157,200.5z M137.4,105.4
				c0,0.5-0.3,1-0.7,1.5l3.7,5l-2.7,1l-3.2-4.7l-0.7,0.3l1.9,5.2l-2.6,0.9l-4.3-11.6l3.2-1.2c0.5-0.2,0.9-0.3,1.3-0.4
				s0.8-0.1,1.2-0.1c0.4,0,0.7,0.1,1,0.3s0.6,0.4,0.8,0.7c0.3,0.3,0.5,0.7,0.6,1.2C137.4,104.2,137.5,104.8,137.4,105.4z
				 M134.8,104.6c-0.2-0.5-0.4-0.9-0.7-1.1s-0.7-0.2-1.1,0l-0.8,0.3l1.2,3.2l0.7-0.2c0.5-0.2,0.8-0.5,1-0.8
				C135,105.5,135,105.1,134.8,104.6z M131.2,115.7l-1-1.5l-2.4,1.6l-2.1-3.1l1.8-1.2l-1.1-1.6l-1.8,1.2l-1.7-2.6l2.3-1.6l-1-1.6
				l-4.6,3.1l6.9,10.3L131.2,115.7z M120.6,124.5l4-4.1l-1.3-1.3l-2.2,2.2l-4.3-8.5l-1.1-1.1l-3.9,4l1.3,1.3l2-2.1l4.2,8.4
				L120.6,124.5z M148.2,109l-2.8,0.3l-0.4-3.7l2.1-0.3l-0.2-1.9l-2.1,0.3l-0.4-3l2.8-0.3l-0.2-1.9l-5.5,0.7l1.5,12.3l5.6-0.7
				L148.2,109z M198.6,122.8l-1.2-1.8l-3.3,1l0.7,1.1L198.6,122.8z M142.5,200.4l-2.4-0.3l3.9-12l2.8,0.3l0.9,12.6l-2.3-0.3
				l-0.1-2.8l-1.9-0.2L142.5,200.4z M143.7,196.2l1.5,0.2l-0.1-5L143.7,196.2z M115,128.2c-0.4,0-0.9-0.3-1.6-0.7l-0.9,2.2
				c1.2,0.7,2.2,1,3,0.8c0.8-0.2,1.6-0.7,2.2-1.7c0.5-0.8,0.7-1.7,0.5-2.5s-0.7-1.5-1.4-1.9c-0.3-0.2-0.7-0.4-1.1-0.5
				s-0.7-0.2-1.1-0.2c-0.4,0-0.7,0-1,0.1s-0.7,0.1-1,0.2l-1.3,0.4c-0.3,0.1-0.5,0.1-0.6,0.2c-0.1,0-0.3,0.1-0.5,0.1
				c-0.2,0-0.4,0-0.6,0c-0.2-0.1-0.4-0.1-0.6-0.3c-0.2-0.1-0.4-0.3-0.5-0.5s-0.1-0.4,0-0.6c0.1-0.1,0.1-0.2,0.2-0.2
				c0.1-0.1,0.2-0.1,0.3-0.1s0.2,0,0.3,0c0.1,0,0.2,0.1,0.4,0.1s0.3,0.1,0.4,0.2s0.3,0.2,0.4,0.3l1-2.2c-0.2-0.1-0.4-0.2-0.6-0.3
				c-0.2-0.1-0.4-0.2-0.6-0.3s-0.5-0.1-0.7-0.2s-0.4,0-0.7,0s-0.5,0.1-0.7,0.2c-0.2,0.1-0.4,0.3-0.7,0.5c-0.2,0.2-0.4,0.5-0.6,0.8
				c-0.6,0.9-0.8,1.8-0.6,2.6c0.2,0.8,0.7,1.5,1.5,2.1c0.3,0.2,0.6,0.4,1,0.5c0.3,0.1,0.6,0.2,0.9,0.2s0.6,0,0.8-0.1
				c0.3-0.1,0.6-0.1,0.9-0.2l1.4-0.4c0.4-0.1,0.7-0.2,1-0.3c0.3,0,0.5,0,0.8,0c0.3,0.1,0.6,0.2,0.9,0.3c0.5,0.3,0.6,0.7,0.4,1.1
				C115.7,128.1,115.4,128.3,115,128.2z M192.9,121.8c0.7,1.1,1,2.1,0.7,3c-0.3,0.9-1,1.7-2.1,2.4l-3.9,2.5c-1.1,0.7-2.1,1-3,0.9
				c-0.9-0.1-1.7-0.7-2.4-1.9c-0.4-0.6-0.6-1.1-0.7-1.6s-0.1-1,0.1-1.4s0.4-0.8,0.7-1.2c0.3-0.4,0.8-0.7,1.4-1.1l3.9-2.5
				c0.6-0.4,1.1-0.6,1.6-0.8c0.5-0.2,0.9-0.2,1.4-0.2c0.5,0.1,0.9,0.2,1.3,0.5C192.1,120.8,192.5,121.2,192.9,121.8z M191.4,123.3
				c0-0.1-0.1-0.3-0.2-0.4s-0.2-0.2-0.3-0.3s-0.2-0.1-0.3-0.1s-0.2,0-0.4,0.1c-0.1,0.1-0.3,0.1-0.4,0.2c-0.1,0.1-0.2,0.1-0.4,0.2
				l-5,3.2c-0.1,0.1-0.3,0.2-0.4,0.3s-0.2,0.2-0.3,0.3s-0.2,0.2-0.2,0.3c0,0.1-0.1,0.2,0,0.3c0,0.1,0.1,0.3,0.1,0.4
				c0.1,0.1,0.2,0.2,0.3,0.3s0.2,0.1,0.3,0.1s0.2,0,0.4-0.1c0.1,0,0.3-0.1,0.4-0.2s0.2-0.1,0.4-0.2l5-3.2c0.1-0.1,0.3-0.2,0.4-0.2
				c0.1-0.1,0.2-0.2,0.3-0.3c0.1-0.1,0.2-0.2,0.2-0.3S191.5,123.4,191.4,123.3z M112.8,185.4c0.5,0.5,1,0.9,1.4,1.1s0.9,0.3,1.4,0.2
				c0.4-0.1,0.9-0.2,1.3-0.5c0.4-0.3,0.9-0.6,1.4-1.1l6-5.8l-1.7-1.8l-6.3,6.1c-0.2,0.2-0.3,0.3-0.4,0.4s-0.3,0.2-0.4,0.3
				s-0.3,0.2-0.5,0.2s-0.3,0-0.4,0c-0.2-0.1-0.3-0.1-0.4-0.3c-0.1-0.1-0.2-0.3-0.3-0.4c0-0.1-0.1-0.3,0-0.4c0-0.1,0.1-0.3,0.2-0.4
				s0.2-0.3,0.3-0.4s0.3-0.3,0.4-0.4l6.3-6.1l-1.7-1.8l-6,5.8c-0.5,0.5-0.9,0.9-1.2,1.4s-0.5,0.9-0.5,1.3s0,0.9,0.2,1.4
				C111.9,184.4,112.3,184.9,112.8,185.4z M138.2,186.8l-3.9,4.1l1.8-4.9l-2.4-0.9l-4.2,11.7l2.4,0.9l1.7-4.8l0.5-0.4l-0.1,6
				l2.4,0.9l-0.1-7.3l4.1-4.5L138.2,186.8z M107.2,178.5l10.7-6.3l-1.3-2.3l-7.7,2.5l6.1-5.3l-1.3-2.3l-10.9,5.9l0.9,1.6l7.4-4
				l-6.5,5.6l0.8,1.3l8.1-2.7l-7.2,4.3L107.2,178.5z M124.9,194.6l6.7-10.4l-1.8-1.1l-3.5,5.4l1.2-6.9l-1.5-0.9l-6.7,10.4l1.8,1.2
				l3.7-5.8l-1.4,7.3L124.9,194.6z"/>
		</g>
	</g>
	<g>
		<path class="st6" d="M242.7,232.8c0,0-6.3-5.2-22.3-10.1l4.5-9c0,0-27.3-8.2-75.1-8.2s-75.1,8.2-75.1,8.2l4.4,9.2
			c-15.7,4.8-21.8,9.9-21.8,9.9l15.9,3.8l-7.4,14.2c0,0,12.1-6.8,25.6-10.4s26.2-4.2,26.2-4.2l-0.4-5.4c8.6-0.6,19.4-1.1,32.7-1.1
			c13.6,0,24.4,0.4,33,1.1l-0.4,5.4c0,0,12.7,0.6,26.2,4.2s25.6,10.4,25.6,10.4l-7.4-14.2L242.7,232.8z M114.4,233.4
			c-4.6,0.4-13.9,1.4-23.8,4.1c-6.8,1.9-13.2,4.4-18,6.6l3.2-6.1l1.8-3.4l-3.7-0.9l-8.9-2.2c1.8-0.9,4.1-2,6.9-3.1
			c2.7-1.1,5.5-2.1,8.6-3l5.1,10.6c0,0,6.4-3.3,28.7-5.2L114.4,233.4z M227.4,244.1c-4.8-2.2-11.2-4.8-18-6.6
			c-9.8-2.7-19.1-3.7-23.8-4.1l0.2-2.4c21.8,1.9,27.8,5.1,27.8,5.1l5.4-10.8c3.2,1,6.3,2,9.1,3.1c2.8,1.1,5.1,2.2,6.9,3.1l-8.9,2.2
			l-3.7,0.9l1.8,3.4L227.4,244.1z"/>
	</g>
	<g>
		<path class="st7" d="M132.1,221c2.9-2.7,4.9-4.6,4.9-6.2c0-1.1-0.6-1.7-1.6-1.7c-0.8,0-1.4,0.5-2,1.1l-1.4-1.4
			c1.1-1.2,2.2-1.8,3.8-1.8c2.2,0,3.7,1.4,3.7,3.6c0,1.9-1.8,3.9-3.6,5.8c0.6-0.1,1.3-0.1,1.9-0.1h2.3v2.2h-7.9V221z"/>
		<path class="st7" d="M141.4,216.9c0-3.8,1.6-5.8,4-5.8s4,2,4,5.8c0,3.8-1.6,5.9-4,5.9S141.4,220.7,141.4,216.9z M147,216.9
			c0-3.1-0.7-3.8-1.6-3.8c-0.9,0-1.6,0.7-1.6,3.8c0,3.1,0.7,3.8,1.6,3.8C146.3,220.7,147,219.9,147,216.9z"/>
		<path class="st7" d="M151.3,220.4h2.4v-6.5h-2.1v-1.6c1.2-0.2,2-0.5,2.8-1h1.9v9.1h2.1v2.1h-7.1V220.4z"/>
		<path class="st7" d="M160.1,219.6c0-1.4,0.8-2.2,1.9-2.8v-0.1c-0.9-0.7-1.5-1.5-1.5-2.6c0-1.9,1.5-3.1,3.6-3.1
			c2,0,3.4,1.2,3.4,3.1c0,1.1-0.7,1.9-1.5,2.5v0.1c1.1,0.6,1.9,1.4,1.9,2.9c0,1.8-1.6,3.1-4,3.1
			C161.8,222.7,160.1,221.5,160.1,219.6z M165.6,219.5c0-1-1-1.4-2.4-2c-0.5,0.5-0.9,1.1-0.9,1.8c0,1,0.8,1.6,1.7,1.6
			C165,220.9,165.6,220.5,165.6,219.5z M165.4,214.3c0-0.9-0.5-1.4-1.4-1.4c-0.7,0-1.3,0.4-1.3,1.3c0,0.9,0.8,1.4,1.9,1.8
			C165.2,215.5,165.4,214.9,165.4,214.3z"/>
	</g>
</g>
<title>SZM_logo_v1</title>
</svg>
