<svg width="183" height="40" viewBox="0 0 183 40" fill="none" xmlns="http://www.w3.org/2000/svg">
<rect width="183" height="40" rx="3" fill="black"/>
<path d="M133.623 31.045H135.571V17.9967H133.623V31.045ZM151.165 22.6963L148.933 28.3542H148.867L146.55 22.6963H144.451L147.924 30.6027L145.944 35.0021H147.977L153.332 22.6963H151.165ZM140.12 29.5627C139.481 29.5627 138.591 29.2441 138.591 28.4543C138.591 27.4459 139.699 27.0615 140.658 27.0615C141.513 27.0615 141.916 27.2458 142.437 27.4986C142.285 28.707 141.245 29.5627 140.12 29.5627ZM140.355 22.4119C138.944 22.4119 137.485 23.0306 136.879 24.4076L138.609 25.1316C138.978 24.4076 139.665 24.1733 140.389 24.1733C141.395 24.1733 142.419 24.7788 142.437 25.853V25.9873C142.085 25.7846 141.329 25.4818 140.405 25.4818C138.541 25.4818 136.645 26.506 136.645 28.4201C136.645 30.1656 138.172 31.2925 139.883 31.2925C141.195 31.2925 141.916 30.7054 142.369 30.0156H142.437V31.0239H144.317V26.0189C144.317 23.7047 142.587 22.4119 140.355 22.4119ZM128.317 24.2839H125.548V19.8107H128.317C129.773 19.8107 130.6 21.0165 130.6 22.0486C130.6 23.0596 129.773 24.2839 128.317 24.2839ZM128.267 17.9967H123.599V31.045H125.548V26.1005H128.267C130.426 26.1005 132.548 24.5366 132.548 22.0486C132.548 19.5579 130.426 17.9967 128.267 17.9967ZM102.818 29.5653C101.473 29.5653 100.346 28.4385 100.346 26.8904C100.346 25.3265 101.473 24.1838 102.818 24.1838C104.148 24.1838 105.188 25.3265 105.188 26.8904C105.188 28.4385 104.148 29.5653 102.818 29.5653ZM105.054 23.4256H104.988C104.551 22.9069 103.708 22.4356 102.65 22.4356C100.43 22.4356 98.3953 24.3866 98.3953 26.8904C98.3953 29.3784 100.43 31.3135 102.65 31.3135C103.708 31.3135 104.551 30.8423 104.988 30.3052H105.054V30.9449C105.054 32.6431 104.148 33.5515 102.684 33.5515C101.489 33.5515 100.749 32.6931 100.446 31.9691L98.7481 32.6747C99.2352 33.8542 100.531 35.2997 102.684 35.2997C104.972 35.2997 106.905 33.9543 106.905 30.6738V22.7042H105.054V23.4256ZM108.25 31.045H110.201V17.994H108.25V31.045ZM113.076 26.7403C113.026 25.0237 114.406 24.1496 115.396 24.1496C116.17 24.1496 116.828 24.5366 117.044 25.0922L113.076 26.7403ZM119.129 25.2607C118.76 24.2681 117.633 22.4356 115.33 22.4356C113.042 22.4356 111.143 24.2339 111.143 26.8746C111.143 29.3626 113.026 31.3135 115.548 31.3135C117.583 31.3135 118.76 30.0682 119.247 29.3468L117.733 28.3384C117.231 29.0783 116.541 29.5653 115.548 29.5653C114.556 29.5653 113.85 29.1099 113.395 28.22L119.332 25.7635L119.129 25.2607ZM71.8379 23.7968V25.6793H76.3427C76.2084 26.7403 75.8556 27.5144 75.3185 28.0515C74.6629 28.707 73.6361 29.4311 71.8379 29.4311C69.0629 29.4311 66.8935 27.1932 66.8935 24.4181C66.8935 21.6458 69.0629 19.4079 71.8379 19.4079C73.3334 19.4079 74.426 19.9976 75.2343 20.7532L76.5612 19.4237C75.4344 18.3495 73.9389 17.5254 71.8379 17.5254C68.0361 17.5254 64.8398 20.619 64.8398 24.4181C64.8398 28.22 68.0361 31.3135 71.8379 31.3135C73.8889 31.3135 75.4344 30.6422 76.6455 29.3784C77.8908 28.1357 78.2778 26.3875 78.2778 24.9737C78.2778 24.5366 78.2436 24.1338 78.1751 23.7968H71.8379ZM83.4013 29.5653C82.0559 29.5653 80.8949 28.4543 80.8949 26.8746C80.8949 25.2765 82.0559 24.1838 83.4013 24.1838C84.7467 24.1838 85.9051 25.2765 85.9051 26.8746C85.9051 28.4543 84.7467 29.5653 83.4013 29.5653ZM83.4013 22.4356C80.9449 22.4356 78.9439 24.3023 78.9439 26.8746C78.9439 29.4311 80.9449 31.3135 83.4013 31.3135C85.8551 31.3135 87.8561 29.4311 87.8561 26.8746C87.8561 24.3023 85.8551 22.4356 83.4013 22.4356ZM93.1217 29.5653C91.7764 29.5653 90.6179 28.4543 90.6179 26.8746C90.6179 25.2765 91.7764 24.1838 93.1217 24.1838C94.4671 24.1838 95.6282 25.2765 95.6282 26.8746C95.6282 28.4543 94.4671 29.5653 93.1217 29.5653ZM93.1217 22.4356C90.6679 22.4356 88.667 24.3023 88.667 26.8746C88.667 29.4311 90.6679 31.3135 93.1217 31.3135C95.5782 31.3135 97.5791 29.4311 97.5791 26.8746C97.5791 24.3023 95.5782 22.4356 93.1217 22.4356Z" fill="#FEFEFE"/>
<path d="M32.8929 7.6079C32.5902 7.9291 32.4111 8.42671 32.4111 9.07439V32.1406C32.4111 32.7857 32.5902 33.2833 32.8929 33.6045L32.9693 33.6809L45.8912 20.7589V20.4535L32.9693 7.53418L32.8929 7.6079Z" fill="#73CAF2"/>
<path fill-rule="evenodd" clip-rule="evenodd" d="M50.197 25.0687L45.8896 20.7587V20.4533L50.197 16.146L50.2944 16.2013L55.3968 19.1C56.8554 19.9294 56.8554 21.2853 55.3968 22.112L50.2944 25.0107L50.197 25.0687Z" fill="#FDCF02"/>
<path fill-rule="evenodd" clip-rule="evenodd" d="M50.2946 25.0102L45.8899 20.6055L32.8916 33.6038C33.3734 34.1119 34.1659 34.1751 35.0584 33.667L50.2946 25.0102Z" fill="#E84043"/>
<path fill-rule="evenodd" clip-rule="evenodd" d="M50.2946 16.2016L35.0584 7.54483C34.1659 7.03669 33.3734 7.09988 32.8916 7.60801L45.8899 20.6063L50.2946 16.2016Z" fill="#24B576"/>
<path d="M73.5213 11.7513V12.8176C71.2913 12.8176 68.9507 12.8176 66.7207 12.8176L66.7312 11.7513H66.9919C67.3789 11.7355 67.6475 11.4511 67.8002 10.9009C67.9555 10.3506 68.0503 9.56076 68.0845 8.53659L68.1556 6.59619H72.6393V11.7513H73.5213ZM69.0824 8.6419C69.0534 9.43439 68.9876 10.0926 68.8902 10.6192C68.7901 11.1484 68.6321 11.5249 68.4162 11.7513H71.5204V7.55718H69.1245L69.0824 8.6419ZM76.4569 12.7755C75.9856 12.7755 75.5591 12.6728 75.1826 12.47C74.8035 12.2647 74.5086 11.9803 74.2954 11.617C74.0821 11.2537 73.9768 10.8403 73.9768 10.3796C73.9768 9.91883 74.0821 9.50811 74.2954 9.14741C74.5086 8.78671 74.8035 8.505 75.1826 8.29963C75.5591 8.09691 75.9856 7.99423 76.4569 7.99423C76.9361 7.99423 77.3652 8.09691 77.7417 8.29963C78.1209 8.505 78.4184 8.78671 78.629 9.14741C78.8423 9.50811 78.9502 9.91883 78.9502 10.3796C78.9502 10.8403 78.8423 11.2537 78.629 11.617C78.4184 11.9803 78.1209 12.2647 77.7417 12.47C77.3652 12.6728 76.9361 12.7755 76.4569 12.7755ZM76.4569 11.8408C76.8597 11.8408 77.1915 11.7065 77.4548 11.438C77.7154 11.1694 77.8471 10.8166 77.8471 10.3796C77.8471 9.94252 77.7154 9.58972 77.4548 9.32381C77.1915 9.05526 76.8597 8.92098 76.4569 8.92098C76.0567 8.92098 75.725 9.05526 75.467 9.32381C75.2063 9.58972 75.0773 9.94252 75.0773 10.3796C75.0773 10.8166 75.2063 11.1694 75.467 11.438C75.725 11.7065 76.0567 11.8408 76.4569 11.8408ZM82.1465 12.7755C81.6647 12.7755 81.2302 12.6728 80.8459 12.47C80.4615 12.2647 80.1613 11.9803 79.9454 11.617C79.7295 11.2537 79.6216 10.8403 79.6216 10.3796C79.6216 9.91883 79.7295 9.50811 79.9454 9.14741C80.1613 8.78671 80.4588 8.505 80.8406 8.29963C81.2224 8.09691 81.6594 7.99423 82.1465 7.99423C82.6072 7.99423 83.01 8.08638 83.3576 8.27331C83.7051 8.46024 83.9658 8.72879 84.1395 9.07895L83.2997 9.56866C83.168 9.35277 82.9995 9.18953 82.7994 9.08159C82.5967 8.97364 82.3782 8.92098 82.1386 8.92098C81.7305 8.92098 81.3935 9.05262 81.1249 9.31854C80.8564 9.58446 80.7221 9.93726 80.7221 10.3796C80.7221 10.8245 80.8564 11.1773 81.1197 11.4432C81.3856 11.7065 81.7252 11.8408 82.1386 11.8408C82.3782 11.8408 82.5967 11.7855 82.7994 11.6776C82.9995 11.5696 83.168 11.409 83.2997 11.1931L84.1395 11.6828C83.9605 12.033 83.6946 12.3015 83.3497 12.4911C83.0021 12.6807 82.602 12.7755 82.1465 12.7755ZM88.7549 8.97364H87.1199V12.7149H86.0273V8.97364H84.3844V8.04688H88.7549V8.97364ZM93.989 8.04688L91.8037 13.0888C91.601 13.5969 91.3535 13.9523 91.0613 14.1603C90.7716 14.3657 90.4188 14.471 90.0055 14.471C89.7712 14.471 89.5421 14.4315 89.313 14.3578C89.0866 14.2814 88.8997 14.1761 88.7549 14.0418L89.1919 13.2388C89.2973 13.3362 89.421 13.4152 89.5632 13.4732C89.7053 13.5337 89.8501 13.56 89.995 13.56C90.1871 13.56 90.3478 13.5126 90.4715 13.4126C90.5979 13.3125 90.7137 13.1467 90.8164 12.915L90.8954 12.7307L88.8602 8.04688H89.995L91.4641 11.4985L92.9411 8.04688H93.989ZM99.2257 8.04688V12.7149H98.1409V8.97364H95.8425V12.7149H94.7499V8.04688H99.2257ZM100.703 8.04688H101.795V9.94252H104.146V8.04688H105.239V12.7149H104.146V10.8693H101.795V12.7149H100.703V8.04688ZM108.785 12.7755C108.314 12.7755 107.89 12.6728 107.511 12.47C107.132 12.2647 106.835 11.9803 106.624 11.617C106.411 11.2537 106.305 10.8403 106.305 10.3796C106.305 9.91883 106.411 9.50811 106.624 9.14741C106.835 8.78671 107.132 8.505 107.511 8.29963C107.89 8.09691 108.314 7.99423 108.785 7.99423C109.265 7.99423 109.691 8.09691 110.07 8.29963C110.449 8.505 110.747 8.78671 110.958 9.14741C111.171 9.50811 111.276 9.91883 111.276 10.3796C111.276 10.8403 111.171 11.2537 110.958 11.617C110.747 11.9803 110.449 12.2647 110.07 12.47C109.691 12.6728 109.265 12.7755 108.785 12.7755ZM108.785 11.8408C109.188 11.8408 109.52 11.7065 109.783 11.438C110.044 11.1694 110.176 10.8166 110.176 10.3796C110.176 9.94252 110.044 9.58972 109.783 9.32381C109.52 9.05526 109.188 8.92098 108.785 8.92098C108.385 8.92098 108.054 9.05526 107.796 9.32381C107.535 9.58972 107.406 9.94252 107.406 10.3796C107.406 10.8166 107.535 11.1694 107.796 11.438C108.054 11.7065 108.385 11.8408 108.785 11.8408ZM118.148 10.2848C118.724 10.4586 119.011 10.8324 119.011 11.4037C119.011 11.8224 118.853 12.1462 118.54 12.3726C118.224 12.5991 117.758 12.7149 117.142 12.7149H114.765V8.04688H117.045C117.616 8.04688 118.061 8.1522 118.382 8.36019C118.703 8.57082 118.864 8.86833 118.864 9.25272C118.864 9.49231 118.801 9.69767 118.674 9.87407C118.551 10.0478 118.374 10.1847 118.148 10.2848ZM115.805 9.99518H116.95C117.513 9.99518 117.798 9.80035 117.798 9.41069C117.798 9.03156 117.513 8.842 116.95 8.842H115.805V9.99518ZM117.055 11.9171C117.653 11.9171 117.953 11.7223 117.953 11.3327C117.953 11.1299 117.885 10.9772 117.745 10.8745C117.605 10.7719 117.387 10.7218 117.089 10.7218H115.805V11.9171H117.055Z" fill="#FEFEFE"/>
</svg>
