<svg width="163" height="49" viewBox="0 0 163 49" fill="none" xmlns="http://www.w3.org/2000/svg">
<path fill-rule="evenodd" clip-rule="evenodd" d="M156.678 48.9292H6.02765C2.713 48.9292 0 46.2162 0 42.9016V6.74315C0 3.43224 2.713 0.719238 6.02765 0.719238H156.678C159.993 0.719238 162.702 3.43224 162.702 6.74315V42.9016C162.702 46.2162 159.993 48.9292 156.678 48.9292Z" fill="black"/>
<path d="M36.3565 24.5727C36.3229 20.6863 39.5366 18.7954 39.6861 18.7095C37.8625 16.0525 35.0411 15.6901 34.0508 15.6602C31.6779 15.4135 29.3797 17.0802 28.1727 17.0802C26.9395 17.0802 25.0785 15.6863 23.0755 15.7274C20.497 15.7685 18.0867 17.2596 16.7601 19.5802C14.0322 24.3074 16.0688 31.2543 18.6846 35.0772C19.9925 36.9494 21.5209 39.0383 23.5239 38.9636C25.4821 38.8851 26.2145 37.7155 28.5762 37.7155C30.9193 37.7155 31.6069 38.9636 33.6472 38.9188C35.7474 38.8851 37.074 37.0391 38.3371 35.1482C39.8468 33.0032 40.4559 30.8918 40.4783 30.7835C40.4298 30.7648 36.3976 29.2289 36.3565 24.5727Z" fill="#FEFEFE"/>
<path d="M32.5 13.1487C33.5538 11.8296 34.275 10.0396 34.0732 8.21973C32.5486 8.28699 30.6428 9.27354 29.5441 10.5628C28.5725 11.6988 27.7055 13.5598 27.9297 15.3087C29.6413 15.4357 31.4013 14.4454 32.5 13.1487Z" fill="#FEFEFE"/>
<path d="M60.0112 32.009L58.6547 27.8199C58.5127 27.3939 58.2436 26.3849 57.8475 24.8004H57.7989C57.642 25.4806 57.3879 26.4895 57.0366 27.8199L55.7063 32.009H60.0112ZM64.701 38.698H61.9656L60.4634 33.9858H55.2541L53.8266 38.698H51.1622L56.3229 22.6592H59.5142L64.701 38.698Z" fill="#FEFEFE"/>
<path d="M75.3625 32.8647C75.3625 31.7399 75.1084 30.8131 74.6001 30.0807C74.0433 29.3221 73.2997 28.9372 72.3617 28.9372C71.7302 28.9372 71.151 29.1502 70.639 29.5687C70.1233 29.991 69.7832 30.544 69.6263 31.2242C69.5478 31.5418 69.5067 31.8034 69.5067 32.0089V33.9372C69.5067 34.778 69.7646 35.488 70.2803 36.0672C70.7959 36.6464 71.4649 36.9342 72.2907 36.9342C73.2586 36.9342 74.0134 36.5642 74.5516 35.8168C75.0897 35.0694 75.3625 34.0866 75.3625 32.8647ZM77.9783 32.7712C77.9783 34.7369 77.4477 36.2914 76.3826 37.4349C75.4335 38.4514 74.2489 38.9558 72.84 38.9558C71.3154 38.9558 70.2205 38.4103 69.5553 37.3153H69.5067V43.4065H66.9357V30.9402C66.9357 29.7032 66.9058 28.4327 66.8423 27.1322H69.1031L69.2451 28.9633H69.2937C70.1495 27.5844 71.4499 26.8931 73.195 26.8931C74.559 26.8931 75.6988 27.4312 76.6106 28.5112C77.5224 29.5911 77.9783 31.0112 77.9783 32.7712Z" fill="#FEFEFE"/>
<path d="M88.6621 32.8647C88.6621 31.7399 88.408 30.8131 87.8998 30.0807C87.343 29.3221 86.5994 28.9372 85.6651 28.9372C85.0298 28.9372 84.4544 29.1502 83.9387 29.5687C83.423 29.991 83.0866 30.544 82.9297 31.2242C82.8475 31.5418 82.8101 31.8034 82.8101 32.0089V33.9372C82.8101 34.778 83.068 35.488 83.5799 36.0672C84.0956 36.6464 84.7683 36.9342 85.5941 36.9342C86.562 36.9342 87.3131 36.5642 87.8512 35.8168C88.3931 35.0694 88.6621 34.0866 88.6621 32.8647ZM91.2817 32.7712C91.2817 34.7369 90.7473 36.2914 89.686 37.4349C88.7331 38.4514 87.5523 38.9558 86.1397 38.9558C84.615 38.9558 83.5239 38.4103 82.855 37.3153H82.8101V43.4065H80.2391V30.9402C80.2391 29.7032 80.2055 28.4327 80.1457 27.1322H82.4028L82.5485 28.9633H82.5934C83.4529 27.5844 84.7496 26.8931 86.4985 26.8931C87.8587 26.8931 88.9985 27.4312 89.914 28.5112C90.8221 29.5911 91.2817 31.0112 91.2817 32.7712Z" fill="#FEFEFE"/>
<path d="M106.151 34.1987C106.151 35.5627 105.68 36.6725 104.727 37.5283C103.685 38.4663 102.227 38.9334 100.359 38.9334C98.6322 38.9334 97.2496 38.6008 96.2032 37.9356L96.7974 35.7906C97.926 36.4745 99.1629 36.8183 100.512 36.8183C101.48 36.8183 102.235 36.5978 102.776 36.1606C103.315 35.7234 103.584 35.1404 103.584 34.408C103.584 33.7577 103.359 33.2084 102.915 32.7637C102.474 32.319 101.734 31.9042 100.702 31.5231C97.8961 30.4767 96.491 28.9408 96.491 26.9229C96.491 25.6075 96.9843 24.5238 97.9671 23.683C98.9499 22.8422 100.258 22.4199 101.895 22.4199C103.352 22.4199 104.566 22.674 105.534 23.1823L104.892 25.2749C103.987 24.7854 102.967 24.5388 101.82 24.5388C100.916 24.5388 100.209 24.7592 99.7047 25.2039C99.275 25.6 99.062 26.0858 99.062 26.6576C99.062 27.2891 99.3086 27.8123 99.7982 28.2271C100.228 28.6083 101.005 29.0193 102.134 29.464C103.513 30.0208 104.525 30.6673 105.179 31.4147C105.826 32.1621 106.151 33.0888 106.151 34.1987Z" fill="#FEFEFE"/>
<path d="M114.649 29.0604H111.816V34.6732C111.816 36.1008 112.313 36.8182 113.315 36.8182C113.774 36.8182 114.155 36.7771 114.458 36.6987L114.529 38.6493C114.021 38.8399 113.356 38.9333 112.53 38.9333C111.513 38.9333 110.721 38.6232 110.149 38.0066C109.581 37.3863 109.294 36.3474 109.294 34.89V29.0604H107.605V27.1321H109.294V25.0133L111.816 24.251V27.1321H114.649V29.0604Z" fill="#FEFEFE"/>
<path d="M124.761 32.902C124.761 31.837 124.533 30.9215 124.069 30.1554C123.531 29.2324 122.762 28.7727 121.764 28.7727C120.729 28.7727 119.948 29.2324 119.406 30.1554C118.946 30.9215 118.718 31.852 118.718 32.9506C118.718 34.0156 118.946 34.9312 119.406 35.6935C119.963 36.6165 120.74 37.0762 121.741 37.0762C122.72 37.0762 123.49 36.6091 124.047 35.6711C124.522 34.8901 124.761 33.9671 124.761 32.902ZM127.425 32.8198C127.425 34.5949 126.921 36.056 125.904 37.1958C124.839 38.3729 123.427 38.9558 121.667 38.9558C119.97 38.9558 118.617 38.3953 117.612 37.2668C116.603 36.1419 116.099 34.7219 116.099 33.0104C116.099 31.2167 116.618 29.7481 117.657 28.6083C118.696 27.4648 120.097 26.8931 121.857 26.8931C123.554 26.8931 124.922 27.4573 125.953 28.5822C126.936 29.6771 127.425 31.0896 127.425 32.8198Z" fill="#FEFEFE"/>
<path d="M135.777 29.3931C135.523 29.3445 135.254 29.3221 134.97 29.3221C134.066 29.3221 133.367 29.6621 132.874 30.346C132.444 30.9476 132.231 31.71 132.231 32.6292V38.698H129.664L129.686 30.772C129.686 29.4379 129.652 28.2271 129.589 27.1322H131.827L131.924 29.3445H131.992C132.265 28.5822 132.694 27.973 133.281 27.5134C133.849 27.0986 134.469 26.8931 135.138 26.8931C135.374 26.8931 135.587 26.9118 135.777 26.9416V29.3931Z" fill="#FEFEFE"/>
<path d="M144.821 31.6987C144.836 30.9401 144.671 30.2824 144.32 29.7256C143.875 29.0119 143.195 28.6531 142.272 28.6531C141.435 28.6531 140.751 29.0044 140.228 29.7032C139.798 30.2563 139.544 30.9252 139.469 31.6987H144.821ZM147.272 32.3676C147.272 32.8273 147.242 33.2159 147.175 33.5335H139.469C139.499 34.6733 139.869 35.5477 140.587 36.1494C141.233 36.6912 142.078 36.9603 143.105 36.9603C144.249 36.9603 145.288 36.7772 146.226 36.411L146.629 38.1972C145.534 38.6718 144.241 38.911 142.75 38.911C140.957 38.911 139.552 38.3841 138.524 37.3265C137.504 36.2727 136.992 34.8564 136.992 33.0814C136.992 31.3362 137.466 29.8826 138.419 28.7241C139.417 27.4872 140.766 26.8706 142.463 26.8706C144.129 26.8706 145.392 27.4872 146.248 28.7241C146.928 29.7107 147.272 30.9252 147.272 32.3676Z" fill="#FEFEFE"/>
<path d="M60.0448 12.1577C60.4671 12.2923 60.7997 12.509 61.0351 12.8079C61.2743 13.1069 61.3938 13.4582 61.3938 13.8618C61.3938 14.284 61.2556 14.654 60.979 14.9642C60.7063 15.2781 60.3363 15.5172 59.8767 15.6854C59.417 15.8535 58.9125 15.9395 58.3707 15.9395C57.8998 15.9395 57.4252 15.8722 56.9506 15.7414C56.4761 15.6106 56.0388 15.4126 55.6353 15.151L56.0575 14.1943C56.3677 14.4036 56.7115 14.5643 57.0889 14.6727C57.4626 14.7848 57.8363 14.8408 58.2063 14.8408C58.7406 14.8408 59.1816 14.7362 59.5329 14.5269C59.8879 14.3177 60.0635 14.0337 60.0635 13.6712C60.0635 13.361 59.9364 13.1256 59.6786 12.9649C59.4245 12.8005 59.0732 12.722 58.6211 12.722H56.9768V11.6943H58.5202C58.9088 11.6943 59.2152 11.6121 59.4394 11.4514C59.6599 11.2908 59.772 11.0703 59.772 10.7937C59.772 10.4649 59.6225 10.2108 59.3236 10.0277C59.0246 9.84831 58.6397 9.75488 58.1764 9.75488C57.8625 9.75488 57.5336 9.80346 57.1973 9.89315C56.861 9.98284 56.5471 10.1174 56.2518 10.2893L55.837 9.23172C56.1995 9.0374 56.5844 8.89166 56.9918 8.7945C57.3991 8.6936 57.8027 8.64502 58.2063 8.64502C58.7332 8.64502 59.2152 8.72723 59.6562 8.88792C60.0934 9.04861 60.4484 9.2803 60.71 9.57925C60.9716 9.8782 61.1024 10.2295 61.1024 10.6331C61.1024 10.9843 61.0089 11.2908 60.8184 11.5523C60.6315 11.8139 60.3737 12.0157 60.0448 12.1577ZM64.7421 10.3902C65.5381 10.3902 66.1435 10.5807 66.562 10.9619C66.9843 11.3431 67.1935 11.9148 67.1935 12.6809V15.8386H66.0052V15.1809C65.8483 15.4201 65.6278 15.5994 65.3438 15.7227C65.056 15.8461 64.7122 15.9096 64.3086 15.9096C63.9051 15.9096 63.5538 15.8386 63.2511 15.7041C62.9484 15.5658 62.713 15.3715 62.5486 15.1286C62.3841 14.8819 62.3019 14.6054 62.3019 14.2952C62.3019 13.8094 62.4813 13.4208 62.8438 13.1293C63.2025 12.8378 63.7668 12.6921 64.5403 12.6921H65.9342V12.6099C65.9342 12.2325 65.8221 11.9447 65.5941 11.7429C65.3699 11.5411 65.0373 11.4402 64.5927 11.4402C64.29 11.4402 63.991 11.4888 63.6995 11.5822C63.408 11.6757 63.1614 11.8065 62.9596 11.9746L62.4626 11.0591C62.7466 10.8423 63.0867 10.6779 63.4828 10.5621C63.8789 10.45 64.3012 10.3902 64.7421 10.3902ZM64.5702 14.9903C64.8879 14.9903 65.1681 14.9193 65.4148 14.7736C65.6614 14.6278 65.8333 14.4223 65.9342 14.1532V13.5292H64.6338C63.9051 13.5292 63.5426 13.7683 63.5426 14.2429C63.5426 14.4746 63.6323 14.654 63.8154 14.7885C63.9985 14.923 64.2489 14.9903 64.5702 14.9903ZM72.8924 11.5224H70.0187V15.8386H68.7593V10.4537H72.8924V11.5224ZM76.7974 10.3902C77.3206 10.3902 77.7915 10.506 78.2025 10.734C78.6173 10.9619 78.9424 11.287 79.1779 11.7018C79.4133 12.1204 79.5291 12.6024 79.5291 13.1443C79.5291 13.6899 79.4133 14.1719 79.1779 14.5942C78.9424 15.0127 78.6173 15.3378 78.2025 15.5658C77.7915 15.7937 77.3206 15.9096 76.7974 15.9096C76.0687 15.9096 75.497 15.6667 75.071 15.1809V17.7967H73.8116V10.4537H75.0112V11.16C75.2205 10.9021 75.4783 10.7115 75.781 10.5845C76.0874 10.4574 76.4275 10.3902 76.7974 10.3902ZM76.6554 14.8296C77.1188 14.8296 77.5 14.6764 77.7989 14.3662C78.0979 14.0561 78.2474 13.6488 78.2474 13.1443C78.2474 12.6398 78.0979 12.2325 77.7989 11.926C77.5 11.6159 77.1188 11.4627 76.6554 11.4627C76.3527 11.4627 76.0799 11.5299 75.837 11.6682C75.5979 11.8065 75.4036 12.0008 75.2616 12.2586C75.1233 12.5127 75.0523 12.8079 75.0523 13.1443C75.0523 13.4806 75.1233 13.7758 75.2616 14.0337C75.4036 14.2878 75.5979 14.4858 75.837 14.6241C76.0799 14.7624 76.3527 14.8296 76.6554 14.8296ZM85.7137 10.4537L83.1913 16.2721C82.9559 16.8588 82.6681 17.2698 82.3355 17.509C81.9955 17.7444 81.5919 17.864 81.1136 17.864C80.8445 17.864 80.5792 17.8229 80.3176 17.7332C80.056 17.6473 79.8393 17.5277 79.6711 17.3707L80.1756 16.444C80.2952 16.5561 80.4409 16.6495 80.6054 16.7168C80.7698 16.784 80.9342 16.8177 81.1024 16.8177C81.3266 16.8177 81.5097 16.7616 81.6517 16.6458C81.7974 16.5299 81.932 16.3393 82.0515 16.0703L82.1412 15.8573L79.7907 10.4537H81.1024L82.7989 14.4372L84.503 10.4537H85.7137ZM89.6749 13.0359C90.0112 13.1293 90.2728 13.2825 90.4596 13.4918C90.6427 13.7048 90.7361 13.9589 90.7361 14.2541C90.7361 14.583 90.624 14.8745 90.4036 15.1286C90.1793 15.379 89.8767 15.577 89.4843 15.719C89.0956 15.8573 88.6509 15.9283 88.1539 15.9283C87.7354 15.9283 87.3281 15.8797 86.932 15.7825C86.5358 15.6854 86.1771 15.5471 85.8557 15.364L86.2182 14.426C86.4798 14.5755 86.775 14.6876 87.1039 14.7698C87.4327 14.8483 87.7653 14.8894 88.0941 14.8894C88.5164 14.8894 88.849 14.8259 89.0882 14.6951C89.3236 14.5643 89.4432 14.3812 89.4432 14.1532C89.4432 13.944 89.3535 13.7833 89.1666 13.6712C88.9835 13.5553 88.7219 13.4993 88.3856 13.4993H87.3355V12.651H88.2847C88.6024 12.651 88.849 12.5987 89.0246 12.4903C89.204 12.3819 89.2937 12.2325 89.2937 12.0344C89.2937 11.8401 89.1853 11.6869 88.9723 11.571C88.7556 11.4589 88.4604 11.3991 88.0829 11.3991C87.5448 11.3991 86.9768 11.5299 86.3789 11.7952L86.0575 10.8648C86.7601 10.5359 87.4738 10.3715 88.195 10.3715C88.6509 10.3715 89.062 10.435 89.4245 10.5583C89.787 10.6816 90.071 10.8573 90.2765 11.0815C90.482 11.3094 90.5829 11.5636 90.5829 11.855C90.5829 12.1166 90.5045 12.352 90.3438 12.5538C90.1793 12.7594 89.9589 12.9201 89.6749 13.0359ZM92.0478 10.4537H93.3071V14.0038L96.2817 10.4537H97.4327V15.8386H96.1734V12.2885L93.2062 15.8386H92.0478V10.4537ZM103.393 11.5224H101.506V15.8386H100.247V11.5224H98.352V10.4537H103.393V11.5224ZM109.122 13.1742C109.122 13.2639 109.118 13.3872 109.103 13.5479H104.877C104.951 13.944 105.146 14.2579 105.456 14.4933C105.77 14.725 106.158 14.8408 106.622 14.8408C107.212 14.8408 107.702 14.6465 108.083 14.2541L108.759 15.0314C108.516 15.3192 108.214 15.5396 107.844 15.6854C107.474 15.8349 107.055 15.9096 106.592 15.9096C105.998 15.9096 105.478 15.79 105.03 15.5546C104.578 15.3192 104.23 14.994 103.984 14.5718C103.741 14.1532 103.617 13.6749 103.617 13.1443C103.617 12.6211 103.737 12.1465 103.976 11.728C104.211 11.3094 104.544 10.9806 104.966 10.7452C105.392 10.5097 105.867 10.3902 106.401 10.3902C106.924 10.3902 107.392 10.506 107.806 10.7414C108.221 10.9731 108.543 11.2982 108.774 11.7168C109.006 12.139 109.122 12.6248 109.122 13.1742ZM106.401 11.3991C105.998 11.3991 105.654 11.5187 105.377 11.7579C105.097 11.997 104.925 12.3147 104.865 12.7108H107.922C107.87 12.3221 107.706 12.0045 107.429 11.7616C107.152 11.5224 106.809 11.3991 106.401 11.3991ZM117.194 13.0359C117.859 13.2377 118.191 13.6674 118.191 14.3251C118.191 14.8109 118.008 15.1809 117.646 15.4462C117.283 15.7078 116.745 15.8386 116.031 15.8386H113.288V10.4537H115.919C116.581 10.4537 117.096 10.5733 117.463 10.8162C117.833 11.0591 118.019 11.3991 118.019 11.8438C118.019 12.1204 117.948 12.3595 117.803 12.5613C117.657 12.7631 117.455 12.9201 117.194 13.0359ZM114.488 12.6996H115.811C116.461 12.6996 116.79 12.4754 116.79 12.0269C116.79 11.5897 116.461 11.3692 115.811 11.3692H114.488V12.6996ZM115.93 14.9193C116.626 14.9193 116.969 14.6951 116.969 14.2429C116.969 14.0112 116.891 13.8319 116.726 13.716C116.566 13.5964 116.315 13.5404 115.972 13.5404H114.488V14.9193H115.93Z" fill="#FEFEFE"/>
</svg>
