<svg width="163" height="49" viewBox="0 0 163 49" fill="none" xmlns="http://www.w3.org/2000/svg">
<path fill-rule="evenodd" clip-rule="evenodd" d="M156.677 48.2068H6.02509C2.71159 48.2068 0 45.4952 0 42.1817V6.02509C0 2.7116 2.71159 0 6.02509 0H156.677C159.99 0 162.702 2.7116 162.702 6.02509V42.1817C162.702 45.4952 159.99 48.2068 156.677 48.2068Z" fill="black"/>
<path d="M128.88 36.1568H131.129V21.091H128.88V36.1568ZM149.135 26.5172L146.557 33.05H146.481L143.806 26.5172H141.383L145.393 35.6461L143.107 40.7258H145.453L151.637 26.5172H149.135ZM136.382 34.4453C135.644 34.4453 134.616 34.0775 134.616 33.1655C134.616 32.0012 135.896 31.5574 137.002 31.5574C137.99 31.5574 138.455 31.7702 139.057 32.062C138.881 33.4574 137.68 34.4453 136.382 34.4453ZM136.653 26.1889C135.023 26.1889 133.339 26.9033 132.64 28.4932L134.637 29.3292C135.063 28.4932 135.856 28.2226 136.692 28.2226C137.854 28.2226 139.036 28.9218 139.057 30.1621V30.3171C138.65 30.0831 137.778 29.7335 136.711 29.7335C134.558 29.7335 132.37 30.916 132.37 33.126C132.37 35.1415 134.133 36.4425 136.109 36.4425C137.623 36.4425 138.455 35.7646 138.978 34.9682H139.057V36.1325H141.228V30.3536C141.228 27.6815 139.231 26.1889 136.653 26.1889ZM122.754 28.3503H119.556V23.1855H122.754C124.435 23.1855 125.39 24.5778 125.39 25.7694C125.39 26.9368 124.435 28.3503 122.754 28.3503ZM122.697 21.091H117.307V36.1568H119.556V30.4478H122.697C125.189 30.4478 127.64 28.6421 127.64 25.7694C127.64 22.8937 125.189 21.091 122.697 21.091ZM93.3129 34.4484C91.7595 34.4484 90.4584 33.1473 90.4584 31.3598C90.4584 29.5541 91.7595 28.2348 93.3129 28.2348C94.8481 28.2348 96.0488 29.5541 96.0488 31.3598C96.0488 33.1473 94.8481 34.4484 93.3129 34.4484ZM95.8938 27.3593H95.8178C95.3132 26.7604 94.3404 26.2163 93.1184 26.2163C90.5557 26.2163 88.2059 28.4689 88.2059 31.3598C88.2059 34.2325 90.5557 36.4669 93.1184 36.4669C94.3404 36.4669 95.3132 35.9227 95.8178 35.3026H95.8938V36.0413C95.8938 38.002 94.8481 39.0508 93.1579 39.0508C91.7778 39.0508 90.9235 38.0598 90.574 37.2238L88.6132 38.0385C89.1756 39.4004 90.6712 41.0693 93.1579 41.0693C95.7995 41.0693 98.0308 39.5159 98.0308 35.7282V26.5264H95.8938V27.3593ZM99.5842 36.1568H101.837V21.088H99.5842V36.1568ZM105.156 31.1865C105.099 29.2045 106.692 28.1953 107.835 28.1953C108.728 28.1953 109.488 28.6421 109.738 29.2836L105.156 31.1865ZM112.145 29.4781C111.72 28.3321 110.418 26.2163 107.759 26.2163C105.117 26.2163 102.925 28.2926 102.925 31.3416C102.925 34.2143 105.099 36.4669 108.011 36.4669C110.361 36.4669 111.72 35.029 112.282 34.196L110.534 33.0318C109.953 33.886 109.157 34.4484 108.011 34.4484C106.865 34.4484 106.05 33.9225 105.524 32.895L112.379 30.0587L112.145 29.4781ZM57.5423 27.7879V29.9615H62.7436C62.5886 31.1865 62.1812 32.0803 61.5611 32.7004C60.8042 33.4574 59.6186 34.2933 57.5423 34.2933C54.3383 34.2933 51.8334 31.7094 51.8334 28.5053C51.8334 25.3043 54.3383 22.7204 57.5423 22.7204C59.269 22.7204 60.5306 23.4013 61.4638 24.2738L62.9959 22.7386C61.6949 21.4984 59.9682 20.5469 57.5423 20.5469C53.1527 20.5469 49.4623 24.1188 49.4623 28.5053C49.4623 32.895 53.1527 36.4669 57.5423 36.4669C59.9104 36.4669 61.6949 35.6917 63.0932 34.2325C64.5311 32.7977 64.978 30.7792 64.978 29.1468C64.978 28.6421 64.9384 28.177 64.8594 27.7879H57.5423ZM70.8936 34.4484C69.3402 34.4484 67.9996 33.1655 67.9996 31.3416C67.9996 29.4964 69.3402 28.2348 70.8936 28.2348C72.447 28.2348 73.7846 29.4964 73.7846 31.3416C73.7846 33.1655 72.447 34.4484 70.8936 34.4484ZM70.8936 26.2163C68.0574 26.2163 65.7471 28.3716 65.7471 31.3416C65.7471 34.2933 68.0574 36.4669 70.8936 36.4669C73.7268 36.4669 76.0371 34.2933 76.0371 31.3416C76.0371 28.3716 73.7268 26.2163 70.8936 26.2163ZM82.1169 34.4484C80.5635 34.4484 79.226 33.1655 79.226 31.3416C79.226 29.4964 80.5635 28.2348 82.1169 28.2348C83.6703 28.2348 85.0109 29.4964 85.0109 31.3416C85.0109 33.1655 83.6703 34.4484 82.1169 34.4484ZM82.1169 26.2163C79.2837 26.2163 76.9734 28.3716 76.9734 31.3416C76.9734 34.2933 79.2837 36.4669 82.1169 36.4669C84.9532 36.4669 87.2635 34.2933 87.2635 31.3416C87.2635 28.3716 84.9532 26.2163 82.1169 26.2163Z" fill="#FEFEFE"/>
<path d="M12.5761 9.09537C12.2265 9.46624 12.0198 10.0408 12.0198 10.7886V37.4212C12.0198 38.166 12.2265 38.7405 12.5761 39.1114L12.6642 39.1995L27.5841 24.2797V23.9271L12.6642 9.01025L12.5761 9.09537Z" fill="#73CAF2"/>
<path fill-rule="evenodd" clip-rule="evenodd" d="M32.5574 29.2563L27.5841 24.28V23.9274L32.5574 18.9541L32.6699 19.0179L38.5612 22.3649C40.2453 23.3224 40.2453 24.888 38.5612 25.8425L32.6699 29.1895L32.5574 29.2563Z" fill="#FDCF02"/>
<path fill-rule="evenodd" clip-rule="evenodd" d="M32.6699 29.1888L27.5841 24.103L12.5761 39.111C13.1324 39.6977 14.0474 39.7707 15.078 39.184L32.6699 29.1888Z" fill="#E84043"/>
<path fill-rule="evenodd" clip-rule="evenodd" d="M32.6699 19.0176L15.078 9.02243C14.0474 8.43573 13.1324 8.50869 12.5761 9.09539L27.5841 24.1034L32.6699 19.0176Z" fill="#24B576"/>
<path d="M59.4879 13.8799V15.111C56.9131 15.111 54.2106 15.111 51.6358 15.111L51.648 13.8799H51.9489C52.3958 13.8616 52.7058 13.5333 52.8822 12.898C53.0615 12.2626 53.171 11.3507 53.2105 10.1681L53.2926 7.92773H58.4695V13.8799H59.4879ZM54.3626 10.2897C54.3292 11.2048 54.2532 11.9647 54.1407 12.5727C54.0252 13.1837 53.8428 13.6184 53.5935 13.8799H57.1775V9.0373H54.4112L54.3626 10.2897ZM62.8774 15.0624C62.3332 15.0624 61.8408 14.9438 61.4061 14.7098C60.9683 14.4726 60.6278 14.1443 60.3816 13.7248C60.1354 13.3053 60.0138 12.8281 60.0138 12.2961C60.0138 11.7641 60.1354 11.2899 60.3816 10.8734C60.6278 10.4569 60.9683 10.1317 61.4061 9.89455C61.8408 9.66048 62.3332 9.54192 62.8774 9.54192C63.4306 9.54192 63.9261 9.66048 64.3608 9.89455C64.7986 10.1317 65.1421 10.4569 65.3853 10.8734C65.6315 11.2899 65.7562 11.7641 65.7562 12.2961C65.7562 12.8281 65.6315 13.3053 65.3853 13.7248C65.1421 14.1443 64.7986 14.4726 64.3608 14.7098C63.9261 14.9438 63.4306 15.0624 62.8774 15.0624ZM62.8774 13.9832C63.3425 13.9832 63.7255 13.8282 64.0295 13.5181C64.3304 13.208 64.4824 12.8007 64.4824 12.2961C64.4824 11.7915 64.3304 11.3841 64.0295 11.0771C63.7255 10.767 63.3425 10.612 62.8774 10.612C62.4153 10.612 62.0323 10.767 61.7344 11.0771C61.4334 11.3841 61.2845 11.7915 61.2845 12.2961C61.2845 12.8007 61.4334 13.208 61.7344 13.5181C62.0323 13.8282 62.4153 13.9832 62.8774 13.9832ZM69.4466 15.0624C68.8903 15.0624 68.3887 14.9438 67.9449 14.7098C67.5011 14.4726 67.1545 14.1443 66.9052 13.7248C66.656 13.3053 66.5313 12.8281 66.5313 12.2961C66.5313 11.7641 66.656 11.2899 66.9052 10.8734C67.1545 10.4569 67.498 10.1317 67.9388 9.89455C68.3796 9.66048 68.8842 9.54192 69.4466 9.54192C69.9786 9.54192 70.4437 9.64832 70.845 9.86415C71.2462 10.08 71.5472 10.3901 71.7478 10.7944L70.7781 11.3598C70.6261 11.1105 70.4315 10.922 70.2005 10.7974C69.9664 10.6728 69.7141 10.612 69.4375 10.612C68.9663 10.612 68.5772 10.764 68.2671 11.071C67.9571 11.378 67.802 11.7854 67.802 12.2961C67.802 12.8098 67.9571 13.2172 68.261 13.5242C68.5681 13.8282 68.9602 13.9832 69.4375 13.9832C69.7141 13.9832 69.9664 13.9194 70.2005 13.7948C70.4315 13.6701 70.6261 13.4847 70.7781 13.2354L71.7478 13.8008C71.5411 14.2051 71.2341 14.5152 70.8358 14.7341C70.4346 14.953 69.9725 15.0624 69.4466 15.0624ZM77.0768 10.6728H75.189V14.9925H73.9274V10.6728H72.0305V9.60272H77.0768V10.6728ZM83.1201 9.60272L80.597 15.4241C80.3629 16.0108 80.0772 16.4212 79.7397 16.6614C79.4053 16.8985 78.998 17.0201 78.5207 17.0201C78.2502 17.0201 77.9857 16.9745 77.7212 16.8894C77.4598 16.8012 77.244 16.6796 77.0768 16.5246L77.5814 15.5974C77.703 15.7099 77.8459 15.8011 78.01 15.868C78.1742 15.9379 78.3414 15.9683 78.5086 15.9683C78.7305 15.9683 78.9159 15.9136 79.0588 15.798C79.2047 15.6825 79.3385 15.491 79.457 15.2235L79.5482 15.0107L77.1984 9.60272H78.5086L80.2048 13.588L81.9102 9.60272H83.1201ZM89.1665 9.60272V14.9925H87.914V10.6728H85.2602V14.9925H83.9986V9.60272H89.1665ZM90.8719 9.60272H92.1334V11.7915H94.848V9.60272H96.1096V14.9925H94.848V12.8615H92.1334V14.9925H90.8719V9.60272ZM100.204 15.0624C99.6602 15.0624 99.1708 14.9438 98.733 14.7098C98.2953 14.4726 97.9518 14.1443 97.7086 13.7248C97.4624 13.3053 97.3408 12.8281 97.3408 12.2961C97.3408 11.7641 97.4624 11.2899 97.7086 10.8734C97.9518 10.4569 98.2953 10.1317 98.733 9.89455C99.1708 9.66048 99.6602 9.54192 100.204 9.54192C100.758 9.54192 101.25 9.66048 101.688 9.89455C102.126 10.1317 102.469 10.4569 102.712 10.8734C102.959 11.2899 103.08 11.7641 103.08 12.2961C103.08 12.8281 102.959 13.3053 102.712 13.7248C102.469 14.1443 102.126 14.4726 101.688 14.7098C101.25 14.9438 100.758 15.0624 100.204 15.0624ZM100.204 13.9832C100.669 13.9832 101.052 13.8282 101.356 13.5181C101.657 13.208 101.809 12.8007 101.809 12.2961C101.809 11.7915 101.657 11.3841 101.356 11.0771C101.052 10.767 100.669 10.612 100.204 10.612C99.7423 10.612 99.3593 10.767 99.0614 11.0771C98.7604 11.3841 98.6115 11.7915 98.6115 12.2961C98.6115 12.8007 98.7604 13.208 99.0614 13.5181C99.3593 13.8282 99.7423 13.9832 100.204 13.9832ZM111.014 12.1866C111.68 12.3873 112.011 12.8189 112.011 13.4786C112.011 13.9619 111.829 14.3359 111.467 14.5973C111.102 14.8587 110.564 14.9925 109.853 14.9925H107.108V9.60272H109.741C110.4 9.60272 110.914 9.72432 111.285 9.96447C111.656 10.2077 111.841 10.5512 111.841 10.995C111.841 11.2716 111.768 11.5087 111.622 11.7124C111.479 11.913 111.276 12.0711 111.014 12.1866ZM108.309 11.8523H109.631C110.282 11.8523 110.61 11.6273 110.61 11.1774C110.61 10.7396 110.282 10.5208 109.631 10.5208H108.309V11.8523ZM109.753 14.0714C110.443 14.0714 110.789 13.8464 110.789 13.3965C110.789 13.1625 110.71 12.9861 110.549 12.8676C110.388 12.749 110.136 12.6913 109.792 12.6913H108.309V14.0714H109.753Z" fill="#FEFEFE"/>
</svg>
