<svg width="24" height="19" viewBox="0 0 24 19" fill="none" xmlns="http://www.w3.org/2000/svg">
<path fill-rule="evenodd" clip-rule="evenodd" d="M20.5764 0H20.5765H23.4353C23.7471 0 24 0.252871 24 0.564727V3.4235C24 3.73532 23.7471 3.98823 23.4353 3.98823H21.1412V6.28241C21.1412 6.59423 20.8883 6.8471 20.5765 6.8471H18.2824V9.14131C18.2824 9.45314 18.0295 9.70601 17.7177 9.70601H15.4236V12.0002C15.4236 12.312 15.1707 12.5649 14.8589 12.5649H12.5648V14.8591C12.5648 15.1709 12.3119 15.4238 12.0001 15.4238H9.14121C8.82939 15.4238 8.57648 15.1709 8.57648 14.8591V12.5649H6.28241C5.97058 12.5649 5.71771 12.312 5.71771 12.0002V9.70601H3.42363C3.11178 9.70601 2.85891 9.45314 2.85891 9.14131V6.8471H0.564727C0.252904 6.8471 0 6.59423 0 6.28241V3.4236C0 3.11178 0.252904 2.85891 0.564727 2.85891H3.42363H6.28254C6.59436 2.85891 6.84723 3.11178 6.84723 3.4236V5.71781H9.14131C9.45317 5.71781 9.70604 5.97069 9.70604 6.28251V8.57672H11.4353V6.28251C11.4353 5.97069 11.6882 5.71781 12 5.71781H14.2941V3.4236C14.2941 3.11178 14.547 2.85891 14.8588 2.85891H17.1529V0.564727C17.1529 0.252871 17.4057 0 17.7176 0H20.5764Z" fill="#2A9D8F"/>
<path fill-rule="evenodd" clip-rule="evenodd" d="M20.5764 2.85883H20.5765H23.4353C23.7471 2.85883 24 3.1117 24 3.42352V6.28232C24 6.59415 23.7471 6.84702 23.4353 6.84702H21.1412V9.14123C21.1412 9.45305 20.8883 9.70593 20.5765 9.70593H18.2824V12.0001C18.2824 12.312 18.0295 12.5648 17.7177 12.5648H15.4236V14.859C15.4236 15.1709 15.1707 15.4237 14.8589 15.4237H12.5648V17.718C12.5648 18.0298 12.3119 18.2826 12.0001 18.2826H9.14121C8.82939 18.2826 8.57648 18.0298 8.57648 17.718V15.4237H6.28241C5.97058 15.4237 5.71771 15.1709 5.71771 14.859V12.5648H3.42363C3.11178 12.5648 2.85891 12.312 2.85891 12.0001V9.70593H0.564727C0.252904 9.70593 0 9.45305 0 9.14123V6.28243C0 5.9706 0.252904 5.71773 0.564727 5.71773H3.42363H6.28254C6.59436 5.71773 6.84723 5.9706 6.84723 6.28243V8.57664H9.14131C9.45317 8.57664 9.70604 8.82951 9.70604 9.14133V11.4355H11.4353V9.14133C11.4353 8.82951 11.6882 8.57664 12 8.57664H14.2941V6.28243C14.2941 5.9706 14.547 5.71773 14.8588 5.71773H17.1529V3.42352C17.1529 3.1117 17.4057 2.85883 17.7176 2.85883H20.5764Z" fill="#49BEAA"/>
</svg>
