<svg width="32" height="25" viewBox="0 0 32 25" fill="none" xmlns="http://www.w3.org/2000/svg">
<path fill-rule="evenodd" clip-rule="evenodd" d="M27.4352 0H27.4353H31.247C31.6628 0 32 0.337161 32 0.75297V4.56467C32 4.98043 31.6628 5.31764 31.247 5.31764H28.1883V8.37654C28.1883 8.79231 27.8511 9.12947 27.4353 9.12947H24.3765V12.1884C24.3765 12.6042 24.0394 12.9413 23.6236 12.9413H20.5648V16.0003C20.5648 16.4161 20.2277 16.7532 19.8119 16.7532H16.7531V19.8122C16.7531 20.2279 16.4159 20.5651 16.0002 20.5651H12.1883C11.7725 20.5651 11.4353 20.2279 11.4353 19.8122V16.7532H8.37654C7.96078 16.7532 7.62362 16.4161 7.62362 16.0003V12.9413H4.56485C4.14904 12.9413 3.81188 12.6042 3.81188 12.1884V9.12947H0.75297C0.337206 9.12947 0 8.79231 0 8.37654V4.5648C0 4.14904 0.337206 3.81188 0.75297 3.81188H4.56485H8.37672C8.79249 3.81188 9.12965 4.14904 9.12965 4.5648V7.62375H12.1884C12.6042 7.62375 12.9414 7.96091 12.9414 8.37668V11.4356H15.2471V8.37668C15.2471 7.96091 15.5842 7.62375 16 7.62375H19.0588V4.5648C19.0588 4.14904 19.396 3.81188 19.8117 3.81188H22.8705V0.75297C22.8705 0.337161 23.2076 0 23.6235 0H27.4352Z" fill="#6ABAB1"/>
<path fill-rule="evenodd" clip-rule="evenodd" d="M27.4352 3.81184H27.4353H31.247C31.6628 3.81184 32 4.149 32 4.56477V8.37651C32 8.79227 31.6628 9.12943 31.247 9.12943H28.1883V12.1884C28.1883 12.6041 27.8511 12.9413 27.4353 12.9413H24.3765V16.0003C24.3765 16.416 24.0394 16.7532 23.6236 16.7532H20.5648V19.8121C20.5648 20.2279 20.2277 20.5651 19.8119 20.5651H16.7531V23.624C16.7531 24.0398 16.4159 24.3769 16.0002 24.3769H12.1883C11.7725 24.3769 11.4353 24.0398 11.4353 23.624V20.5651H8.37654C7.96078 20.5651 7.62362 20.2279 7.62362 19.8121V16.7532H4.56485C4.14904 16.7532 3.81188 16.416 3.81188 16.0003V12.9413H0.75297C0.337206 12.9413 0 12.6041 0 12.1884V8.37665C0 7.96088 0.337206 7.62372 0.75297 7.62372H4.56485H8.37672C8.79249 7.62372 9.12965 7.96088 9.12965 8.37665V11.4356H12.1884C12.6042 11.4356 12.9414 11.7728 12.9414 12.1885V15.2475H15.2471V12.1885C15.2471 11.7728 15.5842 11.4356 16 11.4356H19.0588V8.37665C19.0588 7.96088 19.396 7.62372 19.8117 7.62372H22.8705V4.56477C22.8705 4.149 23.2076 3.81184 23.6235 3.81184H27.4352Z" fill="#92D8CC"/>
</svg>
