<svg width="28" height="22" viewBox="0 0 28 22" fill="none" xmlns="http://www.w3.org/2000/svg">
<path fill-rule="evenodd" clip-rule="evenodd" d="M24.0058 0H24.0059H27.3411C27.7049 0 28 0.295016 28 0.658849V3.99408C28 4.35788 27.7049 4.65293 27.3411 4.65293H24.6647V7.32947C24.6647 7.69327 24.3697 7.98828 24.0059 7.98828H21.3295V10.6649C21.3295 11.0287 21.0344 11.3237 20.6706 11.3237H17.9942V14.0003C17.9942 14.364 17.6992 14.6591 17.3354 14.6591H14.6589V17.3356C14.6589 17.6994 14.3639 17.9945 14.0001 17.9945H10.6647C10.301 17.9945 10.0059 17.6994 10.0059 17.3356V14.6591H7.32947C6.96568 14.6591 6.67066 14.364 6.67066 14.0003V11.3237H3.99424C3.63041 11.3237 3.33539 11.0287 3.33539 10.6649V7.98828H0.658849C0.295055 7.98828 0 7.69327 0 7.32947V3.9942C0 3.63041 0.295055 3.33539 0.658849 3.33539H3.99424H7.32963C7.69342 3.33539 7.98844 3.63041 7.98844 3.9942V6.67078H10.6649C11.0287 6.67078 11.3237 6.9658 11.3237 7.32959V10.0062H13.3412V7.32959C13.3412 6.9658 13.6362 6.67078 14 6.67078H16.6764V3.9942C16.6764 3.63041 16.9715 3.33539 17.3353 3.33539H20.0117V0.658849C20.0117 0.295016 20.3067 0 20.6705 0H24.0058Z" fill="#2A9D8F"/>
<path fill-rule="evenodd" clip-rule="evenodd" d="M24.0058 3.33521H24.0059H27.3411C27.7049 3.33521 28 3.63022 28 3.99401V7.32929C28 7.69308 27.7049 7.9881 27.3411 7.9881H24.6647V10.6647C24.6647 11.0285 24.3697 11.3235 24.0059 11.3235H21.3295V14.0001C21.3295 14.3639 21.0344 14.6589 20.6706 14.6589H17.9942V17.3355C17.9942 17.6993 17.6992 17.9943 17.3354 17.9943H14.6589V20.6709C14.6589 21.0346 14.3639 21.3297 14.0001 21.3297H10.6647C10.301 21.3297 10.0059 21.0346 10.0059 20.6709V17.9943H7.32947C6.96568 17.9943 6.67066 17.6993 6.67066 17.3355V14.6589H3.99424C3.63041 14.6589 3.33539 14.3639 3.33539 14.0001V11.3235H0.658849C0.295055 11.3235 0 11.0285 0 10.6647V7.32941C0 6.96561 0.295055 6.6706 0.658849 6.6706H3.99424H7.32963C7.69342 6.6706 7.98844 6.96561 7.98844 7.32941V10.006H10.6649C11.0287 10.006 11.3237 10.301 11.3237 10.6648V13.3414H13.3412V10.6648C13.3412 10.301 13.6362 10.006 14 10.006H16.6764V7.32941C16.6764 6.96561 16.9715 6.6706 17.3353 6.6706H20.0117V3.99401C20.0117 3.63022 20.3067 3.33521 20.6705 3.33521H24.0058Z" fill="#49BEAA"/>
</svg>
