<svg width="183" height="40" viewBox="0 0 183 40" fill="none" xmlns="http://www.w3.org/2000/svg">
<rect width="183" height="40" rx="3" fill="black"/>
<path d="M51.4882 19.9032C51.4591 16.5373 54.2425 14.8996 54.372 14.8252C52.7926 12.524 50.349 12.2101 49.4913 12.1842C47.4361 11.9706 45.4457 13.414 44.4003 13.414C43.3322 13.414 41.7205 12.2068 39.9857 12.2424C37.7525 12.278 35.6649 13.5694 34.516 15.5793C32.1533 19.6735 33.9172 25.6901 36.1828 29.0011C37.3156 30.6226 38.6393 32.4318 40.3741 32.3671C42.07 32.2991 42.7044 31.2861 44.7498 31.2861C46.7791 31.2861 47.3746 32.3671 49.1418 32.3282C50.9607 32.2991 52.1097 30.7003 53.2036 29.0626C54.5112 27.2048 55.0387 25.3762 55.0581 25.2823C55.016 25.2661 51.5238 23.9359 51.4882 19.9032Z" fill="#FEFEFE"/>
<path d="M48.1473 10.0102C49.06 8.86768 49.6847 7.31739 49.5099 5.74121C48.1894 5.79947 46.5388 6.65391 45.5872 7.7705C44.7457 8.7544 43.9949 10.3662 44.1891 11.8809C45.6714 11.9909 47.1958 11.1332 48.1473 10.0102Z" fill="#FEFEFE"/>
<path d="M71.9756 26.3473L70.8007 22.7191C70.6777 22.3502 70.4447 21.4763 70.1016 20.104H70.0596C69.9236 20.6931 69.7036 21.5669 69.3993 22.7191L68.2471 26.3473H71.9756ZM76.0374 32.1406H73.6683L72.3672 28.0594H67.8555L66.6192 32.1406H64.3115L68.7811 18.2495H71.5451L76.0374 32.1406Z" fill="#FEFEFE"/>
<path d="M85.2709 27.0838C85.2709 26.1096 85.0508 25.307 84.6107 24.6726C84.1284 24.0156 83.4844 23.6822 82.672 23.6822C82.125 23.6822 81.6234 23.8667 81.18 24.2292C80.7333 24.5949 80.4388 25.0739 80.3029 25.663C80.2349 25.9381 80.1993 26.1646 80.1993 26.3427V28.0127C80.1993 28.7409 80.4226 29.3558 80.8693 29.8575C81.3159 30.3592 81.8952 30.6084 82.6105 30.6084C83.4488 30.6084 84.1025 30.288 84.5686 29.6407C85.0346 28.9934 85.2709 28.1422 85.2709 27.0838ZM87.5365 27.0029C87.5365 28.7053 87.0769 30.0517 86.1545 31.0421C85.3324 31.9224 84.3064 32.3593 83.0863 32.3593C81.7658 32.3593 80.8175 31.8868 80.2414 30.9385H80.1993V36.214H77.9726V25.417C77.9726 24.3457 77.9467 23.2453 77.8917 22.119H79.8498L79.9727 23.7049H80.0148C80.756 22.5106 81.8823 21.9119 83.3937 21.9119C84.5751 21.9119 85.5622 22.3779 86.3519 23.3133C87.1416 24.2486 87.5365 25.4785 87.5365 27.0029Z" fill="#FEFEFE"/>
<path d="M96.7898 27.0838C96.7898 26.1096 96.5697 25.307 96.1296 24.6726C95.6473 24.0156 95.0033 23.6822 94.1941 23.6822C93.6439 23.6822 93.1455 23.8667 92.6989 24.2292C92.2522 24.5949 91.961 25.0739 91.825 25.663C91.7538 25.9381 91.7215 26.1646 91.7215 26.3427V28.0127C91.7215 28.7409 91.9448 29.3558 92.3882 29.8575C92.8348 30.3592 93.4174 30.6084 94.1327 30.6084C94.9709 30.6084 95.6214 30.288 96.0875 29.6407C96.5568 28.9934 96.7898 28.1422 96.7898 27.0838ZM99.0586 27.0029C99.0586 28.7053 98.5958 30.0517 97.6766 31.0421C96.8513 31.9224 95.8286 32.3593 94.6052 32.3593C93.2847 32.3593 92.3396 31.8868 91.7603 30.9385H91.7215V36.214H89.4947V25.417C89.4947 24.3457 89.4656 23.2453 89.4138 22.119H91.3687L91.4949 23.7049H91.5337C92.2781 22.5106 93.4012 21.9119 94.9159 21.9119C96.094 21.9119 97.0811 22.3779 97.8741 23.3133C98.6605 24.2486 99.0586 25.4785 99.0586 27.0029Z" fill="#FEFEFE"/>
<path d="M111.937 28.2406C111.937 29.4219 111.53 30.3831 110.704 31.1243C109.801 31.9366 108.539 32.3412 106.921 32.3412C105.426 32.3412 104.228 32.0532 103.322 31.4771L103.837 29.6193C104.814 30.2116 105.885 30.5093 107.054 30.5093C107.892 30.5093 108.546 30.3184 109.015 29.9397C109.481 29.561 109.714 29.0562 109.714 28.4218C109.714 27.8586 109.52 27.3829 109.135 26.9977C108.753 26.6126 108.112 26.2533 107.219 25.9232C104.788 25.017 103.571 23.6868 103.571 21.9391C103.571 20.7998 103.998 19.8612 104.85 19.133C105.701 18.4048 106.834 18.0391 108.251 18.0391C109.513 18.0391 110.565 18.2591 111.403 18.6993L110.847 20.5118C110.064 20.0878 109.18 19.8742 108.186 19.8742C107.403 19.8742 106.791 20.0651 106.355 20.4503C105.982 20.7933 105.798 21.2141 105.798 21.7093C105.798 22.2562 106.011 22.7094 106.435 23.0686C106.808 23.3987 107.481 23.7547 108.458 24.1399C109.653 24.6221 110.53 25.182 111.096 25.8293C111.656 26.4767 111.937 27.2793 111.937 28.2406Z" fill="#FEFEFE"/>
<path d="M119.295 23.7901H116.842V28.6514C116.842 29.8877 117.273 30.5091 118.14 30.5091C118.538 30.5091 118.868 30.4735 119.13 30.4056L119.192 32.095C118.752 32.2601 118.176 32.341 117.46 32.341C116.58 32.341 115.894 32.0724 115.399 31.5384C114.907 31.0011 114.657 30.1013 114.657 28.8391V23.7901H113.195V22.1201H114.657V20.285L116.842 19.6248V22.1201H119.295V23.7901Z" fill="#FEFEFE"/>
<path d="M128.055 27.1162C128.055 26.1938 127.858 25.4008 127.456 24.7373C126.99 23.9379 126.324 23.5398 125.459 23.5398C124.563 23.5398 123.886 23.9379 123.417 24.7373C123.019 25.4008 122.822 26.2067 122.822 27.1583C122.822 28.0807 123.019 28.8736 123.417 29.5339C123.899 30.3333 124.573 30.7314 125.44 30.7314C126.288 30.7314 126.955 30.3268 127.437 29.5144C127.848 28.838 128.055 28.0386 128.055 27.1162ZM130.363 27.045C130.363 28.5823 129.926 29.8478 129.045 30.8349C128.123 31.8544 126.9 32.3593 125.375 32.3593C123.906 32.3593 122.734 31.8739 121.864 30.8964C120.99 29.9222 120.553 28.6924 120.553 27.21C120.553 25.6565 121.003 24.3846 121.902 23.3974C122.802 22.4071 124.016 21.9119 125.54 21.9119C127.01 21.9119 128.194 22.4006 129.088 23.3748C129.939 24.3231 130.363 25.5465 130.363 27.045Z" fill="#FEFEFE"/>
<path d="M137.597 24.0771C137.377 24.035 137.144 24.0156 136.898 24.0156C136.114 24.0156 135.509 24.3101 135.082 24.9024C134.71 25.4235 134.525 26.0837 134.525 26.8799V32.136H132.302L132.321 25.2714C132.321 24.1159 132.292 23.0673 132.237 22.119H134.176L134.26 24.035H134.318C134.554 23.3748 134.927 22.8472 135.435 22.4491C135.927 22.0899 136.464 21.9119 137.043 21.9119C137.247 21.9119 137.432 21.928 137.597 21.9539V24.0771Z" fill="#FEFEFE"/>
<path d="M145.429 26.0757C145.442 25.4187 145.3 24.8491 144.996 24.3669C144.61 23.7487 144.021 23.438 143.222 23.438C142.497 23.438 141.905 23.7422 141.452 24.3474C141.079 24.8264 140.859 25.4058 140.795 26.0757H145.429ZM147.552 26.6551C147.552 27.0532 147.527 27.3898 147.468 27.6649H140.795C140.821 28.652 141.141 29.4093 141.762 29.9304C142.322 30.3997 143.054 30.6327 143.944 30.6327C144.934 30.6327 145.834 30.4742 146.646 30.157L146.996 31.704C146.047 32.1151 144.928 32.3222 143.636 32.3222C142.083 32.3222 140.866 31.8659 139.976 30.9499C139.092 30.0372 138.649 28.8106 138.649 27.2732C138.649 25.7618 139.06 24.5028 139.885 23.4995C140.749 22.4282 141.918 21.8942 143.387 21.8942C144.831 21.8942 145.924 22.4282 146.666 23.4995C147.255 24.3539 147.552 25.4058 147.552 26.6551Z" fill="#FEFEFE"/>
<path d="M72.0046 9.15316C72.3704 9.26968 72.6584 9.45739 72.8623 9.71631C73.0694 9.97523 73.173 10.2795 73.173 10.629C73.173 10.9947 73.0533 11.3152 72.8138 11.5838C72.5775 11.8556 72.2571 12.0628 71.859 12.2084C71.4609 12.3541 71.024 12.4285 70.5547 12.4285C70.1469 12.4285 69.7358 12.3703 69.3248 12.257C68.9138 12.1437 68.5351 11.9722 68.1855 11.7456L68.5513 10.9171C68.8199 11.0983 69.1177 11.2375 69.4446 11.3313C69.7682 11.4284 70.0919 11.477 70.4123 11.477C70.8751 11.477 71.257 11.3864 71.5612 11.2051C71.8687 11.0239 72.0208 10.7779 72.0208 10.4639C72.0208 10.1953 71.9108 9.99142 71.6875 9.85225C71.4674 9.70984 71.1631 9.64187 70.7715 9.64187H69.3475V8.75183H70.6841C71.0207 8.75183 71.2861 8.68063 71.4803 8.54146C71.6713 8.40229 71.7684 8.21134 71.7684 7.97183C71.7684 7.68702 71.6389 7.46694 71.38 7.30835C71.1211 7.153 70.7877 7.07208 70.3864 7.07208C70.1145 7.07208 69.8297 7.11416 69.5384 7.19183C69.2471 7.26951 68.9753 7.38603 68.7196 7.53491L68.3603 6.61897C68.6743 6.45067 69.0076 6.32445 69.3604 6.2403C69.7132 6.15291 70.0627 6.11084 70.4123 6.11084C70.8686 6.11084 71.2861 6.18204 71.668 6.32121C72.0467 6.46038 72.3542 6.66105 72.5807 6.91997C72.8073 7.17889 72.9206 7.48312 72.9206 7.83266C72.9206 8.1369 72.8397 8.40229 72.6746 8.62885C72.5128 8.8554 72.2894 9.03017 72.0046 9.15316ZM76.0729 7.62229C76.7623 7.62229 77.2866 7.78735 77.6491 8.11748C78.0148 8.4476 78.1961 8.94279 78.1961 9.60627V12.3411H77.1669V11.7715C77.0309 11.9786 76.84 12.134 76.594 12.2408C76.3448 12.3476 76.047 12.4026 75.6975 12.4026C75.3479 12.4026 75.0437 12.3411 74.7816 12.2246C74.5194 12.1049 74.3155 11.9366 74.1731 11.7262C74.0307 11.5126 73.9595 11.2731 73.9595 11.0044C73.9595 10.5837 74.1148 10.2471 74.4288 9.99465C74.7395 9.74221 75.2282 9.61598 75.8982 9.61598H77.1054V9.54478C77.1054 9.21789 77.0083 8.96868 76.8109 8.79391C76.6167 8.61914 76.3286 8.53175 75.9435 8.53175C75.6813 8.53175 75.4224 8.57383 75.1699 8.65474C74.9175 8.73565 74.7039 8.84893 74.5291 8.99457L74.0987 8.20163C74.3446 8.01391 74.6392 7.8715 74.9822 7.77117C75.3253 7.67408 75.691 7.62229 76.0729 7.62229ZM75.924 11.6064C76.1992 11.6064 76.4419 11.5449 76.6555 11.4187C76.8691 11.2925 77.018 11.1145 77.1054 10.8815V10.341H75.9791C75.3479 10.341 75.034 10.5481 75.034 10.9591C75.034 11.1598 75.1117 11.3152 75.2703 11.4317C75.4289 11.5482 75.6457 11.6064 75.924 11.6064ZM83.1318 8.60295H80.6429V12.3411H79.5522V7.67731H83.1318V8.60295ZM86.5139 7.62229C86.967 7.62229 87.3748 7.72262 87.7308 7.92005C88.0901 8.11748 88.3717 8.39905 88.5756 8.75831C88.7795 9.1208 88.8798 9.53831 88.8798 10.0076C88.8798 10.4801 88.7795 10.8976 88.5756 11.2634C88.3717 11.6259 88.0901 11.9074 87.7308 12.1049C87.3748 12.3023 86.967 12.4026 86.5139 12.4026C85.8828 12.4026 85.3876 12.1922 85.0186 11.7715V14.0371H83.9279V7.67731H84.9669V8.28901C85.1481 8.06569 85.3714 7.90063 85.6336 7.79059C85.899 7.68055 86.1935 7.62229 86.5139 7.62229ZM86.3909 11.4673C86.7923 11.4673 87.1224 11.3346 87.3813 11.0659C87.6402 10.7973 87.7697 10.4445 87.7697 10.0076C87.7697 9.57067 87.6402 9.21789 87.3813 8.9525C87.1224 8.68387 86.7923 8.55117 86.3909 8.55117C86.1288 8.55117 85.8925 8.60943 85.6821 8.72918C85.475 8.84893 85.3067 9.01723 85.1837 9.24055C85.064 9.46063 85.0025 9.71631 85.0025 10.0076C85.0025 10.2989 85.064 10.5546 85.1837 10.7779C85.3067 10.998 85.475 11.1695 85.6821 11.2893C85.8925 11.409 86.1288 11.4673 86.3909 11.4673ZM94.2362 7.67731L92.0516 12.7166C91.8477 13.2247 91.5985 13.5807 91.3104 13.7878C91.0159 13.9917 90.6664 14.0953 90.2521 14.0953C90.0191 14.0953 89.7893 14.0597 89.5627 13.982C89.3362 13.9076 89.1484 13.804 89.0028 13.6681L89.4397 12.8654C89.5433 12.9625 89.6695 13.0434 89.8119 13.1017C89.9543 13.16 90.0967 13.1891 90.2424 13.1891C90.4366 13.1891 90.5952 13.1405 90.7181 13.0402C90.8444 12.9399 90.9609 12.7748 91.0645 12.5418L91.1421 12.3573L89.1064 7.67731H90.2424L91.7118 11.1274L93.1876 7.67731H94.2362ZM97.6669 9.91374C97.9582 9.99465 98.1848 10.1274 98.3466 10.3086C98.5052 10.4931 98.5861 10.7132 98.5861 10.9688C98.5861 11.2537 98.489 11.5061 98.2981 11.7262C98.1039 11.943 97.8417 12.1146 97.5019 12.2376C97.1653 12.3573 96.7801 12.4188 96.3497 12.4188C95.9872 12.4188 95.6344 12.3767 95.2913 12.2926C94.9483 12.2084 94.6376 12.0887 94.3592 11.9301L94.6732 11.1177C94.8997 11.2472 95.1554 11.3443 95.4402 11.4155C95.725 11.4834 96.0131 11.5191 96.2979 11.5191C96.6636 11.5191 96.9517 11.464 97.1588 11.3508C97.3627 11.2375 97.4663 11.0789 97.4663 10.8815C97.4663 10.7002 97.3886 10.561 97.2268 10.4639C97.0682 10.3636 96.8416 10.3151 96.5503 10.3151H95.6409V9.58038H96.463C96.7381 9.58038 96.9517 9.53507 97.1038 9.44121C97.2591 9.34735 97.3368 9.21789 97.3368 9.04636C97.3368 8.87806 97.243 8.74536 97.0585 8.64503C96.8708 8.54793 96.6151 8.49615 96.2882 8.49615C95.8221 8.49615 95.3302 8.60943 94.8123 8.83922L94.534 8.03333C95.1425 7.74851 95.7606 7.60611 96.3853 7.60611C96.7801 7.60611 97.1361 7.66113 97.4501 7.76793C97.764 7.87474 98.01 8.02685 98.188 8.22105C98.366 8.41847 98.4534 8.63856 98.4534 8.891C98.4534 9.11756 98.3854 9.32146 98.2463 9.49623C98.1039 9.67424 97.9129 9.81341 97.6669 9.91374ZM99.7221 7.67731H100.813V10.752L103.389 7.67731H104.386V12.3411H103.295V9.26644L100.725 12.3411H99.7221V7.67731ZM109.548 8.60295H107.914V12.3411H106.823V8.60295H105.182V7.67731H109.548V8.60295ZM114.51 10.0335C114.51 10.1112 114.507 10.218 114.494 10.3571H110.833C110.898 10.7002 111.066 10.9721 111.335 11.176C111.607 11.3766 111.943 11.477 112.345 11.477C112.856 11.477 113.28 11.3087 113.61 10.9688L114.196 11.642C113.985 11.8913 113.723 12.0822 113.403 12.2084C113.082 12.3379 112.72 12.4026 112.319 12.4026C111.804 12.4026 111.354 12.2991 110.966 12.0952C110.574 11.8913 110.273 11.6097 110.06 11.2439C109.849 10.8815 109.742 10.4672 109.742 10.0076C109.742 9.55449 109.846 9.14345 110.053 8.78096C110.257 8.41847 110.545 8.13366 110.911 7.92976C111.28 7.72586 111.691 7.62229 112.154 7.62229C112.607 7.62229 113.011 7.72262 113.37 7.92652C113.73 8.12719 114.008 8.40876 114.209 8.77125C114.409 9.13698 114.51 9.55772 114.51 10.0335ZM112.154 8.49615C111.804 8.49615 111.506 8.59972 111.267 8.80685C111.024 9.01399 110.875 9.28909 110.823 9.63216H113.471C113.426 9.29557 113.283 9.02046 113.044 8.81009C112.804 8.60295 112.506 8.49615 112.154 8.49615ZM121.501 9.91374C122.077 10.0885 122.365 10.4607 122.365 11.0303C122.365 11.4511 122.206 11.7715 121.892 12.0013C121.578 12.2278 121.112 12.3411 120.494 12.3411H118.118V7.67731H120.397C120.97 7.67731 121.416 7.78088 121.734 7.99125C122.054 8.20163 122.216 8.49615 122.216 8.88129C122.216 9.1208 122.154 9.32793 122.028 9.5027C121.902 9.67748 121.727 9.81341 121.501 9.91374ZM119.157 9.62246H120.303C120.866 9.62246 121.151 9.42826 121.151 9.03988C121.151 8.66121 120.866 8.47026 120.303 8.47026H119.157V9.62246ZM120.407 11.5449C121.009 11.5449 121.306 11.3508 121.306 10.9591C121.306 10.7585 121.238 10.6031 121.096 10.5028C120.957 10.3992 120.74 10.3507 120.442 10.3507H119.157V11.5449H120.407Z" fill="#FEFEFE"/>
</svg>
