<svg width="50" height="49" viewBox="0 0 50 49" fill="none" xmlns="http://www.w3.org/2000/svg">
<g filter="url(#filter0_d)">
<circle cx="25" cy="21.5" r="20.5" fill="#55D480"/>
</g>
<ellipse cx="24.9986" cy="21.4453" rx="14.6881" ry="14.6953" fill="white"/>
<path fill-rule="evenodd" clip-rule="evenodd" d="M19 28.7271C19 28.8962 19.1367 29.0337 19.3049 29.0337H32.1951C32.3633 29.0337 32.5 28.8962 32.5 28.7271V14.8998C32.4998 14.8176 32.4678 14.7394 32.412 14.6813L29.8356 12.0903C29.7762 12.0328 29.6982 12.0007 29.6173 12H19.3049C19.1367 12 19 12.1375 19 12.3066V28.7271ZM31.8902 28.4204H19.6098V12.6132H29.3124V14.8993C29.3124 15.0684 29.4491 15.206 29.6173 15.206H31.8902V28.4204ZM31.461 14.5927H29.9219V13.0451L31.461 14.5927ZM23.7479 14.0148C22.5165 14.0148 21.5148 15.0222 21.5148 16.2604C21.5148 16.9031 21.7847 17.4836 22.2165 17.8933C22.2239 17.9013 22.2318 17.9089 22.2405 17.9158C22.638 18.2821 23.1674 18.5061 23.7479 18.5061C24.3283 18.5061 24.8577 18.2821 25.2553 17.9157C25.2639 17.9089 25.2719 17.9013 25.2792 17.8933C25.711 17.4836 25.981 16.9031 25.981 16.2604C25.981 15.0222 24.9792 14.0148 23.7479 14.0148ZM23.7479 18.0902C23.3227 18.0902 22.9312 17.9428 22.621 17.6961C22.8407 17.2781 23.2689 17.0151 23.7479 17.0151C24.2269 17.0151 24.655 17.2781 24.8747 17.6961C24.5646 17.9428 24.173 18.0902 23.7479 18.0902ZM23.3121 16.161V15.9995C23.3121 15.7579 23.5076 15.5613 23.7479 15.5613C23.9881 15.5613 24.1836 15.7579 24.1836 15.9995V16.161C24.1836 16.4027 23.9881 16.5992 23.7479 16.5992C23.5076 16.5992 23.3121 16.4027 23.3121 16.161ZM25.1772 17.3915C24.9877 17.0876 24.7105 16.8558 24.386 16.7237C24.5173 16.5733 24.5971 16.3764 24.5971 16.1611V15.9995C24.5971 15.5286 24.2161 15.1455 23.7479 15.1455C23.2796 15.1455 22.8986 15.5286 22.8986 15.9995V16.1611C22.8986 16.3764 22.9785 16.5733 23.1098 16.7237C22.7853 16.8559 22.508 17.0876 22.3186 17.3915C22.0743 17.08 21.9283 16.6871 21.9283 16.2604C21.9283 15.2515 22.7446 14.4307 23.7479 14.4307C24.7512 14.4307 25.5674 15.2515 25.5674 16.2604C25.5674 16.6871 25.4215 17.08 25.1772 17.3915ZM29.7839 23.3962H21.6537C21.5779 23.3962 21.5164 23.3344 21.5164 23.2582V22.9677C21.5164 22.8914 21.5779 22.8297 21.6537 22.8297H29.7839C29.8597 22.8297 29.9212 22.8914 29.9212 22.9677V23.2582C29.9212 23.3344 29.8597 23.3962 29.7839 23.3962ZM21.6537 25.6629H29.7839C29.8597 25.6629 29.9212 25.5736 29.9212 25.4635V25.0438C29.9212 24.9337 29.8597 24.8445 29.7839 24.8445H21.6537C21.5779 24.8445 21.5164 24.9337 21.5164 25.0438V25.4635C21.5164 25.5736 21.5779 25.6629 21.6537 25.6629ZM26.0127 21.1294H21.6657C21.5833 21.1294 21.5164 21.0622 21.5164 20.9793V20.713C21.5164 20.6302 21.5833 20.563 21.6657 20.563H26.0127C26.0951 20.563 26.162 20.6302 26.162 20.713V20.9793C26.162 21.0622 26.0951 21.1294 26.0127 21.1294Z" fill="#5362A7"/>
<defs>
<filter id="filter0_d" x="0.5" y="0" width="49" height="49" filterUnits="userSpaceOnUse" color-interpolation-filters="sRGB">
<feFlood flood-opacity="0" result="BackgroundImageFix"/>
<feColorMatrix in="SourceAlpha" type="matrix" values="0 0 0 0 0 0 0 0 0 0 0 0 0 0 0 0 0 0 127 0"/>
<feOffset dy="3"/>
<feGaussianBlur stdDeviation="2"/>
<feColorMatrix type="matrix" values="0 0 0 0 0.206667 0 0 0 0 0.235 0 0 0 0 0.266667 0 0 0 0.5 0"/>
<feBlend mode="normal" in2="BackgroundImageFix" result="effect1_dropShadow"/>
<feBlend mode="normal" in="SourceGraphic" in2="effect1_dropShadow" result="shape"/>
</filter>
</defs>
</svg>
