<svg width="50" height="49" viewBox="0 0 50 49" fill="none" xmlns="http://www.w3.org/2000/svg">
<g filter="url(#filter0_d)">
<circle cx="25" cy="21.5" r="20.5" fill="#55D480"/>
</g>
<ellipse cx="24.9986" cy="21.4453" rx="14.6881" ry="14.6953" fill="white"/>
<mask id="path-3-inside-1" fill="white">
<path fill-rule="evenodd" clip-rule="evenodd" d="M26.3131 12.5346C26.3736 12.6458 26.4869 12.7146 26.6086 12.7146C26.6682 12.7146 26.727 12.6977 26.7787 12.6662C26.8576 12.6181 26.9141 12.5407 26.9375 12.4478C26.9613 12.3553 26.9491 12.2582 26.9035 12.175L26.3583 11.1796C26.2954 11.0645 26.1804 11 26.0624 11C26.0046 11 25.9461 11.0154 25.8923 11.048C25.7298 11.147 25.6736 11.3675 25.7675 11.5393L26.3131 12.5346ZM33.1068 21.6167C33.3605 21.3349 33.5 20.9667 33.5 20.5798C33.5 19.7476 32.8578 19.0706 32.0688 19.0706H29.1648C29.1046 19.0706 29.0488 19.0373 29.0182 18.9824C28.9879 18.9279 28.9869 18.8602 29.0158 18.8046C29.4903 17.8996 29.6835 17.1176 29.6835 16.1047V15.924C29.6835 15.3693 29.4801 14.8466 29.1114 14.4518C28.7424 14.057 28.2502 13.8351 27.7247 13.8265L27.7111 13.8261C27.2465 13.8261 26.8373 14.2194 26.7993 14.7024C26.701 15.9548 26.1241 17.0803 25.0847 18.0481C24.2402 18.834 23.2416 19.3948 22.2882 19.8835C22.2355 19.9104 22.1736 19.9068 22.1236 19.8742C22.0739 19.8415 22.044 19.7838 22.044 19.7221V19.4374C22.044 19.2392 21.891 19.0778 21.7029 19.0778H17.3411C17.1531 19.0778 17 19.2392 17 19.4374V28.6336C17 28.8319 17.1531 28.9928 17.3411 28.9928H20.6124C21.1577 28.9928 21.6481 28.6727 21.893 28.1567C21.9229 28.094 21.9828 28.0574 22.0454 28.0574C22.0682 28.0574 22.0909 28.0624 22.1131 28.0724C23.9834 28.9287 25.6167 28.9997 27.2635 28.9997C27.5778 28.9997 27.9023 28.9964 28.2159 28.9932H28.221C28.5805 28.9896 28.9526 28.986 29.3427 28.986H30.9586C31.748 28.986 32.3902 28.3091 32.3902 27.4769C32.3902 27.2069 32.3215 26.9419 32.1912 26.7103C32.1439 26.626 32.1694 26.517 32.2487 26.4661C32.6786 26.1886 32.9354 25.7071 32.9354 25.1779C32.9354 24.9079 32.8667 24.6429 32.7364 24.4113C32.6891 24.327 32.7147 24.218 32.7939 24.1671C33.2238 23.8896 33.4806 23.408 33.4806 22.8788C33.4806 22.5016 33.3473 22.1402 33.1048 21.8613C33.0446 21.7917 33.0456 21.6852 33.1068 21.6167ZM21.3617 27.4841C21.3617 27.9193 21.0257 28.2739 20.6124 28.2739H20.0332C19.939 28.2739 19.8631 28.1936 19.8631 28.0947V26.3345C19.8631 26.1363 19.7101 25.9749 19.522 25.9749C19.3339 25.9749 19.1809 26.1363 19.1809 26.3345V28.0947C19.1809 28.1936 19.1047 28.2739 19.0108 28.2739H17.8523C17.7585 28.2739 17.6823 28.1936 17.6823 28.0947V19.976C17.6823 19.877 17.7585 19.7967 17.8523 19.7967H21.1917C21.2855 19.7967 21.3617 19.877 21.3617 19.976V27.4841ZM30.9783 22.0889H32.049C32.4623 22.0889 32.7983 22.4432 32.7983 22.8788C32.7983 23.3145 32.4623 23.6687 32.049 23.6687H30.9783C30.7902 23.6687 30.6372 23.8301 30.6372 24.0283C30.6372 24.2266 30.7902 24.388 30.9783 24.388H31.5038C31.9171 24.388 32.2531 24.7422 32.2531 25.1779C32.2531 25.6135 31.9171 25.9677 31.5038 25.9677H30.9586C30.7705 25.9677 30.6175 26.1291 30.6175 26.3274C30.6175 26.5256 30.7705 26.687 30.9586 26.687C31.3719 26.687 31.7079 27.0412 31.7079 27.4769C31.7079 27.9125 31.3719 28.2668 30.9586 28.2668H29.3427C28.9669 28.2668 28.6118 28.2703 28.2683 28.2737L28.2094 28.2743L28.1709 28.2747C27.851 28.2778 27.5431 28.2808 27.2448 28.2808C25.4014 28.2808 23.9201 28.1682 22.1491 27.3012C22.0889 27.2718 22.0505 27.2083 22.0505 27.1384V20.9158C22.0505 20.8469 22.0879 20.7842 22.1467 20.7544L22.3103 20.6709C23.1906 20.2238 24.3963 19.611 25.4258 18.6892C26.6714 17.5737 27.3622 16.2524 27.4792 14.7616C27.488 14.6486 27.5985 14.5454 27.7108 14.5454C28.424 14.5568 29.0015 15.1757 29.0015 15.9244V16.1047C29.0015 17.3008 28.691 18.0409 28.1182 18.9878C28.087 19.0395 28.0329 19.0706 27.9747 19.0706H27.1618C26.9737 19.0706 26.8207 19.232 26.8207 19.4303C26.8207 19.6286 26.9737 19.7899 27.1618 19.7899H32.0688C32.4817 19.7899 32.8181 20.1442 32.8181 20.5798C32.8181 21.0154 32.4817 21.3697 32.0688 21.3697H30.9783C30.7902 21.3697 30.6372 21.531 30.6372 21.7293C30.6372 21.9276 30.7902 22.0889 30.9783 22.0889ZM31.517 15.7011H32.6075C32.7956 15.7011 32.9486 15.5398 32.9486 15.3415C32.9486 15.1432 32.7956 14.9819 32.6075 14.9819H31.517C31.329 14.9819 31.1759 15.1432 31.1759 15.3415C31.1759 15.5398 31.329 15.7011 31.517 15.7011ZM24.9755 15.7011H23.885C23.6969 15.7011 23.5439 15.5398 23.5439 15.3415C23.5439 15.1432 23.6969 14.9819 23.885 14.9819H24.9755C25.1635 14.9819 25.3166 15.1432 25.3166 15.3415C25.3166 15.5398 25.1635 15.7011 24.9755 15.7011ZM29.8786 12.715C29.8194 12.715 29.7606 12.6981 29.7085 12.6665C29.63 12.6185 29.5735 12.5411 29.5497 12.4482C29.5262 12.3557 29.5385 12.2585 29.5837 12.1753L30.1293 11.18C30.1745 11.0968 30.2483 11.0373 30.3361 11.0125C30.3656 11.0043 30.3952 11 30.4252 11C30.484 11 30.5425 11.0165 30.5949 11.0484C30.6085 11.0567 30.6214 11.066 30.6337 11.0757C30.6398 11.0807 30.6456 11.0857 30.651 11.0911L30.6565 11.0965C30.6616 11.1011 30.6663 11.1061 30.6707 11.1115C30.6752 11.1158 30.6789 11.1205 30.6826 11.1251C30.686 11.1287 30.6888 11.1327 30.6915 11.1366C30.694 11.1395 30.6961 11.1426 30.6983 11.1457C30.699 11.1468 30.6998 11.148 30.7007 11.1492C30.7037 11.1535 30.7068 11.1581 30.7095 11.1628C30.7133 11.1685 30.7167 11.1746 30.7201 11.1807C30.7286 11.1961 30.7357 11.2123 30.7418 11.2291C30.7439 11.2349 30.7459 11.2406 30.7476 11.2463L30.7476 11.2464C30.7493 11.2517 30.751 11.2571 30.7524 11.2625C30.7524 11.2626 30.7525 11.2628 30.7525 11.263C30.7526 11.2632 30.7527 11.2634 30.7527 11.2635L30.753 11.265C30.754 11.2682 30.7546 11.2713 30.7552 11.2744C30.7555 11.2758 30.7558 11.2772 30.7561 11.2786C30.7564 11.2797 30.7568 11.2804 30.7568 11.2815C30.7581 11.2872 30.7592 11.2929 30.7602 11.2987C30.7605 11.3005 30.7609 11.3023 30.7609 11.3041C30.7619 11.3101 30.7629 11.3162 30.7632 11.3227L30.7639 11.3277C30.7643 11.3317 30.7646 11.336 30.7646 11.3399C30.7649 11.3467 30.7653 11.3535 30.7653 11.3603C30.7653 11.4213 30.7507 11.483 30.7197 11.5396L30.1745 12.535C30.114 12.6461 30.0004 12.715 29.8786 12.715Z"/>
</mask>
<path fill-rule="evenodd" clip-rule="evenodd" d="M26.3131 12.5346C26.3736 12.6458 26.4869 12.7146 26.6086 12.7146C26.6682 12.7146 26.727 12.6977 26.7787 12.6662C26.8576 12.6181 26.9141 12.5407 26.9375 12.4478C26.9613 12.3553 26.9491 12.2582 26.9035 12.175L26.3583 11.1796C26.2954 11.0645 26.1804 11 26.0624 11C26.0046 11 25.9461 11.0154 25.8923 11.048C25.7298 11.147 25.6736 11.3675 25.7675 11.5393L26.3131 12.5346ZM33.1068 21.6167C33.3605 21.3349 33.5 20.9667 33.5 20.5798C33.5 19.7476 32.8578 19.0706 32.0688 19.0706H29.1648C29.1046 19.0706 29.0488 19.0373 29.0182 18.9824C28.9879 18.9279 28.9869 18.8602 29.0158 18.8046C29.4903 17.8996 29.6835 17.1176 29.6835 16.1047V15.924C29.6835 15.3693 29.4801 14.8466 29.1114 14.4518C28.7424 14.057 28.2502 13.8351 27.7247 13.8265L27.7111 13.8261C27.2465 13.8261 26.8373 14.2194 26.7993 14.7024C26.701 15.9548 26.1241 17.0803 25.0847 18.0481C24.2402 18.834 23.2416 19.3948 22.2882 19.8835C22.2355 19.9104 22.1736 19.9068 22.1236 19.8742C22.0739 19.8415 22.044 19.7838 22.044 19.7221V19.4374C22.044 19.2392 21.891 19.0778 21.7029 19.0778H17.3411C17.1531 19.0778 17 19.2392 17 19.4374V28.6336C17 28.8319 17.1531 28.9928 17.3411 28.9928H20.6124C21.1577 28.9928 21.6481 28.6727 21.893 28.1567C21.9229 28.094 21.9828 28.0574 22.0454 28.0574C22.0682 28.0574 22.0909 28.0624 22.1131 28.0724C23.9834 28.9287 25.6167 28.9997 27.2635 28.9997C27.5778 28.9997 27.9023 28.9964 28.2159 28.9932H28.221C28.5805 28.9896 28.9526 28.986 29.3427 28.986H30.9586C31.748 28.986 32.3902 28.3091 32.3902 27.4769C32.3902 27.2069 32.3215 26.9419 32.1912 26.7103C32.1439 26.626 32.1694 26.517 32.2487 26.4661C32.6786 26.1886 32.9354 25.7071 32.9354 25.1779C32.9354 24.9079 32.8667 24.6429 32.7364 24.4113C32.6891 24.327 32.7147 24.218 32.7939 24.1671C33.2238 23.8896 33.4806 23.408 33.4806 22.8788C33.4806 22.5016 33.3473 22.1402 33.1048 21.8613C33.0446 21.7917 33.0456 21.6852 33.1068 21.6167ZM21.3617 27.4841C21.3617 27.9193 21.0257 28.2739 20.6124 28.2739H20.0332C19.939 28.2739 19.8631 28.1936 19.8631 28.0947V26.3345C19.8631 26.1363 19.7101 25.9749 19.522 25.9749C19.3339 25.9749 19.1809 26.1363 19.1809 26.3345V28.0947C19.1809 28.1936 19.1047 28.2739 19.0108 28.2739H17.8523C17.7585 28.2739 17.6823 28.1936 17.6823 28.0947V19.976C17.6823 19.877 17.7585 19.7967 17.8523 19.7967H21.1917C21.2855 19.7967 21.3617 19.877 21.3617 19.976V27.4841ZM30.9783 22.0889H32.049C32.4623 22.0889 32.7983 22.4432 32.7983 22.8788C32.7983 23.3145 32.4623 23.6687 32.049 23.6687H30.9783C30.7902 23.6687 30.6372 23.8301 30.6372 24.0283C30.6372 24.2266 30.7902 24.388 30.9783 24.388H31.5038C31.9171 24.388 32.2531 24.7422 32.2531 25.1779C32.2531 25.6135 31.9171 25.9677 31.5038 25.9677H30.9586C30.7705 25.9677 30.6175 26.1291 30.6175 26.3274C30.6175 26.5256 30.7705 26.687 30.9586 26.687C31.3719 26.687 31.7079 27.0412 31.7079 27.4769C31.7079 27.9125 31.3719 28.2668 30.9586 28.2668H29.3427C28.9669 28.2668 28.6118 28.2703 28.2683 28.2737L28.2094 28.2743L28.1709 28.2747C27.851 28.2778 27.5431 28.2808 27.2448 28.2808C25.4014 28.2808 23.9201 28.1682 22.1491 27.3012C22.0889 27.2718 22.0505 27.2083 22.0505 27.1384V20.9158C22.0505 20.8469 22.0879 20.7842 22.1467 20.7544L22.3103 20.6709C23.1906 20.2238 24.3963 19.611 25.4258 18.6892C26.6714 17.5737 27.3622 16.2524 27.4792 14.7616C27.488 14.6486 27.5985 14.5454 27.7108 14.5454C28.424 14.5568 29.0015 15.1757 29.0015 15.9244V16.1047C29.0015 17.3008 28.691 18.0409 28.1182 18.9878C28.087 19.0395 28.0329 19.0706 27.9747 19.0706H27.1618C26.9737 19.0706 26.8207 19.232 26.8207 19.4303C26.8207 19.6286 26.9737 19.7899 27.1618 19.7899H32.0688C32.4817 19.7899 32.8181 20.1442 32.8181 20.5798C32.8181 21.0154 32.4817 21.3697 32.0688 21.3697H30.9783C30.7902 21.3697 30.6372 21.531 30.6372 21.7293C30.6372 21.9276 30.7902 22.0889 30.9783 22.0889ZM31.517 15.7011H32.6075C32.7956 15.7011 32.9486 15.5398 32.9486 15.3415C32.9486 15.1432 32.7956 14.9819 32.6075 14.9819H31.517C31.329 14.9819 31.1759 15.1432 31.1759 15.3415C31.1759 15.5398 31.329 15.7011 31.517 15.7011ZM24.9755 15.7011H23.885C23.6969 15.7011 23.5439 15.5398 23.5439 15.3415C23.5439 15.1432 23.6969 14.9819 23.885 14.9819H24.9755C25.1635 14.9819 25.3166 15.1432 25.3166 15.3415C25.3166 15.5398 25.1635 15.7011 24.9755 15.7011ZM29.8786 12.715C29.8194 12.715 29.7606 12.6981 29.7085 12.6665C29.63 12.6185 29.5735 12.5411 29.5497 12.4482C29.5262 12.3557 29.5385 12.2585 29.5837 12.1753L30.1293 11.18C30.1745 11.0968 30.2483 11.0373 30.3361 11.0125C30.3656 11.0043 30.3952 11 30.4252 11C30.484 11 30.5425 11.0165 30.5949 11.0484C30.6085 11.0567 30.6214 11.066 30.6337 11.0757C30.6398 11.0807 30.6456 11.0857 30.651 11.0911L30.6565 11.0965C30.6616 11.1011 30.6663 11.1061 30.6707 11.1115C30.6752 11.1158 30.6789 11.1205 30.6826 11.1251C30.686 11.1287 30.6888 11.1327 30.6915 11.1366C30.694 11.1395 30.6961 11.1426 30.6983 11.1457C30.699 11.1468 30.6998 11.148 30.7007 11.1492C30.7037 11.1535 30.7068 11.1581 30.7095 11.1628C30.7133 11.1685 30.7167 11.1746 30.7201 11.1807C30.7286 11.1961 30.7357 11.2123 30.7418 11.2291C30.7439 11.2349 30.7459 11.2406 30.7476 11.2463L30.7476 11.2464C30.7493 11.2517 30.751 11.2571 30.7524 11.2625C30.7524 11.2626 30.7525 11.2628 30.7525 11.263C30.7526 11.2632 30.7527 11.2634 30.7527 11.2635L30.753 11.265C30.754 11.2682 30.7546 11.2713 30.7552 11.2744C30.7555 11.2758 30.7558 11.2772 30.7561 11.2786C30.7564 11.2797 30.7568 11.2804 30.7568 11.2815C30.7581 11.2872 30.7592 11.2929 30.7602 11.2987C30.7605 11.3005 30.7609 11.3023 30.7609 11.3041C30.7619 11.3101 30.7629 11.3162 30.7632 11.3227L30.7639 11.3277C30.7643 11.3317 30.7646 11.336 30.7646 11.3399C30.7649 11.3467 30.7653 11.3535 30.7653 11.3603C30.7653 11.4213 30.7507 11.483 30.7197 11.5396L30.1745 12.535C30.114 12.6461 30.0004 12.715 29.8786 12.715Z" fill="#5362A7"/>
<path d="M26.3131 12.5346L27.1913 12.0563L27.19 12.054L26.3131 12.5346ZM26.7787 12.6662L26.2586 11.8121L26.2577 11.8126L26.7787 12.6662ZM26.9375 12.4478L25.9691 12.1986L25.968 12.2028L26.9375 12.4478ZM26.9035 12.175L26.0265 12.6554L26.0265 12.6555L26.9035 12.175ZM26.3583 11.1796L25.4809 11.6593L25.4813 11.66L26.3583 11.1796ZM25.8923 11.048L25.3734 10.1933L25.3724 10.1938L25.8923 11.048ZM25.7675 11.5393L24.89 12.0189L24.8906 12.0199L25.7675 11.5393ZM33.1068 21.6167L32.3636 20.9476L32.3613 20.9502L33.1068 21.6167ZM29.0182 18.9824L28.144 19.468L28.145 19.4697L29.0182 18.9824ZM29.0158 18.8046L28.1302 18.3403L28.1287 18.3431L29.0158 18.8046ZM29.1114 14.4518L29.8422 13.7692L29.8419 13.7689L29.1114 14.4518ZM27.7247 13.8265L27.6984 14.8262L27.7084 14.8263L27.7247 13.8265ZM27.7111 13.8261L27.7375 12.8265L27.7243 12.8261H27.7111V13.8261ZM26.7993 14.7024L25.8024 14.6238L25.8023 14.6242L26.7993 14.7024ZM25.0847 18.0481L25.766 18.7801L25.7661 18.78L25.0847 18.0481ZM22.2882 19.8835L22.7426 20.7743L22.7444 20.7734L22.2882 19.8835ZM22.1236 19.8742L21.5745 20.7099L21.5771 20.7116L22.1236 19.8742ZM21.893 28.1567L20.9904 27.7262L20.9896 27.7279L21.893 28.1567ZM22.1131 28.0724L22.5293 27.1632L22.5266 27.1619L22.1131 28.0724ZM28.2159 28.9932V27.9931L28.2056 27.9933L28.2159 28.9932ZM28.221 28.9932V29.9932L28.2309 29.9932L28.221 28.9932ZM32.1912 26.7103L31.3191 27.1996L31.3196 27.2005L32.1912 26.7103ZM32.2487 26.4661L32.7892 27.3075L32.791 27.3063L32.2487 26.4661ZM32.7364 24.4113L31.8643 24.9006L31.8648 24.9015L32.7364 24.4113ZM32.7939 24.1671L33.3344 25.0084L33.3362 25.0073L32.7939 24.1671ZM33.1048 21.8613L32.3486 22.5157L32.3501 22.5173L33.1048 21.8613ZM28.2683 28.2737L28.2782 29.2737H28.2782L28.2683 28.2737ZM28.2094 28.2743L28.2191 29.2743L28.2193 29.2743L28.2094 28.2743ZM28.1709 28.2747L28.1612 27.2747L28.1612 27.2747L28.1709 28.2747ZM22.1491 27.3012L22.5888 26.403L22.588 26.4026L22.1491 27.3012ZM22.1467 20.7544L22.598 21.6468L22.6015 21.645L22.1467 20.7544ZM22.3103 20.6709L21.8575 19.7793L21.8555 19.7803L22.3103 20.6709ZM25.4258 18.6892L26.0929 19.4342L26.093 19.4341L25.4258 18.6892ZM27.4792 14.7616L28.4761 14.8398L28.4761 14.8396L27.4792 14.7616ZM27.7108 14.5454L27.7269 13.5455L27.7188 13.5454H27.7108V14.5454ZM28.1182 18.9878L28.9735 19.5061L28.9739 19.5054L28.1182 18.9878ZM29.7085 12.6665L29.1868 13.5197L29.1901 13.5216L29.7085 12.6665ZM29.5497 12.4482L28.5804 12.6941L28.581 12.6965L29.5497 12.4482ZM29.5837 12.1753L28.7068 11.6947L28.7052 11.6976L29.5837 12.1753ZM30.1293 11.18L31.0062 11.6606L31.0078 11.6577L30.1293 11.18ZM30.3361 11.0125L30.0676 10.0493L30.0647 10.0501L30.3361 11.0125ZM30.5949 11.0484L30.0746 11.9024L30.0765 11.9036L30.5949 11.0484ZM30.6337 11.0757L31.2677 10.3023L31.2608 10.2967L31.2539 10.2912L30.6337 11.0757ZM30.651 11.0911L29.9481 11.8023L29.9481 11.8024L30.651 11.0911ZM30.6565 11.0965L29.9536 11.8077L29.9675 11.8215L29.982 11.8347L30.6565 11.0965ZM30.6707 11.1115L29.8982 11.7465L29.9335 11.7895L29.9734 11.8282L30.6707 11.1115ZM30.6826 11.1251L29.9028 11.7511L29.9287 11.7834L29.9572 11.8134L30.6826 11.1251ZM30.6915 11.1366L29.8683 11.7045L29.899 11.7489L29.9343 11.7898L30.6915 11.1366ZM30.6983 11.1457L29.8752 11.7136L29.8754 11.7139L30.6983 11.1457ZM30.7007 11.1492L29.8857 11.7287L29.8859 11.7289L30.7007 11.1492ZM30.7095 11.1628L29.8459 11.6669L29.8584 11.6883L29.8719 11.709L30.7095 11.1628ZM30.7201 11.1807L31.5957 10.6978L31.5933 10.6935L30.7201 11.1807ZM30.7418 11.2291L31.684 10.8939L31.6817 10.8876L30.7418 11.2291ZM30.7476 11.2463L29.7888 11.5305L29.7916 11.5397L29.7945 11.5489L30.7476 11.2463ZM30.7476 11.2464L31.7011 10.9449L31.7007 10.9438L30.7476 11.2464ZM30.7524 11.2625H31.7524V11.1379L31.7218 11.0172L30.7524 11.2625ZM30.7525 11.263L31.6564 10.8351L31.6563 10.8351L30.7525 11.263ZM30.7527 11.2635H29.7527V11.3806L29.7797 11.4945L30.7527 11.2635ZM30.753 11.265L29.7801 11.4959L29.7859 11.5206L29.793 11.545L30.753 11.265ZM30.7552 11.2744L31.7356 11.0773L31.7356 11.0771L30.7552 11.2744ZM30.7561 11.2786L29.7793 11.4927L29.789 11.537L29.8027 11.5804L30.7561 11.2786ZM30.7568 11.2815H29.7568V11.3984L29.7838 11.5123L30.7568 11.2815ZM30.7602 11.2987L29.7756 11.4738L29.7777 11.4853L30.7602 11.2987ZM30.7609 11.3041H29.7609V11.3872L29.7746 11.4692L30.7609 11.3041ZM30.7632 11.3227L29.7646 11.3754L29.7668 11.4164L29.7723 11.4571L30.7632 11.3227ZM30.7639 11.3277L31.7602 11.242L31.7581 11.2176L31.7549 11.1933L30.7639 11.3277ZM30.7646 11.3399H29.7646V11.3649L29.7659 11.3898L30.7646 11.3399ZM30.7197 11.5396L31.5968 12.02L31.5973 12.0191L30.7197 11.5396ZM30.1745 12.535L29.2975 12.0545L29.2963 12.0566L30.1745 12.535ZM26.6086 11.7146C26.8695 11.7146 27.0847 11.8606 27.1913 12.0563L25.4349 13.0129C25.6625 13.4309 26.1042 13.7146 26.6086 13.7146V11.7146ZM26.2577 11.8126C26.3585 11.7511 26.4792 11.7146 26.6086 11.7146V13.7146C26.8571 13.7146 27.0955 13.6444 27.2997 13.5198L26.2577 11.8126ZM25.968 12.2028C26.0064 12.0508 26.1057 11.9052 26.2586 11.8121L27.2988 13.5203C27.6095 13.3311 27.8217 13.0306 27.9071 12.6928L25.968 12.2028ZM26.0265 12.6555C25.9498 12.5155 25.9297 12.3517 25.9691 12.1986L27.906 12.6971C27.993 12.359 27.9484 12.0008 27.7805 11.6945L26.0265 12.6555ZM25.4813 11.66L26.0265 12.6554L27.7806 11.6946L27.2354 10.6992L25.4813 11.66ZM26.0624 12C25.8133 12 25.5926 11.8637 25.4809 11.6593L27.2357 10.6999C26.9982 10.2654 26.5475 10 26.0624 10V12ZM26.4113 11.9028C26.3063 11.9666 26.1848 12 26.0624 12V10C25.8243 10 25.5859 10.0642 25.3734 10.1933L26.4113 11.9028ZM26.645 11.0596C26.7958 11.3356 26.7262 11.7111 26.4123 11.9022L25.3724 10.1938C24.7333 10.5829 24.5515 11.3995 24.89 12.0189L26.645 11.0596ZM27.19 12.054L26.6444 11.0586L24.8906 12.0199L25.4362 13.0152L27.19 12.054ZM32.5 20.5798C32.5 20.7256 32.4481 20.8539 32.3636 20.9476L33.85 22.2858C34.273 21.8159 34.5 21.2078 34.5 20.5798H32.5ZM32.0688 20.0706C32.2563 20.0706 32.5 20.2493 32.5 20.5798H34.5C34.5 19.2458 33.4594 18.0706 32.0688 18.0706V20.0706ZM29.1648 20.0706H32.0688V18.0706H29.1648V20.0706ZM28.145 19.4697C28.3446 19.8276 28.7268 20.0706 29.1648 20.0706V18.0706C29.4824 18.0706 29.753 18.247 29.8915 18.4952L28.145 19.4697ZM28.1287 18.3431C27.9447 18.6968 27.9509 19.1203 28.144 19.468L29.8924 18.4969C30.025 18.7356 30.0291 19.0236 29.903 19.2661L28.1287 18.3431ZM28.6835 16.1047C28.6835 16.9546 28.5301 17.5774 28.1302 18.3403L29.9015 19.2689C30.4505 18.2218 30.6835 17.2806 30.6835 16.1047H28.6835ZM28.6835 15.924V16.1047H30.6835V15.924H28.6835ZM28.3806 15.1344C28.5715 15.3388 28.6835 15.6157 28.6835 15.924H30.6835C30.6835 15.123 30.3886 14.3543 29.8422 13.7692L28.3806 15.1344ZM27.7084 14.8263C27.9542 14.8304 28.1912 14.9317 28.3809 15.1347L29.8419 13.7689C29.2936 13.1823 28.5463 12.8398 27.7411 12.8266L27.7084 14.8263ZM27.6848 14.8258L27.6984 14.8261L27.7511 12.8268L27.7375 12.8265L27.6848 14.8258ZM27.7962 14.781C27.7948 14.7988 27.7884 14.804 27.7882 14.8042C27.7882 14.8042 27.765 14.8261 27.7111 14.8261V12.8261C26.6897 12.8261 25.8787 13.6563 25.8024 14.6238L27.7962 14.781ZM25.7661 18.78C26.9631 17.6655 27.6757 16.3158 27.7962 14.7807L25.8023 14.6242C25.7262 15.5939 25.2851 16.4951 24.4033 17.3162L25.7661 18.78ZM22.7444 20.7734C23.7116 20.2776 24.8147 19.6654 25.766 18.7801L24.4034 17.316C23.6657 18.0026 22.7715 18.512 21.832 18.9936L22.7444 20.7734ZM21.5771 20.7116C21.9223 20.9369 22.3658 20.9665 22.7426 20.7743L21.8338 18.9927C22.1052 18.8542 22.4249 18.8767 22.6701 19.0367L21.5771 20.7116ZM21.044 19.7221C21.044 20.0998 21.2265 20.4812 21.5745 20.7099L22.6727 19.0384C22.9214 19.2018 23.044 19.4679 23.044 19.7221H21.044ZM21.044 19.4374V19.7221H23.044V19.4374H21.044ZM21.7029 20.0778C21.2896 20.0778 21.044 19.7411 21.044 19.4374H23.044C23.044 18.7373 22.4923 18.0778 21.7029 18.0778V20.0778ZM17.3411 20.0778H21.7029V18.0778H17.3411V20.0778ZM18 19.4374C18 19.7411 17.7544 20.0778 17.3411 20.0778V18.0778C16.5517 18.0778 16 18.7373 16 19.4374H18ZM18 28.6336V19.4374H16V28.6336H18ZM17.3411 27.9928C17.7531 27.9928 18 28.3286 18 28.6336H16C16 29.3351 16.553 29.9928 17.3411 29.9928V27.9928ZM20.6124 27.9928H17.3411V29.9928H20.6124V27.9928ZM20.9896 27.7279C20.9003 27.916 20.7487 27.9928 20.6124 27.9928V29.9928C21.5666 29.9928 22.3959 29.4293 22.7964 28.5855L20.9896 27.7279ZM22.0454 27.0574C21.5869 27.0574 21.1818 27.325 20.9904 27.7262L22.7956 28.5872C22.6641 28.8629 22.3787 29.0574 22.0454 29.0574V27.0574ZM22.5266 27.1619C22.3812 27.0959 22.2179 27.0574 22.0454 27.0574V29.0574C21.9184 29.0574 21.8007 29.0289 21.6995 28.9829L22.5266 27.1619ZM27.2635 27.9997C25.6521 27.9997 24.1974 27.9268 22.5293 27.1632L21.6968 28.9817C23.7694 29.9305 25.5812 29.9997 27.2635 29.9997V27.9997ZM28.2056 27.9933C27.8914 27.9965 27.5719 27.9997 27.2635 27.9997V29.9997C27.5837 29.9997 27.9132 29.9964 28.2262 29.9931L28.2056 27.9933ZM28.221 27.9932H28.2159V29.9932H28.221V27.9932ZM29.3427 27.986C28.9469 27.986 28.5702 27.9897 28.211 27.9932L28.2309 29.9932C28.5907 29.9896 28.9582 29.986 29.3427 29.986V27.986ZM30.9586 27.986H29.3427V29.986H30.9586V27.986ZM31.3902 27.4769C31.3902 27.8072 31.1467 27.986 30.9586 27.986V29.986C32.3494 29.986 33.3902 28.811 33.3902 27.4769H31.3902ZM31.3196 27.2005C31.3642 27.2797 31.3902 27.3755 31.3902 27.4769H33.3902C33.3902 27.0383 33.2788 26.6041 33.0628 26.2201L31.3196 27.2005ZM31.7082 25.6248C31.1632 25.9749 31.025 26.6755 31.3191 27.1996L33.0633 26.221C33.2628 26.5766 33.1756 27.0592 32.7892 27.3075L31.7082 25.6248ZM31.9354 25.1779C31.9354 25.3813 31.8396 25.54 31.7063 25.626L32.791 27.3063C33.5177 26.8372 33.9354 26.0329 33.9354 25.1779H31.9354ZM31.8648 24.9015C31.9094 24.9807 31.9354 25.0764 31.9354 25.1779H33.9354C33.9354 24.7393 33.824 24.3051 33.608 23.9211L31.8648 24.9015ZM32.2534 23.3258C31.7085 23.6759 31.5703 24.3765 31.8643 24.9006L33.6085 23.9219C33.808 24.2775 33.7209 24.7602 33.3344 25.0084L32.2534 23.3258ZM32.4806 22.8788C32.4806 23.0822 32.3848 23.241 32.2516 23.3269L33.3362 25.0073C34.0629 24.5382 34.4806 23.7339 34.4806 22.8788H32.4806ZM32.3501 22.5173C32.4306 22.6099 32.4806 22.7369 32.4806 22.8788H34.4806C34.4806 22.2664 34.264 21.6705 33.8595 21.2052L32.3501 22.5173ZM32.3613 20.9502C31.9657 21.3928 31.9585 22.0649 32.3486 22.5157L33.8609 21.2068C34.1307 21.5185 34.1255 21.9776 33.8523 22.2832L32.3613 20.9502ZM20.6124 29.2739C21.6273 29.2739 22.3617 28.4209 22.3617 27.4841H20.3617C20.3617 27.4418 20.3786 27.394 20.4164 27.3541C20.4551 27.3133 20.5243 27.2739 20.6124 27.2739V29.2739ZM20.0332 29.2739H20.6124V27.2739H20.0332V29.2739ZM18.8631 28.0947C18.8631 28.6942 19.3364 29.2739 20.0332 29.2739V27.2739C20.5416 27.2739 20.8631 27.6931 20.8631 28.0947H18.8631ZM18.8631 26.3345V28.0947H20.8631V26.3345H18.8631ZM19.522 26.9749C19.1087 26.9749 18.8631 26.6382 18.8631 26.3345H20.8631C20.8631 25.6344 20.3114 24.9749 19.522 24.9749V26.9749ZM20.1809 26.3345C20.1809 26.6382 19.9353 26.9749 19.522 26.9749V24.9749C18.7326 24.9749 18.1809 25.6344 18.1809 26.3345H20.1809ZM20.1809 28.0947V26.3345H18.1809V28.0947H20.1809ZM19.0108 29.2739C19.706 29.2739 20.1809 28.6955 20.1809 28.0947H18.1809C18.1809 27.6917 18.5033 27.2739 19.0108 27.2739V29.2739ZM17.8523 29.2739H19.0108V27.2739H17.8523V29.2739ZM16.6823 28.0947C16.6823 28.6955 17.1571 29.2739 17.8523 29.2739V27.2739C18.3598 27.2739 18.6823 27.6917 18.6823 28.0947H16.6823ZM16.6823 19.976V28.0947H18.6823V19.976H16.6823ZM17.8523 18.7967C17.1571 18.7967 16.6823 19.3751 16.6823 19.976H18.6823C18.6823 20.3789 18.3598 20.7967 17.8523 20.7967V18.7967ZM21.1917 18.7967H17.8523V20.7967H21.1917V18.7967ZM22.3617 19.976C22.3617 19.3751 21.8869 18.7967 21.1917 18.7967V20.7967C20.6842 20.7967 20.3617 20.3789 20.3617 19.976H22.3617ZM22.3617 27.4841V19.976H20.3617V27.4841H22.3617ZM32.049 21.0889H30.9783V23.0889H32.049V21.0889ZM33.7983 22.8788C33.7983 21.9413 33.0636 21.0889 32.049 21.0889V23.0889C31.9612 23.0889 31.892 23.0497 31.8531 23.0087C31.8151 22.9686 31.7983 22.9208 31.7983 22.8788H33.7983ZM32.049 24.6687C33.0636 24.6687 33.7983 23.8164 33.7983 22.8788H31.7983C31.7983 22.8369 31.8151 22.789 31.8531 22.7489C31.892 22.708 31.9612 22.6687 32.049 22.6687V24.6687ZM30.9783 24.6687H32.049V22.6687H30.9783V24.6687ZM31.6372 24.0283C31.6372 24.332 31.3916 24.6687 30.9783 24.6687V22.6687C30.1889 22.6687 29.6372 23.3282 29.6372 24.0283H31.6372ZM30.9783 23.388C31.3916 23.388 31.6372 23.7247 31.6372 24.0283H29.6372C29.6372 24.7285 30.1889 25.388 30.9783 25.388V23.388ZM31.5038 23.388H30.9783V25.388H31.5038V23.388ZM33.2531 25.1779C33.2531 24.2403 32.5184 23.388 31.5038 23.388V25.388C31.416 25.388 31.3468 25.3487 31.3079 25.3078C31.2699 25.2677 31.2531 25.2198 31.2531 25.1779H33.2531ZM31.5038 26.9677C32.5184 26.9677 33.2531 26.1154 33.2531 25.1779H31.2531C31.2531 25.1359 31.2699 25.0881 31.3079 25.0479C31.3468 25.007 31.416 24.9677 31.5038 24.9677V26.9677ZM30.9586 26.9677H31.5038V24.9677H30.9586V26.9677ZM31.6175 26.3274C31.6175 26.631 31.3719 26.9677 30.9586 26.9677V24.9677C30.1692 24.9677 29.6175 25.6272 29.6175 26.3274H31.6175ZM30.9586 25.687C31.3719 25.687 31.6175 26.0237 31.6175 26.3274H29.6175C29.6175 27.0276 30.1692 27.687 30.9586 27.687V25.687ZM32.7079 27.4769C32.7079 26.5393 31.9732 25.687 30.9586 25.687V27.687C30.8708 27.687 30.8016 27.6478 30.7627 27.6068C30.7247 27.5667 30.7079 27.5188 30.7079 27.4769H32.7079ZM30.9586 29.2668C31.9732 29.2668 32.7079 28.4144 32.7079 27.4769H30.7079C30.7079 27.435 30.7247 27.3871 30.7627 27.347C30.8016 27.306 30.8708 27.2668 30.9586 27.2668V29.2668ZM29.3427 29.2668H30.9586V27.2668H29.3427V29.2668ZM28.2782 29.2737C28.6224 29.2702 28.9726 29.2668 29.3427 29.2668V27.2668C28.9612 27.2668 28.6013 27.2704 28.2583 27.2738L28.2782 29.2737ZM28.2193 29.2743L28.2782 29.2737L28.2583 27.2738L28.1995 27.2744L28.2193 29.2743ZM28.1806 29.2746L28.2191 29.2743L28.1997 27.2743L28.1612 27.2747L28.1806 29.2746ZM27.2448 29.2808C27.5488 29.2808 27.8617 29.2777 28.1806 29.2746L28.1612 27.2747C27.8404 27.2778 27.5374 27.2808 27.2448 27.2808V29.2808ZM21.7094 28.1994C23.6842 29.1661 25.347 29.2808 27.2448 29.2808V27.2808C25.4558 27.2808 24.156 27.1702 22.5888 26.403L21.7094 28.1994ZM21.0505 27.1384C21.0505 27.569 21.2878 27.9934 21.7103 28.1998L22.588 26.4026C22.89 26.5502 23.0505 26.8477 23.0505 27.1384H21.0505ZM21.0505 20.9158V27.1384H23.0505V20.9158H21.0505ZM21.6954 19.862C21.2815 20.0714 21.0505 20.4911 21.0505 20.9158H23.0505C23.0505 21.2027 22.8943 21.4969 22.598 21.6468L21.6954 19.862ZM21.8555 19.7803L21.6919 19.8638L22.6015 21.645L22.7651 21.5615L21.8555 19.7803ZM24.7588 17.9441C23.8399 18.7669 22.7476 19.3272 21.8575 19.7793L22.7632 21.5624C23.6336 21.1203 24.9527 20.4551 26.0929 19.4342L24.7588 17.9441ZM26.4822 14.6833C26.3878 15.8867 25.8372 16.9783 24.7587 17.9442L26.093 19.4341C27.5055 18.1691 28.3365 16.6181 28.4761 14.8398L26.4822 14.6833ZM27.7108 13.5454C27.3532 13.5454 27.0633 13.7032 26.8737 13.8802C26.6838 14.0575 26.5096 14.3331 26.4822 14.6835L28.4761 14.8396C28.4575 15.0771 28.343 15.2446 28.2386 15.3421C28.1347 15.4391 27.9561 15.5454 27.7108 15.5454V13.5454ZM30.0015 15.9244C30.0015 14.6779 29.033 13.5665 27.7269 13.5455L27.6947 15.5452C27.815 15.5472 28.0015 15.6735 28.0015 15.9244H30.0015ZM30.0015 16.1047V15.9244H28.0015V16.1047H30.0015ZM28.9739 19.5054C29.6052 18.4617 30.0015 17.542 30.0015 16.1047H28.0015C28.0015 17.0596 27.7768 17.6201 27.2626 18.4703L28.9739 19.5054ZM27.9747 20.0706C28.3983 20.0706 28.7692 19.8431 28.9735 19.5061L27.263 18.4695C27.4047 18.2358 27.6675 18.0706 27.9747 18.0706V20.0706ZM27.1618 20.0706H27.9747V18.0706H27.1618V20.0706ZM27.8207 19.4303C27.8207 19.7339 27.5751 20.0706 27.1618 20.0706V18.0706C26.3724 18.0706 25.8207 18.7301 25.8207 19.4303H27.8207ZM27.1618 18.7899C27.5751 18.7899 27.8207 19.1266 27.8207 19.4303H25.8207C25.8207 20.1305 26.3724 20.7899 27.1618 20.7899V18.7899ZM32.0688 18.7899H27.1618V20.7899H32.0688V18.7899ZM33.8181 20.5798C33.8181 19.6419 33.0827 18.7899 32.0688 18.7899V20.7899C31.9806 20.7899 31.9115 20.7505 31.8729 20.7098C31.8349 20.6699 31.8181 20.622 31.8181 20.5798H33.8181ZM32.0688 22.3697C33.0827 22.3697 33.8181 21.5176 33.8181 20.5798H31.8181C31.8181 20.5376 31.835 20.4897 31.8729 20.4498C31.9115 20.409 31.9806 20.3697 32.0688 20.3697V22.3697ZM30.9783 22.3697H32.0688V20.3697H30.9783V22.3697ZM31.6372 21.7293C31.6372 22.0329 31.3916 22.3697 30.9783 22.3697V20.3697C30.1889 20.3697 29.6372 21.0291 29.6372 21.7293H31.6372ZM30.9783 21.0889C31.3916 21.0889 31.6372 21.4257 31.6372 21.7293H29.6372C29.6372 22.4295 30.1889 23.0889 30.9783 23.0889V21.0889ZM32.6075 14.7011H31.517V16.7011H32.6075V14.7011ZM31.9486 15.3415C31.9486 15.0379 32.1942 14.7011 32.6075 14.7011V16.7011C33.3969 16.7011 33.9486 16.0417 33.9486 15.3415H31.9486ZM32.6075 15.9819C32.1942 15.9819 31.9486 15.6451 31.9486 15.3415H33.9486C33.9486 14.6413 33.3969 13.9819 32.6075 13.9819V15.9819ZM31.517 15.9819H32.6075V13.9819H31.517V15.9819ZM32.1759 15.3415C32.1759 15.6451 31.9303 15.9819 31.517 15.9819V13.9819C30.7276 13.9819 30.1759 14.6413 30.1759 15.3415H32.1759ZM31.517 14.7011C31.9303 14.7011 32.1759 15.0379 32.1759 15.3415H30.1759C30.1759 16.0417 30.7276 16.7011 31.517 16.7011V14.7011ZM23.885 16.7011H24.9755V14.7011H23.885V16.7011ZM22.5439 15.3415C22.5439 16.0417 23.0956 16.7011 23.885 16.7011V14.7011C24.2983 14.7011 24.5439 15.0379 24.5439 15.3415H22.5439ZM23.885 13.9819C23.0956 13.9819 22.5439 14.6413 22.5439 15.3415H24.5439C24.5439 15.6451 24.2983 15.9819 23.885 15.9819V13.9819ZM24.9755 13.9819H23.885V15.9819H24.9755V13.9819ZM26.3166 15.3415C26.3166 14.6413 25.7649 13.9819 24.9755 13.9819V15.9819C24.5622 15.9819 24.3166 15.6451 24.3166 15.3415H26.3166ZM24.9755 16.7011C25.7649 16.7011 26.3166 16.0417 26.3166 15.3415H24.3166C24.3166 15.0379 24.5622 14.7011 24.9755 14.7011V16.7011ZM29.1901 13.5216C29.3922 13.6442 29.6295 13.715 29.8786 13.715V11.715C30.0093 11.715 30.1289 11.752 30.227 11.8115L29.1901 13.5216ZM28.581 12.6965C28.6668 13.0312 28.8774 13.3304 29.1868 13.5197L30.2302 11.8134C30.3825 11.9066 30.4802 12.0509 30.5184 12.1998L28.581 12.6965ZM28.7052 11.6976C28.5394 12.0025 28.4952 12.3582 28.5804 12.6941L30.519 12.2023C30.5573 12.3532 30.5376 12.5145 30.4622 12.6531L28.7052 11.6976ZM29.2523 10.6993L28.7068 11.6947L30.4606 12.656L31.0062 11.6606L29.2523 10.6993ZM30.0647 10.0501C29.7087 10.1504 29.4203 10.3904 29.2508 10.7023L31.0078 11.6577C30.9286 11.8032 30.7879 11.9241 30.6074 11.975L30.0647 10.0501ZM30.4252 10C30.2977 10 30.1778 10.0185 30.0676 10.0493L30.6045 11.9758C30.5535 11.9901 30.4927 12 30.4252 12V10ZM31.1152 10.1944C30.9102 10.0695 30.6723 10 30.4252 10V12C30.2957 12 30.1749 11.9635 30.0746 11.9024L31.1152 10.1944ZM31.2539 10.2912C31.219 10.2636 31.1715 10.2285 31.1132 10.1932L30.0765 11.9036C30.0455 11.8848 30.0239 11.8683 30.0134 11.8601L31.2539 10.2912ZM31.354 10.3798C31.3185 10.3448 31.287 10.3182 31.2677 10.3023L29.9996 11.849C29.9926 11.8432 29.9727 11.8266 29.9481 11.8023L31.354 10.3798ZM31.3593 10.3852L31.3539 10.3798L29.9481 11.8024L29.9536 11.8077L31.3593 10.3852ZM31.4432 10.4765C31.4089 10.4347 31.3714 10.3952 31.3309 10.3582L29.982 11.8347C29.9517 11.8071 29.9237 11.7775 29.8982 11.7465L31.4432 10.4765ZM31.4625 10.4992C31.4622 10.4988 31.4506 10.4842 31.4368 10.4681C31.4216 10.4503 31.3984 10.4242 31.3681 10.3948L29.9734 11.8282C29.9475 11.8031 29.9284 11.7815 29.9171 11.7683C29.9072 11.7567 29.8993 11.7468 29.9028 11.7511L31.4625 10.4992ZM31.5146 10.5688C31.5144 10.5685 31.5109 10.5634 31.5069 10.5576C31.5025 10.5515 31.4958 10.542 31.4873 10.5307C31.4704 10.5082 31.4439 10.4746 31.4081 10.4369L29.9572 11.8134C29.9248 11.7793 29.9013 11.7494 29.8873 11.7308C29.8749 11.7142 29.8652 11.6998 29.8683 11.7045L31.5146 10.5688ZM31.5213 10.5778C31.5211 10.5774 31.5186 10.5739 31.5158 10.5698C31.5128 10.5655 31.5081 10.5589 31.5023 10.5509C31.4908 10.5352 31.4726 10.5112 31.4487 10.4834L29.9343 11.7898C29.9128 11.7649 29.897 11.7439 29.8877 11.7312C29.8794 11.7199 29.8728 11.7102 29.8752 11.7136L31.5213 10.5778ZM31.5156 10.5696C31.5178 10.5727 31.5195 10.5751 31.5203 10.5764C31.5211 10.5774 31.5217 10.5783 31.5211 10.5775L29.8754 11.7139C29.8755 11.7142 29.8802 11.721 29.8857 11.7287L31.5156 10.5696ZM31.5731 10.6587C31.5529 10.624 31.5329 10.594 31.5155 10.5694L29.8859 11.7289C29.8745 11.7129 29.8607 11.6923 29.8459 11.6669L31.5731 10.6587ZM31.5933 10.6935C31.5929 10.6927 31.5729 10.6561 31.5471 10.6165L29.8719 11.709C29.8613 11.6928 29.8537 11.68 29.8501 11.6737C29.8468 11.6681 29.8444 11.6637 29.8468 11.6679L31.5933 10.6935ZM31.6817 10.8876C31.6603 10.8287 31.6325 10.7644 31.5957 10.6978L29.8444 11.6636C29.8247 11.6279 29.8111 11.5959 29.8019 11.5706L31.6817 10.8876ZM31.7064 10.9621C31.6957 10.9263 31.6844 10.8951 31.684 10.8939L29.7997 11.5643C29.8011 11.5682 29.7998 11.5648 29.7983 11.5604C29.7966 11.5553 29.793 11.5446 29.7888 11.5305L31.7064 10.9621ZM31.7007 10.9438L31.7007 10.9437L29.7945 11.5489L29.7945 11.5489L31.7007 10.9438ZM31.7218 11.0172C31.7121 10.9787 31.7012 10.9453 31.7011 10.9449L29.7941 11.5478C29.7954 11.5517 29.794 11.5475 29.7924 11.5421C29.7906 11.536 29.787 11.5238 29.7829 11.5078L31.7218 11.0172ZM31.6563 10.8351C31.652 10.8259 31.6749 10.8721 31.6948 10.9281C31.7162 10.9884 31.7524 11.1075 31.7524 11.2625H29.7524C29.7524 11.4176 29.7886 11.5369 29.8101 11.5974C29.8214 11.6294 29.8322 11.6544 29.8385 11.6686C29.8417 11.676 29.8445 11.6819 29.8461 11.6854C29.847 11.6872 29.8476 11.6887 29.8481 11.6895C29.8483 11.69 29.8485 11.6904 29.8486 11.6906C29.8486 11.6907 29.8487 11.6908 29.8487 11.6908C29.8487 11.6909 29.8487 11.6909 29.8487 11.6909C29.8487 11.6909 29.8487 11.6909 29.8487 11.6909C29.8487 11.6909 29.8487 11.6909 29.8487 11.6909L31.6563 10.8351ZM31.7527 11.2635C31.7527 11.1084 31.7165 10.9891 31.695 10.9287C31.6836 10.8966 31.6729 10.8716 31.6666 10.8575C31.6633 10.8501 31.6606 10.8442 31.659 10.8407C31.6581 10.8389 31.6574 10.8374 31.657 10.8365C31.6568 10.8361 31.6566 10.8357 31.6565 10.8355C31.6565 10.8354 31.6564 10.8353 31.6564 10.8352C31.6564 10.8352 31.6564 10.8352 31.6564 10.8351C31.6564 10.8351 31.6564 10.8351 31.6564 10.8351C31.6564 10.8351 31.6564 10.8351 31.6564 10.8351L29.8487 11.6909C29.853 11.7001 29.8302 11.6538 29.8103 11.5979C29.7889 11.5376 29.7527 11.4185 29.7527 11.2635H31.7527ZM31.726 11.034L31.7257 11.0326L29.7797 11.4945L29.7801 11.4959L31.726 11.034ZM31.7356 11.0771C31.7355 11.0767 31.7348 11.0732 31.734 11.0691C31.7331 11.0648 31.7317 11.0582 31.7299 11.0504C31.7263 11.0345 31.7209 11.0118 31.713 10.985L29.793 11.545C29.7862 11.5214 29.7815 11.5019 29.7786 11.4891C29.7761 11.4779 29.7742 11.4685 29.7749 11.4717L31.7356 11.0771ZM31.7329 11.0645C31.7339 11.0692 31.7347 11.0729 31.7351 11.075C31.7355 11.0768 31.7358 11.0783 31.7356 11.0773L29.7748 11.4714C29.7749 11.4718 29.7768 11.4814 29.7793 11.4927L31.7329 11.0645ZM31.7568 11.2815C31.7568 11.1657 31.7368 11.071 31.7184 11.0065C31.711 10.9805 31.704 10.9599 31.7035 10.9585C31.7012 10.9517 31.7057 10.9648 31.7095 10.9768L29.8027 11.5804C29.8067 11.593 29.8114 11.6065 29.8092 11.6002C29.8089 11.5992 29.802 11.5791 29.7947 11.5535C29.7766 11.4899 29.7568 11.3962 29.7568 11.2815H31.7568ZM31.7447 11.1235C31.7445 11.1222 31.7388 11.0886 31.7298 11.0506L29.7838 11.5123C29.7802 11.4972 29.7779 11.4855 29.7767 11.4793C29.7757 11.474 29.7749 11.4698 29.7756 11.4738L31.7447 11.1235ZM31.7609 11.3041C31.7609 11.2411 31.755 11.1905 31.7507 11.1604C31.7485 11.1449 31.7463 11.1324 31.745 11.1247C31.7443 11.1208 31.7437 11.1176 31.7433 11.1156C31.7431 11.1146 31.7429 11.1137 31.7428 11.1131C31.7427 11.1126 31.7426 11.1121 31.7426 11.1121L29.7777 11.4853C29.7787 11.4901 29.7743 11.4682 29.7706 11.4424C29.7666 11.414 29.7609 11.3652 29.7609 11.3041H31.7609ZM31.7619 11.27C31.7598 11.2311 31.756 11.199 31.753 11.1771C31.7503 11.1571 31.7473 11.1398 31.7471 11.1389L29.7746 11.4692C29.7755 11.4744 29.7735 11.4632 29.7716 11.4494C29.7695 11.4337 29.7663 11.4078 29.7646 11.3754L31.7619 11.27ZM31.7549 11.1933L31.7542 11.1883L29.7723 11.4571L29.773 11.4621L31.7549 11.1933ZM31.7646 11.3399C31.7646 11.2878 31.7604 11.2441 31.7602 11.242L29.7676 11.4135C29.7676 11.4133 29.7674 11.4113 29.7672 11.4085C29.767 11.4057 29.7666 11.4011 29.7663 11.3954C29.7657 11.3851 29.7646 11.3652 29.7646 11.3399H31.7646ZM31.7653 11.3603C31.7653 11.3244 31.7635 11.2928 31.7634 11.29L29.7659 11.3898C29.7661 11.3942 29.7659 11.3914 29.7658 11.3875C29.7656 11.383 29.7653 11.3732 29.7653 11.3603H31.7653ZM31.5973 12.0191C31.7119 11.8092 31.7653 11.5816 31.7653 11.3603H29.7653C29.7653 11.2609 29.7894 11.1567 29.8421 11.0602L31.5973 12.0191ZM31.0515 13.0154L31.5968 12.02L29.8427 11.0592L29.2975 12.0545L31.0515 13.0154ZM29.8786 13.715C30.3819 13.715 30.8245 13.4323 31.0527 13.0133L29.2963 12.0566C29.4034 11.86 29.6188 11.715 29.8786 11.715V13.715Z" fill="#5362A7" mask="url(#path-3-inside-1)"/>
<defs>
<filter id="filter0_d" x="0.5" y="0" width="49" height="49" filterUnits="userSpaceOnUse" color-interpolation-filters="sRGB">
<feFlood flood-opacity="0" result="BackgroundImageFix"/>
<feColorMatrix in="SourceAlpha" type="matrix" values="0 0 0 0 0 0 0 0 0 0 0 0 0 0 0 0 0 0 127 0"/>
<feOffset dy="3"/>
<feGaussianBlur stdDeviation="2"/>
<feColorMatrix type="matrix" values="0 0 0 0 0.206667 0 0 0 0 0.235 0 0 0 0 0.266667 0 0 0 0.5 0"/>
<feBlend mode="normal" in2="BackgroundImageFix" result="effect1_dropShadow"/>
<feBlend mode="normal" in="SourceGraphic" in2="effect1_dropShadow" result="shape"/>
</filter>
</defs>
</svg>
