<svg width="50" height="49" viewBox="0 0 50 49" fill="none" xmlns="http://www.w3.org/2000/svg">
<g filter="url(#filter0_d)">
<circle cx="25" cy="21.5" r="20.5" fill="#55D480"/>
</g>
<ellipse cx="24.9986" cy="21.4453" rx="14.6881" ry="14.6953" fill="white"/>
<path d="M31.3612 15.6388C29.6621 13.9398 27.4031 13.0028 25 13C20.0374 13 16 17.0373 16 21.9999C16 26.9626 20.0374 31 25 31C29.9626 31 34 26.9626 34 21.9999C33.9972 19.5974 33.06 17.3384 31.3612 15.6388ZM21.8116 29.4829C21.5376 29.3404 21.2547 29.1931 20.9384 29.0465V26.6234C20.9384 25.8288 21.4532 25.0068 22.3151 25.0068H23.2563L24.024 25.786C24.0023 25.8641 23.99 25.9515 23.99 26.0308V26.3426C23.99 26.566 24.0756 26.777 24.2315 26.9397L23.6814 30.09C23.2309 30.0174 22.7923 29.9086 22.3687 29.7654C22.1875 29.6778 22.0035 29.5828 21.8116 29.4829ZM24.0779 20.0274C24.2192 20.1977 24.3718 20.3537 24.532 20.4922C25.1277 21.007 25.8065 21.268 26.5492 21.268C26.8009 21.268 27.1913 21.2375 27.4565 21.181C27.4648 21.2743 27.4529 21.4188 27.3953 21.5827C27.3169 21.8043 27.2089 21.9222 27.1562 21.9634C27.126 21.9551 27.0948 21.951 27.0633 21.951C27.0238 21.951 26.985 21.9575 26.9477 21.9704C26.8553 22.0022 26.7792 22.0718 26.7397 22.1614C26.4009 22.9237 25.7455 23.8137 25.0131 23.8137C24.2797 23.8137 23.6235 22.9209 23.2848 22.1563C23.2437 22.0632 23.1639 21.9921 23.0664 21.9617C23.0322 21.951 22.9966 21.9455 22.9609 21.9455C22.9246 21.9455 22.8891 21.9511 22.8546 21.9619C22.7967 21.9162 22.6931 21.796 22.6178 21.5827C22.5586 21.4144 22.5518 21.2867 22.5554 21.2137C22.5753 21.2146 22.5952 21.215 22.6148 21.215C23.4815 21.215 23.925 20.3903 24.0779 20.0274ZM23.2886 18.7284C23.5654 18.3441 24.0892 17.886 25.0133 17.886C25.9369 17.886 26.4611 18.3441 26.7379 18.7282C27.1812 19.3442 27.2361 20.053 27.1474 20.4883C26.9439 20.5356 26.7427 20.5597 26.5487 20.5597C25.0322 20.5597 24.2993 19.1153 24.2691 19.0539C24.2091 18.9318 24.0872 18.8559 23.9512 18.8559C23.9343 18.8559 23.9172 18.8572 23.9001 18.8597C23.747 18.8818 23.6271 18.9992 23.6016 19.1513C23.5999 19.1623 23.3986 20.2253 22.875 20.4661C22.7921 20.0281 22.8523 19.334 23.2886 18.7284ZM29.0614 29.1199C29.0345 29.1352 29.0096 29.1529 28.9825 29.1679C28.8405 29.2465 28.6964 29.321 28.5511 29.39C28.5226 29.4046 28.4944 29.4177 28.4622 29.4318L28.2826 29.5137L28.0441 29.6131C27.9204 29.6623 27.7978 29.7081 27.6801 29.7489L27.5295 29.7993L27.3099 29.867L27.225 29.8913C27.1417 29.9084 27.061 29.926 26.9714 29.942C26.7432 29.9831 26.5213 30.0148 26.2944 30.0387L25.7793 26.9397C25.9281 26.7838 26.01 26.5728 26.01 26.3426V26.0308C26.01 25.9532 26.0082 25.8656 25.9888 25.7868L26.7699 25.0068H27.7114C28.5884 25.0068 29.0614 25.8397 29.0614 26.6234L29.0614 29.1199ZM25.5433 25.2602C25.4342 25.2091 25.3085 25.1831 25.169 25.1831H24.8574C24.7177 25.1831 24.592 25.2091 24.4829 25.2604L24.0303 24.8054C24.0452 24.7653 24.0532 24.7197 24.0532 24.6737V24.2337C24.3361 24.4201 24.6685 24.5218 24.9997 24.5218C25.3332 24.5218 25.6571 24.4175 25.9866 24.2035V24.6737C25.9866 24.7079 25.9971 24.7412 26.0112 24.7774L25.5433 25.2602ZM25.3788 26.0058V26.3802C25.3788 26.4859 25.2929 26.5717 25.1872 26.5717H24.8128C24.7071 26.5717 24.6212 26.4859 24.6212 26.3802V26.0058C24.6212 25.9001 24.7071 25.8142 24.8128 25.8142H25.1872C25.2929 25.8142 25.3788 25.9001 25.3788 26.0058ZM25.3312 30.1901C25.2219 30.1946 25.1123 30.1966 25.0023 30.1966C24.8625 30.1966 24.7214 30.1931 24.5769 30.1861C24.5191 30.1832 24.462 30.1777 24.4045 30.1736L24.7811 27.9251L24.9073 27.2028H25.1184L25.5839 30.1754C25.5643 30.1767 25.5447 30.1788 25.5251 30.18C25.4604 30.1843 25.3959 30.1876 25.3312 30.1901ZM33.154 22.8491C33.1492 22.8992 33.1429 22.9499 33.1366 23.0017L33.125 23.0947L33.087 23.3503C33.0744 23.4291 33.0593 23.512 33.0404 23.6031C32.9714 23.9506 32.8792 24.2962 32.7633 24.6377C32.7366 24.7175 32.7069 24.8001 32.6651 24.9124C32.6651 24.9124 32.5923 25.097 32.5749 25.1383L32.5137 25.2826C31.9154 26.6575 30.9709 27.8102 29.7638 28.6682V26.6234C29.7638 26.0119 29.5704 25.4448 29.219 25.0262C28.8281 24.5611 28.2927 24.3047 27.7114 24.3047H26.6888V23.5502C26.9084 23.2934 27.1026 22.9977 27.2668 22.6706C27.5885 22.6018 27.896 22.2707 28.0557 21.8181C28.2539 21.2561 28.1725 20.7508 27.8549 20.5438C27.9801 19.8073 27.7731 18.9566 27.3106 18.3145C26.783 17.5814 25.9667 17.1776 25.0123 17.1776C24.0578 17.1776 23.2412 17.5814 22.7133 18.3146C22.2521 18.9551 22.0441 19.8028 22.1665 20.536C21.8413 20.7369 21.7517 21.2561 21.9499 21.8181C22.1164 22.2898 22.4201 22.6144 22.7478 22.6739C22.9042 22.9881 23.081 23.3165 23.351 23.5998V24.3047H22.3151C21.7252 24.3047 21.1852 24.5611 20.7943 25.0262C20.4344 25.4549 20.2362 26.0222 20.2362 26.6234V28.6744C18.4557 27.4037 17.1992 25.4351 16.8805 23.1453C16.8569 22.9818 16.8382 22.8083 16.8251 22.6298C16.8171 22.5225 16.8118 22.426 16.8082 22.3308L16.8042 22.2107C16.8025 22.1402 16.8014 22.0698 16.8014 21.9988C16.8014 21.8905 16.8037 21.7811 16.8077 21.6734C16.8105 21.6058 16.814 21.539 16.8193 21.458C16.9528 19.415 17.8419 17.5068 19.3229 16.0848C20.8092 14.6585 22.7606 13.8482 24.8179 13.8034C24.8179 13.8034 24.9418 13.8016 24.9987 13.8016L25.1239 13.8028C25.1682 13.8033 25.3733 13.8104 25.3733 13.8104C29.3195 13.9874 32.5772 16.9534 33.119 20.863C33.1331 20.9638 33.1454 21.0666 33.157 21.1785C33.2094 21.6958 33.2122 22.2195 33.1651 22.7345C33.1628 22.7675 33.1598 22.7993 33.154 22.8491Z" fill="#5362A7"/>
<defs>
<filter id="filter0_d" x="0.5" y="0" width="49" height="49" filterUnits="userSpaceOnUse" color-interpolation-filters="sRGB">
<feFlood flood-opacity="0" result="BackgroundImageFix"/>
<feColorMatrix in="SourceAlpha" type="matrix" values="0 0 0 0 0 0 0 0 0 0 0 0 0 0 0 0 0 0 127 0"/>
<feOffset dy="3"/>
<feGaussianBlur stdDeviation="2"/>
<feColorMatrix type="matrix" values="0 0 0 0 0.206667 0 0 0 0 0.235 0 0 0 0 0.266667 0 0 0 0.5 0"/>
<feBlend mode="normal" in2="BackgroundImageFix" result="effect1_dropShadow"/>
<feBlend mode="normal" in="SourceGraphic" in2="effect1_dropShadow" result="shape"/>
</filter>
</defs>
</svg>
