<svg width="28" height="33" viewBox="0 0 28 33" fill="none" xmlns="http://www.w3.org/2000/svg">
<path d="M2.81928 32.6488C1.74764 32.6488 0.878906 31.7997 0.878906 30.7522V2.3654C0.878906 1.31791 1.74764 0.46875 2.81928 0.46875H21.5157C21.673 0.470139 21.8246 0.530799 21.9402 0.639382L26.9479 5.53428C27.0564 5.64402 27.1184 5.79173 27.1189 5.94709V30.7522C27.1189 31.7997 26.2502 32.6488 25.1785 32.6488H2.81928ZM3.03435 31.4903H24.9635C25.4993 31.4903 25.9337 31.0657 25.9337 30.542V6.52544H21.5157C21.1884 6.52544 20.9231 6.26609 20.9231 5.94616V1.6273H3.03435C2.49853 1.6273 2.06416 2.05188 2.06416 2.57563V30.542C2.06416 31.0657 2.49853 31.4903 3.03435 31.4903ZM22.1079 5.36689H25.0994L22.1079 2.44319V5.36689Z" fill="#589CE8"/>
<path d="M21.0045 13.2542L21.6615 12.6119C21.8051 12.4707 21.8525 12.26 21.7823 12.0748C21.7127 11.8882 21.5374 11.7567 21.3351 11.7405L20.1073 11.6391L20.0035 10.4393C19.9869 10.2411 19.8529 10.0693 19.662 10.0017C19.6042 9.98088 19.544 9.9707 19.4824 9.9707C19.3427 9.9707 19.211 10.0235 19.112 10.1203L18.4554 10.762C17.1787 9.98042 15.7163 9.56738 14.2208 9.56738C9.80614 9.56738 6.21484 13.0778 6.21484 17.3929C6.21484 21.7081 9.80614 25.2189 14.2208 25.2189C18.6354 25.2189 22.2267 21.7081 22.2267 17.3929C22.2267 15.9311 21.8041 14.5021 21.0045 13.2542ZM14.2208 24.2234C10.368 24.2234 7.23336 21.1594 7.23336 17.3929C7.23336 13.6269 10.368 10.5629 14.2208 10.5629C15.4416 10.5629 16.6462 10.8824 17.7131 11.4881L17.3033 11.8882C17.2081 11.9817 17.1536 12.1054 17.1498 12.2396L17.1512 12.2929L17.2853 13.0662C16.3781 12.4489 15.3236 12.1234 14.2208 12.1234C11.2482 12.1234 8.82933 14.4873 8.82933 17.3929C8.82933 20.2986 11.2482 22.6629 14.2208 22.6629C17.1934 22.6629 19.6122 20.2986 19.6122 17.3929C19.6122 16.3122 19.2778 15.2796 18.6435 14.3914L19.4294 14.5271L19.5104 14.528L19.562 14.5234L19.6132 14.5132L19.6643 14.4975L19.7207 14.4734L19.7638 14.4493L19.806 14.4197L19.8477 14.3845L20.2617 13.9793C20.8813 15.0221 21.2082 16.1996 21.2082 17.3929C21.2082 21.1594 18.0736 24.2234 14.2208 24.2234ZM19.1015 12.1554C19.1229 12.4049 19.3237 12.6013 19.5791 12.6226L20.1409 12.6689L19.3659 13.5325L18.2986 13.4098L18.2152 12.4443L19.0556 11.6229L19.1015 12.1554ZM13.8508 17.0313C13.7523 17.1276 13.6973 17.2559 13.6973 17.3925C13.6973 17.5295 13.7518 17.6582 13.8508 17.7546C13.9489 17.8513 14.0806 17.9046 14.2208 17.9046C14.361 17.9046 14.4927 17.8513 14.5908 17.755L15.4728 16.8933C15.5387 17.0512 15.5733 17.2216 15.5733 17.3929C15.5733 18.1218 14.9664 18.7149 14.2208 18.7149C13.4751 18.7149 12.8683 18.1218 12.8683 17.3929C12.8683 16.6641 13.4751 16.0709 14.2208 16.0709C14.3961 16.0709 14.5704 16.1047 14.7324 16.1695L13.8508 17.0313ZM14.2208 21.6673C11.8095 21.6673 9.84784 19.7498 9.84784 17.3929C9.84784 15.036 11.8095 13.119 14.2208 13.119C15.1995 13.119 16.1545 13.4436 16.9224 14.0349L15.506 15.4134C15.1209 15.174 14.6784 15.0476 14.2208 15.0476C12.8977 15.0476 11.8214 16.0996 11.8214 17.3929C11.8214 18.6862 12.8977 19.7383 14.2208 19.7383C15.5439 19.7383 16.6202 18.6862 16.6202 17.3929C16.6202 16.9461 16.4909 16.5136 16.246 16.1367L17.6572 14.7531C18.2621 15.5041 18.5937 16.4372 18.5937 17.3929C18.5937 19.7498 16.632 21.6673 14.2208 21.6673Z" fill="#589CE8"/>
</svg>
