<svg width="11" height="13" viewBox="0 0 11 13" fill="none" xmlns="http://www.w3.org/2000/svg">
<path d="M5.42329 0.906743C5.56847 0.770018 5.70558 0.770018 5.83463 0.906743L10.8917 6.29029C11.0369 6.42701 11.0369 6.56374 10.8917 6.70046L5.83463 12.084C5.70558 12.2207 5.56847 12.2207 5.42329 12.084L4.93936 11.5713C4.89096 11.52 4.86677 11.4517 4.86677 11.3662C4.86677 11.2808 4.89096 11.2038 4.93936 11.1355L8.68983 7.16191H0.438796C0.245224 7.16191 0.148438 7.05937 0.148438 6.85428V6.13647C0.148438 5.93139 0.245224 5.82884 0.438796 5.82884H8.68983L4.93936 1.85527C4.81031 1.70146 4.81031 1.55619 4.93936 1.41946L5.42329 0.906743Z" fill="#589CE8"/>
</svg>
