<svg width="20" height="22" viewBox="0 0 20 22" fill="none" xmlns="http://www.w3.org/2000/svg">
<path d="M19.1875 15.3086C19.1875 15.7188 19.0508 15.9922 18.7773 16.1289C18.7227 16.375 18.6953 16.8535 18.6953 17.5645C18.6953 18.2754 18.7227 18.7949 18.7773 19.123C19.0508 19.3965 19.1875 19.6562 19.1875 19.9023V20.5586C19.1875 20.8867 19.0781 21.1465 18.8594 21.3379C18.668 21.5293 18.4219 21.625 18.1211 21.625H4.75C3.62891 21.625 2.68555 21.2422 1.91992 20.4766C1.18164 19.7383 0.8125 18.8086 0.8125 17.6875V4.5625C0.8125 3.44141 1.18164 2.51172 1.91992 1.77344C2.68555 1.00781 3.62891 0.625 4.75 0.625H18.1211C18.832 0.625 19.1875 0.980469 19.1875 1.69141V15.3086ZM6.71875 7.51562V9.48438C6.71875 9.70312 6.82812 9.8125 7.04688 9.8125H9.34375V12.1094C9.34375 12.3281 9.45312 12.4375 9.67188 12.4375H11.6406C11.8594 12.4375 11.9688 12.3281 11.9688 12.1094V9.8125H14.2656C14.4844 9.8125 14.5938 9.70312 14.5938 9.48438V7.51562C14.5938 7.29688 14.4844 7.1875 14.2656 7.1875H11.9688V4.89062C11.9688 4.67188 11.8594 4.5625 11.6406 4.5625H9.67188C9.45312 4.5625 9.34375 4.67188 9.34375 4.89062V7.1875H7.04688C6.82812 7.1875 6.71875 7.29688 6.71875 7.51562ZM16.4395 19V16.375H4.75C4.39453 16.375 4.08008 16.498 3.80664 16.7441C3.56055 16.9902 3.4375 17.3047 3.4375 17.6875C3.4375 18.0703 3.56055 18.3848 3.80664 18.6309C4.05273 18.877 4.36719 19 4.75 19H16.4395Z" fill="#FFB844"/>
</svg>
