<svg width="17" height="20" viewBox="0 0 17 20" fill="none" xmlns="http://www.w3.org/2000/svg">
<path d="M10.1806 7.04525H11.7072C11.9306 7.04525 12.1124 6.86181 12.1124 6.63636V5.09566C12.1124 4.87021 11.9306 4.68677 11.7072 4.68677H10.1806C9.95718 4.68677 9.77539 4.87021 9.77539 5.09566V6.63636C9.77539 6.86181 9.95718 7.04525 10.1806 7.04525Z" fill="#505E78"/>
<path d="M5.29388 7.04525H6.82154C7.04393 7.04525 7.22565 6.86181 7.22565 6.63636V5.09566C7.22565 4.87021 7.04393 4.68677 6.82154 4.68677H5.29388C5.07046 4.68677 4.88867 4.87021 4.88867 5.09566V6.63636C4.88867 6.86181 5.07046 7.04525 5.29388 7.04525Z" fill="#505E78"/>
<path d="M10.1806 11.4793H11.7072C11.9306 11.4793 12.1124 11.2959 12.1124 11.0704V9.52869C12.1124 9.30421 11.9306 9.12085 11.7072 9.12085H10.1806C9.95718 9.12085 9.77539 9.30421 9.77539 9.52869V11.0704C9.77539 11.2959 9.95718 11.4793 10.1806 11.4793Z" fill="#505E78"/>
<path d="M5.29388 11.4793H6.82154C7.04393 11.4793 7.22565 11.2959 7.22565 11.0704V9.52869C7.22565 9.30421 7.04393 9.12085 6.82154 9.12085H5.29388C5.07046 9.12085 4.88867 9.30421 4.88867 9.52869V11.0704C4.88867 11.2959 5.07046 11.4793 5.29388 11.4793Z" fill="#505E78"/>
<path d="M16.5948 17.8808H15.7973V0.870706C15.7973 0.390577 15.4103 0 14.9346 0H2.06651C1.59077 0 1.20267 0.390577 1.20267 0.870706V17.8808H0.405211C0.181789 17.8808 0 18.0641 0 18.2897V19.6232H17V18.2897C17 18.0641 16.8182 17.8808 16.5948 17.8808ZM14.0708 17.843H9.66848V15.2062C9.66848 14.9817 9.48677 14.7983 9.26438 14.7983H7.73673C7.5133 14.7983 7.33152 14.9817 7.33152 15.2062V17.843H2.92923L2.94849 1.74141L14.0708 1.78021V17.843Z" fill="#505E78"/>
</svg>
