<svg width="25" height="23" viewBox="0 0 25 23" fill="none" xmlns="http://www.w3.org/2000/svg">
<path d="M24.3661 5.28274C24.3661 5.18408 24.2145 4.98675 24.1135 4.93742L12.3894 0.596207C12.3388 0.596207 12.2378 0.546875 12.2378 0.546875C12.1872 0.546875 12.0862 0.596207 12.0356 0.596207L0.311515 4.93742C0.210445 4.98675 0.109375 5.18408 0.109375 5.28274V6.07206C0.109375 6.31872 0.26098 6.46671 0.513654 6.46671H1.72649V7.05869C1.72649 7.40402 1.97917 7.65068 2.33291 7.65068H22.1426C22.4458 7.65068 22.749 7.40402 22.749 7.05869V6.46671H23.9619C24.164 6.46671 24.3661 6.31872 24.3661 6.07206V5.28274ZM23.1533 20.2797H1.32221C0.614724 20.2797 0.109375 20.8223 0.109375 21.4636V22.2529C0.109375 22.4996 0.26098 22.6476 0.513654 22.6476H23.9619C24.164 22.6476 24.3661 22.4996 24.3661 22.2529V21.4636C24.3661 20.8223 23.8103 20.2797 23.1533 20.2797ZM4.15217 8.43999V17.9117H2.33291C1.97917 17.9117 1.72649 18.2077 1.72649 18.5037V19.4904H22.749V18.5037C22.749 18.2077 22.4458 17.9117 22.1426 17.9117H20.3233V8.43999H17.0891V17.9117H13.8549V8.43999H10.6206V17.9117H7.3864V8.43999H4.15217Z" fill="white"/>
</svg>
