<svg width="22" height="22" viewBox="0 0 22 22" fill="none" xmlns="http://www.w3.org/2000/svg">
<path d="M0.5 17.2363C2.16797 18.4121 4.79297 19 8.375 19C11.957 19 14.582 18.4121 16.25 17.2363V19C16.25 19.7109 15.4707 20.3262 13.9121 20.8457C12.3809 21.3652 10.5352 21.625 8.375 21.625C6.21484 21.625 4.35547 21.3652 2.79688 20.8457C1.26562 20.3262 0.5 19.7109 0.5 19V17.2363ZM19.1621 5.0957C17.6309 5.61523 15.7852 5.875 13.625 5.875C11.4648 5.875 9.60547 5.61523 8.04688 5.0957C6.51562 4.57617 5.75 3.96094 5.75 3.25C5.75 2.53906 6.51562 1.92383 8.04688 1.4043C9.60547 0.884766 11.4648 0.625 13.625 0.625C15.7852 0.625 17.6309 0.884766 19.1621 1.4043C20.7207 1.92383 21.5 2.53906 21.5 3.25C21.5 3.96094 20.7207 4.57617 19.1621 5.0957ZM0.5 12.9297C1.32031 13.6133 2.44141 14.1465 3.86328 14.5293C5.28516 14.8848 6.78906 15.0625 8.375 15.0625C9.41406 15.0625 10.4258 14.9941 11.4102 14.8574C12.3945 14.6934 13.3105 14.4473 14.1582 14.1191C15.0059 13.791 15.7031 13.3945 16.25 12.9297V15.0625C16.25 15.7734 15.4707 16.3887 13.9121 16.9082C12.3809 17.4277 10.5352 17.6875 8.375 17.6875C6.21484 17.6875 4.35547 17.4277 2.79688 16.9082C1.26562 16.3887 0.5 15.7734 0.5 15.0625V12.9297ZM17.5625 13.3809V10.7969C19.2852 10.4961 20.5977 10.0176 21.5 9.36133V11.125C21.5 11.3711 21.4043 11.6035 21.2129 11.8223C21.0215 12.041 20.748 12.2598 20.3926 12.4785C20.0645 12.6699 19.6543 12.8477 19.1621 13.0117C18.6973 13.1484 18.1641 13.2715 17.5625 13.3809ZM2.79688 8.17188C4.32812 7.51562 6.1875 7.1875 8.375 7.1875C10.5625 7.1875 12.4219 7.51562 13.9531 8.17188C15.4844 8.80078 16.25 9.56641 16.25 10.4688C16.25 11.3711 15.4844 12.1504 13.9531 12.8066C12.4219 13.4355 10.5625 13.75 8.375 13.75C6.1875 13.75 4.32812 13.4355 2.79688 12.8066C1.26562 12.1504 0.5 11.3711 0.5 10.4688C0.5 9.56641 1.26562 8.80078 2.79688 8.17188ZM17.3574 9.48438C17.0293 8.55469 16.209 7.77539 14.8965 7.14648C17.9043 7.00977 20.1055 6.43555 21.5 5.42383V7.1875C21.5 7.67969 21.1172 8.13086 20.3516 8.54102C19.6133 8.95117 18.6152 9.26562 17.3574 9.48438Z" fill="#A971F0"/>
</svg>
