<svg width="12" height="12" viewBox="0 0 12 12" fill="none" xmlns="http://www.w3.org/2000/svg">
<path d="M5.83278 0.108108C5.99331 -0.036036 6.14493 -0.036036 6.28763 0.108108L11.8796 5.78378C12.0401 5.92793 12.0401 6.07207 11.8796 6.21622L6.28763 11.8919C6.14493 12.036 5.99331 12.036 5.83278 11.8919L5.29766 11.3514C5.24415 11.2973 5.21739 11.2252 5.21739 11.1351C5.21739 11.045 5.24415 10.964 5.29766 10.8919L9.44482 6.7027H0.32107C0.107023 6.7027 0 6.59459 0 6.37838V5.62162C0 5.40541 0.107023 5.2973 0.32107 5.2973H9.44482L5.29766 1.10811C5.15496 0.945946 5.15496 0.792793 5.29766 0.648649L5.83278 0.108108Z" fill="#589CE8"/>
</svg>
