<svg width="33" height="33" viewBox="0 0 33 33" fill="none" xmlns="http://www.w3.org/2000/svg">
<circle cx="16.5" cy="16.5" r="16.5" fill="#589CE8"/>
<path d="M24.762 22.3467H24.3653V12.99C24.3653 12.7217 24.15 12.5 23.8893 12.5H19.05V9.65333C19.05 9.29167 18.7667 9 18.4153 9H9.496C9.14467 9 8.85 9.29167 8.85 9.65333V22.125H8.32867C8.14733 22.125 8 22.2767 8 22.4517V23H16.0807H19.9H25V22.5917C25 22.4517 24.898 22.3467 24.762 22.3467ZM14.8 11.0767C14.8 10.9017 14.9473 10.75 15.1287 10.75H16.1827C16.364 10.75 16.5 10.9017 16.5 11.0767V12.1733C16.5 12.3483 16.364 12.5 16.1827 12.5H15.1287C14.9473 12.5 14.8 12.3483 14.8 12.1733V11.0767ZM14.8 13.7017C14.8 13.5267 14.9473 13.375 15.1287 13.375H16.1827C16.364 13.375 16.5 13.5267 16.5 13.7017V14.7983C16.5 14.9733 16.364 15.125 16.1827 15.125H15.1287C14.9473 15.125 14.8 14.9733 14.8 14.7983V13.7017ZM11.4 11.0767C11.4 10.9017 11.5473 10.75 11.7287 10.75H12.7827C12.964 10.75 13.1 10.9017 13.1 11.0767V12.1733C13.1 12.3483 12.964 12.5 12.7827 12.5H11.7287C11.5473 12.5 11.4 12.3483 11.4 12.1733V11.0767ZM11.4 13.7017C11.4 13.5267 11.5473 13.375 11.7287 13.375H12.7827C12.964 13.375 13.1 13.5267 13.1 13.7017V14.7983C13.1 14.9733 12.964 15.125 12.7827 15.125H11.7287C11.5473 15.125 11.4 14.9733 11.4 14.7983V13.7017ZM12.7827 17.75H11.7287C11.5473 17.75 11.4 17.5983 11.4 17.4233V16.3267C11.4 16.1517 11.5473 16 11.7287 16H12.7827C12.964 16 13.1 16.1517 13.1 16.3267V17.4233C13.1 17.5983 12.964 17.75 12.7827 17.75ZM14.8 22.125H13.1V19.8267C13.1 19.6517 13.2473 19.5 13.4287 19.5H14.4827C14.664 19.5 14.8 19.6517 14.8 19.8267V22.125ZM15.1287 17.75C14.9473 17.75 14.8 17.5983 14.8 17.4233V16.3267C14.8 16.1517 14.9473 16 15.1287 16H16.1827C16.364 16 16.5 16.1517 16.5 16.3267V17.4233C16.5 17.5983 16.364 17.75 16.1827 17.75H15.1287ZM21.396 18.695C21.396 18.8817 21.26 19.0217 21.0787 19.0217H20.0247C19.8433 19.0217 19.696 18.8817 19.696 18.695V17.5983C19.696 17.4233 19.8433 17.2717 20.0247 17.2717H21.0787C21.26 17.2717 21.396 17.4233 21.396 17.5983V18.695ZM21.396 16.0117C21.396 16.1983 21.26 16.3383 21.0787 16.3383H20.0247C19.8433 16.3383 19.696 16.1983 19.696 16.0117V14.915C19.696 14.74 19.8433 14.5883 20.0247 14.5883H21.0787C21.26 14.5883 21.396 14.74 21.396 14.915V16.0117Z" fill="white"/>
</svg>
