<svg width="18" height="16" viewBox="0 0 18 16" fill="none" xmlns="http://www.w3.org/2000/svg">
<path d="M16.2039 9.07246L17.5625 3.05996C17.6492 2.62637 17.3312 2.19277 16.8687 2.19277H5.5375L5.27734 0.920898C5.19063 0.60293 4.90156 0.342773 4.58359 0.342773H1.63516C1.23047 0.342773 0.941406 0.660742 0.941406 1.03652V1.49902C0.941406 1.90371 1.23047 2.19277 1.63516 2.19277H3.62969L5.68203 12.1365C5.19063 12.4256 4.87266 12.9459 4.87266 13.524C4.87266 14.4201 5.59531 15.1428 6.49141 15.1428C7.35859 15.1428 8.11016 14.4201 8.11016 13.524C8.11016 13.0904 7.90781 12.6857 7.61875 12.3678H13.6602C13.3711 12.6857 13.1977 13.0904 13.1977 13.524C13.1977 14.4201 13.9203 15.1428 14.8164 15.1428C15.6836 15.1428 16.4352 14.4201 16.4352 13.524C16.4352 12.8881 16.0594 12.3389 15.5102 12.0787L15.6547 11.385C15.7703 10.9514 15.4234 10.5178 14.9898 10.5178H7.24297L7.04063 9.59277H15.5102C15.8281 9.59277 16.1172 9.39043 16.2039 9.07246Z" fill="white"/>
</svg>
