<svg width="20" height="23" viewBox="0 0 20 23" fill="none" xmlns="http://www.w3.org/2000/svg">
<path d="M9.84011 11.75C12.8479 11.75 15.3401 9.30078 15.3401 6.25C15.3401 3.24219 12.8479 0.75 9.84011 0.75C6.78933 0.75 4.34011 3.24219 4.34011 6.25C4.34011 9.30078 6.78933 11.75 9.84011 11.75ZM13.6643 13.125H12.9339C11.9885 13.5977 10.9573 13.8125 9.84011 13.8125C8.72292 13.8125 7.6487 13.5977 6.70339 13.125H5.97292C2.79324 13.125 0.215111 15.7461 0.215111 18.9258V20.6875C0.215111 21.8477 1.11745 22.75 2.27761 22.75H17.4026C18.5198 22.75 19.4651 21.8477 19.4651 20.6875V18.9258C19.4651 15.7461 16.844 13.125 13.6643 13.125Z" fill="#589CE8"/>
</svg>
