<svg width="34" height="90" viewBox="0 0 34 90" fill="none" xmlns="http://www.w3.org/2000/svg">
<path d="M30.7015 6.75781H15V27.5383H30.7015V6.75781Z" stroke="#FFAC24" stroke-width="1.7" stroke-miterlimit="10"/>
<path d="M21.0234 20.3438H28.4015" stroke="#FFAC24" stroke-width="1.5" stroke-miterlimit="10"/>
<path d="M17.9648 20.3438H19.8554" stroke="#FFAC24" stroke-width="1.5" stroke-miterlimit="10"/>
<path d="M21.0234 23.96H28.4015" stroke="#FFAC24" stroke-width="1.5" stroke-miterlimit="10"/>
<path d="M17.9648 23.96H19.8554" stroke="#FFAC24" stroke-width="1.5" stroke-miterlimit="10"/>
<path d="M19.7852 13.2126L21.5621 15.1314L26.7007 9.76562" stroke="#FFAC24" stroke-width="1.5" stroke-miterlimit="10"/>
<path d="M23.3786 70.7974H24.9226C25.1485 70.7974 25.3323 70.6119 25.3323 70.3839V68.8257C25.3323 68.5976 25.1485 68.4121 24.9226 68.4121H23.3786C23.1526 68.4121 22.9688 68.5976 22.9688 68.8257V70.3839C22.9688 70.6119 23.1526 70.7974 23.3786 70.7974Z" fill="#BABABA"/>
<path d="M18.4372 70.7974H19.9822C20.2071 70.7974 20.3909 70.6119 20.3909 70.3839V68.8257C20.3909 68.5976 20.2071 68.4121 19.9822 68.4121H18.4372C18.2112 68.4121 18.0273 68.5976 18.0273 68.8257V70.3839C18.0273 70.6119 18.2112 70.7974 18.4372 70.7974Z" fill="#BABABA"/>
<path d="M23.3786 75.2818H24.9226C25.1485 75.2818 25.3323 75.0963 25.3323 74.8683V73.309C25.3323 73.0819 25.1485 72.8965 24.9226 72.8965H23.3786C23.1526 72.8965 22.9688 73.0819 22.9688 73.309V74.8683C22.9688 75.0963 23.1526 75.2818 23.3786 75.2818Z" fill="#BABABA"/>
<path d="M18.4372 75.2818H19.9822C20.2071 75.2818 20.3909 75.0963 20.3909 74.8683V73.309C20.3909 73.0819 20.2071 72.8965 19.9822 72.8965H18.4372C18.2112 72.8965 18.0273 73.0819 18.0273 73.309V74.8683C18.0273 75.0963 18.2112 75.2818 18.4372 75.2818Z" fill="#BABABA"/>
<path d="M29.8657 81.7562H29.0592V64.5525C29.0592 64.0669 28.6678 63.6719 28.1867 63.6719H15.1721C14.6909 63.6719 14.2984 64.0669 14.2984 64.5525V81.7562H13.4919C13.2659 81.7562 13.082 81.9417 13.082 82.1698V83.5184H30.2756V82.1698C30.2756 81.9417 30.0917 81.7562 29.8657 81.7562ZM27.313 81.718H22.8606V79.0512C22.8606 78.8241 22.6768 78.6387 22.4519 78.6387H20.9068C20.6809 78.6387 20.497 78.8241 20.497 79.0512V81.718H16.0446L16.0641 65.4331L27.313 65.4723V81.718Z" fill="#BABABA"/>
<path d="M25.6521 47.2468C25.485 47.6708 24.9893 47.8854 24.5452 47.726C23.8602 47.4801 23.1379 47.3555 22.3984 47.3555H21.1094C17.745 47.3555 15.0078 49.9682 15.0078 53.1797C15.0078 53.6327 14.6231 54 14.1484 54C13.6738 54 13.2891 53.6327 13.2891 53.1797C13.2891 49.0636 16.7972 45.7148 21.1094 45.7148H22.3984C23.3452 45.7148 24.271 45.8748 25.1501 46.1903C25.5943 46.3497 25.8191 46.8227 25.6521 47.2468ZM27.4688 38.5371C27.4688 41.5903 24.8665 44.0742 21.668 44.0742C18.4694 44.0742 15.8672 41.5903 15.8672 38.5371C15.8672 35.4839 18.4694 33 21.668 33C24.8665 33 27.4688 35.4839 27.4688 38.5371ZM25.75 38.5371C25.75 36.3886 23.9188 34.6406 21.668 34.6406C19.4171 34.6406 17.5859 36.3886 17.5859 38.5371C17.5859 40.6856 19.4171 42.4336 21.668 42.4336C23.9188 42.4336 25.75 40.6856 25.75 38.5371ZM32.7109 50.4863C32.7109 49.2047 31.5169 48.1621 30.0493 48.1621C29.4254 48.1621 28.9727 47.8746 28.9727 47.4785C28.9727 47.1016 29.2907 46.7949 29.6816 46.7949C30.0758 46.7949 30.5892 46.8359 31.4088 47.1402C31.851 47.3044 32.3491 47.0952 32.5212 46.673C32.6932 46.2508 32.4741 45.7753 32.0317 45.6111C31.6051 45.4528 31.2331 45.3489 30.9062 45.2805V44.6484C30.9062 44.1954 30.5215 43.8281 30.0469 43.8281C29.5722 43.8281 29.1875 44.1954 29.1875 44.6484V45.2028C28.085 45.422 27.2539 46.359 27.2539 47.4785C27.2539 48.8035 28.4557 49.8027 30.0493 49.8027C30.5604 49.8027 30.9922 50.1158 30.9922 50.4864C30.9922 50.8505 30.6374 51.17 30.2331 51.17C29.9175 51.17 29.1259 51.0595 28.3448 50.7631C27.9038 50.5959 27.4041 50.8014 27.2288 51.2224C27.0534 51.6434 27.2689 52.1204 27.7099 52.2877C28.2076 52.4766 28.7267 52.6113 29.1875 52.6966V53.1797C29.1875 53.6327 29.5722 54 30.0469 54C30.5215 54 30.9062 53.6327 30.9062 53.1797V52.7216C31.2992 52.6161 31.6623 52.4188 31.965 52.1404C32.446 51.6979 32.7109 51.1104 32.7109 50.4863Z" fill="#C4C4C4"/>
<line x1="0.5" x2="0.5" y2="90" stroke="#C4C4C4"/>
</svg>
