<svg width="43" height="43" viewBox="0 0 43 43" fill="none" xmlns="http://www.w3.org/2000/svg">
<circle cx="21.5" cy="21.5" r="21.5" fill="#FFAC24"/>
<path d="M20.7578 27.2266L16.1914 22.6875C16.0638 22.5599 16 22.3958 16 22.1953C16 21.9948 16.0638 21.8307 16.1914 21.7031L17.2031 20.7188C17.3307 20.5729 17.4857 20.5 17.668 20.5C17.8685 20.5 18.0417 20.5729 18.1875 20.7188L21.25 23.7812L27.8125 17.2188C27.9583 17.0729 28.1224 17 28.3047 17C28.5052 17 28.6693 17.0729 28.7969 17.2188L29.8086 18.2031C29.9362 18.3307 30 18.4948 30 18.6953C30 18.8958 29.9362 19.0599 29.8086 19.1875L21.7422 27.2266C21.6146 27.3724 21.4505 27.4453 21.25 27.4453C21.0495 27.4453 20.8854 27.3724 20.7578 27.2266Z" fill="white"/>
</svg>
