<svg width="25" height="24" viewBox="0 0 25 24" fill="none" xmlns="http://www.w3.org/2000/svg">
<path d="M7.31609 6.78668V4.95245C7.31609 4.5856 7.52653 4.40217 7.94741 4.40217H10.0518C10.4727 4.40217 10.6831 4.5856 10.6831 4.95245V6.78668C10.6831 7.15353 10.4727 7.33696 10.0518 7.33696H7.94741C7.52653 7.33696 7.31609 7.15353 7.31609 6.78668ZM14.6815 7.33696C14.2606 7.33696 14.0502 7.15353 14.0502 6.78668V4.95245C14.0502 4.5856 14.2606 4.40217 14.6815 4.40217H16.7859C17.2067 4.40217 17.4172 4.5856 17.4172 4.95245V6.78668C17.4172 7.15353 17.2067 7.33696 16.7859 7.33696H14.6815ZM7.94741 11.7391C7.52653 11.7391 7.31609 11.5557 7.31609 11.1889V9.35462C7.31609 8.98777 7.52653 8.80435 7.94741 8.80435H10.0518C10.4727 8.80435 10.6831 8.98777 10.6831 9.35462V11.1889C10.6831 11.5557 10.4727 11.7391 10.0518 11.7391H7.94741ZM14.6815 11.7391C14.2606 11.7391 14.0502 11.5557 14.0502 11.1889V9.35462C14.0502 8.98777 14.2606 8.80435 14.6815 8.80435H16.7859C17.2067 8.80435 17.4172 8.98777 17.4172 9.35462V11.1889C17.4172 11.5557 17.2067 11.7391 16.7859 11.7391H14.6815ZM10.6831 15.591C10.6831 15.9579 10.4727 16.1413 10.0518 16.1413H7.94741C7.52653 16.1413 7.31609 15.9579 7.31609 15.591V13.7568C7.31609 13.3899 7.52653 13.2065 7.94741 13.2065H10.0518C10.4727 13.2065 10.6831 13.3899 10.6831 13.7568V15.591ZM14.6815 16.1413C14.2606 16.1413 14.0502 15.9579 14.0502 15.591V13.7568C14.0502 13.3899 14.2606 13.2065 14.6815 13.2065H16.7859C17.2067 13.2065 17.4172 13.3899 17.4172 13.7568V15.591C17.4172 15.9579 17.2067 16.1413 16.7859 16.1413H14.6815ZM24.1512 21.8274V23.4783H0.582031V21.8274C0.582031 21.4606 0.792471 21.2772 1.21335 21.2772H2.26555V1.10054C2.26555 0.794837 2.3883 0.534986 2.63382 0.320992C2.87933 0.106997 3.17745 0 3.52818 0H21.2051C21.5558 0 21.8539 0.106997 22.0995 0.320992C22.345 0.534986 22.4677 0.794837 22.4677 1.10054V21.2772H23.5199C23.9408 21.2772 24.1512 21.4606 24.1512 21.8274ZM4.79082 21.2313H10.6831V18.159C10.6831 17.7921 10.8936 17.6087 11.3144 17.6087H13.4188C13.8397 17.6087 14.0502 17.7921 14.0502 18.159V21.2313H19.9425V2.24694L4.79082 2.20109V21.2313Z" fill="#589CE8"/>
</svg>
