<svg width="20" height="23" viewBox="0 0 20 23" fill="none" xmlns="http://www.w3.org/2000/svg">
<path d="M10.2789 11.4747C13.311 11.4747 15.8233 9.11678 15.8233 6.17973C15.8233 3.28405 13.311 0.884766 10.2789 0.884766C7.20347 0.884766 4.73447 3.28405 4.73447 6.17973C4.73447 9.11678 7.20347 11.4747 10.2789 11.4747ZM14.3939 12.8398L12.358 20.7409L10.9719 15.115L12.358 12.7984H8.19973L9.58583 15.115L8.19973 20.7409L6.12057 12.8398C3.00185 12.9639 0.576172 15.4046 0.576172 18.383V20.079C0.576172 21.1959 1.4858 22.0646 2.65532 22.0646H17.9024C19.0286 22.0646 19.9816 21.1959 19.9816 20.079V18.383C19.9816 15.4046 17.5126 12.9639 14.3939 12.8398Z" fill="white"/>
</svg>
