<svg width="22" height="22" viewBox="0 0 22 22" fill="none" xmlns="http://www.w3.org/2000/svg">
<path d="M13.7891 1.77344C14.5547 2.53906 14.9375 3.46875 14.9375 4.5625C14.9375 5.65625 14.5547 6.58594 13.7891 7.35156C13.0234 8.11719 12.0938 8.5 11 8.5C9.90625 8.5 8.97656 8.11719 8.21094 7.35156C7.44531 6.58594 7.0625 5.65625 7.0625 4.5625C7.0625 3.46875 7.44531 2.53906 8.21094 1.77344C8.97656 1.00781 9.90625 0.625 11 0.625C12.0938 0.625 13.0234 1.00781 13.7891 1.77344ZM10.0977 10.5098C10.2617 10.6191 10.3438 10.7832 10.3438 11.002V21.0918C10.3438 21.2832 10.248 21.4336 10.0566 21.543C9.89258 21.6523 9.71484 21.6523 9.52344 21.543C7.60938 20.5859 4.95703 20.0254 1.56641 19.8613C1.26562 19.834 1.00586 19.7109 0.787109 19.4922C0.595703 19.3008 0.5 19.0547 0.5 18.7539V9.60742C0.5 9.2793 0.623047 9.00586 0.869141 8.78711C1.11523 8.56836 1.40234 8.47266 1.73047 8.5C5.44922 8.71875 8.23828 9.38867 10.0977 10.5098ZM20.2695 8.5C20.4883 8.5 20.6934 8.55469 20.8848 8.66406C21.0762 8.74609 21.2266 8.86914 21.3359 9.0332C21.4453 9.19727 21.5 9.38867 21.5 9.60742V18.7539C21.5 19.0547 21.3906 19.3008 21.1719 19.4922C20.9805 19.7109 20.7344 19.834 20.4336 19.8613C17.043 20.0527 14.4043 20.6133 12.5176 21.543C12.3809 21.625 12.2441 21.6523 12.1074 21.625C11.9707 21.5977 11.8613 21.5293 11.7793 21.4199C11.6973 21.3105 11.6562 21.2012 11.6562 21.0918V11.002C11.6562 10.7832 11.7383 10.6191 11.9023 10.5098C13.7617 9.38867 16.5508 8.71875 20.2695 8.5Z" fill="#55D480"/>
</svg>
