<svg width="32" height="31" viewBox="0 0 32 31" fill="none" xmlns="http://www.w3.org/2000/svg">
<path d="M28.7743 3.03084H24.4597V0.910411C24.4597 0.567931 24.1717 0.289062 23.8179 0.289062C23.4641 0.289062 23.176 0.567931 23.176 0.910411V3.03084H10.2989V0.910411C10.2989 0.567931 10.0115 0.289062 9.65766 0.289062C9.30387 0.289062 9.0158 0.567931 9.0158 0.910411V3.03084H3.28546C1.76012 3.03084 0.519531 4.23177 0.519531 5.70771V27.6406C0.519531 29.1166 1.76012 30.3175 3.28546 30.3175H23.7502V30.3046L23.8239 30.3175C23.9931 30.3162 24.1518 30.252 24.2719 30.1357L31.3517 23.2815C31.4585 23.1787 31.5123 23.0309 31.5123 22.8427V22.7784H31.5402V5.70771C31.5395 4.23177 30.2989 3.03084 28.7743 3.03084ZM24.4597 28.1971V24.8988C24.4597 24.1079 25.1248 23.464 25.9419 23.464H29.3491L24.4597 28.1971ZM30.2565 22.2213H25.9419C24.4173 22.2213 23.176 23.4223 23.176 24.8988V29.0754H3.28546C2.4677 29.0754 1.80326 28.4316 1.80326 27.6406V11.127H30.2565V22.2213ZM30.2565 9.88431H1.8026V5.70771C1.8026 4.91673 2.4677 4.27289 3.28546 4.27289H9.0158V5.77197H8.94942C8.20533 5.77197 7.59997 6.35798 7.59997 7.07892C7.59997 7.79922 8.20533 8.38523 8.94942 8.38523C9.69351 8.38523 10.2989 7.79922 10.2989 7.07892V4.27289H23.176V5.77197H23.1096C22.3656 5.77197 21.7602 6.35798 21.7602 7.07892C21.7602 7.79922 22.3656 8.38523 23.1096 8.38523C23.8544 8.38523 24.4597 7.79922 24.4597 7.07892V4.27289H28.7743C29.5914 4.27289 30.2565 4.91673 30.2565 5.70771V9.88431Z" fill="#589CE8"/>
<path d="M13.1956 23.5919C12.3785 23.5919 11.7134 22.948 11.7134 22.1564C11.7134 21.8139 11.4253 21.5357 11.0716 21.5357C10.7178 21.5357 10.4297 21.8139 10.4297 22.1564C10.4297 23.633 11.6709 24.8339 13.1956 24.8339C14.721 24.8339 15.9616 23.633 15.9616 22.1564C15.9616 21.3892 15.619 20.6573 15.023 20.1484L14.9666 20.1002L15.023 20.052C15.619 19.5431 15.9616 18.8113 15.9616 18.0441C15.9616 16.5681 14.721 15.3672 13.1956 15.3672C11.6709 15.3672 10.4297 16.5681 10.4297 18.0441C10.4297 18.3865 10.7178 18.6654 11.0716 18.6654C11.4253 18.6654 11.7134 18.3865 11.7134 18.0441C11.7134 17.2531 12.3785 16.6092 13.1956 16.6092C14.0134 16.6092 14.6778 17.2531 14.6778 18.0441C14.6778 18.8357 14.0134 19.4795 13.1956 19.4795C12.8418 19.4795 12.5538 19.7578 12.5538 20.1002C12.5538 20.4427 12.8418 20.7216 13.1956 20.7216C14.0134 20.7216 14.6778 21.3654 14.6778 22.1564C14.6778 22.948 14.0134 23.5919 13.1956 23.5919Z" fill="#589CE8"/>
<path d="M18.1555 16.6105L18.9282 16.6099V24.2126C18.9282 24.5551 19.2162 24.8339 19.57 24.8339C19.9238 24.8339 20.2119 24.5551 20.2119 24.2126V15.9879C20.2119 15.8221 20.1449 15.6666 20.0241 15.549C19.9026 15.4314 19.7413 15.3672 19.57 15.3672L18.1555 15.3685C17.8017 15.3691 17.5137 15.648 17.5137 15.9905C17.5137 16.3323 17.8017 16.6105 18.1555 16.6105Z" fill="#589CE8"/>
</svg>
