<svg width="35" height="31" viewBox="0 0 35 31" fill="none" xmlns="http://www.w3.org/2000/svg">
<path d="M4.16874 13.8754H9.26398C9.63353 13.8754 9.93468 13.5784 9.93468 13.2141C9.93468 12.8497 9.63353 12.5527 9.26398 12.5527H4.16874C3.79919 12.5527 3.49805 12.8497 3.49805 13.2141C3.49805 13.5784 3.79852 13.8754 4.16874 13.8754Z" fill="#589CE8"/>
<path d="M4.16874 17.9144H9.26398C9.63353 17.9144 9.93468 17.6175 9.93468 17.2531C9.93468 16.8887 9.63353 16.5918 9.26398 16.5918H4.16874C3.79919 16.5918 3.49805 16.8887 3.49805 17.2531C3.49805 17.6175 3.79852 17.9144 4.16874 17.9144Z" fill="#589CE8"/>
<path d="M4.16874 21.9476H19.7851C20.1547 21.9476 20.4558 21.6507 20.4558 21.2863C20.4558 20.9219 20.1547 20.625 19.7851 20.625H4.16874C3.79919 20.625 3.49805 20.9219 3.49805 21.2863C3.49805 21.6507 3.79852 21.9476 4.16874 21.9476Z" fill="#589CE8"/>
<path d="M30.8945 4.4502H15.2781C14.9086 4.4502 14.6074 4.74713 14.6074 5.11152C14.6074 5.4759 14.9086 5.77284 15.2781 5.77284H30.8945C31.2641 5.77284 31.5652 5.4759 31.5652 5.11152C31.5652 4.74713 31.2647 4.4502 30.8945 4.4502Z" fill="#589CE8"/>
<path d="M30.8945 8.4873H15.2781C14.9086 8.4873 14.6074 8.78424 14.6074 9.14863C14.6074 9.51301 14.9086 9.80995 15.2781 9.80995H30.8945C31.2641 9.80995 31.5652 9.51301 31.5652 9.14863C31.5652 8.78424 31.2647 8.4873 30.8945 8.4873Z" fill="#589CE8"/>
<path d="M23.0863 12.5244H15.2781C14.9086 12.5244 14.6074 12.8213 14.6074 13.1857C14.6074 13.5501 14.9086 13.8471 15.2781 13.8471H23.0863C23.4559 13.8471 23.757 13.5501 23.757 13.1857C23.757 12.8213 23.4565 12.5244 23.0863 12.5244Z" fill="#589CE8"/>
<path d="M30.9177 0.388672H15.2551C13.0767 0.388672 11.3047 2.13588 11.3047 4.28385V14.0152C11.3047 16.1632 13.0767 17.9104 15.2551 17.9104H25.1605C25.404 17.9104 25.6407 17.9957 25.8272 18.1498L30.8829 22.3439C31.1042 22.5277 31.3832 22.6282 31.6682 22.6282C31.9077 22.6282 32.1417 22.5581 32.3443 22.4259C32.7997 22.1276 32.9975 21.5814 32.8359 21.0662L31.8131 17.8092C33.5945 17.4031 34.8681 15.8358 34.8681 14.0145V4.28385C34.8681 2.13588 33.0961 0.388672 30.9177 0.388672ZM31.2739 16.5639C30.9721 16.6043 30.7051 16.7729 30.5415 17.0249C30.3792 17.2755 30.3376 17.5823 30.4268 17.8667L31.4328 21.0721L26.6904 17.1379C26.2625 16.7828 25.7192 16.5877 25.1598 16.5877H15.2551C13.8164 16.5877 12.6461 15.4337 12.6461 14.0152V4.28385C12.6461 2.86532 13.8164 1.71131 15.2551 1.71131H30.9177C32.3564 1.71131 33.5267 2.86532 33.5267 4.28385V14.0145C33.5267 15.2955 32.5582 16.3913 31.2739 16.5639Z" fill="#589CE8"/>
<path d="M23.0861 18.5906C22.7165 18.5906 22.4154 18.8875 22.4154 19.2519V22.1161C22.4154 23.5346 21.245 24.6886 19.8064 24.6886H10.2135C9.45293 24.6886 8.71316 24.9545 8.13167 25.4372L3.62797 29.173L4.76681 25.545C4.82918 25.346 4.79229 25.1264 4.66687 24.9584C4.54213 24.7905 4.34092 24.6893 4.12965 24.688C2.69906 24.6814 1.53474 23.5273 1.53474 22.1161V12.3854C1.53474 10.9669 2.7051 9.81288 4.14373 9.81288H9.96132C10.3309 9.81288 10.632 9.51594 10.632 9.15155C10.632 8.78717 10.3309 8.49023 9.96132 8.49023H4.14373C1.96533 8.49023 0.193359 10.2374 0.193359 12.3854V22.1161C0.193359 23.9354 1.467 25.5021 3.24836 25.9101L2.22556 29.1677C2.06392 29.6829 2.2611 30.2292 2.71717 30.5274C2.91972 30.6597 3.15379 30.7298 3.39323 30.7298C3.67827 30.7298 3.95728 30.6286 4.17861 30.4454L8.99485 26.4497C9.33556 26.1673 9.76816 26.0113 10.2135 26.0113H19.8064C21.9848 26.0113 23.7568 24.2641 23.7568 22.1161V19.2519C23.7568 18.8875 23.4563 18.5906 23.0861 18.5906Z" fill="#589CE8"/>
</svg>
