<svg width="26" height="20" viewBox="0 0 26 20" fill="none" xmlns="http://www.w3.org/2000/svg">
<path d="M18.3401 7C18.3401 3.21875 14.301 0.125 9.40261 0.125C4.4612 0.125 0.465111 3.21875 0.465111 7C0.465111 8.50391 1.06667 9.83594 2.09792 10.9531C1.49636 12.2852 0.551048 13.3164 0.551048 13.3164C0.465111 13.4023 0.422142 13.5742 0.465111 13.7031C0.551048 13.832 0.636986 13.875 0.808861 13.875C2.35574 13.875 3.6448 13.3594 4.59011 12.8008C5.96511 13.4883 7.64089 13.875 9.40261 13.875C14.301 13.875 18.3401 10.8242 18.3401 7ZM23.5823 16.4531C24.5706 15.3359 25.2151 14.0039 25.2151 12.5C25.2151 9.66406 22.8948 7.17188 19.6292 6.14062C19.6721 6.44141 19.7151 6.74219 19.7151 7C19.7151 11.5547 15.0745 15.25 9.40261 15.25C8.92995 15.25 8.4573 15.25 8.02761 15.207C9.35964 17.6562 12.5393 19.375 16.2776 19.375C18.0393 19.375 19.6721 18.9883 21.0471 18.3008C21.9925 18.8594 23.2815 19.375 24.8714 19.375C25.0003 19.375 25.1292 19.332 25.1721 19.2031C25.2151 19.0742 25.2151 18.9023 25.0862 18.8164C25.0862 18.8164 24.1409 17.7852 23.5823 16.4531Z" fill="#589CE8"/>
</svg>
