<svg width="20" height="20" viewBox="0 0 20 20" fill="none" xmlns="http://www.w3.org/2000/svg">
<g clip-path="url(#clip0)">
<path d="M18.8281 13.0316V4.98591L19.6191 4.6905C19.8477 4.6052 19.9995 4.38685 20 4.14271C20.0005 3.89857 19.8494 3.67976 19.6211 3.59354L10.2071 0.0388565C10.0735 -0.0116501 9.92645 -0.0116501 9.79309 0.0388565L0.379029 3.59354C0.150453 3.67976 -0.000456727 3.89857 1.03854e-06 4.14271C0.000458804 4.38685 0.152284 4.6052 0.381013 4.6905L3.55469 5.8758V10.1475C3.55469 10.3871 3.70056 10.6025 3.92304 10.6915C5.86441 11.4681 7.90909 11.8618 10 11.8618C12.0909 11.8618 14.1356 11.4681 16.077 10.6915C16.2994 10.6025 16.4453 10.3871 16.4453 10.1475V5.8758L17.6563 5.42353V13.0316C16.9743 13.2734 16.4844 13.9247 16.4844 14.6885C16.4844 15.1383 16.6545 15.5491 16.9334 15.8604C16.6545 16.1717 16.4844 16.5824 16.4844 17.0323V19.4151C16.4844 19.7387 16.7467 20.001 17.0703 20.001H19.4141C19.7377 20.001 20 19.7387 20 19.4151V17.0323C20 16.5824 19.8299 16.1717 19.5509 15.8604C19.83 15.5491 20 15.1383 20 14.6885C20 13.9247 19.5102 13.2734 18.8281 13.0316ZM10 1.21333L17.7473 4.13859C17.4043 4.26676 10.3416 6.90424 10 7.03181C9.74197 6.93552 2.80869 4.34626 2.25266 4.13859L10 1.21333ZM15.2734 9.74543C11.8576 11.0115 8.1424 11.0115 4.72656 9.74543V6.31342L9.79508 8.20628C9.92722 8.25556 10.0728 8.25556 10.2051 8.20628L15.2734 6.31342V9.74543ZM18.2422 14.1026C18.5652 14.1026 18.8281 14.3655 18.8281 14.6885C18.8281 15.0117 18.5652 15.2745 18.2422 15.2745C17.9192 15.2745 17.6563 15.0117 17.6563 14.6885C17.6563 14.3655 17.9192 14.1026 18.2422 14.1026ZM18.8281 18.8291H17.6563V17.0323C17.6563 16.7092 17.9192 16.4463 18.2422 16.4463C18.5652 16.4463 18.8281 16.7092 18.8281 17.0323V18.8291Z" fill="#505E78"/>
<path d="M10.5859 4.14062C10.5859 4.46426 10.3236 4.72656 10 4.72656C9.67636 4.72656 9.41406 4.46426 9.41406 4.14062C9.41406 3.81699 9.67636 3.55469 10 3.55469C10.3236 3.55469 10.5859 3.81699 10.5859 4.14062Z" fill="#505E78"/>
</g>
<defs>
<clipPath id="clip0">
<rect width="20" height="20" fill="white"/>
</clipPath>
</defs>
</svg>
