<svg width="21" height="14" viewBox="0 0 21 14" fill="none" xmlns="http://www.w3.org/2000/svg">
<path d="M20.1094 6.38281C18.2109 2.65625 14.4141 0.125 10.125 0.125C5.80078 0.125 2.00391 2.65625 0.105469 6.38281C0.0351562 6.52344 0 6.73438 0 6.91016C0 7.05078 0.0351562 7.26172 0.105469 7.40234C2.00391 11.1289 5.80078 13.625 10.125 13.625C14.4141 13.625 18.2109 11.1289 20.1094 7.40234C20.1797 7.26172 20.2148 7.05078 20.2148 6.875C20.2148 6.73438 20.1797 6.52344 20.1094 6.38281ZM10.125 11.9375C7.3125 11.9375 5.0625 9.6875 5.0625 6.875C5.0625 4.09766 7.3125 1.8125 10.125 1.8125C12.9023 1.8125 15.1875 4.09766 15.1875 6.875V6.91016C15.1875 9.6875 12.9023 11.9375 10.125 11.9375ZM10.125 3.5C9.84375 3.53516 9.45703 3.57031 9.21094 3.64062C9.38672 3.88672 9.5625 4.34375 9.5625 4.66016C9.5625 5.57422 8.78906 6.3125 7.875 6.3125C7.55859 6.3125 7.10156 6.17188 6.85547 5.99609C6.78516 6.24219 6.75 6.62891 6.75 6.875C6.75 8.73828 8.26172 10.25 10.125 10.25C11.9883 10.25 13.5 8.73828 13.5 6.875C13.5 5.01172 11.9883 3.5 10.125 3.5Z" fill="#C2C5CC"/>
</svg>
