<svg width="33" height="33" viewBox="0 0 33 33" fill="none" xmlns="http://www.w3.org/2000/svg">
<path d="M24.2614 23.0205C23.8496 23.0205 23.5145 22.6949 23.5145 22.2945C23.5145 21.8942 23.8496 21.5683 24.2614 21.5683C24.5261 21.5683 24.8054 21.6996 25.0692 21.9479C25.3658 22.2267 25.8386 22.2191 26.1255 21.9311C26.4124 21.6429 26.4046 21.1833 26.1083 20.9044C25.7292 20.5478 25.3497 20.3461 25.0083 20.236V19.3903C25.0083 18.9892 24.6738 18.6641 24.2614 18.6641C23.849 18.6641 23.5145 18.9892 23.5145 19.3903V20.2411C22.645 20.5407 22.0204 21.3478 22.0204 22.2945C22.0204 23.4955 23.0256 24.4728 24.2614 24.4728C24.6732 24.4728 25.0083 24.7985 25.0083 25.1988C25.0083 25.5991 24.6732 25.9248 24.2614 25.9248C23.9424 25.9248 23.5977 25.7299 23.2915 25.3755C23.0259 25.0685 22.5548 25.0291 22.239 25.287C21.9232 25.5452 21.8824 26.0031 22.1479 26.31C22.5472 26.7716 23.0168 27.0933 23.5145 27.2556V28.103C23.5145 28.5042 23.849 28.829 24.2614 28.829C24.6738 28.829 25.0083 28.5042 25.0083 28.103V27.2522C25.8777 26.9523 26.5023 26.1452 26.5023 25.1988C26.5023 23.9976 25.4971 23.0205 24.2614 23.0205Z" fill="#589CE8"/>
<path d="M25.0423 15.3923C22.9281 15.2054 20.9561 15.7629 19.3653 16.8221C19.271 16.6834 19.1716 16.5489 19.0626 16.4227C18.236 15.4666 17.1038 14.9396 15.8746 14.9396H13.7123V13.3886C14.1767 12.8606 14.5874 12.2529 14.9346 11.5804C15.6147 11.4391 16.265 10.7584 16.6026 9.82813C17.0218 8.67295 16.8497 7.63425 16.1782 7.20873C16.4428 5.69481 16.0051 3.94613 15.0273 2.62608C13.9115 1.11914 12.1855 0.289062 10.1675 0.289062C8.14909 0.289062 6.42249 1.11914 5.30621 2.62633C4.33108 3.94302 3.89117 5.68549 4.15 7.19268C3.46245 7.60552 3.27285 8.67295 3.69199 9.82812C4.04402 10.7977 4.6863 11.465 5.37918 11.5872C5.70991 12.2332 6.08377 12.9082 6.65469 13.4906V14.9396H4.46422C3.21693 14.9396 2.07509 15.4666 1.24854 16.4227C0.487494 17.3038 0.0683594 18.4701 0.0683594 19.7057V23.747C0.0683594 24.4735 0.674252 25.0624 1.42166 25.0624H15.7208C16.3717 29.0698 19.9307 32.1374 24.2364 32.1374C29.325 32.1374 33.3852 27.8575 32.8148 22.799C32.3735 18.8853 29.0761 15.749 25.0423 15.3923ZM6.52261 3.47686C7.10791 2.6869 8.21566 1.74526 10.1697 1.74526C12.1226 1.74526 13.2309 2.6869 13.8162 3.4766C14.7535 4.74282 14.8696 6.19979 14.6822 7.09458C14.2518 7.1919 13.8263 7.24134 13.4162 7.24134C10.2096 7.24134 8.65982 4.27225 8.59592 4.14594C8.46917 3.89513 8.2114 3.73906 7.92381 3.73906C7.88813 3.73906 7.85191 3.74165 7.8157 3.74682C7.49189 3.79238 7.23839 4.03361 7.1846 4.34628C7.18087 4.3688 6.75535 6.55388 5.64813 7.04902C5.47291 6.14854 5.60019 4.72185 6.52261 3.47686ZM6.51462 10.5234C6.42781 10.3318 6.25899 10.1858 6.05289 10.1232C5.98046 10.1012 5.90536 10.0901 5.82974 10.0901C5.75305 10.0901 5.67796 10.1015 5.60499 10.1237C5.4825 10.0298 5.26361 9.78258 5.10438 9.34411C4.97922 8.99831 4.96484 8.73585 4.9723 8.58573C5.01437 8.58754 5.05644 8.58832 5.09799 8.58832C6.93057 8.58832 7.86843 6.89322 8.1917 6.14726C8.49048 6.4972 8.81322 6.81789 9.15194 7.10261C10.4115 8.16072 11.8468 8.69728 13.4173 8.69728C13.9493 8.69728 14.7748 8.63465 15.3356 8.51843C15.3532 8.71022 15.3282 9.00736 15.2062 9.34411C15.0406 9.79966 14.8121 10.0422 14.7008 10.1268C14.6369 10.1097 14.5709 10.1012 14.5043 10.1012C14.4207 10.1012 14.3387 10.1147 14.2598 10.1411C14.0644 10.2065 13.9036 10.3497 13.8199 10.5337C13.1036 12.1007 11.7179 13.9301 10.1692 13.9301C8.61829 13.9301 7.23093 12.095 6.51462 10.5234ZM12.2107 15.9884C12.2107 17.0817 11.2662 17.91 10.1414 17.91C9.02347 17.91 8.15002 17.091 8.1395 16.0075V14.7936C8.73759 15.1767 9.44058 15.3858 10.1409 15.3858C10.846 15.3858 11.5309 15.1715 12.2275 14.7315V15.9884H12.2107V15.9884ZM1.55317 23.747V19.7057C1.55317 18.0725 2.64175 16.3828 4.46422 16.3828H6.80494C7.00216 18.0114 8.40422 19.2307 10.1414 19.2307C11.8787 19.2307 13.3367 18.0114 13.5422 16.3828H15.8746C16.9468 16.3828 17.7314 16.9566 18.2042 17.7508C16.6018 19.2741 15.6044 21.3962 15.6044 23.747V23.747H1.55317ZM24.5206 30.8624C20.8119 30.9988 17.6931 28.4528 17.0408 25.0624C16.9587 24.6356 16.9108 24.197 16.9108 23.747V23.747C16.9108 21.9744 17.5813 20.3568 18.6837 19.1105C19.0554 18.6904 19.4773 18.3151 19.9393 17.9888C21.1472 17.1356 22.6289 16.6264 24.2364 16.6264C28.4037 16.6264 31.7583 20.0088 31.553 24.1032C31.3704 27.7468 28.2708 30.7244 24.5206 30.8624Z" fill="#589CE8"/>
</svg>
