<svg width="18" height="18" viewBox="0 0 18 18" fill="none" xmlns="http://www.w3.org/2000/svg">
<path fill-rule="evenodd" clip-rule="evenodd" d="M8.3318 0C8.07297 0 7.7446 0.0657458 7.48611 0.32639C7.22762 0.587034 7.16242 0.918133 7.16242 1.17912V11.965L2.73073 7.49634L2.71468 7.48195C2.52662 7.3134 2.25423 7.14841 1.90937 7.14841C1.55445 7.14841 1.2787 7.32248 1.09109 7.51165L0.345049 8.26391L0.33078 8.2801C0.163618 8.46972 0 8.74439 0 9.09212C0 9.44999 0.172628 9.72804 0.360236 9.91721L0.361471 9.91846L8.02221 17.6062C8.18979 17.7899 8.46398 18 8.8434 18C9.22282 18 9.49701 17.7899 9.66459 17.6062L17.3253 9.91846L17.3266 9.91721C17.5142 9.72804 17.6868 9.44999 17.6868 9.09212C17.6868 8.74439 17.5232 8.46972 17.356 8.2801L17.3417 8.26391L16.5957 7.51165C16.4081 7.32248 16.1323 7.14841 15.7774 7.14841C15.4326 7.14841 15.1602 7.3134 14.9721 7.48195L14.9561 7.49634L10.5244 11.965V1.17912C10.5244 0.918133 10.4592 0.587034 10.2007 0.32639C9.94219 0.0657458 9.61383 0 9.355 0H8.3318Z" fill="#589CE8"/>
</svg>
