<svg width="85" height="85" viewBox="0 0 85 85" fill="none" xmlns="http://www.w3.org/2000/svg">
<g filter="url(#filter0_d)">
<circle cx="42.8579" cy="39.0571" r="38.0571" fill="#589CE8"/>
</g>
<circle cx="42.8583" cy="39.0575" r="26.4286" fill="white"/>
<g clip-path="url(#clip0)">
<path d="M27.0664 39.5981V52.6803C27.0664 53.8838 28.0454 54.8606 29.2468 54.8606H40.1486V39.5981H27.0664Z" fill="#5B6880"/>
<path d="M57.5921 30.8767H50.6934C51.1884 30.5388 51.6135 30.203 51.9101 29.9021C53.6696 28.1338 53.6696 25.2558 51.9101 23.4875C50.2007 21.765 47.2223 21.7694 45.5151 23.4875C44.5688 24.4359 42.0614 28.2974 42.4081 30.8767H42.2511C42.5956 28.2974 40.0882 24.4359 39.1441 23.4875C37.4347 21.7694 34.4563 21.7694 32.7491 23.4875C30.9917 25.2558 30.9917 28.1338 32.7469 29.9021C33.0456 30.203 33.4708 30.5388 33.9657 30.8767H27.0671C25.8657 30.8767 24.8867 31.8557 24.8867 33.0571V36.3276C24.8867 36.9294 25.3751 37.4178 25.9769 37.4178H40.1492V33.0571H44.5099V37.4178H58.6823C59.284 37.4178 59.7724 36.9294 59.7724 36.3276V33.0571C59.7724 31.8557 58.7956 30.8767 57.5921 30.8767ZM40.0206 30.8048C40.0206 30.8048 39.929 30.8767 39.6172 30.8767C38.1106 30.8767 35.2347 29.3112 34.295 28.365C33.3814 27.4448 33.3814 25.9448 34.295 25.0246C34.7376 24.5799 35.3241 24.3357 35.9477 24.3357C36.5691 24.3357 37.1556 24.5799 37.5982 25.0246C39.0678 26.5029 40.5286 30.2793 40.0206 30.8048ZM45.0398 30.8767C44.7302 30.8767 44.6386 30.807 44.6386 30.8048C44.1306 30.2793 45.5914 26.5029 47.061 25.0246C47.9396 24.1372 49.4768 24.1329 50.3642 25.0246C51.2799 25.9448 51.2799 27.4448 50.3642 28.365C49.4245 29.3112 46.5486 30.8767 45.0398 30.8767Z" fill="#5B6880"/>
<path d="M44.5098 39.5981V54.8606H55.4116C56.6151 54.8606 57.5919 53.8838 57.5919 52.6803V39.5981H44.5098Z" fill="#5B6880"/>
</g>
<defs>
<filter id="filter0_d" x="0.800781" y="0" width="84.1143" height="84.1143" filterUnits="userSpaceOnUse" color-interpolation-filters="sRGB">
<feFlood flood-opacity="0" result="BackgroundImageFix"/>
<feColorMatrix in="SourceAlpha" type="matrix" values="0 0 0 0 0 0 0 0 0 0 0 0 0 0 0 0 0 0 127 0"/>
<feOffset dy="3"/>
<feGaussianBlur stdDeviation="2"/>
<feColorMatrix type="matrix" values="0 0 0 0 0.206667 0 0 0 0 0.235 0 0 0 0 0.266667 0 0 0 0.5 0"/>
<feBlend mode="normal" in2="BackgroundImageFix" result="effect1_dropShadow"/>
<feBlend mode="normal" in="SourceGraphic" in2="effect1_dropShadow" result="shape"/>
</filter>
<clipPath id="clip0">
<rect x="24.8867" y="21.0859" width="34.8857" height="34.8857" fill="white"/>
</clipPath>
</defs>
</svg>
