<svg width="36" height="35" viewBox="0 0 36 35" fill="none" xmlns="http://www.w3.org/2000/svg">
<g clip-path="url(#clip0)">
<path d="M3.06641 18.5981V31.6803C3.06641 32.8838 4.04539 33.8606 5.24676 33.8606H16.1486V18.5981H3.06641Z" fill="#5B6880"/>
<path d="M33.5921 9.87672H26.6934C27.1884 9.53877 27.6135 9.20299 27.9101 8.9021C29.6696 7.13383 29.6696 4.25576 27.9101 2.48749C26.2007 0.76501 23.2223 0.769371 21.5151 2.48749C20.5688 3.43595 18.0614 7.29736 18.4081 9.87672H18.2511C18.5956 7.29736 16.0882 3.43595 15.1441 2.48749C13.4347 0.769371 10.4563 0.769371 8.74909 2.48749C6.99172 4.25576 6.99172 7.13383 8.74691 8.9021C9.04562 9.20299 9.47079 9.53877 9.96573 9.87672H3.06708C1.8657 9.87672 0.886719 10.8557 0.886719 12.0571V15.3276C0.886719 15.9294 1.37512 16.4178 1.9769 16.4178H16.1492V12.0571H20.5099V16.4178H34.6823C35.284 16.4178 35.7724 15.9294 35.7724 15.3276V12.0571C35.7724 10.8557 34.7956 9.87672 33.5921 9.87672ZM16.0206 9.80477C16.0206 9.80477 15.929 9.87672 15.6172 9.87672C14.1106 9.87672 11.2347 8.31123 10.295 7.36495C9.38139 6.44484 9.38139 4.94476 10.295 4.02464C10.7376 3.57985 11.3241 3.33565 11.9477 3.33565C12.5691 3.33565 13.1556 3.57985 13.5982 4.02464C15.0678 5.50293 16.5286 9.27931 16.0206 9.80477ZM21.0398 9.87672C20.7302 9.87672 20.6386 9.80695 20.6386 9.80477C20.1306 9.27931 21.5914 5.50293 23.061 4.02464C23.9396 3.13724 25.4768 3.13288 26.3642 4.02464C27.2799 4.94476 27.2799 6.44484 26.3642 7.36495C25.4245 8.31123 22.5486 9.87672 21.0398 9.87672Z" fill="#5B6880"/>
<path d="M20.5098 18.5981V33.8606H31.4116C32.6151 33.8606 33.5919 32.8838 33.5919 31.6803V18.5981H20.5098Z" fill="#5B6880"/>
</g>
<defs>
<clipPath id="clip0">
<rect x="0.886719" y="0.0859375" width="34.8857" height="34.8857" fill="white"/>
</clipPath>
</defs>
</svg>
