<svg width="26" height="26" viewBox="0 0 26 26" fill="none" xmlns="http://www.w3.org/2000/svg">
<path fill-rule="evenodd" clip-rule="evenodd" d="M0 13C0 5.83165 5.83165 0 13 0C20.1684 0 26 5.83165 26 13C26 20.1684 20.1684 26 13 26C5.83165 26 0 20.1684 0 13ZM2.16667 13C2.16667 18.9734 7.02659 23.8333 13 23.8333C18.9734 23.8333 23.8333 18.9734 23.8333 13C23.8333 7.02659 18.9734 2.16667 13 2.16667C7.02659 2.16667 2.16667 7.02659 2.16667 13ZM13.0011 18.9581C14.3346 18.9581 15.6195 18.4744 16.6201 17.5969L17.4336 16.8826L18.8629 18.5106L18.0488 19.2252C16.6537 20.4497 14.8612 21.1247 13.0011 21.1247C11.1404 21.1247 9.34959 20.4518 7.95812 19.2305L7.14403 18.5162L8.57358 16.8881L9.38767 17.6025C10.3837 18.4765 11.667 18.9581 13.0011 18.9581ZM7.58319 11.925C7.58319 11.6212 7.82943 11.375 8.13319 11.375H9.19982C9.50357 11.375 9.74982 11.6212 9.74982 11.925V12.9901C9.74982 13.2939 9.50357 13.5401 9.19982 13.5401H8.13319C7.82943 13.5401 7.58319 13.2939 7.58319 12.9901V11.925ZM16.8001 11.375C16.4964 11.375 16.2501 11.6212 16.2501 11.925V12.9901C16.2501 13.2939 16.4964 13.5401 16.8001 13.5401H17.8668C18.1705 13.5401 18.4168 13.2939 18.4168 12.9901V11.925C18.4168 11.6212 18.1705 11.375 17.8668 11.375H16.8001Z" fill="#589CE8"/>
</svg>
