<svg width="14" height="11" viewBox="0 0 14 11" fill="none" xmlns="http://www.w3.org/2000/svg">
<path d="M6.81802 2.85459L2.35355 6.59508V10.6063C2.35355 10.8277 2.5234 11 2.74177 11H5.45927C5.65338 11 5.82322 10.8277 5.82322 10.6063V8.24385C5.82322 8.04698 6.01733 7.85011 6.21144 7.85011H7.7643C7.98267 7.85011 8.15251 8.04698 8.15251 8.24385V10.6063C8.15251 10.8277 8.34662 11 8.54073 11H11.2825C11.4766 11 11.6707 10.8277 11.6707 10.6063V6.57047L7.18198 2.85459C7.13345 2.80537 7.06066 2.78076 7.01213 2.78076C6.93934 2.78076 6.86655 2.80537 6.81802 2.85459ZM13.8787 5.38926L11.8648 3.69128V0.295302C11.8648 0.123043 11.7192 0 11.5737 0H10.2149C10.0451 0 9.92374 0.123043 9.92374 0.295302V2.06711L7.74003 0.246085C7.57019 0.098434 7.2305 0 6.98787 0C6.7695 0 6.42981 0.098434 6.25996 0.246085L0.121317 5.38926C0.0485269 5.43848 0 5.53691 0 5.61074C0 5.68456 0.0485269 5.75839 0.0727903 5.80761L0.70364 6.57047C0.752166 6.61969 0.84922 6.6689 0.92201 6.6689C0.970537 6.6689 1.06759 6.6443 1.11612 6.59508L6.81802 1.84564C6.86655 1.79642 6.93934 1.77181 7.01213 1.77181C7.06066 1.77181 7.13345 1.79642 7.18198 1.84564L12.8839 6.59508C12.9324 6.6443 13.0295 6.6689 13.078 6.6689C13.1508 6.6689 13.2478 6.61969 13.2964 6.57047L13.9272 5.80761C13.9515 5.75839 14 5.68456 14 5.61074C14 5.53691 13.9515 5.43848 13.8787 5.38926Z" fill="#589CE8"/>
</svg>
