<svg width="30" height="28" viewBox="0 0 30 28" fill="none" xmlns="http://www.w3.org/2000/svg">
<path fill-rule="evenodd" clip-rule="evenodd" d="M15.2612 0C7.30516 0 0.855469 6.26801 0.855469 14C0.855469 21.732 7.30516 28 15.2612 28C23.2173 28 29.667 21.732 29.667 14C29.667 6.26801 23.2173 0 15.2612 0ZM7.77185 11.5952H11.0365V21.1279H7.77185V11.5952ZM11.25 8.64657C11.2288 7.7119 10.541 7 9.42419 7C8.30737 7 7.57723 7.7119 7.57723 8.64657C7.57723 9.56188 8.28579 10.2943 9.38182 10.2943H9.40268C10.541 10.2943 11.25 9.56188 11.25 8.64657ZM19.0512 11.3711C21.1995 11.3711 22.81 12.7338 22.81 15.6619L22.8099 21.1276H19.5454V16.0276C19.5454 14.7466 19.073 13.8725 17.8911 13.8725C16.9892 13.8725 16.452 14.4618 16.216 15.0309C16.1297 15.2349 16.1085 15.5191 16.1085 15.804V21.1279H12.8435C12.8435 21.1279 12.8865 12.4897 12.8435 11.5952H16.1085V12.9454C16.5418 12.2963 17.3179 11.3711 19.0512 11.3711Z" fill="white"/>
</svg>
