<svg width="30" height="28" viewBox="0 0 30 28" fill="none" xmlns="http://www.w3.org/2000/svg">
<path fill-rule="evenodd" clip-rule="evenodd" d="M15.1187 0C7.16258 0 0.712891 6.26801 0.712891 14C0.712891 21.732 7.16258 28 15.1187 28C23.0748 28 29.5245 21.732 29.5245 14C29.5245 6.26801 23.0748 0 15.1187 0ZM11.9492 6.5788C12.7687 6.54256 13.0306 6.53369 15.1172 6.53369H15.1148C17.2021 6.53369 17.463 6.54256 18.2825 6.5788C19.1005 6.6152 19.6591 6.74105 20.1489 6.9257C20.6547 7.11625 21.0821 7.37137 21.5094 7.7867C21.9368 8.20173 22.1993 8.61831 22.3962 9.10941C22.5851 9.58417 22.7147 10.1268 22.7532 10.9216C22.79 11.7181 22.7996 11.9726 22.7996 14.0004C22.7996 16.0283 22.79 16.2821 22.7532 17.0786C22.7147 17.8732 22.5851 18.4159 22.3962 18.8908C22.1993 19.3818 21.9368 19.7984 21.5094 20.2134C21.0825 20.6287 20.6545 20.8845 20.1494 21.0752C19.6605 21.2598 19.1016 21.3857 18.2836 21.4221C17.4641 21.4583 17.203 21.4672 15.1163 21.4672C13.0298 21.4672 12.7681 21.4583 11.9485 21.4221C11.1308 21.3857 10.5723 21.2598 10.0835 21.0752C9.57845 20.8845 9.1498 20.6287 8.7229 20.2134C8.29569 19.7984 8.03318 19.3818 7.83678 18.8907C7.64694 18.4159 7.51744 17.8733 7.47983 17.0784C7.44269 16.282 7.43341 16.0283 7.43341 14.0004C7.43341 11.9726 7.44301 11.7179 7.47967 10.9215C7.51648 10.1269 7.64614 9.58417 7.83662 9.10925C8.0335 8.61831 8.29601 8.20173 8.72338 7.7867C9.15044 7.37152 9.57909 7.11641 10.0844 6.9257C10.5729 6.74105 11.1313 6.6152 11.9492 6.5788Z" fill="white"/>
<path fill-rule="evenodd" clip-rule="evenodd" d="M14.4316 7.87833C14.5654 7.87813 14.7094 7.87819 14.8648 7.87826L15.1209 7.87833C17.1723 7.87833 17.4154 7.88549 18.2255 7.92127C18.9746 7.95455 19.3812 8.0762 19.652 8.1784C20.0106 8.31374 20.2662 8.47552 20.5349 8.73685C20.8038 8.99819 20.9703 9.24708 21.1099 9.59553C21.215 9.85842 21.3404 10.2535 21.3745 10.9815C21.4113 11.7687 21.4193 12.0051 21.4193 13.9978C21.4193 15.9905 21.4113 16.2269 21.3745 17.014C21.3402 17.7421 21.215 18.1372 21.1099 18.4001C20.9706 18.7485 20.8038 18.9966 20.5349 19.2578C20.266 19.5191 20.0107 19.6809 19.652 19.8163C19.3815 19.9189 18.9746 20.0403 18.2255 20.0735C17.4156 20.1093 17.1723 20.1171 15.1209 20.1171C13.0693 20.1171 12.8262 20.1093 12.0162 20.0735C11.2671 20.0399 10.8605 19.9183 10.5896 19.8161C10.231 19.6808 9.9749 19.519 9.70599 19.2577C9.43708 18.9963 9.27061 18.748 9.13103 18.3994C9.02587 18.1365 8.90054 17.7414 8.86644 17.0134C8.82963 16.2263 8.82227 15.9899 8.82227 13.9959C8.82227 12.002 8.82963 11.7668 8.86644 10.9797C8.9007 10.2517 9.02587 9.85655 9.13103 9.59335C9.27029 9.2449 9.43708 8.99601 9.70599 8.73467C9.9749 8.47334 10.231 8.31156 10.5896 8.17591C10.8604 8.07324 11.2671 7.95191 12.0162 7.91847C12.725 7.88735 12.9997 7.87802 14.4316 7.87646V7.87833ZM19.2232 9.11848C18.7142 9.11848 18.3012 9.51935 18.3012 10.0142C18.3012 10.5088 18.7142 10.9102 19.2232 10.9102C19.7322 10.9102 20.1452 10.5088 20.1452 10.0142C20.1452 9.5195 19.7322 9.11816 19.2232 9.11816V9.11848ZM11.1774 14C11.1774 11.8825 12.944 10.1656 15.1229 10.1655C17.3019 10.1655 19.068 11.8824 19.068 14C19.068 16.1176 17.302 17.8337 15.123 17.8337C12.9441 17.8337 11.1774 16.1176 11.1774 14Z" fill="white"/>
<path fill-rule="evenodd" clip-rule="evenodd" d="M15.1177 11.5112C16.532 11.5112 17.6787 12.6255 17.6787 14.0001C17.6787 15.3746 16.532 16.4891 15.1177 16.4891C13.7032 16.4891 12.5566 15.3746 12.5566 14.0001C12.5566 12.6255 13.7032 11.5112 15.1177 11.5112V11.5112Z" fill="white"/>
</svg>
