<svg width="28" height="22" viewBox="0 0 28 22" fill="none" xmlns="http://www.w3.org/2000/svg">
<path d="M11.0472 11.1726C11.3019 11.41 11.7264 11.41 11.9811 11.1726L12.4481 10.7373C12.7452 10.4999 12.7452 10.0647 12.4481 9.82725L10.9623 8.40279L12.4481 7.01789C12.7452 6.78048 12.7452 6.34523 12.4481 6.10782L11.9811 5.67257C11.7264 5.43516 11.3019 5.43516 11.0472 5.67257L8.54272 7.96753C8.28803 8.20494 8.28803 8.6402 8.54272 8.87761L11.0472 11.1726ZM15.1224 10.7373L15.5893 11.1726C15.844 11.41 16.2685 11.41 16.5232 11.1726L19.0277 8.87761C19.2824 8.6402 19.2824 8.20494 19.0277 7.96753L16.5232 5.67257C16.2685 5.43516 15.844 5.43516 15.5893 5.67257L15.1224 6.10782C14.8252 6.34523 14.8252 6.78048 15.1224 7.01789L16.6081 8.40279L15.1224 9.82725C14.8252 10.0647 14.8252 10.4999 15.1224 10.7373ZM26.711 17.2661H16.3958C16.3534 18.0575 15.7591 18.5323 14.995 18.5323H12.4481C11.6415 18.5323 11.0048 17.8596 11.0472 17.2661H0.901845C0.519801 17.2661 0.222656 17.5826 0.222656 17.8992V18.5323C0.222656 19.9567 1.41124 21.0647 2.93941 21.0647H24.6735C26.1592 21.0647 27.3902 19.9567 27.3902 18.5323V17.8992C27.3902 17.5826 27.0506 17.2661 26.711 17.2661ZM24.6735 2.70494C24.6735 1.67617 23.7396 0.805664 22.6359 0.805664H4.97698C3.83085 0.805664 2.93941 1.67617 2.93941 2.70494V15.9999H24.6735V2.70494ZM21.9567 13.4675H5.65617V3.33804H21.9567V13.4675Z" fill="white"/>
</svg>
