<svg width="27" height="22" viewBox="0 0 27 22" fill="none" xmlns="http://www.w3.org/2000/svg">
<path d="M26.8041 11.6121L23.2019 3.80189C23.2739 3.62638 23.3144 3.43415 23.3144 3.23357C23.3144 2.3393 22.531 1.61218 21.5674 1.61218C20.982 1.61218 20.4687 1.87962 20.149 2.28915H16.119C15.7272 1.41995 14.7952 0.805664 13.71 0.805664C12.6248 0.805664 11.6927 1.41995 11.2965 2.29333H7.26647C6.94677 1.8838 6.43345 1.61636 5.84809 1.61636C4.88449 1.61636 4.101 2.34348 4.101 3.23775C4.101 3.43833 4.14152 3.62638 4.21357 3.80607L0.615831 11.6121H0.611328C0.611328 14.1487 2.95729 16.2047 5.85259 16.2047C8.74789 16.2047 11.0938 14.1487 11.0938 11.6121H11.0893L7.66722 4.18216H11.301C11.5036 4.62094 11.8368 4.99704 12.2601 5.25612V17.2828H7.01431V18.3651C7.01431 19.8528 8.32463 21.0647 9.92762 21.0647H17.4968C19.0998 21.0647 20.4101 19.8486 20.4101 18.3651V17.2828H15.1644V5.25612C15.5876 4.99286 15.9209 4.62094 16.1235 4.18216H19.7572L16.3261 11.6121V11.6163C16.3306 14.1487 18.6721 16.2047 21.5674 16.2047C24.4627 16.2047 26.8086 14.1487 26.8086 11.6121H26.8041ZM9.49986 11.6121H2.20082L5.34377 4.78809C5.50587 4.83406 5.67248 4.85913 5.84809 4.85913C6.02369 4.85913 6.1948 4.83406 6.3524 4.78809L9.49986 11.6121ZM17.9111 11.6121L21.0585 4.78809C21.2206 4.83406 21.3873 4.85913 21.5629 4.85913C21.7385 4.85913 21.9096 4.83406 22.0672 4.78809L25.2101 11.6121H17.9111Z" fill="white"/>
</svg>
