<svg width="31" height="21" viewBox="0 0 31 21" fill="none" xmlns="http://www.w3.org/2000/svg">
<path d="M30.9947 11.2017L26.732 3.10582C26.8173 2.92389 26.8652 2.72463 26.8652 2.51671C26.8652 1.58973 25.9381 0.836015 24.7979 0.836015C24.1052 0.836015 23.4978 1.11324 23.1195 1.53775H18.3506C17.8871 0.636757 16.7841 0 15.5 0C14.2159 0 13.1129 0.636757 12.644 1.54208H7.87522C7.49691 1.11757 6.88948 0.840347 6.1968 0.840347C5.05655 0.840347 4.12943 1.59406 4.12943 2.52104C4.12943 2.72896 4.17738 2.92389 4.26263 3.11015L0.00532829 11.2017H0C0 13.8311 2.77604 15.9623 6.20213 15.9623C9.62822 15.9623 12.4043 13.8311 12.4043 11.2017H12.3989L8.34943 3.5H12.6494C12.8891 3.95483 13.2834 4.34468 13.7843 4.61324V17.0798H7.57683V18.2017C7.57683 19.7438 9.12736 21 11.0242 21H19.9811C21.878 21 23.4285 19.7395 23.4285 18.2017V17.0798H17.221V4.61324C17.7219 4.34035 18.1162 3.95483 18.356 3.5H22.6559L18.5957 11.2017V11.2061C18.6011 13.8311 21.3718 15.9623 24.7979 15.9623C28.224 15.9623 31 13.8311 31 11.2017H30.9947ZM10.518 11.2017H1.88089L5.60003 4.12809C5.79185 4.17574 5.989 4.20173 6.1968 4.20173C6.40461 4.20173 6.60708 4.17574 6.79357 4.12809L10.518 11.2017ZM20.4713 11.2017L24.1958 4.12809C24.3876 4.17574 24.5847 4.20173 24.7925 4.20173C25.0003 4.20173 25.2028 4.17574 25.3893 4.12809L29.1085 11.2017H20.4713Z" fill="#F56CAE"/>
</svg>
