<svg width="22" height="30" viewBox="0 0 22 30" fill="none" xmlns="http://www.w3.org/2000/svg">
<path fill-rule="evenodd" clip-rule="evenodd" d="M0 28.6026C0 28.8918 0.222815 29.127 0.496868 29.127H21.5031C21.7772 29.127 22 28.8918 22 28.6026V4.95857C21.9996 4.81796 21.9476 4.68426 21.8566 4.58493L17.6581 0.154443C17.5612 0.0561619 17.4341 0.00125749 17.3022 0H0.496868C0.222815 0 0 0.235124 0 0.524315V28.6026ZM21.0063 28.0783H0.993736V1.04863H16.8053V4.95774C16.8053 5.24693 17.0281 5.48205 17.3022 5.48205H21.0063V28.0783ZM20.3068 4.43342H17.7987V1.78711L20.3068 4.43342ZM7.74091 3.60156C5.73428 3.60156 4.10181 5.32409 4.10181 7.44141C4.10181 8.54039 4.54173 9.53288 5.24536 10.2335C5.25739 10.2472 5.2703 10.2601 5.28445 10.2719C5.93227 10.8984 6.79497 11.2812 7.74091 11.2812C8.68684 11.2812 9.54954 10.8983 10.1974 10.2719C10.2115 10.2602 10.2244 10.2472 10.2365 10.2335C10.9401 9.53288 11.38 8.54038 11.38 7.4414C11.38 5.32412 9.74753 3.60156 7.74091 3.60156ZM7.74091 10.5702C7.04803 10.5702 6.40998 10.3181 5.90461 9.89628C6.26262 9.1815 6.96032 8.73178 7.74091 8.73178C8.52149 8.73178 9.21919 9.1815 9.5772 9.89628C9.07184 10.3181 8.43378 10.5702 7.74091 10.5702ZM7.03085 7.27146V6.99524C7.03085 6.5821 7.34937 6.246 7.74091 6.246C8.13245 6.246 8.45097 6.5821 8.45097 6.99524V7.27146C8.45097 7.6846 8.13245 8.02069 7.74091 8.02069C7.34937 8.02069 7.03085 7.6846 7.03085 7.27146ZM10.0701 9.37552C9.76141 8.85583 9.30959 8.4595 8.78078 8.23352C8.99471 7.97636 9.12487 7.63977 9.12487 7.2715V6.99528C9.12487 6.19008 8.504 5.53496 7.74091 5.53496C6.97781 5.53496 6.35694 6.19008 6.35694 6.99528V7.2715C6.35694 7.63977 6.48707 7.97636 6.70103 8.23352C6.17221 8.45954 5.72043 8.85583 5.41171 9.37552C5.01357 8.84285 4.77571 8.17091 4.77571 7.44141C4.77571 5.71622 6.1059 4.31265 7.7409 4.31265C9.37589 4.31265 10.7061 5.71622 10.7061 7.44141C10.7061 8.17091 10.4682 8.84285 10.0701 9.37552ZM17.5748 19.3779H4.3255C4.20195 19.3779 4.10181 19.2722 4.10181 19.1418V18.6448C4.10181 18.5144 4.20195 18.4087 4.3255 18.4087H17.5748C17.6983 18.4087 17.7985 18.5144 17.7985 18.6448V19.1418C17.7985 19.2722 17.6983 19.3779 17.5748 19.3779ZM4.3255 23.396H17.5748C17.6983 23.396 17.7985 23.2903 17.7985 23.16V22.6632C17.7985 22.5329 17.6983 22.4272 17.5748 22.4272H4.3255C4.20195 22.4272 4.10181 22.5329 4.10181 22.6632V23.16C4.10181 23.2903 4.20195 23.396 4.3255 23.396ZM11.429 15.3604H4.34513C4.21074 15.3604 4.10181 15.2455 4.10181 15.1038V14.6486C4.10181 14.5069 4.21074 14.3921 4.34513 14.3921H11.429C11.5634 14.3921 11.6724 14.5069 11.6724 14.6486V15.1038C11.6724 15.2455 11.5634 15.3604 11.429 15.3604Z" fill="#5362A7"/>
</svg>
