<svg width="10" height="12" viewBox="0 0 10 12" fill="none" xmlns="http://www.w3.org/2000/svg">
<path d="M8.5948 4.56867H3.20164V2.91777C3.20164 2.06385 3.80088 1.32379 4.63982 1.15301C5.77837 0.982226 6.79708 1.77921 6.79708 2.86084C6.79708 3.20241 7.0967 3.43012 7.39632 3.43012C7.69594 3.43012 7.99556 3.20241 7.99556 2.86084C7.99556 1.20994 6.49746 -0.156329 4.69974 0.0144543C3.14172 0.185237 2.00317 1.49458 2.00317 2.9747V4.56867H1.40393C1.10431 4.56867 0.804688 4.79638 0.804688 5.13795V10.8307C0.804688 11.1154 1.10431 11.4 1.40393 11.4H8.5948C8.95434 11.4 9.19404 11.1154 9.19404 10.8307V5.13795C9.19404 4.79638 8.95434 4.56867 8.5948 4.56867ZM5.5986 8.38283V9.12289C5.5986 9.46446 5.35891 9.69217 4.99936 9.69217C4.63982 9.69217 4.40012 9.46446 4.40012 9.12289V8.38283C4.04058 8.15512 3.80088 7.81355 3.80088 7.41506C3.80088 6.675 4.51997 6.16265 5.29898 6.33343C5.71845 6.44729 6.07799 6.78885 6.19784 7.18735C6.31769 7.6997 6.01807 8.15512 5.5986 8.38283Z" fill="#FFAC24"/>
</svg>
