<svg width="129" height="28" viewBox="0 0 129 28" fill="none" xmlns="http://www.w3.org/2000/svg">
<path d="M9.07189 16.0267C9.20947 16.4408 9.39292 16.8346 9.56719 17.2183L9.6314 17.3698C9.80567 17.7434 10.0625 18.0666 10.3101 18.3695L10.4019 18.4806C10.6862 18.8441 11.0164 19.1673 11.3649 19.4399C11.4016 19.4803 11.4475 19.5005 11.4934 19.5207C11.53 19.5308 11.5667 19.5409 11.6034 19.5409C11.6126 19.5409 11.6218 19.5409 11.6585 19.5308C12.0437 19.5106 12.3647 19.2279 12.6032 18.9855C12.6399 18.9451 12.6766 18.9047 12.7041 18.8643L12.7133 18.8441C12.7499 18.7634 12.7775 18.6826 12.7958 18.6018C12.8508 18.3796 12.9059 18.1272 12.86 17.8747C12.8141 17.6727 12.7316 17.491 12.6124 17.3395C12.5298 17.2183 12.4289 17.1072 12.3372 16.9962C12.1904 16.8245 12.0345 16.6427 11.9244 16.4408C11.8602 16.3297 11.8052 16.2186 11.741 16.1075C11.6401 15.9258 11.5392 15.744 11.4475 15.5622C11.3099 15.2593 11.1998 14.9462 11.0989 14.6231C11.0531 14.5322 11.0256 14.4312 11.0164 14.3302C11.0164 14.2898 11.0531 14.1485 11.0714 14.1384C11.3283 14.2091 21.3076 14.2293 22.0597 14.1687C22.0689 14.1788 22.0689 14.1889 22.0781 14.199L22.0414 14.3504C21.968 14.6938 21.8946 15.0169 21.7662 15.3401C21.6103 15.7137 21.4177 16.0772 21.1975 16.4105C21.1058 16.5518 21.0049 16.6831 20.904 16.8144C20.6564 17.1476 20.4087 17.491 20.2528 17.8949C20.2069 17.9959 20.1794 18.0969 20.1794 18.2181C20.1886 18.3695 20.2436 18.521 20.317 18.6422C20.3812 18.7836 20.4638 18.9148 20.5463 19.036C20.7298 19.2683 21.115 19.5914 21.4544 19.5308C21.8121 19.4601 22.1606 19.1572 22.3808 18.9249C22.5825 18.7129 22.7476 18.4604 22.9036 18.208C22.9678 18.0969 23.0412 17.9959 23.1054 17.8949C23.2154 17.7333 23.298 17.5516 23.3805 17.3799C23.4539 17.2284 23.5181 17.0871 23.6007 16.9558C23.7658 16.6831 23.8942 16.3802 23.9859 16.0671C24.1969 15.4107 24.3986 14.7746 24.472 14.0879C24.4995 13.9162 24.5087 13.7243 24.5179 13.5527L24.527 13.4517C24.5362 13.3002 24.5454 13.1588 24.5454 13.0074C24.5546 12.0177 24.417 11.0281 24.1235 10.089C24.0593 9.85672 23.9767 9.61436 23.885 9.3922C23.7107 8.96808 23.5273 8.55405 23.3163 8.16022C23.1971 7.94816 23.0503 7.74619 22.9127 7.55433C22.8302 7.44325 22.7476 7.33217 22.6651 7.21099C21.5736 5.57507 19.519 4.41378 17.1618 4.09063C16.1987 3.95936 15.2723 4.16132 14.4927 4.36329C13.2177 4.69653 12.0253 5.45389 10.943 6.59499C10.6312 6.91814 10.356 7.27158 10.1083 7.65531C9.83318 8.04914 9.59471 8.47326 9.38375 8.91759C9.23699 9.24073 9.11775 9.56387 8.99851 9.88702C8.94348 10.0385 8.88845 10.1799 8.83341 10.3313C8.81507 10.4121 8.8059 10.4828 8.78755 10.5535C8.75086 10.705 8.73252 10.8362 8.71418 10.9675C8.65914 11.3614 8.62245 11.7552 8.61328 12.1591V12.5832C8.61328 13.179 8.61328 13.795 8.68666 14.411C8.69583 14.6534 9.06272 16.0166 9.07189 16.0267ZM11.8419 9.28112C12.9343 7.57149 14.6752 6.59096 16.5115 6.59096C16.9426 6.59096 17.3792 6.64549 17.813 6.75657C18.7302 6.98883 19.5924 7.46344 20.3078 8.11983C20.7848 8.57425 21.1884 9.12965 21.4911 9.74564C21.6011 9.94761 22.1056 11.3008 22.1148 11.5229C21.4911 11.6138 13.7405 11.6542 11.0439 11.5734C10.8421 11.2402 11.1356 10.3818 11.8419 9.28112Z" fill="#47589F"/>
<path d="M26.8825 0.334716C26.3679 -0.138436 25.5708 -0.108235 25.0965 0.405186C24.6223 0.918606 24.6526 1.7139 25.1672 2.18706C27.8109 4.62329 29.3345 7.94542 29.4657 11.5394C29.5969 15.1232 28.3255 18.5561 25.8735 21.1836C23.4316 23.8212 20.1018 25.3413 16.4995 25.4722C12.9073 25.6031 9.46644 24.3346 6.83284 21.8883C4.18914 19.4521 2.66549 16.1299 2.53431 12.536C2.40314 8.95213 3.67453 5.51926 6.12651 2.89175C6.3485 2.65014 6.59067 2.40853 6.83284 2.18706C7.34745 1.7139 7.37772 0.918606 6.90347 0.405186C6.42922 -0.108235 5.63208 -0.138436 5.11746 0.334716C4.82484 0.606527 4.54231 0.888405 4.27996 1.17028C1.36382 4.30114 -0.149745 8.36824 0.0117015 12.6266C0.173149 16.885 1.98943 20.8313 5.11746 23.7306C8.09414 26.499 11.9386 27.999 15.9849 27.999C16.1867 27.999 16.3885 27.999 16.5903 27.989C20.8585 27.8279 24.814 26.0158 27.72 22.895C30.6362 19.7642 32.1497 15.6971 31.9883 11.4387C31.8269 7.18032 30.0106 3.23403 26.8825 0.334716Z" fill="#47589F"/>
<path d="M43.8718 18.7125C41.1018 18.9144 38.7445 16.7736 38.7445 14.0875C38.7445 11.4216 40.6065 9.36152 43.3765 9.36152C44.2754 9.36152 45.7888 9.85633 46.3941 10.3007L47.7883 7.41256C46.6326 6.47343 45.6879 6.26136 43.7159 6.0695C38.9005 5.61508 35.1582 9.61398 35.1582 14.1279C35.1582 18.6418 38.8913 22.156 43.5141 22.1459C45.3852 22.1459 46.5501 21.3279 47.7516 20.6715L46.4033 17.6926C45.7521 18.1571 45.3118 18.6115 43.8718 18.7125Z" fill="#47589F"/>
<path d="M52.9614 11.9367C49.687 11.9165 47.5957 14.2491 47.5957 17.1271C47.5957 20.0051 49.6778 22.0551 52.9614 22.0551C56.2451 22.0551 58.3272 19.995 58.3272 17.1271C58.3272 14.2592 56.2359 11.9569 52.9614 11.9367ZM55.016 17.014C55.016 18.2783 54.0749 19.2983 52.9248 19.2983C51.7691 19.2983 50.8335 18.2682 50.8335 16.9959C50.8335 15.7235 51.7691 14.6935 52.9248 14.6935C54.0804 14.6935 55.016 15.7235 55.016 16.9959V17.014Z" fill="#47589F"/>
<path d="M64.9491 12.0381C64.2337 12.0381 62.9312 12.2703 61.9681 13.26L61.959 12.2501H59.0605V21.9646H62.0599L62.069 17.0973C62.0507 15.9663 62.4267 14.6232 63.9493 14.5727C65.4719 14.5222 65.5453 15.9461 65.5453 17.0872L65.5086 21.9747H68.5996V16.6833C68.6272 13.5326 67.4256 12.0381 64.9491 12.0381Z" fill="#47589F"/>
<path d="M76.3512 13.0883C76.0302 12.4521 74.425 12.0381 73.5261 12.0381C71.0405 12.0381 68.9492 14.3102 68.9492 17.1276C68.9492 19.945 71.0497 22.2171 73.5261 22.2171C74.425 22.2171 74.9937 22.1969 75.8009 21.6415L76.3879 21.2376C76.5805 23.3683 75.2872 24.0853 74.1315 24.0853C73.3152 24.0853 71.866 23.6611 71.6458 22.9341L69.3345 24.0954C69.6922 25.7717 71.4991 27.0137 74.1315 27.0137C77.1216 27.0137 79.4514 25.4687 79.4514 21.6516V12.2804H76.3512V13.0883ZM75.2615 18.6342C74.8836 19.0513 74.3608 19.3088 73.783 19.3088C72.6273 19.3088 71.6917 18.2788 71.6917 17.0064C71.6917 15.734 72.6273 14.704 73.783 14.704C74.9387 14.704 75.8742 15.734 75.8742 17.0064C75.8742 17.6426 75.6403 18.2182 75.2615 18.6342Z" fill="#47589F"/>
<path d="M86.7627 12.048C85.3594 12.0379 84.6623 12.6236 83.7634 13.6435L83.7176 12.2903L80.599 12.3711L80.5898 21.9341L83.8643 21.9038L83.8551 17.9251C83.8368 15.7742 84.222 14.9765 85.3777 14.9563C85.8088 14.9563 86.6985 14.8452 87.1846 15.4612L88.5605 12.6539C88.0468 12.3105 87.3681 12.048 86.7627 12.048Z" fill="#47589F"/>
<path d="M95.3746 13.2095C94.4758 12.1896 93.0724 11.9775 92.3203 11.9775C89.9263 11.9775 87.9727 14.29 87.9727 17.168C87.9727 20.046 89.9355 22.1162 92.3295 22.1162C93.0724 22.1162 94.54 21.8334 95.4021 20.8034L95.3563 21.9344H98.4473V12.1896H95.3655L95.3746 13.2095ZM94.1015 18.705C93.7236 19.122 93.2008 19.3795 92.623 19.3795C91.4673 19.3795 90.5317 18.3495 90.5317 17.0771C90.5317 15.8048 91.4673 14.7747 92.623 14.7747C93.7787 14.7747 94.7142 15.8048 94.7142 17.0771C94.7142 17.7133 94.4803 18.2889 94.1015 18.705Z" fill="#47589F"/>
<path d="M105.794 11.8965C105.051 11.8965 103.592 12.3913 102.666 13.4314V12.2903H99.6484V26.7106H102.813V20.8132C103.721 21.8331 105.179 22.0351 105.922 22.0351C108.316 22.0351 110.178 19.7832 110.178 17.2889C110.178 13.9565 108.188 11.8965 105.794 11.8965ZM106.3 18.7047C105.922 19.1218 105.399 19.3793 104.822 19.3793C103.666 19.3793 102.73 18.3492 102.73 17.0769C102.73 15.8045 103.666 14.7745 104.822 14.7745C105.977 14.7745 106.913 15.8045 106.913 17.0769C106.913 17.7131 106.679 18.2887 106.3 18.7047Z" fill="#47589F"/>
<path d="M116.921 11.8965C116.178 11.8965 114.72 12.3913 113.794 13.4314V12.2903H110.785V26.7106H113.95V20.8132C114.858 21.8331 116.316 22.0351 117.059 22.0351C119.453 22.0351 121.315 19.7832 121.315 17.2889C121.315 13.9565 119.324 11.8965 116.921 11.8965ZM117.437 18.7047C117.059 19.1218 116.536 19.3793 115.958 19.3793C114.803 19.3793 113.867 18.3492 113.867 17.0769C113.867 15.8045 114.803 14.7745 115.958 14.7745C117.114 14.7745 118.05 15.8045 118.05 17.0769C118.05 17.7131 117.816 18.2887 117.437 18.7047Z" fill="#47589F"/>
<path d="M124.846 15.0272C124.846 14.5021 125.295 14.3102 125.763 14.3102C126.194 14.3102 127.405 14.6838 127.836 14.8959L128.671 12.7753C127.579 12.3107 126.423 12.0583 125.249 12.0381C123.387 12.0381 121.911 12.9368 121.874 14.9262C121.819 17.9556 125.745 17.5921 125.745 18.8948C125.745 19.3088 125.213 19.5108 124.699 19.5108C123.938 19.5108 123.241 19.329 122.498 18.6625L121.314 20.9447C122.415 21.8334 123.736 22.0555 124.965 22.0454C127.166 22.0454 129.001 21.3083 129.001 19.0967C129.001 15.6532 124.846 15.8956 124.846 15.0272Z" fill="#47589F"/>
</svg>
