<svg width="127" height="27" viewBox="0 0 127 27" fill="none" xmlns="http://www.w3.org/2000/svg">
<path d="M7.07384 14.6717C7.21143 15.0697 7.39487 15.4483 7.56914 15.8172L7.63335 15.9628C7.80762 16.322 8.06444 16.6326 8.31209 16.9239L8.40381 17.0306C8.68815 17.3801 9.01835 17.6908 9.36689 17.9529C9.40358 17.9917 9.44944 18.0111 9.49531 18.0305C9.53199 18.0402 9.56868 18.0499 9.60537 18.0499C9.61454 18.0499 9.62372 18.0499 9.66041 18.0402C10.0456 18.0208 10.3667 17.749 10.6051 17.516C10.6418 17.4772 10.6785 17.4384 10.706 17.3995L10.7152 17.3801C10.7519 17.3025 10.7794 17.2248 10.7978 17.1471C10.8528 16.9336 10.9078 16.6909 10.862 16.4482C10.8161 16.254 10.7336 16.0793 10.6143 15.9337C10.5318 15.8172 10.4309 15.7104 10.3391 15.6036C10.1924 15.4386 10.0365 15.2639 9.9264 15.0697C9.86219 14.9629 9.80716 14.8562 9.74295 14.7494C9.64206 14.5746 9.54117 14.3999 9.44944 14.2252C9.31186 13.9339 9.2018 13.633 9.1009 13.3224C9.05504 13.235 9.02752 13.1379 9.01835 13.0409C9.01835 13.002 9.05504 12.8661 9.07338 12.8564C9.33021 12.9244 19.3096 12.9438 20.0617 12.8855C20.0709 12.8952 20.0709 12.9049 20.08 12.9147L20.0433 13.0603C19.97 13.3903 19.8966 13.701 19.7682 14.0116C19.6122 14.3708 19.4196 14.7203 19.1995 15.0406C19.1078 15.1765 19.0069 15.3027 18.906 15.4289C18.6583 15.7493 18.4107 16.0793 18.2548 16.4676C18.2089 16.5647 18.1814 16.6618 18.1814 16.7783C18.1906 16.9239 18.2456 17.0695 18.319 17.186C18.3832 17.3219 18.4657 17.4481 18.5483 17.5646C18.7317 17.7878 19.1169 18.0985 19.4563 18.0402C19.814 17.9723 20.1626 17.6811 20.3827 17.4578C20.5845 17.2539 20.7496 17.0112 20.9055 16.7685C20.9697 16.6618 21.0431 16.5647 21.1073 16.4676C21.2174 16.3123 21.2999 16.1376 21.3825 15.9725C21.4559 15.8269 21.5201 15.691 21.6026 15.5648C21.7677 15.3027 21.8961 15.0115 21.9878 14.7105C22.1988 14.0796 22.4006 13.468 22.474 12.8079C22.5015 12.6428 22.5107 12.4584 22.5198 12.2934L22.529 12.1963C22.5382 12.0507 22.5473 11.9148 22.5473 11.7692C22.5565 10.8178 22.4189 9.86649 22.1254 8.96369C22.0612 8.74042 21.9787 8.50743 21.887 8.29387C21.7127 7.88615 21.5292 7.48814 21.3183 7.10955C21.199 6.90569 21.0523 6.71154 20.9147 6.5271C20.8321 6.42032 20.7496 6.31353 20.667 6.19704C19.5756 4.62442 17.521 3.50806 15.1637 3.19742C14.2006 3.07122 13.2743 3.26537 12.4946 3.45952C11.2197 3.77987 10.0273 4.50793 8.94497 5.60488C8.63312 5.91552 8.35795 6.25529 8.1103 6.62417C7.83514 7.00277 7.59666 7.41048 7.3857 7.83762C7.23894 8.14826 7.11971 8.4589 7.00047 8.76954C6.94543 8.91515 6.8904 9.05106 6.83537 9.19667C6.81702 9.27433 6.80785 9.34228 6.78951 9.41024C6.75282 9.55585 6.73447 9.68205 6.71613 9.80824C6.6611 10.1868 6.62441 10.5654 6.61523 10.9537V11.3614C6.61523 11.9342 6.61523 12.5264 6.68861 13.1185C6.69778 13.3515 7.06467 14.662 7.07384 14.6717ZM9.84385 8.18709C10.9363 6.5436 12.6771 5.601 14.5134 5.601C14.9445 5.601 15.3811 5.65342 15.815 5.7602C16.7322 5.98348 17.5944 6.43973 18.3098 7.07072C18.7867 7.50756 19.1903 8.04147 19.493 8.63363C19.6031 8.82778 20.1075 10.1286 20.1167 10.3422C19.493 10.4295 11.7425 10.4684 9.04587 10.3907C8.84408 10.0703 9.13759 9.24521 9.84385 8.18709Z" fill="white"/>
<path d="M24.4362 0.323704C23.9684 -0.13255 23.2438 -0.103428 22.8127 0.391656C22.3816 0.886741 22.4092 1.65364 22.8769 2.10989C25.2801 4.45911 26.6651 7.6626 26.7843 11.1282C26.9035 14.5841 25.7478 17.8943 23.519 20.428C21.2993 22.9714 18.2725 24.4372 14.998 24.5634C11.7327 24.6896 8.60499 23.4665 6.21105 21.1075C3.80793 18.7583 2.42293 15.5548 2.30369 12.0892C2.18445 8.63335 3.34015 5.32308 5.56899 2.78942C5.77078 2.55644 5.99091 2.32345 6.21105 2.10989C6.67883 1.65364 6.70634 0.886741 6.27525 0.391656C5.84416 -0.103428 5.11955 -0.13255 4.65177 0.323704C4.38578 0.585807 4.12896 0.857618 3.89048 1.12943C1.23971 4.14847 -0.136119 8.07031 0.0106367 12.1766C0.157392 16.2829 1.80839 20.0882 4.65177 22.884C7.35757 25.5536 10.8522 27 14.5302 27C14.7137 27 14.8971 27 15.0806 26.9903C18.9604 26.835 22.5559 25.0876 25.1975 22.0783C27.8483 19.0592 29.2241 15.1374 29.0773 11.0311C28.9306 6.92482 27.2796 3.11947 24.4362 0.323704Z" fill="white"/>
<path d="M41.8718 17.2542C39.1018 17.4483 36.7445 15.3903 36.7445 12.8081C36.7445 10.2453 38.6065 8.26501 41.3765 8.26501C42.2754 8.26501 43.7888 8.74068 44.3941 9.16781L45.7883 6.39146C44.6326 5.48866 43.6879 5.2848 41.7159 5.10036C36.9005 4.66352 33.1582 8.5077 33.1582 12.847C33.1582 17.1862 36.8913 20.5645 41.5141 20.5547C43.3852 20.5547 44.5501 19.7684 45.7516 19.1374L44.4033 16.2737C43.7521 16.7203 43.3118 17.1571 41.8718 17.2542Z" fill="white"/>
<path d="M50.9614 10.7413C47.687 10.7219 45.5957 12.9644 45.5957 15.731C45.5957 18.4977 47.6778 20.4683 50.9614 20.4683C54.2451 20.4683 56.3272 18.4879 56.3272 15.731C56.3272 12.9741 54.2359 10.7608 50.9614 10.7413ZM53.016 15.6223C53.016 16.8377 52.0749 17.8181 50.9248 17.8181C49.7691 17.8181 48.8335 16.828 48.8335 15.6048C48.8335 14.3817 49.7691 13.3915 50.9248 13.3915C52.0804 13.3915 53.016 14.3817 53.016 15.6048V15.6223Z" fill="white"/>
<path d="M62.9491 10.8369C62.2337 10.8369 60.9312 11.0602 59.9681 12.0115L59.959 11.0408H57.0605V20.3794H60.0599L60.069 15.7004C60.0507 14.6131 60.4267 13.322 61.9493 13.2735C63.4719 13.225 63.5453 14.5937 63.5453 15.6907L63.5086 20.3891H66.5996V15.3024C66.6272 12.2736 65.4256 10.8369 62.9491 10.8369Z" fill="white"/>
<path d="M74.3512 11.8465C74.0302 11.2349 72.425 10.8369 71.5261 10.8369C69.0405 10.8369 66.9492 13.0211 66.9492 15.7295C66.9492 18.4379 69.0497 20.6221 71.5261 20.6221C72.425 20.6221 72.9937 20.6027 73.8009 20.0688L74.3879 19.6805C74.5805 21.7288 73.2872 22.418 72.1315 22.418C71.3152 22.418 69.866 22.0103 69.6458 21.3113L67.3345 22.4277C67.6922 24.0392 69.4991 25.2332 72.1315 25.2332C75.1216 25.2332 77.4514 23.7479 77.4514 20.0785V11.0699H74.3512V11.8465ZM73.2615 17.1779C72.8836 17.5788 72.3608 17.8263 71.783 17.8263C70.6273 17.8263 69.6917 16.8362 69.6917 15.613C69.6917 14.3899 70.6273 13.3997 71.783 13.3997C72.9387 13.3997 73.8742 14.3899 73.8742 15.613C73.8742 16.2246 73.6403 16.7779 73.2615 17.1779Z" fill="white"/>
<path d="M84.7608 10.8458C83.3574 10.8361 82.6603 11.3992 81.7615 12.3796L81.7156 11.0788L78.5971 11.1565L78.5879 20.3495L81.8624 20.3204L81.8532 16.4956C81.8348 14.4279 82.2201 13.661 83.3758 13.6416C83.8069 13.6416 84.6966 13.5348 85.1827 14.127L86.5585 11.4283C86.0449 11.0982 85.3661 10.8458 84.7608 10.8458Z" fill="white"/>
<path d="M93.3727 11.9636C92.4738 10.9832 91.0704 10.7793 90.3183 10.7793C87.9244 10.7793 85.9707 13.0023 85.9707 15.769C85.9707 18.5356 87.9336 20.5257 90.3275 20.5257C91.0705 20.5257 92.538 20.2538 93.4002 19.2637L93.3543 20.3509H96.4454V10.9832H93.3635L93.3727 11.9636ZM92.0996 17.2465C91.7217 17.6474 91.1989 17.8949 90.621 17.8949C89.4653 17.8949 88.5297 16.9047 88.5297 15.6816C88.5297 14.4585 89.4653 13.4683 90.621 13.4683C91.7767 13.4683 92.7123 14.4585 92.7123 15.6816C92.7123 16.2932 92.4784 16.8465 92.0996 17.2465Z" fill="white"/>
<path d="M103.794 10.7002C103.051 10.7002 101.592 11.1759 100.666 12.1757V11.0788H97.6484V24.9411H100.813V19.2719C101.721 20.2524 103.179 20.4466 103.922 20.4466C106.316 20.4466 108.178 18.2818 108.178 15.884C108.178 12.6805 106.188 10.7002 103.794 10.7002ZM104.3 17.245C103.922 17.6459 103.399 17.8935 102.822 17.8935C101.666 17.8935 100.73 16.9033 100.73 15.6802C100.73 14.457 101.666 13.4668 102.822 13.4668C103.977 13.4668 104.913 14.457 104.913 15.6802C104.913 16.2917 104.679 16.8451 104.3 17.245Z" fill="white"/>
<path d="M114.919 10.7002C114.176 10.7002 112.718 11.1759 111.792 12.1757V11.0788H108.783V24.9411H111.948V19.2719C112.856 20.2524 114.314 20.4466 115.057 20.4466C117.451 20.4466 119.313 18.2818 119.313 15.884C119.313 12.6805 117.323 10.7002 114.919 10.7002ZM115.435 17.245C115.057 17.6459 114.534 17.8935 113.956 17.8935C112.801 17.8935 111.865 16.9033 111.865 15.6802C111.865 14.457 112.801 13.4668 113.956 13.4668C115.112 13.4668 116.048 14.457 116.048 15.6802C116.048 16.2917 115.814 16.8451 115.435 17.245Z" fill="white"/>
<path d="M122.844 13.7103C122.844 13.2056 123.293 13.0211 123.761 13.0211C124.192 13.0211 125.403 13.3803 125.834 13.5841L126.669 11.5456C125.577 11.099 124.421 10.8563 123.247 10.8369C121.385 10.8369 119.909 11.7009 119.872 13.6133C119.817 16.5255 123.743 16.1761 123.743 17.4283C123.743 17.8263 123.211 18.0205 122.697 18.0205C121.936 18.0205 121.239 17.8457 120.496 17.2051L119.312 19.399C120.413 20.2532 121.734 20.4668 122.963 20.4571C125.164 20.4571 126.999 19.7484 126.999 17.6225C126.999 14.3122 122.844 14.5452 122.844 13.7103Z" fill="white"/>
</svg>
