<svg width="12" height="12" viewBox="0 0 12 12" fill="none" xmlns="http://www.w3.org/2000/svg">
<path d="M8.57634 7.54718H8.03089L7.8422 7.35849C8.51459 6.57977 8.91937 5.56775 8.91937 4.4597C8.91937 1.99657 6.9228 0 4.4597 0C1.9966 0 0 1.99657 0 4.4597C0 6.92283 1.99657 8.9194 4.4597 8.9194C5.56775 8.9194 6.57977 8.51459 7.35849 7.84564L7.54718 8.03433V8.57634L10.9777 12L12 10.9777L8.57634 7.54718ZM4.4597 7.54718C2.75474 7.54718 1.37222 6.16467 1.37222 4.4597C1.37222 2.75474 2.75474 1.37222 4.4597 1.37222C6.16467 1.37222 7.54718 2.75474 7.54718 4.4597C7.54718 6.16467 6.16467 7.54718 4.4597 7.54718Z" fill="#4887CE"/>
</svg>
