<svg width="28" height="28" viewBox="0 0 28 28" fill="none" xmlns="http://www.w3.org/2000/svg">
<path fill-rule="evenodd" clip-rule="evenodd" d="M14.1871 28C21.8153 28 27.9992 21.732 27.9992 14C27.9992 6.26801 21.8153 0 14.1871 0C6.55888 0 0.375 6.26801 0.375 14C0.375 21.732 6.55888 28 14.1871 28ZM14.3803 13.2144C13.3013 13.2144 7.74219 10.0191 7.74219 10.0191V9.5201C7.74219 8.90186 8.23721 8.4001 8.84826 8.4001H19.9123C20.5239 8.4001 21.0189 8.90186 21.0189 9.5201L21.0101 10.0801C21.0101 10.0801 15.5112 13.2144 14.3803 13.2144ZM21.0101 11.7603C21.0101 11.7603 15.5631 14.7546 14.3803 14.7546C13.3013 14.7546 7.75047 11.7603 7.75103 11.7603L7.74219 18.4803C7.74219 19.0986 8.23776 19.6003 8.84826 19.6003H19.9123C20.5239 19.6003 21.0189 19.0986 21.0189 18.4803L21.0101 11.7603Z" fill="white"/>
</svg>
