<svg width="16" height="18" viewBox="0 0 16 18" fill="none" xmlns="http://www.w3.org/2000/svg">
<path d="M8.91122 0.913007V1.92101C10.2552 2.20901 11.7192 3.14501 12.1992 4.60901C12.7992 6.40901 12.2472 7.65701 13.9992 9.40901C14.5992 10.009 15.7992 11.209 15.7992 13.009C15.7992 14.209 14.8872 14.713 13.9992 14.713H1.99922C1.18322 14.737 0.199219 14.209 0.199219 13.009C0.199219 11.209 1.39922 10.009 1.99922 9.40901C3.79922 7.60901 3.19922 6.40901 3.79922 4.60901C4.30322 3.12101 5.64722 2.20901 7.08722 1.89701V0.913007C7.08722 0.409007 7.49522 0.00100679 7.97522 0.00100679C8.50322 -0.0229932 8.91122 0.385007 8.91122 0.913007ZM10.3992 15.601C10.5912 15.601 10.7352 15.769 10.6872 15.961C10.4472 17.209 9.31922 17.905 8.04722 17.929C6.77522 17.929 5.59922 17.233 5.31122 16.009C5.26322 15.841 5.35922 15.601 5.59922 15.601H10.3992Z" fill="#505E78"/>
</svg>
