<svg width="23" height="26" viewBox="0 0 23 26" fill="none" xmlns="http://www.w3.org/2000/svg">
<path d="M12.7544 1.51392V2.9557C14.6024 3.36764 16.6154 4.70644 17.2754 6.80045C18.1004 9.37506 17.3414 11.1601 19.7504 13.6661C20.5754 14.5243 22.2254 16.2407 22.2254 18.8153C22.2254 20.5317 20.9714 21.2526 19.7504 21.2526H3.25039C2.12839 21.2869 0.775391 20.5317 0.775391 18.8153C0.775391 16.2407 2.42539 14.5243 3.25039 13.6661C5.72539 11.0915 4.90039 9.37506 5.72539 6.80045C6.41839 4.67211 8.26639 3.36764 10.2464 2.92137V1.51392C10.2464 0.793026 10.8074 0.209448 11.4674 0.209448C12.1934 0.17512 12.7544 0.758698 12.7544 1.51392ZM14.8004 22.5227C15.0644 22.5227 15.2624 22.763 15.1964 23.0377C14.8664 24.8227 13.3154 25.8182 11.5664 25.8526C9.81739 25.8526 8.20039 24.8571 7.80439 23.1063C7.73839 22.866 7.87039 22.5227 8.20039 22.5227H14.8004Z" fill="#505E78"/>
</svg>
