<svg width="36" height="36" viewBox="0 0 36 36" fill="none" xmlns="http://www.w3.org/2000/svg">
<circle cx="18.3479" cy="18" r="17.551" fill="#FFAC24"/>
<path d="M17.7414 22.6744L14.0137 18.969C13.9095 18.8649 13.8574 18.7309 13.8574 18.5672C13.8574 18.4036 13.9095 18.2696 14.0137 18.1655L14.8396 17.3619C14.9437 17.2428 15.0702 17.1833 15.219 17.1833C15.3827 17.1833 15.5241 17.2428 15.6431 17.3619L18.1431 19.8619L23.5003 14.5047C23.6193 14.3857 23.7533 14.3262 23.9021 14.3262C24.0658 14.3262 24.1997 14.3857 24.3039 14.5047L25.1297 15.3083C25.2339 15.4125 25.286 15.5464 25.286 15.7101C25.286 15.8738 25.2339 16.0077 25.1297 16.1119L18.5449 22.6744C18.4408 22.7934 18.3068 22.853 18.1431 22.853C17.9794 22.853 17.8455 22.7934 17.7414 22.6744Z" fill="white"/>
</svg>
