<svg width="23" height="24" viewBox="0 0 23 24" fill="none" xmlns="http://www.w3.org/2000/svg">
<path d="M8.30761 20.8383H9.41556C9.57891 20.8383 9.73212 20.7819 9.84677 20.6789C9.95939 20.5786 10.0213 20.4451 10.0193 20.3054V19.3059C10.0132 19.0202 9.72807 18.7783 9.39527 18.7783H8.28833C8.12498 18.7783 7.97177 18.8347 7.85611 18.9377C7.74348 19.0399 7.68261 19.1733 7.68566 19.3148L7.70493 20.3197C7.70899 20.6054 7.97989 20.8383 8.30761 20.8383Z" fill="#589CE8"/>
<path d="M17.6472 3.74805L15.5754 5.57694L14.5162 4.64189L13.0957 5.89489L14.8956 7.48375C15.0762 7.64407 15.3177 7.73185 15.5754 7.73185C15.8311 7.73185 16.0726 7.64408 16.2531 7.48375L19.0666 5.00104L17.6472 3.74805Z" fill="#589CE8"/>
<path d="M20.6817 1.69993C19.4398 0.603657 17.7921 0 16.0399 0C15.974 0 15.909 0.00358599 15.8441 0.00716281L15.6533 0H1.94502C1.14451 0 0.494141 0.574997 0.494141 1.28166V22.1966C0.494141 22.9033 1.14451 23.4783 1.94502 23.4783H15.6533C16.4539 23.4783 17.1052 22.9033 17.1052 22.1966V11.5116C20.2485 11.0549 22.6074 8.61156 22.6074 5.79657C22.6074 4.2498 21.9236 2.79529 20.6817 1.69993ZM16.1617 9.44809C16.1221 9.45346 16.0815 9.45884 16.0399 9.45884C15.7436 9.45884 15.4372 9.4248 15.1024 9.35495C14.5363 9.23941 14.0046 9.01461 13.5237 8.6868C12.6664 8.10374 12.1083 7.26452 11.945 6.27663C11.9186 6.119 11.8912 5.96047 11.8953 5.76522C11.9125 4.07336 13.2305 2.62242 15.1024 2.2382C15.4372 2.16834 15.7437 2.13431 16.0399 2.13431C16.3321 2.13431 16.6385 2.16834 16.9784 2.2382C18.8686 2.62691 20.1886 4.09038 20.1886 5.79657C20.1886 7.50276 18.8686 8.96623 16.9784 9.35494C16.7491 9.40241 16.5127 9.4248 16.2712 9.43733L16.1617 9.44809ZM14.9756 17.9656V21.5983H2.62379V17.9656H14.9756ZM9.51195 5.18933H5.25973C4.6459 5.18933 4.14671 5.61117 4.14671 6.12975C4.14671 6.64832 4.6459 7.06927 5.25973 7.06927H9.63471C9.77574 7.62277 10.0142 8.15926 10.3439 8.66798H5.25973C4.6459 8.66798 4.14671 9.08982 4.14671 9.6084C4.14671 10.127 4.6459 10.5479 5.25973 10.5479L12.2625 10.5318C13.0631 11.0307 13.9985 11.3692 14.9756 11.5107V16.0856H2.62379V1.87905H11.2053C10.2557 2.7926 9.65907 3.95693 9.51195 5.18933Z" fill="#589CE8"/>
<path d="M5.25951 14.0264H10.4563C11.0701 14.0264 11.5693 13.6046 11.5693 13.086C11.5693 12.5674 11.0701 12.1465 10.4563 12.1465H5.25951C4.64567 12.1465 4.14648 12.5674 4.14648 13.086C4.14648 13.6046 4.64567 14.0264 5.25951 14.0264Z" fill="#589CE8"/>
</svg>
