<svg width="46" height="46" viewBox="0 0 46 46" fill="none" xmlns="http://www.w3.org/2000/svg">
<circle cx="22.8711" cy="23.2144" r="22.7286" fill="#4887CE"/>
<path d="M30.2039 25.0725L31.5625 19.06C31.6492 18.6264 31.3312 18.1928 30.8687 18.1928H19.5375L19.2773 16.9209C19.1906 16.6029 18.9016 16.3428 18.5836 16.3428H15.6352C15.2305 16.3428 14.9414 16.6607 14.9414 17.0365V17.499C14.9414 17.9037 15.2305 18.1928 15.6352 18.1928H17.6297L19.682 28.1365C19.1906 28.4256 18.8727 28.9459 18.8727 29.524C18.8727 30.4201 19.5953 31.1428 20.4914 31.1428C21.3586 31.1428 22.1102 30.4201 22.1102 29.524C22.1102 29.0904 21.9078 28.6857 21.6188 28.3678H27.6602C27.3711 28.6857 27.1977 29.0904 27.1977 29.524C27.1977 30.4201 27.9203 31.1428 28.8164 31.1428C29.6836 31.1428 30.4352 30.4201 30.4352 29.524C30.4352 28.8881 30.0594 28.3389 29.5102 28.0787L29.6547 27.385C29.7703 26.9514 29.4234 26.5178 28.9898 26.5178H21.243L21.0406 25.5928H29.5102C29.8281 25.5928 30.1172 25.3904 30.2039 25.0725Z" fill="white"/>
</svg>
