<svg width="26" height="20" viewBox="0 0 26 20" fill="none" xmlns="http://www.w3.org/2000/svg">
<path d="M15.9219 2.14453C17.6693 3.49089 18.543 5.10938 18.543 7C18.543 8.89062 17.6693 10.5091 15.9219 11.8555C14.1745 13.2018 12.069 13.875 9.60547 13.875C7.88672 13.875 6.29688 13.5169 4.83594 12.8008C3.60417 13.5169 2.32943 13.875 1.01172 13.875C0.954427 13.875 0.897135 13.8607 0.839844 13.832C0.782552 13.7747 0.739583 13.7174 0.710938 13.6602C0.653646 13.5169 0.667969 13.388 0.753906 13.2734C1.35547 12.7005 1.87109 11.9271 2.30078 10.9531C1.21224 9.77865 0.667969 8.46094 0.667969 7C0.667969 5.10938 1.54167 3.49089 3.28906 2.14453C5.03646 0.798177 7.14193 0.125 9.60547 0.125C12.069 0.125 14.1745 0.798177 15.9219 2.14453ZM23.7852 16.4531C24.2148 17.4271 24.7305 18.2005 25.332 18.7734C25.418 18.888 25.4323 19.0169 25.375 19.1602C25.3177 19.3034 25.2174 19.375 25.0742 19.375C23.7565 19.375 22.4818 19.0169 21.25 18.3008C19.7891 19.0169 18.1992 19.375 16.4805 19.375C14.6471 19.375 12.9857 18.9883 11.4961 18.2148C10.0065 17.4414 8.91797 16.4245 8.23047 15.1641C8.74609 15.2214 9.20443 15.25 9.60547 15.25C12.4414 15.25 14.862 14.4479 16.8672 12.8438C18.901 11.2109 19.918 9.26302 19.918 7C19.918 6.6849 19.9036 6.39844 19.875 6.14062C21.5078 6.65625 22.8398 7.5013 23.8711 8.67578C24.9023 9.82161 25.418 11.0964 25.418 12.5C25.418 13.9609 24.8737 15.2786 23.7852 16.4531Z" fill="#fff"/>
</svg>
