<svg width="20" height="20" viewBox="0 0 20 20" fill="none" xmlns="http://www.w3.org/2000/svg">
<path d="M17.5625 0.125C18.1354 0.125 18.6224 0.325521 19.0234 0.726562C19.4245 1.1276 19.625 1.61458 19.625 2.1875V17.3125C19.625 17.8854 19.4245 18.3724 19.0234 18.7734C18.6224 19.1745 18.1354 19.375 17.5625 19.375H2.4375C1.86458 19.375 1.3776 19.1745 0.976562 18.7734C0.575521 18.3724 0.375 17.8854 0.375 17.3125V2.1875C0.375 1.61458 0.575521 1.1276 0.976562 0.726562C1.3776 0.325521 1.86458 0.125 2.4375 0.125H17.5625ZM11.2461 4.37891C10.9023 4.00651 10.487 3.82031 10 3.82031C9.51302 3.82031 9.08333 4.00651 8.71094 4.37891C8.36719 4.72266 8.19531 5.13802 8.19531 5.625C8.19531 6.11198 8.36719 6.54167 8.71094 6.91406C9.08333 7.25781 9.51302 7.42969 10 7.42969C10.487 7.42969 10.9023 7.25781 11.2461 6.91406C11.6185 6.54167 11.8047 6.11198 11.8047 5.625C11.8047 5.13802 11.6185 4.72266 11.2461 4.37891ZM12.4062 14.7344V13.7031C12.4062 13.3594 12.2344 13.1875 11.8906 13.1875H11.375V8.89062C11.375 8.54688 11.2031 8.375 10.8594 8.375H8.10938C7.76562 8.375 7.59375 8.54688 7.59375 8.89062V9.92188C7.59375 10.2656 7.76562 10.4375 8.10938 10.4375H8.625V13.1875H8.10938C7.76562 13.1875 7.59375 13.3594 7.59375 13.7031V14.7344C7.59375 15.0781 7.76562 15.25 8.10938 15.25H11.8906C12.2344 15.25 12.4062 15.0781 12.4062 14.7344Z" fill="#fff"/>
</svg>
