<svg width="22" height="22" viewBox="0 0 22 22" fill="none" xmlns="http://www.w3.org/2000/svg">
<path d="M18.5195 3.23047C20.6107 5.29297 21.6562 7.79948 21.6562 10.75C21.6562 13.7005 20.6107 16.2214 18.5195 18.3125C16.457 20.375 13.9505 21.4062 11 21.4062C8.04948 21.4062 5.52865 20.375 3.4375 18.3125C1.375 16.2214 0.34375 13.7005 0.34375 10.75C0.34375 7.79948 1.375 5.29297 3.4375 3.23047C5.52865 1.13932 8.04948 0.09375 11 0.09375C13.9505 0.09375 16.457 1.13932 18.5195 3.23047ZM9.75391 16.3789L17.6602 8.47266C18.0039 8.15755 18.0039 7.84245 17.6602 7.52734L16.7148 6.53906C16.3711 6.22396 16.0417 6.22396 15.7266 6.53906L9.28125 12.9844L6.27344 9.97656C5.95833 9.66146 5.62891 9.66146 5.28516 9.97656L4.33984 10.9648C3.99609 11.2799 3.99609 11.5951 4.33984 11.9102L8.80859 16.3789C9.1237 16.7227 9.4388 16.7227 9.75391 16.3789Z" fill="#fff"/>
</svg>
