<svg width="20" height="23" viewBox="0 0 20 23" fill="none" xmlns="http://www.w3.org/2000/svg">
<path d="M13.8672 10.1602C12.8073 11.2201 11.5182 11.75 10 11.75C8.48177 11.75 7.17839 11.2201 6.08984 10.1602C5.02995 9.07161 4.5 7.76823 4.5 6.25C4.5 4.73177 5.02995 3.44271 6.08984 2.38281C7.17839 1.29427 8.48177 0.75 10 0.75C11.5182 0.75 12.8073 1.29427 13.8672 2.38281C14.9557 3.44271 15.5 4.73177 15.5 6.25C15.5 7.76823 14.9557 9.07161 13.8672 10.1602ZM13.8672 13.125C15.4427 13.125 16.7891 13.6979 17.9062 14.8438C19.0521 15.9609 19.625 17.3073 19.625 18.8828V20.6875C19.625 21.2604 19.4245 21.7474 19.0234 22.1484C18.6224 22.5495 18.1354 22.75 17.5625 22.75H2.4375C1.86458 22.75 1.3776 22.5495 0.976562 22.1484C0.575521 21.7474 0.375 21.2604 0.375 20.6875V18.8828C0.375 17.3073 0.933594 15.9609 2.05078 14.8438C3.19661 13.6979 4.55729 13.125 6.13281 13.125H6.86328C7.86589 13.5833 8.91146 13.8125 10 13.8125C11.0885 13.8125 12.1341 13.5833 13.1367 13.125H13.8672Z" fill="#589CE8"/>
</svg>
