<svg width="20" height="20" viewBox="0 0 20 20" fill="none" xmlns="http://www.w3.org/2000/svg">
<path d="M17.4026 0.125H2.27761C1.11745 0.125 0.215107 1.07031 0.215107 2.1875V17.3125C0.215107 18.4727 1.11745 19.375 2.27761 19.375H17.4026C18.5198 19.375 19.4651 18.4727 19.4651 17.3125V2.1875C19.4651 1.07031 18.5198 0.125 17.4026 0.125ZM9.84011 3.82031C10.8284 3.82031 11.6448 4.63672 11.6448 5.625C11.6448 6.65625 10.8284 7.42969 9.84011 7.42969C8.80886 7.42969 8.03542 6.65625 8.03542 5.625C8.03542 4.63672 8.80886 3.82031 9.84011 3.82031ZM12.2464 14.7344C12.2464 15.0352 11.9885 15.25 11.7307 15.25H7.94948C7.6487 15.25 7.43386 15.0352 7.43386 14.7344V13.7031C7.43386 13.4453 7.6487 13.1875 7.94948 13.1875H8.46511V10.4375H7.94948C7.6487 10.4375 7.43386 10.2227 7.43386 9.92188V8.89062C7.43386 8.63281 7.6487 8.375 7.94948 8.375H10.6995C10.9573 8.375 11.2151 8.63281 11.2151 8.89062V13.1875H11.7307C11.9885 13.1875 12.2464 13.4453 12.2464 13.7031V14.7344Z" fill="#589CE8"/>
</svg>
