<svg width="34" height="33" viewBox="0 0 34 33" fill="none" xmlns="http://www.w3.org/2000/svg">
<path d="M21.9747 6.12151C19.9142 4.12661 17.1748 3.02672 14.2611 3.02344C8.24316 3.02344 3.34766 7.76314 3.34766 13.5896C3.34766 19.416 8.24316 24.1557 14.2611 24.1557C20.2791 24.1557 25.1746 19.416 25.1746 13.5896C25.1712 10.7686 24.0345 8.11641 21.9747 6.12151ZM23.7639 14.526C23.7625 14.5325 23.7619 14.5398 23.7612 14.5476C23.7544 14.6153 23.7456 14.6829 23.7368 14.7538L23.7273 14.8248C23.7232 14.8576 23.7178 14.8904 23.713 14.9239C23.7035 14.9869 23.6934 15.0506 23.6832 15.113C23.6683 15.2017 23.6506 15.2949 23.6289 15.398C23.5489 15.7874 23.4417 16.1775 23.3095 16.5563L23.3061 16.5649C23.2749 16.6548 23.2403 16.7481 23.2003 16.8518L23.1915 16.8748C23.1772 16.9116 23.1616 16.9484 23.1447 16.9904C23.1264 17.0363 23.1067 17.083 23.0863 17.1296C23.064 17.1821 23.0409 17.234 23.0178 17.2865L23.0151 17.2924C22.1734 19.1652 20.7505 20.6808 18.9009 21.6749C18.7355 21.7636 18.5679 21.8476 18.3977 21.9258C18.3651 21.9422 18.3326 21.9566 18.2946 21.973C18.262 21.9881 18.2302 22.0019 18.1976 22.0164L18.1902 22.0197C18.1542 22.0354 18.1189 22.0505 18.0857 22.065L18.0416 22.0834C18.0104 22.0965 17.9792 22.1096 17.9467 22.1221C17.9039 22.1392 17.8612 22.1562 17.8185 22.1733L17.8076 22.1773C17.6638 22.2324 17.5207 22.2843 17.3837 22.3303C17.3356 22.346 17.2881 22.3618 17.2338 22.3789C17.1884 22.3933 17.143 22.4077 17.0982 22.4209L16.9524 22.4636C16.9042 22.4774 16.8554 22.4905 16.8079 22.5036C16.7109 22.5292 16.6133 22.5535 16.5163 22.5765L16.3725 22.6093C16.2633 22.633 16.1636 22.6533 16.0686 22.6711C15.9716 22.6888 15.8747 22.7052 15.7763 22.7203C15.7275 22.7282 15.678 22.7354 15.6278 22.742C15.5939 22.7466 15.5593 22.7518 15.526 22.7558C15.4575 22.7643 15.3884 22.7728 15.3185 22.7801C15.2798 22.784 15.2405 22.7879 15.2005 22.7912C15.092 22.8017 14.9821 22.8103 14.8729 22.8168C14.7976 22.8214 14.7223 22.8254 14.6471 22.828C14.3581 22.8392 14.0692 22.8379 13.7681 22.8234C9.20218 22.6028 5.43119 19.263 4.80111 14.8812C4.77331 14.6941 4.7516 14.4984 4.73668 14.3001C4.72719 14.1793 4.72108 14.0703 4.71701 13.9619C4.71566 13.9462 4.71566 13.9297 4.71498 13.9127C4.71362 13.8844 4.71294 13.8562 4.71227 13.8273C4.71023 13.7478 4.70887 13.6684 4.70887 13.5883C4.70887 13.4661 4.71159 13.3427 4.71633 13.2212C4.71973 13.145 4.7238 13.0695 4.72854 12.9934L4.7299 12.9783C4.88522 10.6741 5.92088 8.52157 7.64699 6.91737C9.37852 5.30858 11.652 4.39452 14.0489 4.34396H14.0604C14.1268 4.34265 14.1933 4.34199 14.2598 4.34199C14.3079 4.34199 14.3568 4.34265 14.4056 4.3433C14.4571 4.34396 14.5087 4.34527 14.5616 4.34724C14.6043 4.34856 14.6471 4.34987 14.6959 4.35184C19.2936 4.55146 23.089 7.89709 23.7205 12.3072C23.7368 12.4208 23.751 12.537 23.7646 12.6631C23.8256 13.2449 23.829 13.8352 23.7741 14.4189C23.7714 14.4557 23.768 14.4912 23.7639 14.526Z" fill="#589CE8"/>
<path d="M32.5363 27.1575L25.8599 20.6942C28.7023 16.3604 28.699 10.7888 25.8389 6.4524L25.8247 6.43139C25.6619 6.19828 25.2549 5.64737 25.1458 5.49897L25.1112 5.45169L25.1078 5.44709C22.8696 2.64851 19.64 0.855888 16.0142 0.400839C12.3857 -0.0528971 8.78841 0.884124 5.88562 3.04117C-0.121382 7.50499 -1.2574 15.8686 3.35315 21.6844C5.46174 24.3438 8.5022 26.122 11.915 26.6919C12.6956 26.8219 13.4797 26.8863 14.2596 26.8863C16.8436 26.8863 19.3836 26.1791 21.598 24.8205L28.2744 31.2844C28.8617 31.8531 29.6335 32.1374 30.4054 32.1374C31.1772 32.1374 31.949 31.8531 32.5363 31.2844C33.1054 30.7335 33.4194 30 33.4194 29.2206C33.4194 28.4412 33.106 27.709 32.5363 27.1575ZM22.1935 22.6917C22.1609 22.7199 22.1283 22.7475 22.0951 22.7744C21.8944 22.9353 21.6692 23.1021 21.4074 23.284C18.7277 25.1377 15.4628 25.8691 12.2141 25.3458C8.96543 24.8218 6.12232 23.1047 4.20838 20.5103C0.256388 15.1548 1.54162 7.68425 7.07319 3.85803C9.18788 2.3957 11.6668 1.63138 14.2142 1.63138C14.8951 1.63138 15.5815 1.68588 16.2665 1.79685C19.5152 2.32084 22.3583 4.03795 24.2722 6.63232C27.3351 10.7829 27.3351 16.3597 24.2722 20.5097C24.0857 20.7618 23.9134 20.9798 23.7459 21.1762C23.712 21.2156 23.6767 21.2543 23.6421 21.293C23.6211 21.316 23.6008 21.3384 23.5804 21.3613C23.419 21.5432 23.2481 21.7238 23.0724 21.8985C23.0053 21.9654 22.932 22.0364 22.8412 22.1224C22.6601 22.2938 22.4736 22.4586 22.2884 22.6122C22.2565 22.6378 22.2253 22.6648 22.1935 22.6917ZM22.7767 24.0128C22.8025 23.9918 22.8283 23.9715 22.8534 23.9511C22.9185 23.9012 22.9992 23.8369 23.1002 23.7541C23.2325 23.6464 23.3485 23.5493 23.457 23.4547C23.4909 23.4245 23.5241 23.3936 23.5574 23.3634C23.5818 23.3411 23.6062 23.3188 23.6313 23.2958C23.8537 23.0942 24.0735 22.8815 24.2858 22.6628C24.3082 22.6392 24.3312 22.6162 24.3536 22.5925C24.3855 22.5597 24.4173 22.5275 24.4506 22.4921C24.5482 22.3863 24.6486 22.2734 24.7571 22.1493C24.8182 22.0804 24.8813 22.0062 24.962 21.909C24.9823 21.884 25.0033 21.8597 25.0244 21.8354L26.2743 23.045L24.026 25.2217L22.7767 24.0128ZM31.557 30.3106C31.2599 30.6048 30.8625 30.7696 30.4379 30.7742C30.0133 30.7801 29.6118 30.6232 29.31 30.3369L25.0338 26.1968L27.2822 24.0201L31.5312 28.1339C32.1579 28.7275 32.1694 29.7039 31.557 30.3106Z" fill="#589CE8"/>
<path d="M12.2063 13.2059H13.1755C13.3165 13.2059 13.4318 13.0943 13.4318 12.9571V12.0194C13.4318 11.8821 13.3165 11.7705 13.1755 11.7705H12.2063C12.0645 11.7705 11.9492 11.8821 11.9492 12.0194V12.9571C11.9492 13.0943 12.0645 13.2059 12.2063 13.2059Z" fill="#589CE8"/>
<path d="M15.3059 10.954H16.2744C16.4162 10.954 16.5315 10.8424 16.5315 10.7051V9.76742C16.5315 9.63018 16.4162 9.51855 16.2744 9.51855H15.3059C15.1641 9.51855 15.0488 9.63018 15.0488 9.76742V10.7051C15.0488 10.8424 15.1641 10.954 15.3059 10.954Z" fill="#589CE8"/>
<path d="M12.2063 10.954H13.1755C13.3165 10.954 13.4318 10.8424 13.4318 10.7051V9.76742C13.4318 9.63018 13.3165 9.51855 13.1755 9.51855H12.2063C12.0645 9.51855 11.9492 9.63018 11.9492 9.76742V10.7051C11.9492 10.8424 12.0645 10.954 12.2063 10.954Z" fill="#589CE8"/>
<path d="M15.3059 15.4579H16.2744C16.4162 15.4579 16.5315 15.3463 16.5315 15.209V14.2707C16.5315 14.1341 16.4162 14.0225 16.2744 14.0225H15.3059C15.1641 14.0225 15.0488 14.1341 15.0488 14.2707V15.209C15.0488 15.3463 15.1641 15.4579 15.3059 15.4579Z" fill="#589CE8"/>
<path d="M12.2063 15.4579H13.1755C13.3165 15.4579 13.4318 15.3463 13.4318 15.209V14.2707C13.4318 14.1341 13.3165 14.0225 13.1755 14.0225H12.2063C12.0645 14.0225 11.9492 14.1341 11.9492 14.2707V15.209C11.9492 15.3463 12.0645 15.4579 12.2063 15.4579Z" fill="#589CE8"/>
<path d="M15.3059 13.2059H16.2744C16.4162 13.2059 16.5315 13.0943 16.5315 12.9571V12.0194C16.5315 11.8821 16.4162 11.7705 16.2744 11.7705H15.3059C15.1641 11.7705 15.0488 11.8821 15.0488 12.0194V12.9571C15.0488 13.0943 15.1641 13.2059 15.3059 13.2059Z" fill="#589CE8"/>
<path d="M19.3759 18.1493H18.8699V7.79652C18.8699 7.50431 18.6244 7.2666 18.3226 7.2666H10.1587C9.85687 7.2666 9.61067 7.50431 9.61067 7.79652V18.1493H9.10471C8.96296 18.1493 8.84766 18.2609 8.84766 18.3981V19.2098H19.633V18.3981C19.633 18.2609 19.5177 18.1493 19.3759 18.1493ZM17.7746 18.1263H14.9816V16.5214C14.9816 16.3848 14.8663 16.2732 14.7252 16.2732H13.756C13.6143 16.2732 13.499 16.3848 13.499 16.5214V18.1263H10.706L10.7182 8.32643L17.7746 8.35007V18.1263Z" fill="#589CE8"/>
</svg>
