<svg width="24" height="25" viewBox="0 0 24 25" fill="none" xmlns="http://www.w3.org/2000/svg">
<mask id="path-1-inside-1" fill="white">
<path fill-rule="evenodd" clip-rule="evenodd" d="M18.7352 2.38198C18.6491 2.38198 18.5635 2.35858 18.4878 2.31475C18.3736 2.24802 18.2914 2.14045 18.2568 2.01146C18.2227 1.88298 18.2405 1.74802 18.3063 1.63248L19.0998 0.250001C19.1656 0.134463 19.273 0.0517931 19.4006 0.0174304C19.4437 0.00597612 19.4867 0 19.5302 0C19.6158 0 19.7009 0.0229085 19.7771 0.0672314C19.7969 0.0786856 19.8157 0.0916339 19.8335 0.10508C19.8424 0.112052 19.8508 0.119024 19.8587 0.126495C19.86 0.12774 19.8613 0.128985 19.8627 0.13023C19.864 0.131475 19.8654 0.13272 19.8666 0.133965C19.8741 0.140439 19.881 0.147411 19.8874 0.154881C19.8938 0.160849 19.8993 0.167314 19.9047 0.173779L19.9047 0.173806C19.9097 0.178786 19.9136 0.184264 19.9176 0.189742C19.9212 0.193751 19.9243 0.198026 19.9274 0.202374C19.9286 0.203967 19.9298 0.205569 19.931 0.207172C19.9354 0.213148 19.9399 0.219623 19.9438 0.226097C19.9492 0.234046 19.9542 0.24249 19.9591 0.250936L19.9592 0.250997C19.9715 0.272412 19.9819 0.294822 19.9908 0.318229L19.9908 0.318321C19.9938 0.326258 19.9968 0.334196 19.9992 0.342133C20.0017 0.349603 20.0042 0.357073 20.0062 0.364543C20.0062 0.364792 20.0063 0.365041 20.0064 0.36529C20.0065 0.365539 20.0066 0.365788 20.0066 0.366038C20.0066 0.366287 20.0068 0.36666 20.0069 0.367034C20.007 0.367407 20.0071 0.367781 20.0071 0.36803C20.0085 0.372524 20.0094 0.376778 20.0103 0.381125C20.0107 0.383041 20.0111 0.384974 20.0116 0.386954C20.0117 0.387268 20.0118 0.38756 20.0119 0.387839C20.0123 0.388889 20.0126 0.389758 20.0126 0.390938C20.0146 0.398875 20.016 0.406813 20.0175 0.41475L20.0175 0.414843L20.0175 0.414871C20.018 0.417352 20.0185 0.419832 20.0185 0.422313C20.02 0.430779 20.0215 0.439245 20.022 0.448209C20.0222 0.449454 20.0224 0.450575 20.0225 0.451695C20.0226 0.452816 20.0227 0.453936 20.023 0.455181C20.0235 0.460659 20.024 0.466636 20.024 0.472114C20.0245 0.481576 20.025 0.491038 20.025 0.5005C20.025 0.585162 20.0037 0.67082 19.9587 0.749505L19.1656 2.13198C19.0776 2.28637 18.9123 2.38198 18.7352 2.38198ZM13.5482 2.13215C13.6362 2.28654 13.801 2.38215 13.9781 2.38215C14.0647 2.38215 14.1503 2.35875 14.2255 2.31492C14.3402 2.24819 14.4224 2.14062 14.4565 2.01164C14.4911 1.88315 14.4733 1.74819 14.407 1.63265L13.614 0.250173C13.5225 0.0903115 13.3552 0.00066965 13.1836 0.00066965C13.0995 0.00066965 13.0144 0.0220841 12.9362 0.067403C12.6997 0.204854 12.6181 0.51113 12.7546 0.749677L13.5482 2.13215ZM23.4281 14.7459C23.7972 14.3545 24 13.843 24 13.3056C24 12.1498 23.066 11.2095 21.9182 11.2095H17.6943C17.6067 11.2095 17.5256 11.1632 17.481 11.087C17.437 11.0113 17.4355 10.9172 17.4776 10.84C18.1677 9.58302 18.4487 8.49686 18.4487 7.08998V6.83898C18.4487 6.06856 18.1529 5.34246 17.6166 4.79415C17.0798 4.24584 16.364 3.93757 15.5996 3.92562L15.5798 3.92512C14.904 3.92512 14.3089 4.47144 14.2535 5.14226C14.1105 6.88181 13.2714 8.44506 11.7596 9.78919C10.5312 10.8808 9.07866 11.6597 7.69195 12.3385C7.61527 12.3759 7.52523 12.3709 7.45251 12.3256C7.38028 12.2802 7.33674 12.2001 7.33674 12.1144V11.719C7.33674 11.4436 7.11412 11.2195 6.84053 11.2195H0.496207C0.222625 11.2195 0 11.4436 0 11.719V24.4919C0 24.7673 0.222625 24.991 0.496207 24.991H5.25445C6.04749 24.991 6.76088 24.5462 7.11708 23.8296C7.16062 23.7424 7.24769 23.6916 7.33872 23.6916C7.37187 23.6916 7.40501 23.6986 7.43717 23.7126C10.1577 24.9018 12.5333 25.0004 14.9288 25.0004C15.3859 25.0004 15.8579 24.9959 16.314 24.9915H16.3214C16.8443 24.9865 17.3856 24.9815 17.953 24.9815H20.3034C21.4517 24.9815 22.3857 24.0413 22.3857 22.8854C22.3857 22.5104 22.2858 22.1423 22.0963 21.8206C22.0275 21.7036 22.0646 21.5522 22.1799 21.4815C22.8052 21.096 23.1788 20.4272 23.1788 19.6921C23.1788 19.3171 23.0788 18.9491 22.8893 18.6274C22.8206 18.5103 22.8577 18.359 22.973 18.2882C23.5983 17.9028 23.9718 17.2339 23.9718 16.4989C23.9718 15.975 23.7779 15.473 23.4251 15.0855C23.3376 14.9889 23.3391 14.841 23.4281 14.7459ZM6.34433 22.8953C6.34433 23.4999 5.85554 23.9924 5.25445 23.9924H4.41194C4.2749 23.9924 4.16458 23.8809 4.16458 23.7434V21.2987C4.16458 21.0233 3.94195 20.7992 3.66837 20.7992C3.39479 20.7992 3.17216 21.0233 3.17216 21.2987V23.7434C3.17216 23.8809 3.06135 23.9924 2.9248 23.9924H1.23978C1.10323 23.9924 0.992414 23.8809 0.992414 23.7434V12.467C0.992414 12.3295 1.10323 12.218 1.23978 12.218H6.09697C6.23351 12.218 6.34433 12.3295 6.34433 12.467V22.8953ZM20.3321 15.4018H21.8895C22.4906 15.4018 22.9794 15.8938 22.9794 16.4989C22.9794 17.104 22.4906 17.596 21.8895 17.596H20.3321C20.0585 17.596 19.8359 17.8201 19.8359 18.0955C19.8359 18.3709 20.0585 18.595 20.3321 18.595H21.0965C21.6976 18.595 22.1863 19.087 22.1863 19.6921C22.1863 20.2972 21.6976 20.7892 21.0965 20.7892H20.3034C20.0298 20.7892 19.8072 21.0133 19.8072 21.2887C19.8072 21.5641 20.0298 21.7883 20.3034 21.7883C20.9045 21.7883 21.3933 22.2803 21.3933 22.8854C21.3933 23.4904 20.9045 23.9825 20.3034 23.9825H17.953C17.4062 23.9825 16.8895 23.9874 16.3895 23.9921L16.3046 23.9929L16.2486 23.9935C15.7833 23.9978 15.3354 24.0019 14.9015 24.0019C12.2202 24.0019 10.0656 23.8455 7.48961 22.6413C7.40204 22.6005 7.34614 22.5124 7.34614 22.4152V13.7723C7.34614 13.6767 7.40056 13.5895 7.48615 13.5482L7.72411 13.4321C9.00445 12.8111 10.7582 11.96 12.2558 10.6796C14.0674 9.13033 15.0722 7.29516 15.2424 5.22443C15.2553 5.06756 15.4161 4.92413 15.5793 4.92413C16.6168 4.94007 17.4568 5.79963 17.4568 6.83948V7.08998C17.4568 8.75134 17.0051 9.77923 16.172 11.0945C16.1265 11.1662 16.0478 11.2095 15.9632 11.2095H14.7808C14.5073 11.2095 14.2846 11.4336 14.2846 11.709C14.2846 11.9844 14.5073 12.2085 14.7808 12.2085H21.9182C22.5188 12.2085 23.0081 12.7006 23.0081 13.3056C23.0081 13.9107 22.5188 14.4028 21.9182 14.4028H20.3321C20.0585 14.4028 19.8359 14.6269 19.8359 14.9023C19.8359 15.1777 20.0585 15.4018 20.3321 15.4018ZM21.116 6.5299H22.7021C22.9757 6.5299 23.1983 6.30579 23.1983 6.03039C23.1983 5.75499 22.9757 5.53089 22.7021 5.53089H21.116C20.8424 5.53089 20.6198 5.75499 20.6198 6.03039C20.6198 6.30579 20.8424 6.5299 21.116 6.5299ZM11.598 6.5299H10.0119C9.73829 6.5299 9.51566 6.30579 9.51566 6.03039C9.51566 5.75499 9.73829 5.53089 10.0119 5.53089H11.598C11.8715 5.53089 12.0942 5.75499 12.0942 6.03039C12.0942 6.30579 11.8715 6.5299 11.598 6.5299Z"/>
</mask>
<path fill-rule="evenodd" clip-rule="evenodd" d="M18.7352 2.38198C18.6491 2.38198 18.5635 2.35858 18.4878 2.31475C18.3736 2.24802 18.2914 2.14045 18.2568 2.01146C18.2227 1.88298 18.2405 1.74802 18.3063 1.63248L19.0998 0.250001C19.1656 0.134463 19.273 0.0517931 19.4006 0.0174304C19.4437 0.00597612 19.4867 0 19.5302 0C19.6158 0 19.7009 0.0229085 19.7771 0.0672314C19.7969 0.0786856 19.8157 0.0916339 19.8335 0.10508C19.8424 0.112052 19.8508 0.119024 19.8587 0.126495C19.86 0.12774 19.8613 0.128985 19.8627 0.13023C19.864 0.131475 19.8654 0.13272 19.8666 0.133965C19.8741 0.140439 19.881 0.147411 19.8874 0.154881C19.8938 0.160849 19.8993 0.167314 19.9047 0.173779L19.9047 0.173806C19.9097 0.178786 19.9136 0.184264 19.9176 0.189742C19.9212 0.193751 19.9243 0.198026 19.9274 0.202374C19.9286 0.203967 19.9298 0.205569 19.931 0.207172C19.9354 0.213148 19.9399 0.219623 19.9438 0.226097C19.9492 0.234046 19.9542 0.24249 19.9591 0.250936L19.9592 0.250997C19.9715 0.272412 19.9819 0.294822 19.9908 0.318229L19.9908 0.318321C19.9938 0.326258 19.9968 0.334196 19.9992 0.342133C20.0017 0.349603 20.0042 0.357073 20.0062 0.364543C20.0062 0.364792 20.0063 0.365041 20.0064 0.36529C20.0065 0.365539 20.0066 0.365788 20.0066 0.366038C20.0066 0.366287 20.0068 0.36666 20.0069 0.367034C20.007 0.367407 20.0071 0.367781 20.0071 0.36803C20.0085 0.372524 20.0094 0.376778 20.0103 0.381125C20.0107 0.383041 20.0111 0.384974 20.0116 0.386954C20.0117 0.387268 20.0118 0.38756 20.0119 0.387839C20.0123 0.388889 20.0126 0.389758 20.0126 0.390938C20.0146 0.398875 20.016 0.406813 20.0175 0.41475L20.0175 0.414843L20.0175 0.414871C20.018 0.417352 20.0185 0.419832 20.0185 0.422313C20.02 0.430779 20.0215 0.439245 20.022 0.448209C20.0222 0.449454 20.0224 0.450575 20.0225 0.451695C20.0226 0.452816 20.0227 0.453936 20.023 0.455181C20.0235 0.460659 20.024 0.466636 20.024 0.472114C20.0245 0.481576 20.025 0.491038 20.025 0.5005C20.025 0.585162 20.0037 0.67082 19.9587 0.749505L19.1656 2.13198C19.0776 2.28637 18.9123 2.38198 18.7352 2.38198ZM13.5482 2.13215C13.6362 2.28654 13.801 2.38215 13.9781 2.38215C14.0647 2.38215 14.1503 2.35875 14.2255 2.31492C14.3402 2.24819 14.4224 2.14062 14.4565 2.01164C14.4911 1.88315 14.4733 1.74819 14.407 1.63265L13.614 0.250173C13.5225 0.0903115 13.3552 0.00066965 13.1836 0.00066965C13.0995 0.00066965 13.0144 0.0220841 12.9362 0.067403C12.6997 0.204854 12.6181 0.51113 12.7546 0.749677L13.5482 2.13215ZM23.4281 14.7459C23.7972 14.3545 24 13.843 24 13.3056C24 12.1498 23.066 11.2095 21.9182 11.2095H17.6943C17.6067 11.2095 17.5256 11.1632 17.481 11.087C17.437 11.0113 17.4355 10.9172 17.4776 10.84C18.1677 9.58302 18.4487 8.49686 18.4487 7.08998V6.83898C18.4487 6.06856 18.1529 5.34246 17.6166 4.79415C17.0798 4.24584 16.364 3.93757 15.5996 3.92562L15.5798 3.92512C14.904 3.92512 14.3089 4.47144 14.2535 5.14226C14.1105 6.88181 13.2714 8.44506 11.7596 9.78919C10.5312 10.8808 9.07866 11.6597 7.69195 12.3385C7.61527 12.3759 7.52523 12.3709 7.45251 12.3256C7.38028 12.2802 7.33674 12.2001 7.33674 12.1144V11.719C7.33674 11.4436 7.11412 11.2195 6.84053 11.2195H0.496207C0.222625 11.2195 0 11.4436 0 11.719V24.4919C0 24.7673 0.222625 24.991 0.496207 24.991H5.25445C6.04749 24.991 6.76088 24.5462 7.11708 23.8296C7.16062 23.7424 7.24769 23.6916 7.33872 23.6916C7.37187 23.6916 7.40501 23.6986 7.43717 23.7126C10.1577 24.9018 12.5333 25.0004 14.9288 25.0004C15.3859 25.0004 15.8579 24.9959 16.314 24.9915H16.3214C16.8443 24.9865 17.3856 24.9815 17.953 24.9815H20.3034C21.4517 24.9815 22.3857 24.0413 22.3857 22.8854C22.3857 22.5104 22.2858 22.1423 22.0963 21.8206C22.0275 21.7036 22.0646 21.5522 22.1799 21.4815C22.8052 21.096 23.1788 20.4272 23.1788 19.6921C23.1788 19.3171 23.0788 18.9491 22.8893 18.6274C22.8206 18.5103 22.8577 18.359 22.973 18.2882C23.5983 17.9028 23.9718 17.2339 23.9718 16.4989C23.9718 15.975 23.7779 15.473 23.4251 15.0855C23.3376 14.9889 23.3391 14.841 23.4281 14.7459ZM6.34433 22.8953C6.34433 23.4999 5.85554 23.9924 5.25445 23.9924H4.41194C4.2749 23.9924 4.16458 23.8809 4.16458 23.7434V21.2987C4.16458 21.0233 3.94195 20.7992 3.66837 20.7992C3.39479 20.7992 3.17216 21.0233 3.17216 21.2987V23.7434C3.17216 23.8809 3.06135 23.9924 2.9248 23.9924H1.23978C1.10323 23.9924 0.992414 23.8809 0.992414 23.7434V12.467C0.992414 12.3295 1.10323 12.218 1.23978 12.218H6.09697C6.23351 12.218 6.34433 12.3295 6.34433 12.467V22.8953ZM20.3321 15.4018H21.8895C22.4906 15.4018 22.9794 15.8938 22.9794 16.4989C22.9794 17.104 22.4906 17.596 21.8895 17.596H20.3321C20.0585 17.596 19.8359 17.8201 19.8359 18.0955C19.8359 18.3709 20.0585 18.595 20.3321 18.595H21.0965C21.6976 18.595 22.1863 19.087 22.1863 19.6921C22.1863 20.2972 21.6976 20.7892 21.0965 20.7892H20.3034C20.0298 20.7892 19.8072 21.0133 19.8072 21.2887C19.8072 21.5641 20.0298 21.7883 20.3034 21.7883C20.9045 21.7883 21.3933 22.2803 21.3933 22.8854C21.3933 23.4904 20.9045 23.9825 20.3034 23.9825H17.953C17.4062 23.9825 16.8895 23.9874 16.3895 23.9921L16.3046 23.9929L16.2486 23.9935C15.7833 23.9978 15.3354 24.0019 14.9015 24.0019C12.2202 24.0019 10.0656 23.8455 7.48961 22.6413C7.40204 22.6005 7.34614 22.5124 7.34614 22.4152V13.7723C7.34614 13.6767 7.40056 13.5895 7.48615 13.5482L7.72411 13.4321C9.00445 12.8111 10.7582 11.96 12.2558 10.6796C14.0674 9.13033 15.0722 7.29516 15.2424 5.22443C15.2553 5.06756 15.4161 4.92413 15.5793 4.92413C16.6168 4.94007 17.4568 5.79963 17.4568 6.83948V7.08998C17.4568 8.75134 17.0051 9.77923 16.172 11.0945C16.1265 11.1662 16.0478 11.2095 15.9632 11.2095H14.7808C14.5073 11.2095 14.2846 11.4336 14.2846 11.709C14.2846 11.9844 14.5073 12.2085 14.7808 12.2085H21.9182C22.5188 12.2085 23.0081 12.7006 23.0081 13.3056C23.0081 13.9107 22.5188 14.4028 21.9182 14.4028H20.3321C20.0585 14.4028 19.8359 14.6269 19.8359 14.9023C19.8359 15.1777 20.0585 15.4018 20.3321 15.4018ZM21.116 6.5299H22.7021C22.9757 6.5299 23.1983 6.30579 23.1983 6.03039C23.1983 5.75499 22.9757 5.53089 22.7021 5.53089H21.116C20.8424 5.53089 20.6198 5.75499 20.6198 6.03039C20.6198 6.30579 20.8424 6.5299 21.116 6.5299ZM11.598 6.5299H10.0119C9.73829 6.5299 9.51566 6.30579 9.51566 6.03039C9.51566 5.75499 9.73829 5.53089 10.0119 5.53089H11.598C11.8715 5.53089 12.0942 5.75499 12.0942 6.03039C12.0942 6.30579 11.8715 6.5299 11.598 6.5299Z" fill="#5362A7"/>
<path d="M18.4878 2.31475L17.9836 3.17831L17.9868 3.18016L18.4878 2.31475ZM18.2568 2.01146L17.2903 2.26823L17.291 2.27076L18.2568 2.01146ZM18.3063 1.63248L17.439 1.13466L17.4373 1.13761L18.3063 1.63248ZM19.0998 0.250001L19.9671 0.747821L19.9688 0.744869L19.0998 0.250001ZM19.4006 0.0174304L19.1434 -0.948939L19.1406 -0.948188L19.4006 0.0174304ZM19.7771 0.0672314L19.2742 0.931608L19.2761 0.932703L19.7771 0.0672314ZM19.8335 0.10508L20.4499 -0.682309L20.4431 -0.68771L20.4361 -0.692989L19.8335 0.10508ZM19.8587 0.126495L20.5679 -0.578564L20.5567 -0.589851L20.5451 -0.600775L19.8587 0.126495ZM19.8627 0.13023L20.5379 -0.607358L20.5374 -0.607821L19.8627 0.13023ZM19.8666 0.133965L19.157 0.838489L19.1822 0.863903L19.2092 0.887447L19.8666 0.133965ZM19.8874 0.154881L19.1296 0.807343L19.1659 0.84952L19.2067 0.887407L19.8874 0.154881ZM19.9047 0.173779L19.1393 0.81732L19.1451 0.824264L19.1511 0.831102L19.9047 0.173779ZM19.9047 0.173806L19.1511 0.831128L19.1724 0.855507L19.1952 0.878461L19.9047 0.173806ZM19.9176 0.189742L19.107 0.775362L19.1389 0.819517L19.1754 0.859945L19.9176 0.189742ZM19.9274 0.202374L19.1171 0.788317L19.1171 0.788344L19.9274 0.202374ZM19.931 0.207172L19.129 0.804586L19.1291 0.804728L19.931 0.207172ZM19.9438 0.226097L19.0906 0.747675L19.1038 0.769203L19.118 0.790039L19.9438 0.226097ZM19.9591 0.250936L20.8311 -0.238599L20.8269 -0.246167L20.8225 -0.253661L19.9591 0.250936ZM19.9592 0.250997L19.0871 0.740569L19.0932 0.751165L19.9592 0.250997ZM19.9908 0.318229L20.9278 -0.0311076L20.9255 -0.0373713L19.9908 0.318229ZM19.9908 0.318321L20.928 -0.0307144L20.9278 -0.0310077L19.9908 0.318321ZM19.9992 0.342133L19.0442 0.638636L19.047 0.647597L19.0499 0.656505L19.9992 0.342133ZM20.0062 0.364543H21.0062V0.234398L20.9728 0.108587L20.0062 0.364543ZM20.0069 0.367034L19.0578 0.682057L19.0578 0.68208L20.0069 0.367034ZM20.0071 0.36803H19.0071V0.517405L19.0508 0.660259L20.0071 0.36803ZM20.0103 0.381125L19.0318 0.587195L19.0319 0.587694L20.0103 0.381125ZM20.0116 0.386954L19.0369 0.610432L19.0471 0.655094L19.0614 0.698633L20.0116 0.386954ZM20.0119 0.387839L19.0696 0.722532L19.0699 0.723415L20.0119 0.387839ZM20.0126 0.390938H19.0126V0.513197L19.042 0.631854L20.0126 0.390938ZM20.0175 0.41475L21.0006 0.231671L21.0006 0.231439L20.0175 0.41475ZM20.0175 0.414843L19.0343 0.597938L19.0369 0.610959L20.0175 0.414843ZM20.0175 0.414871L20.9984 0.220278L20.9981 0.218755L20.0175 0.414871ZM20.0185 0.422313H19.0185V0.509288L19.0335 0.594957L20.0185 0.422313ZM20.022 0.448209L19.0235 0.503446L19.0274 0.573376L19.041 0.642085L20.022 0.448209ZM20.0225 0.451695L21.0164 0.341725V0.341722L20.0225 0.451695ZM20.023 0.455181L21.0189 0.365368L21.0141 0.312208L21.0037 0.25986L20.023 0.455181ZM20.024 0.472114H19.024V0.4982L19.0253 0.524251L20.024 0.472114ZM19.9587 0.749505L20.8261 1.24709L20.8266 1.24611L19.9587 0.749505ZM19.1656 2.13198L18.2982 1.6344L18.297 1.63652L19.1656 2.13198ZM13.5482 2.13215L14.4168 1.63669L14.4155 1.63434L13.5482 2.13215ZM14.2255 2.31492L13.7228 1.45043L13.7219 1.45094L14.2255 2.31492ZM14.4565 2.01164L13.4909 1.75139L13.4898 1.75579L14.4565 2.01164ZM14.407 1.63265L13.5396 2.13023L13.5397 2.13032L14.407 1.63265ZM13.614 0.250173L12.7461 0.747023L12.7466 0.747756L13.614 0.250173ZM12.9362 0.067403L12.4346 -0.797712L12.4337 -0.797162L12.9362 0.067403ZM12.7546 0.749677L11.8868 1.24645L11.8874 1.24749L12.7546 0.749677ZM23.4281 14.7459L22.7005 14.0599L22.6981 14.0625L23.4281 14.7459ZM17.481 11.087L16.6166 11.5898L16.6176 11.5915L17.481 11.087ZM17.4776 10.84L16.601 10.3587L16.5994 10.3616L17.4776 10.84ZM17.6166 4.79415L18.3315 4.09493L18.3312 4.0946L17.6166 4.79415ZM15.5996 3.92562L15.5744 4.92535L15.584 4.9255L15.5996 3.92562ZM15.5798 3.92512L15.605 2.92544L15.5924 2.92512H15.5798V3.92512ZM14.2535 5.14226L13.2569 5.05994L13.2568 5.06035L14.2535 5.14226ZM11.7596 9.78919L12.4238 10.5367L12.424 10.5365L11.7596 9.78919ZM7.69195 12.3385L8.12985 13.2375L8.1316 13.2367L7.69195 12.3385ZM7.45251 12.3256L6.92103 13.1726L6.92363 13.1743L7.45251 12.3256ZM7.11708 23.8296L6.22249 23.3827L6.2216 23.3845L7.11708 23.8296ZM7.43717 23.7126L7.83772 22.7963L7.83502 22.7951L7.43717 23.7126ZM16.314 24.9915V23.9914L16.3042 23.9915L16.314 24.9915ZM16.3214 24.9915V25.9915L16.3309 25.9914L16.3214 24.9915ZM22.0963 21.8206L21.2341 22.3272L21.2346 22.3281L22.0963 21.8206ZM22.1799 21.4815L22.7028 22.3339L22.7046 22.3327L22.1799 21.4815ZM22.8893 18.6274L22.0272 19.134L22.0277 19.1349L22.8893 18.6274ZM22.973 18.2882L23.4959 19.1406L23.4977 19.1395L22.973 18.2882ZM23.4251 15.0855L22.6842 15.7571L22.6857 15.7587L23.4251 15.0855ZM16.3895 23.9921L16.399 24.9921H16.399L16.3895 23.9921ZM16.3046 23.9929L16.3138 24.9929L16.3141 24.9929L16.3046 23.9929ZM16.2486 23.9935L16.2578 24.9934L16.2579 24.9934L16.2486 23.9935ZM7.48961 22.6413L7.91309 21.7354L7.91228 21.7351L7.48961 22.6413ZM7.48615 13.5482L7.92105 14.4487L7.92444 14.447L7.48615 13.5482ZM7.72411 13.4321L7.2877 12.5324L7.28581 12.5333L7.72411 13.4321ZM12.2558 10.6796L12.9056 11.4397L12.9057 11.4396L12.2558 10.6796ZM15.2424 5.22443L16.2391 5.30634L16.2391 5.30615L15.2424 5.22443ZM15.5793 4.92413L15.5947 3.92425L15.587 3.92413H15.5793V4.92413ZM16.172 11.0945L17.0163 11.6303L17.0168 11.6296L16.172 11.0945ZM17.9868 3.18016C18.2107 3.3098 18.4685 3.38198 18.7352 3.38198V1.38198C18.8297 1.38198 18.9164 1.40735 18.9889 1.44934L17.9868 3.18016ZM17.291 2.27076C17.3935 2.65266 17.6406 2.97804 17.9836 3.1783L18.9921 1.4512C19.1065 1.51799 19.1893 1.62823 19.2226 1.75217L17.291 2.27076ZM17.4373 1.13761C17.2425 1.47973 17.1884 1.88449 17.2903 2.26823L19.2233 1.75469C19.257 1.88146 19.2385 2.0163 19.1753 2.12735L17.4373 1.13761ZM18.2325 -0.247816L17.439 1.13466L19.1736 2.13029L19.9671 0.747818L18.2325 -0.247816ZM19.1406 -0.948188C18.7559 -0.844596 18.429 -0.592775 18.2309 -0.244867L19.9688 0.744869C19.9023 0.861701 19.7901 0.948182 19.6606 0.983049L19.1406 -0.948188ZM19.5302 -1C19.3937 -1 19.2642 -0.981064 19.1434 -0.948935L19.6578 0.983796C19.6231 0.993016 19.5797 1 19.5302 1V-1ZM20.2799 -0.797143C20.0531 -0.929112 19.7948 -1 19.5302 -1V1C19.4368 1 19.3487 0.974929 19.2742 0.931606L20.2799 -0.797143ZM20.4361 -0.692989C20.3954 -0.723715 20.3421 -0.761167 20.2781 -0.79824L19.2761 0.932703C19.2517 0.918538 19.236 0.906983 19.2309 0.903149L20.4361 -0.692989ZM20.5451 -0.600775C20.5065 -0.637155 20.4721 -0.665002 20.4499 -0.682309L19.217 0.89247C19.2127 0.889106 19.1951 0.875204 19.1724 0.853765L20.5451 -0.600775ZM20.5374 -0.607821C20.5362 -0.60891 20.5398 -0.605677 20.5441 -0.601649C20.5487 -0.597334 20.5573 -0.589203 20.5679 -0.578564L19.1496 0.831553C19.1614 0.843437 19.1713 0.852813 19.1772 0.858374C19.1829 0.863646 19.1878 0.868124 19.1879 0.86828L20.5374 -0.607821ZM20.5763 -0.570559C20.5643 -0.582632 20.5543 -0.592133 20.5484 -0.597681C20.5453 -0.60058 20.5427 -0.602961 20.541 -0.604499C20.5395 -0.605936 20.5381 -0.607209 20.5379 -0.607358L19.1874 0.867817C19.1889 0.869123 19.1853 0.865849 19.181 0.861875C19.1764 0.857572 19.1677 0.849317 19.157 0.838489L20.5763 -0.570559ZM20.6452 -0.49758C20.6078 -0.541028 20.5674 -0.581765 20.5241 -0.619517L19.2092 0.887447C19.1807 0.862642 19.1541 0.83585 19.1296 0.807343L20.6452 -0.49758ZM20.6701 -0.469761C20.669 -0.471069 20.6563 -0.486386 20.6411 -0.503251C20.6246 -0.521649 20.6 -0.548093 20.5682 -0.577644L19.2067 0.887407C19.1813 0.863823 19.1625 0.843596 19.1517 0.831538C19.1423 0.821014 19.135 0.812162 19.1393 0.81732L20.6701 -0.469761ZM20.6583 -0.483517L20.6583 -0.483543L19.1511 0.831102L19.1511 0.831128L20.6583 -0.483517ZM20.7282 -0.395878C20.728 -0.396077 20.7145 -0.41509 20.6979 -0.436171C20.6797 -0.459331 20.6517 -0.493196 20.6143 -0.53085L19.1952 0.878461C19.1627 0.845787 19.1392 0.817152 19.1252 0.799344C19.1128 0.783618 19.1032 0.770083 19.107 0.775362L20.7282 -0.395878ZM20.7378 -0.38357C20.7377 -0.383666 20.7281 -0.397039 20.7168 -0.411825C20.7044 -0.428082 20.685 -0.452479 20.6598 -0.480462L19.1754 0.859945C19.1538 0.835972 19.1378 0.815717 19.1286 0.803687C19.1205 0.793128 19.114 0.784066 19.1171 0.788317L20.7378 -0.38357ZM20.7329 -0.390242C20.7351 -0.387234 20.7368 -0.384942 20.7376 -0.383897C20.7382 -0.383065 20.7387 -0.382371 20.7378 -0.383597L19.1171 0.788344C19.1173 0.788622 19.1228 0.79623 19.129 0.804586L20.7329 -0.390242ZM20.797 -0.295482C20.7745 -0.332292 20.7523 -0.364216 20.7328 -0.390383L19.1291 0.804728C19.1185 0.790512 19.1052 0.771537 19.0906 0.747675L20.797 -0.295482ZM20.8225 -0.253661C20.8207 -0.25672 20.7982 -0.295948 20.7696 -0.337846L19.118 0.790039C19.1077 0.77488 19.1004 0.763114 19.0972 0.757849C19.0945 0.75335 19.0926 0.75006 19.0958 0.755533L20.8225 -0.253661ZM20.8311 -0.238538L20.8311 -0.238599L19.0871 0.740471L19.0872 0.740532L20.8311 -0.238538ZM20.9255 -0.0373713C20.9 -0.104194 20.8675 -0.175799 20.8251 -0.249171L19.0932 0.751165C19.0756 0.720622 19.0638 0.693838 19.0562 0.673828L20.9255 -0.0373713ZM20.9278 -0.0310077L20.9278 -0.0310998L19.0538 0.667557L19.0538 0.667649L20.9278 -0.0310077ZM20.9543 0.0456302C20.9422 0.00663355 20.9292 -0.0274925 20.928 -0.0307144L19.0537 0.667356C19.0556 0.672417 19.0547 0.669966 19.0534 0.666411C19.0519 0.662199 19.0484 0.652206 19.0442 0.638636L20.9543 0.0456302ZM20.9728 0.108587C20.9617 0.0665991 20.9493 0.0300018 20.9485 0.0277612L19.0499 0.656505C19.0516 0.661455 19.0504 0.658045 19.049 0.653408C19.0473 0.648035 19.0436 0.636248 19.0395 0.6205L20.9728 0.108587ZM20.9016 -0.0804225C20.9016 -0.0803648 20.9031 -0.0774003 20.9049 -0.0736947C20.9068 -0.0697822 20.9098 -0.0635101 20.9134 -0.05573C20.9204 -0.0408207 20.932 -0.0149007 20.9442 0.0182389C20.9673 0.0807036 21.0062 0.203889 21.0062 0.364543H19.0062C19.0062 0.525447 19.0451 0.648881 19.0682 0.711595C19.0805 0.744859 19.0922 0.770904 19.0992 0.785937C19.1028 0.79378 19.1059 0.800114 19.1078 0.804089C19.1097 0.807857 19.1112 0.810884 19.1112 0.811003L20.9016 -0.0804225ZM21.0066 0.366038C21.0066 0.202803 20.9666 0.0779634 20.9434 0.0158403C20.931 -0.0172411 20.9194 -0.0430389 20.9126 -0.0574947C20.9091 -0.065058 20.9062 -0.0711172 20.9044 -0.0747217C20.9035 -0.0765743 20.9027 -0.0780713 20.9023 -0.0789788C20.9021 -0.079443 20.9019 -0.0798195 20.9018 -0.0800502C20.9017 -0.080168 20.9017 -0.080264 20.9016 -0.0803236C20.9016 -0.080354 20.9016 -0.080379 20.9016 -0.0803948C20.9016 -0.0804095 20.9016 -0.0804223 20.9016 -0.0804225L19.1112 0.811003C19.116 0.820585 19.0913 0.773116 19.0698 0.715488C19.0466 0.653614 19.0066 0.529023 19.0066 0.366038H21.0066ZM20.956 0.0520101C20.9538 0.0454256 20.9632 0.0727885 20.9718 0.104406C20.9766 0.122307 20.9843 0.152415 20.9911 0.190302C20.9974 0.225866 21.0066 0.288013 21.0066 0.366038H19.0066C19.0066 0.504337 19.0366 0.609964 19.0417 0.628572C19.0468 0.647364 19.0514 0.662121 19.0538 0.669628C19.0551 0.67372 19.0561 0.67701 19.0568 0.678941C19.0571 0.679941 19.0574 0.680752 19.0575 0.681247C19.0576 0.6815 19.0577 0.681708 19.0577 0.681837C19.0578 0.681903 19.0578 0.681958 19.0578 0.681993C19.0578 0.682026 19.0578 0.682055 19.0578 0.682057L20.956 0.0520101ZM21.0071 0.36803C21.0071 0.229729 20.9772 0.124103 20.9721 0.10549C20.967 0.0866958 20.9624 0.0719362 20.96 0.064426C20.9587 0.0603333 20.9576 0.0570416 20.957 0.0551084C20.9567 0.0541082 20.9564 0.0532966 20.9562 0.0528004C20.9562 0.0525464 20.9561 0.0523388 20.956 0.0522087C20.956 0.0521423 20.956 0.0520874 20.956 0.0520518C20.956 0.0520188 20.956 0.0519897 20.956 0.0519874L19.0578 0.68208C19.06 0.688654 19.0506 0.661291 19.042 0.629667C19.0372 0.611763 19.0295 0.581654 19.0227 0.543766C19.0164 0.508201 19.0071 0.446054 19.0071 0.36803H21.0071ZM20.9889 0.175055C20.9888 0.174651 20.986 0.161091 20.9823 0.145628C20.9783 0.128463 20.9722 0.104288 20.9635 0.0757999L19.0508 0.660259C19.0435 0.636266 19.0385 0.616465 19.0355 0.603637C19.0329 0.592512 19.031 0.583252 19.0318 0.587195L20.9889 0.175055ZM20.9863 0.163476C20.9873 0.167881 20.9881 0.171305 20.9884 0.173114C20.9888 0.174664 20.989 0.175857 20.9888 0.174556L19.0319 0.587694C19.032 0.588395 19.0342 0.598674 19.0369 0.610432L20.9863 0.163476ZM20.9542 0.053147C20.9541 0.0528735 20.954 0.0525967 20.9541 0.0526644C20.9541 0.0526653 20.9541 0.0526805 20.9541 0.0527022C20.9541 0.0527246 20.9541 0.0527593 20.9541 0.0528023C20.9541 0.0528869 20.9542 0.0530208 20.9542 0.0531868C20.9545 0.053801 20.955 0.0552424 20.9556 0.0570954C20.9569 0.0608147 20.9591 0.0672319 20.9618 0.0752751L19.0614 0.698633C19.0641 0.70699 19.0665 0.71371 19.0679 0.717724C19.0686 0.719724 19.0691 0.72131 19.0694 0.722068C19.0695 0.722445 19.0697 0.722755 19.0697 0.722803C19.0697 0.722942 19.0696 0.722735 19.0696 0.722531L20.9542 0.053147ZM21.0126 0.390938C21.0126 0.297315 20.9995 0.2149 20.9825 0.146855C20.9748 0.115761 20.967 0.0909371 20.962 0.0757119C20.9594 0.0680531 20.9573 0.0618919 20.956 0.0582196C20.9554 0.0563343 20.9548 0.0548021 20.9545 0.053861C20.9543 0.0533785 20.9542 0.0529817 20.9541 0.0527265C20.954 0.052487 20.9539 0.0522827 20.9539 0.0522638L19.0699 0.723415C19.0725 0.730837 19.0126 0.582576 19.0126 0.390938H21.0126ZM21.0006 0.231439C20.9999 0.228066 20.9934 0.191255 20.9831 0.150022L19.042 0.631854C19.0384 0.617318 19.0361 0.606153 19.035 0.60076C19.0341 0.596227 19.0335 0.59289 19.0345 0.598062L21.0006 0.231439ZM21.0006 0.231763L21.0006 0.231671L19.0344 0.59783L19.0344 0.597922L21.0006 0.231763ZM20.9981 0.218755L20.9981 0.218726L19.0369 0.610959L19.037 0.610987L20.9981 0.218755ZM21.0185 0.422313C21.0185 0.356267 21.012 0.303112 21.0073 0.271423C21.0049 0.25517 21.0025 0.241994 21.001 0.233881C21.0003 0.229728 20.9996 0.226316 20.9992 0.224136C20.9988 0.222118 20.9984 0.220344 20.9984 0.220278L19.0367 0.609464C19.0377 0.614794 19.0331 0.59235 19.0291 0.565761C19.0248 0.536553 19.0185 0.485878 19.0185 0.422313H21.0185ZM21.0205 0.392972C21.0162 0.315785 21.0036 0.25045 21.0035 0.249668L19.0335 0.594957C19.0347 0.601488 19.0327 0.590793 19.0308 0.57748C19.0286 0.562182 19.0253 0.536227 19.0235 0.503446L21.0205 0.392972ZM21.0164 0.341722C21.0164 0.341705 21.0163 0.340825 21.0162 0.339823C21.0161 0.338735 21.0159 0.337047 21.0156 0.334997C21.0152 0.330922 21.0144 0.324657 21.0134 0.317039C21.0113 0.301414 21.008 0.279837 21.003 0.254333L19.041 0.642085C19.0319 0.596032 19.0281 0.557274 19.0285 0.561668L21.0164 0.341722ZM21.0037 0.25986C21.013 0.306718 21.0169 0.346165 21.0164 0.341725L19.0285 0.561665C19.0285 0.561681 19.0286 0.562573 19.0288 0.563592C19.0289 0.564697 19.0291 0.566412 19.0293 0.568496C19.0298 0.572637 19.0306 0.579008 19.0316 0.586754C19.0337 0.602644 19.0371 0.624581 19.0422 0.650503L21.0037 0.25986ZM21.024 0.472114C21.024 0.41604 21.0192 0.368597 21.0189 0.365368L19.027 0.544995C19.0271 0.546149 19.0264 0.538664 19.0257 0.528371C19.0251 0.518219 19.024 0.498093 19.024 0.472114H21.024ZM21.025 0.5005C21.025 0.460595 21.0229 0.425062 21.0226 0.419976L19.0253 0.524251C19.0255 0.526887 19.0255 0.527628 19.0255 0.528097C19.0255 0.528386 19.0255 0.527317 19.0254 0.525433C19.0253 0.521848 19.025 0.51281 19.025 0.5005H21.025ZM20.8266 1.24611C20.9608 1.01155 21.025 0.753911 21.025 0.5005H19.025C19.025 0.416413 19.0465 0.330094 19.0907 0.252901L20.8266 1.24611ZM20.033 2.62957L20.8261 1.24709L19.0912 0.251922L18.2982 1.6344L20.033 2.62957ZM18.7352 3.38198C19.2708 3.38198 19.7679 3.09438 20.0342 2.62745L18.297 1.63652C18.3872 1.47835 18.5539 1.38198 18.7352 1.38198V3.38198ZM13.9781 1.38215C14.1605 1.38215 14.3271 1.47948 14.4168 1.63669L12.6796 2.62762C12.9453 3.09359 13.4414 3.38215 13.9781 3.38215V1.38215ZM13.7219 1.45094C13.7972 1.40705 13.8851 1.38215 13.9781 1.38215V3.38215C14.2443 3.38215 14.5033 3.31045 14.729 3.1789L13.7219 1.45094ZM13.4898 1.75579C13.5234 1.6286 13.6081 1.51713 13.7228 1.45043L14.7281 3.17942C15.0724 2.97925 15.3213 2.65264 15.4232 2.26748L13.4898 1.75579ZM13.5397 2.13032C13.4751 2.01788 13.4562 1.88046 13.4909 1.75139L15.422 2.27188C15.5261 1.88584 15.4715 1.4785 15.2744 1.13498L13.5397 2.13032ZM12.7466 0.747756L13.5396 2.13023L15.2744 1.13507L14.4814 -0.24741L12.7466 0.747756ZM13.1836 1.00067C13.011 1.00067 12.8398 0.910605 12.7461 0.747023L14.4818 -0.246678C14.2051 -0.729982 13.6994 -0.99933 13.1836 -0.99933V1.00067ZM13.4378 0.932518C13.3594 0.977981 13.2707 1.00067 13.1836 1.00067V-0.99933C12.9282 -0.99933 12.6694 -0.933813 12.4346 -0.797711L13.4378 0.932518ZM13.6225 0.252905C13.7572 0.48816 13.6807 0.791297 13.4387 0.931968L12.4337 -0.797162C11.7187 -0.381589 11.479 0.534101 11.8868 1.24645L13.6225 0.252905ZM14.4155 1.63434L13.6219 0.251861L11.8874 1.24749L12.6809 2.62997L14.4155 1.63434ZM23 13.3056C23 13.5881 22.8945 13.8541 22.7005 14.0599L24.1557 15.4319C24.6998 14.8548 25 14.0979 25 13.3056H23ZM21.9182 12.2095C22.5073 12.2095 23 12.6956 23 13.3056H25C25 11.6039 23.6246 10.2095 21.9182 10.2095V12.2095ZM17.6943 12.2095H21.9182V10.2095H17.6943V12.2095ZM16.6176 11.5915C16.8417 11.9749 17.2517 12.2095 17.6943 12.2095V10.2095C17.9617 10.2095 18.2095 10.3515 18.3444 10.5825L16.6176 11.5915ZM16.5994 10.3616C16.3898 10.7465 16.3972 11.2126 16.6166 11.5898L18.3454 10.5842C18.4768 10.81 18.4813 11.0879 18.3557 11.3184L16.5994 10.3616ZM17.4487 7.08998C17.4487 8.32546 17.2117 9.24645 16.601 10.3587L18.3541 11.3213C19.1237 9.91959 19.4487 8.66825 19.4487 7.08998H17.4487ZM17.4487 6.83898V7.08998H19.4487V6.83898H17.4487ZM16.9017 5.49337C17.2546 5.85424 17.4487 6.32912 17.4487 6.83898H19.4487C19.4487 5.808 19.0511 4.83068 18.3315 4.09493L16.9017 5.49337ZM15.584 4.9255C16.0837 4.93331 16.5488 5.13287 16.902 5.4937L18.3312 4.0946C17.6109 3.35882 16.6442 2.94183 15.6152 2.92574L15.584 4.9255ZM15.5547 4.92481L15.5744 4.9253L15.6248 2.92594L15.605 2.92544L15.5547 4.92481ZM15.2501 5.22458C15.2624 5.07536 15.4214 4.92512 15.5798 4.92512V2.92512C14.3867 2.92512 13.3553 3.86753 13.2569 5.05994L15.2501 5.22458ZM12.424 10.5365C14.0952 9.05078 15.0827 7.26071 15.2501 5.22417L13.2568 5.06035C13.1383 6.50291 12.4477 7.83935 11.0951 9.04184L12.424 10.5365ZM8.1316 13.2367C9.53098 12.5517 11.0878 11.724 12.4238 10.5367L11.0953 9.0417C9.97457 10.0377 8.62634 10.7678 7.2523 11.4403L8.1316 13.2367ZM6.92363 13.1743C7.28543 13.3997 7.74051 13.4272 8.12985 13.2375L7.25405 11.4395C7.49003 11.3245 7.76503 11.342 7.98138 11.4769L6.92363 13.1743ZM6.33674 12.1144C6.33674 12.5368 6.55103 12.9405 6.92103 13.1726L7.98398 11.4785C8.20953 11.62 8.33674 11.8633 8.33674 12.1144H6.33674ZM6.33674 11.719V12.1144H8.33674V11.719H6.33674ZM6.84053 12.2195C6.5556 12.2195 6.33674 11.9896 6.33674 11.719H8.33674C8.33674 10.8976 7.67263 10.2195 6.84053 10.2195V12.2195ZM0.496207 12.2195H6.84053V10.2195H0.496207V12.2195ZM1 11.719C1 11.9896 0.781144 12.2195 0.496207 12.2195V10.2195C-0.335893 10.2195 -1 10.8976 -1 11.719H1ZM1 24.4919V11.719H-1V24.4919H1ZM0.496207 23.991C0.779848 23.991 1 24.22 1 24.4919H-1C-1 25.3147 -0.334598 25.991 0.496207 25.991V23.991ZM5.25445 23.991H0.496207V25.991H5.25445V23.991ZM6.2216 23.3845C6.03245 23.7651 5.66358 23.991 5.25445 23.991V25.991C6.43141 25.991 7.48932 25.3274 8.01257 24.2747L6.2216 23.3845ZM7.33872 22.6916C6.87665 22.6916 6.43884 22.9496 6.22249 23.3827L8.01168 24.2765C7.8824 24.5353 7.61873 24.6916 7.33872 24.6916V22.6916ZM7.83502 22.7951C7.68268 22.7291 7.51449 22.6916 7.33872 22.6916V24.6916C7.22925 24.6916 7.12735 24.6682 7.03932 24.63L7.83502 22.7951ZM14.9288 24.0004C12.5663 24.0004 10.3622 23.8998 7.83772 22.7963L7.03662 24.6288C9.95313 25.9038 12.5003 26.0004 14.9288 26.0004V24.0004ZM16.3042 23.9915C15.8475 23.996 15.3802 24.0004 14.9288 24.0004V26.0004C15.3915 26.0004 15.8682 25.9959 16.3238 25.9914L16.3042 23.9915ZM16.3214 23.9915H16.314V25.9915H16.3214V23.9915ZM17.953 23.9815C17.3802 23.9815 16.8345 23.9865 16.3119 23.9915L16.3309 25.9914C16.8541 25.9864 17.3909 25.9815 17.953 25.9815V23.9815ZM20.3034 23.9815H17.953V25.9815H20.3034V23.9815ZM21.3857 22.8854C21.3857 23.4952 20.8932 23.9815 20.3034 23.9815V25.9815C22.0102 25.9815 23.3857 24.5873 23.3857 22.8854H21.3857ZM21.2346 22.3281C21.333 22.4951 21.3857 22.6877 21.3857 22.8854H23.3857C23.3857 22.333 23.2386 21.7896 22.958 21.3131L21.2346 22.3281ZM21.657 20.6291C21.0719 20.988 20.8925 21.7458 21.2341 22.3272L22.9585 21.314C23.1626 21.6613 23.0573 22.1164 22.7028 22.3339L21.657 20.6291ZM22.1788 19.6921C22.1788 20.0802 21.9851 20.4268 21.6552 20.6302L22.7046 22.3327C23.6254 21.7652 24.1788 20.7742 24.1788 19.6921H22.1788ZM22.0277 19.1349C22.126 19.3018 22.1788 19.4945 22.1788 19.6921H24.1788C24.1788 19.1398 24.0316 18.5963 23.751 18.1199L22.0277 19.1349ZM22.45 17.4359C21.865 17.7948 21.6856 18.5526 22.0272 19.134L23.7515 18.1208C23.9556 18.4681 23.8504 18.9231 23.4959 19.1406L22.45 17.4359ZM22.9718 16.4989C22.9718 16.887 22.7781 17.2336 22.4482 17.437L23.4977 19.1395C24.4184 18.572 24.9718 17.5809 24.9718 16.4989H22.9718ZM22.6857 15.7587C22.8705 15.9617 22.9718 16.2236 22.9718 16.4989H24.9718C24.9718 15.7264 24.6853 14.9842 24.1646 14.4123L22.6857 15.7587ZM22.6981 14.0625C22.2546 14.5362 22.2458 15.2734 22.6842 15.7571L24.1661 14.414C24.4294 14.7045 24.4235 15.1459 24.1581 15.4293L22.6981 14.0625ZM5.25445 24.9924C6.41435 24.9924 7.34433 24.0457 7.34433 22.8953H5.34433C5.34433 22.9542 5.29673 22.9924 5.25445 22.9924V24.9924ZM4.41194 24.9924H5.25445V22.9924H4.41194V24.9924ZM3.16458 23.7434C3.16458 24.4256 3.71509 24.9924 4.41194 24.9924V22.9924C4.83471 22.9924 5.16458 23.3362 5.16458 23.7434H3.16458ZM3.16458 21.2987V23.7434H5.16458V21.2987H3.16458ZM3.66837 21.7992C3.38344 21.7992 3.16458 21.5693 3.16458 21.2987H5.16458C5.16458 20.4773 4.50047 19.7992 3.66837 19.7992V21.7992ZM4.17216 21.2987C4.17216 21.5693 3.95331 21.7992 3.66837 21.7992V19.7992C2.83627 19.7992 2.17216 20.4773 2.17216 21.2987H4.17216ZM4.17216 23.7434V21.2987H2.17216V23.7434H4.17216ZM2.9248 24.9924C3.61986 24.9924 4.17216 24.4269 4.17216 23.7434H2.17216C2.17216 23.3349 2.50283 22.9924 2.9248 22.9924V24.9924ZM1.23978 24.9924H2.9248V22.9924H1.23978V24.9924ZM-0.00758582 23.7434C-0.00758582 24.4269 0.544719 24.9924 1.23978 24.9924V22.9924C1.66175 22.9924 1.99241 23.3349 1.99241 23.7434H-0.00758582ZM-0.00758582 12.467V23.7434H1.99241V12.467H-0.00758582ZM1.23978 11.218C0.544711 11.218 -0.00758582 11.7835 -0.00758582 12.467H1.99241C1.99241 12.8756 1.66175 13.218 1.23978 13.218V11.218ZM6.09697 11.218H1.23978V13.218H6.09697V11.218ZM7.34433 12.467C7.34433 11.7835 6.79203 11.218 6.09697 11.218V13.218C5.67499 13.218 5.34433 12.8756 5.34433 12.467H7.34433ZM7.34433 22.8953V12.467H5.34433V22.8953H7.34433ZM21.8895 14.4018H20.3321V16.4018H21.8895V14.4018ZM23.9794 16.4989C23.9794 15.3478 23.0491 14.4018 21.8895 14.4018V16.4018C21.9321 16.4018 21.9794 16.4398 21.9794 16.4989H23.9794ZM21.8895 18.596C23.0491 18.596 23.9794 17.65 23.9794 16.4989H21.9794C21.9794 16.5579 21.9321 16.596 21.8895 16.596V18.596ZM20.3321 18.596H21.8895V16.596H20.3321V18.596ZM20.8359 18.0955C20.8359 18.3661 20.6171 18.596 20.3321 18.596V16.596C19.5 16.596 18.8359 17.2741 18.8359 18.0955H20.8359ZM20.3321 17.595C20.6171 17.595 20.8359 17.8249 20.8359 18.0955H18.8359C18.8359 18.9169 19.5 19.595 20.3321 19.595V17.595ZM21.0965 17.595H20.3321V19.595H21.0965V17.595ZM23.1863 19.6921C23.1863 18.541 22.2561 17.595 21.0965 17.595V19.595C21.139 19.595 21.1863 19.6331 21.1863 19.6921H23.1863ZM21.0965 21.7892C22.2561 21.7892 23.1863 20.8432 23.1863 19.6921H21.1863C21.1863 19.7512 21.139 19.7892 21.0965 19.7892V21.7892ZM20.3034 21.7892H21.0965V19.7892H20.3034V21.7892ZM20.8072 21.2887C20.8072 21.5594 20.5884 21.7892 20.3034 21.7892V19.7892C19.4713 19.7892 18.8072 20.4673 18.8072 21.2887H20.8072ZM20.3034 20.7883C20.5884 20.7883 20.8072 21.0181 20.8072 21.2887H18.8072C18.8072 22.1102 19.4713 22.7883 20.3034 22.7883V20.7883ZM22.3933 22.8854C22.3933 21.7343 21.463 20.7883 20.3034 20.7883V22.7883C20.346 22.7883 20.3933 22.8263 20.3933 22.8854H22.3933ZM20.3034 24.9825C21.463 24.9825 22.3933 24.0365 22.3933 22.8854H20.3933C20.3933 22.9444 20.346 22.9825 20.3034 22.9825V24.9825ZM17.953 24.9825H20.3034V22.9825H17.953V24.9825ZM16.399 24.9921C16.8995 24.9873 17.4116 24.9825 17.953 24.9825V22.9825C17.4007 22.9825 16.8794 22.9874 16.38 22.9922L16.399 24.9921ZM16.3141 24.9929L16.399 24.9921L16.38 22.9922L16.2951 22.993L16.3141 24.9929ZM16.2579 24.9934L16.3138 24.9929L16.2953 22.993L16.2393 22.9935L16.2579 24.9934ZM14.9015 25.0019C15.3408 25.0019 15.7935 24.9977 16.2578 24.9934L16.2393 22.9935C15.7732 22.9978 15.3299 23.0019 14.9015 23.0019V25.0019ZM7.06613 23.5473C9.84014 24.844 12.1692 25.0019 14.9015 25.0019V23.0019C12.2711 23.0019 10.2911 22.8471 7.91309 21.7354L7.06613 23.5473ZM6.34614 22.4152C6.34614 22.8981 6.62455 23.3413 7.06695 23.5476L7.91228 21.7351C8.17954 21.8597 8.34614 22.1267 8.34614 22.4152H6.34614ZM6.34614 13.7723V22.4152H8.34614V13.7723H6.34614ZM7.05125 12.6477C6.61717 12.8573 6.34614 13.2962 6.34614 13.7723H8.34614C8.34614 14.0571 8.18395 14.3217 7.92104 14.4487L7.05125 12.6477ZM7.28581 12.5333L7.04785 12.6493L7.92444 14.447L8.16241 14.331L7.28581 12.5333ZM11.6059 9.91957C10.2197 11.1048 8.57878 11.9062 7.2877 12.5324L8.16052 14.3319C9.43013 13.7161 11.2968 12.8152 12.9056 11.4397L11.6059 9.91957ZM14.2458 5.14252C14.1004 6.91112 13.2491 8.51439 11.6058 9.91964L12.9057 11.4396C14.8858 9.74626 16.044 7.6792 16.2391 5.30634L14.2458 5.14252ZM15.5793 3.92413C15.2112 3.92413 14.9012 4.07984 14.689 4.26904C14.4785 4.45675 14.2775 4.75592 14.2458 5.14271L16.2391 5.30615C16.2202 5.53607 16.1061 5.6851 16.0199 5.76187C15.9322 5.84014 15.7842 5.92413 15.5793 5.92413V3.92413ZM18.4568 6.83948C18.4568 5.25853 17.1835 3.94866 15.5947 3.92425L15.564 5.92401C16.05 5.93148 16.4568 6.34074 16.4568 6.83948H18.4568ZM18.4568 7.08998V6.83948H16.4568V7.08998H18.4568ZM17.0168 11.6296C17.911 10.2179 18.4568 9.00416 18.4568 7.08998H16.4568C16.4568 8.49852 16.0992 9.34059 15.3272 10.5594L17.0168 11.6296ZM15.9632 12.2095C16.3916 12.2095 16.7881 11.9899 17.0163 11.6303L15.3277 10.5586C15.4648 10.3425 15.7041 10.2095 15.9632 10.2095V12.2095ZM14.7808 12.2095H15.9632V10.2095H14.7808V12.2095ZM15.2846 11.709C15.2846 11.9797 15.0658 12.2095 14.7808 12.2095V10.2095C13.9487 10.2095 13.2846 10.8876 13.2846 11.709H15.2846ZM14.7808 11.2085C15.0658 11.2085 15.2846 11.4384 15.2846 11.709H13.2846C13.2846 12.5305 13.9487 13.2085 14.7808 13.2085V11.2085ZM21.9182 11.2085H14.7808V13.2085H21.9182V11.2085ZM24.0081 13.3056C24.0081 12.1542 23.077 11.2085 21.9182 11.2085V13.2085C21.9606 13.2085 22.0081 13.2469 22.0081 13.3056H24.0081ZM21.9182 15.4028C23.077 15.4028 24.0081 14.4571 24.0081 13.3056H22.0081C22.0081 13.3644 21.9606 13.4028 21.9182 13.4028V15.4028ZM20.3321 15.4028H21.9182V13.4028H20.3321V15.4028ZM20.8359 14.9023C20.8359 15.1729 20.6171 15.4028 20.3321 15.4028V13.4028C19.5 13.4028 18.8359 14.0808 18.8359 14.9023H20.8359ZM20.3321 14.4018C20.6171 14.4018 20.8359 14.6316 20.8359 14.9023H18.8359C18.8359 15.7237 19.5 16.4018 20.3321 16.4018V14.4018ZM22.7021 5.5299H21.116V7.5299H22.7021V5.5299ZM22.1983 6.03039C22.1983 5.75976 22.4171 5.5299 22.7021 5.5299V7.5299C23.5342 7.5299 24.1983 6.85182 24.1983 6.03039H22.1983ZM22.7021 6.53089C22.4171 6.53089 22.1983 6.30102 22.1983 6.03039H24.1983C24.1983 5.20896 23.5342 4.53089 22.7021 4.53089V6.53089ZM21.116 6.53089H22.7021V4.53089H21.116V6.53089ZM21.6198 6.03039C21.6198 6.30102 21.4009 6.53089 21.116 6.53089V4.53089C20.2839 4.53089 19.6198 5.20896 19.6198 6.03039H21.6198ZM21.116 5.5299C21.4009 5.5299 21.6198 5.75976 21.6198 6.03039H19.6198C19.6198 6.85182 20.2839 7.5299 21.116 7.5299V5.5299ZM10.0119 7.5299H11.598V5.5299H10.0119V7.5299ZM8.51566 6.03039C8.51566 6.85182 9.17977 7.5299 10.0119 7.5299V5.5299C10.2968 5.5299 10.5157 5.75976 10.5157 6.03039H8.51566ZM10.0119 4.53089C9.17977 4.53089 8.51566 5.20896 8.51566 6.03039H10.5157C10.5157 6.30102 10.2968 6.53089 10.0119 6.53089V4.53089ZM11.598 4.53089H10.0119V6.53089H11.598V4.53089ZM13.0942 6.03039C13.0942 5.20896 12.43 4.53089 11.598 4.53089V6.53089C11.313 6.53089 11.0942 6.30102 11.0942 6.03039H13.0942ZM11.598 7.5299C12.4301 7.5299 13.0942 6.85182 13.0942 6.03039H11.0942C11.0942 5.75976 11.313 5.5299 11.598 5.5299V7.5299Z" fill="#5362A7" mask="url(#path-1-inside-1)"/>
</svg>
