<?xml version="1.0" encoding="utf-8"?>
<!-- Generator: Adobe Illustrator 22.0.1, SVG Export Plug-In . SVG Version: 6.00 Build 0)  -->
<svg version="1.1" id="Layer_1" xmlns="http://www.w3.org/2000/svg" xmlns:xlink="http://www.w3.org/1999/xlink" x="0px" y="0px"
	 viewBox="0 0 830.9 45.3" style="enable-background:new 0 0 830.9 45.3;" xml:space="preserve">
<style type="text/css">
	.st0{fill:#FFFFFF;}
</style>
<title>222</title>
<path class="st0" d="M820.7,5.7C817.3,3.2,813,0,804.9,0c-8.1,0-12.4,3.2-15.8,5.8c-3,2.2-5,3.8-9.6,3.9h-1
	c-4.6-0.1-6.7-1.7-9.6-3.9C765.4,3.2,761.1,0,753,0s-12.4,3.2-15.9,5.8c-2.9,2.2-5.1,3.8-9.7,3.9h-1c-4.6-0.1-6.7-1.7-9.6-3.9
	C713.4,3.2,709,0,701,0s-12.3,3.2-15.8,5.8c-2.9,2.2-5,3.8-9.6,3.9h-0.9c-4.6-0.1-6.8-1.7-9.7-3.9c-3.5-2.6-7.8-5.8-15.9-5.8
	s-12.4,3.2-15.8,5.8c-2.9,2.2-5.1,3.8-9.7,3.9h-1c-4.6-0.1-6.7-1.7-9.6-3.9c-3.4-2.6-7.7-5.8-15.8-5.8s-12.4,3.2-15.8,5.8
	c-2.9,2.2-5.1,3.8-9.7,3.9h-0.9c-4.6-0.1-6.8-1.7-9.7-3.9c-3.4-2.6-7.8-5.8-15.8-5.8s-12.4,3.2-15.8,5.8c-2.9,2.2-5.1,3.8-9.7,3.9
	h-0.9c-4.6-0.1-6.8-1.7-9.6-3.9c-3.5-2.6-7.8-5.8-15.8-5.8s-12.4,3.2-15.8,5.8c-2.9,2.2-5.1,3.8-9.7,3.9h-0.9
	c-4.6-0.1-6.8-1.7-9.7-3.9c-3.4-2.6-7.8-5.8-15.8-5.8S429,3.2,425.6,5.7c-3,2.2-5.2,3.9-10.1,3.9c-4.9,0-7.1-1.6-10.1-3.9
	c-3.4-2.6-7.8-5.8-15.8-5.8s-12.4,3.2-15.8,5.8c-2.9,2.2-5.1,3.8-9.6,3.9h-1c-4.6-0.1-6.7-1.7-9.6-3.9c-3.4-2.6-7.7-5.8-15.8-5.8
	c-8.1,0-12.4,3.2-15.9,5.8c-2.9,2.2-5.1,3.8-9.6,3.9h-1c-4.6-0.1-6.7-1.7-9.6-3.9C298,3.2,293.7,0,285.6,0s-12.4,3.2-15.8,5.8
	c-2.9,2.2-5.1,3.8-9.7,3.9h-0.9c-4.6-0.1-6.8-1.7-9.6-3.9c-3.5-2.6-7.8-5.8-15.8-5.8s-12.4,3.2-15.8,5.8c-2.9,2.2-5.1,3.8-9.7,3.9
	h-1c-4.6-0.1-6.7-1.7-9.6-3.9c-3.4-2.6-7.7-5.8-15.8-5.8c-8.1,0-12.4,3.2-15.8,5.8c-2.9,2.2-5.1,3.8-9.7,3.9h-0.9
	c-4.6-0.1-6.8-1.7-9.6-3.9c-3.5-2.6-7.8-5.8-15.8-5.8c-8.1,0-12.4,3.2-15.8,5.8c-3,2.2-5.3,3.9-10.1,3.9C99,9.6,96.8,8,93.7,5.7
	C90.3,3.2,86,0,77.9,0C69.8,0,65.5,3.2,62,5.7C59,8,56.8,9.6,51.9,9.6C47,9.6,44.8,8,41.8,5.7C38.3,3.2,34.1,0,26,0
	S13.6,3.2,10.1,5.7C7.1,8,4.9,9.6,0,9.6v14.8v6v14.8h830.9V30.4v-6V9.6C826,9.6,823.8,8,820.7,5.7z"/>
</svg>
