<svg xmlns="http://www.w3.org/2000/svg" viewBox="0 0 830.87 45.27"><defs><style>.cls-1{fill:#042b8a;}.cls-2{fill:#2cb1f4;}</style></defs><title>33</title><g id="Layer_2" data-name="Layer 2"><g id="Layer_1-2" data-name="Layer 1"><path class="cls-1" d="M804.9,0c-8.08,0-12.38,3.19-15.85,5.75-2.95,2.17-5,3.76-9.62,3.86h-.95c-4.57-.1-6.74-1.69-9.64-3.86C765.38,3.19,761.1,0,753,0s-12.42,3.19-15.87,5.75c-2.93,2.17-5.12,3.76-9.69,3.86h-1c-4.57-.1-6.74-1.69-9.64-3.86C713.38,3.19,709,0,701,0s-12.34,3.19-15.81,5.75c-2.92,2.17-5,3.76-9.6,3.86h-.94c-4.57-.1-6.75-1.69-9.65-3.86C661.5,3.19,657.22,0,649.11,0s-12.37,3.19-15.84,5.75c-2.93,2.17-5.1,3.76-9.67,3.86h-1c-4.57-.1-6.74-1.69-9.64-3.86C609.57,3.19,605.26,0,597.18,0S584.8,3.19,581.34,5.75c-2.93,2.17-5.08,3.76-9.65,3.86h-.94c-4.57-.1-6.75-1.69-9.65-3.86C557.65,3.19,553.34,0,545.26,0s-12.38,3.19-15.85,5.75c-2.93,2.17-5.08,3.76-9.65,3.86h-.94c-4.57-.1-6.75-1.69-9.65-3.86C505.71,3.19,501.4,0,493.33,0s-12.39,3.19-15.84,5.75c-2.93,2.17-5.09,3.76-9.66,3.86h-.94c-4.57-.1-6.75-1.69-9.65-3.86C453.79,3.19,449.48,0,441.4,0S429,3.19,425.56,5.74c-3,2.25-5.21,3.87-10.12,3.87S408.33,8,405.3,5.75C401.85,3.19,397.53,0,389.46,0s-12.38,3.19-15.84,5.75c-2.93,2.17-5.07,3.76-9.64,3.86h-1c-4.57-.1-6.74-1.69-9.64-3.86C349.92,3.19,345.62,0,337.54,0s-12.39,3.19-15.85,5.75c-2.92,2.17-5.06,3.76-9.63,3.86h-1c-4.57-.1-6.74-1.69-9.64-3.86C298,3.19,293.69,0,285.61,0s-12.39,3.19-15.85,5.75c-2.93,2.17-5.08,3.76-9.65,3.86h-.94c-4.57-.1-6.75-1.69-9.65-3.86C246.07,3.19,241.76,0,233.68,0S221.3,3.19,217.84,5.75c-2.93,2.17-5.08,3.76-9.65,3.86h-1c-4.57-.1-6.74-1.69-9.64-3.86C194.13,3.19,189.81,0,181.74,0S169.37,3.19,165.9,5.75c-2.93,2.17-5.08,3.76-9.65,3.86h-.94c-4.57-.1-6.75-1.69-9.65-3.86C142.21,3.19,137.9,0,129.82,0S117.44,3.19,114,5.75c-3,2.25-5.28,3.86-10.14,3.86S96.77,8,93.74,5.75C90.28,3.19,86,0,77.9,0S65.51,3.19,62.05,5.75C59,8,56.84,9.61,51.92,9.61S44.83,8,41.8,5.75C38.35,3.19,34.11,0,26,0S13.58,3.19,10.12,5.75C7.09,8,4.91,9.61,0,9.61V30.44H830.87V9.61c-4.87,0-7.1-1.61-10.13-3.86C817.29,3.19,813,0,804.9,0Z"/><path class="cls-2" d="M804.9,14.83c-8.08,0-12.38,3.19-15.85,5.75-2.95,2.17-5,3.75-9.62,3.86h-.95c-4.57-.11-6.74-1.69-9.64-3.86C765.38,18,761.1,14.83,753,14.83S740.58,18,737.13,20.58c-2.93,2.17-5.12,3.75-9.69,3.86h-1c-4.57-.11-6.74-1.69-9.64-3.86C713.38,18,709,14.83,701,14.83S688.66,18,685.19,20.58c-2.92,2.17-5,3.75-9.6,3.86h-.94c-4.57-.11-6.75-1.69-9.65-3.86-3.5-2.56-7.78-5.75-15.89-5.75S636.74,18,633.27,20.58c-2.93,2.17-5.1,3.75-9.67,3.86h-1c-4.57-.11-6.74-1.69-9.64-3.86-3.43-2.56-7.74-5.75-15.82-5.75S584.8,18,581.34,20.58c-2.93,2.17-5.08,3.75-9.65,3.86h-.94c-4.57-.11-6.75-1.69-9.65-3.86-3.45-2.56-7.76-5.75-15.84-5.75S532.88,18,529.41,20.58c-2.93,2.17-5.08,3.75-9.65,3.86h-.94c-4.57-.11-6.75-1.69-9.65-3.86-3.46-2.56-7.77-5.75-15.84-5.75S480.94,18,477.49,20.58c-2.93,2.17-5.09,3.75-9.66,3.86h-.94c-4.57-.11-6.75-1.69-9.65-3.86-3.45-2.56-7.76-5.75-15.84-5.75S429,18,425.56,20.57c-3,2.25-5.21,3.87-10.12,3.87s-7.11-1.61-10.14-3.86c-3.45-2.56-7.77-5.75-15.84-5.75S377.08,18,373.62,20.58c-2.93,2.17-5.07,3.75-9.64,3.86h-1c-4.57-.11-6.74-1.69-9.64-3.86-3.46-2.56-7.76-5.75-15.84-5.75S325.15,18,321.69,20.58c-2.92,2.17-5.06,3.75-9.63,3.86h-1c-4.57-.11-6.74-1.69-9.64-3.86-3.46-2.56-7.77-5.75-15.85-5.75S273.22,18,269.76,20.58c-2.93,2.17-5.08,3.75-9.65,3.86h-.94c-4.57-.11-6.75-1.69-9.65-3.86-3.45-2.56-7.76-5.75-15.84-5.75S221.3,18,217.84,20.58c-2.93,2.17-5.08,3.75-9.65,3.86h-1c-4.57-.11-6.74-1.69-9.64-3.86-3.46-2.56-7.78-5.75-15.85-5.75S169.37,18,165.9,20.58c-2.93,2.17-5.08,3.75-9.65,3.86h-.94c-4.57-.11-6.75-1.69-9.65-3.86-3.45-2.56-7.76-5.75-15.84-5.75S117.44,18,114,20.58c-3,2.25-5.28,3.86-10.14,3.86s-7.09-1.61-10.12-3.86C90.28,18,86,14.83,77.9,14.83S65.51,18,62.05,20.58c-3,2.25-5.21,3.86-10.13,3.86s-7.09-1.61-10.12-3.86C38.35,18,34.11,14.83,26,14.83S13.58,18,10.12,20.58c-3,2.25-5.21,3.86-10.12,3.86V45.27H830.87V24.44c-4.87,0-7.1-1.61-10.13-3.86C817.29,18,813,14.83,804.9,14.83Z"/></g></g></svg>