<svg xmlns="http://www.w3.org/2000/svg" viewBox="0 0 94 94"><defs><style>.cls-1,.cls-5{fill:#fff;}.cls-2,.cls-3,.cls-4{fill:none;stroke:#44ace2;}.cls-2,.cls-3,.cls-4,.cls-5{stroke-linecap:round;stroke-linejoin:round;}.cls-3{stroke-dasharray:2.7 1.8;}.cls-4{stroke-dasharray:3 2;}.cls-5{stroke:#253879;}</style></defs><title>333</title><g id="Layer_2" data-name="Layer 2"><g id="Layer_1-2" data-name="Layer 1"><circle class="cls-1" cx="47" cy="47" r="47"/><line class="cls-2" x1="33.87" y1="53.59" x2="33.34" y2="55"/><line class="cls-3" x1="32.71" y1="56.68" x2="26.69" y2="72.66"/><line class="cls-2" x1="26.37" y1="73.51" x2="25.84" y2="74.91"/><line class="cls-4" x1="47" y1="55.27" x2="47" y2="76.02"/><line class="cls-4" x1="60.1" y1="53.27" x2="67.92" y2="75.08"/><line class="cls-4" x1="52.29" y1="55.27" x2="58.1" y2="77.4"/><line class="cls-4" x1="41.22" y1="55.27" x2="34.71" y2="76.75"/><polyline class="cls-5" points="50.25 26.9 50.25 22.75 43.5 22.75 43.5 26.9"/><rect class="cls-5" x="29.25" y="41.87" width="35.26" height="8.14"/><path class="cls-5" d="M46.88,26.9c-5.31,0-16.19,1.63-16.19,15H63.07C63.07,28.53,52.19,26.9,46.88,26.9Z"/><path class="cls-5" d="M45.88,20.75a6.88,6.88,0,0,1,6.87-6.87H66.42a1,1,0,0,1,0,2H52.75a4.88,4.88,0,0,0-4.87,4.87"/></g></g></svg>