<svg xmlns="http://www.w3.org/2000/svg" viewBox="0 0 830.87 476"><defs><style>.cls-1{fill:#2cb1f4;}.cls-2{fill:#fff;}</style></defs><title>Asset 10</title><g id="Layer_2" data-name="Layer 2"><g id="Layer_1-2" data-name="Layer 1"><rect class="cls-1" width="830.87" height="476"/><path class="cls-2" d="M0,0V344.58c4.91,0,7.09-1.61,10.12-3.86C13.58,338.16,17.89,335,26,335s12.35,3.19,15.8,5.75c3,2.25,5.2,3.86,10.12,3.86S59,343,62.05,340.72c3.46-2.56,7.77-5.75,15.85-5.75s12.38,3.19,15.84,5.75c3,2.25,5.26,3.86,10.12,3.86S111,343,114,340.72c3.44-2.56,7.74-5.75,15.82-5.75s12.39,3.19,15.84,5.75c2.9,2.18,5.08,3.76,9.65,3.86h.94c4.57-.1,6.72-1.68,9.65-3.86,3.47-2.56,7.77-5.75,15.84-5.75s12.39,3.19,15.85,5.75c2.9,2.18,5.07,3.76,9.64,3.86h1c4.57-.1,6.72-1.68,9.65-3.86,3.46-2.56,7.76-5.75,15.84-5.75s12.39,3.19,15.84,5.75c2.9,2.18,5.08,3.76,9.65,3.86h.94c4.57-.1,6.72-1.68,9.65-3.86,3.46-2.56,7.77-5.75,15.85-5.75s12.39,3.19,15.85,5.75c2.9,2.18,5.07,3.76,9.64,3.86h1c4.57-.1,6.71-1.68,9.63-3.86,3.46-2.56,7.77-5.75,15.85-5.75s12.38,3.19,15.84,5.75c2.9,2.18,5.07,3.76,9.64,3.86h1c4.57-.1,6.71-1.68,9.64-3.86,3.46-2.56,7.77-5.75,15.84-5.75s12.39,3.19,15.84,5.75c3,2.25,5.22,3.86,10.14,3.86s7.09-1.62,10.12-3.87c3.44-2.55,7.76-5.74,15.84-5.74s12.39,3.19,15.84,5.75c2.9,2.18,5.08,3.76,9.65,3.86h.94c4.57-.1,6.73-1.68,9.66-3.86,3.45-2.56,7.77-5.75,15.84-5.75s12.38,3.19,15.84,5.75c2.9,2.18,5.08,3.76,9.65,3.86h.94c4.57-.1,6.72-1.68,9.65-3.86,3.47-2.56,7.77-5.75,15.85-5.75s12.39,3.19,15.84,5.75c2.9,2.18,5.08,3.76,9.65,3.86h.94c4.57-.1,6.72-1.68,9.65-3.86,3.46-2.56,7.76-5.75,15.84-5.75s12.39,3.19,15.82,5.75c2.9,2.18,5.07,3.76,9.64,3.86h1c4.57-.1,6.74-1.68,9.67-3.86,3.47-2.56,7.73-5.75,15.84-5.75s12.39,3.19,15.89,5.75c2.9,2.18,5.08,3.76,9.65,3.86h.94c4.57-.1,6.68-1.68,9.6-3.86C688.66,338.16,693,335,701,335s12.38,3.19,15.84,5.75c2.9,2.18,5.07,3.76,9.64,3.86h1c4.57-.1,6.76-1.68,9.69-3.86,3.45-2.56,7.77-5.75,15.87-5.75s12.38,3.19,15.84,5.75c2.9,2.18,5.07,3.76,9.64,3.86h.95c4.58-.1,6.67-1.68,9.62-3.86,3.47-2.56,7.77-5.75,15.85-5.75s12.39,3.19,15.84,5.75c3,2.25,5.26,3.86,10.13,3.86V0Z"/></g></g></svg>