<?xml version="1.0" encoding="UTF-8"?>
<svg width="831px" height="31px" viewBox="0 0 831 31" version="1.1" xmlns="http://www.w3.org/2000/svg" xmlns:xlink="http://www.w3.org/1999/xlink">
    <!-- Generator: Sketch 48.2 (47327) - http://www.bohemiancoding.com/sketch -->
    <title>Asset_2</title>
    <desc>Created with Sketch.</desc>
    <defs></defs>
    <g id="Page-1" stroke="none" stroke-width="1" fill="none" fill-rule="evenodd">
        <g id="Asset_2" fill="#042B8A" fill-rule="nonzero">
            <path d="M830.87,19.24 L830.87,9.61 C826,9.61 823.77,8 820.74,5.75 C817.29,3.19 813,0 804.9,0 C796.8,0 792.52,3.19 789.05,5.75 C786.1,7.92 784.05,9.51 779.43,9.61 L778.48,9.61 C773.91,9.51 771.74,7.92 768.84,5.75 C765.38,3.19 761.1,0 753,0 C744.9,0 740.58,3.19 737.13,5.75 C734.2,7.92 732.01,9.51 727.44,9.61 L726.44,9.61 C721.87,9.51 719.7,7.92 716.8,5.75 C713.38,3.19 709,0 701,0 C693,0 688.66,3.19 685.19,5.75 C682.27,7.92 680.19,9.51 675.59,9.61 L674.65,9.61 C670.08,9.51 667.9,7.92 665,5.75 C661.5,3.19 657.22,0 649.11,0 C641,0 636.74,3.19 633.27,5.75 C630.34,7.92 628.17,9.51 623.6,9.61 L622.6,9.61 C618.03,9.51 615.86,7.92 612.96,5.75 C609.57,3.19 605.26,0 597.18,0 C589.1,0 584.8,3.19 581.34,5.75 C578.41,7.92 576.26,9.51 571.69,9.61 L570.75,9.61 C566.18,9.51 564,7.92 561.1,5.75 C557.65,3.19 553.34,0 545.26,0 C537.18,0 532.88,3.19 529.41,5.75 C526.48,7.92 524.33,9.51 519.76,9.61 L518.82,9.61 C514.25,9.51 512.07,7.92 509.17,5.75 C505.71,3.19 501.4,0 493.33,0 C485.26,0 480.94,3.19 477.49,5.75 C474.56,7.92 472.4,9.51 467.83,9.61 L466.89,9.61 C462.32,9.51 460.14,7.92 457.24,5.75 C453.79,3.19 449.48,0 441.4,0 C433.32,0 429,3.19 425.56,5.74 C422.56,7.99 420.35,9.61 415.44,9.61 C410.53,9.61 408.33,8 405.3,5.75 C401.85,3.19 397.53,0 389.46,0 C381.39,0 377.08,3.19 373.62,5.75 C370.69,7.92 368.55,9.51 363.98,9.61 L362.98,9.61 C358.41,9.51 356.24,7.92 353.34,5.75 C349.92,3.19 345.62,0 337.54,0 C329.46,0 325.15,3.19 321.69,5.75 C318.77,7.92 316.63,9.51 312.06,9.61 L311.06,9.61 C306.49,9.51 304.32,7.92 301.42,5.75 C298,3.19 293.69,0 285.61,0 C277.53,0 273.22,3.19 269.76,5.75 C266.83,7.92 264.68,9.51 260.11,9.61 L259.17,9.61 C254.6,9.51 252.42,7.92 249.52,5.75 C246.07,3.19 241.76,0 233.68,0 C225.6,0 221.3,3.19 217.84,5.75 C214.91,7.92 212.76,9.51 208.19,9.61 L207.19,9.61 C202.62,9.51 200.45,7.92 197.55,5.75 C194.13,3.19 189.81,0 181.74,0 C173.67,0 169.37,3.19 165.9,5.75 C162.97,7.92 160.82,9.51 156.25,9.61 L155.31,9.61 C150.74,9.51 148.56,7.92 145.66,5.75 C142.21,3.19 137.9,0 129.82,0 C121.74,0 117.44,3.19 114,5.75 C111,8 108.72,9.61 103.86,9.61 C99,9.61 96.77,8 93.74,5.75 C90.28,3.19 86,0 77.9,0 C69.8,0 65.51,3.19 62.05,5.75 C59,8 56.84,9.61 51.92,9.61 C47,9.61 44.83,8 41.8,5.75 C38.35,3.19 34.11,0 26,0 C17.89,0 13.58,3.19 10.12,5.75 C7.09,8 4.91,9.61 0,9.61 L0,30.44 L830.87,30.44 L830.87,19.24 Z" id="Shape"></path>
        </g>
    </g>
</svg>