<svg xmlns="http://www.w3.org/2000/svg" viewBox="0 0 75.69 26.6"><defs><style>.cls-1{fill:#042b8a;}.cls-2{fill:#fff;}</style></defs><title>Asset 1</title><g id="Layer_2" data-name="Layer 2"><g id="Слой_1" data-name="Слой 1"><circle class="cls-1" cx="6.24" cy="10.57" r="6.24"/><circle class="cls-2" cx="20.2" cy="19.65" r="3.12"/><path class="cls-2" d="M53.29,14.41c1.47-.26,5.35-.44,5.35-.44L64,15.52l2.53-9.14,6,2.6L73,10.83a16.19,16.19,0,0,1,0,2.69c-.1.91.86,1.36.72,1.85-.45,1.53-2.92,2.58-4.6,2.46-2.06-.14-7.56,3.3-7.56,3.3l-6,2.08-6-3.43-2.09-2.46,3.73-2.57Z"/><path class="cls-1" d="M73.8,15.37A2.59,2.59,0,0,1,73,16.54c.27,0,.58.05.93.1a1.5,1.5,0,0,0,1.72-.86c.28-.86-.67-1.38-2.49-1.71C73.35,14.63,73.91,15,73.8,15.37Z"/><path class="cls-1" d="M73.71,19a9,9,0,0,0-4.39-1.13h0l-.53,0c-1.74-.17-3.89-1-3.16-3.91C66.87,9,71.4,9.49,73,10.83,72.15,5.69,64.46.32,58.57,0c-.23,0-.48.2-.43.42.67,2.89,6.26,6.34,6.29,6.36-3.61-1.13-8.16-1.14-8.4-.3-.2.68,3.15,2.5,6.63,3.39l.42.1a7.93,7.93,0,0,0-.8,3.56c-2.38.15-4.14.41-4.64.49l.45,0-.39,0c-.59,0-.92.36-.88.76.12,1.18,4.06,1,6,.86A4.44,4.44,0,0,0,64.06,17c-3.48,1.81-4,4.51-2.32,4.17,2.94-.61,5.19-1.34,10.14-.23.42.1,1.81.16,2.24-.47S74.33,19.37,73.71,19Z"/><path class="cls-1" d="M71.93,13.38a.48.48,0,0,0-.33-.61.49.49,0,1,0-.28.94A.5.5,0,0,0,71.93,13.38Z"/><path class="cls-1" d="M56.09,18c-3-.88-4.63.36-6.06,1.6a3.35,3.35,0,0,1,.12-3.5,1.94,1.94,0,0,0,1.65.55,2,2,0,1,0-2.23-1.79c-1.22.08-2.09.76-3.31,1.07,0,0-.21.07-1-.5s-3.13,1-4.29,1.75c-.37.24-.62.47-.5.88a1.94,1.94,0,0,0,.74.95c1.62,1.2,3.85-2.77,5.94-1.36.75.51,1.17,2,2.41,2.34a9.83,9.83,0,0,1-1.17.94s-.19.17-1.22-.14-3.33,2.72-4.25,4c-.3.4-.47.73-.19,1.12a2.13,2.13,0,0,0,1.13.72c2.17.64,2.81-5.12,5.81-4.23,1.2.36,2,1.1,3.55,1.57a3.82,3.82,0,0,0,5-2.84C58.65,19.52,57.75,18.45,56.09,18Z"/></g></g></svg>