<?xml version="1.0" encoding="UTF-8"?> <svg xmlns="http://www.w3.org/2000/svg" id="Layer_1" data-name="Layer 1" viewBox="0 0 1440 892"> <defs> <style>.cls-1,.cls-10,.cls-13{fill:#fff;}.cls-2{fill:none;}.cls-10,.cls-13,.cls-3,.cls-4{isolation:isolate;font-family:Ubuntu-Bold, Ubuntu;font-weight:700;}.cls-3{font-size:17px;}.cls-3,.cls-4,.cls-9{fill:#042b8a;}.cls-10,.cls-13,.cls-4{font-size:14px;}.cls-10,.cls-5{letter-spacing:-0.08em;}.cls-6{letter-spacing:0.03em;}.cls-7{letter-spacing:0.02em;}.cls-8{letter-spacing:0em;}.cls-11{letter-spacing:0em;}.cls-12{letter-spacing:-0.02em;}.cls-14{letter-spacing:-0.07em;}.cls-15{letter-spacing:0.01em;}.cls-16{letter-spacing:-0.07em;}.cls-17{letter-spacing:-0.02em;}.cls-18{letter-spacing:0em;}.cls-19{letter-spacing:-0.04em;}.cls-20{letter-spacing:0.01em;}.cls-21{letter-spacing:-0.04em;}.cls-22{letter-spacing:0.01em;}.cls-23{letter-spacing:0.02em;}.cls-24{letter-spacing:0em;}.cls-25{letter-spacing:0.02em;}.cls-26{letter-spacing:0.02em;}</style> </defs> <title>Crawl Map</title> <g id="_2169715791616" data-name=" 2169715791616"> <path class="cls-1" d="M1099.2,212a1.58,1.58,0,0,0-1,1.3c0,.6,0,1.3.3,1.3l.7,3.9c0,1.3,2.3,1.9,2.6,3.5.3.6.7,1.3,1,1.3.3-1.3-1-4.8-1-6.8v-3.2ZM329,258.5l.6-.7c1.6-1.6,5.8-1.7,5.8-5.9a21.16,21.16,0,0,0-2.3-7.1c-.4-.6-.7-1.2-1-1.7a6.14,6.14,0,0,0,1.6-2.2h-2.9a13.68,13.68,0,0,1-3.4-.4,3.51,3.51,0,0,1-.8-.5v.3c-2.2-.8-2.6-2-4.9-.6-1.6,1-3.5.7-2.2,3.9C321.8,249.5,326.4,254,329,258.5Zm826.9,73.4v-2.3a15.69,15.69,0,0,1-1.6-.3,2.41,2.41,0,0,0-1.3,1.6c0,.3,1.6,1,2,1Zm3.9-4.9c1.3,0,1.6-.3,1.9-1.3l-1.9-1.3c-1,0-1-.3-1.6-.6v1.9C1158.2,326.4,1158.8,327,1159.8,327Zm1.4,12.6a1.36,1.36,0,0,0,1.3-1.3v-5.2c-1.3-1.9,0-4.5-2-4.5a14.5,14.5,0,0,0-1.9-.6v2.3c0,1.6,1,1.3,1,3.2,0,1.3-1,1.6-.9,3.2C1158.6,337.7,1160.5,339.6,1161.2,339.6Zm2.3,5.8c.7,1,0,2.6,1.3,2.6,0,1.6.7,1.6,1.6,1.6s1.3-.7,1.3-1.6c-.6-1-2.3-2.9-3.6-2.9A1,1,0,0,0,1163.5,345.4Zm3,6.8c0,.6,1.3.6,1.6.6s.3-.3.3-.6l-1-1A1,1,0,0,0,1166.5,352.2Zm1,5.8c0,1.3.7,1.6,1.3,1.6s1-1.3,1-1.6v-1.3a1.52,1.52,0,0,0-1-.6C1167.5,356,1167.5,357.3,1167.5,358Zm5.6,11.6a2.3,2.3,0,0,0-2-1.3v1.3c.3,0,.7.6,1,.6S1172.8,369.6,1173.1,369.6Zm2,3.9c-.6,0-1-1-1.6-1v1.3c0,.3.3,1,.7,1s1-.7,1.3-1Zm-.9,7.7a.9.9,0,0,0,1,1l.3-.3v-1.6l-1-.6A2.25,2.25,0,0,0,1174.2,381.2Zm.3,4.2c0,1.6,1.6,2.3,1.6,3.2v1.9s.7.6,1,.6c.6,0,.6-.7.6-1.6,0-2.9-1.3-3.9-2.3-5.5A2.15,2.15,0,0,0,1174.5,385.4Zm-.8,20.4c0,1.9-.3,3.2-.3,5.2,0,2.9,1.3,4.5,2.3,6.5.3,0,1.3-3.9,1.3-4.2v-5.8C1177,405.2,1173.7,403.6,1173.7,405.8Zm2.7,45.3c-1,0-1.3,1.6-1.3,2.9,0,.7.7.6,1,1,.3-.7,1.6-2.9,1.3-2.9C1176.7,452.1,1176.7,451.1,1176.4,451.1Zm-3.7-21.3c0-1.9,1.3-2.3,1.3-4.5,0-.6-.7-1.9-1.3-1.9-2.6,0-.6,5.8-4.5,5.9v1c0,1.3.7,1.9.7,2.9v5.2c.3.6-.3,2.9.7,3.9.3.3,1.3,0,1.3,1,0,1.6-.3,2.9,1,3.5,0-1.6,1-2.3.9-4.2,0-1.6-1.3-2.9-1.3-4.5,0-1.3,1.9-1.6,1.9-3.3C1173.3,432.7,1172.7,432,1172.7,429.8Zm-7.6,24a3.5,3.5,0,0,0,.7,2.3c1,3.2.7,7.4,4.9,7.4v-1a7,7,0,0,1-2-3.9v-4.5a12,12,0,0,1,1.3-3.9v-2.3C1167.3,448.6,1165.1,450.6,1165.1,453.8ZM1109,439.4c-2.9-2.6-2.3-7.1-5.6-10l.3-7.1c1.6-5.5,9.1,2.2,14.9.2-8.1-3.5-8.1-5.8-13.7-8-8.8-3.5-18.5-8.2-24.4-14.3-8.5-9.3-8.9-13.5-20.5-17.9-.6,3.6,4.9,7.7-2.2,7.5-4.9,0,6.8,5.8,8.2,12.2,2,2.6,2,3.9,3.9,6.4h1.6c9.4.9,22.5,17.9,27.4,29.8,13.3,5.1,14.1,20.3,27.1,26.9-.4-3.6-5.3-9.3-4-11,1.6-1.6,2.9-2.9,5.2-3s3.2,1.6,6.8,2.5C1130.4,443.1,1114.3,450.4,1109,439.4ZM502.4,275.2c1.9,0,2.9-1,4.2-1h3.6c.3,0,1.6,0,1.6-1.3,0-1-1-2.3-1.6-2.2s-2.3-4.2-2.6-4.8c-2.9.3-6.8,2.3-6.7,6.5C500.8,274.2,500.8,275.2,502.4,275.2Zm55.3-42.6c1.3.6,1,1.9,1.3,3.2s3.6,1.9,5.2,1.9c1.9,0,.9-2.9.9-4.5,1.3.3,2,1,2.9.9.3-1.6-1-2.9-.7-3.9.7,1,1.3,2.3,2.3,2.2,1.3,0,1.3-1.3,1.3-2,0-1.6-1-1.6,0-2.6.3.6,1.3,1.6,1.6,1.6,1.6,0,3.2-4.6,4.2-5.2.6.6,1,1.3,2,1.3s.6-1.6,1.6-1.6c.6,0,3.6,0,4.8-.7,1-.7.3-2.3,1.6-2.6,4.8-2.3,7.4-2.3,13.9-3.7l10.7-.1c4.5-2,10.7-3.3,10.6-10.1,0-4.5-6.5-4.8-6.5-4.1-2.3,1-2.6,3.9-3.8,4.2-1,.3-2.6-.3-3.2-.3-2.6,0-4.2,1.7-6.5,1.7-3.6,0-5.2-3.2-8.8-3.2v1.6l-7.4.1c-2.3,1-3.5,2.3-5.5,3-.6.3-.6,2.3-1.6,2.3a11.56,11.56,0,0,1-2-1.3c-1.3,1.3-1.6,1.6-2.9,2-.3-1.3-1-1-2.3-.9v2.3a2.37,2.37,0,0,1,1.3,1.3h-2.9c.3,1.6,1,1.9,1.6,3.5a2.38,2.38,0,0,1-2.3-1.3h-1.6c0,1.6.3,1.9,0,2.9a2.69,2.69,0,0,1-1.6,0c-1.9,0-.9,2.6-1.9,4.2-1-1-2-1.9-2.9-1.9-2.3,0-6.1,1.7-6.1,3.3,0,.6,3.9,2.9,4.6,3.5h-2.3c-.6,0-2.3-.3-2.3,1.3S556.7,232,557.7,232.6Zm-4.5,45.7c-.3,1.3-3.2,2.3-3.2,3.9,0,.6,4.9,7.1,5.2,7.1a3.2,3.2,0,0,0,2.9-3.3c0-.6-1.3-3.2-2.3-3.2-.6,0,0-2.3,0-2.3C555.8,279.6,553.9,278.9,553.2,278.3Zm74-12.6a2.14,2.14,0,0,0,3.2-1c-1.6,0-1.9-.6-3.2-.9ZM617.1,257v-1.6h-1.9c-1.6,0-4.2,1.3-4.2,3.6,0,1,1.6,1.6,2.3,1.6,1.9,0,2.9-.7,4.9,0V259c-1,0-1.6-.6-1.9-.6A2.27,2.27,0,0,0,617.1,257Zm-78.3-3.8c-.6,2.9,0,1.3,0,3.9,0,1.9-2.6,2-2.6,3.9,0,5.5,7.8,8,11.4,10.3h1.9c-.7-4.2-1.7-6.5-1.7-11.6-.1-11.7,4.7-13,9.9-18.2-.6-.3-1-.6-1-1a12.94,12.94,0,0,0,3.5-1.3c-1.6-2.3-3.3-2.9-3.9-5.8-1.6,0-4.2-.9-4.2-1.3a11.46,11.46,0,0,0-2.3-1,39,39,0,0,1-1.6,4.5c-1.3-.3-1.9-1.3-3.2-1.3h-2.3v1.6a10.91,10.91,0,0,0,2.3,2.9c-.7,0-3.6.4-3.9,1.3-1,1.3-.3,3.2-2.2,3.3-1.3,0-1.6-1.9-2.6-1.9-2.6,0-3.9,3.3-3.8,5.9C532.6,251,537.2,252.9,538.8,253.2Zm110.5,20v-1.9c-.3,0-.3-1-.7-1-1,0-.7-1.3-.7-2.3-1,.3-3.2,1.6-3.2,2.9C644.8,273,647.4,273.3,649.3,273.2Zm-13.2,3.7c0,1,1,1.3,1.6,1.3,1,0,4.8-2,4.8-3,0-.6-1.9-1.3-2.9-1.3C639.3,275.6,636.1,275.3,636.1,276.9ZM534,259c.3,0,1.3,0,1.3-.7v-3.2c0-1.6-.3-2.9-2-2.9-1.3,0-1.3,0-1.3,1.3,0,1.6,1.3,2.6,1.3,3.9C533.3,258.4,532.7,259.1,534,259ZM214.3,438.1c-2.1-3.1-6.4-2.3-5.5-4.9.2-.6,4.7-.2,8.3,1,2.4.8,5.1,1.2,6.4,2.1s1.2,1.9,1.6,1.9,1.9-.4,1.9-1.2c0-.3-2.9-.2,0-2.9,1.9-1.8,2.5,3.6,3.7,4.8,1.5,1.5,1.6,1.9,1.1,4.2-.3,1.4-2.4,1.8.2,2.2,1.1.1-.2,3.4.9,5.4,1.9,3.2-3.7,2.5-2.4,5.4,1,2.2-.2,3.1,3,3.5a6.35,6.35,0,0,0,2.2.8c1.2-.1,2.4-.9,2.4-.4.1,1,0,2.6.6,2.4s1.4-.5,2.1,0a34.87,34.87,0,0,1,2.6,3c1.7,1.9.3,2.5-.9,1-.3-.4-1.5.9-2.2.9-1.2,0-.7,1.6-1.4,2a4,4,0,0,1-2.5-1c-.5-.5.1-1.1-.8-1.8-.3-.2-1.3.3-1.5.1-.9-.8-1.1.2-1.3-2.7,0-1-3.1-3.9-3.6-2.3-.5,1.8-1.6.1-2.8-.2-1.7-.3-2.2,1.3-3.1.2-.3-.3-.8-1.8-1.3-2.2-1.8-1.4-5.2-2.4-6.6-2a5,5,0,0,0-1.9.7c-.9.4-5.7-1.7-5.9-2.5s.3-1.6.3-2.1c-.2-1.1-1.2-1.3-1-2.9.1-.6.1-.6,1.3.3.2.2.4.7.8.6s1.2-1.6,2.9-3.2c1.3-1.2,3.5-2,3.5-4.3,0-2.5-1.8-.6-2.7-1.3-.5-.3-.4-1.9-.5-4.2C212.3,437.7,214.3,438.1,214.3,438.1ZM1155,301.5c-2-5.5-4.2-2.2-8.5-7-1.6-1.9-.4-8.7,1.5-9.4,9.7-4-6.5-.9-9.5-12.9-1-4.8-2-4.8.3-7.1,10.3-9.5-8.2-10.3-10.5-14.5-11.5-20,4.6,2.9,1.5-11.7-1.6-1.3-3.9-2.2-8.1-1.5-3.9-.6-6.2-.9-7.8-3.2a12.42,12.42,0,0,1-1.7-5.2s-2.3-3.2-4.8,1.7c-1.3,1.6,3.3,6.4-1.2,5.8-4.2-1.3-11.8-17.7-17.7-23.8-3.6-3.9-.4-6.1,3.8-6.8.6-1.9,0-2.9-2.6-4.8l-.1-7.4c1.3-2.9,4.9,4.5,6.8,4.5,3.9-1-4.3-7.4-4.3-11,.2-18.4,16.1-12.1,14.4-14.4-18.9-23.6-13.4-34.4-17.6-53.9-1-2.9,7.4-6.2,7.3-11.1,0-2.9-2.6-6.8-9.1-5.7-10.3,2-17.5-3.1-22.3,8.6-3.8,4.6-9.4.1-5.8-2.5,3.5-3.3,8.4-3.6,7.4-10.4-2.1-16.8-14-8-17.3-14.4-.7-7.8,15.2,2.1,11.9-9.8-1-7.1,2.5-5.8,4.8-5.5,10.4,1.5,5.8-6.2,10-6.9,6.5-1,8.7-9.5,6.4-11.1-9.7,5.3-7.2-7.1-16.2-1.8-4.8,2.6,8.3-8.8-4.7-15.5-8,4.9-15.8,6.6-16,19.2,0,0,5.5-1.7,9.4.9-.3,4.5,0,5.5-4.8,5.5-2.9,0-5.9-4.8-14.6-1.2-10.9,12.1-26.4,16.4-35.7,29.8-2.6,3.9-4.8,10.4-7.6,15-4.5,7.2-8.6,12-7,13.3,5.2,3.8,5.2,1.9,10.1,2.5,4.2-2.3,4.9,4.8,4.9,4.8-1.9,1.6.7,5.5-6.4,3-2.5,4.2-6.1,3.3-9.7,1.1-2.9-1.6.4,5.2-1.2,10.4-1.6,5.5-10.3,6.9-10.2,14.7a3.64,3.64,0,0,0,.3,1.6c1,3.9,4.6,8.1,6.6,9.7,4.9,8.7-9.8-7.7-14.3-2.1-3.5,3.9-.7-2.9-11.1-4.8-9.7-1.5-16.1,9.8-16,14.4,0,2.6-1.2,15.5-11.6,10.5-8.1,1.7-10.9,6.6-11,4s3.2-8.8-7.8-3.8c-9,3,.8,15.2-3.7,16.9-.6,1.3-1.1-9-2.7-7.4-1.3,1.3-2.9,2.3-4.5,3.6-2.6-1.6,4.2-3.6,2.5-6.5-6.1,1.3-12.9,11.1-20.3,9.9,7.5,6.1-.3,4.5-.9,13.3,6.1.3,3.8-8.4,7.1,3.5,7.8,2.5,3.9,5.8-2.2,3.9-4.8,4.2,8.2,10-2.2,7.1-9.4.1-5.5-1.6-10.9,7.2-5.1,4.6-8.4-3.8-8.4.7,0,3.9,8.2,17.1-1.5,14.6-6.5-1.6-11-4.8-11.1-12.5-.7-2.6-6.5-.3-5.9-4.8-2.9-2.9.6-7.1-12.3-5.7-.6,7.1-11.3.4-14.2,5-2.3,1.3,2.6,6.1,3.3,7.7,3,6.4-6.4,5.6-11.9,7.9-9.7,4.3-5.9-6.7-8.8-4.8l-10.3,2.4c-1.9,1.6-6.7,5.6-8.1,3.3-2.3-4.2-1.6,2.6-8.4,1h-1a11.44,11.44,0,0,1-2.3-1.3c-9.7,3,2.6,5.8-.6,7.8-3.2,7.1-11.3,8.2-14.1,12.1-.4-7.8,19.2-26.1,19-41.6-.1-5.8-9.8-16.4-15.4-16.4-1.9,0-5.8.1-7.8,1.4-.6,5.8-3.5,4.9-5.5,4.9s9.6-10.8-8.2-7.7c-1.9-1.3,7.4-2,2.2-6.8-4.2-1.9-6.8-1.2-7.1.4-1.9,2-3.5,7.1-5.8,9.8-2.2,2.9,4.6,6.8-2.2,9.7,0,0-9.4-2.8-.6,5.2-3.6-1.6-3.9-.9-4.9-.9-.3,0-3.8,5.2-5.8,4.9s3.2-5.5-.4-5.5c-4.2,3.6-6.8,3-9.4,3.6-6.5.1.7,2.9-1.6,4.5-1.6,1.3-7.7,1.7-11,4.3-5.8,3.9-9,8.2-11.9,12.4-3.2,3.9,8.9,19.7-1.2,11.7-9,2-12.6,1.1-18.1,1.1-7.8.1-9,3.3-5.1,10.4,1.3,2.2-3.8,7.8,2.7,10.3,2.3-1.6,1.7,6.8,4.2,4.8,3,3.9,4.3,5.5-.2,10.4,0,0,3.6,8.1,2.7,10.3-4.1,7.5-4.2,4.9-5.1,3,5.1-11.4.5-14.6-2.6-2.2,0-1.9,1.8-11,3.1-13,6.7-11.7-2.6-2.9-4.6-7.7-2.3-5.2-4.3-5.1-8.5-9.6,0,.3-.6.7-1.6.7-1.9.3-4.5.7-4.8,2,5.9,6.1.7,6.1-5.5.7-1.3,2-6.4,5.6,4.6,10.6,0,0,4.9,6.4,2,8.1-2-1-2.3-3.9-4.3-5.5-4.5,0-7.8-4.1-8.1-5.8-.4-4.8,2.2-7.8,3.8-11.7a24.65,24.65,0,0,0-.1-9.1c-4.2-3.5-1.8,12.3-5.4,11.7-7.4,1.7-7.4,4.3-8,7.5-1.2,5.5,4.3,13.9-.2,15.9-1.6,4.5-3.2,8.1-3.1,11.4.1,5.8-1.2,8.4,9.4,5.4,4.5.9,6.8,5.4,7.9,10.9s-3.5,3.9-4.1,7.5c-.3,4.2,7.2,6.4,6.9,7.4-3.9.4-8.1-2.2-8.1-5.1s.9-5.2,2.8-9.7c-3.3-2.6-2.3-8.7-9.5-7.7-5.8.7-6.4,4.3-4.7,16.2-6.4,3.3-4.8,3.3-6.4,6.5-4.8,8.5-10,2-11.9,9.5-4.9-5.1-11.7-2.5-11.7-7,0-2.3-5.9-4.8.9-4.5,3.9.3,1.7,7.4,7.5,7.4,4.5-.4,6.7-10.7,13.8-15.7,1.5-10,8.7.2,1.5-14.2-3.3-6.1,3.4-19.1,6.3-25,2.9-6.2-3.3-4.8-1.4-12.3,1.9-6.5,4.8-1.7,7-11.1.9-4.9-.4-6.1-6.2-8.4-5.5-2.5-5.5-6.1-9.1.1-1.3,2-4.1,15.9-15.1,16.3-6.4,6.2,3.9,7.4-1.8,11.3-.9,7.1-10,9.1-3.1,13,4.2,2.2,2,6.5,4.3,9,0,0,1.3,6.5-2.5,6.8-4.5.7-7.9-10.6-12.5-18-.3-.6-1-1.9-1.3-2.6-3-4.5-11.1-6.1-14.7-10.9,0,0-1.3-.3-4.2,1-1.9,1,.7,4.2-.3,6.2,2,10.3-4.8,2.6-6.4,5.2,1.3,4.5-4.8,8.5-4.2,1.7,0-3.2,5.8-2.6,2.8-7.5-9.7,2.7-11.3,2.4-17.5-2.4-7.1,5.6-5.5,1.7-7.4,1-5.2-1.6-7.8-3.2-1.7-4.2-.7-3.6,12.6-4.6,2.2-5.5h-5.2c-1.3,3.2-3.5,6.5-5.5,0a96,96,0,0,1-10,.7c-9.4.1-11.7-4.1-19.7,6.3-1.6,2.3-3.9-1.9-6.2-3.5.9-4.2-1.4-9.4-1.4-9.4,2.6-.7,1.3-4.2,10-.7,4.9,1.6,3.5-7.8,2.2-11-4.2-2.6-7.9-9.6-7.8-7.1-.3,5.5,2.6,6.1-7,12-9.3,5.9,3.9,6.8-4.1,12.3,0,.3-1-.6-3.2,1.3-.6,1-1.9,2.6-3.2,4.9.9-5.2-9.1-2.5.3-5.8-1.3-2.9-3.6-6.4-5.6-6.1-6.4,4.3-11.6.4-15.2.5-8.7.1-3.8,11-7.3,13.7-3.9-2.6-8.2-10.6-7.6-16.8.3-1.6-8.8-6.1-9,5.6,6.8,4.5,2,7.4-.2,7.8-3.5-.3-5.1-1.8-5.5-4,.1-.1.2-.1.3-.2-.7-3.6-.1-8.1-.1-10.4-.7-3.9.9-5.5,4.4-12.7,9-3.6,7.1-8.2,6.6-18.5h0v-2.3c2.1-14.9,2,4.2,5.9,10,2.7,12.6,9.6,22.9,20.3,22.8s15.1-8.5,13.4-19.2c-.7-5.8-5.3-9.3-4.4-23.3-4.2-4.5-2-5.2-5.6-10-17.8-1.8,3.2-1.3-3.9-5.1-1.1-13.6,3.3,1.9,4.8-1-2-3.5-1-8.1-5.9-7.7-2.6,1.6-7.5-3.2-10.1-3.8-11-1.5-14.9,2.7-14.5,12.1.7,8.7-7.1,5.2-11.6,7.9a14.62,14.62,0,0,0-2.9,5.2c-2.5,5.2-4.8,10.7-10.6,9.8-1.3-.3-.6,4.5-4.8,4.6.4,6.1-1.2,6.8-3.8,6.8.1,7.8-2.2,7.5-7.1,7.5,1.4,12-1.5,15.2-2.8,15.2a148.71,148.71,0,0,1-22.9,2.5h-.3a33.43,33.43,0,0,1-10-1.2c-.9,2.9-2.2,5.8-2.2,8.4-.9,4.2,5.2,5.1,2.7,10.3-2.2,4.2-2.3-4.2-3.6-6.1-2.9-1.3-4.5-1.3-5.5-1.9-3.6-3.2-4.2.7-5.2,0v2.9c-6.4.1.5.6-9.7.7-1.6,3.3-3.9,3.6-5.5,5.9-1,1.3-.9,2.9-2.2,4.2-1,.7-3.6-.3-4.8.7-1.6,1.3.3,3.2,0,5.2a38.73,38.73,0,0,1-3.9,1.7c-2.2,2-2.2,6.2-3.5,8.4-.6,1.3-2.3,1.3-2.2,3.3,0,3.2,2.9,3.5,3,5.8,0,1.6-2.2,2-2.2,3.6,0,.7,4.9,2.2,5.2,3.5.7,1.9,0,5.2,2,5.2-.6,1.6-1.6,1.6-3.2,2.3-2.3,1.3-.9,4.9-6.1,4.9-.6,3.6-1.6,5.5-2.2,8.4-.3,1.9,1,2.6.4,4.2-.6,1-2.3.7-2.9.7,0,2.3,2.6,2.6,2.6,5.2,0,1-.6,1.6-.6,2.6l-.3,1c-1,.3-.6,1.6-1.6,1.6-4.2,0-5.2-5.8-8.5-5.7-1.6,0-.9,2.6-.9,3.2,0,3.2-6.4,3.6-6.4,8.1,0,2.3,1,2.9,2.6,2.9a2.55,2.55,0,0,0,2.3-1.3c1.3,1.6,2.3,3.9,3.3,5.1,2,1.6,6.2.6,6.2,4.2,0,1.6-1.3,3.2-1.6,4.2l.3,2.9a5.84,5.84,0,0,1,1.9-2c-1.3,1-2.2,3.3-3.2,3.3-.3,0-1-1-1-1-1.6.7-4.2,2.9-4.2,4.6,0,2.6,2.3,3.2,3.3,4.5,1.3,1.3.4,3.2.7,4.2h0c-.9,1-1,2.4-1.6,3.2-.6,1.3-2.9,1.6-2.9,3.3,0,3.2,2.6,2.2,3.6,3.5,1.3,2.3,0,4.2,1.7,5.5,1.3,1,5.5.9,5.5,2.5v3.6c0,1.6-.6,2.6.4,4.2.7,1.6,2.6.6,3.3,2.2,1.3,2.6,3.6,7.1,3.6,7.1a32,32,0,0,0,2.2,6.9,7.33,7.33,0,0,1,.1,2.2c-1.3,2-3.9,1.6-6.5,1.7,0,1.6,1,1.9,1,3.2-2.6.3-2.9-.9-4.5,0v1.9c0,2.3-2.2,6.2-5.4,6.2-2.6,0-3.9-5.1-7.2-5.1-.3,0-.6,1-1.3,1-1.6,0-2.3-1.9-3.9-1.9-1.9,0-4.2,2.6-5.1,3.9,2.6,2.2,5.5,2.2,6.5,2.9,3.3,2.6,1.7,3.9-4.2,2.9-.3,0-1-.3-1.3-.3-2.6-.6-4.9-1.6-5.8-2.5-3.6-4.2-2.2,1.6-3.9,2,2.3,2.2,4.2,4.2,2.3,7.1,0,0-7.5-4.8-9.1-1.5-2.2,4.5-4.2,3.6-5.5,2.3l-2.5-3.5c-2.5-2.7-5.2-.7-2.7,1.8,1.3,1.3.1,4.1.1,6,0,3.6,4.6,8.7,2.4,10.7-.6,1.9,1,1.3,2.3,4.2,1.7,4.2.7,7.4,1.7,12.6a32.47,32.47,0,0,0,1.3,4.2c.6-.7,1.3-.7,2.3,0,.3.3,2.3,3.5,3.6,3.9,0,4.4,6.2,11.2,9.6,13l-.1.2c0,.7,1.6,1.6,1.6,1.6,1,1.3,2.7,8.1,4.3,8.7,0,1.6,2,2.2,2,3.5,0,.6-1,1-1,1.6,0,2.6,5.8,2.5,8.1,2.5h0c-.2.4,0,.3,0,1.3,0,1.9,2.9,1.6,4.6,3.8.9,1.2.7,3.7,1.9,5.3a5.12,5.12,0,0,0-3.1,4.7c0,3.6,3.3,2.9,3.6,5.2,1,2.6,1,5.2,2.7,7.1l.1,7.1c.3,1.3,2,3.5,3.6,3.5,1.9,0,2.3-1.6,3.9-1.7h4.2c1.3,0,2.3.3,3.2-.7a25.1,25.1,0,0,0-.7-8.4c1.2-5.5-3.7-10.3,1.8-15.5.6-1.9,7.4-5.6,4.8-9.4-2.3-3.2-2.6-5.5-.7-8.7.3-1,1.3-1,2.6-1.3A10.66,10.66,0,0,0,323,532a5.77,5.77,0,0,1,4.2-2.9c2.3,0,4.2,1.3,6.5,1.2a36.72,36.72,0,0,1,10.4-.4c-1-1-.7-1-1.6-1.9l-.1-6.2c2.3.6,2.3,1.9,4.2,2.6.9-2.9.6-4.2.6-7.8s.6-7.1-2-9.4c-1.6-1.3-5.2-.3-5.2-3.5,0-2.6,2.2-2.9,3.2-5.2l-1-1c-.7-.6-2.3-1.3-2.3-3.2s1.3-2.9,2.6-3.9c2.6-1.3,6.1-1.7,6.7-6.5.6-3.6,6.1-3.9,9-4.9,1.3-.3,1.3-2,2.9-2h1.6c-.9,2,0,3.6.1,9.1.7.3,2.3,1.3,3.6,1.3,4.9,0,2.2-7.5,8-7.5,2.6,0,3.9-1.7,6.1-1.7,1,0,2,1,3.2.9,3.2,0,4.8-1.7,8.4-1.7.3,0,1.3-.3,1.6-.3l-.6.6c3.2.6,2.3,5.2,6.5,5.1,1.6,0,2.6-.7,3.9,0,1.3,1,.4,3.6.7,4.8.7,1.9,5.8.9,5.9,4.2,0,2.6,1.7,9.4,4.3,10.6,2.6.3,2.6,1.6,2.9,3.2a5.19,5.19,0,0,0,5.2,4.5c2.6,0,4.5-2,7.4-2,4.5,0,3.6,4.2,6.5,5.4h5.5c3.6,2.9,2.4,11.6,8.5,11.6,1.3,0,1.9-1.3,3.6-1.3,2.9,0,3,4.8,6.2,4.8,5.5-.1,7.8-2,9-5.9,0-3.6-2.9-2.6-3.9-4.2-.3-.6.3-1.6-.3-2.3-.3-1-2.9-.9-2.9-1.9,0-.6,1-1.3,1-1.9,0-1.9-2-1.6-2-3.2l.3-2.3v1.3l-.3,1c0-2.6,7.4-.4,7.4-.4,1.3-2.9.6-8.4,4.1-8.5,3.2,0,4.6,2.9,7.8,2.8,1,0,1.3-.7,1.3-1.6,0-1.3-4.2-3.2-4.9-4.5v-1.6c1.6,0,2.3,0,2.9-.7-.7-1-2.9-1.3-2.9-2.6a3.85,3.85,0,0,1,3.5-3.6c1,0,6.5,2.9,7.5,3.8,4.2,0,5.5-.1,7.8-.1,3.9,0,6.8,3.2,10.7,1.9h2.6a.65.65,0,0,0,.6.6c1.6,0,2.6-2,4.2-2,1.9,0,2.6,1.9,3.3,2.6a3.08,3.08,0,0,1,2.3-1l12.3-.1c1.3,0,1.9-.7,2.2-2,1.9.6,2.9,0,4.5-.7v-.4c.1,0,.2.1.3.1,2.6,0,3.9,0,6.5,1.6,1.9,1,2.6,3.9,5.2,3.8a2.14,2.14,0,0,0,1.7-.8,58.27,58.27,0,0,1,2.9,8.2c0,2.9-.9,4.2-2.9,5.5v1.9c1.6,0,2.6.9,3.6.9,1.3,0,1.9-1.3,3.2-1.3,2.6,0,1.7,4.8,3.6,4.8,1,0,1.3-.3,1.9-1.3a22.65,22.65,0,0,0,2.6,2.9c.6,0,2.9-.3,2.9.6,0,2.3-3.2,1-3.2,3.6,0,1.3,1.3,1.3,1.6,1.3h1.3c1.6,0,2.3,1.6,3.6,1.6,2.3,0,3.2-2,5.5-2.3,2.5-1,3.9-1.3,4.9-2.1,3.7-.5,5.7-2.2,9.3-2.2h2.3c0,2.3-1.3,2.9-3.2,2.9v2.3c2.6,3.5,5.9,5.8,7.9,10l12,34.8c0,.6.7,1.6,1.3,1.6,3.2,0,2.5-5.5,5.5-5.6,1,0,3.6,1.3,3.6,2.2,0,2.9,2,2.2,2,6.1,1-.3,3.2,0,4.8,0,4.2,0,6.8-2,10-2,3.6,0,6.2,3.5,7.2,6.1h.9l-.3.3.3-.3c0,.3-.6,1-.6,1.3,0,3.6,3.3,3.9,5.5,4.8,1.6,1,.7,2.9.7,4.5.4,2.9,4.2,3.2,6.8,3.2a2,2,0,0,0,2.3,2.2c2.9,0,2.9-3.6,6.1-3.9v3.9c0,1.9,2,2.6,2.6,4.2,0,0,5.2.9,7.4-2,.9-5.2,7.1-2.7,10-4.3,5.8-3.6,1.2-8.3,21.5-14.4,7.4-2.7,21.7.1,21.1,3.4-.6,5.8,7.8,5.4,14.6,5.4,11.7-.1,18.4-.8,18.4-9.5,0-1.9-4.9-3.5-4.9-7.4-.1-6.1,5.1-10.7,7-14.6,8.1,1.9,18.5,3.4,26.3,5.6,5.5,1.6,3.4,12.6,12.4,12.5,11-.1,10.6-7.9,23.5-8,17.5-5.7,11.6,7.6,19.2,8,1.8.1,4,.9,6.8.8,20.4-.8,33.1-20,35.7-27.2,1.6-3.6,8.4.9,12.6-.1,2.3-.3,4.5-3.6,6.4-3.6,3.6,0,4.9,1.6,9.4,2.2,8.8,1.5,8.3-7.8,13.5-11.4,2.6-1.6-3.3-3.9-3.3-10.3-.1-7.4-.1-8.7,1.8-16.5,3.4-14.6-7.5-3.8-8.5-8.3.6-7.1,5.1-13,9.9-16.6a28.22,28.22,0,0,1,10.3-5.3c12.9-.8,13.2-3.4,15.2-3.1,14.2,1.5,31.3,27.6,39.8,31,5.2,2.2,8.4-4.6,14.2-4.7,30.5-.3,20.8,25.3,34.6-1,2.9-5.2,4.4-12,8-15a2.24,2.24,0,0,1,2,1.3c1.6,1.6,2.3,4.5,5.9,4.8-1.2,6.2-.2,11,1.4,15.8v.3h.1c2.3,6.4,5.5,13.1,6.2,23.6-2.9,1-8.7,1-11.6,2,0,4.5-2.2,10.4-1.8,10.7,3.6,3.9,6.2,3.5,12.1,14.1.3.6,2.3,5.5,2.3,7.4-5.8,3.3-2.9,6.5,1.4,9.4-3.6-4.5-3.6-4.5,1.9-6.8.3-7.8-.7-10,1.8-12,4.2-3.3,2.6,2.6,6.5,2.5,9.4-.1,13.5-15.3,14.7-20.2,1.9-9.1-.3-32.4-.5-52.1-2.6-5.8-4-10.6-4.3-14.2h0c-1.9-10.4,1.8-13.7-1.1-20.1-4.6-10.6-13.7-16.7-18.7-26.7-3.6-7.7-5.3-19-15.1-20.6-6.2-.3,10-8.2-7.2-5.8-3.2,0-8.2-7.4-16.8,2.4.1,7.1,4.6,10,1.1,12-5.7,9.1-8.5-8.3-8.8-3.2-1.3,2,1.3,6.1-.6,7.8-3.9-3.5-.5-17.2-14.6-3.8-7.8,1,.2-14.2.8-24.9.9-12.6-1.8-21-1.2-22,3.5-8.1-.2-18.4-.3-30.7-.1-8.7,5.8-5.6,8.3-12.7,0,0,4.5-6.5,10.3-5.9-2-2.9-1-4.5,1.2-6.5v.3c2.6-2.3,6.8-4.6,10.3-8.8,0,0-4.9-4.5-3.3-7.4,2.2-3.6,10.6-5.9,15.4-10.5,2.9.3-3.1,10.4,1.7,8.1,2.2-6.5,7.4-7.8,5.7-15.3,2.6-3.9,5.5-5.9,5.7-10.7,0-3.2-7.1,7.5-8.7,4.9-3-5.2-4.4-23.6-7.4-26.8-5.2-4.8.2-11.7,2.1-18.1,6.5,1.9,2.2-7.1,4.1-6.2,2.3,1.6,6.3,12.2,7.9,9.3,2.9-6.2,3.9,2.2,6.2.9,4.5-2.3-5.9-10.9-3.4-17.4,1-2,.6-3.9.3-5.5-2-5.5-9.8-8.3-9.8-8.7,0-2.6,3.5-11.7,7.7-11.1-6.7,14,9.2,15.5,11.2,20,4.3,10-.5,13.3,6.4,28.4a110.2,110.2,0,0,1,6.3,17.4c4.7,14.5-5.4,13.6,3.7,19.7,5.2,3.5-.9,8.7,11.2,19.6,0,0,9.8,10.3,21.5,15,9.1,3.8,26,12.4,35.7,16.8C1159.3,313.1,1157.7,306.6,1155,301.5Z"></path> <path class="cls-1" d="M500.3,598.5c-1.4,3.4-7.8-1.2-6.9,2.3l1.3,4.5c1,3.5-6.3-2.9-8.1,1.2-3.9,8.8,8.6,6.4,5.7,12.6-3.6,7.7-3.8,1-9.9-.4l-4.7-1.1c-4.2-1-1.9-.1-3.5-4.5-1.4-3.9,1.5-2.3-5.2-5.1l-2.4-1c-.2-.1-.5-.3-.7-.4-7.7-4.4-6.8,5.2-11.3-1.2l-6.2-8.7c-1.3-1.8-5.7-12.6-10.2-14.3-5.5-2.1,2.2-.6-6.5-5.6-6.8-3.9-1.8,2.1-10.6,1.5-7.8-.5-3,0-11.1.8-2.7.3,2.3,6.9-1.1,6.9h-2.3c-5.4,0,2.2-6.7-1.1-9.1-3.7-2.6-10.1,2.1-12.1,5-4.1,6-5.7-2.2-9.6,7.5-5.6,13.8-1.3,2.2,0,11.4.4,2.7,5.4.6,5.7,3.4,1.4,12.1-2.9,6.3-4.6,9.1-2.5,4.3-3.3,7.6,1.1,8l16.8,1.5c8.8.8,4.5-.4,11.8,7.6,7.9,8.8-1.3,9.6-6.9,14.9-3.4,3.2-4.5-5.8-9.1-6.9-5.6-1.2-3.3,3.3-8,5.7s-3.2-7.9-8-3.4c-6,5.6,2.5,5.5,1.1,13.9-.8,4.7-1.5.8-2.2,4.4-.4,2.3,2.2,3.6,3.5,5.6,2.1,3.2,4.9,2.1,3.3,5.8-1.8,4.2-12,6.2-6.9,8,15.4,5.4,15.1,0,18.3,16,.9,4.4,2.2,6,6.9,3.4,3.4-1.9,7-13.6,9.1-17.2,3.1-5.4,3.3-15.2,9.2-17.1,13.2-4.3,19.1.2,24.7,9.6,3.7,6.3,3.7,19.7,9.6,25.8,5.6,5.9,10.4,3.3,15.2,5.4,10.7,4.5,6.8-2.4,10.9,11,1.7,5.3-1.4,4.2-2.1,10-.4,3.1,1.9-.7,3.4,2.3,2.4,4.6-3.6,5.1-1.1,10.3,1.2,2.5,8.4,1.8,9.3,3.8,1.8,4.1-5.4,7,4.4,7.6,6.3.4-.2-5.1,14.6-8.2,15.3-3.2,5.3-13.3,15.1-7.8l16,9.1c5,2.9-.5-7.6,5.7-8,5.1-.4,4.5,5.7,9.8,7.3,7.4,2.3,18.9,1.9,27.7,7.7,3.8,2.5,8.3,10.9,11.6,6.7,4.5-5.7,3.5-4.6,5.7-9.1,2.5-5-1.7-7.4-1.7-11.8,0-4.1,2-2.5.7-8.4,0,0-.2-.4-.1-.4,4.4-1.1,6-1.7,10.5-.2,4.2,1.5,7.2,4.9,8.6.1,1.3-4.3-5.1-3.5,6.1-19.3,1.4-2,1.7,1.5,4.3,2.6,2.4,1,.7.2,2.7.8l3.5,1.1c2.9.9-.3,1.6,4.6.3,2-.5,5.6-.8,5.6-2.5V696.7c0-7.4,9.7.5,13.7-9.1,1.1-2.7-.3-5.2-3.4-6.9-4.4-2.3-4.7,2.3-7.7,1.8-3.4-.6-9-17.5-12.8-18.9-6.5-2.4-9.2,4.4-14.9,1.1-3.8-2.2-1.8-10.4-4.6-8l-5.5,4.8-5.7-19.9c-2.1-7.3-5.7-11.7-9.4-16.9-1.7-2.4,7.9-9.2-4.5-5.8-6.5,1.7-19.1,11.3-16,3.5l2.3-5.7c3.1-7.8-5.7-1.1-14.8-5.7-4.1-2.1,4-6.5,2.3-12.6-.5-1.9-2.2-.4-3.7-.9-8.3-2.5-4.2-4.4-11.9-3.5-11.2,1.3-16.5-.7-22.4.6-8,1.8-26.3-7.9-28.2-6.5C499.3,590.5,501.8,594.8,500.3,598.5Z"></path> </g> <rect class="cls-2" x="301.5" y="368.1" width="89" height="23.3"></rect> <text class="cls-3" transform="translate(312.19 381.3)"> <tspan xml:space="preserve"> Москва</tspan> </text> <rect class="cls-2" x="341.8" y="345.2" width="125.5" height="14"></rect> <text class="cls-4" transform="translate(360.54 356.03)">Красногорск</text> <rect class="cls-2" x="583.3" y="515.3" width="118.9" height="14"></rect> <text class="cls-4" transform="translate(596.72 526.21)">Новосибирск</text> <rect class="cls-2" x="670.55" y="464.7" width="118.9" height="14"></rect> <text class="cls-4" transform="translate(683.97 475.61)"> <tspan class="cls-5">Т</tspan> <tspan x="7.55" y="0">омск</tspan> </text> <rect class="cls-2" x="517.1" y="488.6" width="118.9" height="16.9"></rect> <text class="cls-3" transform="translate(554.16 501.81)">Омск</text> <rect class="cls-2" x="507.5" y="417.9" width="118.9" height="16.9"></rect> <text class="cls-3" transform="translate(538.66 431.06)">Сур<tspan class="cls-6" x="30.58" y="0">г</tspan><tspan class="cls-7" x="38.71" y="0">у</tspan><tspan class="cls-8" x="48.33" y="0">т</tspan></text> <path class="cls-9" d="M362.8,288.2a8.52,8.52,0,0,1-2.5-1.7A9.7,9.7,0,0,1,358,283a13.19,13.19,0,0,1-.8-4.7,13.6,13.6,0,0,1,.8-4.7,10.65,10.65,0,0,1,2.3-3.5l.3-.3a14.81,14.81,0,0,1-5.2-6.9,1.4,1.4,0,0,1,.2-1.4,1.71,1.71,0,0,1,1.3-.7h.2a13.56,13.56,0,0,1,8.8,4.3c0-3.1.7-6.9,3.7-9.6a1.5,1.5,0,0,1,1.1-.4,1.6,1.6,0,0,1,1.4.8c2.7,4.3,1.4,9.7.4,12.5a10.06,10.06,0,0,1,2.5,1.7,9.7,9.7,0,0,1,2.3,3.5,13.19,13.19,0,0,1,.8,4.7,14,14,0,0,1-.8,4.7,10.43,10.43,0,0,1-2.2,3.5,12,12,0,0,1-2.6,1.8l-4.8,8.2Zm4.9-15.1a3.06,3.06,0,0,0-1.7.4,2.94,2.94,0,0,0-1.2,1,6,6,0,0,0-.8,1.6,7.8,7.8,0,0,0-.3,2.2,7.32,7.32,0,0,0,.3,2.2,6,6,0,0,0,.8,1.6,4,4,0,0,0,1.2,1,5,5,0,0,0,3.4,0,2.34,2.34,0,0,0,1.2-1,4,4,0,0,0,.8-1.6,7.8,7.8,0,0,0,.3-2.2,8.52,8.52,0,0,0-.3-2.3,6,6,0,0,0-.8-1.6,4,4,0,0,0-1.2-1A4.67,4.67,0,0,0,367.7,273.1Z"></path> <path class="cls-1" d="M370.8,256.1a.86.86,0,0,1,.6.3c2.8,4.5.8,10.5,0,12.6h0a7.71,7.71,0,0,1,3,1.9,8.3,8.3,0,0,1,2,3.1,13.56,13.56,0,0,1,0,8.6,9.75,9.75,0,0,1-2,3.1,7.82,7.82,0,0,1-2.6,1.7l-4.1,7-4.2-7.1a7.39,7.39,0,0,1-2.5-1.7,8.3,8.3,0,0,1-2-3.1,12.7,12.7,0,0,1,.1-8.6,8.51,8.51,0,0,1,2.1-3.1c.4-.4.9-.7,1.3-1.1a13.8,13.8,0,0,1-5.9-7.2.51.51,0,0,1,.5-.7h.1c5.8.7,8.4,3.9,10.2,6.5h0c-.5-3-.7-8.5,3.1-12.1,0-.1.2-.1.3-.1m-3.1,28.3a4.64,4.64,0,0,0,2.1-.4,4,4,0,0,0,1.6-1.3,5.73,5.73,0,0,0,1-1.9,10.07,10.07,0,0,0,.3-2.5,9.52,9.52,0,0,0-.3-2.5,6.26,6.26,0,0,0-1-2,5.09,5.09,0,0,0-1.6-1.3,5.13,5.13,0,0,0-4.2.1,4,4,0,0,0-1.6,1.3,5.36,5.36,0,0,0-1,2,10.07,10.07,0,0,0-.3,2.5,9.52,9.52,0,0,0,.3,2.5,4.89,4.89,0,0,0,1,1.9,5.09,5.09,0,0,0,1.6,1.3,6.65,6.65,0,0,0,2.1.3m3.1-30.3a2.41,2.41,0,0,0-1.8.7,13.26,13.26,0,0,0-4,8.2,15.08,15.08,0,0,0-7.8-3.1h-.3a2.61,2.61,0,0,0-2.1,1.1,2.41,2.41,0,0,0-.3,2.3,16.13,16.13,0,0,0,4.6,6.6,13.35,13.35,0,0,0-2.1,3.3,13.64,13.64,0,0,0-.9,5.1,12.76,12.76,0,0,0,.9,5,10.08,10.08,0,0,0,2.5,3.8,11.38,11.38,0,0,0,2.5,1.8l3.9,6.6,1.7,2.9,1.7-2.9,3.8-6.5a9.66,9.66,0,0,0,2.6-1.9,9.89,9.89,0,0,0,2.4-3.8,13.48,13.48,0,0,0,.9-5,12.76,12.76,0,0,0-.9-5,10.08,10.08,0,0,0-2.5-3.8,9,9,0,0,0-1.9-1.5c1-3.2,1.9-8.3-.8-12.6a2,2,0,0,0-2.1-1.3Zm-3.1,28.3a5.07,5.07,0,0,1-1.3-.2,5.5,5.5,0,0,1-.9-.7,2.62,2.62,0,0,1-.6-1.3,5.82,5.82,0,0,1-.3-1.9,5.41,5.41,0,0,1,.3-1.9c.2-.5.4-.9.6-1.3a2.18,2.18,0,0,1,.9-.7,2.5,2.5,0,0,1,1.3-.3,2.77,2.77,0,0,1,1.3.3,5.5,5.5,0,0,1,.9.7,2.62,2.62,0,0,1,.6,1.3,6,6,0,0,1,.3,2,5.41,5.41,0,0,1-.3,1.9c-.2.5-.4.9-.6,1.3a2.18,2.18,0,0,1-.9.7,5.28,5.28,0,0,1-1.3.1Z"></path> <path class="cls-9" d="M328,348.2a8.52,8.52,0,0,1-2.5-1.7,9.7,9.7,0,0,1-2.3-3.5,13.19,13.19,0,0,1-.8-4.7,13.6,13.6,0,0,1,.8-4.7,10.65,10.65,0,0,1,2.3-3.5l.3-.3a14.81,14.81,0,0,1-5.2-6.9,1.4,1.4,0,0,1,.2-1.4,1.71,1.71,0,0,1,1.3-.7h.2a13.56,13.56,0,0,1,8.8,4.3c0-3.1.7-6.9,3.7-9.6a1.5,1.5,0,0,1,1.1-.4,1.6,1.6,0,0,1,1.4.8c2.7,4.3,1.4,9.7.4,12.5a10.06,10.06,0,0,1,2.5,1.7,9.7,9.7,0,0,1,2.3,3.5,13.19,13.19,0,0,1,.8,4.7,14,14,0,0,1-.8,4.7,10.43,10.43,0,0,1-2.2,3.5,12,12,0,0,1-2.6,1.8l-4.8,8.2Zm4.9-15.1a3.06,3.06,0,0,0-1.7.4,2.94,2.94,0,0,0-1.2,1,6,6,0,0,0-.8,1.6,7.8,7.8,0,0,0-.3,2.2,7.32,7.32,0,0,0,.3,2.2,6,6,0,0,0,.8,1.6,4,4,0,0,0,1.2,1,5,5,0,0,0,3.4,0,2.34,2.34,0,0,0,1.2-1,4,4,0,0,0,.8-1.6,7.8,7.8,0,0,0,.3-2.2,8.52,8.52,0,0,0-.3-2.3,6,6,0,0,0-.8-1.6,4,4,0,0,0-1.2-1A8.58,8.58,0,0,0,332.9,333.1Z"></path> <path class="cls-1" d="M336,316.1a.86.86,0,0,1,.6.3c2.8,4.5.8,10.5,0,12.6h0a7.71,7.71,0,0,1,3,1.9,8.3,8.3,0,0,1,2,3.1,13.56,13.56,0,0,1,0,8.6,9.75,9.75,0,0,1-2,3.1,7.82,7.82,0,0,1-2.6,1.7l-4.1,7-4.2-7.1a7.39,7.39,0,0,1-2.5-1.7,8.3,8.3,0,0,1-2-3.1,12.7,12.7,0,0,1,.1-8.6,8.51,8.51,0,0,1,2.1-3.1c.4-.4.9-.7,1.3-1.1a13.8,13.8,0,0,1-5.9-7.2.51.51,0,0,1,.5-.7h.1c5.8.7,8.4,3.9,10.2,6.5h0c-.5-3-.7-8.5,3.1-12.1a1,1,0,0,1,.3-.1m-3.1,28.4a4.64,4.64,0,0,0,2.1-.4,4,4,0,0,0,1.6-1.3,5.73,5.73,0,0,0,1-1.9,10.07,10.07,0,0,0,.3-2.5,9.52,9.52,0,0,0-.3-2.5,6.26,6.26,0,0,0-1-2,5.09,5.09,0,0,0-1.6-1.3,5.13,5.13,0,0,0-4.2.1,4,4,0,0,0-1.6,1.3,5.36,5.36,0,0,0-1,2,10.07,10.07,0,0,0-.3,2.5,9.52,9.52,0,0,0,.3,2.5,4.89,4.89,0,0,0,1,1.9,5.09,5.09,0,0,0,1.6,1.3,11.76,11.76,0,0,0,2.1.3m3.1-30.4a2.41,2.41,0,0,0-1.8.7,13.26,13.26,0,0,0-4,8.2,15.08,15.08,0,0,0-7.8-3.1h-.3A2.61,2.61,0,0,0,320,321a2.41,2.41,0,0,0-.3,2.3,16.13,16.13,0,0,0,4.6,6.6,13.35,13.35,0,0,0-2.1,3.3,13.64,13.64,0,0,0-.9,5.1,12.76,12.76,0,0,0,.9,5,10.08,10.08,0,0,0,2.5,3.8,11.38,11.38,0,0,0,2.5,1.8l3.9,6.6,1.7,2.9,1.7-2.9,3.8-6.5a9.66,9.66,0,0,0,2.6-1.9,9.89,9.89,0,0,0,2.4-3.8,13.48,13.48,0,0,0,.9-5,12.76,12.76,0,0,0-.9-5,10.08,10.08,0,0,0-2.5-3.8,9,9,0,0,0-1.9-1.5c1-3.2,1.9-8.3-.8-12.6a2.13,2.13,0,0,0-2.1-1.3Zm-3.1,28.4a5.07,5.07,0,0,1-1.3-.2,5.5,5.5,0,0,1-.9-.7,2.62,2.62,0,0,1-.6-1.3,5.82,5.82,0,0,1-.3-1.9,5.41,5.41,0,0,1,.3-1.9c.2-.5.4-.9.6-1.3a2.18,2.18,0,0,1,.9-.7,2.5,2.5,0,0,1,1.3-.3,2.77,2.77,0,0,1,1.3.3,5.5,5.5,0,0,1,.9.7,2.62,2.62,0,0,1,.6,1.3,6,6,0,0,1,.3,2,5.41,5.41,0,0,1-.3,1.9c-.2.5-.4.9-.6,1.3a2.18,2.18,0,0,1-.9.7c-.4,0-.8.1-1.3.1Z"></path> <path class="cls-9" d="M341.1,356.4a8.52,8.52,0,0,1-2.5-1.7,9.7,9.7,0,0,1-2.3-3.5,14.21,14.21,0,0,1,0-9.4,10.65,10.65,0,0,1,2.3-3.5l.3-.3a14.81,14.81,0,0,1-5.2-6.9,1.4,1.4,0,0,1,.2-1.4,1.71,1.71,0,0,1,1.3-.7h.2a13.56,13.56,0,0,1,8.8,4.3c0-3.1.7-6.9,3.7-9.6a1.5,1.5,0,0,1,1.1-.4,1.6,1.6,0,0,1,1.4.8c2.7,4.3,1.4,9.7.4,12.5a10.06,10.06,0,0,1,2.5,1.7,9.7,9.7,0,0,1,2.3,3.5,13.6,13.6,0,0,1,.8,4.7,14,14,0,0,1-.8,4.7,10.43,10.43,0,0,1-2.2,3.5,12,12,0,0,1-2.6,1.8l-4.8,8.2Zm4.9-15a3.06,3.06,0,0,0-1.7.4,2.94,2.94,0,0,0-1.2,1,6,6,0,0,0-.8,1.6,7.8,7.8,0,0,0-.3,2.2,7.32,7.32,0,0,0,.3,2.2,6,6,0,0,0,.8,1.6,4,4,0,0,0,1.2,1,5,5,0,0,0,3.4,0,2.34,2.34,0,0,0,1.2-1,4,4,0,0,0,.8-1.6,7.8,7.8,0,0,0,.3-2.2,8.52,8.52,0,0,0-.3-2.3,6,6,0,0,0-.8-1.6,4,4,0,0,0-1.2-1A4.31,4.31,0,0,0,346,341.4Z"></path> <path class="cls-1" d="M349.2,324.4a.86.86,0,0,1,.6.3c2.8,4.5.8,10.5,0,12.6h0a7.71,7.71,0,0,1,3,1.9,8.3,8.3,0,0,1,2,3.1,13.56,13.56,0,0,1,0,8.6,9.75,9.75,0,0,1-2,3.1,7.82,7.82,0,0,1-2.6,1.7l-4.1,7-4.2-7.1a7.39,7.39,0,0,1-2.5-1.7,8.3,8.3,0,0,1-2-3.1,12.7,12.7,0,0,1,.1-8.6,8.51,8.51,0,0,1,2.1-3.1c.4-.4.9-.7,1.3-1.1a13.8,13.8,0,0,1-5.9-7.2.51.51,0,0,1,.5-.7h.1c5.8.7,8.4,3.9,10.2,6.5h0c-.5-3-.7-8.5,3.1-12.1,0-.1.1-.1.3-.1M346,352.7a4.64,4.64,0,0,0,2.1-.4,4,4,0,0,0,1.6-1.3,5.73,5.73,0,0,0,1-1.9,10.07,10.07,0,0,0,.3-2.5,9.52,9.52,0,0,0-.3-2.5,6.26,6.26,0,0,0-1-2,5.09,5.09,0,0,0-1.6-1.3,5.13,5.13,0,0,0-4.2.1,4,4,0,0,0-1.6,1.3,5.36,5.36,0,0,0-1,2,10.07,10.07,0,0,0-.3,2.5,9.52,9.52,0,0,0,.3,2.5,4.89,4.89,0,0,0,1,1.9,5.09,5.09,0,0,0,1.6,1.3,6.65,6.65,0,0,0,2.1.3m3.2-30.3a2.41,2.41,0,0,0-1.8.7,13.26,13.26,0,0,0-4,8.2,15.08,15.08,0,0,0-7.8-3.1h-.3a2.61,2.61,0,0,0-2.1,1.1,2.41,2.41,0,0,0-.3,2.3,16.13,16.13,0,0,0,4.6,6.6,13.35,13.35,0,0,0-2.1,3.3,13.64,13.64,0,0,0-.9,5.1,12.76,12.76,0,0,0,.9,5,10.08,10.08,0,0,0,2.5,3.8,11.38,11.38,0,0,0,2.5,1.8l3.9,6.6,1.7,2.9,1.7-2.9,3.8-6.5a9.66,9.66,0,0,0,2.6-1.9,9.89,9.89,0,0,0,2.4-3.8,13.48,13.48,0,0,0,.9-5,12.76,12.76,0,0,0-.9-5,10.08,10.08,0,0,0-2.5-3.8,9,9,0,0,0-1.9-1.5c1-3.2,1.9-8.3-.8-12.6a2.17,2.17,0,0,0-2.1-1.3ZM346,350.7a5.07,5.07,0,0,1-1.3-.2,5.5,5.5,0,0,1-.9-.7,2.62,2.62,0,0,1-.6-1.3,5.82,5.82,0,0,1-.3-1.9,5.41,5.41,0,0,1,.3-1.9c.2-.5.4-.9.6-1.3a2.18,2.18,0,0,1,.9-.7,2.5,2.5,0,0,1,1.3-.3,2.77,2.77,0,0,1,1.3.3,5.5,5.5,0,0,1,.9.7,2.62,2.62,0,0,1,.6,1.3,6,6,0,0,1,.3,2,5.41,5.41,0,0,1-.3,1.9c-.2.5-.4.9-.6,1.3a2.18,2.18,0,0,1-.9.7c-.4,0-.8.1-1.3.1Z"></path> <path class="cls-9" d="M562.8,410.8a8.52,8.52,0,0,1-2.5-1.7,9.7,9.7,0,0,1-2.3-3.5,13.19,13.19,0,0,1-.8-4.7,13.6,13.6,0,0,1,.8-4.7,10.65,10.65,0,0,1,2.3-3.5l.3-.3a14.81,14.81,0,0,1-5.2-6.9,1.4,1.4,0,0,1,.2-1.4,1.71,1.71,0,0,1,1.3-.7h.2a13.56,13.56,0,0,1,8.8,4.3c0-3.1.7-6.9,3.7-9.6a1.5,1.5,0,0,1,1.1-.4,1.6,1.6,0,0,1,1.4.8c2.7,4.3,1.4,9.7.4,12.5a10.06,10.06,0,0,1,2.5,1.7,9.7,9.7,0,0,1,2.3,3.5,13.6,13.6,0,0,1,.8,4.7,14,14,0,0,1-.8,4.7,10.43,10.43,0,0,1-2.2,3.5,12,12,0,0,1-2.6,1.8l-4.8,8.2Zm4.8-15.1a3.06,3.06,0,0,0-1.7.4,2.94,2.94,0,0,0-1.2,1,6,6,0,0,0-.8,1.6,7.8,7.8,0,0,0-.3,2.2,7.32,7.32,0,0,0,.3,2.2,6,6,0,0,0,.8,1.6,4,4,0,0,0,1.2,1,5,5,0,0,0,3.4,0,2.34,2.34,0,0,0,1.2-1,4,4,0,0,0,.8-1.6,7.8,7.8,0,0,0,.3-2.2,8.52,8.52,0,0,0-.3-2.3,6,6,0,0,0-.8-1.6,3.2,3.2,0,0,0-2.9-1.3Z"></path> <path class="cls-1" d="M570.8,378.7a.86.86,0,0,1,.6.3c2.8,4.5.8,10.5,0,12.6h0a7.71,7.71,0,0,1,3,1.9,8.3,8.3,0,0,1,2,3.1,13.56,13.56,0,0,1,0,8.6,9.75,9.75,0,0,1-2,3.1,7.82,7.82,0,0,1-2.6,1.7l-4.1,7-4.2-7.1a7.39,7.39,0,0,1-2.5-1.7,8.3,8.3,0,0,1-2-3.1,12.7,12.7,0,0,1,.1-8.6,8.51,8.51,0,0,1,2.1-3.1c.4-.4.9-.7,1.3-1.1a13.8,13.8,0,0,1-5.9-7.2.51.51,0,0,1,.5-.7h.1c5.8.7,8.4,3.9,10.2,6.5h0c-.5-3-.7-8.5,3.1-12.1,0-.1.1-.1.3-.1M567.6,407a4.64,4.64,0,0,0,2.1-.4,4,4,0,0,0,1.6-1.3,5.73,5.73,0,0,0,1-1.9,10.07,10.07,0,0,0,.3-2.5,9.52,9.52,0,0,0-.3-2.5,6.26,6.26,0,0,0-1-2,5.09,5.09,0,0,0-1.6-1.3,5.13,5.13,0,0,0-4.2.1,4,4,0,0,0-1.6,1.3,5.36,5.36,0,0,0-1,2,10.07,10.07,0,0,0-.3,2.5,9.52,9.52,0,0,0,.3,2.5,4.89,4.89,0,0,0,1,1.9,5.09,5.09,0,0,0,1.6,1.3,6.65,6.65,0,0,0,2.1.3m3.2-30.3a2.41,2.41,0,0,0-1.8.7,13.26,13.26,0,0,0-4,8.2,15.08,15.08,0,0,0-7.8-3.1h-.3a2.61,2.61,0,0,0-2.1,1.1,2.41,2.41,0,0,0-.3,2.3,16.13,16.13,0,0,0,4.6,6.6,13.35,13.35,0,0,0-2.1,3.3,13.64,13.64,0,0,0-.9,5.1,12.76,12.76,0,0,0,.9,5,10.08,10.08,0,0,0,2.5,3.8,11.38,11.38,0,0,0,2.5,1.8l3.9,6.6,1.7,2.9,1.7-2.9,3.8-6.5a9.66,9.66,0,0,0,2.6-1.9,9.89,9.89,0,0,0,2.4-3.8,13.48,13.48,0,0,0,.9-5,12.76,12.76,0,0,0-.9-5,10.08,10.08,0,0,0-2.5-3.8,9,9,0,0,0-1.9-1.5c1-3.2,1.9-8.3-.8-12.6a2.08,2.08,0,0,0-2.1-1.3ZM567.6,405a5.07,5.07,0,0,1-1.3-.2,5.5,5.5,0,0,1-.9-.7,2.62,2.62,0,0,1-.6-1.3,5.82,5.82,0,0,1-.3-1.9,5.41,5.41,0,0,1,.3-1.9c.2-.5.4-.9.6-1.3a2.18,2.18,0,0,1,.9-.7,2.5,2.5,0,0,1,1.3-.3,2.77,2.77,0,0,1,1.3.3,5.5,5.5,0,0,1,.9.7,2.62,2.62,0,0,1,.6,1.3,6,6,0,0,1,.3,2,5.41,5.41,0,0,1-.3,1.9c-.2.5-.4.9-.6,1.3a2.18,2.18,0,0,1-.9.7,4.89,4.89,0,0,1-1.3.1Z"></path> <path class="cls-9" d="M571.5,479.4a8.52,8.52,0,0,1-2.5-1.7,9.7,9.7,0,0,1-2.3-3.5,13.19,13.19,0,0,1-.8-4.7,13.6,13.6,0,0,1,.8-4.7,10.65,10.65,0,0,1,2.3-3.5l.3-.3a14.81,14.81,0,0,1-5.2-6.9,1.4,1.4,0,0,1,.2-1.4,1.71,1.71,0,0,1,1.3-.7h.2a13.56,13.56,0,0,1,8.8,4.3c0-3.1.7-6.9,3.7-9.6a1.5,1.5,0,0,1,1.1-.4,1.6,1.6,0,0,1,1.4.8c2.7,4.3,1.4,9.7.4,12.5a10.06,10.06,0,0,1,2.5,1.7,9.7,9.7,0,0,1,2.3,3.5,13.19,13.19,0,0,1,.8,4.7,14,14,0,0,1-.8,4.7,10.43,10.43,0,0,1-2.2,3.5,12,12,0,0,1-2.6,1.8l-4.8,8.2Zm4.8-15a3.06,3.06,0,0,0-1.7.4,2.94,2.94,0,0,0-1.2,1,4,4,0,0,0-.8,1.6,7.8,7.8,0,0,0-.3,2.2,7.32,7.32,0,0,0,.3,2.2,6,6,0,0,0,.8,1.6,4,4,0,0,0,1.2,1,5,5,0,0,0,3.4,0,2.34,2.34,0,0,0,1.2-1,6,6,0,0,0,.8-1.6,7.8,7.8,0,0,0,.3-2.2,8.52,8.52,0,0,0-.3-2.3,6,6,0,0,0-.8-1.6,3.2,3.2,0,0,0-2.9-1.3Z"></path> <path class="cls-1" d="M579.5,447.4a.86.86,0,0,1,.6.3c2.8,4.5.8,10.5,0,12.6h0a7.71,7.71,0,0,1,3,1.9,8.3,8.3,0,0,1,2,3.1,13.56,13.56,0,0,1,0,8.6,9.75,9.75,0,0,1-2,3.1,7.82,7.82,0,0,1-2.6,1.7l-4.1,7-4.2-7.1a7.39,7.39,0,0,1-2.5-1.7,8.3,8.3,0,0,1-2-3.1,12.7,12.7,0,0,1,.1-8.6,8.51,8.51,0,0,1,2.1-3.1c.4-.4.9-.7,1.3-1.1a13.8,13.8,0,0,1-5.9-7.2.51.51,0,0,1,.5-.7h.1c5.8.7,8.4,3.9,10.2,6.5h0c-.5-3-.7-8.5,3.1-12.1,0-.1.1-.1.3-.1m-3.2,28.3a4.64,4.64,0,0,0,2.1-.4A4,4,0,0,0,580,474a5.73,5.73,0,0,0,1-1.9,10.07,10.07,0,0,0,.3-2.5,9.52,9.52,0,0,0-.3-2.5,6.26,6.26,0,0,0-1-2,5.09,5.09,0,0,0-1.6-1.3,5.13,5.13,0,0,0-4.2.1,4,4,0,0,0-1.6,1.3,5.36,5.36,0,0,0-1,2,10.07,10.07,0,0,0-.3,2.5,9.52,9.52,0,0,0,.3,2.5,4.89,4.89,0,0,0,1,1.9,5.09,5.09,0,0,0,1.6,1.3,6.65,6.65,0,0,0,2.1.3m3.2-30.3a2.41,2.41,0,0,0-1.8.7,13.26,13.26,0,0,0-4,8.2,15.08,15.08,0,0,0-7.8-3.1h-.3a2.61,2.61,0,0,0-2.1,1.1,2.41,2.41,0,0,0-.3,2.3,16.13,16.13,0,0,0,4.6,6.6,13.35,13.35,0,0,0-2.1,3.3,13.64,13.64,0,0,0-.9,5.1,12.76,12.76,0,0,0,.9,5,10.08,10.08,0,0,0,2.5,3.8,11.38,11.38,0,0,0,2.5,1.8l3.9,6.6,1.7,2.9,1.7-2.9,3.8-6.5a9.66,9.66,0,0,0,2.6-1.9,9.89,9.89,0,0,0,2.4-3.8,13.48,13.48,0,0,0,.9-5,12.76,12.76,0,0,0-.9-5,10.08,10.08,0,0,0-2.5-3.8,9,9,0,0,0-1.9-1.5c1-3.2,1.9-8.3-.8-12.6a2.08,2.08,0,0,0-2.1-1.3Zm-3.2,28.3a5.07,5.07,0,0,1-1.3-.2,5.5,5.5,0,0,1-.9-.7,2.62,2.62,0,0,1-.6-1.3,5.82,5.82,0,0,1-.3-1.9,5.41,5.41,0,0,1,.3-1.9c.2-.5.4-.9.6-1.3a2.18,2.18,0,0,1,.9-.7,2.5,2.5,0,0,1,1.3-.3,2.77,2.77,0,0,1,1.3.3,5.5,5.5,0,0,1,.9.7,2.62,2.62,0,0,1,.6,1.3,6,6,0,0,1,.3,2,5.41,5.41,0,0,1-.3,1.9c-.2.5-.4.9-.6,1.3a2.18,2.18,0,0,1-.9.7c-.3,0-.8.1-1.3.1Z"></path> <path class="cls-9" d="M638.8,504.4a8.52,8.52,0,0,1-2.5-1.7,9.7,9.7,0,0,1-2.3-3.5,13.19,13.19,0,0,1-.8-4.7,13.6,13.6,0,0,1,.8-4.7,10.65,10.65,0,0,1,2.3-3.5l.3-.3a14.81,14.81,0,0,1-5.2-6.9,1.4,1.4,0,0,1,.2-1.4,1.71,1.71,0,0,1,1.3-.7h.2a13.56,13.56,0,0,1,8.8,4.3c0-3.1.7-6.9,3.7-9.6a1.5,1.5,0,0,1,1.1-.4,1.6,1.6,0,0,1,1.4.8c2.7,4.3,1.4,9.7.4,12.5a10.06,10.06,0,0,1,2.5,1.7,9.7,9.7,0,0,1,2.3,3.5,13.19,13.19,0,0,1,.8,4.7,14,14,0,0,1-.8,4.7,10.43,10.43,0,0,1-2.2,3.5,12,12,0,0,1-2.6,1.8l-4.8,8.2Zm4.8-15a3.06,3.06,0,0,0-1.7.4,2.94,2.94,0,0,0-1.2,1,4,4,0,0,0-.8,1.6,7.8,7.8,0,0,0-.3,2.2,7.32,7.32,0,0,0,.3,2.2,6,6,0,0,0,.8,1.6,4,4,0,0,0,1.2,1,5,5,0,0,0,3.4,0,2.34,2.34,0,0,0,1.2-1,6,6,0,0,0,.8-1.6,7.8,7.8,0,0,0,.3-2.2,8.52,8.52,0,0,0-.3-2.3,6,6,0,0,0-.8-1.6,4,4,0,0,0-1.2-1A4.31,4.31,0,0,0,643.6,489.4Z"></path> <path class="cls-1" d="M646.8,472.4a.86.86,0,0,1,.6.3c2.8,4.5.8,10.5,0,12.6h0a7.71,7.71,0,0,1,3,1.9,8.3,8.3,0,0,1,2,3.1,13.56,13.56,0,0,1,0,8.6,9.75,9.75,0,0,1-2,3.1,7.82,7.82,0,0,1-2.6,1.7l-4.1,7-4.2-7.1a7.39,7.39,0,0,1-2.5-1.7,8.3,8.3,0,0,1-2-3.1,12.7,12.7,0,0,1,.1-8.6,8.51,8.51,0,0,1,2.1-3.1c.4-.4.9-.7,1.3-1.1a13.8,13.8,0,0,1-5.9-7.2.51.51,0,0,1,.5-.7h.1c5.8.7,8.4,3.9,10.2,6.5h0c-.5-3-.7-8.5,3.1-12.1,0-.1.1-.1.3-.1m-3.2,28.3a4.64,4.64,0,0,0,2.1-.4,4,4,0,0,0,1.6-1.3,5.73,5.73,0,0,0,1-1.9,10.07,10.07,0,0,0,.3-2.5,9.52,9.52,0,0,0-.3-2.5,6.26,6.26,0,0,0-1-2,5.09,5.09,0,0,0-1.6-1.3,5.13,5.13,0,0,0-4.2.1,4,4,0,0,0-1.6,1.3,5.36,5.36,0,0,0-1,2,10.07,10.07,0,0,0-.3,2.5,9.52,9.52,0,0,0,.3,2.5,4.89,4.89,0,0,0,1,1.9,5.09,5.09,0,0,0,1.6,1.3,6.65,6.65,0,0,0,2.1.3m3.2-30.3a2.41,2.41,0,0,0-1.8.7,13.26,13.26,0,0,0-4,8.2,15.08,15.08,0,0,0-7.8-3.1h-.3a2.61,2.61,0,0,0-2.1,1.1,2.41,2.41,0,0,0-.3,2.3,16.13,16.13,0,0,0,4.6,6.6,13.35,13.35,0,0,0-2.1,3.3,13.64,13.64,0,0,0-.9,5.1,12.76,12.76,0,0,0,.9,5,10.08,10.08,0,0,0,2.5,3.8,11.38,11.38,0,0,0,2.5,1.8l3.9,6.6,1.7,2.9,1.7-2.9,3.8-6.5a9.66,9.66,0,0,0,2.6-1.9,9.89,9.89,0,0,0,2.4-3.8,13.48,13.48,0,0,0,.9-5,12.76,12.76,0,0,0-.9-5,10.08,10.08,0,0,0-2.5-3.8,9,9,0,0,0-1.9-1.5c1-3.2,1.9-8.3-.8-12.6a2.08,2.08,0,0,0-2.1-1.3Zm-3.2,28.3a5.07,5.07,0,0,1-1.3-.2,5.5,5.5,0,0,1-.9-.7,2.62,2.62,0,0,1-.6-1.3,5.82,5.82,0,0,1-.3-1.9,5.41,5.41,0,0,1,.3-1.9c.2-.5.4-.9.6-1.3a2.18,2.18,0,0,1,.9-.7,2.5,2.5,0,0,1,1.3-.3,2.77,2.77,0,0,1,1.3.3,5.5,5.5,0,0,1,.9.7,2.62,2.62,0,0,1,.6,1.3,6,6,0,0,1,.3,2,5.41,5.41,0,0,1-.3,1.9c-.2.5-.4.9-.6,1.3a2.18,2.18,0,0,1-.9.7c-.3,0-.8.1-1.3.1Z"></path> <path class="cls-9" d="M656.45,484.25a8.52,8.52,0,0,1-2.5-1.7,9.7,9.7,0,0,1-2.3-3.5,13.19,13.19,0,0,1-.8-4.7,13.6,13.6,0,0,1,.8-4.7,10.65,10.65,0,0,1,2.3-3.5l.3-.3a14.81,14.81,0,0,1-5.2-6.9,1.4,1.4,0,0,1,.2-1.4,1.71,1.71,0,0,1,1.3-.7h.2a13.56,13.56,0,0,1,8.8,4.3c0-3.1.7-6.9,3.7-9.6a1.5,1.5,0,0,1,1.1-.4,1.6,1.6,0,0,1,1.4.8c2.7,4.3,1.4,9.7.4,12.5a10.06,10.06,0,0,1,2.5,1.7,9.7,9.7,0,0,1,2.3,3.5,13.19,13.19,0,0,1,.8,4.7,14,14,0,0,1-.8,4.7,10.43,10.43,0,0,1-2.2,3.5,12,12,0,0,1-2.6,1.8l-4.8,8.2Zm4.8-15a3.06,3.06,0,0,0-1.7.4,2.94,2.94,0,0,0-1.2,1,4,4,0,0,0-.8,1.6,7.8,7.8,0,0,0-.3,2.2,7.32,7.32,0,0,0,.3,2.2,6,6,0,0,0,.8,1.6,4,4,0,0,0,1.2,1,5,5,0,0,0,3.4,0,2.34,2.34,0,0,0,1.2-1,6,6,0,0,0,.8-1.6,7.8,7.8,0,0,0,.3-2.2,8.52,8.52,0,0,0-.3-2.3,6,6,0,0,0-.8-1.6,4,4,0,0,0-1.2-1A4.31,4.31,0,0,0,661.25,469.25Z"></path> <path class="cls-1" d="M664.45,452.25a.86.86,0,0,1,.6.3c2.8,4.5.8,10.5,0,12.6h0a7.71,7.71,0,0,1,3,1.9,8.3,8.3,0,0,1,2,3.1,13.56,13.56,0,0,1,0,8.6,9.75,9.75,0,0,1-2,3.1,7.82,7.82,0,0,1-2.6,1.7l-4.1,7-4.2-7.1a7.39,7.39,0,0,1-2.5-1.7,8.3,8.3,0,0,1-2-3.1,12.7,12.7,0,0,1,.1-8.6,8.51,8.51,0,0,1,2.1-3.1c.4-.4.9-.7,1.3-1.1a13.8,13.8,0,0,1-5.9-7.2.51.51,0,0,1,.5-.7h.1c5.8.7,8.4,3.9,10.2,6.5h0c-.5-3-.7-8.5,3.1-12.1,0-.1.1-.1.3-.1m-3.2,28.3a4.64,4.64,0,0,0,2.1-.4,4,4,0,0,0,1.6-1.3,5.73,5.73,0,0,0,1-1.9,10.07,10.07,0,0,0,.3-2.5,9.52,9.52,0,0,0-.3-2.5,6.26,6.26,0,0,0-1-2,5.09,5.09,0,0,0-1.6-1.3,5.13,5.13,0,0,0-4.2.1,4,4,0,0,0-1.6,1.3,5.36,5.36,0,0,0-1,2,10.07,10.07,0,0,0-.3,2.5,9.52,9.52,0,0,0,.3,2.5,4.89,4.89,0,0,0,1,1.9,5.09,5.09,0,0,0,1.6,1.3,6.65,6.65,0,0,0,2.1.3m3.2-30.3a2.41,2.41,0,0,0-1.8.7,13.26,13.26,0,0,0-4,8.2,15.08,15.08,0,0,0-7.8-3.1h-.3a2.61,2.61,0,0,0-2.1,1.1,2.41,2.41,0,0,0-.3,2.3,16.13,16.13,0,0,0,4.6,6.6,13.35,13.35,0,0,0-2.1,3.3,13.64,13.64,0,0,0-.9,5.1,12.76,12.76,0,0,0,.9,5,10.08,10.08,0,0,0,2.5,3.8,11.38,11.38,0,0,0,2.5,1.8l3.9,6.6,1.7,2.9,1.7-2.9,3.8-6.5a9.66,9.66,0,0,0,2.6-1.9,9.89,9.89,0,0,0,2.4-3.8,13.48,13.48,0,0,0,.9-5,12.76,12.76,0,0,0-.9-5,10.08,10.08,0,0,0-2.5-3.8,9,9,0,0,0-1.9-1.5c1-3.2,1.9-8.3-.8-12.6a2.08,2.08,0,0,0-2.1-1.3Zm-3.2,28.3a5.07,5.07,0,0,1-1.3-.2,5.5,5.5,0,0,1-.9-.7,2.62,2.62,0,0,1-.6-1.3,5.82,5.82,0,0,1-.3-1.9,5.41,5.41,0,0,1,.3-1.9c.2-.5.4-.9.6-1.3a2.18,2.18,0,0,1,.9-.7,2.5,2.5,0,0,1,1.3-.3,2.77,2.77,0,0,1,1.3.3,5.5,5.5,0,0,1,.9.7,2.62,2.62,0,0,1,.6,1.3,6,6,0,0,1,.3,2,5.41,5.41,0,0,1-.3,1.9c-.2.5-.4.9-.6,1.3a2.18,2.18,0,0,1-.9.7c-.3,0-.8.1-1.3.1Z"></path> <text class="cls-10" transform="translate(144.91 599.8)">Т<tspan class="cls-11" x="7.55" y="0">аш</tspan><tspan class="cls-12" x="27.33" y="0">к</tspan><tspan class="cls-11" x="35.28" y="0">ент</tspan></text> <text class="cls-13" transform="translate(144.91 631.8)">Минеральные воды</text> <text class="cls-13" transform="translate(144.91 567.7)">Пятигорск</text> <text class="cls-13" transform="translate(144.91 503.5)">Краснодар</text> <text class="cls-13" transform="translate(230.37 344.25)"> <tspan class="cls-14">Г</tspan> <tspan x="7.25" y="0">атчина</tspan> </text> <path class="cls-9" d="M264.66,496.55a8.52,8.52,0,0,1-2.5-1.7,9.7,9.7,0,0,1-2.3-3.5,13.19,13.19,0,0,1-.8-4.7,13.6,13.6,0,0,1,.8-4.7,10.65,10.65,0,0,1,2.3-3.5l.3-.3a14.81,14.81,0,0,1-5.2-6.9,1.4,1.4,0,0,1,.2-1.4,1.71,1.71,0,0,1,1.3-.7h.2a13.56,13.56,0,0,1,8.8,4.3c0-3.1.7-6.9,3.7-9.6a1.5,1.5,0,0,1,1.1-.4,1.6,1.6,0,0,1,1.4.8c2.7,4.3,1.4,9.7.4,12.5a10.06,10.06,0,0,1,2.5,1.7,9.7,9.7,0,0,1,2.3,3.5,13.19,13.19,0,0,1,.8,4.7,14,14,0,0,1-.8,4.7,10.43,10.43,0,0,1-2.2,3.5,12,12,0,0,1-2.6,1.8l-4.8,8.2Zm4.8-15a3.06,3.06,0,0,0-1.7.4,2.94,2.94,0,0,0-1.2,1,4,4,0,0,0-.8,1.6,7.8,7.8,0,0,0-.3,2.2,7.32,7.32,0,0,0,.3,2.2,6,6,0,0,0,.8,1.6,4,4,0,0,0,1.2,1,5,5,0,0,0,3.4,0,2.34,2.34,0,0,0,1.2-1,6,6,0,0,0,.8-1.6,7.8,7.8,0,0,0,.3-2.2,8.52,8.52,0,0,0-.3-2.3,6,6,0,0,0-.8-1.6,4,4,0,0,0-1.2-1A4.31,4.31,0,0,0,269.46,481.55Z"></path> <path class="cls-1" d="M272.66,464.55a.86.86,0,0,1,.6.3c2.8,4.5.8,10.5,0,12.6h0a7.71,7.71,0,0,1,3,1.9,8.3,8.3,0,0,1,2,3.1,13.56,13.56,0,0,1,0,8.6,9.75,9.75,0,0,1-2,3.1,7.82,7.82,0,0,1-2.6,1.7l-4.1,7-4.2-7.1a7.39,7.39,0,0,1-2.5-1.7,8.3,8.3,0,0,1-2-3.1,12.7,12.7,0,0,1,.1-8.6,8.51,8.51,0,0,1,2.1-3.1c.4-.4.9-.7,1.3-1.1a13.8,13.8,0,0,1-5.9-7.2.51.51,0,0,1,.5-.7h.1c5.8.7,8.4,3.9,10.2,6.5h0c-.5-3-.7-8.5,3.1-12.1,0-.1.1-.1.3-.1m-3.2,28.3a4.64,4.64,0,0,0,2.1-.4,4,4,0,0,0,1.6-1.3,5.73,5.73,0,0,0,1-1.9,10.07,10.07,0,0,0,.3-2.5,9.52,9.52,0,0,0-.3-2.5,6.26,6.26,0,0,0-1-2,5.09,5.09,0,0,0-1.6-1.3,5.13,5.13,0,0,0-4.2.1,4,4,0,0,0-1.6,1.3,5.36,5.36,0,0,0-1,2,10.07,10.07,0,0,0-.3,2.5,9.52,9.52,0,0,0,.3,2.5,4.89,4.89,0,0,0,1,1.9,5.09,5.09,0,0,0,1.6,1.3,6.65,6.65,0,0,0,2.1.3m3.2-30.3a2.41,2.41,0,0,0-1.8.7,13.26,13.26,0,0,0-4,8.2,15.08,15.08,0,0,0-7.8-3.1h-.3a2.61,2.61,0,0,0-2.1,1.1,2.41,2.41,0,0,0-.3,2.3,16.13,16.13,0,0,0,4.6,6.6,13.35,13.35,0,0,0-2.1,3.3,13.64,13.64,0,0,0-.9,5.1,12.76,12.76,0,0,0,.9,5,10.08,10.08,0,0,0,2.5,3.8,11.38,11.38,0,0,0,2.5,1.8l3.9,6.6,1.7,2.9,1.7-2.9,3.8-6.5a9.66,9.66,0,0,0,2.6-1.9,9.89,9.89,0,0,0,2.4-3.8,13.48,13.48,0,0,0,.9-5,12.76,12.76,0,0,0-.9-5,10.08,10.08,0,0,0-2.5-3.8,9,9,0,0,0-1.9-1.5c1-3.2,1.9-8.3-.8-12.6a2.08,2.08,0,0,0-2.1-1.3Zm-3.2,28.3a5.07,5.07,0,0,1-1.3-.2,5.5,5.5,0,0,1-.9-.7,2.62,2.62,0,0,1-.6-1.3,5.82,5.82,0,0,1-.3-1.9,5.41,5.41,0,0,1,.3-1.9c.2-.5.4-.9.6-1.3a2.18,2.18,0,0,1,.9-.7,2.5,2.5,0,0,1,1.3-.3,2.77,2.77,0,0,1,1.3.3,5.5,5.5,0,0,1,.9.7,2.62,2.62,0,0,1,.6,1.3,6,6,0,0,1,.3,2,5.41,5.41,0,0,1-.3,1.9c-.2.5-.4.9-.6,1.3a2.18,2.18,0,0,1-.9.7c-.3,0-.8.1-1.3.1Z"></path> <path class="cls-9" d="M287.63,501.75a8.52,8.52,0,0,1-2.5-1.7,9.7,9.7,0,0,1-2.3-3.5,13.19,13.19,0,0,1-.8-4.7,13.6,13.6,0,0,1,.8-4.7,10.65,10.65,0,0,1,2.3-3.5l.3-.3a14.81,14.81,0,0,1-5.2-6.9,1.4,1.4,0,0,1,.2-1.4,1.71,1.71,0,0,1,1.3-.7h.2a13.56,13.56,0,0,1,8.8,4.3c0-3.1.7-6.9,3.7-9.6a1.5,1.5,0,0,1,1.1-.4,1.6,1.6,0,0,1,1.4.8c2.7,4.3,1.4,9.7.4,12.5a10.06,10.06,0,0,1,2.5,1.7,9.7,9.7,0,0,1,2.3,3.5,13.19,13.19,0,0,1,.8,4.7,14,14,0,0,1-.8,4.7,10.43,10.43,0,0,1-2.2,3.5,12,12,0,0,1-2.6,1.8l-4.8,8.2Zm4.8-15a3.06,3.06,0,0,0-1.7.4,2.94,2.94,0,0,0-1.2,1,4,4,0,0,0-.8,1.6,7.8,7.8,0,0,0-.3,2.2,7.32,7.32,0,0,0,.3,2.2,6,6,0,0,0,.8,1.6,4,4,0,0,0,1.2,1,5,5,0,0,0,3.4,0,2.34,2.34,0,0,0,1.2-1,6,6,0,0,0,.8-1.6,7.8,7.8,0,0,0,.3-2.2,8.52,8.52,0,0,0-.3-2.3,6,6,0,0,0-.8-1.6,4,4,0,0,0-1.2-1A4.31,4.31,0,0,0,292.43,486.75Z"></path> <path class="cls-1" d="M295.63,469.75a.86.86,0,0,1,.6.3c2.8,4.5.8,10.5,0,12.6h0a7.71,7.71,0,0,1,3,1.9,8.3,8.3,0,0,1,2,3.1,13.56,13.56,0,0,1,0,8.6,9.75,9.75,0,0,1-2,3.1,7.82,7.82,0,0,1-2.6,1.7l-4.1,7-4.2-7.1a7.39,7.39,0,0,1-2.5-1.7,8.3,8.3,0,0,1-2-3.1,12.7,12.7,0,0,1,.1-8.6,8.51,8.51,0,0,1,2.1-3.1c.4-.4.9-.7,1.3-1.1a13.8,13.8,0,0,1-5.9-7.2.51.51,0,0,1,.5-.7h.1c5.8.7,8.4,3.9,10.2,6.5h0c-.5-3-.7-8.5,3.1-12.1,0-.1.1-.1.3-.1m-3.2,28.3a4.64,4.64,0,0,0,2.1-.4,4,4,0,0,0,1.6-1.3,5.73,5.73,0,0,0,1-1.9,10.07,10.07,0,0,0,.3-2.5,9.52,9.52,0,0,0-.3-2.5,6.26,6.26,0,0,0-1-2,5.09,5.09,0,0,0-1.6-1.3,5.13,5.13,0,0,0-4.2.1,4,4,0,0,0-1.6,1.3,5.36,5.36,0,0,0-1,2,10.07,10.07,0,0,0-.3,2.5,9.52,9.52,0,0,0,.3,2.5,4.89,4.89,0,0,0,1,1.9,5.09,5.09,0,0,0,1.6,1.3,6.65,6.65,0,0,0,2.1.3m3.2-30.3a2.41,2.41,0,0,0-1.8.7,13.26,13.26,0,0,0-4,8.2,15.08,15.08,0,0,0-7.8-3.1h-.3a2.61,2.61,0,0,0-2.1,1.1,2.41,2.41,0,0,0-.3,2.3,16.13,16.13,0,0,0,4.6,6.6,13.35,13.35,0,0,0-2.1,3.3,13.64,13.64,0,0,0-.9,5.1,12.76,12.76,0,0,0,.9,5,10.08,10.08,0,0,0,2.5,3.8,11.38,11.38,0,0,0,2.5,1.8l3.9,6.6,1.7,2.9,1.7-2.9,3.8-6.5a9.66,9.66,0,0,0,2.6-1.9,9.89,9.89,0,0,0,2.4-3.8,13.48,13.48,0,0,0,.9-5,12.76,12.76,0,0,0-.9-5,10.08,10.08,0,0,0-2.5-3.8,9,9,0,0,0-1.9-1.5c1-3.2,1.9-8.3-.8-12.6a2.08,2.08,0,0,0-2.1-1.3Zm-3.2,28.3a5.07,5.07,0,0,1-1.3-.2,5.5,5.5,0,0,1-.9-.7,2.62,2.62,0,0,1-.6-1.3,5.82,5.82,0,0,1-.3-1.9,5.41,5.41,0,0,1,.3-1.9c.2-.5.4-.9.6-1.3a2.18,2.18,0,0,1,.9-.7,2.5,2.5,0,0,1,1.3-.3,2.77,2.77,0,0,1,1.3.3,5.5,5.5,0,0,1,.9.7,2.62,2.62,0,0,1,.6,1.3,6,6,0,0,1,.3,2,5.41,5.41,0,0,1-.3,1.9c-.2.5-.4.9-.6,1.3a2.18,2.18,0,0,1-.9.7c-.3,0-.8.1-1.3.1Z"></path> <rect class="cls-2" x="823.4" y="523.9" width="118.9" height="16.9"></rect> <text class="cls-3" transform="translate(862.62 537.08)">Чита</text> <path class="cls-9" d="M878.7,516.8a8.52,8.52,0,0,1-2.5-1.7,9.7,9.7,0,0,1-2.3-3.5,13.19,13.19,0,0,1-.8-4.7,13.6,13.6,0,0,1,.8-4.7,10.65,10.65,0,0,1,2.3-3.5l.3-.3a14.81,14.81,0,0,1-5.2-6.9,1.4,1.4,0,0,1,.2-1.4,1.71,1.71,0,0,1,1.3-.7h.2a13.56,13.56,0,0,1,8.8,4.3c0-3.1.7-6.9,3.7-9.6a1.5,1.5,0,0,1,1.1-.4,1.6,1.6,0,0,1,1.4.8c2.7,4.3,1.4,9.7.4,12.5a10.06,10.06,0,0,1,2.5,1.7,9.7,9.7,0,0,1,2.3,3.5,13.19,13.19,0,0,1,.8,4.7,14,14,0,0,1-.8,4.7,10.43,10.43,0,0,1-2.2,3.5,12,12,0,0,1-2.6,1.8l-4.8,8.2Zm4.9-15.1a3.06,3.06,0,0,0-1.7.4,2.94,2.94,0,0,0-1.2,1,4,4,0,0,0-.8,1.6,7.8,7.8,0,0,0-.3,2.2,7.32,7.32,0,0,0,.3,2.2,6,6,0,0,0,.8,1.6,4,4,0,0,0,1.2,1,5,5,0,0,0,3.4,0,2.34,2.34,0,0,0,1.2-1,6,6,0,0,0,.8-1.6,7.8,7.8,0,0,0,.3-2.2,8.52,8.52,0,0,0-.3-2.3,6,6,0,0,0-.8-1.6,4,4,0,0,0-1.2-1A4.67,4.67,0,0,0,883.6,501.7Z"></path> <path class="cls-1" d="M886.7,484.7a.86.86,0,0,1,.6.3c2.8,4.5.8,10.5,0,12.6h0a7.71,7.71,0,0,1,3,1.9,8.3,8.3,0,0,1,2,3.1,13.56,13.56,0,0,1,0,8.6,9.75,9.75,0,0,1-2,3.1,7.82,7.82,0,0,1-2.6,1.7l-4.1,7-4.2-7.1a7.39,7.39,0,0,1-2.5-1.7,8.3,8.3,0,0,1-2-3.1,12.7,12.7,0,0,1,.1-8.6,8.51,8.51,0,0,1,2.1-3.1c.4-.4.9-.7,1.3-1.1a13.8,13.8,0,0,1-5.9-7.2.51.51,0,0,1,.5-.7h.1c5.8.7,8.4,3.9,10.2,6.5h0c-.5-3-.7-8.5,3.1-12.1a1,1,0,0,1,.3-.1m-3.1,28.4a4.64,4.64,0,0,0,2.1-.4,4,4,0,0,0,1.6-1.3,5.73,5.73,0,0,0,1-1.9,10.07,10.07,0,0,0,.3-2.5,9.52,9.52,0,0,0-.3-2.5,6.26,6.26,0,0,0-1-2,5.09,5.09,0,0,0-1.6-1.3,5.13,5.13,0,0,0-4.2.1,4,4,0,0,0-1.6,1.3,5.36,5.36,0,0,0-1,2,10.07,10.07,0,0,0-.3,2.5,9.52,9.52,0,0,0,.3,2.5,4.89,4.89,0,0,0,1,1.9,5.09,5.09,0,0,0,1.6,1.3,9.5,9.5,0,0,0,2.1.3m3.1-30.4a2.41,2.41,0,0,0-1.8.7,13.26,13.26,0,0,0-4,8.2,15.08,15.08,0,0,0-7.8-3.1h-.3a2.61,2.61,0,0,0-2.1,1.1,2.41,2.41,0,0,0-.3,2.3,16.13,16.13,0,0,0,4.6,6.6,13.35,13.35,0,0,0-2.1,3.3,13.64,13.64,0,0,0-.9,5.1,12.76,12.76,0,0,0,.9,5,10.08,10.08,0,0,0,2.5,3.8,11.38,11.38,0,0,0,2.5,1.8l3.9,6.6,1.7,2.9,1.7-2.9,3.8-6.5a9.66,9.66,0,0,0,2.6-1.9,9.89,9.89,0,0,0,2.4-3.8,13.48,13.48,0,0,0,.9-5,12.76,12.76,0,0,0-.9-5,10.08,10.08,0,0,0-2.5-3.8,9,9,0,0,0-1.9-1.5c1-3.2,1.9-8.3-.8-12.6a2.23,2.23,0,0,0-2.1-1.3Zm-3.1,28.4a5.07,5.07,0,0,1-1.3-.2,5.5,5.5,0,0,1-.9-.7,2.62,2.62,0,0,1-.6-1.3,5.82,5.82,0,0,1-.3-1.9,5.41,5.41,0,0,1,.3-1.9c.2-.5.4-.9.6-1.3a2.18,2.18,0,0,1,.9-.7,2.5,2.5,0,0,1,1.3-.3,2.77,2.77,0,0,1,1.3.3,5.5,5.5,0,0,1,.9.7,2.62,2.62,0,0,1,.6,1.3,6,6,0,0,1,.3,2,5.41,5.41,0,0,1-.3,1.9c-.2.5-.4.9-.6,1.3a2.18,2.18,0,0,1-.9.7c-.4,0-.8.1-1.3.1Z"></path> <rect class="cls-2" x="341.8" y="448.6" width="118.9" height="16.9"></rect> <text class="cls-3" transform="translate(370.06 461.77)"> <tspan class="cls-15">С</tspan> <tspan x="11.19" y="0">амара</tspan> </text> <path class="cls-9" d="M397.1,441.5a8.52,8.52,0,0,1-2.5-1.7,9.7,9.7,0,0,1-2.3-3.5,13.19,13.19,0,0,1-.8-4.7,13.6,13.6,0,0,1,.8-4.7,10.65,10.65,0,0,1,2.3-3.5l.3-.3a14.81,14.81,0,0,1-5.2-6.9,1.4,1.4,0,0,1,.2-1.4,1.71,1.71,0,0,1,1.3-.7h.2a13.56,13.56,0,0,1,8.8,4.3c0-3.1.7-6.9,3.7-9.6a1.5,1.5,0,0,1,1.1-.4,1.6,1.6,0,0,1,1.4.8c2.7,4.3,1.4,9.7.4,12.5a11,11,0,0,1,2.5,1.7,9.7,9.7,0,0,1,2.3,3.5,14.21,14.21,0,0,1,0,9.4,10.43,10.43,0,0,1-2.2,3.5,12,12,0,0,1-2.6,1.8l-4.8,8.2Zm4.9-15.1a3.06,3.06,0,0,0-1.7.4,2.94,2.94,0,0,0-1.2,1,6,6,0,0,0-.8,1.6,7.8,7.8,0,0,0-.3,2.2,7.32,7.32,0,0,0,.3,2.2,6,6,0,0,0,.8,1.6,4,4,0,0,0,1.2,1,5,5,0,0,0,3.4,0,2.34,2.34,0,0,0,1.2-1,4,4,0,0,0,.8-1.6,7.8,7.8,0,0,0,.3-2.2,8.52,8.52,0,0,0-.3-2.3,6,6,0,0,0-.8-1.6,4,4,0,0,0-1.2-1A4.67,4.67,0,0,0,402,426.4Z"></path> <path class="cls-1" d="M405.2,409.4a.86.86,0,0,1,.6.3c2.8,4.5.8,10.5,0,12.6h0a7.71,7.71,0,0,1,3,1.9,8.3,8.3,0,0,1,2,3.1,13.56,13.56,0,0,1,0,8.6,9.75,9.75,0,0,1-2,3.1,7.82,7.82,0,0,1-2.6,1.7l-4.1,7-4.2-7.1a7.39,7.39,0,0,1-2.5-1.7,8.3,8.3,0,0,1-2-3.1,12.7,12.7,0,0,1,.1-8.6,8.51,8.51,0,0,1,2.1-3.1c.4-.4.9-.7,1.3-1.1a13.8,13.8,0,0,1-5.9-7.2.51.51,0,0,1,.5-.7h.1c5.8.7,8.4,3.9,10.2,6.5h0c-.5-3-.7-8.5,3.1-12.1-.1-.1.1-.1.3-.1M402,437.7a4.64,4.64,0,0,0,2.1-.4,4,4,0,0,0,1.6-1.3,5.73,5.73,0,0,0,1-1.9,10.07,10.07,0,0,0,.3-2.5,9.52,9.52,0,0,0-.3-2.5,6.26,6.26,0,0,0-1-2,5.09,5.09,0,0,0-1.6-1.3,5.13,5.13,0,0,0-4.2.1,4,4,0,0,0-1.6,1.3,5.36,5.36,0,0,0-1,2,10.07,10.07,0,0,0-.3,2.5,9.52,9.52,0,0,0,.3,2.5,4.89,4.89,0,0,0,1,1.9,5.09,5.09,0,0,0,1.6,1.3,6.65,6.65,0,0,0,2.1.3m3.2-30.3a2.41,2.41,0,0,0-1.8.7,13.26,13.26,0,0,0-4,8.2,15.08,15.08,0,0,0-7.8-3.1h-.3a2.61,2.61,0,0,0-2.1,1.1,2.41,2.41,0,0,0-.3,2.3,16.13,16.13,0,0,0,4.6,6.6,13.35,13.35,0,0,0-2.1,3.3,13.64,13.64,0,0,0-.9,5.1,12.76,12.76,0,0,0,.9,5,10.08,10.08,0,0,0,2.5,3.8,11.38,11.38,0,0,0,2.5,1.8l3.9,6.6,1.7,2.9,1.7-2.9,3.8-6.5a9.66,9.66,0,0,0,2.6-1.9,9.89,9.89,0,0,0,2.4-3.8,13.48,13.48,0,0,0,.9-5,12.76,12.76,0,0,0-.9-5,10.08,10.08,0,0,0-2.5-3.8,9,9,0,0,0-1.9-1.5c1-3.2,1.9-8.3-.8-12.6a2.33,2.33,0,0,0-2.1-1.3ZM402,435.7a5.07,5.07,0,0,1-1.3-.2,5.5,5.5,0,0,1-.9-.7,2.62,2.62,0,0,1-.6-1.3,5.82,5.82,0,0,1-.3-1.9,5.41,5.41,0,0,1,.3-1.9c.2-.5.4-.9.6-1.3a2.18,2.18,0,0,1,.9-.7,2.5,2.5,0,0,1,1.3-.3,2.77,2.77,0,0,1,1.3.3,5.5,5.5,0,0,1,.9.7,2.62,2.62,0,0,1,.6,1.3,6,6,0,0,1,.3,2,5.41,5.41,0,0,1-.3,1.9c-.2.5-.4.9-.6,1.3a2.18,2.18,0,0,1-.9.7,5.28,5.28,0,0,1-1.3.1Z"></path> <rect class="cls-2" x="462.1" y="715.5" width="118.9" height="16.9"></rect> <text class="cls-3" transform="translate(484.89 728.74)"> <tspan class="cls-16">Т</tspan> <tspan x="9.16" y="0">аш</tspan> <tspan class="cls-17" x="33.18" y="0">к</tspan> <tspan class="cls-18" x="42.84" y="0">ент</tspan> </text> <path class="cls-9" d="M517.4,708.4a8.52,8.52,0,0,1-2.5-1.7,9.7,9.7,0,0,1-2.3-3.5,13.19,13.19,0,0,1-.8-4.7,13.6,13.6,0,0,1,.8-4.7,10.65,10.65,0,0,1,2.3-3.5l.3-.3a14.81,14.81,0,0,1-5.2-6.9,1.4,1.4,0,0,1,.2-1.4,1.71,1.71,0,0,1,1.3-.7h.2a13.56,13.56,0,0,1,8.8,4.3c0-3.1.7-6.9,3.7-9.6a1.5,1.5,0,0,1,1.1-.4,1.6,1.6,0,0,1,1.4.8c2.7,4.3,1.4,9.7.4,12.5a10.06,10.06,0,0,1,2.5,1.7,9.7,9.7,0,0,1,2.3,3.5,14.21,14.21,0,0,1,0,9.4,10.43,10.43,0,0,1-2.2,3.5,12,12,0,0,1-2.6,1.8l-4.8,8.2Zm4.9-15a3.06,3.06,0,0,0-1.7.4,2.94,2.94,0,0,0-1.2,1,6,6,0,0,0-.8,1.6,7.8,7.8,0,0,0-.3,2.2,7.32,7.32,0,0,0,.3,2.2,6,6,0,0,0,.8,1.6,4,4,0,0,0,1.2,1,5,5,0,0,0,3.4,0,2.34,2.34,0,0,0,1.2-1,4,4,0,0,0,.8-1.6,7.8,7.8,0,0,0,.3-2.2,8.52,8.52,0,0,0-.3-2.3,6,6,0,0,0-.8-1.6,4,4,0,0,0-1.2-1A4.67,4.67,0,0,0,522.3,693.4Z"></path> <path class="cls-1" d="M525.4,676.4a.86.86,0,0,1,.6.3c2.8,4.5.8,10.5,0,12.6h0a7.71,7.71,0,0,1,3,1.9,8.3,8.3,0,0,1,2,3.1,13.56,13.56,0,0,1,0,8.6,9.75,9.75,0,0,1-2,3.1,7.82,7.82,0,0,1-2.6,1.7l-4.1,7-4.2-7.1a7.39,7.39,0,0,1-2.5-1.7,8.3,8.3,0,0,1-2-3.1,12.7,12.7,0,0,1,.1-8.6,8.51,8.51,0,0,1,2.1-3.1c.4-.4.9-.7,1.3-1.1a13.8,13.8,0,0,1-5.9-7.2.51.51,0,0,1,.5-.7h.1c5.8.7,8.4,3.9,10.2,6.5h0c-.5-3-.7-8.5,3.1-12.1,0-.1.2-.1.3-.1m-3.1,28.3a4.64,4.64,0,0,0,2.1-.4A4,4,0,0,0,526,703a5.73,5.73,0,0,0,1-1.9,10.07,10.07,0,0,0,.3-2.5,9.52,9.52,0,0,0-.3-2.5,6.26,6.26,0,0,0-1-2,5.09,5.09,0,0,0-1.6-1.3,5.13,5.13,0,0,0-4.2.1,4,4,0,0,0-1.6,1.3,5.36,5.36,0,0,0-1,2,10.07,10.07,0,0,0-.3,2.5,9.52,9.52,0,0,0,.3,2.5,4.89,4.89,0,0,0,1,1.9,5.09,5.09,0,0,0,1.6,1.3,6.65,6.65,0,0,0,2.1.3m3.1-30.3a2.41,2.41,0,0,0-1.8.7,13.26,13.26,0,0,0-4,8.2,15.08,15.08,0,0,0-7.8-3.1h-.3a2.61,2.61,0,0,0-2.1,1.1,2.41,2.41,0,0,0-.3,2.3,16.13,16.13,0,0,0,4.6,6.6,13.35,13.35,0,0,0-2.1,3.3,13.64,13.64,0,0,0-.9,5.1,12.76,12.76,0,0,0,.9,5,10.08,10.08,0,0,0,2.5,3.8,11.38,11.38,0,0,0,2.5,1.8l3.9,6.6,1.7,2.9,1.7-2.9,3.8-6.5a9.66,9.66,0,0,0,2.6-1.9,9.89,9.89,0,0,0,2.4-3.8,13.48,13.48,0,0,0,.9-5,12.76,12.76,0,0,0-.9-5,10.08,10.08,0,0,0-2.5-3.8,9,9,0,0,0-1.9-1.5c1-3.2,1.9-8.3-.8-12.6a2,2,0,0,0-2.1-1.3Zm-3.1,28.3a5.07,5.07,0,0,1-1.3-.2,5.5,5.5,0,0,1-.9-.7,2.62,2.62,0,0,1-.6-1.3,5.82,5.82,0,0,1-.3-1.9,5.41,5.41,0,0,1,.3-1.9c.2-.5.4-.9.6-1.3a2.18,2.18,0,0,1,.9-.7,2.5,2.5,0,0,1,1.3-.3,2.77,2.77,0,0,1,1.3.3,5.5,5.5,0,0,1,.9.7,2.62,2.62,0,0,1,.6,1.3,6,6,0,0,1,.3,2,5.41,5.41,0,0,1-.3,1.9c-.2.5-.4.9-.6,1.3a2.18,2.18,0,0,1-.9.7c-.4,0-.8.1-1.3.1Z"></path> <rect class="cls-2" x="748.3" y="476.8" width="118.9" height="16.9"></rect> <text class="cls-3" transform="translate(770.91 490.02)"> <tspan class="cls-19">У</tspan> <tspan x="10.44" y="0">ст</tspan> <tspan class="cls-20" x="27.86" y="0">ь</tspan> <tspan x="37.64" y="0">-</tspan> <tspan class="cls-21" x="43.42" y="0">К</tspan> <tspan class="cls-7" x="54.43" y="0">у</tspan> <tspan x="64.06" y="0">т</tspan> </text> <path class="cls-9" d="M803.6,469.7a8.52,8.52,0,0,1-2.5-1.7,9.7,9.7,0,0,1-2.3-3.5,13.19,13.19,0,0,1-.8-4.7,13.6,13.6,0,0,1,.8-4.7,10.65,10.65,0,0,1,2.3-3.5l.3-.3a14.81,14.81,0,0,1-5.2-6.9,1.4,1.4,0,0,1,.2-1.4,1.71,1.71,0,0,1,1.3-.7h.2a13.56,13.56,0,0,1,8.8,4.3c0-3.1.7-6.9,3.7-9.6a1.5,1.5,0,0,1,1.1-.4,1.6,1.6,0,0,1,1.4.8c2.7,4.3,1.4,9.7.4,12.5a10.06,10.06,0,0,1,2.5,1.7,9.7,9.7,0,0,1,2.3,3.5,13.6,13.6,0,0,1,.8,4.7,14,14,0,0,1-.8,4.7,10.43,10.43,0,0,1-2.2,3.5,12,12,0,0,1-2.6,1.8l-4.8,8.2Zm4.9-15.1a3.06,3.06,0,0,0-1.7.4,2.94,2.94,0,0,0-1.2,1,4,4,0,0,0-.8,1.6,7.8,7.8,0,0,0-.3,2.2,7.32,7.32,0,0,0,.3,2.2,6,6,0,0,0,.8,1.6,4,4,0,0,0,1.2,1,3.23,3.23,0,0,0,1.7.3,4.67,4.67,0,0,0,1.7-.3,2.34,2.34,0,0,0,1.2-1,6,6,0,0,0,.8-1.6,7.8,7.8,0,0,0,.3-2.2,8.52,8.52,0,0,0-.3-2.3,6,6,0,0,0-.8-1.6,4,4,0,0,0-1.2-1A8.58,8.58,0,0,0,808.5,454.6Z"></path> <path class="cls-1" d="M811.7,437.6a.86.86,0,0,1,.6.3c2.8,4.5.8,10.5,0,12.6h0a7.71,7.71,0,0,1,3,1.9,8.3,8.3,0,0,1,2,3.1,13.56,13.56,0,0,1,0,8.6,9.75,9.75,0,0,1-2,3.1,7.82,7.82,0,0,1-2.6,1.7l-4.1,7-4.2-7.1a7.39,7.39,0,0,1-2.5-1.7,8.3,8.3,0,0,1-2-3.1,12.7,12.7,0,0,1,.1-8.6,8.51,8.51,0,0,1,2.1-3.1c.4-.4.9-.7,1.3-1.1a13.8,13.8,0,0,1-5.9-7.2.51.51,0,0,1,.5-.7h.1c5.8.7,8.4,3.9,10.2,6.5h0c-.5-3-.7-8.5,3.1-12.1-.1,0,.1-.1.3-.1M808.5,466a4.64,4.64,0,0,0,2.1-.4,4,4,0,0,0,1.6-1.3,5.73,5.73,0,0,0,1-1.9,10.07,10.07,0,0,0,.3-2.5,9.52,9.52,0,0,0-.3-2.5,6.26,6.26,0,0,0-1-2,5.09,5.09,0,0,0-1.6-1.3,5.13,5.13,0,0,0-4.2.1,4,4,0,0,0-1.6,1.3,5.36,5.36,0,0,0-1,2,10.07,10.07,0,0,0-.3,2.5,9.52,9.52,0,0,0,.3,2.5,4.89,4.89,0,0,0,1,1.9,5.09,5.09,0,0,0,1.6,1.3,11.76,11.76,0,0,0,2.1.3m3.2-30.4a2.41,2.41,0,0,0-1.8.7,13.26,13.26,0,0,0-4,8.2,15.08,15.08,0,0,0-7.8-3.1h-.3a2.61,2.61,0,0,0-2.1,1.1,2.41,2.41,0,0,0-.3,2.3,16.13,16.13,0,0,0,4.6,6.6,13.35,13.35,0,0,0-2.1,3.3,13.64,13.64,0,0,0-.9,5.1,12.76,12.76,0,0,0,.9,5,10.08,10.08,0,0,0,2.5,3.8,11.38,11.38,0,0,0,2.5,1.8l3.9,6.6,1.7,2.9,1.7-2.9,3.8-6.5a9.66,9.66,0,0,0,2.6-1.9,9.89,9.89,0,0,0,2.4-3.8,13.48,13.48,0,0,0,.9-5,12.76,12.76,0,0,0-.9-5,10.08,10.08,0,0,0-2.5-3.8,9,9,0,0,0-1.9-1.5c1-3.2,1.9-8.3-.8-12.6a2.33,2.33,0,0,0-2.1-1.3ZM808.5,464a5.07,5.07,0,0,1-1.3-.2,5.5,5.5,0,0,1-.9-.7,2.62,2.62,0,0,1-.6-1.3,5.82,5.82,0,0,1-.3-1.9,5.41,5.41,0,0,1,.3-1.9c.2-.5.4-.9.6-1.3a2.18,2.18,0,0,1,.9-.7,2.5,2.5,0,0,1,1.3-.3,2.77,2.77,0,0,1,1.3.3,5.5,5.5,0,0,1,.9.7,2.62,2.62,0,0,1,.6,1.3,6,6,0,0,1,.3,2,5.41,5.41,0,0,1-.3,1.9c-.2.5-.4.9-.6,1.3a2.18,2.18,0,0,1-.9.7c-.4,0-.8.1-1.3.1Z"></path> <rect class="cls-2" x="290.6" y="300" width="155.1" height="14"></rect> <text class="cls-4" transform="translate(308.79 310.88)"> <tspan class="cls-22">С</tspan> <tspan x="9.21" y="0">ан</tspan> <tspan class="cls-23" x="25.26" y="0">к</tspan> <tspan class="cls-24" x="33.73" y="0">т-Петербург</tspan> </text> <rect class="cls-2" x="865.3" y="352.8" width="118.9" height="16.9"></rect> <text class="cls-3" transform="translate(894.91 366.02)">Я<tspan class="cls-25" x="11.71" y="0">к</tspan><tspan class="cls-26" x="22.08" y="0">у</tspan><tspan x="31.7" y="0">тск</tspan></text> <path class="cls-9" d="M920.6,345.7a8.52,8.52,0,0,1-2.5-1.7,9.7,9.7,0,0,1-2.3-3.5,13.19,13.19,0,0,1-.8-4.7,13.6,13.6,0,0,1,.8-4.7,10.65,10.65,0,0,1,2.3-3.5l.3-.3a14.81,14.81,0,0,1-5.2-6.9,1.4,1.4,0,0,1,.2-1.4,1.71,1.71,0,0,1,1.3-.7h.2a13.56,13.56,0,0,1,8.8,4.3c0-3.1.7-6.9,3.7-9.6a1.5,1.5,0,0,1,1.1-.4,1.6,1.6,0,0,1,1.4.8c2.7,4.3,1.4,9.7.4,12.5a10.06,10.06,0,0,1,2.5,1.7,9.7,9.7,0,0,1,2.3,3.5,14.21,14.21,0,0,1,0,9.4,10.43,10.43,0,0,1-2.2,3.5,12,12,0,0,1-2.6,1.8l-4.8,8.2Zm4.9-15.1a3.06,3.06,0,0,0-1.7.4,2.94,2.94,0,0,0-1.2,1,6,6,0,0,0-.8,1.6,7.8,7.8,0,0,0-.3,2.2,7.32,7.32,0,0,0,.3,2.2,6,6,0,0,0,.8,1.6,4,4,0,0,0,1.2,1,5,5,0,0,0,3.4,0,2.34,2.34,0,0,0,1.2-1,6,6,0,0,0,.8-1.6,7.8,7.8,0,0,0,.3-2.2,8.52,8.52,0,0,0-.3-2.3,6,6,0,0,0-.8-1.6,4,4,0,0,0-1.2-1A8.58,8.58,0,0,0,925.5,330.6Z"></path> <path class="cls-1" d="M928.7,313.6a.86.86,0,0,1,.6.3c2.8,4.5.8,10.5,0,12.6h0a7.71,7.71,0,0,1,3,1.9,8.3,8.3,0,0,1,2,3.1,13.56,13.56,0,0,1,0,8.6,9.75,9.75,0,0,1-2,3.1,7.82,7.82,0,0,1-2.6,1.7l-4.1,7-4.2-7.1a7.39,7.39,0,0,1-2.5-1.7,8.3,8.3,0,0,1-2-3.1,12.7,12.7,0,0,1,.1-8.6,8.51,8.51,0,0,1,2.1-3.1c.4-.4.9-.7,1.3-1.1a13.8,13.8,0,0,1-5.9-7.2.51.51,0,0,1,.5-.7h.1c5.8.7,8.4,3.9,10.2,6.5h0c-.5-3-.7-8.5,3.1-12.1-.1,0,.1-.1.3-.1M925.5,342a4.64,4.64,0,0,0,2.1-.4,4,4,0,0,0,1.6-1.3,5.73,5.73,0,0,0,1-1.9,10.07,10.07,0,0,0,.3-2.5,9.52,9.52,0,0,0-.3-2.5,6.26,6.26,0,0,0-1-2,5.09,5.09,0,0,0-1.6-1.3,5.13,5.13,0,0,0-4.2.1,4,4,0,0,0-1.6,1.3,5.36,5.36,0,0,0-1,2,10.07,10.07,0,0,0-.3,2.5,9.52,9.52,0,0,0,.3,2.5,4.89,4.89,0,0,0,1,1.9,5.09,5.09,0,0,0,1.6,1.3,11.76,11.76,0,0,0,2.1.3m3.2-30.4a2.41,2.41,0,0,0-1.8.7,13.26,13.26,0,0,0-4,8.2,15.08,15.08,0,0,0-7.8-3.1h-.3a2.61,2.61,0,0,0-2.1,1.1,2.41,2.41,0,0,0-.3,2.3,16.13,16.13,0,0,0,4.6,6.6,13.35,13.35,0,0,0-2.1,3.3,13.64,13.64,0,0,0-.9,5.1,12.76,12.76,0,0,0,.9,5,10.08,10.08,0,0,0,2.5,3.8,11.38,11.38,0,0,0,2.5,1.8l3.9,6.6,1.7,2.9,1.7-2.9,3.8-6.5a9.66,9.66,0,0,0,2.6-1.9,9.89,9.89,0,0,0,2.4-3.8,13.48,13.48,0,0,0,.9-5,12.76,12.76,0,0,0-.9-5,10.08,10.08,0,0,0-2.5-3.8,9,9,0,0,0-1.9-1.5c1-3.2,1.9-8.3-.8-12.6a2.33,2.33,0,0,0-2.1-1.3ZM925.5,340a5.07,5.07,0,0,1-1.3-.2,5.5,5.5,0,0,1-.9-.7,2.62,2.62,0,0,1-.6-1.3,5.82,5.82,0,0,1-.3-1.9,5.41,5.41,0,0,1,.3-1.9c.2-.5.4-.9.6-1.3a2.18,2.18,0,0,1,.9-.7,2.5,2.5,0,0,1,1.3-.3,2.77,2.77,0,0,1,1.3.3,5.5,5.5,0,0,1,.9.7,2.62,2.62,0,0,1,.6,1.3,6,6,0,0,1,.3,2,5.41,5.41,0,0,1-.3,1.9c-.2.5-.4.9-.6,1.3a2.18,2.18,0,0,1-.9.7c-.4,0-.8.1-1.3.1Z"></path> <path class="cls-9" d="M274.93,523.8a8.52,8.52,0,0,1-2.5-1.7,9.7,9.7,0,0,1-2.3-3.5,13.19,13.19,0,0,1-.8-4.7,13.6,13.6,0,0,1,.8-4.7,10.65,10.65,0,0,1,2.3-3.5l.3-.3a14.81,14.81,0,0,1-5.2-6.9,1.4,1.4,0,0,1,.2-1.4,1.71,1.71,0,0,1,1.3-.7h.2a13.56,13.56,0,0,1,8.8,4.3c0-3.1.7-6.9,3.7-9.6a1.5,1.5,0,0,1,1.1-.4,1.6,1.6,0,0,1,1.4.8c2.7,4.3,1.4,9.7.4,12.5a10.06,10.06,0,0,1,2.5,1.7,9.7,9.7,0,0,1,2.3,3.5,13.19,13.19,0,0,1,.8,4.7,14,14,0,0,1-.8,4.7,10.43,10.43,0,0,1-2.2,3.5,12,12,0,0,1-2.6,1.8l-4.8,8.2Zm4.8-15a3.06,3.06,0,0,0-1.7.4,2.94,2.94,0,0,0-1.2,1,4,4,0,0,0-.8,1.6,7.8,7.8,0,0,0-.3,2.2,7.32,7.32,0,0,0,.3,2.2,6,6,0,0,0,.8,1.6,4,4,0,0,0,1.2,1,5,5,0,0,0,3.4,0,2.34,2.34,0,0,0,1.2-1,6,6,0,0,0,.8-1.6,7.8,7.8,0,0,0,.3-2.2,8.52,8.52,0,0,0-.3-2.3,6,6,0,0,0-.8-1.6,4,4,0,0,0-1.2-1A4.31,4.31,0,0,0,279.73,508.8Z"></path> <path class="cls-1" d="M282.93,491.8a.86.86,0,0,1,.6.3c2.8,4.5.8,10.5,0,12.6h0a7.71,7.71,0,0,1,3,1.9,8.3,8.3,0,0,1,2,3.1,13.56,13.56,0,0,1,0,8.6,9.75,9.75,0,0,1-2,3.1,7.82,7.82,0,0,1-2.6,1.7l-4.1,7-4.2-7.1a7.39,7.39,0,0,1-2.5-1.7,8.3,8.3,0,0,1-2-3.1,12.7,12.7,0,0,1,.1-8.6,8.51,8.51,0,0,1,2.1-3.1c.4-.4.9-.7,1.3-1.1a13.8,13.8,0,0,1-5.9-7.2.51.51,0,0,1,.5-.7h.1c5.8.7,8.4,3.9,10.2,6.5h0c-.5-3-.7-8.5,3.1-12.1,0-.1.1-.1.3-.1m-3.2,28.3a4.64,4.64,0,0,0,2.1-.4,4,4,0,0,0,1.6-1.3,5.73,5.73,0,0,0,1-1.9,10.07,10.07,0,0,0,.3-2.5,9.52,9.52,0,0,0-.3-2.5,6.26,6.26,0,0,0-1-2,5.09,5.09,0,0,0-1.6-1.3,5.13,5.13,0,0,0-4.2.1,4,4,0,0,0-1.6,1.3,5.36,5.36,0,0,0-1,2,10.07,10.07,0,0,0-.3,2.5,9.52,9.52,0,0,0,.3,2.5,4.89,4.89,0,0,0,1,1.9,5.09,5.09,0,0,0,1.6,1.3,6.65,6.65,0,0,0,2.1.3m3.2-30.3a2.41,2.41,0,0,0-1.8.7,13.26,13.26,0,0,0-4,8.2,15.08,15.08,0,0,0-7.8-3.1H269a2.61,2.61,0,0,0-2.1,1.1,2.41,2.41,0,0,0-.3,2.3,16.13,16.13,0,0,0,4.6,6.6,13.35,13.35,0,0,0-2.1,3.3,13.64,13.64,0,0,0-.9,5.1,12.76,12.76,0,0,0,.9,5,10.08,10.08,0,0,0,2.5,3.8,11.38,11.38,0,0,0,2.5,1.8l3.9,6.6,1.7,2.9,1.7-2.9,3.8-6.5a9.66,9.66,0,0,0,2.6-1.9,9.89,9.89,0,0,0,2.4-3.8,13.48,13.48,0,0,0,.9-5,12.76,12.76,0,0,0-.9-5,10.08,10.08,0,0,0-2.5-3.8,9,9,0,0,0-1.9-1.5c1-3.2,1.9-8.3-.8-12.6a2.08,2.08,0,0,0-2.1-1.3Zm-3.2,28.3a5.07,5.07,0,0,1-1.3-.2,5.5,5.5,0,0,1-.9-.7,2.62,2.62,0,0,1-.6-1.3,5.82,5.82,0,0,1-.3-1.9,5.41,5.41,0,0,1,.3-1.9c.2-.5.4-.9.6-1.3a2.18,2.18,0,0,1,.9-.7,2.5,2.5,0,0,1,1.3-.3,2.77,2.77,0,0,1,1.3.3,5.5,5.5,0,0,1,.9.7,2.62,2.62,0,0,1,.6,1.3,6,6,0,0,1,.3,2,5.41,5.41,0,0,1-.3,1.9c-.2.5-.4.9-.6,1.3a2.18,2.18,0,0,1-.9.7c-.3,0-.8.1-1.3.1Z"></path> <path class="cls-9" d="M296.25,519.9a8.52,8.52,0,0,1-2.5-1.7,9.7,9.7,0,0,1-2.3-3.5,13.19,13.19,0,0,1-.8-4.7,13.6,13.6,0,0,1,.8-4.7,10.65,10.65,0,0,1,2.3-3.5l.3-.3a14.81,14.81,0,0,1-5.2-6.9,1.4,1.4,0,0,1,.2-1.4,1.71,1.71,0,0,1,1.3-.7h.2a13.56,13.56,0,0,1,8.8,4.3c0-3.1.7-6.9,3.7-9.6a1.5,1.5,0,0,1,1.1-.4,1.6,1.6,0,0,1,1.4.8c2.7,4.3,1.4,9.7.4,12.5a10.06,10.06,0,0,1,2.5,1.7,9.7,9.7,0,0,1,2.3,3.5,13.19,13.19,0,0,1,.8,4.7,14,14,0,0,1-.8,4.7,10.43,10.43,0,0,1-2.2,3.5A12,12,0,0,1,306,520l-4.8,8.2Zm4.8-15a3.06,3.06,0,0,0-1.7.4,2.94,2.94,0,0,0-1.2,1,4,4,0,0,0-.8,1.6,7.8,7.8,0,0,0-.3,2.2,7.32,7.32,0,0,0,.3,2.2,6,6,0,0,0,.8,1.6,4,4,0,0,0,1.2,1,5,5,0,0,0,3.4,0,2.34,2.34,0,0,0,1.2-1,6,6,0,0,0,.8-1.6,7.8,7.8,0,0,0,.3-2.2,8.52,8.52,0,0,0-.3-2.3,6,6,0,0,0-.8-1.6,4,4,0,0,0-1.2-1A4.31,4.31,0,0,0,301.05,504.9Z"></path> <path class="cls-1" d="M304.25,487.9a.86.86,0,0,1,.6.3c2.8,4.5.8,10.5,0,12.6h0a7.71,7.71,0,0,1,3,1.9,8.3,8.3,0,0,1,2,3.1,13.56,13.56,0,0,1,0,8.6,9.75,9.75,0,0,1-2,3.1,7.82,7.82,0,0,1-2.6,1.7l-4.1,7-4.2-7.1a7.39,7.39,0,0,1-2.5-1.7,8.3,8.3,0,0,1-2-3.1,12.7,12.7,0,0,1,.1-8.6,8.51,8.51,0,0,1,2.1-3.1c.4-.4.9-.7,1.3-1.1a13.8,13.8,0,0,1-5.9-7.2.51.51,0,0,1,.5-.7h.1c5.8.7,8.4,3.9,10.2,6.5h0c-.5-3-.7-8.5,3.1-12.1,0-.1.1-.1.3-.1m-3.2,28.3a4.64,4.64,0,0,0,2.1-.4,4,4,0,0,0,1.6-1.3,5.73,5.73,0,0,0,1-1.9,10.07,10.07,0,0,0,.3-2.5,9.52,9.52,0,0,0-.3-2.5,6.26,6.26,0,0,0-1-2,5.09,5.09,0,0,0-1.6-1.3,5.13,5.13,0,0,0-4.2.1,4,4,0,0,0-1.6,1.3,5.36,5.36,0,0,0-1,2,10.07,10.07,0,0,0-.3,2.5,9.52,9.52,0,0,0,.3,2.5,4.89,4.89,0,0,0,1,1.9,5.09,5.09,0,0,0,1.6,1.3,6.65,6.65,0,0,0,2.1.3m3.2-30.3a2.41,2.41,0,0,0-1.8.7,13.26,13.26,0,0,0-4,8.2,15.08,15.08,0,0,0-7.8-3.1h-.3a2.61,2.61,0,0,0-2.1,1.1,2.41,2.41,0,0,0-.3,2.3,16.13,16.13,0,0,0,4.6,6.6,13.35,13.35,0,0,0-2.1,3.3,13.64,13.64,0,0,0-.9,5.1,12.76,12.76,0,0,0,.9,5,10.08,10.08,0,0,0,2.5,3.8,11.38,11.38,0,0,0,2.5,1.8l3.9,6.6,1.7,2.9,1.7-2.9,3.8-6.5a9.66,9.66,0,0,0,2.6-1.9,9.89,9.89,0,0,0,2.4-3.8,13.48,13.48,0,0,0,.9-5,12.76,12.76,0,0,0-.9-5,10.08,10.08,0,0,0-2.5-3.8,9,9,0,0,0-1.9-1.5c1-3.2,1.9-8.3-.8-12.6a2.08,2.08,0,0,0-2.1-1.3Zm-3.2,28.3a5.07,5.07,0,0,1-1.3-.2,5.5,5.5,0,0,1-.9-.7,2.62,2.62,0,0,1-.6-1.3,5.82,5.82,0,0,1-.3-1.9,5.41,5.41,0,0,1,.3-1.9c.2-.5.4-.9.6-1.3a2.18,2.18,0,0,1,.9-.7,2.5,2.5,0,0,1,1.3-.3,2.77,2.77,0,0,1,1.3.3,5.5,5.5,0,0,1,.9.7,2.62,2.62,0,0,1,.6,1.3,6,6,0,0,1,.3,2,5.41,5.41,0,0,1-.3,1.9c-.2.5-.4.9-.6,1.3a2.18,2.18,0,0,1-.9.7c-.3,0-.8.1-1.3.1Z"></path> <path class="cls-9" d="M315.2,515.35a8.52,8.52,0,0,1-2.5-1.7,9.7,9.7,0,0,1-2.3-3.5,13.19,13.19,0,0,1-.8-4.7,13.6,13.6,0,0,1,.8-4.7,10.65,10.65,0,0,1,2.3-3.5l.3-.3a14.81,14.81,0,0,1-5.2-6.9,1.4,1.4,0,0,1,.2-1.4,1.71,1.71,0,0,1,1.3-.7h.2a13.56,13.56,0,0,1,8.8,4.3c0-3.1.7-6.9,3.7-9.6a1.5,1.5,0,0,1,1.1-.4,1.6,1.6,0,0,1,1.4.8c2.7,4.3,1.4,9.7.4,12.5a10.06,10.06,0,0,1,2.5,1.7,9.7,9.7,0,0,1,2.3,3.5,13.19,13.19,0,0,1,.8,4.7,14,14,0,0,1-.8,4.7,10.43,10.43,0,0,1-2.2,3.5,12,12,0,0,1-2.6,1.8l-4.8,8.2Zm4.8-15a3.06,3.06,0,0,0-1.7.4,2.94,2.94,0,0,0-1.2,1,4,4,0,0,0-.8,1.6,7.8,7.8,0,0,0-.3,2.2,7.32,7.32,0,0,0,.3,2.2,6,6,0,0,0,.8,1.6,4,4,0,0,0,1.2,1,5,5,0,0,0,3.4,0,2.34,2.34,0,0,0,1.2-1,6,6,0,0,0,.8-1.6,7.8,7.8,0,0,0,.3-2.2,8.52,8.52,0,0,0-.3-2.3,6,6,0,0,0-.8-1.6,4,4,0,0,0-1.2-1A4.31,4.31,0,0,0,320,500.35Z"></path> <path class="cls-1" d="M323.2,483.35a.86.86,0,0,1,.6.3c2.8,4.5.8,10.5,0,12.6h0a7.71,7.71,0,0,1,3,1.9,8.3,8.3,0,0,1,2,3.1,13.56,13.56,0,0,1,0,8.6,9.75,9.75,0,0,1-2,3.1,7.82,7.82,0,0,1-2.6,1.7l-4.1,7-4.2-7.1a7.39,7.39,0,0,1-2.5-1.7,8.3,8.3,0,0,1-2-3.1,12.7,12.7,0,0,1,.1-8.6,8.51,8.51,0,0,1,2.1-3.1c.4-.4.9-.7,1.3-1.1a13.8,13.8,0,0,1-5.9-7.2.51.51,0,0,1,.5-.7h.1c5.8.7,8.4,3.9,10.2,6.5h0c-.5-3-.7-8.5,3.1-12.1,0-.1.1-.1.3-.1m-3.2,28.3a4.64,4.64,0,0,0,2.1-.4,4,4,0,0,0,1.6-1.3,5.73,5.73,0,0,0,1-1.9,10.07,10.07,0,0,0,.3-2.5,9.52,9.52,0,0,0-.3-2.5,6.26,6.26,0,0,0-1-2,5.09,5.09,0,0,0-1.6-1.3,5.13,5.13,0,0,0-4.2.1,4,4,0,0,0-1.6,1.3,5.36,5.36,0,0,0-1,2,10.07,10.07,0,0,0-.3,2.5,9.52,9.52,0,0,0,.3,2.5,4.89,4.89,0,0,0,1,1.9,5.09,5.09,0,0,0,1.6,1.3,6.65,6.65,0,0,0,2.1.3m3.2-30.3a2.41,2.41,0,0,0-1.8.7,13.26,13.26,0,0,0-4,8.2,15.08,15.08,0,0,0-7.8-3.1h-.3a2.61,2.61,0,0,0-2.1,1.1,2.41,2.41,0,0,0-.3,2.3,16.13,16.13,0,0,0,4.6,6.6,13.35,13.35,0,0,0-2.1,3.3,13.64,13.64,0,0,0-.9,5.1,12.76,12.76,0,0,0,.9,5,10.08,10.08,0,0,0,2.5,3.8,11.38,11.38,0,0,0,2.5,1.8l3.9,6.6,1.7,2.9,1.7-2.9,3.8-6.5a9.66,9.66,0,0,0,2.6-1.9,9.89,9.89,0,0,0,2.4-3.8,13.48,13.48,0,0,0,.9-5,12.76,12.76,0,0,0-.9-5,10.08,10.08,0,0,0-2.5-3.8,9,9,0,0,0-1.9-1.5c1-3.2,1.9-8.3-.8-12.6a2.08,2.08,0,0,0-2.1-1.3Zm-3.2,28.3a5.07,5.07,0,0,1-1.3-.2,5.5,5.5,0,0,1-.9-.7,2.62,2.62,0,0,1-.6-1.3,5.82,5.82,0,0,1-.3-1.9,5.41,5.41,0,0,1,.3-1.9c.2-.5.4-.9.6-1.3a2.18,2.18,0,0,1,.9-.7,2.5,2.5,0,0,1,1.3-.3,2.77,2.77,0,0,1,1.3.3,5.5,5.5,0,0,1,.9.7,2.62,2.62,0,0,1,.6,1.3,6,6,0,0,1,.3,2,5.41,5.41,0,0,1-.3,1.9c-.2.5-.4.9-.6,1.3a2.18,2.18,0,0,1-.9.7c-.3,0-.8.1-1.3.1Z"></path> <path class="cls-9" d="M299.32,339a8.52,8.52,0,0,1-2.5-1.7,9.7,9.7,0,0,1-2.3-3.5,13.19,13.19,0,0,1-.8-4.7,13.6,13.6,0,0,1,.8-4.7,10.65,10.65,0,0,1,2.3-3.5l.3-.3a14.81,14.81,0,0,1-5.2-6.9,1.4,1.4,0,0,1,.2-1.4,1.71,1.71,0,0,1,1.3-.7h.2a13.56,13.56,0,0,1,8.8,4.3c0-3.1.7-6.9,3.7-9.6a1.5,1.5,0,0,1,1.1-.4,1.6,1.6,0,0,1,1.4.8c2.7,4.3,1.4,9.7.4,12.5a10.06,10.06,0,0,1,2.5,1.7,9.7,9.7,0,0,1,2.3,3.5,13.19,13.19,0,0,1,.8,4.7,14,14,0,0,1-.8,4.7,10.43,10.43,0,0,1-2.2,3.5,12,12,0,0,1-2.6,1.8l-4.8,8.2Zm4.8-15a3.06,3.06,0,0,0-1.7.4,2.94,2.94,0,0,0-1.2,1,4,4,0,0,0-.8,1.6,7.8,7.8,0,0,0-.3,2.2,7.32,7.32,0,0,0,.3,2.2,6,6,0,0,0,.8,1.6,4,4,0,0,0,1.2,1,5,5,0,0,0,3.4,0,2.34,2.34,0,0,0,1.2-1,6,6,0,0,0,.8-1.6,7.8,7.8,0,0,0,.3-2.2,8.52,8.52,0,0,0-.3-2.3,6,6,0,0,0-.8-1.6,4,4,0,0,0-1.2-1A4.31,4.31,0,0,0,304.12,324Z"></path> <path class="cls-1" d="M307.32,307a.86.86,0,0,1,.6.3c2.8,4.5.8,10.5,0,12.6h0a7.71,7.71,0,0,1,3,1.9,8.3,8.3,0,0,1,2,3.1,13.56,13.56,0,0,1,0,8.6,9.75,9.75,0,0,1-2,3.1,7.82,7.82,0,0,1-2.6,1.7l-4.1,7-4.2-7.1a7.39,7.39,0,0,1-2.5-1.7,8.3,8.3,0,0,1-2-3.1,12.7,12.7,0,0,1,.1-8.6,8.51,8.51,0,0,1,2.1-3.1c.4-.4.9-.7,1.3-1.1a13.8,13.8,0,0,1-5.9-7.2.51.51,0,0,1,.5-.7h.1c5.8.7,8.4,3.9,10.2,6.5h0c-.5-3-.7-8.5,3.1-12.1,0-.1.1-.1.3-.1m-3.2,28.3a4.64,4.64,0,0,0,2.1-.4,4,4,0,0,0,1.6-1.3,5.73,5.73,0,0,0,1-1.9,10.07,10.07,0,0,0,.3-2.5,9.52,9.52,0,0,0-.3-2.5,6.26,6.26,0,0,0-1-2,5.09,5.09,0,0,0-1.6-1.3,5.13,5.13,0,0,0-4.2.1,4,4,0,0,0-1.6,1.3,5.36,5.36,0,0,0-1,2,10.07,10.07,0,0,0-.3,2.5,9.52,9.52,0,0,0,.3,2.5,4.89,4.89,0,0,0,1,1.9A5.09,5.09,0,0,0,302,335a6.65,6.65,0,0,0,2.1.3m3.2-30.3a2.41,2.41,0,0,0-1.8.7,13.26,13.26,0,0,0-4,8.2,15.08,15.08,0,0,0-7.8-3.1h-.3a2.61,2.61,0,0,0-2.1,1.1,2.41,2.41,0,0,0-.3,2.3,16.13,16.13,0,0,0,4.6,6.6,13.35,13.35,0,0,0-2.1,3.3,13.64,13.64,0,0,0-.9,5.1,12.76,12.76,0,0,0,.9,5A10.08,10.08,0,0,0,296,338a11.38,11.38,0,0,0,2.5,1.8l3.9,6.6,1.7,2.9,1.7-2.9,3.8-6.5a9.66,9.66,0,0,0,2.6-1.9,9.89,9.89,0,0,0,2.4-3.8,13.48,13.48,0,0,0,.9-5,12.76,12.76,0,0,0-.9-5,10.08,10.08,0,0,0-2.5-3.8,9,9,0,0,0-1.9-1.5c1-3.2,1.9-8.3-.8-12.6a2.08,2.08,0,0,0-2.1-1.3Zm-3.2,28.3a5.07,5.07,0,0,1-1.3-.2,5.5,5.5,0,0,1-.9-.7,2.62,2.62,0,0,1-.6-1.3,5.82,5.82,0,0,1-.3-1.9,5.41,5.41,0,0,1,.3-1.9c.2-.5.4-.9.6-1.3a2.18,2.18,0,0,1,.9-.7,2.5,2.5,0,0,1,1.3-.3,2.77,2.77,0,0,1,1.3.3,5.5,5.5,0,0,1,.9.7,2.62,2.62,0,0,1,.6,1.3,6,6,0,0,1,.3,2,5.41,5.41,0,0,1-.3,1.9c-.2.5-.4.9-.6,1.3a2.18,2.18,0,0,1-.9.7c-.3,0-.8.1-1.3.1Z"></path> <path class="cls-9" d="M432.37,448v-8.32H438v1.58h-3.75v1.63h3.33v1.49h-3.33v2h4V448Z"></path> <path class="cls-9" d="M441.31,443.9l.55-.55.57-.59.53-.57.45-.49h2.17c-.16.17-.35.38-.59.62l-.75.78-.8.8c-.27.26-.52.49-.76.7a8.32,8.32,0,0,1,.77.68c.27.28.54.57.8.88a10,10,0,0,1,.74,1c.21.29.42.59.6.9h-2c-.15-.22-.31-.44-.49-.68s-.38-.47-.58-.7-.4-.45-.6-.65-.4-.37-.58-.52v2.55h-1.79v-6.31h1.79Z"></path> <path class="cls-9" d="M448.75,441.53a4.21,4.21,0,0,1,1.32.18,2,2,0,0,1,.85.52,2,2,0,0,1,.45.81,3.87,3.87,0,0,1,.13,1.07v3.72c-.26.06-.61.12-1.07.2a10.17,10.17,0,0,1-1.65.11,4.6,4.6,0,0,1-1.11-.11,2.4,2.4,0,0,1-.86-.35,1.55,1.55,0,0,1-.55-.64,2.27,2.27,0,0,1-.2-1,1.82,1.82,0,0,1,.23-.94,1.64,1.64,0,0,1,.59-.61,2.84,2.84,0,0,1,.85-.33,4.78,4.78,0,0,1,1-.1h.62a3.21,3.21,0,0,1,.43.07V444a1,1,0,0,0-.27-.74,1.38,1.38,0,0,0-1-.27,6.8,6.8,0,0,0-.9.06,4.13,4.13,0,0,0-.77.19l-.23-1.44.39-.1.51-.1.58-.07A3.4,3.4,0,0,0,448.75,441.53Zm.15,5.23h.88v-1.37l-.32-.05h-.87a1,1,0,0,0-.39.11.63.63,0,0,0-.36.59.61.61,0,0,0,.28.58,1.54,1.54,0,0,0,.73.14Z"></path> <path class="cls-9" d="M458.29,443.16h-2V448h-1.78v-4.85h-2V441.7h5.82Z"></path> <path class="cls-9" d="M459.07,444.9a3.9,3.9,0,0,1,.26-1.47,3.14,3.14,0,0,1,.67-1.05,3,3,0,0,1,2.09-.85,2.82,2.82,0,0,1,2.13.82,3.43,3.43,0,0,1,.78,2.42v.67h-4a1.19,1.19,0,0,0,.51.88,2.14,2.14,0,0,0,1.23.32,5.55,5.55,0,0,0,1-.09,3.48,3.48,0,0,0,.78-.22l.24,1.45-.39.15a4.34,4.34,0,0,0-.53.12l-.63.09a3.75,3.75,0,0,1-.67,0,4.2,4.2,0,0,1-1.49-.25,2.89,2.89,0,0,1-1-.69,2.78,2.78,0,0,1-.61-1A4.21,4.21,0,0,1,459.07,444.9Zm4.2-.68a1.78,1.78,0,0,0-.08-.45,1.07,1.07,0,0,0-.2-.38,1.35,1.35,0,0,0-.35-.28,1.15,1.15,0,0,0-.52-.1,1.1,1.1,0,0,0-.88.37,1.26,1.26,0,0,0-.22.39,2.46,2.46,0,0,0-.11.45Z"></path> <path class="cls-9" d="M472.25,444.85a4.66,4.66,0,0,1-.18,1.34,3,3,0,0,1-.53,1,2.29,2.29,0,0,1-.87.67,2.66,2.66,0,0,1-1.18.24,3.26,3.26,0,0,1-.7-.07,3.48,3.48,0,0,1-.62-.21v2.38h-1.79v-8.32l.55-.13c.21-.05.43-.09.65-.12l.7-.08H469a3.67,3.67,0,0,1,1.39.24,2.69,2.69,0,0,1,1,.66,2.85,2.85,0,0,1,.64,1A4,4,0,0,1,472.25,444.85Zm-1.83,0a2.08,2.08,0,0,0-.37-1.32,1.27,1.27,0,0,0-1.1-.5h-.78v3.31a1.63,1.63,0,0,0,.43.18,2.51,2.51,0,0,0,.55.07c.85,0,1.27-.59,1.27-1.74Z"></path> <path class="cls-9" d="M479.37,441.7V448h-1.8v-3.73l-.7,1-.67,1-.59.93c-.19.3-.36.57-.5.82h-1.57v-6.31h1.78v3.43c.48-.71.93-1.34,1.33-1.9s.8-1.07,1.18-1.52Z"></path> <path class="cls-9" d="M486.49,448h-1.74v-2.5h-1.86V448h-1.84V441.7h1.79v2.35h1.91V441.7h1.79Z"></path> <path class="cls-9" d="M493.68,440.22a4.88,4.88,0,0,1-.84.13,4.74,4.74,0,0,0-.82.11,4.46,4.46,0,0,0-.72.18,2.78,2.78,0,0,0-.67.33,2.42,2.42,0,0,0-.53.53,2.09,2.09,0,0,0-.32.79,3.44,3.44,0,0,1,1.51-.38,3,3,0,0,1,1.07.2,2.45,2.45,0,0,1,.85.57,2.79,2.79,0,0,1,.58,1,4.28,4.28,0,0,1,0,2.74,2.93,2.93,0,0,1-.65,1,2.7,2.7,0,0,1-1,.6,3.6,3.6,0,0,1-1.17.2,2.72,2.72,0,0,1-2.39-1,5.17,5.17,0,0,1-.72-3,8.17,8.17,0,0,1,.25-2.2,3.92,3.92,0,0,1,.76-1.51,3.49,3.49,0,0,1,1.25-1,8,8,0,0,1,1.72-.55c.26,0,.53-.09.8-.12a7.39,7.39,0,0,0,.82-.14Zm-3.93,3.53a2.41,2.41,0,0,0,0,.38v.39a3.46,3.46,0,0,0,.29,1.59,1,1,0,0,0,1,.54,1,1,0,0,0,.9-.45,2.13,2.13,0,0,0,.31-1.23,2.3,2.3,0,0,0-.07-.58,1.75,1.75,0,0,0-.23-.5,1.12,1.12,0,0,0-.38-.34,1.11,1.11,0,0,0-.54-.14,3,3,0,0,0-.66.08A1.27,1.27,0,0,0,489.75,443.75Z"></path> <path class="cls-9" d="M501,441.7c-.36,1.21-.74,2.35-1.13,3.42s-.83,2.09-1.29,3.09a7.46,7.46,0,0,1-.51.92,2.77,2.77,0,0,1-.55.63,2.11,2.11,0,0,1-.68.36,3.27,3.27,0,0,1-.88.11,4.13,4.13,0,0,1-.78-.08,3.86,3.86,0,0,1-.58-.17l.31-1.43a2.83,2.83,0,0,0,.5.13,1.7,1.7,0,0,0,.45,0,1,1,0,0,0,.74-.26,2.17,2.17,0,0,0,.44-.71q-.62-1.2-1.23-2.7c-.44-1.1-.82-2.21-1.15-3.35h1.9c.08.31.17.65.28,1s.22.73.34,1.11.25.73.37,1.08.24.67.36,1c.1-.29.21-.61.32-1s.23-.71.33-1.08.22-.74.32-1.11l.27-1Z"></path> <path class="cls-9" d="M507.81,444.85a4.66,4.66,0,0,1-.18,1.34,2.83,2.83,0,0,1-.53,1,2.26,2.26,0,0,1-.86.67,2.7,2.7,0,0,1-1.19.24,3.23,3.23,0,0,1-.69-.07,3.33,3.33,0,0,1-.63-.21v2.38h-1.79v-8.32l.56-.13c.21-.05.43-.09.65-.12l.7-.08h.67a3.72,3.72,0,0,1,1.4.24,2.82,2.82,0,0,1,1,.66,2.85,2.85,0,0,1,.64,1A3.94,3.94,0,0,1,507.81,444.85Zm-1.82,0a2.21,2.21,0,0,0-.37-1.32,1.29,1.29,0,0,0-1.11-.5h-.78v3.31a1.85,1.85,0,0,0,.44.18,2.51,2.51,0,0,0,.55.07c.84,0,1.27-.59,1.27-1.74Z"></path> <path class="cls-9" d="M513.67,443.16H511V448h-1.79V441.7h4.48Z"></path> <rect class="cls-2" x="406.5" y="420.74" width="118.9" height="16.9"></rect> <path class="cls-9" d="M467,425.77a8.52,8.52,0,0,1-2.5-1.7,10.1,10.1,0,0,1-2.3-3.5,13.8,13.8,0,0,1,0-9.4,10.1,10.1,0,0,1,2.3-3.5l.3-.3a14.33,14.33,0,0,1-5.2-6.9,1.42,1.42,0,0,1,.2-1.4,1.72,1.72,0,0,1,1.3-.7h.2a13.46,13.46,0,0,1,8.8,4.3c0-3.1.7-6.9,3.7-9.6a1.49,1.49,0,0,1,1.1-.4,1.61,1.61,0,0,1,1.4.8c2.7,4.3,1.4,9.7.4,12.5a8.52,8.52,0,0,1,2.5,1.7,10.1,10.1,0,0,1,2.3,3.5,13.8,13.8,0,0,1,0,9.4,9.93,9.93,0,0,1-2.2,3.5,15.06,15.06,0,0,1-2.6,1.8l-4.8,8.2Zm4.9-15.1a3.36,3.36,0,0,0-1.7.4,3,3,0,0,0-1.2,1,3.47,3.47,0,0,0-.8,1.6,8.22,8.22,0,0,0,0,4.4,8,8,0,0,0,.8,1.6,4,4,0,0,0,1.2,1,5,5,0,0,0,3.4,0,2.36,2.36,0,0,0,1.2-1,8,8,0,0,0,.8-1.6,8.22,8.22,0,0,0,.3-2.2,8.49,8.49,0,0,0-.3-2.3,8,8,0,0,0-.8-1.6,4,4,0,0,0-1.2-1A4.69,4.69,0,0,0,471.93,410.67Z"></path> <path class="cls-1" d="M475,393.67a.87.87,0,0,1,.6.3c2.8,4.5.8,10.5,0,12.6h0a7.36,7.36,0,0,1,3,1.9,7.86,7.86,0,0,1,2,3.1,14,14,0,0,1,0,8.6,9.18,9.18,0,0,1-2,3.1A7.76,7.76,0,0,1,476,425l-4.1,7-4.2-7.1a8.52,8.52,0,0,1-2.5-1.7,7.86,7.86,0,0,1-2-3.1,12.7,12.7,0,0,1,.1-8.6,9.51,9.51,0,0,1,2.1-3.1c.4-.4.9-.7,1.3-1.1a14.41,14.41,0,0,1-5.9-7.2.52.52,0,0,1,.26-.69h.34c5.8.7,8.4,3.9,10.2,6.5h0c-.5-3-.7-8.5,3.1-12.1.1,0,.2-.1.3-.1m-3.1,28.4a5.2,5.2,0,0,0,2.1-.4,4,4,0,0,0,1.6-1.3,4.9,4.9,0,0,0,1-1.9,10.57,10.57,0,0,0,0-5,5.38,5.38,0,0,0-1-2,4.5,4.5,0,0,0-5.8-1.2,4.06,4.06,0,0,0-1.6,1.3,5.38,5.38,0,0,0-1,2,10.57,10.57,0,0,0,0,5,4.9,4.9,0,0,0,1,1.9,5,5,0,0,0,1.6,1.3,7.46,7.46,0,0,0,2.1.3m3.1-30.4a2.42,2.42,0,0,0-1.8.7,13.15,13.15,0,0,0-4,8.2,16.18,16.18,0,0,0-7.8-3.1h-.3a2.61,2.61,0,0,0-2.1,1.1,2.37,2.37,0,0,0-.3,2.3,16.06,16.06,0,0,0,4.6,6.6,11.65,11.65,0,0,0-2.1,3.3,14.77,14.77,0,0,0-.9,5.1,14.22,14.22,0,0,0,.9,5,10.53,10.53,0,0,0,2.5,3.8,11.34,11.34,0,0,0,2.5,1.8l3.9,6.6,1.7,2.9,1.7-2.9,3.8-6.5a9.36,9.36,0,0,0,2.6-1.9,10.24,10.24,0,0,0,2.4-3.8,14.34,14.34,0,0,0,0-10,10.62,10.62,0,0,0-2.5-3.8,8.91,8.91,0,0,0-1.9-1.5c1-3.2,1.9-8.3-.8-12.6a2.33,2.33,0,0,0-2.1-1.3Zm-3.1,28.4a5.68,5.68,0,0,1-1.3-.2,5.57,5.57,0,0,1-.9-.7,3.1,3.1,0,0,1-.6-1.3,6.17,6.17,0,0,1,0-3.8c.2-.5.4-.9.6-1.3a1.58,1.58,0,0,1,.9-.7,3,3,0,0,1,2.6,0,5.57,5.57,0,0,1,.9.7,3.16,3.16,0,0,1,.6,1.3,6.47,6.47,0,0,1,.3,2,6.09,6.09,0,0,1-.3,1.9c-.2.5-.4.9-.6,1.3a1.54,1.54,0,0,1-.9.7c-.4,0-.8.1-1.3.1Z"></path> <text class="cls-13" transform="translate(144.91 535.65)">Иноземцево</text> </svg> 