<svg xmlns="http://www.w3.org/2000/svg" viewBox="0 0 164 164"><defs><style>.cls-1{fill:#2cb1f4;}.cls-2{fill:#fff;fill-rule:evenodd;}</style></defs><title>like</title><g id="Layer_2" data-name="Layer 2"><g id="Layer_1-2" data-name="Layer 1"><circle class="cls-1" cx="82" cy="82" r="82"/><path class="cls-2" d="M120.79,82.88a8.33,8.33,0,0,0,8.65-8c.21-4.65-3-8.83-7.58-9L91.49,62s6.33-10.59,6.33-26.27c0-10.46-7.47-11.87-11.87-11.87-3.45,0-4.38,6.7-4.38,6.7h0c-.78,4.29-1.8,8-5.34,15-4,7.73-9.36,7-15.66,13.9a35.51,35.51,0,0,0-4.07,5.68,1.86,1.86,0,0,0-.33.57c-.13.31-.29.52-.43.8-.24.44-.48.89-.71,1.35-3.9,3.9-10,3.5-12.56,3.5-5.19,0-7.91,3-7.91,7.91v36.16c0,5.49,2.24,7.34,7.91,7.34h7.91c4,0,7.1,2.28,11.86,4,6.52,2.26,16.27,4,33.05,4h12a9.6,9.6,0,0,0,6.64-2.81,5.11,5.11,0,0,0,1.53-3.09c0-.26.09-1.33.08-1.48.22-4.74-2.65-6.46-4.27-7,0,0,0-.06.1-.06l5.15.23a8.52,8.52,0,0,0,9.09-8.69c0-4.64-3.76-7.92-8.32-8.14l2.73.12a8.43,8.43,0,0,0,.73-16.84Z"/></g></g></svg>