<svg xmlns="http://www.w3.org/2000/svg" viewBox="0 0 286.9 97.77"><defs><style>.cls-1{fill:#2b397d;}</style></defs><title>Слой 1</title><g id="Layer_2" data-name="Layer 2"><g id="Layer_1-2" data-name="Layer 1"><g id="Слой_1" data-name="Слой 1"><path class="cls-1" d="M97.26,42.45q-7-4.56-19.93-4.56-3.6,0-8.37.34a75.61,75.61,0,0,0-9,1.17V96.6H73V77.16h4.1q13.07,0,20.1-4.65t7-15.12Q104.21,47,97.26,42.45Zm-10,21.73Q83.82,66,77,66H73V49.27l2.39-.17c.92-.05,1.86-.08,2.81-.08a33.39,33.39,0,0,1,5.19.38,11.33,11.33,0,0,1,4,1.34,6.75,6.75,0,0,1,2.51,2.55,8.16,8.16,0,0,1,.88,4c0,3.37-1.19,5.66-3.48,6.89Z"/><path class="cls-1" d="M160.66,44.94a25.57,25.57,0,0,0-9.21-5.78h-.06c2.51-6.13,8.73-24.46.14-38.25a2,2,0,0,0-2.77-.59l-.23.18C136.68,11.39,137.42,28.14,139,37.31h-.08c-5.4-7.79-13.42-17.71-31.06-19.75a1.7,1.7,0,0,0-1.89,1.5,1.63,1.63,0,0,0,.07.73,43.39,43.39,0,0,0,18.08,21.92A26.45,26.45,0,0,0,120,44.94a27.89,27.89,0,0,0-6.32,9.5,34,34,0,0,0-2.34,13.11,35.16,35.16,0,0,0,2.26,13.11,26.76,26.76,0,0,0,6.2,9.46,25.69,25.69,0,0,0,9.2,5.72,32.54,32.54,0,0,0,11.22,1.93,33.24,33.24,0,0,0,11.43-1.93,25,25,0,0,0,9.17-5.74,27.12,27.12,0,0,0,6.07-9.46,35.73,35.73,0,0,0,2.22-13.11,35.16,35.16,0,0,0-2.26-13.11A27.32,27.32,0,0,0,160.66,44.94Zm-6.08,30.3a17.71,17.71,0,0,1-3,5.9,13.21,13.21,0,0,1-4.87,3.8,16.49,16.49,0,0,1-13,0,13.25,13.25,0,0,1-4.81-3.81,17.53,17.53,0,0,1-3-5.9,28.65,28.65,0,0,1,0-15.37,17.49,17.49,0,0,1,3-6,13.75,13.75,0,0,1,4.81-3.85,14.86,14.86,0,0,1,6.53-1.38A15.26,15.26,0,0,1,146.73,50a13.31,13.31,0,0,1,4.86,3.81,17.49,17.49,0,0,1,3,6,26.7,26.7,0,0,1,1,7.75A26.1,26.1,0,0,1,154.58,75.24Z"/><path class="cls-1" d="M188.29,60.2a69,69,0,0,1-3,15.79,14.47,14.47,0,0,1-4.94,7.33q-3.27,2.39-9.3,3.06l1.42,11.39A31,31,0,0,0,184,95.42a22.73,22.73,0,0,0,7.83-5.61,26.74,26.74,0,0,0,4.94-8.12,53.88,53.88,0,0,0,2.76-9.88,97.65,97.65,0,0,0,1.34-10.93q.38-5.66.63-11.26h14.24v47H228.8v-58H189.17Q189.17,50.53,188.29,60.2Z"/><path class="cls-1" d="M30.86,67.8c8.52-5,13.46-13.67,13.46-29.24l-12.1.08C32,57.21,22.89,59.27,13,61V38.56H0v58H13.06L13,73.44q3.73-.59,7.11-1.44C21.9,79,28,94,47.7,97.76l1.42-11.39C39.08,83.26,33.48,76.38,30.86,67.8Z"/><path class="cls-1" d="M280,62.59q-6.87-4.86-21-4.86h-1.8c-.59,0-1.25,0-2,.08V38.56h-13V95.25a71.18,71.18,0,0,0,9.17,1.59,78.39,78.39,0,0,0,8.25.5q12.88,0,20.1-5t7.2-14.74Q286.89,67.44,280,62.59Zm-7.62,19.18a7.94,7.94,0,0,1-2.93,2.68,13.52,13.52,0,0,1-4.27,1.42,29.86,29.86,0,0,1-5,.42h-2.85c-.78,0-1.48,0-2.09-.08V68.87a11.27,11.27,0,0,1,1.42-.08h1.17a47,47,0,0,1,6.49.42,17,17,0,0,1,4.94,1.42,7.06,7.06,0,0,1,4.23,7,7.53,7.53,0,0,1-1.08,4.14Z"/></g></g></g></svg>