<svg xmlns="http://www.w3.org/2000/svg" viewBox="0 0 286.89 97.82"><defs><style>.cls-1{fill:#fff;}</style></defs><title>кроль</title><g id="Layer_2" data-name="Layer 2"><g id="Слой_1" data-name="Слой 1"><path class="cls-1" d="M97.26,42.51Q90.32,38,77.33,38q-3.6,0-8.37.33a75.13,75.13,0,0,0-9,1.17v57.2H73V77.22h4.1q13.07,0,20.1-4.65t7-15.11Q104.21,47.08,97.26,42.51Zm-10,21.73q-3.43,1.85-10.22,1.84H73V49.33c.67,0,1.46-.11,2.38-.16s1.86-.09,2.81-.09a32.91,32.91,0,0,1,5.19.38,11.38,11.38,0,0,1,4,1.34,6.68,6.68,0,0,1,2.51,2.55,8.25,8.25,0,0,1,.88,4Q90.73,62.4,87.3,64.24Z"/><path class="cls-1" d="M160.66,45a25.64,25.64,0,0,0-9.22-5.78l-.06,0c2.51-6.13,8.73-24.46.14-38.25a2,2,0,0,0-3-.41c-11.85,10.89-11.11,27.64-9.57,36.81h-.07c-5.4-7.79-13.43-17.7-31.06-19.75A1.71,1.71,0,0,0,106,19.85a43.41,43.41,0,0,0,18.08,21.92A26.39,26.39,0,0,0,120,45a27.92,27.92,0,0,0-6.32,9.51,33.81,33.81,0,0,0-2.35,13.1,35.09,35.09,0,0,0,2.26,13.11,26.84,26.84,0,0,0,6.2,9.46A25.83,25.83,0,0,0,129,95.9a32.58,32.58,0,0,0,11.22,1.92,33.36,33.36,0,0,0,11.43-1.92,25,25,0,0,0,9.17-5.74,27,27,0,0,0,6.07-9.46,35.73,35.73,0,0,0,2.22-13.11,35,35,0,0,0-2.26-13.1A27.36,27.36,0,0,0,160.66,45ZM154.58,75.3a17.48,17.48,0,0,1-3,5.9A13.15,13.15,0,0,1,146.71,85a16.48,16.48,0,0,1-13,0,13.23,13.23,0,0,1-4.81-3.81,17.5,17.5,0,0,1-3-5.9,28.65,28.65,0,0,1,0-15.37,17.47,17.47,0,0,1,3-6,13.77,13.77,0,0,1,4.81-3.85,14.78,14.78,0,0,1,6.53-1.38,15.28,15.28,0,0,1,6.49,1.34,13.15,13.15,0,0,1,4.86,3.81,17.46,17.46,0,0,1,3,6,26.64,26.64,0,0,1,1,7.74A26.33,26.33,0,0,1,154.58,75.3Z"/><path class="cls-1" d="M188.29,60.26a69.18,69.18,0,0,1-3,15.79,14.46,14.46,0,0,1-4.94,7.33q-3.26,2.39-9.29,3.05l1.42,11.39A31.08,31.08,0,0,0,184,95.48a22.82,22.82,0,0,0,7.83-5.61,26.83,26.83,0,0,0,4.95-8.13,53.21,53.21,0,0,0,2.76-9.88,96.87,96.87,0,0,0,1.34-10.93c.25-3.76.46-7.52.63-11.26h14.23v47h13.07v-58H189.17Q189.17,50.59,188.29,60.26Z"/><path class="cls-1" d="M30.86,67.86c8.53-5,13.46-13.67,13.46-29.24l-12.09.08C32,57.27,22.89,59.33,13,61.1l0-22.48H0v58H13.06L13,73.5c2.49-.4,4.86-.87,7.11-1.44,1.79,7,7.91,22,27.59,25.76l1.42-11.39C39.08,83.32,33.48,76.44,30.86,67.86Z"/><path class="cls-1" d="M280,62.65q-6.87-4.86-21-4.86h-1.8c-.59,0-1.25,0-2,.09V38.62H242.18V95.31a70.73,70.73,0,0,0,9.16,1.59,76.39,76.39,0,0,0,8.25.5q12.9,0,20.1-5t7.2-14.74Q286.89,67.52,280,62.65Zm-7.62,19.18a8.14,8.14,0,0,1-2.93,2.68,13.82,13.82,0,0,1-4.28,1.42,29.31,29.31,0,0,1-5,.42h-2.85c-.78,0-1.48,0-2.09-.08V68.93a12.79,12.79,0,0,1,1.42-.08h1.18a45.3,45.3,0,0,1,6.48.42,16.73,16.73,0,0,1,4.95,1.42,7.06,7.06,0,0,1,4.23,7A7.61,7.61,0,0,1,272.41,81.83Z"/></g></g></svg>