<svg xmlns="http://www.w3.org/2000/svg" viewBox="0 0 403.27 403.27"><defs><style>.cls-1{fill:#fff;}.cls-2{fill:#2cb1f4;}.cls-3{fill:#042b8a;}</style></defs><title>Asset 4</title><g id="Layer_2" data-name="Layer 2"><g id="Слой_1" data-name="Слой 1"><circle class="cls-1" cx="201.63" cy="201.63" r="201.63"/><path class="cls-2" d="M261.09,149.34c-2.74,5.31-9.42,10.06-15,11.3-8.83,2-27.68,23.22-27.68,23.22L196,200l-29.55-7-11.86-7.74,12.51-15.42,7.92-3.9c5.89-2.9,22-8.44,22-8.44l24.39-.12-.7-41.5,21.08,2.64a62.19,62.19,0,1,0,19.34,30.84Z"/><path class="cls-3" d="M262.37,144.61a11.21,11.21,0,0,1-2,5.9c1.17-.23,2.52-.48,4-.72,2.29-.37,6.08-1.84,6.19-5.73s-4.54-5-12.59-4.13C259.59,142.07,262.37,142.88,262.37,144.61Z"/><path class="cls-3" d="M266.47,159.83c-5.46-1.61-11.94-1.11-19.85.67h0l-.09,0-2.26.54c-7.51,1.47-17.66.41-18.11-12.49-.78-22.27,18.87-25.72,27.36-22.08-10.06-20.51-49-33.56-74.14-27.62a1.71,1.71,0,0,0-1.26,2.29c6.39,11.32,34.1,18.91,34.27,19-16.56-.29-35.67,5.3-35.67,9.12,0,3.09,16.33,6.59,32.07,6l1.86-.08c-.87,6.55-.37,11.78,1,15.93-9.78,3.59-16.86,6.88-18.85,7.82l1.85-.65-1.59.57c-2.45.86-3.43,2.66-2.77,4.27,1.94,4.81,18.31-.74,26.43-3.86a19.44,19.44,0,0,0,6.65,4c-12.37,11.91-11,23.82-4.6,20.38,11.62-6.21,20.16-12,42.35-13.49,1.87-.12,7.77-1.56,8.82-4.76C270.91,162.57,269.57,160.74,266.47,159.83Z"/><path class="cls-3" d="M252.06,138.54a2.15,2.15,0,1,0-2.15,2.15A2.15,2.15,0,0,0,252.06,138.54Z"/><path class="cls-3" d="M191.17,177.37c-13.48-.06-19,7.19-23.49,14.19-3.82-3.05-5.36-9.58-3.82-14.83a8.58,8.58,0,1,0-4-4.51c-5,1.83-7.84,5.8-12.57,8.57,0,0-.79.59-4.74-.86-4.13-1.51-11.94,8-15.86,12.63-1.25,1.49-2,2.74-1,4.34a8.24,8.24,0,0,0,4.25,3c8.31,3.05,12.75-16.37,23.29-13,3.79,1.2,7.34,6.77,13,6.83a50.14,50.14,0,0,1-3.78,5.42s-.6.93-5.3.91c-4.92,0-10.6,15.55-12.94,22-.75,2-1.08,3.65.6,4.94a9.26,9.26,0,0,0,5.63,1.59c9.9,0,5.48-25,19.16-24.92,5.51,0,9.69,2.17,16.87,2.19,11.21.05,17.27-8,17.31-18C203.88,180.79,198.75,177.4,191.17,177.37Z"/><path class="cls-3" d="M147.1,256.47q11.13,0,17.09,3.92t6,12.82q0,9-6,13t-17.24,4h-3.52v16.66H132.15V257.77a63.08,63.08,0,0,1,7.76-1Q144,256.48,147.1,256.47Zm.71,9.56c-.81,0-1.61,0-2.4.07l-2,.14v14.37h3.52q5.82,0,8.77-1.58c2-1,2.94-3,2.94-5.89a7.11,7.11,0,0,0-.75-3.45,5.75,5.75,0,0,0-2.16-2.19,9.78,9.78,0,0,0-3.41-1.15A27.73,27.73,0,0,0,147.81,266Z"/><path class="cls-3" d="M225.83,281.9a30.66,30.66,0,0,1-1.9,11.25,23.18,23.18,0,0,1-5.21,8.11,21.5,21.5,0,0,1-7.87,4.93,28.6,28.6,0,0,1-9.8,1.65,27.92,27.92,0,0,1-9.63-1.65,22.22,22.22,0,0,1-7.9-4.93,23.12,23.12,0,0,1-5.32-8.11,30.23,30.23,0,0,1-1.94-11.25,29.17,29.17,0,0,1,2-11.24,23.86,23.86,0,0,1,5.43-8.15,22.17,22.17,0,0,1,7.9-5,27.15,27.15,0,0,1,9.45-1.65,27.82,27.82,0,0,1,9.62,1.65,21.78,21.78,0,0,1,7.91,5,23.32,23.32,0,0,1,5.31,8.15A30,30,0,0,1,225.83,281.9Zm-38,0a22.53,22.53,0,0,0,.9,6.61,15.25,15.25,0,0,0,2.58,5.07,11.63,11.63,0,0,0,4.13,3.27,14.14,14.14,0,0,0,11.17,0,11.34,11.34,0,0,0,4.17-3.27,15.08,15.08,0,0,0,2.59-5.07,22.53,22.53,0,0,0,.9-6.61,22.93,22.93,0,0,0-.9-6.64,15,15,0,0,0-2.59-5.1,11.34,11.34,0,0,0-4.17-3.27,13,13,0,0,0-5.56-1.15,12.71,12.71,0,0,0-5.61,1.18,12,12,0,0,0-4.13,3.31,15.12,15.12,0,0,0-2.58,5.1A22.69,22.69,0,0,0,187.83,281.9Z"/><path class="cls-3" d="M253.6,266.53q-.22,4.82-.54,9.66a84.36,84.36,0,0,1-1.15,9.38,45.76,45.76,0,0,1-2.37,8.47,22.89,22.89,0,0,1-4.24,7,19.68,19.68,0,0,1-6.72,4.82,26.8,26.8,0,0,1-9.84,2l-1.22-9.77a16.66,16.66,0,0,0,8-2.62,12.45,12.45,0,0,0,4.24-6.29,59.08,59.08,0,0,0,2.55-13.54q.75-8.3.76-18.57h34v49.78H265.81v-40.3Z"/><path class="cls-3" d="M107.23,282.13c7.31-4.3,11.55-11.73,11.55-25.08l-10.38.06c-.16,15.94-8,17.7-16.47,19.22l0-19.28H80.76v49.78H92l0-19.86c2.14-.34,4.18-.74,6.1-1.23,1.54,6,6.79,18.89,23.67,22.1l1.22-9.77C114.28,295.4,109.47,289.49,107.23,282.13Z"/><path class="cls-3" d="M326.87,290.52q0,8.34-6.18,12.65t-17.24,4.31a68.4,68.4,0,0,1-7.07-.43,63.16,63.16,0,0,1-7.87-1.37V257.05h11.21v16.52c.62-.05,1.18-.07,1.69-.07H303q12.14,0,18,4.16T326.87,290.52ZM301.94,283h-1a11.63,11.63,0,0,0-1.22.07v14.87c.52.05,1.12.08,1.79.08H304a25.32,25.32,0,0,0,4.31-.36,11.69,11.69,0,0,0,3.66-1.23,6.85,6.85,0,0,0,2.51-2.29,6.43,6.43,0,0,0,.94-3.6,6.07,6.07,0,0,0-3.63-6,14.45,14.45,0,0,0-4.24-1.22A39,39,0,0,0,301.94,283Z"/></g></g></svg>