<svg xmlns="http://www.w3.org/2000/svg" viewBox="0 0 415.44 79.2"><defs><style>.cls-1{fill:#2cb1f4;}.cls-2{fill:#fff;}.cls-3{fill:#042b8a;}</style></defs><title>PATTERN</title><g id="Layer_2" data-name="Layer 2"><g id="Слой_1" data-name="Слой 1"><rect class="cls-1" y="31.36" width="415.43" height="47.84"/><circle class="cls-2" cx="89.65" cy="16.77" r="7.27"/><circle class="cls-3" cx="103.11" cy="54.18" r="3.12"/><circle class="cls-2" cx="382.36" cy="51.06" r="3.12"/><circle class="cls-3" cx="254.46" cy="48.14" r="6.05"/><path class="cls-2" d="M39.11,20.8c1.2-.9,4.59-2.8,4.59-2.8l5.47-1L47.32,7.69l6.5-.36,1.31,1.4a16.18,16.18,0,0,1,1.26,2.38c.32.87,1.38.83,1.47,1.33.29,1.57-1.45,3.61-3,4.27-1.9.8-5.27,6.35-5.27,6.35l-4.38,4.53-6.93-.36-3-1.26,2.17-4Z"/><path class="cls-3" d="M57.86,12.44a2.52,2.52,0,0,1-.2,1.41l.88-.33A1.48,1.48,0,0,0,59.69,12c-.13-.89-1.22-.93-3-.41C57.13,12,57.79,12.06,57.86,12.44Z"/><path class="cls-3" d="M59.41,15.7a9.07,9.07,0,0,0-4.44,1h0l-.48.22c-1.63.63-3.95.81-4.58-2.07-1.09-5,3.19-6.55,5.24-6.08C52,4.54,42.76,3.19,37.35,5.56a.38.38,0,0,0-.19.56C39.06,8.4,45.6,9,45.64,9c-3.74.61-7.8,2.65-7.65,3.51.13.69,3.94.81,7.45,0l.42-.09A8,8,0,0,0,46.74,16c-2.05,1.21-3.51,2.23-3.91,2.53l.39-.22-.34.19c-.51.29-.66.74-.45,1.07.64,1,4.09-.91,5.78-1.94a4.49,4.49,0,0,0,1.66.63c-2.29,3.18-1.5,5.8-.2,4.77,2.36-1.87,4-3.53,9-4.76.42-.11,1.69-.67,1.79-1.43S60.14,15.77,59.41,15.7Z"/><path class="cls-3" d="M55.3,11.5a.49.49,0,1,0-1,.18.49.49,0,0,0,.57.39A.49.49,0,0,0,55.3,11.5Z"/><path class="cls-3" d="M43.2,22.71c-3,.54-4,2.39-4.69,4.15A3.35,3.35,0,0,1,37,23.68a1.94,1.94,0,0,0,1.72-.26,2,2,0,1,0-2.8-.59c-1.05.62-1.52,1.62-2.47,2.44,0,0-.15.16-1.1,0S30,27.54,29.34,28.75c-.22.39-.34.7,0,1a1.89,1.89,0,0,0,1.07.51c2,.35,2.2-4.2,4.71-3.88.9.11,1.92,1.22,3.2,1a10.86,10.86,0,0,1-.62,1.37s-.1.24-1.16.42-1.74,3.93-2,5.46c-.08.49-.09.87.34,1.09a2.13,2.13,0,0,0,1.33.13c2.22-.4.21-5.84,3.29-6.38,1.24-.22,2.26.09,3.88-.2a3.81,3.81,0,0,0,3.15-4.76C46.2,23,44.91,22.41,43.2,22.71Z"/><path class="cls-2" d="M415.44,28.09V47.15c-8.09,0-12.4-3.19-15.86-5.76-3-2.24-5.21-3.86-10.12-3.86s-7.09,1.62-10.12,3.86c-3.46,2.57-7.76,5.76-15.84,5.76S351.11,44,347.66,41.39c-3-2.24-5.22-3.86-10.12-3.86s-7.09,1.62-10.12,3.86c-3.47,2.57-7.77,5.76-15.84,5.76S299.19,44,295.73,41.39c-3-2.24-5.22-3.86-10.12-3.86s-7.1,1.62-10.13,3.86c-3.45,2.57-7.76,5.76-15.84,5.76S247.26,44,243.8,41.39c-3-2.24-5.21-3.86-10.12-3.86s-7.09,1.62-10.12,3.86c-3.45,2.57-7.77,5.76-15.84,5.76S195.33,44,191.87,41.39c-3-2.24-5.22-3.86-10.13-3.86s-7.09,1.62-10.11,3.86c-3.46,2.57-7.77,5.76-15.85,5.76S143.4,44,139.94,41.39c-3-2.24-5.22-3.86-10.12-3.86s-7.09,1.62-10.12,3.86c-3.45,2.57-7.76,5.76-15.84,5.76S91.47,44,88,41.39c-3-2.24-5.22-3.86-10.12-3.86s-7.09,1.62-10.12,3.86C64.31,44,60,47.15,51.92,47.15S39.54,44,36.08,41.39c-3-2.24-5.21-3.86-10.12-3.86s-7.09,1.62-10.12,3.86C12.39,44,8.09,47.15,0,47.15V28.09c4.91,0,7.09-1.63,10.12-3.87,3.46-2.57,7.77-5.76,15.84-5.76s12.39,3.19,15.84,5.76c3,2.24,5.22,3.87,10.12,3.87S59,26.46,62.05,24.22c3.46-2.57,7.77-5.76,15.85-5.76s12.38,3.19,15.84,5.76c3,2.24,5.22,3.87,10.12,3.87S111,26.46,114,24.22c3.46-2.57,7.76-5.76,15.84-5.76s12.39,3.19,15.84,5.76c3,2.24,5.22,3.87,10.12,3.87s7.09-1.63,10.12-3.87c3.47-2.57,7.77-5.76,15.84-5.76s12.39,3.19,15.86,5.76c3,2.24,5.21,3.87,10.12,3.87s7.09-1.63,10.12-3.87c3.46-2.57,7.76-5.76,15.84-5.76s12.39,3.19,15.84,5.76c3,2.24,5.22,3.87,10.12,3.87s7.09-1.63,10.12-3.87c3.46-2.57,7.77-5.76,15.85-5.76s12.38,3.19,15.85,5.76c3,2.24,5.21,3.87,10.12,3.87s7.09-1.63,10.11-3.87c3.46-2.57,7.77-5.76,15.85-5.76s12.38,3.19,15.84,5.76c3,2.24,5.21,3.87,10.12,3.87s7.09-1.63,10.12-3.87c3.46-2.57,7.77-5.76,15.84-5.76s12.39,3.19,15.84,5.76C408.33,26.46,410.52,28.09,415.44,28.09Z"/><circle class="cls-2" cx="322.49" cy="16.77" r="7.27"/><path class="cls-3" d="M415.44,23.52V42.59c-8.09,0-12.4-3.2-15.86-5.76-3-2.25-5.21-3.87-10.12-3.87s-7.09,1.62-10.12,3.87c-3.46,2.56-7.76,5.76-15.84,5.76s-12.39-3.2-15.84-5.76c-3-2.25-5.22-3.87-10.12-3.87s-7.09,1.62-10.12,3.87c-3.47,2.56-7.77,5.76-15.84,5.76s-12.39-3.2-15.85-5.76c-3-2.25-5.22-3.87-10.12-3.87s-7.1,1.62-10.13,3.87c-3.45,2.56-7.76,5.76-15.84,5.76s-12.38-3.2-15.84-5.76c-3-2.25-5.21-3.87-10.12-3.87s-7.09,1.62-10.12,3.87c-3.45,2.56-7.77,5.76-15.84,5.76s-12.39-3.2-15.85-5.76c-3-2.25-5.22-3.87-10.13-3.87s-7.09,1.62-10.11,3.87c-3.46,2.56-7.77,5.76-15.85,5.76s-12.38-3.2-15.84-5.76c-3-2.25-5.22-3.87-10.12-3.87s-7.09,1.62-10.12,3.87c-3.45,2.56-7.76,5.76-15.84,5.76S91.47,39.39,88,36.83C85,34.58,82.8,33,77.9,33s-7.09,1.62-10.12,3.87c-3.47,2.56-7.77,5.76-15.86,5.76s-12.38-3.2-15.84-5.76C33.05,34.58,30.87,33,26,33s-7.09,1.62-10.12,3.87C12.39,39.39,8.09,42.59,0,42.59V23.52c4.91,0,7.09-1.63,10.12-3.87,3.46-2.57,7.77-5.76,15.84-5.76s12.39,3.19,15.84,5.76c3,2.24,5.22,3.87,10.12,3.87S59,21.89,62.05,19.65c3.46-2.57,7.77-5.76,15.85-5.76s12.38,3.19,15.84,5.76c3,2.24,5.22,3.87,10.12,3.87S111,21.89,114,19.65c3.46-2.57,7.76-5.76,15.84-5.76s12.39,3.19,15.84,5.76c3,2.24,5.22,3.87,10.12,3.87s7.09-1.63,10.12-3.87c3.47-2.57,7.77-5.76,15.84-5.76s12.39,3.19,15.86,5.76c3,2.24,5.21,3.87,10.12,3.87s7.09-1.63,10.12-3.87c3.46-2.57,7.76-5.76,15.84-5.76s12.39,3.19,15.84,5.76c3,2.24,5.22,3.87,10.12,3.87s7.09-1.63,10.12-3.87c3.46-2.57,7.77-5.76,15.85-5.76s12.38,3.19,15.85,5.76c3,2.24,5.21,3.87,10.12,3.87s7.09-1.63,10.11-3.87c3.46-2.57,7.77-5.76,15.85-5.76s12.38,3.19,15.84,5.76c3,2.24,5.21,3.87,10.12,3.87s7.09-1.63,10.12-3.87c3.46-2.57,7.77-5.76,15.84-5.76s12.39,3.19,15.84,5.76C408.33,21.89,410.52,23.52,415.44,23.52Z"/><path class="cls-2" d="M360.35,8.35c1.09,1,3.55,4,3.55,4l2,5.21,8.83-3.43,1.48,6.33L375,22a16.23,16.23,0,0,1-2.12,1.66c-.8.46-.58,1.5-1.06,1.68-1.49.55-3.81-.8-4.72-2.22C366,21.43,360,19.07,360,19.07l-5.22-3.53-.85-6.88.72-3.15L358.89,7Z"/><path class="cls-3" d="M371.84,25.38a2.61,2.61,0,0,1-1.42,0c.14.24.3.5.47.81a1.51,1.51,0,0,0,1.72.87c.86-.29.71-1.37-.11-3C372.16,24.58,372.21,25.24,371.84,25.38Z"/><path class="cls-3" d="M368.9,27.46a9,9,0,0,0-1.71-4.2h0v0l-.3-.44c-.91-1.49-1.48-3.75,1.24-4.87,4.71-1.93,7,2,6.9,4.11,3.59-3.77,3.31-13.15,0-18.06a.4.4,0,0,0-.59-.09c-1.92,2.27-1.35,8.8-1.35,8.84-1.24-3.57-4-7.22-4.77-6.92s-.12,4,1.25,7.35l.16.39A8.13,8.13,0,0,0,366.43,15c-1.54-1.81-2.81-3.07-3.17-3.42l.29.34-.25-.29c-.38-.46-.84-.53-1.13-.26-.88.8,1.61,3.87,2.92,5.36a4.39,4.39,0,0,0-.34,1.74c-3.53-1.7-6-.47-4.73.63,2.25,2,4.18,3.37,6.25,8,.17.39,1,1.54,1.71,1.51S369,28.2,368.9,27.46Z"/><path class="cls-3" d="M372.32,22.69a.48.48,0,0,0,.29-.63.48.48,0,0,0-.63-.29.49.49,0,0,0-.29.63A.5.5,0,0,0,372.32,22.69Z"/><path class="cls-3" d="M359.18,12.72c-1.05-2.89-3-3.5-4.9-3.9a3.37,3.37,0,0,1,2.88-2,2,2,0,0,0,3.32,1.66,2,2,0,0,0-2.67-2.87c-.79-.93-1.87-1.21-2.83-2,0,0-.19-.12-.2-1.08S352.14.59,350.83.12c-.42-.15-.75-.21-1,.13a1.87,1.87,0,0,0-.32,1.15c0,2,4.52,1.44,4.64,4,0,.91-.87,2.11-.43,3.33a11.5,11.5,0,0,1-1.46-.38s-.25-.05-.62-1.06-4.17-1-5.72-1c-.5,0-.87.06-1,.52a2.11,2.11,0,0,0,.1,1.33c.78,2.12,5.78-.8,6.86,2.13.43,1.18.3,2.24.86,3.79A3.81,3.81,0,0,0,358,16.26C359.46,15.72,359.78,14.35,359.18,12.72Z"/><circle class="cls-2" cx="151.45" cy="30.46" r="5.61"/><path class="cls-3" d="M157.62,25.87A6.14,6.14,0,0,0,155.8,24h0c1-1.3,3.5-5.23,2.3-9a.49.49,0,0,0-.69-.28c-3.43,1.86-4.24,5.84-4.43,8.08h0a9.93,9.93,0,0,0-6.13-6.48.41.41,0,0,0-.56.42,10.5,10.5,0,0,0,2.95,6.22,6.89,6.89,0,0,0-1.14.52A6.63,6.63,0,0,0,146,25.31a8.29,8.29,0,0,0-1.33,2.94,8.66,8.66,0,0,0-.25,3.22,6.65,6.65,0,0,0,.9,2.59A6.3,6.3,0,0,0,147.17,36a8,8,0,0,0,2.52,1.12,8.15,8.15,0,0,0,2.8.22,6.13,6.13,0,0,0,2.5-.8,6.61,6.61,0,0,0,2-1.87,8.54,8.54,0,0,0,1.3-2.94,8.42,8.42,0,0,0,.25-3.21A6.43,6.43,0,0,0,157.62,25.87Zm-3.22,6.76a4.27,4.27,0,0,1-1.06,1.2,3.11,3.11,0,0,1-1.36.61,3.69,3.69,0,0,1-1.61-.07,3.64,3.64,0,0,1-1.45-.7,3.29,3.29,0,0,1-.91-1.18,4.15,4.15,0,0,1-.35-1.57,6.89,6.89,0,0,1,.91-3.6,4.1,4.1,0,0,1,1.06-1.22,3.25,3.25,0,0,1,1.36-.62,3.55,3.55,0,0,1,1.61.06,3.7,3.7,0,0,1,1.45.7,3.18,3.18,0,0,1,.91,1.18,4.36,4.36,0,0,1,.36,1.58,6.72,6.72,0,0,1-.22,1.88A6.16,6.16,0,0,1,154.4,32.63Z"/><path class="cls-3" d="M150.44,28.75a.48.48,0,0,0-.53-.44.49.49,0,0,0-.44.54.48.48,0,0,0,.53.44A.49.49,0,0,0,150.44,28.75Z"/><path class="cls-3" d="M154.09,29.29a.49.49,0,0,0-.54-.44.5.5,0,0,0-.44.54.49.49,0,0,0,1-.1Z"/><path class="cls-1" d="M399.59,25.6c-3-2.25-5.22-3.87-10.13-3.87s-7.09,1.62-10.12,3.87c-3.45,2.57-7.77,5.76-15.84,5.76s-12.38-3.19-15.85-5.76c-3-2.25-5.22-3.87-10.11-3.87s-7.09,1.62-10.12,3.87c-3.46,2.57-7.77,5.76-15.85,5.76s-12.39-3.19-15.84-5.76c-3-2.25-5.22-3.87-10.12-3.87s-7.09,1.62-10.12,3.87c-3.46,2.57-7.76,5.76-15.85,5.76s-12.38-3.19-15.84-5.76c-3-2.25-5.21-3.87-10.12-3.87s-7.09,1.62-10.12,3.87c-3.46,2.57-7.76,5.76-15.84,5.76s-12.39-3.19-15.85-5.76c-3-2.25-5.22-3.87-10.13-3.87s-7.09,1.62-10.11,3.87c-3.46,2.57-7.77,5.76-15.85,5.76s-12.38-3.19-15.84-5.76c-3-2.25-5.22-3.87-10.12-3.87s-7.09,1.62-10.12,3.87c-3.45,2.57-7.76,5.76-15.84,5.76S91.47,28.17,88,25.6c-3-2.25-5.22-3.87-10.12-3.87s-7.09,1.62-10.12,3.87c-3.47,2.57-7.77,5.76-15.86,5.76S39.54,28.17,36.08,25.6c-3-2.25-5.21-3.87-10.12-3.87s-7.09,1.62-10.12,3.87C12.39,28.17,8.09,31.36,0,31.36v4.56c8.09,0,12.39-3.18,15.84-5.75,3-2.24,5.22-3.87,10.12-3.87s7.09,1.63,10.12,3.87c3.46,2.57,7.77,5.75,15.84,5.75s12.39-3.18,15.86-5.75c3-2.24,5.21-3.87,10.12-3.87S85,27.93,88,30.17c3.45,2.57,7.76,5.75,15.84,5.75s12.39-3.18,15.84-5.75c3-2.24,5.22-3.87,10.12-3.87s7.09,1.63,10.12,3.87c3.46,2.57,7.77,5.75,15.84,5.75s12.39-3.18,15.85-5.75c3-2.24,5.22-3.87,10.11-3.87s7.11,1.63,10.13,3.87c3.46,2.56,7.77,5.75,15.84,5.75h0c8.08,0,12.38-3.19,15.84-5.75,3-2.24,5.22-3.87,10.12-3.87s7.09,1.63,10.12,3.87c3.46,2.57,7.76,5.75,15.84,5.75s12.39-3.18,15.85-5.75c3-2.24,5.21-3.87,10.12-3.87s7.09,1.63,10.12,3.87c3.45,2.57,7.77,5.75,15.84,5.75s12.39-3.18,15.85-5.75c3-2.24,5.22-3.87,10.12-3.87s7.08,1.63,10.11,3.87c3.47,2.57,7.77,5.75,15.85,5.75s12.39-3.18,15.84-5.75c3-2.24,5.22-3.87,10.12-3.87s7.1,1.63,10.13,3.87c3.45,2.57,7.77,5.75,15.84,5.75V31.36C407.36,31.36,403,28.17,399.59,25.6Z"/><circle class="cls-2" cx="165.67" cy="69.13" r="8.56"/><circle class="cls-2" cx="322.49" cy="74.21" r="2.99"/></g></g></svg>