<svg width="10" height="9" viewBox="0 0 10 9" fill="none" xmlns="http://www.w3.org/2000/svg">
<path d="M5.88439 4.50009L9.81676 0.960808C10.0611 0.741104 10.0611 0.384623 9.81676 0.164919C9.57245 -0.054973 9.1768 -0.054973 8.93248 0.164919L5.0001 3.7042L1.06752 0.164919C0.823206 -0.054973 0.42755 -0.054973 0.183236 0.164919C-0.0610786 0.384623 -0.0610786 0.741104 0.183236 0.960808L4.11582 4.50009L0.183236 8.03938C-0.0610786 8.25908 -0.0610786 8.61556 0.183236 8.83527C0.305393 8.94503 0.46549 9 0.625378 9C0.785266 9 0.945363 8.94503 1.06752 8.83508L5.0001 5.29579L8.93248 8.83508C9.05464 8.94503 9.21473 9 9.37462 9C9.53451 9 9.69461 8.94503 9.81676 8.83508C10.0611 8.61538 10.0611 8.2589 9.81676 8.03919L5.88439 4.50009Z" fill="white"/>
</svg>
