<svg width="17" height="18" viewBox="0 0 17 18" fill="none" xmlns="http://www.w3.org/2000/svg">
<path fill-rule="evenodd" clip-rule="evenodd" d="M12.7429 12.0643L16.8537 16.217C17.0487 16.4141 17.0487 16.7399 16.8537 16.937C16.7562 17.0393 16.6249 17.0885 16.4974 17.0885C16.3699 17.0885 16.2386 17.0355 16.1411 16.937L12.0302 12.7842C10.7625 13.8982 9.10842 14.5726 7.30056 14.5726C3.32478 14.5726 0.0878906 11.3027 0.0878906 7.2863C0.0878906 3.26993 3.32103 0 7.30056 0C11.2763 0 14.5132 3.26614 14.5132 7.2863C14.5132 9.11261 13.8456 10.7836 12.7429 12.0643ZM7.29686 1.02304C3.87994 1.02304 1.09689 3.83071 1.09689 7.2863C1.09689 10.7419 3.87994 13.5534 7.29686 13.5534C10.7175 13.5534 13.4968 10.7381 13.4968 7.2863C13.4968 3.8345 10.7175 1.02304 7.29686 1.02304Z" fill="white"/>
</svg>
