<svg width="63" height="61" viewBox="0 0 63 61" fill="none" xmlns="http://www.w3.org/2000/svg">
<g id="airport">
<g id="Group 3">
<mask id="mask0" mask-type="alpha" maskUnits="userSpaceOnUse" x="0" y="0" width="63" height="61">
<path id="Clip 2" fill-rule="evenodd" clip-rule="evenodd" d="M0 0H63V60.9924H0V0Z" fill="white"/>
</mask>
<g mask="url(#mask0)">
<path id="Fill 1" fill-rule="evenodd" clip-rule="evenodd" d="M61.95 35.5833H58.8V30.5C58.8 29.9385 58.3299 29.4833 57.75 29.4833H36.75C36.1701 29.4833 35.7 29.9385 35.7 30.5V35.5833H23.1V16.2667H25.2C25.6516 16.2662 26.0526 15.9862 26.1957 15.5711L28.2957 9.47114C28.3315 9.36795 28.3495 9.25916 28.35 9.15V4.06667C28.35 3.50521 27.8799 3.05 27.3 3.05H15.75V1.01667C15.75 0.455212 15.2799 0 14.7 0C14.1201 0 13.65 0.455212 13.65 1.01667V3.05H2.1C1.52014 3.05 1.05 3.50521 1.05 4.06667V9.15C1.05052 9.25916 1.06851 9.36795 1.10434 9.47114L3.20434 15.5711C3.3474 15.9862 3.74837 16.2662 4.2 16.2667H6.3V35.5833H1.05C0.470137 35.5833 0 36.0385 0 36.6V59.9833C0 60.5448 0.470137 61 1.05 61H61.95C62.5299 61 63 60.5448 63 59.9833V36.6C63 36.0385 62.5299 35.5833 61.95 35.5833ZM37.8 35.5833H56.7V31.5167H37.8V35.5833ZM3.15 8.13333H26.25V5.08333H3.15V8.13333ZM4.95731 14.2333L3.55661 10.1667H25.8434L24.4427 14.2333H4.95731ZM8.4 24.4H21V20.3333H8.4V24.4ZM8.4 35.5833H21V26.4333H8.4V35.5833ZM8.4 18.3H21V16.2667H8.4V18.3ZM2.1 58.9667H60.9V37.6167H2.1V58.9667Z" fill="#FFA700"/>
</g>
</g>
<path id="Fill 4" fill-rule="evenodd" clip-rule="evenodd" d="M18.9286 44H6.07143C5.47973 44 5 44.4477 5 45V56C5 56.5522 5.47973 57 6.07143 57H18.9286C19.5203 57 20 56.5522 20 56V45C20 44.4477 19.5203 44 18.9286 44ZM7.14286 55H17.8571V46H7.14286V55Z" fill="#FFA700"/>
<path id="Fill 5" fill-rule="evenodd" clip-rule="evenodd" d="M37.9286 44H25.0714C24.4797 44 24 44.4477 24 45V56C24 56.5522 24.4797 57 25.0714 57H37.9286C38.5203 57 39 56.5522 39 56V45C39 44.4477 38.5203 44 37.9286 44ZM26.1429 55H36.8571V46H26.1429V55Z" fill="#FFA700"/>
<path id="Fill 6" fill-rule="evenodd" clip-rule="evenodd" d="M56.9286 44H44.0714C43.4797 44 43 44.4477 43 45V56C43 56.5522 43.4797 57 44.0714 57H56.9286C57.5203 57 58 56.5522 58 56V45C58 44.4477 57.5203 44 56.9286 44ZM45.1429 55H55.8571V46H45.1429V55Z" fill="#FFA700"/>
<path id="Fill 7" fill-rule="evenodd" clip-rule="evenodd" d="M6.96149 42H10.0385C10.5695 42 11 41.3284 11 40.5C11 39.6716 10.5695 39 10.0385 39H6.96149C6.43051 39 6 39.6716 6 40.5C6 41.3284 6.43051 42 6.96149 42Z" fill="#FFA700"/>
<path id="Fill 8" fill-rule="evenodd" clip-rule="evenodd" d="M13.9615 42H17.0385C17.5695 42 18 41.3284 18 40.5C18 39.6716 17.5695 39 17.0385 39H13.9615C13.4305 39 13 39.6716 13 40.5C13 41.3284 13.4305 42 13.9615 42Z" fill="#FFA700"/>
<path id="Fill 9" fill-rule="evenodd" clip-rule="evenodd" d="M26 40.5C26 39.6716 25.5699 39 25.0384 39H21.9616C21.4306 39 21 39.6716 21 40.5C21 41.3284 21.4306 42 21.9616 42H25.0384C25.5699 42 26 41.3284 26 40.5Z" fill="#FFA700"/>
<path id="Fill 10" fill-rule="evenodd" clip-rule="evenodd" d="M29.9615 42H33.0385C33.5695 42 34 41.3284 34 40.5C34 39.6716 33.5695 39 33.0385 39H29.9615C29.4305 39 29 39.6716 29 40.5C29 41.3284 29.4305 42 29.9615 42Z" fill="#FFA700"/>
<path id="Fill 11" fill-rule="evenodd" clip-rule="evenodd" d="M41.0384 39H37.9616C37.4301 39 37 39.6716 37 40.5C37 41.3284 37.4301 42 37.9616 42H41.0384C41.5694 42 42 41.3284 42 40.5C42 39.6716 41.5694 39 41.0384 39Z" fill="#FFA700"/>
<path id="Fill 12" fill-rule="evenodd" clip-rule="evenodd" d="M45.9615 42H49.0385C49.5695 42 50 41.3284 50 40.5C50 39.6716 49.5695 39 49.0385 39H45.9615C45.4305 39 45 39.6716 45 40.5C45 41.3284 45.4305 42 45.9615 42Z" fill="#FFA700"/>
<path id="Fill 13" fill-rule="evenodd" clip-rule="evenodd" d="M56.0385 39H52.9615C52.4305 39 52 39.6716 52 40.5C52 41.3284 52.4305 42 52.9615 42H56.0385C56.5695 42 57 41.3284 57 40.5C57 39.6716 56.5695 39 56.0385 39Z" fill="#FFA700"/>
<g id="Group 17">
<path id="Fill 14" fill-rule="evenodd" clip-rule="evenodd" d="M26 22.9167C26.0045 23.3613 26.0677 23.8028 26.1882 24.2305C26.3091 24.6842 26.7151 24.9995 27.1789 25.0001H51.5434C52.0071 24.9995 52.4131 24.6842 52.534 24.2305C52.6545 23.8028 52.7177 23.3613 52.7222 22.9167C52.6977 21.3801 52.0167 19.9296 50.8559 18.9413C49.6946 17.9531 48.1675 17.5238 46.6695 17.7649C45.3611 15.1352 42.6848 13.495 39.7792 13.5428C36.874 13.5911 34.2514 15.3184 33.0278 17.9896C32.4763 17.8034 31.8992 17.7084 31.3176 17.7084C28.433 17.6652 26.0563 19.9932 26 22.9167ZM31.3176 19.7917C31.9453 19.7922 32.56 19.9697 33.0936 20.3045C33.374 20.4809 33.7209 20.5105 34.026 20.3833C34.3317 20.2566 34.5579 19.9886 34.6353 19.6636C35.2871 17.3412 37.3432 15.711 39.7239 15.6291C42.1051 15.5472 44.2657 17.032 45.0716 19.3045C45.2463 19.8517 45.8253 20.1519 46.3654 19.9748C46.7001 19.8594 47.0508 19.7973 47.4046 19.7917C49.1556 19.745 50.614 21.1421 50.6667 22.9167H28.0556C28.1082 21.1421 29.5666 19.745 31.3176 19.7917Z" fill="#FFA700"/>
<path id="Fill 16" fill-rule="evenodd" clip-rule="evenodd" d="M56.9473 4.22315C55.639 1.59346 52.9626 -0.0467699 50.057 0.00101659C47.1518 0.0493239 44.5292 1.77667 43.3056 4.44789C42.7541 4.26169 42.177 4.16664 41.5954 4.16664C38.7108 4.12341 36.3341 6.45141 36.2778 9.37498C36.2823 9.81951 36.3455 10.261 36.466 10.6888C36.5869 11.1424 36.9929 11.4578 37.4567 11.4583H61.8212C62.285 11.4578 62.691 11.1424 62.8118 10.6888C62.9323 10.261 62.9956 9.81951 63.0001 9.37498C62.9755 7.83839 62.2945 6.38787 61.1337 5.39958C59.9725 4.4113 58.4453 3.98201 56.9473 4.22315ZM38.3334 9.37498C38.3861 7.60037 39.8445 6.20323 41.5954 6.24998C42.2231 6.2505 42.8379 6.42797 43.3714 6.76274C43.6519 6.93917 43.9988 6.96873 44.3039 6.84151C44.6095 6.71482 44.8358 6.44685 44.9131 6.12185C45.565 3.79945 47.621 2.16925 50.0017 2.08734C52.383 2.00544 54.5435 3.49021 55.3494 5.76274C55.5241 6.31 56.1032 6.61013 56.6432 6.43305C56.9779 6.31768 57.3286 6.25557 57.6825 6.24998C59.4334 6.20323 60.8918 7.60037 60.9445 9.37498H38.3334Z" fill="#FFA700"/>
</g>
</g>
</svg>
