<svg width="22" height="22" viewBox="0 0 22 22" fill="none" xmlns="http://www.w3.org/2000/svg">
<g id="001-discord">
<g id="Group 3">
<mask id="mask0" mask-type="alpha" maskUnits="userSpaceOnUse" x="0" y="0" width="23" height="22">
<path id="Clip 2" fill-rule="evenodd" clip-rule="evenodd" d="M0.00268555 0H22.0001V22H0.00268555V0Z" fill="white"/>
</mask>
<g mask="url(#mask0)">
<path id="Fill 1" fill-rule="evenodd" clip-rule="evenodd" d="M11 0C17.0751 0 22 4.92486 22 11C22 17.0751 17.0751 22 11 22C4.92486 22 0 17.0751 0 11C0 4.92486 4.92486 0 11 0Z" fill="black"/>
</g>
</g>
<path id="Fill 4" fill-rule="evenodd" clip-rule="evenodd" d="M10.8097 0C10.315 0 9.82788 0.0319688 9.3501 0.0931133C14.8407 0.796211 19.0808 5.41118 19.0808 11C19.0808 16.5888 14.8407 21.2038 9.3501 21.9069C9.82788 21.968 10.315 22 10.8097 22C16.99 22 22.0001 17.0751 22.0001 11C22.0001 4.92491 16.99 0 10.8097 0Z" fill="#4F4F4F"/>
<path id="Fill 5" fill-rule="evenodd" clip-rule="evenodd" d="M14.5407 11.8231C13.3285 11.9309 12.3173 10.9224 12.4252 9.71349C12.508 8.78676 13.2562 8.04053 14.1854 7.95788C15.3975 7.85004 16.4088 8.85857 16.3009 10.0675C16.2181 10.9942 15.4699 11.7404 14.5407 11.8231ZM7.81473 11.8231C6.60253 11.9309 5.5913 10.9224 5.69925 9.71349C5.78204 8.78676 6.53023 8.04053 7.45945 7.95788C8.67161 7.85004 9.68284 8.85857 9.57489 10.0675C9.49211 10.9942 8.74391 11.7404 7.81473 11.8231ZM17.9991 4.74338L17.9446 4.60537C17.943 4.60141 17.9399 4.59814 17.936 4.59637L17.8005 4.53503C16.6855 4.02995 15.1128 3.90533 13.7213 3.8501H12.154C12.1363 3.8501 12.1309 3.87395 12.1469 3.88157L15.3662 5.42082C15.3843 5.42947 15.3743 5.45642 15.3548 5.45134C13.907 5.07424 12.4443 4.88337 11.0001 4.88337C9.56039 4.88337 8.10255 5.07304 6.65916 5.44773C6.63948 5.45281 6.62955 5.42556 6.64794 5.41708L9.9802 3.88169C9.99634 3.87425 9.99103 3.8501 9.9732 3.8501H8.27874C6.88728 3.90533 5.31449 4.02995 4.1995 4.53503L4.06405 4.59637C4.06012 4.59814 4.05706 4.60132 4.05546 4.60537L4.0009 4.74338C2.85988 7.62706 2.53563 12.5224 2.88142 15.5892L2.8995 15.75L3.02778 15.8492C4.81035 17.2278 7.19387 17.9365 8.69332 18.1247L8.88721 18.149C8.95023 18.1569 9.01044 18.1206 9.03276 18.0613L10.0087 15.4609C10.0391 15.3798 9.98732 15.2913 9.9016 15.2779L9.60213 15.231C8.55788 15.0674 7.07837 14.6336 5.82805 13.5028C5.80138 13.4786 5.8271 13.4352 5.86086 13.4477C5.96246 13.4854 6.07451 13.529 6.18989 13.574C6.47265 13.6841 6.76504 13.798 6.95582 13.8432C8.29661 14.1612 9.65634 14.3224 10.9999 14.3224V14.2985H11.0027L11.0029 14.3224C12.3438 14.3224 13.7035 14.1612 15.0442 13.8432C15.235 13.798 15.5274 13.6841 15.8102 13.5739C15.9255 13.5289 16.0375 13.4853 16.1391 13.4477C16.1728 13.4352 16.1986 13.4787 16.1719 13.5028C14.9258 14.6286 13.4444 15.0613 12.3978 15.2247L12.0984 15.2715C12.0127 15.2849 11.9608 15.3733 11.9912 15.4544L12.9672 18.0612C12.9895 18.1205 13.0497 18.1569 13.1128 18.149L13.3068 18.1247C14.8062 17.9366 17.1895 17.2278 18.9722 15.8492L19.1004 15.75L19.1185 15.5892C19.4644 12.5224 19.1402 7.62701 17.9991 4.74338Z" fill="#FFFFFE"/>
</g>
</svg>
