<svg width="20" height="20" viewBox="0 0 20 20" fill="none" xmlns="http://www.w3.org/2000/svg">
<g id="Group 3">
<mask id="mask0" mask-type="alpha" maskUnits="userSpaceOnUse" x="0" y="0" width="20" height="20">
<path id="Clip 2" fill-rule="evenodd" clip-rule="evenodd" d="M0 0.0102539H19.9896V19.9999H0V0.0102539Z" fill="white"/>
</mask>
<g mask="url(#mask0)">
<path id="Fill 1" fill-rule="evenodd" clip-rule="evenodd" d="M15.3944 7.01501C15.4531 8.87548 15.4545 10.7403 15.3944 12.6003C15.3667 13.4543 15.5314 14.1351 16.2523 14.637C16.3978 14.7381 16.4994 14.9014 16.705 15.129H11.2531C11.4078 14.9351 11.5041 14.7403 11.6601 14.6301C12.3728 14.1277 12.5577 13.4612 12.5223 12.6051C12.4558 10.9934 12.5029 9.37656 12.4182 7.7446C12.0752 8.60891 11.7313 9.47285 11.3901 10.3381C10.8087 11.8137 10.2329 13.2915 9.64108 14.7632C9.57974 14.9156 9.42985 15.0327 9.32056 15.1658C9.18445 15.0409 8.99222 14.9425 8.92052 14.7878C7.91361 12.6223 6.92354 10.4487 5.92791 8.27807C5.84622 8.09924 5.75296 7.92516 5.56981 7.76658C5.56981 8.78002 5.6562 9.80291 5.5495 10.8051C5.38834 12.3213 5.75123 13.5878 6.90847 14.6072C7.03806 14.7212 7.11447 14.8954 7.273 15.1247H3.12095C3.24799 14.92 3.31577 14.7234 3.45184 14.6051C4.60562 13.5995 4.91879 12.3403 4.79011 10.8474C4.68039 9.5757 4.79093 8.28585 4.75119 7.00593C4.74125 6.67933 4.5892 6.31997 4.40134 6.04481C4.07218 5.56101 3.66479 5.13034 3.21425 4.5852C3.4933 4.54935 3.61728 4.51997 3.74168 4.5195C4.76678 4.51604 5.79222 4.5303 6.81689 4.51004C7.13525 4.50356 7.2933 4.59989 7.42635 4.89881C8.25879 6.76879 9.1149 8.62796 9.96505 10.4902C10.0397 10.6534 10.1274 10.8111 10.2488 11.0491C10.3689 10.7774 10.4622 10.5843 10.5417 10.3856C11.2713 8.5649 12.0039 6.74546 12.7201 4.91954C12.8355 4.62624 12.978 4.5014 13.3119 4.5087C14.3996 4.53211 15.4882 4.51738 16.7538 4.51738C16.508 4.79682 16.3884 4.99859 16.2134 5.12041C15.5417 5.58861 15.3689 6.20939 15.3944 7.01501ZM0 19.9999H19.9896V0.0102539H0V19.9999Z" fill="black"/>
</g>
</g>
</svg>
