<svg width="20" height="20" viewBox="0 0 20 20" fill="none" xmlns="http://www.w3.org/2000/svg">
<g id="003-telegram">
<g id="Group 3">
<mask id="mask0" mask-type="alpha" maskUnits="userSpaceOnUse" x="0" y="0" width="20" height="20">
<path id="Clip 2" fill-rule="evenodd" clip-rule="evenodd" d="M0 0H20V19.9969H0V0Z" fill="white"/>
</mask>
<g mask="url(#mask0)">
<path id="Fill 1" fill-rule="evenodd" clip-rule="evenodd" d="M0 20H20V0H0V20ZM16.9149 4.42547L14.565 15.7281C14.5097 15.9951 14.1968 16.1159 13.976 15.9556L10.7684 13.6267C10.5735 13.4853 10.308 13.4928 10.1217 13.6448L8.34328 15.0946C8.13682 15.2633 7.82573 15.1693 7.74677 14.9149L6.51182 10.9436L3.32135 9.75281C2.99724 9.63135 2.99458 9.17401 3.31766 9.04948L16.4114 3.99823C16.6891 3.89078 16.9753 4.13411 16.9149 4.42547Z" fill="black"/>
</g>
</g>
<path id="Fill 4" fill-rule="evenodd" clip-rule="evenodd" d="M13.7831 6.46927L7.54773 10.3096C7.30867 10.4571 7.19638 10.7458 7.27325 11.016L7.94752 13.3847C7.99554 13.5526 8.23903 13.5355 8.26226 13.362L8.43763 12.0629C8.47059 11.8184 8.58716 11.593 8.76825 11.4247L13.9141 6.64141C14.0103 6.55208 13.8952 6.40052 13.7831 6.46927Z" fill="black"/>
</g>
</svg>
