<svg width="24" height="17" viewBox="0 0 24 17" fill="none" xmlns="http://www.w3.org/2000/svg">
<path fill-rule="evenodd" clip-rule="evenodd" d="M20.5764 0.858826H20.5765H23.4353C23.7471 0.858826 24 1.1117 24 1.42352V4.28232C24 4.59415 23.7471 4.84702 23.4353 4.84702H21.1412V7.14123C21.1412 7.45305 20.8883 7.70593 20.5765 7.70593H18.2824V10.0001C18.2824 10.312 18.0295 10.5648 17.7177 10.5648H15.4236V12.859C15.4236 13.1709 15.1707 13.4237 14.8589 13.4237H12.5648V15.718C12.5648 16.0298 12.3119 16.2826 12.0001 16.2826H9.14121C8.82939 16.2826 8.57648 16.0298 8.57648 15.718V13.4237H6.28241C5.97058 13.4237 5.71771 13.1709 5.71771 12.859V10.5648H3.42363C3.11178 10.5648 2.85891 10.312 2.85891 10.0001V7.70593H0.564727C0.252904 7.70593 0 7.45305 0 7.14123V4.28243C0 3.9706 0.252904 3.71773 0.564727 3.71773H3.42363H6.28254C6.59436 3.71773 6.84723 3.9706 6.84723 4.28243V6.57664H9.14131C9.45317 6.57664 9.70604 6.82951 9.70604 7.14133V9.43555H11.4353V7.14133C11.4353 6.82951 11.6882 6.57664 12 6.57664H14.2941V4.28243C14.2941 3.9706 14.547 3.71773 14.8588 3.71773H17.1529V1.42352C17.1529 1.1117 17.4057 0.858826 17.7176 0.858826H20.5764Z" fill="#49BEAA"/>
</svg>
