<svg width="71" height="110" viewBox="0 0 71 110" fill="none" xmlns="http://www.w3.org/2000/svg">
<path fill-rule="evenodd" clip-rule="evenodd" d="M2.57045 0.0614014C24.3296 0.0614014 46.0887 0.0614014 67.8479 0.0614014C69.2826 0.0614014 70.4184 1.19718 70.4184 2.63185C70.4184 24.391 70.4184 46.1502 70.4184 67.9093C70.4184 69.3141 69.2826 70.4798 67.8479 70.4798H57.3868V80.9708C57.3868 82.3755 56.2211 83.5412 54.7864 83.5412H44.3253V94.0023C44.3253 95.437 43.1596 96.6027 41.7549 96.6027H31.2638V107.064C31.2638 108.498 30.0982 109.634 28.6934 109.634H2.57045C1.16567 109.634 0 108.498 0 107.064V94.0023C0 92.5976 1.16567 91.4319 2.57045 91.4319H13.0615V80.9708C13.0615 79.5361 14.1972 78.3704 15.6319 78.3704H26.1229V70.4798H2.57045C1.16567 70.4798 0 69.3141 0 67.9093C0 46.1502 0 24.391 0 2.63185C0 1.19718 1.16567 0.0614014 2.57045 0.0614014Z" fill="#F7BEB0"/>
</svg>
