<?xml version="1.0" encoding="UTF-8" standalone="no"?>
<svg
   xmlns:dc="http://purl.org/dc/elements/1.1/"
   xmlns:cc="http://creativecommons.org/ns#"
   xmlns:rdf="http://www.w3.org/1999/02/22-rdf-syntax-ns#"
   xmlns:svg="http://www.w3.org/2000/svg"
   xmlns="http://www.w3.org/2000/svg"
   viewBox="0 0 297.17499 456.83209"
   height="456.83209"
   width="297.17499"
   xml:space="preserve"
   id="svg2"
   version="1.1"><metadata
     id="metadata8"><rdf:RDF><cc:Work
         rdf:about=""><dc:format>image/svg+xml</dc:format><dc:type
           rdf:resource="http://purl.org/dc/dcmitype/StillImage" /></cc:Work></rdf:RDF></metadata><defs
     id="defs6" /><g
     transform="matrix(1.3333333,0,0,-1.3333333,-109.6068,516.33624)"
     id="g10"><g
       transform="scale(0.1)"
       id="g12"><path
         id="path14"
         style="fill:#ffffff;fill-opacity:1;fill-rule:nonzero;stroke:none"
         d="m 1448.81,1847.83 c 122.18,-205.13 384.73,-395.41 659.24,-410.72 416.69,-23.24 713.72,292.16 734.95,664.82 11.42,200.39 -110.11,397.18 -260.25,525.27 291.76,-124.28 484.61,-371.81 467,-680.92 -23.4,-410.73 -389.29,-736.97 -846.21,-710.94 -399.03,22.74 -687.94,269.56 -754.73,612.49" /><path
         id="path16"
         style="fill:#ffffff;fill-opacity:1;fill-rule:nonzero;stroke:none"
         d="m 2701.71,3437.41 c -74.12,141.03 -221.8,241.11 -396.76,251.07 -261.61,14.91 -485.4,-177.56 -499.79,-430.09 -7.75,-136.1 47.04,-261.97 140.39,-351.11 -183.67,88.61 -305.33,276.15 -293.37,486.1 15.99,280.55 265.14,494.83 556.37,478.24 254.34,-14.49 456.85,-200.43 493.16,-434.21" /><path
         id="path18"
         style="fill:#ffffff;fill-opacity:1;fill-rule:nonzero;stroke:none"
         d="m 2695.69,3041.59 c -62.76,-235.33 -222.85,-344.32 -242.33,-355.48 -44.91,-25.74 -538.94,-300.12 -909.07,-491.34 -303.61,-156.87 -722.239,40.83 -722.239,40.83 278.709,-9.99 517.639,97.84 1154.579,430 63.57,33.11 121.79,65.69 174.95,97.99 49.34,29.43 393.52,220.26 493.48,380.01 43.51,59.77 68.06,139.83 68.06,139.83 9.96,-90.86 1.45,-171.41 -17.43,-241.84" /><path
         id="path20"
         style="fill:#ffffff;fill-opacity:1;fill-rule:nonzero;stroke:none"
         d="m 1440.89,639.16 43.08,28.93 c 8.14,-15.649 18.43,-27.371 30.86,-35.211 12.42,-7.809 27.11,-11.719 44.04,-11.719 16.5,0 29.85,4.059 40.02,12.211 10.18,8.141 15.27,18.848 15.27,32.149 0,10.289 -3.48,18.851 -10.44,25.718 -6.97,6.852 -18.93,13.184 -35.85,18.961 -1.72,0.641 -4.5,1.61 -8.36,2.903 -71.58,24.628 -107.36,55.488 -107.36,92.578 0,26.14 9.64,47.461 28.93,63.968 19.29,16.493 44.36,24.75 75.22,24.75 25.5,0 47.36,-5.089 65.58,-15.277 18.21,-10.172 31.28,-24.582 39.22,-43.23 l -40.83,-25.071 c -6,13.5 -14.84,23.891 -26.53,31.18 -11.67,7.281 -25.22,10.93 -40.65,10.93 -14.79,0 -26.85,-4.129 -36.16,-12.379 -9.34,-8.242 -13.99,-18.801 -13.99,-31.66 0,-18 19.49,-33.11 58.5,-45.332 7.28,-2.36 13.07,-4.168 17.36,-5.457 31.93,-10.293 54.16,-22.012 66.71,-35.211 12.53,-13.161 18.8,-30.59 18.8,-52.231 0,-27.859 -9.91,-50.418 -29.73,-67.66 -19.83,-17.25 -45.71,-25.879 -77.64,-25.879 -27.44,0 -50.74,5.141 -69.92,15.43 -19.17,10.281 -34.55,25.82 -46.13,46.609" /><path
         id="path22"
         style="fill:#ffffff;fill-opacity:1;fill-rule:nonzero;stroke:none"
         d="m 1965.84,659.41 v -58.512 c -13.3,-7.929 -28.24,-13.867 -44.85,-17.828 -16.61,-3.968 -34.56,-5.949 -53.84,-5.949 -45.45,0 -82.03,14.41 -109.78,43.238 -27.76,28.821 -41.63,66.7 -41.63,113.633 0,47.137 14.35,85.68 43.08,115.559 28.71,29.91 65.46,44.847 110.26,44.847 16.28,0 32.19,-1.718 47.74,-5.136 15.53,-3.442 30.15,-8.481 43.87,-15.114 v -54.007 c -12.86,8.359 -26.15,14.738 -39.86,19.121 -13.72,4.398 -27.64,6.597 -41.79,6.597 -33.01,0 -59.47,-10.339 -79.4,-31.027 -19.93,-20.672 -29.9,-48.172 -29.9,-82.453 0,-30.207 10.02,-55.508 30.07,-75.859 20.03,-20.372 45.16,-30.54 75.37,-30.54 15.22,0 30.11,2.668 44.69,8.032 14.57,5.347 29.89,13.828 45.97,25.398" /><path
         id="path24"
         style="fill:#ffffff;fill-opacity:1;fill-rule:nonzero;stroke:none"
         d="m 2055.8,735.922 c 0,-31.082 10.39,-57.391 31.18,-78.91 20.78,-21.551 45.97,-32.321 75.55,-32.321 29.35,0 54.32,10.77 74.9,32.321 20.57,21.519 30.86,47.828 30.86,78.91 0,31.058 -10.29,57.387 -30.86,78.91 -20.58,21.547 -45.55,32.309 -74.9,32.309 -29.8,0 -55.02,-10.762 -75.71,-32.309 -20.68,-21.523 -31.02,-47.852 -31.02,-78.91 z m -53.36,0 c 0,21.637 3.96,42.058 11.89,61.238 7.92,19.18 19.5,36.262 34.72,51.27 15.21,14.992 32.47,26.41 51.76,34.242 19.29,7.82 39.86,11.726 61.72,11.726 21.42,0 41.74,-3.976 60.92,-11.898 19.17,-7.93 36.58,-19.5 52.23,-34.711 15.21,-14.789 26.79,-31.777 34.72,-50.957 7.92,-19.172 11.89,-39.492 11.89,-60.91 0,-21.442 -3.97,-41.633 -11.89,-60.602 -7.93,-18.961 -19.51,-35.84 -34.72,-50.629 -15.65,-15.429 -33.16,-27.222 -52.56,-35.359 -19.39,-8.141 -39.6,-12.211 -60.59,-12.211 -21.66,0 -42.17,4.02 -61.57,12.039 -19.39,8.051 -36.7,19.559 -51.91,34.57 -15.22,15.43 -26.8,32.571 -34.72,51.43 -7.93,18.852 -11.89,39.11 -11.89,60.762" /><path
         id="path26"
         style="fill:#ffffff;fill-opacity:1;fill-rule:nonzero;stroke:none"
         d="m 2408.45,832.309 -54.01,0.011 v 41.461 h 54.01 v 118.617 h 51.43 V 873.781 h 54.01 v -41.472 h -54.01 V 579.648 h -51.43 v 252.661" /><path
         id="path28"
         style="fill:#ffffff;fill-opacity:1;fill-rule:nonzero;stroke:none"
         d="m 2610.92,832.309 h -54.01 v 41.472 h 54.01 v 118.617 h 51.43 V 873.781 h 54.01 v -41.472 h -54.01 V 579.648 h -51.43 v 252.661" /><path
         id="path30"
         style="fill:#ffffff;fill-opacity:1;fill-rule:nonzero;stroke:none"
         d="m 2792.76,446.281 79.73,172.301 -115.41,265.207 h 58.19 l 85.51,-211.199 90.65,211.199 h 55.29 L 2849.34,446.281 h -56.58" /></g></g></svg>