<svg id="cart-icon-light" xmlns="http://www.w3.org/2000/svg" width="46.189" height="43.552" viewBox="0 0 46.189 43.552">
  <g id="Group_455" data-name="Group 455" transform="translate(14.222 31.164)">
    <path id="Path_375" data-name="Path 375" d="M1083.36,57.536a6.194,6.194,0,1,1,6.193-6.193A6.2,6.2,0,0,1,1083.36,57.536Zm0-9.53a3.335,3.335,0,1,0,3.335,3.337A3.339,3.339,0,0,0,1083.36,48.006Z" transform="translate(-1077.165 -45.148)" fill="#f6cdd7"/>
  </g>
  <g id="Group_456" data-name="Group 456" transform="translate(30.491 31.164)">
    <path id="Path_376" data-name="Path 376" d="M1091.855,57.536a6.194,6.194,0,1,1,6.193-6.193A6.2,6.2,0,0,1,1091.855,57.536Zm0-9.53a3.335,3.335,0,1,0,3.333,3.337A3.341,3.341,0,0,0,1091.855,48.006Z" transform="translate(-1085.66 -45.148)" fill="#f6cdd7"/>
  </g>
  <g id="Group_457" data-name="Group 457">
    <path id="Path_377" data-name="Path 377" d="M1115.576,35.421a1.627,1.627,0,0,0-1.279-.63h-32.222l-1.634-4.822a1.641,1.641,0,0,0-1.539-1.1h-7.532a1.623,1.623,0,1,0,0,3.247h6.363l8.069,23.924a1.615,1.615,0,0,0,1.539,1.114h22.464a1.623,1.623,0,0,0,0-3.247h-21.3l-.871-2.577h23.1a1.6,1.6,0,0,0,1.557-1.206l3.581-13.3A1.615,1.615,0,0,0,1115.576,35.421Zm-6.1,12.668h-22.817l-3.247-10.053h28.772Z" transform="translate(-1069.738 -28.874)" fill="#f6cdd7"/>
  </g>
</svg>
