<svg id="cross-icon-dark" xmlns="http://www.w3.org/2000/svg" width="23.57" height="28.557" viewBox="0 0 23.57 28.557">
  <path id="Path_329" data-name="Path 329" d="M1552.84,55.476a1.692,1.692,0,0,1-1.32,2.754,1.67,1.67,0,0,1-1.32-.631l-8.771-10.938-8.77,10.938a1.69,1.69,0,0,1-1.322.631,1.71,1.71,0,0,1-1.06-.372,1.689,1.689,0,0,1-.261-2.382l9.245-11.525-9.245-11.525a1.695,1.695,0,0,1,2.642-2.123l8.77,10.939L1550.2,30.3a1.694,1.694,0,0,1,2.641,2.123L1543.6,43.951Z" transform="translate(-1529.642 -29.673)" fill="#2e1a46"/>
</svg>
