<svg xmlns="http://www.w3.org/2000/svg" width="31.588" height="24.628" viewBox="0 0 31.588 24.628">
  <path id="Path_37" data-name="Path 37" d="M3249.171,1170.6h-22.73a4.387,4.387,0,0,0-3.008,1.194,3.691,3.691,0,0,0-.751.918,4.28,4.28,0,0,0-.67,2.316V1190.8a4.436,4.436,0,0,0,4.429,4.429h22.73a4.427,4.427,0,0,0,4.428-4.429V1175.03A4.435,4.435,0,0,0,3249.171,1170.6Zm-22.73,2.089h22.73a1.853,1.853,0,0,1,.585.084l-11.961,10.361-12.179-10.29A2.111,2.111,0,0,1,3226.441,1172.69Zm-2.34,18.11V1175.03a2.766,2.766,0,0,1,.025-.335l8.762,7.4-8.739,9.156A1.9,1.9,0,0,1,3224.1,1190.8Zm25.07,2.34h-22.73a2.3,2.3,0,0,1-1.169-.322l9.062-9.5,2.708,2.293a1.225,1.225,0,0,0,.765.274,1.177,1.177,0,0,0,.777-.286l2.674-2.316.011.012,9.084,9.527A2.338,2.338,0,0,1,3249.171,1193.14Zm2.339-2.34a1.772,1.772,0,0,1-.046.44l-8.775-9.2,8.739-7.594a1.913,1.913,0,0,1,.082.585Z" transform="translate(-3222.012 -1170.601)" fill="#2e1a46"/>
</svg>
