<svg id="envelope-icon-dark" xmlns="http://www.w3.org/2000/svg" width="35.149" height="27.405" viewBox="0 0 35.149 27.405">
  <path id="Path_594" data-name="Path 594" d="M1883.019,977.879h-25.292a4.882,4.882,0,0,0-3.347,1.329,4.164,4.164,0,0,0-.837,1.023,4.753,4.753,0,0,0-.744,2.576v17.548a4.935,4.935,0,0,0,4.928,4.928h25.292a4.927,4.927,0,0,0,4.928-4.928V982.807A4.935,4.935,0,0,0,1883.019,977.879Zm-25.292,2.325h25.292a2.094,2.094,0,0,1,.651.093l-13.31,11.53-13.55-11.45A2.328,2.328,0,0,1,1857.726,980.2Zm-2.6,20.152V982.807a3.092,3.092,0,0,1,.027-.372l9.75,8.236-9.724,10.188A2.088,2.088,0,0,1,1855.123,1000.355Zm27.9,2.6h-25.292a2.552,2.552,0,0,1-1.3-.359l10.082-10.574,3.015,2.551a1.367,1.367,0,0,0,.85.3,1.309,1.309,0,0,0,.863-.319l2.975-2.576.014.013,10.109,10.6A2.605,2.605,0,0,1,1883.019,1002.959Zm2.6-2.6a1.982,1.982,0,0,1-.053.491l-9.763-10.241,9.723-8.449a2.094,2.094,0,0,1,.093.651Z" transform="translate(-1852.798 -977.879)" fill="#2e1a46"/>
</svg>
