<svg id="Group_950" data-name="Group 950" xmlns="http://www.w3.org/2000/svg" width="39.124" height="39.124" viewBox="0 0 39.124 39.124">
  <ellipse id="Ellipse_7" data-name="Ellipse 7" cx="19.562" cy="19.562" rx="19.562" ry="19.562" fill="#2e1a46"/>
  <g id="Group_484" data-name="Group 484" transform="translate(7.349 11.572)">
    <g id="Group_481" data-name="Group 481" transform="translate(7.344 4.554)">
      <path id="Path_390" data-name="Path 390" d="M971.976,909.432a4.8,4.8,0,1,1,4.808-4.8A4.808,4.808,0,0,1,971.976,909.432Zm.01-8.147a3.344,3.344,0,1,0,3.339,3.349A3.348,3.348,0,0,0,971.986,901.285Z" transform="translate(-967.179 -899.826)" fill="#fff"/>
    </g>
    <g id="Group_482" data-name="Group 482" transform="translate(0.367 2.736)">
      <path id="Path_391" data-name="Path 391" d="M974.089,911.8c-6.84-.009-11.428-6.121-11.619-6.381a.731.731,0,0,1,0-.874c.187-.245,4.63-6,11.632-5.987s11.3,5.782,11.484,6.028a.727.727,0,0,1,0,.857C985.406,905.707,980.934,911.815,974.089,911.8ZM964,905c1.156,1.351,5,5.34,10.088,5.347,5.106.007,8.859-3.979,9.976-5.319-1.1-1.278-4.755-5-9.961-5.007S965.144,903.712,964,905Z" transform="translate(-962.327 -898.562)" fill="#fff"/>
    </g>
    <g id="Group_483" data-name="Group 483">
      <path id="Path_392" data-name="Path 392" d="M985.774,902.816a.726.726,0,0,1-.52-.219,16.87,16.87,0,0,0-11.024-4.479,16.36,16.36,0,0,0-10.9,4.442.729.729,0,0,1-1.054-1.008,17.543,17.543,0,0,1,11.957-4.893,18.057,18.057,0,0,1,12.065,4.917.73.73,0,0,1-.522,1.24Z" transform="translate(-962.071 -896.659)" fill="#fff"/>
    </g>
  </g>
</svg>
