<svg id="hamburger-icon-dark" xmlns="http://www.w3.org/2000/svg" width="42.116" height="29.038" viewBox="0 0 42.116 29.038">
  <g id="Group_619" data-name="Group 619" transform="translate(0)">
    <path id="Path_599" data-name="Path 599" d="M376.672,34.291H338.73a2.086,2.086,0,1,1,0-4.171h37.942a2.086,2.086,0,1,1,0,4.171Z" transform="translate(-336.643 -30.12)" fill="#2e1a46"/>
  </g>
  <g id="Group_620" data-name="Group 620" transform="translate(0 12.433)">
    <path id="Path_600" data-name="Path 600" d="M376.672,40.2H338.73a2.086,2.086,0,1,1,0-4.171h37.942a2.086,2.086,0,1,1,0,4.171Z" transform="translate(-336.643 -36.025)" fill="#2e1a46"/>
  </g>
  <g id="Group_621" data-name="Group 621" transform="translate(0 24.867)">
    <path id="Path_601" data-name="Path 601" d="M376.672,46.1H338.73a2.086,2.086,0,1,1,0-4.171h37.942a2.086,2.086,0,1,1,0,4.171Z" transform="translate(-336.643 -41.93)" fill="#2e1a46"/>
  </g>
</svg>
