<svg id="instagram-icon-light" xmlns="http://www.w3.org/2000/svg" width="30.146" height="30.146" viewBox="0 0 30.146 30.146">
  <path id="Path_592" data-name="Path 592" d="M1813.945,979.332c4.024,0,4.5.015,6.091.088a8.361,8.361,0,0,1,2.8.518,4.993,4.993,0,0,1,2.86,2.861,8.319,8.319,0,0,1,.519,2.8c.073,1.59.088,2.066.088,6.09s-.015,4.5-.088,6.091a8.312,8.312,0,0,1-.519,2.8,4.993,4.993,0,0,1-2.86,2.861,8.361,8.361,0,0,1-2.8.518c-1.59.073-2.066.088-6.091.088s-4.5-.015-6.09-.088a8.363,8.363,0,0,1-2.8-.518,4.992,4.992,0,0,1-2.86-2.861,8.341,8.341,0,0,1-.519-2.8c-.072-1.59-.088-2.066-.088-6.091s.016-4.5.088-6.09a8.347,8.347,0,0,1,.519-2.8,4.992,4.992,0,0,1,2.86-2.861,8.363,8.363,0,0,1,2.8-.518c1.589-.073,2.066-.088,6.09-.088m0-2.716c-4.094,0-4.607.017-6.215.091a11.04,11.04,0,0,0-3.658.7,7.7,7.7,0,0,0-4.408,4.408,11.073,11.073,0,0,0-.7,3.66c-.073,1.607-.09,2.121-.09,6.214s.017,4.607.09,6.214a11.072,11.072,0,0,0,.7,3.66,7.7,7.7,0,0,0,4.408,4.408,11.037,11.037,0,0,0,3.658.7c1.608.074,2.121.091,6.215.091s4.606-.017,6.214-.091a11.034,11.034,0,0,0,3.659-.7,7.7,7.7,0,0,0,4.409-4.408,11.051,11.051,0,0,0,.7-3.66c.074-1.607.091-2.121.091-6.214s-.017-4.607-.091-6.214a11.051,11.051,0,0,0-.7-3.66,7.7,7.7,0,0,0-4.409-4.408,11.037,11.037,0,0,0-3.659-.7c-1.608-.074-2.121-.091-6.214-.091Z" transform="translate(-1798.872 -976.616)" fill="#f6cdd7"/>
  <path id="Path_593" data-name="Path 593" d="M1813.375,983.379a7.74,7.74,0,1,0,7.74,7.74A7.74,7.74,0,0,0,1813.375,983.379Zm0,12.764a5.025,5.025,0,1,1,5.024-5.025A5.025,5.025,0,0,1,1813.375,996.143Z" transform="translate(-1798.302 -976.046)" fill="#f6cdd7"/>
  <circle id="Ellipse_14" data-name="Ellipse 14" cx="1.809" cy="1.809" r="1.809" transform="translate(21.31 5.218)" fill="#f6cdd7"/>
</svg>
