<svg id="logo-dark" xmlns="http://www.w3.org/2000/svg" width="201.978" height="241.345" viewBox="0 0 201.978 241.345">
  <path id="Path_586" data-name="Path 586" d="M44.806,32.134c.264.792,45.385,76.787,45.385,76.787l-44.33,79.69,46.007,79.954,149.258-1.319L196.8,188.874l44.33-79.162L195.741,30.024Z" transform="translate(-41.976 -30.024)" fill="none"/>
  <g id="Group_614" data-name="Group 614" transform="translate(0 0.303)">
    <g id="Group_611" data-name="Group 611">
      <path id="Path_587" data-name="Path 587" d="M242.018,114.527H91.23a2.972,2.972,0,0,1-2.574-1.486L43.411,34.675a2.973,2.973,0,0,1,2.574-4.459H196.773a2.972,2.972,0,0,1,2.574,1.486l45.245,78.365a2.973,2.973,0,0,1-2.574,4.459ZM92.946,108.581H236.869L195.056,36.162H51.134Z" transform="translate(-43.012 -30.216)" fill="#2e1a46"/>
    </g>
    <g id="Group_612" data-name="Group 612" transform="translate(0 78.365)">
      <path id="Path_588" data-name="Path 588" d="M196.773,164.19H45.985a2.973,2.973,0,0,1-2.574-4.459L88.656,81.364a2.972,2.972,0,0,1,2.574-1.486H242.018a2.973,2.973,0,0,1,2.574,4.459L199.347,162.7A2.976,2.976,0,0,1,196.773,164.19Zm-145.64-5.946H195.056l41.813-72.421H92.946Z" transform="translate(-43.012 -79.878)" fill="#2e1a46"/>
    </g>
    <g id="Group_613" data-name="Group 613" transform="translate(0 156.731)">
      <path id="Path_589" data-name="Path 589" d="M242.018,213.852H91.23a2.972,2.972,0,0,1-2.574-1.486L43.411,134a2.973,2.973,0,0,1,2.574-4.459H196.773a2.972,2.972,0,0,1,2.574,1.486l45.245,78.365a2.973,2.973,0,0,1-2.574,4.459ZM92.946,207.906H236.869l-41.813-72.419H51.134Z" transform="translate(-43.012 -129.541)" fill="#2e1a46"/>
    </g>
  </g>
  <g id="Group_617" data-name="Group 617" transform="translate(46.769 29.606)">
    <path id="Path_590" data-name="Path 590" d="M108,81.347h-6.435L86.017,54.413H77.752L74.5,48.786H97.467l3.249,5.627H92.451Z" transform="translate(-71.581 -48.786)" fill="#2e1a46"/>
    <path id="Path_591" data-name="Path 591" d="M122.42,65.972a6.2,6.2,0,0,1,2.192.906,26.769,26.769,0,0,1,3.326,2.76l12.651,11.71h-7.066l-8.672-8.221c-.251-.232-.589-.554-1.013-.961q-3.851-3.683-6.184-3.685H115.6l7.429,12.867H116.6L97.8,48.786h9.289a21.163,21.163,0,0,1,10.3,2.225,18.572,18.572,0,0,1,6.918,7.241q1.938,3.359,1.449,5.343T122.42,65.972ZM107.357,54.2l5.124,8.876h3.031q2.639,0,3.186-1.035t-.825-3.415a9.13,9.13,0,0,0-3.1-3.4,8.483,8.483,0,0,0-4.387-1.024Z" transform="translate(-58.116 -48.786)" fill="#2e1a46"/>
    <path id="Path_592" data-name="Path 592" d="M126.209,59.414h15.278l3.388,5.867H129.6Z" transform="translate(-41.697 -42.643)" fill="#2e1a46"/>
    <path id="Path_593" data-name="Path 593" d="M88.175,104.041l3.274-5.671h19.388l-3.274,5.671h-6.478l-12.251,21.22h6.478l-3.274,5.67H72.651l3.273-5.67H82.4l12.251-21.22Z" transform="translate(-72.651 -20.128)" fill="#2e1a46"/>
    <path id="Path_594" data-name="Path 594" d="M113.668,98.37h6.893q7.981,0,9.294,3.806t-3.672,12.442q-5,8.658-10.719,12.486a24.072,24.072,0,0,1-13.7,3.827H94.868Zm3.083,5.8-12.1,20.958H106.4a10.591,10.591,0,0,0,6.787-2.387q2.992-2.388,6.3-8.123,3.288-5.692,3.045-8.07t-4.036-2.378Z" transform="translate(-59.81 -20.128)" fill="#2e1a46"/>
    <path id="Path_595" data-name="Path 595" d="M124.106,109h15.278L136,114.865H120.718Z" transform="translate(-44.87 -13.986)" fill="#2e1a46"/>
    <g id="Group_615" data-name="Group 615" transform="translate(5.229 156.483)">
      <path id="Path_596" data-name="Path 596" d="M115.046,180.515H94.763l-18.8-32.561H96.248l3.274,5.671H85.673l4.054,7.022h12.542l3.273,5.671H93l4.923,8.527h13.85Z" transform="translate(-75.965 -147.954)" fill="#2e1a46"/>
      <path id="Path_597" data-name="Path 597" d="M102.371,147.954h7.872l27.589,32.561H131.4l-6.653-8.048h-8.613l2.683,8.048h-6.433Zm7.325,5.889,4.663,13.324h6.085Z" transform="translate(-60.703 -147.954)" fill="#2e1a46"/>
    </g>
    <g id="Group_616" data-name="Group 616" transform="translate(86.711 177.899)">
      <path id="Path_598" data-name="Path 598" d="M127.6,161.526h10.2l5.408,9.367h-10.2Z" transform="translate(-127.602 -161.526)" fill="#2e1a46"/>
    </g>
  </g>
</svg>
