<svg xmlns="http://www.w3.org/2000/svg" width="38.724" height="45.909" viewBox="0 0 38.724 45.909">
  <g id="logo-small-light" transform="translate(59.018 -18.746)">
    <g id="Group_1212" data-name="Group 1212" transform="translate(-517.208 -240.342)">
      <g id="Group_1212-2" data-name="Group 1212" transform="translate(458.19 259.088)">
        <path id="Path_744" data-name="Path 744" d="M411.485,329.492a1.336,1.336,0,0,1-1.151-.663l-8.324-14.42a1.329,1.329,0,0,1,1.151-1.993H430.9a1.337,1.337,0,0,1,1.149.661l8.324,14.422a1.327,1.327,0,0,1-1.149,1.993Zm25.438-2.66-6.788-11.757H405.463l6.788,11.757Z" transform="translate(-401.831 -312.416)" fill="#f6cdd7"/>
        <path id="Path_745" data-name="Path 745" d="M403.161,336.343a1.33,1.33,0,0,1-1.149-2l8.322-14.411a1.331,1.331,0,0,1,1.151-.667h27.741a1.333,1.333,0,0,1,1.149,2l-8.322,14.413a1.342,1.342,0,0,1-1.151.665Zm26.975-2.66,6.788-11.757H412.251l-6.788,11.757Z" transform="translate(-401.831 -304.849)" fill="#f6cdd7"/>
        <path id="Path_746" data-name="Path 746" d="M411.485,343.191a1.342,1.342,0,0,1-1.151-.659l-8.324-14.422a1.33,1.33,0,0,1,1.151-2H430.9a1.341,1.341,0,0,1,1.149.661l8.324,14.422a1.326,1.326,0,0,1-1.149,1.993Zm25.438-2.658-6.788-11.757H405.463l6.788,11.757Z" transform="translate(-401.831 -297.282)" fill="#f6cdd7"/>
      </g>
    </g>
  </g>
</svg>
