<svg xmlns="http://www.w3.org/2000/svg" width="32.356" height="43.357" viewBox="0 0 32.356 43.357">
  <g id="marker-icon" transform="translate(0 0)">
    <path id="Path_38" data-name="Path 38" d="M3389.608,1202.448a7.313,7.313,0,1,0,7.311,7.312A7.313,7.313,0,0,0,3389.608,1202.448Zm0,11.882a4.57,4.57,0,1,1,4.571-4.57A4.57,4.57,0,0,1,3389.608,1214.33Z" transform="translate(-3373.429 -1193.581)" fill="#2e1a46"/>
    <g id="Group_37" data-name="Group 37">
      <path id="Path_39" data-name="Path 39" d="M3394.07,1198.036a16.193,16.193,0,0,0-16.186,16.171,16,16,0,0,0,2.081,7.908v.037c.212.369.442.74.69,1.093l12.145,17.5a1.544,1.544,0,0,0,1.27.653,1.606,1.606,0,0,0,1.273-.653l11.6-16.771.069-.088.866-1.252.018-.036c.1-.177.21-.354.3-.528a.143.143,0,0,0,.035-.073,15.915,15.915,0,0,0,2.012-7.784A16.191,16.191,0,0,0,3394.07,1198.036Zm-.018,39.1-5.313-7.643-5.525-7.98a12.95,12.95,0,0,1-2.24-7.308,13.089,13.089,0,0,1,26.179,0,12.8,12.8,0,0,1-1.942,6.813,8.408,8.408,0,0,1-.866,1.272l-.177.229-4.835,6.99Z" transform="translate(-3377.884 -1198.036)" fill="#2e1a46"/>
    </g>
    <g id="Group_38" data-name="Group 38" transform="translate(2.082 24.026)">
      <path id="Path_40" data-name="Path 40" d="M3379.61,1211.128l-.479-.671a1.093,1.093,0,0,1-.211-.422C3379.131,1210.4,3379.363,1210.774,3379.61,1211.128Z" transform="translate(-3378.92 -1209.946)" fill="#2e1a46"/>
      <path id="Path_41" data-name="Path 41" d="M3393.115,1209.991a.936.936,0,0,1-.176.352l-.123.177C3392.92,1210.343,3393.027,1210.166,3393.115,1209.991Z" transform="translate(-3364.888 -1209.991)" fill="#2e1a46"/>
    </g>
  </g>
</svg>
