<svg xmlns="http://www.w3.org/2000/svg" width="35.514" height="38.54" viewBox="0 0 35.514 38.54">
  <g id="Group_728" data-name="Group 728" transform="translate(0 0)">
    <g id="Group_728-2" data-name="Group 728" transform="translate(0 13.963)">
      <path id="Path_617" data-name="Path 617" d="M391.5,1813.763a5.955,5.955,0,1,1,5.955-5.956A5.962,5.962,0,0,1,391.5,1813.763Zm0-9.161a3.206,3.206,0,1,0,3.206,3.205A3.21,3.21,0,0,0,391.5,1804.6Z" transform="translate(-385.542 -1801.853)" fill="#2e102d"/>
    </g>
    <g id="Group_729" data-name="Group 729" transform="translate(23.603 0)">
      <path id="Path_618" data-name="Path 618" d="M415.9,1799.328a5.955,5.955,0,1,1,5.955-5.955A5.962,5.962,0,0,1,415.9,1799.328Zm0-9.161a3.207,3.207,0,1,0,3.206,3.206A3.211,3.211,0,0,0,415.9,1790.167Z" transform="translate(-409.942 -1787.418)" fill="#2e102d"/>
    </g>
    <g id="Group_730" data-name="Group 730" transform="translate(23.603 26.629)">
      <path id="Path_619" data-name="Path 619" d="M415.9,1826.857a5.955,5.955,0,1,1,5.955-5.955A5.962,5.962,0,0,1,415.9,1826.857Zm0-9.161a3.206,3.206,0,1,0,3.206,3.206A3.211,3.211,0,0,0,415.9,1817.7Z" transform="translate(-409.942 -1814.947)" fill="#2e102d"/>
    </g>
    <g id="Group_731" data-name="Group 731" transform="translate(8.602 20.7)">
      <path id="Path_620" data-name="Path 620" d="M411.37,1819.92a1.366,1.366,0,0,1-.649-.164l-15.562-8.353a1.374,1.374,0,0,1,1.3-2.422l15.563,8.353a1.375,1.375,0,0,1-.652,2.586Z" transform="translate(-394.434 -1808.817)" fill="#2e102d"/>
    </g>
    <g id="Group_732" data-name="Group 732" transform="translate(8.522 6.911)">
      <path id="Path_621" data-name="Path 621" d="M395.728,1806.613a1.374,1.374,0,0,1-.7-2.557l15.724-9.3a1.374,1.374,0,0,1,1.4,2.366l-15.723,9.3A1.362,1.362,0,0,1,395.728,1806.613Z" transform="translate(-394.352 -1794.562)" fill="#2e102d"/>
    </g>
  </g>
</svg>
