<?xml version="1.0" encoding="UTF-8"?>
<svg width="37px" height="35px" viewBox="0 0 37 35" version="1.1" xmlns="http://www.w3.org/2000/svg" xmlns:xlink="http://www.w3.org/1999/xlink">
    <!-- Generator: Sketch 52.5 (67469) - http://www.bohemiancoding.com/sketch -->
    <title>Group</title>
    <desc>Created with Sketch.</desc>
    <g id="Final" stroke="none" stroke-width="1" fill="none" fill-rule="evenodd">
        <g id="Fetch---Final" transform="translate(-214.000000, -1664.000000)" fill="#2389CE">
            <g id="Section-3" transform="translate(0.000000, 1250.000000)">
                <g id="Selectors" transform="translate(188.000000, 322.000000)">
                    <g id="Proactive-Engagement" transform="translate(15.000001, 81.000003)">
                        <g id="Group-10">
                            <g id="Proactive-Icon">
                                <g id="Group" transform="translate(11.000000, 11.000000)">
                                    <path d="M30.0000012,3.75000015 C30.0000012,2.7144662 29.1605351,1.87500007 28.1250011,1.87500007 L26.250001,1.87500007 C26.250001,0.839466127 25.4105349,-8.8817842e-16 24.375001,-8.8817842e-16 C23.339467,-8.8817842e-16 22.5000009,0.839466127 22.5000009,1.87500007 L20.0000008,1.87500007 C20.0000008,0.839466127 19.1605347,-8.8817842e-16 18.1250007,-8.8817842e-16 C17.0894668,-8.8817842e-16 16.2500006,0.839466127 16.2500006,1.87500007 L13.7500005,1.87500007 C13.7500005,0.839466149 12.9105344,5.58793558e-08 11.8750005,5.58793558e-08 C10.8394665,5.58793558e-08 10.0000004,0.839466149 10.0000004,1.87500007 L7.5000003,1.87500007 C7.5000003,0.839466127 6.66053417,-8.8817842e-16 5.62500022,-8.8817842e-16 C4.58946628,-8.8817842e-16 3.75000015,0.839466127 3.75000015,1.87500007 L1.87500007,1.87500007 C0.839466127,1.87500007 0,2.7144662 0,3.75000015 L0,30.0000012 C0,30.3451792 0.279822042,30.6250012 0.625000025,30.6250012 L2.5000001,30.6250012 L2.5000001,32.5000013 C2.5000001,32.8451793 2.77982214,33.1250013 3.12500012,33.1250013 L19.5831258,33.1250013 C19.5912508,33.1250013 19.5975008,33.1206263 19.6050008,33.1206263 C22.915383,35.403707 27.2315541,35.620531 30.7540752,33.6807028 C34.2765963,31.7408746 36.4008258,27.9773663 36.241159,23.9592082 C36.0814922,19.9410501 33.665336,16.3579599 30.0000012,14.7037506 L30.0000012,3.75000015 Z M23.7500009,1.87500007 C23.7500009,1.52982209 24.029823,1.25000005 24.375001,1.25000005 C24.720179,1.25000005 25.000001,1.52982209 25.000001,1.87500007 L25.000001,3.75000015 L23.7500009,3.75000015 L23.7500009,1.87500007 Z M17.5000007,1.87500007 C17.5000007,1.52982209 17.7798227,1.25000005 18.1250007,1.25000005 C18.4701787,1.25000005 18.7500007,1.52982209 18.7500007,1.87500007 L18.7500007,3.75000015 L17.5000007,3.75000015 L17.5000007,1.87500007 Z M11.2500004,1.87500007 C11.2500004,1.52982209 11.5298225,1.25000005 11.8750005,1.25000005 C12.2201785,1.25000005 12.5000005,1.52982209 12.5000005,1.87500007 L12.5000005,3.75000015 L11.2500004,3.75000015 L11.2500004,1.87500007 Z M5.0000002,1.87500007 C5.0000002,1.52982209 5.27982224,1.25000005 5.62500022,1.25000005 C5.97017821,1.25000005 6.25000025,1.52982209 6.25000025,1.87500007 L6.25000025,3.75000015 L5.0000002,3.75000015 L5.0000002,1.87500007 Z M1.25000005,3.75000015 C1.25000005,3.40482217 1.52982209,3.12500012 1.87500007,3.12500012 L3.75000015,3.12500012 L3.75000015,4.37500017 C3.75000015,4.72017816 4.02982219,5.0000002 4.37500017,5.0000002 L6.87500027,5.0000002 C7.22017826,5.0000002 7.5000003,4.72017816 7.5000003,4.37500017 L7.5000003,3.12500012 L10.0000004,3.12500012 L10.0000004,4.37500017 C10.0000004,4.72017816 10.2798224,5.0000002 10.6250004,5.0000002 L13.1250005,5.0000002 C13.4701785,5.0000002 13.7500005,4.72017816 13.7500005,4.37500017 L13.7500005,3.12500012 L16.2500006,3.12500012 L16.2500006,4.37500017 C16.2500006,4.72017816 16.5298227,5.0000002 16.8750007,5.0000002 L19.3750008,5.0000002 C19.7201788,5.0000002 20.0000008,4.72017816 20.0000008,4.37500017 L20.0000008,3.12500012 L22.5000009,3.12500012 L22.5000009,4.37500017 C22.5000009,4.72017816 22.7798229,5.0000002 23.1250009,5.0000002 L25.625001,5.0000002 C25.970179,5.0000002 26.250001,4.72017816 26.250001,4.37500017 L26.250001,3.12500012 L28.1250011,3.12500012 C28.4701791,3.12500012 28.7500011,3.40482217 28.7500011,3.75000015 L28.7500011,6.87500027 L1.25000005,6.87500027 L1.25000005,3.75000015 Z M3.75000015,30.6250012 L17.0518757,30.6250012 C17.371038,31.0680504 17.7237409,31.4859449 18.1068757,31.8750013 L3.75000015,31.8750013 L3.75000015,30.6250012 Z M35.0000014,24.375001 C35.0000014,29.5526707 30.8026708,33.7500013 25.625001,33.7500013 C20.4473313,33.7500013 16.2500006,29.5526707 16.2500006,24.375001 C16.2500006,19.1973312 20.4473313,15.0000006 25.625001,15.0000006 C30.8002435,15.0058559 34.9941461,19.1997585 35.0000014,24.375001 Z M25.625001,13.7500005 C21.8919006,13.7473601 18.4316859,15.7054222 16.5117745,18.9069821 C14.591863,22.108542 14.4943682,26.0831599 16.2550006,29.3750012 L1.25000005,29.3750012 L1.25000005,8.12500032 L28.7500011,8.12500032 L28.7500011,14.2206256 C27.7377617,13.9082223 26.6843519,13.7495787 25.625001,13.7500005 Z" id="Shape" fill-rule="nonzero"></path>
                                    <path d="M5.62500022,10.6250004 C4.58946628,10.6250004 3.75000015,11.4644665 3.75000015,12.5000005 C3.75000015,13.5355344 4.58946628,14.3750006 5.62500022,14.3750006 C6.66053417,14.3750006 7.5000003,13.5355344 7.5000003,12.5000005 C7.5000003,11.4644665 6.66053417,10.6250004 5.62500022,10.6250004 Z M5.62500022,13.1250005 C5.27982224,13.1250005 5.0000002,12.8451785 5.0000002,12.5000005 C5.0000002,12.1548225 5.27982224,11.8750005 5.62500022,11.8750005 C5.97017821,11.8750005 6.25000025,12.1548225 6.25000025,12.5000005 C6.25000025,12.8451785 5.97017821,13.1250005 5.62500022,13.1250005 Z" id="Shape" fill-rule="nonzero"></path>
                                    <path d="M11.8750005,10.6250004 C11.1166337,10.6250004 10.4329407,11.0818295 10.1427263,11.782469 C9.85251189,12.4831085 10.0129289,13.2895795 10.5491752,13.8258258 C11.0854215,14.362072 11.8918924,14.5224891 12.5925319,14.2322747 C13.2931714,13.9420603 13.7500005,13.2583672 13.7500005,12.5000005 C13.7500005,11.4644665 12.9105344,10.6250004 11.8750005,10.6250004 Z M11.8750005,13.1250005 C11.5298225,13.1250005 11.2500004,12.8451785 11.2500004,12.5000005 C11.2500004,12.1548225 11.5298225,11.8750005 11.8750005,11.8750005 C12.2201785,11.8750005 12.5000005,12.1548225 12.5000005,12.5000005 C12.5000005,12.8451785 12.2201785,13.1250005 11.8750005,13.1250005 Z" id="Shape" fill-rule="nonzero"></path>
                                    <path d="M18.1250007,10.6250004 C17.0894668,10.6250004 16.2500006,11.4644665 16.2500006,12.5000005 C16.2500006,13.5355344 17.0894668,14.3750006 18.1250007,14.3750006 C19.1605347,14.3750006 20.0000008,13.5355344 20.0000008,12.5000005 C20.0000008,11.4644665 19.1605347,10.6250004 18.1250007,10.6250004 Z M18.1250007,13.1250005 C17.7798227,13.1250005 17.5000007,12.8451785 17.5000007,12.5000005 C17.5000007,12.1548225 17.7798227,11.8750005 18.1250007,11.8750005 C18.4701787,11.8750005 18.7500007,12.1548225 18.7500007,12.5000005 C18.7500007,12.8451785 18.4701787,13.1250005 18.1250007,13.1250005 Z" id="Shape" fill-rule="nonzero"></path>
                                    <path d="M5.62500022,15.6250006 C4.58946628,15.6250006 3.75000015,16.4644667 3.75000015,17.5000007 C3.75000015,18.5355346 4.58946628,19.3750008 5.62500022,19.3750008 C6.66053417,19.3750008 7.5000003,18.5355346 7.5000003,17.5000007 C7.5000003,16.4644667 6.66053417,15.6250006 5.62500022,15.6250006 Z M5.62500022,18.1250007 C5.27982224,18.1250007 5.0000002,17.8451787 5.0000002,17.5000007 C5.0000002,17.1548227 5.27982224,16.8750007 5.62500022,16.8750007 C5.97017821,16.8750007 6.25000025,17.1548227 6.25000025,17.5000007 C6.25000025,17.8451787 5.97017821,18.1250007 5.62500022,18.1250007 Z" id="Shape" fill-rule="nonzero"></path>
                                    <path d="M11.8750005,15.6250006 C11.1166337,15.6250006 10.4329407,16.0818297 10.1427263,16.7824692 C9.85251189,17.4831087 10.0129289,18.2895797 10.5491752,18.825826 C11.0854215,19.3620722 11.8918924,19.5224893 12.5925319,19.2322749 C13.2931714,18.9420605 13.7500005,18.2583674 13.7500005,17.5000007 C13.7500005,16.4644667 12.9105344,15.6250006 11.8750005,15.6250006 Z M11.8750005,18.1250007 C11.5298225,18.1250007 11.2500004,17.8451787 11.2500004,17.5000007 C11.2500004,17.1548227 11.5298225,16.8750007 11.8750005,16.8750007 C12.2201785,16.8750007 12.5000005,17.1548227 12.5000005,17.5000007 C12.5000005,17.8451787 12.2201785,18.1250007 11.8750005,18.1250007 Z" id="Shape" fill-rule="nonzero"></path>
                                    <path d="M5.62500022,20.6250008 C4.58946628,20.6250008 3.75000015,21.4644669 3.75000015,22.5000009 C3.75000015,23.5355348 4.58946628,24.375001 5.62500022,24.375001 C6.66053417,24.375001 7.5000003,23.5355348 7.5000003,22.5000009 C7.5000003,21.4644669 6.66053417,20.6250008 5.62500022,20.6250008 Z M5.62500022,23.1250009 C5.27982224,23.1250009 5.0000002,22.8451789 5.0000002,22.5000009 C5.0000002,22.1548229 5.27982224,21.8750009 5.62500022,21.8750009 C5.97017821,21.8750009 6.25000025,22.1548229 6.25000025,22.5000009 C6.25000025,22.8451789 5.97017821,23.1250009 5.62500022,23.1250009 Z" id="Shape" fill-rule="nonzero"></path>
                                    <path d="M11.8750005,20.6250008 C11.1166337,20.6250008 10.4329407,21.0818299 10.1427263,21.7824694 C9.85251189,22.4831089 10.0129289,23.2895799 10.5491752,23.8258262 C11.0854215,24.3620724 11.8918924,24.5224895 12.5925319,24.2322751 C13.2931714,23.9420607 13.7500005,23.2583676 13.7500005,22.5000009 C13.7500005,21.4644669 12.9105344,20.6250008 11.8750005,20.6250008 Z M11.8750005,23.1250009 C11.5298225,23.1250009 11.2500004,22.8451789 11.2500004,22.5000009 C11.2500004,22.1548229 11.5298225,21.8750009 11.8750005,21.8750009 C12.2201785,21.8750009 12.5000005,22.1548229 12.5000005,22.5000009 C12.5000005,22.8451789 12.2201785,23.1250009 11.8750005,23.1250009 Z" id="Shape" fill-rule="nonzero"></path>
                                    <path d="M17.5000007,24.375001 C17.5000007,28.8623147 21.1376872,32.5000013 25.625001,32.5000013 C30.1123148,32.5000013 33.7500013,28.8623147 33.7500013,24.375001 C33.7500013,19.8876872 30.1123148,16.2500006 25.625001,16.2500006 C21.1398289,16.2551669 17.505167,19.8898289 17.5000007,24.375001 Z M32.5000013,24.375001 L31.2500012,24.375001 C30.9048233,24.375001 30.6250012,24.654823 30.6250012,25.000001 C30.6250012,25.345179 30.9048233,25.625001 31.2500012,25.625001 L32.3806263,25.625001 C31.8170793,28.6501693 29.3140441,30.9337519 26.250001,31.2181262 L26.250001,30.0000012 C26.250001,29.6548232 25.970179,29.3750012 25.625001,29.3750012 C25.279823,29.3750012 25.000001,29.6548232 25.000001,30.0000012 L25.000001,31.2181262 C21.9359579,30.9337519 19.4329228,28.6501693 18.8693757,25.625001 L20.0000008,25.625001 C20.3451788,25.625001 20.6250008,25.345179 20.6250008,25.000001 C20.6250008,24.654823 20.3451788,24.375001 20.0000008,24.375001 L18.7500007,24.375001 C18.7547039,20.8226666 21.4626417,17.8577455 25.000001,17.5318757 L25.000001,18.7500007 C25.000001,19.0951787 25.279823,19.3750008 25.625001,19.3750008 C25.970179,19.3750008 26.250001,19.0951787 26.250001,18.7500007 L26.250001,17.5318757 C29.7873603,17.8577455 32.4952981,20.8226666 32.5000013,24.375001 Z" id="Shape" fill-rule="nonzero"></path>
                                    <path d="M25.759376,24.075001 L24.895001,22.7781259 C24.7034272,22.4909378 24.315314,22.4134271 24.028126,22.6050009 C23.7409379,22.7965747 23.6634272,23.1846879 23.8550009,23.4718759 L25.105001,25.346876 C25.2034228,25.4941388 25.359707,25.5927251 25.535001,25.618126 C25.5647596,25.6228994 25.5948626,25.625199 25.625001,25.625001 C25.7711112,25.6251107 25.9126423,25.5740269 26.025001,25.480626 L29.7750012,22.3556259 C30.040443,22.134712 30.0765401,21.7404427 29.8556262,21.4750009 C29.6347123,21.209559 29.240443,21.173462 28.9750012,21.3943759 L25.759376,24.075001 Z" id="Path"></path>
                                </g>
                            </g>
                        </g>
                    </g>
                </g>
            </g>
        </g>
    </g>
</svg>