<?xml version="1.0" encoding="UTF-8"?>
<svg width="34px" height="34px" viewBox="0 0 34 34" version="1.1" xmlns="http://www.w3.org/2000/svg" xmlns:xlink="http://www.w3.org/1999/xlink">
    <!-- Generator: Sketch 52.5 (67469) - http://www.bohemiancoding.com/sketch -->
    <title>Shape</title>
    <desc>Created with Sketch.</desc>
    <g id="Final" stroke="none" stroke-width="1" fill="none" fill-rule="evenodd">
        <g id="Fetch---Final" transform="translate(-938.000000, -5455.000000)" fill="#2389CE" fill-rule="nonzero">
            <g id="Section-3" transform="translate(0.000000, 4951.000000)">
                <g id="Selectors" transform="translate(913.000000, 406.000000)">
                    <g id="Customized-Branded" transform="translate(15.000001, 87.000007)">
                        <g id="Group-10">
                            <g id="Satisfaction-Icon">
                                <path d="M26.9999983,10.9999933 C17.6172867,10.9999933 9.99999928,18.61728 9.99999928,27.9999959 C9.99999928,37.3827066 17.6172867,44.9999933 26.9999983,44.9999933 C36.3827098,44.9999933 43.9999993,37.3827066 43.9999993,27.9999959 C43.9999993,18.61728 36.3827098,10.9999933 26.9999983,10.9999933 Z M26.9999993,11.9999933 C35.8426315,11.9999933 42.9999993,19.1573599 42.9999993,27.9999959 C42.9999993,36.8426783 35.8426315,43.9999933 26.9999993,43.9999933 C18.157367,43.9999933 10.9999993,36.8426783 10.9999993,27.9999959 C10.9999993,19.1573599 18.157367,11.9999933 26.9999993,11.9999933 Z M20.4999993,19.9999933 C19.1192493,19.9999933 17.9999993,21.1192933 17.9999993,22.4999933 C17.9999993,23.8806933 19.1192493,24.9999933 20.4999993,24.9999933 C21.8807493,24.9999933 22.9999993,23.8806933 22.9999993,22.4999933 C22.9999993,21.1192933 21.8807493,19.9999933 20.4999993,19.9999933 Z M33.4999993,19.9999933 C32.1192493,19.9999933 30.9999993,21.1192933 30.9999993,22.4999933 C30.9999993,23.8806933 32.1192493,24.9999933 33.4999993,24.9999933 C34.8807493,24.9999933 35.9999993,23.8806933 35.9999993,22.4999933 C35.9999993,21.1192933 34.8807493,19.9999933 33.4999993,19.9999933 Z M17.5208573,30.0000114 C17.0595015,30.0373446 16.9634823,30.4229971 17.0109128,30.6833165 C18.300698,34.9175469 22.2882876,37.9999933 26.9964429,37.9999933 C31.7045982,37.9999933 35.6922405,34.9175469 36.9820256,30.6833165 C37.0739914,30.3651839 36.7992521,29.9970247 36.4720285,30.0000114 L17.5208573,30.0000114 Z M18.9999993,30.9999933 L35.9999993,30.9999933 C34.6498619,34.472957 31.4157092,36.9999933 27.4999993,36.9999933 C23.5842894,36.9999933 20.3501367,34.472957 18.9999993,30.9999933 Z" id="Shape"></path>
                            </g>
                        </g>
                    </g>
                </g>
            </g>
        </g>
    </g>
</svg>