<?xml version="1.0" encoding="UTF-8"?>
<svg width="36px" height="36px" viewBox="0 0 36 36" version="1.1" xmlns="http://www.w3.org/2000/svg" xmlns:xlink="http://www.w3.org/1999/xlink">
    <!-- Generator: Sketch 52.5 (67469) - http://www.bohemiancoding.com/sketch -->
    <title>Group</title>
    <desc>Created with Sketch.</desc>
    <g id="Final" stroke="none" stroke-width="1" fill="none" fill-rule="evenodd">
        <g id="Fetch---Final" transform="translate(-214.000000, -1832.000000)" fill="#2389CE">
            <g id="Section-3" transform="translate(0.000000, 1250.000000)">
                <g id="Selectors" transform="translate(188.000000, 322.000000)">
                    <g id="Smarter-Marketing" transform="translate(15.000001, 252.000010)">
                        <g id="Group-10">
                            <g id="Marketing-Icon">
                                <g id="Group" transform="translate(11.600001, 8.600001)">
                                    <path d="M24.7063542,12.8606771 C24.3884375,13.0772396 24.3064062,13.5107292 24.5229687,13.8286458 C25.9426562,15.911875 26.6929687,18.3509375 26.6929687,20.8822396 C26.6929687,27.7980208 21.0667187,33.4242708 14.1509375,33.4242708 C7.23515625,33.4242708 1.60890625,27.7980208 1.60890625,20.8822396 C1.60890625,13.9664583 7.23515625,8.34020833 14.1509375,8.34020833 C16.6282812,8.34020833 19.0243229,9.06135417 21.0791146,10.425625 C21.3999479,10.6381771 21.8323437,10.5506771 22.0448958,10.2305729 C22.2578125,9.91010417 22.1703125,9.47770833 21.8498437,9.26479167 C19.5657292,7.748125 16.9035417,6.94640625 14.1509375,6.94640625 C6.46697917,6.94640625 0.21546875,13.1979167 0.21546875,20.881875 C0.21546875,28.5658333 6.46697917,34.8173437 14.1509375,34.8173437 C21.8348958,34.8173437 28.0864062,28.5661979 28.0864062,20.881875 C28.0864062,18.0698437 27.2522396,15.3591667 25.6743229,13.0436979 C25.4577604,12.7265104 25.025,12.6441146 24.7063542,12.8606771 Z" id="Path"></path>
                                    <path d="M18.886875,13.3525 C19.0658854,13.0119792 18.935,12.5905208 18.5941146,12.411875 C17.2334896,11.6969271 15.6971354,11.3192187 14.1513021,11.3192187 C8.87796875,11.3192187 4.58791667,15.6092708 4.58791667,20.8826042 C4.58791667,26.1559375 8.87760417,30.4459896 14.1509375,30.4459896 C19.4242708,30.4459896 23.7143229,26.1559375 23.7143229,20.8826042 C23.7143229,19.2576563 23.2994271,17.6520313 22.51375,16.2403646 C22.3263542,15.9042188 21.9030729,15.7835417 21.5661979,15.9702083 C21.2300521,16.1572396 21.1090104,16.58125 21.2960417,16.9173958 C21.9665104,18.1223437 22.3208854,19.4935417 22.3208854,20.8822396 C22.3208854,25.3873958 18.6560938,29.0525521 14.1505729,29.0525521 C9.64541667,29.0525521 5.98026042,25.3877604 5.98026042,20.8822396 C5.98026042,16.3770833 9.64541667,12.7122917 14.1505729,12.7122917 C15.4718229,12.7122917 16.7843229,13.0349479 17.9458854,13.6448958 C18.2875,13.8242708 18.7082292,13.6933854 18.886875,13.3525 Z" id="Path"></path>
                                    <path d="M14.1509375,17.1521875 C14.3201042,17.1521875 14.4892708,17.1634896 14.6536979,17.1857292 C15.0350521,17.2367708 15.3857812,16.9698958 15.4375521,16.5889062 C15.4889583,16.2075521 15.2217187,15.8568229 14.8407292,15.8050521 C14.6143229,15.7744271 14.3824479,15.7591146 14.1509375,15.7591146 C11.3257812,15.7591146 9.02744792,18.0574479 9.02744792,20.8826042 C9.02744792,23.7077604 11.3257812,26.0060937 14.1509375,26.0060937 C16.9760937,26.0060937 19.2744271,23.7077604 19.2744271,20.8826042 C19.2744271,20.5577604 19.2438021,20.2329167 19.1836458,19.9168229 C19.1110937,19.5391146 18.7486979,19.2941146 18.3684375,19.3633854 C17.9903646,19.4359375 17.7428125,19.8008854 17.815,20.1785937 C17.8591146,20.4082812 17.8809896,20.6448958 17.8809896,20.8822396 C17.8809896,22.9392187 16.2075521,24.6126563 14.1505729,24.6126563 C12.0935937,24.6126563 10.4201562,22.9392187 10.4201562,20.8822396 C10.4208854,18.825625 12.0943229,17.1521875 14.1509375,17.1521875 Z" id="Path"></path>
                                    <path d="M34.7309375,4.74213542 C34.6222917,4.48255208 34.3689062,4.31338542 34.0878125,4.31338542 C34.0867187,4.31338542 34.0859896,4.31338542 34.0852604,4.31338542 L30.6676562,4.32723958 L30.6538021,0.876458333 C30.6527083,0.595 30.4824479,0.341979167 30.2225,0.23515625 C29.9632812,0.12796875 29.6639583,0.187395833 29.4645313,0.386822917 L24.4668229,5.3834375 C24.3363021,5.51395833 24.2626562,5.69114583 24.2626562,5.87598958 L24.2626562,9.340625 L14.7025521,18.9007292 C14.5268229,18.851875 14.3423437,18.8238021 14.1509375,18.8238021 C13.0141667,18.8238021 12.0925,19.7454687 12.0925,20.8822396 C12.0925,22.0190104 13.0141667,22.9406771 14.1509375,22.9406771 C15.2877083,22.9406771 16.209375,22.0190104 16.209375,20.8822396 C16.209375,20.6379687 16.1645312,20.4042708 16.0865104,20.1869792 L25.6119792,10.6615104 C25.99625,10.6691667 26.5015625,10.6790104 27.0079687,10.6877604 C27.6109896,10.6983333 28.0703646,10.7063542 28.4229167,10.7063542 C29.3941667,10.7063542 29.5545833,10.6454687 29.6741667,10.4084896 L34.58,5.50229167 C34.7797917,5.30322917 34.8392187,5.0028125 34.7309375,4.74213542 Z" id="Path"></path>
                                </g>
                            </g>
                        </g>
                    </g>
                </g>
            </g>
        </g>
    </g>
</svg>