<?xml version="1.0" encoding="UTF-8"?>
<svg width="5640px" height="340px" viewBox="0 0 5640 340" version="1.1" xmlns="http://www.w3.org/2000/svg" xmlns:xlink="http://www.w3.org/1999/xlink">
    <!-- Generator: Sketch 52.5 (67469) - http://www.bohemiancoding.com/sketch -->
    <title>Fill 1</title>
    <desc>Created with Sketch.</desc>
    <g id="Final" stroke="none" stroke-width="1" fill="none" fill-rule="evenodd">
        <g id="Fetch---Final" transform="translate(-720.000000, -6151.000000)" fill="#E4EEF5">
            <g id="Resources" transform="translate(686.000000, 5944.000000)">
                <g id="Fill-1" transform="translate(0.000000, 100.000000)">
                    <g id="Group-13" transform="translate(0.000000, 106.000000)">
                        <path d="M5,362 C5.12560667,362 -20.9033526,251.898021 45.9856035,190.491962 C112.874559,129.085903 153.048683,91.1379778 311.771963,73 C470.495242,54.8620222 759.740932,190.491962 823.513923,190.491962 C973.931757,190.491962 1066.54205,66 1262.931,111 C1459.31996,156 1609.4047,197 1667.23131,162 C1733.17384,122.087782 1805.91595,99 1872.70085,99 C2021.82638,99 2099.87769,220.484909 2209.15687,197 C2493,136 2514.1557,54.2193263 2647.79213,106.996296 C2781.42857,159.773266 2996.56565,217.973395 3145.53602,129.085903 C3294.50639,40.1984103 3531.95229,-16.9764305 3663.82219,5.23650826 C3795.69209,27.449447 3834.17156,81 3934.293,99 C4034.41443,117 4119,5.23650826 4318,16.7056931 C4431.61787,23.2539559 4572.12803,9.85638742 4789.88469,64.2948053 C5007.64135,118.733223 5054,162 5178,156 C5302,150 5442.26329,27.449447 5646.77197,46 C5783.11109,58.3670353 5795.1871,163.700369 5683,362 L5,362 Z" id="Fill-1"></path>
                    </g>
                </g>
            </g>
        </g>
    </g>
</svg>