<?xml version="1.0" encoding="UTF-8"?>
<svg width="24px" height="35px" viewBox="0 0 24 35" version="1.1" xmlns="http://www.w3.org/2000/svg" xmlns:xlink="http://www.w3.org/1999/xlink">
    <!-- Generator: Sketch 52.5 (67469) - http://www.bohemiancoding.com/sketch -->
    <title>Icon</title>
    <desc>Created with Sketch.</desc>
    <g id="Final" stroke="none" stroke-width="1" fill="none" fill-rule="evenodd">
        <g id="Fetch---Final" transform="translate(-219.000000, -1582.000000)" fill="#2389CE">
            <g id="Section-3" transform="translate(0.000000, 1250.000000)">
                <g id="Selectors" transform="translate(188.000000, 322.000000)">
                    <g id="1-Tap-Feedback" transform="translate(15.000001, 0.000000)">
                        <g id="Text" transform="translate(-0.000001, 0.000000)">
                            <g id="1-tap---Icon">
                                <g id="Icon" transform="translate(16.000000, 10.000000)">
                                    <path d="M23.301,20.591 C23.2845,19.0295 22.1135,17.7645 20.6765,17.7645 C20.3675,17.7645 20.0755,17.8335 19.8,17.941 C19.751,16.555 18.601,15.441 17.1845,15.441 C16.7455,15.441 16.3375,15.558 15.973,15.747 C15.5235,14.9565 14.675,14.4145 13.6925,14.4145 C13.387,14.4145 13.098,14.476 12.8255,14.571 L12.8255,10.5735 C12.8255,9.146 11.648,7.9845 10.2005,7.9845 C8.7535,7.9845 7.576,9.146 7.576,10.5735 L7.576,21.2395 C6.0815,21.311 4.9025,22.1515 4.569,23.508 C4.1305,25.2925 4.2745,27.306 4.9975,29.4915 C5.5425,31.138 6.808,32.7925 8.8665,34.549 C9.032,34.69 9.2345,34.759 9.4365,34.759 C9.685,34.759 9.9315,34.6545 10.1055,34.451 C10.4205,34.0825 10.3765,33.5265 10.0075,33.212 C8.2255,31.6915 7.101,30.2535 6.6665,28.94 C6.04,27.046 5.912,25.4065 6.2755,23.928 C6.4245,23.3235 6.965,23.0455 7.576,22.9935 L7.576,24.5705 C7.576,25.056 7.9695,25.4495 8.4545,25.4495 C8.94,25.4495 9.3335,25.056 9.3335,24.5705 L9.3335,10.573 C9.3335,10.1145 9.7225,9.7415 10.2005,9.7415 C10.679,9.7415 11.068,10.1145 11.068,10.573 L11.068,20.515 C11.068,21.0005 11.4615,21.394 11.947,21.394 C12.4325,21.394 12.826,21.0005 12.826,20.515 L12.826,17.003 C12.826,16.5445 13.2145,16.1715 13.693,16.1715 C14.171,16.1715 14.56,16.5445 14.56,17.003 L14.56,18.03 L14.56,20.5155 L14.56,20.9965 C14.56,21.4815 14.9535,21.875 15.439,21.875 C15.9245,21.875 16.318,21.4815 16.318,20.9965 L16.318,20.515 L16.318,18.03 C16.318,17.5715 16.7065,17.198 17.1845,17.198 C17.6625,17.198 18.051,17.571 18.051,18.03 L18.051,21.7885 C18.051,22.274 18.4445,22.6675 18.93,22.6675 C19.4155,22.6675 19.809,22.274 19.809,21.7885 L19.809,20.625 C19.809,20.027 20.2065,19.5225 20.6765,19.5225 C21.1465,19.5225 21.5435,20.027 21.5435,20.625 C21.5435,20.647 21.5445,20.668 21.546,20.69 C21.552,20.7645 22.0695,28.229 19.6505,33.515 C19.4485,33.9565 19.6425,34.478 20.084,34.68 C20.202,34.734 20.327,34.759 20.449,34.759 C20.782,34.759 21.1005,34.5685 21.249,34.2465 C23.797,28.675 23.344,21.2115 23.301,20.591 Z" id="Path"></path>
                                    <path d="M6.15,10.536 C6.15,10.051 5.7565,9.657 5.2715,9.657 L0.9555,9.657 C0.47,9.657 0.0765,10.051 0.0765,10.536 C0.0765,11.021 0.47,11.4145 0.9555,11.4145 L5.2715,11.4145 C5.757,11.415 6.15,11.021 6.15,10.536 Z" id="Path"></path>
                                    <path d="M14.2505,10.536 C14.2505,11.021 14.6435,11.4145 15.1295,11.4145 L19.4455,11.4145 C19.931,11.4145 20.3245,11.021 20.3245,10.536 C20.3245,10.051 19.931,9.657 19.4455,9.657 L15.1295,9.657 C14.6435,9.657 14.2505,10.051 14.2505,10.536 Z" id="Path"></path>
                                    <path d="M10.2005,6.4855 C10.686,6.4855 11.079,6.092 11.079,5.607 L11.079,1.291 C11.079,0.8055 10.6855,0.412 10.2005,0.412 C9.715,0.412 9.3215,0.8055 9.3215,1.291 L9.3215,5.607 C9.3215,6.092 9.715,6.4855 10.2005,6.4855 Z" id="Path"></path>
                                    <path d="M6.094,7.672 C6.2655,7.844 6.4905,7.9295 6.7155,7.9295 C6.9405,7.9295 7.1655,7.844 7.337,7.672 C7.6805,7.3285 7.6805,6.7725 7.337,6.4295 L4.285,3.3775 C3.9415,3.034 3.385,3.034 3.0425,3.3775 C2.699,3.721 2.699,4.277 3.0425,4.62 L6.094,7.672 Z" id="Path"></path>
                                    <path d="M13.6855,7.9295 C13.91,7.9295 14.135,7.844 14.3065,7.672 L17.3585,4.62 C17.702,4.2765 17.702,3.721 17.3585,3.3775 C17.015,3.034 16.459,3.034 16.116,3.3775 L13.064,6.4295 C12.72,6.7725 12.72,7.3285 13.064,7.672 C13.236,7.844 13.461,7.9295 13.6855,7.9295 Z" id="Path"></path>
                                </g>
                            </g>
                        </g>
                    </g>
                </g>
            </g>
        </g>
    </g>
</svg>