<?xml version="1.0" encoding="UTF-8"?>
<svg width="35px" height="23px" viewBox="0 0 35 23" version="1.1" xmlns="http://www.w3.org/2000/svg" xmlns:xlink="http://www.w3.org/1999/xlink">
    <!-- Generator: Sketch 52.5 (67469) - http://www.bohemiancoding.com/sketch -->
    <title>noun_Owl_1443698</title>
    <desc>Created with Sketch.</desc>
    <g id="Final" stroke="none" stroke-width="1" fill="none" fill-rule="evenodd">
        <g id="Fetch---Final" transform="translate(-938.000000, -5544.000000)" fill="#2389CE">
            <g id="Section-3" transform="translate(0.000000, 4951.000000)">
                <g id="Selectors" transform="translate(913.000000, 406.000000)">
                    <g id="Smarter-Marketing" transform="translate(15.000001, 171.000010)">
                        <g id="Group-10">
                            <g id="Tripadvisor-Icon">
                                <g id="noun_Owl_1443698" transform="translate(10.000000, 16.000000)">
                                    <path d="M9.74850776,2.42369871 C4.77072026,2.42369871 0.735633621,6.45878534 0.735633621,11.4365728 C0.735633621,16.4139711 4.77072026,20.449447 9.74850776,20.449447 C14.7262953,20.449447 18.7613819,16.4143603 18.7613819,11.4365728 C18.7613819,6.45878534 14.7262953,2.42369871 9.74850776,2.42369871 Z M9.74850776,15.6775591 C7.4061569,15.6775591 5.50713233,13.7785345 5.50713233,11.4361836 C5.50713233,9.09383276 7.4061569,7.19480819 9.74850776,7.19480819 C12.0908586,7.19480819 13.9898832,9.09383276 13.9898832,11.4361836 C13.9898832,13.7789237 12.0908586,15.6775591 9.74850776,15.6775591 Z" id="Shape" fill-rule="nonzero"></path>
                                    <circle id="Oval" cx="9.74850776" cy="11.4365728" r="1.73087974"></circle>
                                    <path d="M24.4965996,2.42369871 C19.5188121,2.42369871 15.4837254,6.45878534 15.4837254,11.4365728 C15.4837254,16.4139711 19.5188121,20.449447 24.4965996,20.449447 C29.4743871,20.449447 33.5094737,16.4143603 33.5094737,11.4365728 C33.5094737,6.45878534 29.4743871,2.42369871 24.4965996,2.42369871 Z M24.4965996,15.6775591 C22.1542487,15.6775591 20.2552241,13.7785345 20.2552241,11.4361836 C20.2552241,9.09383276 22.1542487,7.19480819 24.4965996,7.19480819 C26.8389504,7.19480819 28.737975,9.09383276 28.737975,11.4361836 C28.737975,13.7789237 26.8393397,15.6775591 24.4965996,15.6775591 Z" id="Shape" fill-rule="nonzero"></path>
                                    <circle id="Oval" cx="24.4965996" cy="11.4365728" r="1.73087974"></circle>
                                    <polygon id="Path" points="3.11496078 6.80597328 0.346798707 0.0595512931 7.09283147 2.82771336"></polygon>
                                    <polygon id="Path" points="27.673447 3.2169375 34.4194797 0.448775431 31.6513177 7.19519741"></polygon>
                                    <polygon id="Path" points="19.7865983 15.6588763 16.9736754 22.3862263 14.1607526 15.6588763"></polygon>
                                </g>
                            </g>
                        </g>
                    </g>
                </g>
            </g>
        </g>
    </g>
</svg>