<?xml version="1.0" encoding="UTF-8"?>
<svg width="35px" height="28px" viewBox="0 0 35 28" version="1.1" xmlns="http://www.w3.org/2000/svg" xmlns:xlink="http://www.w3.org/1999/xlink">
    <!-- Generator: Sketch 52.5 (67469) - http://www.bohemiancoding.com/sketch -->
    <title>Group</title>
    <desc>Created with Sketch.</desc>
    <g id="Final" stroke="none" stroke-width="1" fill="none" fill-rule="evenodd">
        <g id="Fetch---Final" transform="translate(-938.000000, -5371.000000)" fill="#2389CE">
            <g id="Section-3" transform="translate(0.000000, 4951.000000)">
                <g id="Selectors" transform="translate(913.000000, 406.000000)">
                    <g id="Proactive-Engagement" transform="translate(15.000001, 0.000003)">
                        <g id="Group-10">
                            <g id="Engagement-Icon">
                                <g id="noun_Graph_37874" transform="translate(9.000000, 14.000000)">
                                    <g id="Group" transform="translate(-0.000001, -0.000003)">
                                        <g transform="translate(0.862069, 0.000000)" id="Path">
                                            <path d="M4.0922069,10.319931 C4.0922069,10.2673103 4.13517241,10.2248276 4.18731034,10.2248276 L8.85365517,10.2248276 C8.90531034,10.2248276 8.94827586,10.2673103 8.94827586,10.319931 L8.94827586,24.1108966 C8.94827586,24.1635172 8.90531034,24.2055172 8.85365517,24.2055172 L4.18731034,24.2055172 C4.13517241,24.2055172 4.0922069,24.1635172 4.0922069,24.1108966 L4.0922069,10.319931 Z"></path>
                                            <path d="M11.166069,0.252482759 C11.166069,0.200344828 11.2090345,0.15737931 11.2606897,0.15737931 L15.9275172,0.15737931 C15.9796552,0.15737931 16.0226207,0.200344828 16.0226207,0.252482759 L16.0226207,24.1108966 C16.0226207,24.1635172 15.9796552,24.2055172 15.9275172,24.2055172 L11.2606897,24.2055172 C11.2090345,24.2055172 11.166069,24.1635172 11.166069,24.1108966 L11.166069,0.252482759 Z"></path>
                                            <path d="M25.7193103,6.51531034 C25.7193103,6.46317241 25.7617931,6.4202069 25.8134483,6.4202069 L30.8843448,6.4202069 C30.9364828,6.4202069 30.9789655,6.46317241 30.9789655,6.51531034 L30.9789655,24.1108966 C30.9789655,24.1635172 30.9364828,24.2055172 30.8843448,24.2055172 L25.813931,24.2055172 C25.7622759,24.2055172 25.7197931,24.1635172 25.7197931,24.1108966 L25.7197931,6.51531034 L25.7193103,6.51531034 Z"></path>
                                            <path d="M23.5015172,13.4655862 C23.5015172,13.4134483 23.4585517,13.3704828 23.4068966,13.3704828 L18.3345517,13.3704828 C18.2824138,13.3704828 18.2394483,13.4134483 18.2394483,13.4655862 L18.2394483,24.1108966 C18.2394483,24.1635172 18.2824138,24.2055172 18.3345517,24.2055172 L23.4068966,24.2055172 C23.4585517,24.2055172 23.5015172,24.1635172 23.5015172,24.1108966 L23.5015172,13.4655862 Z"></path>
                                            <path d="M34.5055172,27.7475172 C34.5055172,27.7996552 34.4630345,27.8426207 34.4113793,27.8426207 L0.623586207,27.8426207 C0.571931034,27.8426207 0.528965517,27.7996552 0.528965517,27.7475172 L0.528965517,26.3315862 C0.528965517,26.279931 0.571931034,26.2374483 0.623586207,26.2374483 L34.4113793,26.2374483 C34.4630345,26.2374483 34.5055172,26.279931 34.5055172,26.3315862 L34.5055172,27.7475172 Z"></path>
                                        </g>
                                    </g>
                                </g>
                            </g>
                        </g>
                    </g>
                </g>
            </g>
        </g>
    </g>
</svg>