<?xml version="1.0" encoding="UTF-8"?>
<svg width="29px" height="35px" viewBox="0 0 29 35" version="1.1" xmlns="http://www.w3.org/2000/svg" xmlns:xlink="http://www.w3.org/1999/xlink">
    <!-- Generator: Sketch 52.5 (67469) - http://www.bohemiancoding.com/sketch -->
    <title>Group</title>
    <desc>Created with Sketch.</desc>
    <g id="Final" stroke="none" stroke-width="1" fill="none" fill-rule="evenodd">
        <g id="Fetch---Final" transform="translate(-215.000000, -1750.000000)" fill="#2389CE">
            <g id="Section-3" transform="translate(0.000000, 1250.000000)">
                <g id="Selectors" transform="translate(188.000000, 322.000000)">
                    <g id="Customized-Branded" transform="translate(15.000001, 168.000007)">
                        <g id="Group-10">
                            <g id="Branded-Icon">
                                <g id="Group" transform="translate(12.000000, 10.000000)">
                                    <path d="M12.6595745,20.5531915 C12.7340426,20.3670213 12.7340426,20.1808511 12.6595745,20.0319149 C12.5851064,19.8457447 12.4361702,19.7340426 12.287234,19.6595745 C12.212766,19.6223404 12.1382979,19.6223404 12.0265957,19.6223404 C11.7287234,19.6223404 11.4680851,19.8085106 11.356383,20.0691489 C10.3138298,22.712766 6.66489362,27.7765957 3.27659574,29.6382979 C3.12765957,29.712766 2.9787234,29.8617021 2.94148936,30.0478723 C2.90425532,30.2340426 2.90425532,30.4202128 3.01595745,30.5691489 C3.20212766,30.9042553 3.64893617,31.0159574 3.94680851,30.8297872 C7.81914894,28.7446809 11.5425532,23.4202128 12.6595745,20.5531915 Z" id="Path"></path>
                                    <path d="M15.6755319,22.1914894 C16.7553191,19.1010638 15.4148936,16.9787234 13.6276596,16.2712766 C13.1808511,16.0851064 12.6595745,16.0106383 12.1382979,16.0106383 C10.3882979,16.0106383 8.93617021,17.0159574 8.19148936,18.7287234 C7.22340426,20.962766 4.7287234,24.8723404 1.78723404,26.5106383 C1.45212766,26.6968085 1.34042553,27.106383 1.52659574,27.4414894 C1.71276596,27.7765957 2.15957447,27.8882979 2.45744681,27.7021277 C5.95744681,25.8031915 8.60106383,21.3351064 9.49468085,19.25 C10.0159574,18.0585106 11.0212766,17.3882979 12.1755319,17.3882979 C12.5106383,17.3882979 12.8457447,17.462766 13.143617,17.5744681 C14.2978723,18.0212766 15.1914894,19.3244681 14.3723404,21.7074468 C13.143617,25.3191489 8.52659574,30.1595745 5.5106383,31.7978723 C5.36170213,31.8723404 5.21276596,32.0212766 5.17553191,32.2074468 C5.13829787,32.393617 5.13829787,32.5797872 5.25,32.7287234 C5.43617021,33.0638298 5.88297872,33.1755319 6.18085106,33.0265957 C9.45744681,31.2393617 14.3351064,26.1010638 15.6755319,22.1914894 Z" id="Path"></path>
                                    <path d="M15.9361702,10.3882979 C14.1489362,9.68085106 12.1755319,9.49468085 10.2765957,9.82978723 C6.77659574,10.5 4.09574468,12.4361702 2.68085106,15.3031915 L2.60638298,15.4148936 C2.08510638,16.4574468 1.56382979,17.537234 0.632978723,17.7978723 C0.260638298,17.9095745 0.0744680851,18.3191489 0.186170213,18.6542553 C0.29787234,19.0265957 0.707446809,19.212766 1.04255319,19.1010638 C2.53191489,18.6542553 3.27659574,17.1648936 3.83510638,15.9734043 L3.87234043,15.8989362 C5.10106383,13.4042553 7.44680851,11.7287234 10.5,11.1702128 C11.0585106,11.0585106 11.6170213,11.0212766 12.1382979,11.0212766 C13.2553191,11.0212766 14.3723404,11.2446809 15.4148936,11.6542553 C19.3989362,13.2180851 22.3776596,17.8723404 20.3297872,23.7925532 C19.3989362,26.4734043 17.3882979,29.4893617 14.7074468,32.356383 C14.4468085,32.6170213 14.4468085,33.0638298 14.7446809,33.3244681 C15.0053191,33.5851064 15.4521277,33.5851064 15.712766,33.287234 C18.5425532,30.3085106 20.6276596,27.106383 21.6329787,24.2393617 C24.0159574,17.537234 20.5531915,12.1755319 15.9361702,10.3882979 Z" id="Path"></path>
                                    <path d="M28.1489362,16.2340426 C28.2606383,16.0851064 28.2606383,15.8989362 28.2234043,15.712766 C26.9946809,10.5744681 23.7180851,6.66489362 18.9893617,4.69148936 C16.9414894,3.83510638 14.7819149,3.38829787 12.5478723,3.38829787 C9.49468085,3.38829787 6.51595745,4.20744681 3.90957447,5.7712766 C3.57446809,5.95744681 3.46276596,6.40425532 3.68617021,6.7393617 C3.87234043,7.07446809 4.31914894,7.14893617 4.65425532,6.96276596 C7.03723404,5.5106383 9.75531915,4.76595745 12.5478723,4.76595745 C14.5957447,4.76595745 16.5691489,5.17553191 18.4680851,5.95744681 C22.75,7.74468085 25.7659574,11.3191489 26.8829787,16.0106383 C26.9574468,16.3085106 27.2553191,16.5319149 27.5531915,16.5319149 C27.6276596,16.5319149 27.6648936,16.5319149 27.7021277,16.5319149 C27.8882979,16.4946809 28.037234,16.3829787 28.1489362,16.2340426 Z" id="Path"></path>
                                    <path d="M12.8829787,0.111702128 C11.4680851,0.111702128 10.0159574,0.260638298 8.4893617,0.484042553 C8.11702128,0.558510638 7.85638298,0.893617021 7.93085106,1.30319149 C8.00531915,1.67553191 8.34042553,1.93617021 8.71276596,1.86170213 C10.1276596,1.60106383 11.5425532,1.4893617 12.8457447,1.4893617 C20.5159574,1.4893617 24.3510638,5.65957447 25.6542553,7.44680851 C25.8776596,7.74468085 26.3244681,7.81914894 26.6223404,7.59574468 C26.7712766,7.48404255 26.8829787,7.33510638 26.9202128,7.14893617 C26.9574468,6.96276596 26.9202128,6.77659574 26.8085106,6.62765957 C25.393617,4.69148936 21.2234043,0.111702128 12.8829787,0.111702128 Z" id="Path"></path>
                                    <path d="M22.0425532,29.1914894 C22.3776596,29.3776596 22.8244681,29.2659574 23.0106383,28.9308511 C23.7180851,27.7021277 24.2765957,26.4734043 24.6861702,25.2819149 C27.6648936,16.7180851 23.0106383,9.68085106 17.1276596,7.40957447 C15.5638298,6.81382979 13.8882979,6.4787234 12.212766,6.4787234 C11.393617,6.4787234 10.537234,6.55319149 9.71808511,6.70212766 C6.06914894,7.37234043 3.01595745,9.45744681 0.893617021,12.6968085 C0.781914894,12.8457447 0.744680851,13.0319149 0.781914894,13.2180851 C0.819148936,13.4042553 0.930851064,13.5531915 1.07978723,13.6648936 C1.37765957,13.8882979 1.82446809,13.7765957 2.04787234,13.4787234 C3.98404255,10.5 6.66489362,8.71276596 9.94148936,8.07978723 C10.6861702,7.93085106 11.4308511,7.85638298 12.1755319,7.85638298 C13.7021277,7.85638298 15.1542553,8.11702128 16.5691489,8.67553191 C21.856383,10.7606383 26.0265957,17.1276596 23.3457447,24.8351064 C22.9361702,25.9521277 22.4148936,27.106383 21.7819149,28.2606383 C21.5957447,28.5957447 21.7074468,29.0053191 22.0425532,29.1914894 Z" id="Path"></path>
                                    <path d="M9.42021277,34.7021277 C12.9202128,32.2074468 17.2021277,27.4414894 18.6542553,23.2340426 C20.4042553,18.1702128 17.8723404,14.5585106 14.7819149,13.3297872 C13.5159574,12.8457447 12.1382979,12.6968085 10.8351064,12.9574468 C8.41489362,13.4042553 6.32978723,15.1170213 5.28723404,17.462766 C4.17021277,19.9946809 2.56914894,21.856383 0.446808511,22.9361702 C0.111702128,23.1223404 -0.0372340426,23.5319149 0.14893617,23.8670213 C0.335106383,24.2021277 0.744680851,24.3510638 1.07978723,24.1648936 C3.46276596,22.9361702 5.32446809,20.8510638 6.55319149,17.9840426 C7.37234043,16.0478723 9.08510638,14.6702128 11.0957447,14.2978723 C11.4680851,14.2234043 11.8031915,14.1861702 12.1755319,14.1861702 C12.8829787,14.1861702 13.5904255,14.3351064 14.2978723,14.5957447 C16.7925532,15.5638298 18.8404255,18.5425532 17.3882979,22.75 C16.0106383,26.7340426 11.9148936,31.2021277 8.63829787,33.5478723 C8.34042553,33.7712766 8.26595745,34.2180851 8.4893617,34.5159574 C8.67553191,34.8510638 9.12234043,34.9255319 9.42021277,34.7021277 Z" id="Path"></path>
                                </g>
                            </g>
                        </g>
                    </g>
                </g>
            </g>
        </g>
    </g>
</svg>