<?xml version="1.0" encoding="UTF-8"?>
<svg width="12px" height="10px" viewBox="0 0 12 10" version="1.1" xmlns="http://www.w3.org/2000/svg" xmlns:xlink="http://www.w3.org/1999/xlink">
    <!-- Generator: Sketch 52.5 (67469) - http://www.bohemiancoding.com/sketch -->
    <title>Combined Shape</title>
    <desc>Created with Sketch.</desc>
    <g id="Final" stroke="none" stroke-width="1" fill="none" fill-rule="evenodd" opacity="0.900000036">
        <g id="Fetch---Final" transform="translate(-1167.000000, -7345.000000)" fill="#0B4670" fill-rule="nonzero">
            <g id="Footer" transform="translate(0.000000, 7119.000000)">
                <g id="Group-40" transform="translate(1135.000000, 224.000000)">
                    <g id="twitter-(1)" transform="translate(32.000000, 2.000000)">
                        <path d="M12.0107965,1.13557522 C11.5853097,1.32424779 11.1276106,1.45185841 10.6476106,1.50884956 C11.1376991,1.21522124 11.5138053,0.750619469 11.6913274,0.196106195 C11.2327434,0.468141593 10.7246018,0.665486726 10.1842478,0.771858407 C9.75132743,0.31079646 9.13451327,0.0226548673 8.45150442,0.0226548673 C7.14106195,0.0226548673 6.07823009,1.08548673 6.07823009,2.3959292 C6.07823009,2.5819469 6.09929204,2.76300885 6.14,2.93681416 C4.16761062,2.83787611 2.41876106,1.89309735 1.24814159,0.456814159 C1.04389381,0.807256637 0.926725664,1.21522124 0.926725664,1.6500885 C0.926725664,2.47327434 1.3460177,3.2 1.98247788,3.62548673 C1.59362832,3.61327434 1.22743363,3.50654867 0.907610619,3.32831858 C0.907433628,3.33840708 0.907433628,3.34849558 0.907433628,3.35840708 C0.907433628,4.50831858 1.72584071,5.46743363 2.81132743,5.68530973 C2.61238938,5.73982301 2.40230088,5.76867257 2.18619469,5.76867257 C2.03292035,5.76867257 1.88442478,5.7539823 1.73964602,5.72637168 C2.04159292,6.66902655 2.91787611,7.35522124 3.95663717,7.37451327 C3.14424779,8.01115044 2.12106195,8.39044248 1.00884956,8.39044248 C0.817699115,8.39044248 0.628318584,8.37929204 0.44300885,8.35716814 C1.49274336,9.03079646 2.74053097,9.42353982 4.08070796,9.42353982 C8.4460177,9.42353982 10.8332743,5.80725664 10.8332743,2.67079646 C10.8332743,2.5679646 10.8309735,2.46548673 10.8263717,2.36389381 C11.2904425,2.02938053 11.6927434,1.61150442 12.0107965,1.13557522 Z" id="Combined-Shape"></path>
                    </g>
                </g>
            </g>
        </g>
    </g>
</svg>