<?xml version="1.0" encoding="UTF-8"?>
<svg width="1808px" height="150px" viewBox="0 0 1808 150" version="1.1" xmlns="http://www.w3.org/2000/svg" xmlns:xlink="http://www.w3.org/1999/xlink">
    <!-- Generator: Sketch 52.5 (67469) - http://www.bohemiancoding.com/sketch -->
    <title>Waves</title>
    <desc>Created with Sketch.</desc>
    <defs>
        <rect id="path-1" x="0" y="0" width="1813" height="326"></rect>
    </defs>
    <g id="Final" stroke="none" stroke-width="1" fill="none" fill-rule="evenodd">
        <g id="Fetch---Final" transform="translate(-1012.000000, -7119.000000)">
            <g id="Footer" transform="translate(1012.000000, 7119.000000)">
                <g id="Waves">
                    <mask id="mask-2" fill="white">
                        <use xlink:href="#path-1"></use>
                    </mask>
                    <g id="Mask"></g>
                    <path d="M-1.36424205e-12,336 C2.86242245,336 109.28413,277.696818 109.28413,190.566191 C109.28413,103.435564 388.444369,49.6580978 542.409797,88.9865596 C696.375226,128.315021 944.239314,171.684725 1115.8713,105.447342 C1225.01641,63.3253185 1284,15.2953661 1430,12.9453125 C1502.7011,11.7750968 1633.89664,13.3995235 1746.89664,53.6111818 C1799.16181,72.7556055 1867.19626,104.885212 1951,150 L1951,311.959255 L-1.36424205e-12,336 Z" id="Fill-1" fill="#82CCFF" mask="url(#mask-2)" transform="translate(975.500000, 174.353293) scale(-1, 1) translate(-975.500000, -174.353293) "></path>
                    <path d="M684,336 C685.886559,336 756.026727,277.696818 756.026727,190.566191 C756.026727,103.435564 940.014999,49.6580978 1041.49017,88.9865596 C1142.96534,128.315021 1306.32702,171.684725 1419.44582,105.447342 C1532.56463,39.20996 1587.26277,-2.06250937 1813,13.1569708 L1813,336 L684,336 Z" id="Fill-1" fill="#2389CE" mask="url(#mask-2)"></path>
                    <path d="M-78,336 C-76.1134414,336 544.32702,171.684725 657.445824,105.447342 C770.564629,39.20996 825.262767,-2.06250937 1051,13.1569708 L1051,336 L-78,336 Z" id="Fill-1" fill="#2389CE" mask="url(#mask-2)" transform="translate(486.500000, 173.000000) scale(-1, 1) translate(-486.500000, -173.000000) "></path>
                    <path d="M6.26353105,326 C7.82266179,326 -3.73646895,169.856456 1.26353105,127.34036 C4.5492346,99.4013022 78.3713688,150 152.429069,142.007392 C226.486769,134.014784 270.263531,102.61051 345.22064,87.2051157 C420.177748,71.7997217 523.763531,71.7997217 595.673328,78.9865596 C851.943802,104.598846 997.502845,161.684725 1169.13483,95.4473423 C1340.76682,29.20996 1471.75877,80.2278622 1814.26353,95.4473423 L1814.26353,326 L6.26353105,326 Z" id="Fill-1" fill="#0B4670" mask="url(#mask-2)" transform="translate(907.131766, 194.162880) scale(-1, 1) translate(-907.131766, -194.162880) "></path>
                </g>
            </g>
        </g>
    </g>
</svg>