<?xml version="1.0" encoding="UTF-8"?>
<svg width="6px" height="13px" viewBox="0 0 6 13" version="1.1" xmlns="http://www.w3.org/2000/svg" xmlns:xlink="http://www.w3.org/1999/xlink">
    <!-- Generator: Sketch 52.5 (67469) - http://www.bohemiancoding.com/sketch -->
    <title>Shape</title>
    <desc>Created with Sketch.</desc>
    <g id="Final" stroke="none" stroke-width="1" fill="none" fill-rule="evenodd" opacity="0.900000036">
        <g id="Fetch---Final" transform="translate(-1135.000000, -7343.000000)" fill="#0B4670" fill-rule="nonzero">
            <g id="Footer" transform="translate(0.000000, 7119.000000)">
                <g id="Group-40" transform="translate(1135.000000, 224.000000)">
                    <g id="facebook-logo-button">
                        <path d="M5.4,6.28 L3.7844,6.28 C3.7844,8.8612 3.7844,12.0384 3.7844,12.0384 L1.3904,12.0384 C1.3904,12.0384 1.3904,8.892 1.3904,6.28 L0.2524,6.28 L0.2524,4.2448 L1.3904,4.2448 L1.3904,2.9284 C1.3904,1.9856 1.8384,0.5124 3.8064,0.5124 L5.5804,0.5192 L5.5804,2.4948 C5.5804,2.4948 4.5024,2.4948 4.2928,2.4948 C4.0832,2.4948 3.7852,2.5996 3.7852,3.0492 L3.7852,4.2452 L5.6092,4.2452 L5.4,6.28 Z" id="Shape"></path>
                    </g>
                </g>
            </g>
        </g>
    </g>
</svg>