<?xml version="1.0" encoding="UTF-8"?>
<svg width="14px" height="8px" viewBox="0 0 14 8" version="1.1" xmlns="http://www.w3.org/2000/svg" xmlns:xlink="http://www.w3.org/1999/xlink">
    <!-- Generator: Sketch 52.5 (67469) - http://www.bohemiancoding.com/sketch -->
    <title>Combined Shape</title>
    <desc>Created with Sketch.</desc>
    <g id="Final" stroke="none" stroke-width="1" fill="none" fill-rule="evenodd" opacity="0.900000036">
        <g id="Fetch---Final" transform="translate(-1236.000000, -7345.000000)" fill="#0B4670" fill-rule="nonzero">
            <g id="Footer" transform="translate(0.000000, 7119.000000)">
                <g id="Group-40" transform="translate(1135.000000, 224.000000)">
                    <g id="google-plus" transform="translate(101.000000, 2.000000)">
                        <path d="M12.0273973,2.29308219 L12.0273973,3.41547945 L13.149726,3.41547945 L13.149726,4.53787671 L12.0273973,4.53787671 L12.0273973,5.66027397 L10.905,5.66027397 L10.905,4.53787671 L9.78260274,4.53787671 L9.78260274,3.41547945 L10.905,3.41547945 L10.905,2.29308219 L12.0273973,2.29308219 Z M1.9259589,6.78260274 C0.429452055,5.28609589 0.429452055,2.66719178 1.98828767,1.17075342 C3.11068493,0.0483561644 4.73184932,-0.201027397 6.1660274,0.360136986 L6.72719178,0.671917808 L7.35075342,1.10842466 L6.35308219,2.10609589 L5.9789726,1.85671233 C5.1060274,1.29554795 3.85890411,1.42020548 3.04835616,2.23082192 C2.1130137,3.16616438 2.05068493,4.84972603 3.04835616,5.84739726 C3.98369863,6.84506849 5.66726027,6.84506849 6.54020548,5.84739726 C6.78958904,5.5980137 7.0390411,5.22383562 7.10136986,4.84972603 L7.10136986,4.725 L4.85664384,4.725 L4.85664384,3.47794521 L8.41082192,3.47794521 L8.47315068,3.78972603 L8.47315068,4.66267123 C8.41082192,5.47328767 8.0990411,6.28390411 7.53780822,6.84506849 C6.04136986,8.27910959 3.42246575,8.27910959 1.9259589,6.78260274 Z" id="Combined-Shape"></path>
                    </g>
                </g>
            </g>
        </g>
    </g>
</svg>