<svg height="20" viewBox="0 0 20 20" width="20" xmlns="http://www.w3.org/2000/svg"><g fill="#0B4670" fill-rule="evenodd" opacity="0.900000036"><path d="m14.5861816 0h-9.17236324c-2.98522949 0-5.41381836 2.42858887-5.41381836 5.41381836v9.17251584c0 2.9850769 2.42858887 5.4136658 5.41381836 5.4136658h9.17251584c2.9850769 0 5.4136658-2.4285889 5.4136658-5.4136658v-9.17251584c0-2.98522949-2.4285889-5.41381836-5.4138184-5.41381836zm-4.5861816 15.4685974c-3.01544188 0-5.46859742-2.4531555-5.46859742-5.4685974 0-3.01544188 2.45315554-5.46859742 5.46859742-5.46859742 3.0154419 0 5.4685974 2.45315554 5.4685974 5.46859742 0 3.0154419-2.4531555 5.4685974-5.4685974 5.4685974zm5.5993652-9.64752197c-.8911132 0-1.6159057-.72479246-1.6159057-1.61590574s.7247925-1.61605836 1.6159057-1.61605836c.8911133 0 1.6160584.72494508 1.6160584 1.61605836s-.7249451 1.61590574-1.6160584 1.61590574z" fill-rule="nonzero"/><path d="m10 5.5c-2.48119339 0-4.5 2.01864679-4.5 4.5 0 2.4811934 2.01880661 4.5 4.5 4.5 2.4813532 0 4.5-2.0188066 4.5-4.5 0-2.48135321-2.0186468-4.5-4.5-4.5z"/><path d="m15.599914 3.8c-.2755892 0-.499914.22436339-.499914.50000002 0 .27563659.2243248.49999998.499914.49999998.2757612 0 .500086-.22419134.500086-.49999998 0-.27580868-.2243248-.50000002-.500086-.50000002z"/></g></svg>