<?xml version="1.0" encoding="UTF-8"?>
<svg width="12px" height="15px" viewBox="0 0 12 15" version="1.1" xmlns="http://www.w3.org/2000/svg" xmlns:xlink="http://www.w3.org/1999/xlink">
    <!-- Generator: Sketch 52.5 (67469) - http://www.bohemiancoding.com/sketch -->
    <title>Group</title>
    <desc>Created with Sketch.</desc>
    <g id="Final" stroke="none" stroke-width="1" fill="none" fill-rule="evenodd">
        <g id="Fetch---Final" transform="translate(-1274.000000, -30.000000)" fill="#FFFFFF">
            <g id="Site-Header" transform="translate(0.000000, -8.000000)">
                <g id="Group-3" transform="translate(1024.000000, 28.000000)">
                    <g transform="translate(170.000000, 0.000000)" id="Group">
                        <g transform="translate(80.000000, 10.000000)">
                            <path d="M7,9.5 C6.86709851,9.50076838 6.73935942,9.44859326 6.645,9.355 C6.55034367,9.2611167 6.49710084,9.13331877 6.49710084,9 C6.49710084,8.86668123 6.55034367,8.7388833 6.645,8.645 L7.795,7.5 L6.65,6.355 C6.45393891,6.15893891 6.45393891,5.84106109 6.65,5.645 C6.84606109,5.44893891 7.16393891,5.44893891 7.36,5.645 L8.86,7.145 C8.95465633,7.2388833 9.00789916,7.36668123 9.00789916,7.5 C9.00789916,7.63331877 8.95465633,7.7611167 8.86,7.855 L7.36,9.355 C7.26441847,9.44983403 7.13462863,9.50211049 7,9.5 Z" id="Path"></path>
                            <path d="M8.5,8 L0.5,8 C0.223857625,8 0,7.77614237 0,7.5 C0,7.22385763 0.223857625,7 0.5,7 L8.5,7 C8.77614237,7 9,7.22385763 9,7.5 C9,7.77614237 8.77614237,8 8.5,8 Z" id="Path"></path>
                            <path d="M11.5,15 L3.5,15 C3.22385763,15 3,14.7761424 3,14.5 L3,10.5 C3,10.2238576 3.22385763,10 3.5,10 C3.77614237,10 4,10.2238576 4,10.5 L4,14 L11,14 L11,1 L4,1 L4,4.5 C4,4.77614237 3.77614237,5 3.5,5 C3.22385763,5 3,4.77614237 3,4.5 L3,0.5 C3,0.223857625 3.22385763,0 3.5,0 L11.5,0 C11.7761424,0 12,0.223857625 12,0.5 L12,14.5 C12,14.7761424 11.7761424,15 11.5,15 Z" id="Path"></path>
                        </g>
                    </g>
                </g>
            </g>
        </g>
    </g>
</svg>