<svg xmlns="http://www.w3.org/2000/svg" viewBox="0 0 463.35 213.72"><defs><style>.cls-1{fill:#186168;}.cls-1,.cls-11,.cls-2,.cls-6,.cls-8,.cls-9{stroke:#fff;stroke-miterlimit:10;}.cls-2,.cls-6,.cls-8,.cls-9{fill:none;}.cls-11,.cls-3{fill:#1a6f7c;}.cls-10,.cls-4{fill:#fff;}.cls-4{opacity:0.05;}.cls-5{opacity:0.2;}.cls-6{stroke-dasharray:12.15 12.15;}.cls-7{opacity:0.4;}.cls-8{opacity:0.39;}.cls-9{opacity:0.15;}</style></defs><title>autonomus ai systems</title><g id="Слой_2" data-name="Слой 2"><g id="Слой_1-2" data-name="Слой 1"><path class="cls-1" d="M163.73,27V45.83h0a4.54,4.54,0,0,1-3.35,4l-19,5.18a12.65,12.65,0,0,1-10.8-2L109.14,37.25A5.25,5.25,0,0,1,107,33.52h0V14.65"/><path class="cls-1" d="M439.48,68.9V83.78h-.06a5.71,5.71,0,0,1-4,4.67l-32.06,10a18,18,0,0,1-19.24-5.77l-7.61-9.27a4.24,4.24,0,0,1-1-2.67V65.06"/><ellipse class="cls-2" cx="228.98" cy="143.65" rx="34.5" ry="19.25"/><ellipse class="cls-3" cx="228.98" cy="143.65" rx="34.5" ry="19.25"/><ellipse class="cls-4" cx="229.82" cy="134.45" rx="141.17" ry="78.77"/><g class="cls-5"><ellipse class="cls-6" cx="229.82" cy="124.4" rx="141.17" ry="78.77"/></g><g class="cls-7"><ellipse class="cls-6" cx="229.82" cy="134.45" rx="141.17" ry="78.77"/></g><ellipse class="cls-8" cx="228.98" cy="117.52" rx="34.5" ry="19.25"/><ellipse class="cls-9" cx="228.98" cy="91.4" rx="34.5" ry="19.25"/><circle class="cls-2" cx="205.45" cy="63.02" r="2.13"/><circle class="cls-2" cx="223.26" cy="88.73" r="2.66"/><circle class="cls-2" cx="249.38" cy="99.53" r="0.88"/><circle class="cls-2" cx="247.88" cy="59.4" r="1.5"/><path class="cls-10" d="M223.06,56.14h3.73l8.84,24.37H232l-2.48-7.3h-9.63l-2.64,7.3h-3.39Zm5.42,14.39-3.7-10.77-3.93,10.77Z"/><path class="cls-10" d="M238.24,56.14h3v3.39h-3Zm0,6.69h3V80.51h-3Z"/><path class="cls-11" d="M160.36,30.77l-19,5.19a12.68,12.68,0,0,1-10.8-2L109.14,18.21a5.34,5.34,0,0,1,1.78-9.46L140,.86a10.38,10.38,0,0,1,11.52,4.55L163,24A4.55,4.55,0,0,1,160.36,30.77Z"/><path class="cls-2" d="M323.5,39.28l19.19,5.23c1.59.43,5.53.85,10.9-2.08l26.68-12.12c4.8-2.43,2-8.09-2.88-9.6l-26.07-7.37c-4.46-1.21-9.83.34-13.76,4.05l-16.75,15A4.61,4.61,0,0,0,323.5,39.28Z"/><path class="cls-2" d="M323.46,58.32l19,5.18a12.68,12.68,0,0,0,10.8-2l26.44-11.9c5.67-2.43,2.55-8.3-1.78-9.47l-29.07-7.89a10.38,10.38,0,0,0-11.52,4.55L320.78,51.52A4.55,4.55,0,0,0,323.46,58.32Z"/><line class="cls-2" x1="382.8" y1="26.49" x2="382.8" y2="45.36"/><line class="cls-2" x1="320.09" y1="35.46" x2="320.09" y2="54.34"/><path class="cls-2" d="M404.06,116.74l-.93-6.8a6.91,6.91,0,0,1,5.77-7.76l38.45-6.08a11.36,11.36,0,0,1,12.91,9l2.4,12.17A9.45,9.45,0,0,1,453,128.58l-37.57-1.51A12,12,0,0,1,404.06,116.74Z"/><path class="cls-2" d="M404.06,134.82l-.93-6.8a6.91,6.91,0,0,1,5.77-7.77l38.45-6.07a11.35,11.35,0,0,1,12.91,9l2.4,12.18A9.46,9.46,0,0,1,453,146.66l-37.57-1.51A12,12,0,0,1,404.06,134.82Z"/><path class="cls-11" d="M384.14,77.2l-7.61-9.27a4.3,4.3,0,0,1,1.36-6.54l25.24-12.92a19.37,19.37,0,0,1,22.14,3.16l12.4,11.69A5.74,5.74,0,0,1,435.44,73L403.38,83A18,18,0,0,1,384.14,77.2Z"/><path class="cls-2" d="M98.9,55.36,88,64.43A13,13,0,0,1,76.46,67l-37-9.46A5.36,5.36,0,0,1,37.64,48L57.86,33.16a13.64,13.64,0,0,1,15.36-.54l25.25,16A4.2,4.2,0,0,1,98.9,55.36Z"/><path class="cls-2" d="M98.9,73.81,88,82.89a13,13,0,0,1-11.49,2.57L39.48,76a5.36,5.36,0,0,1-1.84-9.51L57.86,51.61a13.64,13.64,0,0,1,15.36-.54L98.47,67A4.2,4.2,0,0,1,98.9,73.81Z"/><line class="cls-2" x1="100.42" y1="51.77" x2="100.42" y2="71.15"/><line class="cls-2" x1="35.45" y1="51.77" x2="35.45" y2="71.15"/><path class="cls-1" d="M60.68,92v19.38h0a5.27,5.27,0,0,1-.36,1.68l-4.13,10.73A8.26,8.26,0,0,1,47.61,129L6.35,124.57a6.55,6.55,0,0,1-5.83-6h0V99.18"/><line class="cls-2" x1="462.63" y1="121.14" x2="462.63" y2="139.56"/><line class="cls-2" x1="403.08" y1="108.54" x2="403.08" y2="128.59"/><path class="cls-11" d="M60.32,94l-4.13,10.72A8.24,8.24,0,0,1,47.61,110L6.35,105.53a6.54,6.54,0,0,1-4.8-10l9.11-14.16A11.65,11.65,0,0,1,24,76.53L56.94,87A5.35,5.35,0,0,1,60.32,94Z"/></g></g></svg>