<?xml version="1.0" encoding="utf-8"?>
<!-- Generator: Adobe Illustrator 22.1.0, SVG Export Plug-In . SVG Version: 6.00 Build 0)  -->
<svg version="1.1" id="Слой_1" xmlns:serif="http://www.serif.com/"
	 xmlns="http://www.w3.org/2000/svg" xmlns:xlink="http://www.w3.org/1999/xlink" x="0px" y="0px" viewBox="0 0 566.9 458"
	 style="enable-background:new 0 0 566.9 458;" xml:space="preserve">
<style type="text/css">
	.st0{fill:none;stroke:#FFFFFF;stroke-linecap:round;stroke-linejoin:round;stroke-miterlimit:1.5;}
	.st1{fill:none;stroke:#FFFFFF;stroke-width:2;stroke-linecap:round;stroke-linejoin:round;stroke-miterlimit:1.5;}
	.st2{fill:none;stroke:#356E7A;stroke-width:2;stroke-linecap:round;stroke-linejoin:round;stroke-miterlimit:1.5;}
	.st3{fill:none;stroke:#356E7A;stroke-linecap:round;stroke-linejoin:round;stroke-miterlimit:1.5;}
	.st4{fill:#356E7A;}
</style>
<g transform="matrix(1,0,0,1.16893,19.8584,-57.8189)">
	<path class="st0" d="M215.3,135.9c12.4-4.9,25.8-7.6,39.9-7.6c21.3,0,41.2,5.8,57.5,15.5c17.2,10.3,30.7,24.7,38.4,41.5"/>
</g>
<g transform="matrix(1,0,0,1.16893,19.8584,-57.8189)">
	<path class="st0" d="M156.3,192.4c6.1-16.2,18.3-31.5,34.4-43.1"/>
</g>
<g transform="matrix(1.16953,0,0,1.47729,-76.7641,-178.592)">
	<path class="st0" d="M275.4,166.1c8-1.4,16.6-2.2,25.3-2.2"/>
</g>
<g transform="matrix(1.16953,0,0,1.47729,-76.7641,-178.592)">
	<path class="st1" d="M356.5,176.2c10.1,5.1,19,11.7,26.3,19.9"/>
</g>
<g transform="matrix(1.16953,0,0,1.47729,-76.7641,-178.592)">
	<path class="st1" d="M382.7,196.1c8.2,9.1,20.1,26.2,21.2,38"/>
</g>
<g transform="matrix(0.873426,0,0,0.873426,91.998,57.917)">
	<path class="st2" d="M107,147c5.3-51.9,49.2-92.4,102.4-92.4c51.6,0,94.5,38.2,101.8,87.9"/>
</g>
<g transform="matrix(0.763525,0,0,0.763525,154.635,100.96)">
	<path class="st3" d="M55.4,113.7c0.6-10.4,2.7-20.3,6-29.5"/>
</g>
<g transform="matrix(0.763525,0,0,0.763525,154.635,100.96)">
	<path class="st0" d="M105.3,34.8c15.3-9.1,33.2-14.3,52.1-14.3c29.8,0,56.6,10.3,75.4,29.5"/>
</g>
<g transform="matrix(1,0,0,1.16893,19.8584,-57.8189)">
	<path class="st0" d="M405.7,266.7c-12.1,26.5-33.4,49.4-60.7,65.6c-26,15.4-57.3,24.6-91,24.6c-22.2,0-43.6-4.5-63.1-12.1"/>
</g>
<g transform="matrix(1,0,0,1.16893,19.8584,-57.8189)">
	<path class="st0" d="M152.1,323.7c-26.8-19.2-46.8-44.9-55.8-72"/>
</g>
<g transform="matrix(1.16953,0,0,1.47729,-76.7641,-178.592)">
	<path class="st0" d="M299.8,394.8c-13.8,0-27.1-1.2-39.9-3.6"/>
</g>
<g transform="matrix(1.16953,0,0,1.47729,-76.7641,-178.592)">
	<path class="st1" d="M429.5,343.9C418,356.7,404,367.2,388,375.2"/>
</g>
<g transform="matrix(1.16953,0,0,1.47729,-76.7641,-178.592)">
	<path class="st1" d="M463,283.7c-1.6,18.7-20.7,45.9-33.6,60.2"/>
</g>
<g transform="matrix(0.873426,0,0,0.873426,91.998,57.917)">
	<path class="st2" d="M367.1,193.2c-16.3,72.8-81.3,127.2-158.9,127.2c-85.9,0-156.3-66.6-162.4-151"/>
</g>
<g transform="matrix(0.763525,0,0,0.763525,154.635,100.96)">
	<path class="st0" d="M233,49.9c8.4,8.7,15.3,19.2,20,31.3"/>
</g>
<g transform="matrix(-1.3322,0,0,-1.3322,1384.34,930.045)">
	<path class="st3" d="M800.5,484.7l23.8-4.7l3.2,3.8"/>
</g>
<g transform="matrix(-1.3322,0,0,-1.3322,1384.34,930.045)">
	<path class="st3" d="M792,488.9l-6.3,6.8l10.5,11.7l-7.1,9.2"/>
</g>
<g transform="matrix(0.8942,0,0,0.8942,57.9315,44.9209)">
	<path class="st0" d="M204.4,107.3c0,0-7,3.8-6.3,6.8c0.7,3.2,6.7,5.3,7.6,9.7c0.9,4.5-3.3,9.6-7.6,5.8"/>
</g>
<g transform="matrix(-1.3322,0,0,-1.3322,1384.34,930.045)">
	<path class="st3" d="M801.4,506.1l2.2,2.4l-8.2,9.6"/>
</g>
<g transform="matrix(-1.3322,0,0,-1.3322,1384.34,930.045)">
	<path class="st3" d="M783.7,502.9l-1.3,4.6l3.3,3.8"/>
</g>
<g transform="matrix(0.8942,0,0,0.8942,57.9315,44.9209)">
	<path class="st0" d="M199.7,120.6c-6.6-1.2-5.4,3.2-4.7,5.4c0.7,2.2,3.3,3.8,3.3,3.8"/>
</g>
<g transform="matrix(-1.83492,0,0,-1.83492,1698.54,1126.48)">
	<path class="st3" d="M771.9,507.3l-18.7-17.1"/>
</g>
<g transform="matrix(0.8942,0,0,0.8942,56.2092,45.97)">
	<path class="st0" d="M252.4,167.3l-18.7-17.1"/>
</g>
<g transform="matrix(-1.3322,0,0,-1.3322,1384.34,930.045)">
	<path class="st3" d="M828.8,531.2l7.8,7.1h10.9l11.1-10.4"/>
</g>
<g transform="matrix(0.8942,0,0,0.8942,57.9315,44.9209)">
	<path class="st0" d="M241.1,149.6c0,0,4.6,5.9,7.8,7.1s7.6,1.6,10.9,0c3.7-1.7,16.1-5.4,9.2-11.5"/>
</g>
<g transform="matrix(-1.3322,0,0,-1.3322,1384.34,930.045)">
	<path class="st3" d="M863.9,519.2l2.6-5.3l-5.4-12.6"/>
</g>
<g transform="matrix(0.8942,0,0,0.8942,57.9315,44.9209)">
	<path class="st0" d="M272.2,135.9c5.7,4.2,7.1-1.6,6.8-3.6c-0.5-3-1.1-9.3-7.5-11.6"/>
</g>
<g transform="matrix(-1.3322,0,0,-1.3322,1384.34,930.045)">
	<path class="st3" d="M854.3,504.4l2.4-10l-7.2-6.7"/>
</g>
<g transform="matrix(0.8942,0,0,0.8942,57.9315,44.9209)">
	<path class="st0" d="M268,121.5c2-4.1,1.8-5.9,1.1-8.8c-0.8-2.8-7.2-6.7-7.2-6.7"/>
</g>
<g transform="matrix(-1.3322,0,0,-1.3322,1384.34,930.045)">
	<path class="st3" d="M848.6,496.9l-3.7,10.9l13.6,5.5"/>
</g>
<g transform="matrix(0.8942,0,0,0.8942,57.9315,44.9209)">
	<path class="st0" d="M268,121.5c-3.4,4.5-3.2-2.5-8.2-3c-5-0.5-2.9,4.1-1.3,7c1.4,2.9,12.4,6.3,12.4,6.3"/>
</g>
<g transform="matrix(-1.3322,0,0,-1.3322,1384.34,930.045)">
	<path class="st3" d="M841.9,520.6l5.1-2.6l9.6,3.7"/>
</g>
<g transform="matrix(0.8942,0,0,0.8942,57.9315,44.9209)">
	<path class="st0" d="M254.3,138.9c0,0,3.3-2.8,5.1-2.6c2.5,0.1,9.6,3.7,9.6,3.7"/>
</g>
<g transform="matrix(-1.3322,0,0,-1.3322,1384.34,930.045)">
	<path class="st3" d="M834.2,527.9l13-3l3.3,3"/>
</g>
<g transform="matrix(-1.3322,0,0,-1.3322,1384.34,930.045)">
	<path class="st3" d="M837.4,533l8.4-1.7"/>
</g>
<g transform="matrix(0.8942,0,0,0.8942,-17.9004,136.32)">
	<path class="st0" d="M331.3,44c0,0,10.3-3,13-3c1.4,0,3.6,1.1,3.3,3c-0.3,2.4-2.8,2.8-4.5,3.4c-2.1,0.9-8.4,1.7-8.4,1.7"/>
</g>
<g transform="matrix(-1.3322,0,0,-1.3322,1384.34,930.045)">
	<path class="st3" d="M801,517.5l12.1,12.1l20.3-7.6"/>
</g>
<g transform="matrix(0.8942,0,0,0.8942,57.9315,44.9209)">
	<path class="st0" d="M217.3,138.1c-7,2.6,2.8,10.7,8.2,11.5s20.3-7.6,20.3-7.6"/>
</g>
<g transform="matrix(-1.3322,0,0,-1.3322,1384.34,930.045)">
	<path class="st3" d="M834.9,515.7l-19.6,8.2l-9.2-8.8"/>
</g>
<g transform="matrix(-1.3322,0,0,-1.3322,1384.34,930.045)">
	<path class="st3" d="M809.5,508.8l7.5,8.3"/>
</g>
<g transform="matrix(-1.3322,0,0,-1.3322,1384.34,930.045)">
	<path class="st3" d="M825.6,515.1l-14-15.7l-5.1,2.1"/>
</g>
<g transform="matrix(0.8942,0,0,0.8942,-17.9004,136.32)">
	<path class="st0" d="M334.6,32.1c0,0-16.5,8.8-21.6,8.8c-4.2,0-6.6-2.8-7.1-4.7c-0.5-2-1.2-5.5,2.5-6.2c2-0.3,3.7,2,6.2,3.4
		c4.1,2.4,7.8,1.2,8.4-2.1c0.7-3-7.5-15.7-13.3-14.7c-6.5,1.1-5.4,5-11.1,4.9"/>
</g>
<g transform="matrix(-1.3322,0,0,-1.3322,1384.34,930.045)">
	<path class="st3" d="M819.5,497.6l6.2,8.4h4.9"/>
</g>
<g transform="matrix(-1.3322,0,0,-1.3322,1384.34,930.045)">
	<path class="st3" d="M838.6,504.6l-1.2,4.3l14,6.2"/>
</g>
<g transform="matrix(0.8942,0,0,0.8942,57.9315,44.9209)">
	<path class="st0" d="M255.4,122.6c-3.6-2.1-7.2,0.1-5.5,4.6c2.1,5.5,14,6.2,14,6.2"/>
</g>
<g transform="matrix(-1.3322,0,0,-1.3322,1384.34,930.045)">
	<path class="st3" d="M843,496.5l-12.4,2.8l-3.9-2.8"/>
</g>
<g transform="matrix(0.8942,0,0,0.8942,-17.9004,136.32)">
	<path class="st0" d="M340.2,12.8c0,0-9.6,2.8-12.4,2.8c-1.6,0-4.6-3.4-7-4.2c-3.6-1.2-4.6,0.7-4.1,2.5c0.4,1.6,3.2,4.9,5,6.2
		c1.3,1.1,5.5,1.3,5.5,1.3s4.7,0,1.3,5s2.4,5,2.4,5"/>
</g>
<g transform="matrix(-1.3322,0,0,-1.3322,1384.34,930.045)">
	<path class="st3" d="M833.6,493.1l10.8-3l-1.4-5.3"/>
</g>
<g transform="matrix(0.8942,0,0,0.8942,57.9315,44.9209)">
	<path class="st0" d="M248.9,111.7c4.9,0.9,7.5,1.1,9.2-2.4s-1.4-7.8-4.9-5.3"/>
</g>
<g transform="matrix(-1.3322,0,0,-1.3322,1384.34,930.045)">
	<path class="st3" d="M834.8,482.4l2.6,4.7l-15.1,5.1l-2.8-5.1"/>
</g>
<g transform="matrix(0.8942,0,0,0.8942,-17.9004,136.32)">
	<path class="st0" d="M295.5,1.7c12.9-9,23.3-7.8,27.8-6.7c4.6,1.2,4.1,5.8,1.7,7c-2.5,1.2-7.1-2.6-9.3,0c-2.4,2.9-0.1,6.2,6.3,7.2
		c6.5,1.1,10.9-2.4,12.6-4.9s0.8-6.6-3.8-4.7"/>
</g>
<g transform="matrix(-1.3322,0,0,-1.3322,1384.34,930.045)">
	<path class="st3" d="M797.2,499.3l4.7-5l10.7-2.1"/>
</g>
<g transform="matrix(0.8942,0,0,0.8942,-17.9004,136.32)">
	<path class="st0" d="M293.9,28.7c-5.5,2.4-2.2,5.7,0.8,5.7c2.9,0,7.6-4.3,6.1-9.6c-1.6-5.7-7.5-3.7-7.5-8.2c0-2,3.7-5,5.7-6.1
		c5.8-2.8,10.7-2.1,10.7-2.1s3.9,0.4,2.1,4.3"/>
</g>
<g transform="matrix(-1.3322,0,0,-1.3322,1384.34,930.045)">
	<path class="st3" d="M793.3,495.7l5.9-6.8l12.2-1.6"/>
</g>
<g transform="matrix(0.8942,0,0,0.8942,57.9315,44.9209)">
	<path class="st0" d="M205.9,114.2c0,0,3.2-5.7,5.9-6.8c3-1.4,6.2-2.2,9-1.6c3,0.8,4.7,3.6,0,5.1"/>
</g>
<g transform="matrix(0.720443,0,0,0.727004,97.8463,181.351)">
	<path class="st0" d="M223.4-29.7c0,0,4.6-0.1,2.6-4.3c-1.8-4.1-6.5-0.9-6.5-0.9"/>
</g>
<g transform="matrix(-1.01967,0,0,-1.01967,1230.68,722.907)">
	<circle class="st4" cx="929" cy="444.8" r="2.1"/>
</g>
<g transform="matrix(-1.01967,0,0,-1.01967,1226.18,714.313)">
	<circle class="st4" cx="931.4" cy="449.6" r="2.1"/>
</g>
<g transform="matrix(-1.01967,0,0,-1.01967,1223.4,734.593)">
	<circle class="st4" cx="932.9" cy="438.4" r="2.1"/>
</g>
<g transform="matrix(-1.59719,0,0,-1.59719,1601.55,886.808)">
	<path class="st4" d="M814.5,377c1.2,0,2.1,0.9,2.1,2.1c0,1.2-0.9,2.1-2.1,2.1c-1.2,0-2.1-0.9-2.1-2.1S813.3,377,814.5,377z
		 M814.5,378c0.5,0,1.1,0.5,1.1,1.1c0,0.5-0.5,1.1-1.1,1.1c-0.5,0-1.1-0.5-1.1-1.1C813.4,378.6,813.8,378,814.5,378z"/>
</g>
<g transform="matrix(-1.61068,1.65234e-18,1.65234e-18,-1.59719,1626.92,886.808)">
	<path class="st4" d="M806.9,377c1.2,0,2.1,0.9,2.1,2.1c0,1.2-0.9,2.1-2.1,2.1c-1.2,0-2.1-0.9-2.1-2.1
		C804.8,377.9,805.7,377,806.9,377z M806.9,378c0.5,0,1.1,0.5,1.1,1.1c0,0.5-0.5,1.1-1.1,1.1c-0.5,0-1.1-0.5-1.1-1.1
		C805.9,378.6,806.4,378,806.9,378z"/>
</g>
<g transform="matrix(-1.52778,-3.28395e-18,-3.28395e-18,-1.55459,1527.32,868.407)">
	<path class="st4" d="M834.7,382.5c1.2,0,2.1,0.9,2.1,2.1s-0.9,2.1-2.1,2.1s-2.1-0.9-2.1-2.1C832.5,383.4,833.5,382.5,834.7,382.5z
		 M834.7,383.5c0.5,0,1.1,0.5,1.1,1.1c0,0.5-0.5,1.1-1.1,1.1c-0.5,0-1.1-0.5-1.1-1.1C833.7,384,834.1,383.5,834.7,383.5z"/>
</g>
<g transform="matrix(-1.01967,0,0,-1.01967,1202.17,707.794)">
	<circle class="st4" cx="944.8" cy="453.3" r="2.1"/>
</g>
<g transform="matrix(-1.01967,0,0,-1.01967,1209.42,706.401)">
	<circle class="st4" cx="940.8" cy="454" r="2.1"/>
</g>
<g transform="matrix(-1.01967,0,0,-1.01967,1207.27,715.713)">
	<circle class="st4" cx="942" cy="448.9" r="2.1"/>
</g>
<g transform="matrix(-1.01967,0,0,-1.01967,1211.51,730.188)">
	<circle class="st4" cx="939.7" cy="440.8" r="2.1"/>
</g>
<g transform="matrix(-1.01967,0,0,-1.01967,1201.3,718.499)">
	<circle class="st4" cx="945.3" cy="447.3" r="2.1"/>
</g>
<g transform="matrix(-1.01967,0,0,-1.01967,1199.38,702.257)">
	<circle class="st4" cx="946.3" cy="456.3" r="2.1"/>
</g>
<g transform="matrix(-1.01967,0,0,-1.01967,1202.69,696.438)">
	<circle class="st4" cx="944.5" cy="459.6" r="2.1"/>
</g>
<g transform="matrix(-1.01967,0,0,-1.01967,1210.12,695.722)">
	<circle class="st4" cx="940.3" cy="459.9" r="2.1"/>
</g>
<g transform="matrix(-1.01967,0,0,-1.01967,1223.4,696.438)">
	<circle class="st4" cx="932.9" cy="459.6" r="2.1"/>
</g>
<g transform="matrix(-1.01967,0,0,-1.01967,1204.08,700.865)">
	<circle class="st4" cx="943.7" cy="457" r="2.1"/>
</g>
<g transform="matrix(-1.01967,0,0,-1.01967,1217.21,702.257)">
	<circle class="st4" cx="936.4" cy="456.3" r="2.1"/>
</g>
<g transform="matrix(-1.01967,0,0,-1.01967,1224.79,699.489)">
	<circle class="st4" cx="932.4" cy="455.6" r="2.1"/>
</g>
<g transform="matrix(-1.67138,0,0,-1.67138,1627.46,882.391)">
	<path class="st4" d="M812.5,379.7c1.2,0,2.1,0.9,2.1,2.1s-0.9,2.1-2.1,2.1s-2.1-0.9-2.1-2.1S811.4,379.7,812.5,379.7z M812.5,380.7
		c0.5,0,1.1,0.5,1.1,1.1s-0.5,1.1-1.1,1.1s-1.1-0.5-1.1-1.1S812,380.7,812.5,380.7z"/>
</g>
<g transform="matrix(-1.01967,0,0,-1.01967,1252.28,703.282)">
	<circle class="st4" cx="917.2" cy="453.5" r="2.1"/>
</g>
<g transform="matrix(-1.01967,0,0,-1.01967,1247.47,706.068)">
	<circle class="st4" cx="919.1" cy="452.9" r="2.1"/>
</g>
<g transform="matrix(-1.01967,0,0,-1.01967,1247.47,706.068)">
	<circle class="st4" cx="893.7" cy="450.3" r="2.1"/>
</g>
<g transform="matrix(-1.01967,0,0,-1.01967,1247.47,706.068)">
	<circle class="st4" cx="890.2" cy="435.9" r="2.1"/>
</g>
<g transform="matrix(0.699681,0,0,1,181.762,0)">
	<path class="st2" d="M-113.8,195.5h514.6"/>
</g>
<path class="st0" d="M174.8,267.9c-10.9-15.3-18.4-33.2-21.5-52.5"/>
<path class="st0" d="M369.1,279.5c-22.9,25.1-55.8,40.9-92.5,40.9c-25.9,0-49.9-7.9-69.9-21.3"/>
<path class="st0" d="M401.1,205.9c-1,11.7-3.5,22.9-7.5,33.3"/>
</svg>
