<svg width="151" height="61" viewBox="0 0 151 61" fill="none" xmlns="http://www.w3.org/2000/svg">
<g clip-path="url(#clip0)">
<path d="M108.266 41.6603C108.266 42.0425 108.416 42.4247 108.717 42.654C109.018 42.9598 109.319 43.0362 109.77 43.0362C110.146 43.0362 110.523 42.8834 110.748 42.5776L117.67 34.9335C119.175 33.3282 119.927 31.4936 119.927 29.2769C119.927 27.0601 119.175 25.0726 117.595 23.4673C116.015 21.8621 114.134 21.0977 111.877 21.0977C109.695 21.0977 107.739 21.8621 106.234 23.4673C104.654 25.0726 103.902 26.9836 103.902 29.2769C103.902 31.4936 104.654 33.4811 106.234 35.0099C107.739 36.4623 109.469 37.3032 111.501 37.3796L108.642 40.5901C108.416 40.8959 108.266 41.2017 108.266 41.6603ZM108.341 32.946C107.363 31.9523 106.836 30.7292 106.836 29.2769C106.836 27.8245 107.363 26.6014 108.341 25.6077C109.319 24.6139 110.523 24.0789 111.952 24.0789C113.382 24.0789 114.585 24.6139 115.564 25.6077C116.542 26.6014 117.068 27.9009 117.068 29.2769C117.068 30.7292 116.542 31.9523 115.564 32.946C114.585 33.9398 113.306 34.4748 111.952 34.4748C110.523 34.4748 109.319 33.9398 108.341 32.946Z" fill="white"/>
<path d="M135.2 23.4673C133.62 21.8621 131.739 21.0977 129.482 21.0977C127.3 21.0977 125.344 21.8621 123.84 23.4673C122.26 25.0726 121.507 26.9836 121.507 29.2769C121.507 31.4936 122.26 33.4811 123.84 35.0099C125.344 36.4623 127.075 37.3032 129.106 37.3796L126.247 40.5901C126.021 40.8959 125.871 41.2017 125.871 41.6603C125.871 42.0425 126.021 42.4247 126.322 42.654C126.623 42.9598 126.924 43.0362 127.376 43.0362C127.752 43.0362 128.128 42.8834 128.354 42.5776L135.276 34.9335C136.78 33.3282 137.533 31.4936 137.533 29.2769C137.533 26.9836 136.78 25.0726 135.2 23.4673ZM133.169 32.946C132.191 33.9398 130.912 34.4748 129.558 34.4748C128.128 34.4748 126.924 33.9398 125.946 32.946C124.968 31.9523 124.441 30.7292 124.441 29.2769C124.441 27.8245 124.968 26.6014 125.946 25.6077C126.924 24.6139 128.128 24.0789 129.558 24.0789C130.987 24.0789 132.191 24.6139 133.169 25.6077C134.147 26.6014 134.674 27.9009 134.674 29.2769C134.674 30.7292 134.147 31.9523 133.169 32.946Z" fill="white"/>
<path d="M137.006 0.535088C135.953 0.229323 134.674 0 133.244 0C134.749 0 135.953 0.229323 137.006 0.535088Z" fill="#00ABBF"/>
<path d="M137.006 0.535088C135.953 0.229323 134.674 0 133.244 0C134.749 0 135.953 0.229323 137.006 0.535088Z" fill="url(#paint0_linear)"/>
<path d="M132.657 58.551C133.468 56.5618 132.538 54.2812 130.581 53.4573C128.623 52.6333 126.378 53.5779 125.567 55.5671C124.756 57.5564 125.686 59.8369 127.644 60.6609C129.602 61.4849 131.846 60.5403 132.657 58.551Z" fill="#F9BD14"/>
<path d="M9.78077 22.5503C7.07225 22.5503 4.73991 23.544 2.85899 25.4551C0.978077 27.3661 0 29.7358 0 32.4876C0 35.2395 0.978077 37.6092 2.85899 39.5202C4.81515 41.5077 7.07225 42.425 9.78077 42.425C12.2636 42.425 14.4454 41.5841 16.3264 39.9024V40.7433C16.3264 41.2019 16.4768 41.5841 16.7778 41.9663C17.0787 42.2721 17.4549 42.425 17.9063 42.425C18.3577 42.425 18.7339 42.2721 19.0349 41.9663C19.3358 41.6606 19.4863 41.2784 19.4863 40.7433V32.4876C19.4863 29.7358 18.5082 27.3661 16.6273 25.4551C14.8216 23.4676 12.4893 22.5503 9.78077 22.5503ZM14.4454 37.1505C13.1664 38.45 11.6617 39.0616 9.856 39.0616C8.05032 39.0616 6.47035 38.45 5.26657 37.1505C3.98754 35.851 3.31041 34.2458 3.31041 32.4876C3.31041 30.653 3.98754 29.0478 5.26657 27.7483C6.54559 26.4488 8.05032 25.8373 9.856 25.8373C11.6617 25.8373 13.1664 26.4488 14.4454 27.7483C15.7245 29.0478 16.4016 30.653 16.4016 32.4876C16.3264 34.3222 15.7245 35.851 14.4454 37.1505Z" fill="white"/>
<path d="M31.7499 22.5503C29.3423 22.5503 27.3109 23.3911 25.5805 25.1493C23.85 26.9074 23.0224 28.9713 23.0224 31.4175V40.8197C23.0224 41.2784 23.1729 41.6606 23.4738 41.9663C23.7748 42.2721 24.151 42.425 24.6024 42.425C25.0538 42.425 25.43 42.2721 25.8062 41.9663C26.1071 41.6606 26.2576 41.2784 26.2576 40.8197V31.341C26.2576 29.8122 26.7843 28.5127 27.8376 27.4425C28.8909 26.3723 30.1699 25.8373 31.6746 25.8373C33.1794 25.8373 34.4584 26.3723 35.5117 27.4425C36.565 28.5127 37.0917 29.8122 37.0917 31.341C37.0917 31.7997 37.2422 32.1819 37.5431 32.4876C37.844 32.7934 38.2202 32.9463 38.7469 32.9463C39.1983 32.9463 39.5745 32.7934 39.8754 32.4876C40.1764 32.1819 40.3269 31.7997 40.3269 31.341C40.3269 28.8949 39.4993 26.831 37.7688 25.0728C36.1888 23.3911 34.1575 22.5503 31.7499 22.5503Z" fill="white"/>
<path d="M51.7628 22.5503C49.0543 22.5503 46.722 23.544 44.841 25.4551C42.9601 27.3661 41.9821 29.7358 41.9821 32.4876C41.9821 35.2395 42.9601 37.6092 44.841 39.5202C46.7972 41.5077 49.1295 42.425 51.9133 42.425C53.2676 42.425 54.5466 42.1957 55.7504 41.8134C56.9542 41.4312 58.0075 40.8197 59.0608 40.1317C59.437 39.826 59.5874 39.4438 59.6627 38.9851C59.6627 38.5265 59.5874 38.1443 59.2865 37.7621C58.9856 37.3799 58.6094 37.227 58.158 37.1505C57.7065 37.0741 57.3303 37.227 56.9542 37.5327C56.277 38.0678 55.4494 38.3736 54.6971 38.6794C53.8695 38.9087 52.9666 39.0616 51.9885 39.0616C50.0324 39.0616 48.4524 38.45 47.1734 37.1505C46.3458 36.3097 45.7439 35.316 45.4429 34.0929H59.9636C60.415 34.0929 60.7912 33.94 61.0922 33.6343C61.3931 33.3285 61.5436 32.9463 61.5436 32.4876C61.5436 29.7358 60.5655 27.3661 58.6846 25.4551C56.8037 23.4676 54.4714 22.5503 51.7628 22.5503ZM45.4429 30.8059C45.7439 29.6593 46.3458 28.6656 47.1734 27.7483C48.4524 26.4488 49.9571 25.8373 51.7628 25.8373C53.5685 25.8373 55.0732 26.4488 56.3523 27.7483C57.1799 28.5891 57.7818 29.5829 58.0827 30.8059H45.4429Z" fill="white"/>
<path d="M72.9043 22.5503C70.1958 22.5503 67.8635 23.544 65.9826 25.4551C64.1016 27.3661 63.1236 29.7358 63.1236 32.4876C63.1236 35.2395 64.1016 37.6092 65.9826 39.5202C67.9387 41.5077 70.1958 42.425 72.9043 42.425C75.3871 42.425 77.569 41.5841 79.4499 39.9024V40.7433C79.4499 41.2019 79.6004 41.5841 79.9013 41.9663C80.2023 42.2721 80.5785 42.425 81.0299 42.425C81.4813 42.425 81.8575 42.2721 82.1584 41.9663C82.4594 41.6606 82.6099 41.2784 82.6099 40.7433V32.4876C82.6099 29.7358 81.6318 27.3661 79.7509 25.4551C77.9452 23.4676 75.6129 22.5503 72.9043 22.5503ZM77.569 37.1505C76.29 38.45 74.7853 39.0616 72.9796 39.0616C71.1739 39.0616 69.5939 38.45 68.3901 37.1505C67.1111 35.851 66.434 34.2458 66.434 32.4876C66.434 30.653 67.1111 29.0478 68.3901 27.7483C69.6692 26.4488 71.1739 25.8373 72.9796 25.8373C74.7853 25.8373 76.29 26.4488 77.569 27.7483C78.848 29.0478 79.5252 30.653 79.5252 32.4876C79.4499 34.3222 78.848 35.851 77.569 37.1505Z" fill="white"/>
<path d="M139.865 2.06375L139.79 1.9873L139.865 2.06375Z" fill="white"/>
<path d="M139.865 2.06391L139.79 1.98747L139.714 1.91103L139.639 1.83459C138.962 1.2995 138.059 0.840852 137.081 0.535088C136.028 0.229323 134.749 0 133.319 0H98.4096H96.2277C93.4439 0 91.1868 2.29323 91.1868 5.12155V7.64411V60.9236H117.821C120.228 60.9236 122.184 59.6241 122.184 57.1779C122.184 54.3496 120.228 52.8972 117.821 52.8972H98.861L99.3124 12.6892L99.3876 8.10276H103.45L138.812 8.02632H142.95C142.874 7.49123 142.573 4.2807 139.865 2.06391Z" fill="url(#paint1_linear)"/>
<path d="M139.865 2.06348C142.573 4.28027 142.874 7.49079 142.874 8.02588H143.025C143.025 8.02588 142.799 4.43315 139.865 2.06348Z" fill="#00ABBF"/>
<path d="M143.777 60.9998H145.959C146.185 60.9998 146.335 60.9998 146.561 60.9233H143.175C143.326 60.9998 143.552 60.9998 143.777 60.9998Z" fill="white"/>
<path d="M146.712 0.0764411C146.486 0.0764411 146.335 0 146.11 0C146.034 0 146.034 0 145.959 0H143.777H133.244C134.749 0 135.953 0.229323 137.006 0.535088C138.059 0.840852 138.887 1.2995 139.564 1.83459L139.639 1.91103L139.714 1.98747L139.79 2.06391C142.724 4.43358 142.95 8.02632 142.95 8.02632H142.799C142.799 8.10276 142.799 8.10276 142.799 8.10276V12.6892L142.95 48.1579V52.8208H140.091C139.564 52.8208 139.037 52.8972 138.586 52.9737C136.855 53.3559 135.652 54.5789 135.727 57.1015C135.727 59.5476 137.608 60.7707 140.091 60.7707H143.025H146.411C148.893 60.4649 150.85 58.3246 150.85 55.6491V53.1266V7.64411V5.12155C151 2.599 149.119 0.458647 146.712 0.0764411Z" fill="#00ABBF"/>
</g>
<defs>
<linearGradient id="paint0_linear" x1="91.0942" y1="0.285814" x2="142.585" y2="0.285814" gradientUnits="userSpaceOnUse">
<stop stop-color="#00ABBF"/>
<stop offset="0.2647" stop-color="#01A9BC"/>
<stop offset="0.4363" stop-color="#06A1B4"/>
<stop offset="0.5815" stop-color="#0D95A5"/>
<stop offset="0.7118" stop-color="#178390"/>
<stop offset="0.8323" stop-color="#256C74"/>
<stop offset="0.9441" stop-color="#355054"/>
<stop offset="1" stop-color="#3F4040"/>
</linearGradient>
<linearGradient id="paint1_linear" x1="91.0943" y1="30.4799" x2="142.895" y2="30.4799" gradientUnits="userSpaceOnUse">
<stop stop-color="#00ABBF"/>
<stop offset="0.2647" stop-color="#01A9BC"/>
<stop offset="0.4363" stop-color="#06A1B4"/>
<stop offset="0.5815" stop-color="#0D95A5"/>
<stop offset="0.7118" stop-color="#178390"/>
<stop offset="0.8323" stop-color="#256C74"/>
<stop offset="0.9441" stop-color="#355054"/>
<stop offset="1" stop-color="#3F4040"/>
</linearGradient>
<clipPath id="clip0">
<rect width="151" height="61" fill="white"/>
</clipPath>
</defs>
</svg>
