<svg width="478" height="531" viewBox="0 0 478 531" fill="none" xmlns="http://www.w3.org/2000/svg">
<path d="M219.883 273.468H221.617C258.117 273.468 287.74 278.637 287.74 285.014C287.74 291.391 258.117 296.559 221.617 296.559C185.117 296.559 155.47 291.379 155.47 285.014C155.47 284.14 155.829 283.65 156.87 282.836" stroke="white" stroke-linecap="round" stroke-linejoin="round"/>
<path d="M109.092 167.967L100.721 203.86C98.5353 204.157 96.4405 204.926 94.5819 206.114C92.7232 207.302 91.1453 208.88 89.9575 210.739L126.039 225.096C125.785 218.754 123.429 212.676 119.341 207.82L124.376 187.361" stroke="white" stroke-linecap="round" stroke-linejoin="round"/>
<path d="M372.83 530.402V85.8319" stroke="white" stroke-linecap="round" stroke-linejoin="round"/>
<path d="M293.684 200.139V234.321C293.684 234.321 294.88 258.441 325.459 258.441H372.83" stroke="white" stroke-linecap="round" stroke-linejoin="round"/>
<path d="M372.615 231.318H404.391C404.391 231.318 434.791 231.892 434.791 196.322V160.573" stroke="white" stroke-linecap="round" stroke-linejoin="round"/>
<path d="M431.897 211.768H421.134C421.134 211.768 410.801 211.972 410.801 199.876V187.732" stroke="white" stroke-linecap="round" stroke-linejoin="round"/>
<path d="M434.791 197.973H452.73C452.73 197.973 459.965 198.105 459.965 189.598V180.996" stroke="white" stroke-linecap="round" stroke-linejoin="round"/>
<path d="M372.627 165.107H349.761C349.761 165.107 330.518 166.184 331.499 145.283C331.26 132.672 331.499 132.481 331.499 132.481" stroke="white" stroke-linecap="round" stroke-linejoin="round"/>
<path d="M442.397 159.389C437.394 160.957 432.024 160.904 427.053 159.237C422.081 157.57 417.764 154.374 414.717 150.106C411.669 145.838 410.048 140.715 410.084 135.47C410.12 130.225 411.812 125.126 414.917 120.9C418.023 116.674 422.384 113.538 427.378 111.94C432.371 110.341 437.742 110.362 442.723 111.999C447.704 113.636 452.04 116.806 455.113 121.056C458.186 125.306 459.838 130.418 459.834 135.663C459.844 139.163 459.097 142.625 457.645 145.809" stroke="white" stroke-linecap="round" stroke-linejoin="round"/>
<path d="M410.753 187.493C417.464 187.493 422.904 182.083 422.904 175.409C422.904 168.735 417.464 163.325 410.753 163.325C404.042 163.325 398.602 168.735 398.602 175.409C398.602 182.083 404.042 187.493 410.753 187.493Z" stroke="white" stroke-linecap="round" stroke-linejoin="round"/>
<path d="M447.276 175.875C464.51 175.05 472.558 166.567 471.829 150.75" stroke="white" stroke-linecap="round" stroke-linejoin="round"/>
<path d="M420.452 156.003C443.593 151.588 452.252 137.338 448.138 114.403" stroke="white" stroke-linecap="round" stroke-linejoin="round"/>
<path d="M403.781 185.267C415.369 183.425 419.531 176.545 417.139 165.203" stroke="white" stroke-linecap="round" stroke-linejoin="round"/>
<path d="M316.095 125.374C316.095 125.374 345.18 131.356 347.034 103.419" stroke="white" stroke-linecap="round" stroke-linejoin="round"/>
<path d="M304.614 143.895C304.614 143.895 319.922 185.913 274.513 191.752" stroke="white" stroke-linecap="round" stroke-linejoin="round"/>
<path d="M457.645 145.809C458.316 145.727 458.991 145.687 459.666 145.689C463.148 145.711 466.546 146.763 469.43 148.714C472.315 150.664 474.558 153.426 475.875 156.65C477.193 159.875 477.527 163.417 476.835 166.831C476.142 170.245 474.455 173.377 471.985 175.832C469.516 178.288 466.375 179.957 462.958 180.629C459.542 181.301 456.003 180.945 452.788 179.607C449.573 178.269 446.827 176.009 444.894 173.111C442.962 170.213 441.931 166.808 441.931 163.325C441.928 161.999 442.085 160.677 442.397 159.389C445.753 158.329 448.846 156.572 451.474 154.231C454.102 151.891 456.205 149.021 457.645 145.809Z" stroke="white" stroke-linecap="round" stroke-linejoin="round"/>
<path d="M293.504 198.404C309.402 198.404 322.29 185.586 322.29 169.774C322.29 153.961 309.402 141.143 293.504 141.143C277.606 141.143 264.718 153.961 264.718 169.774C264.718 185.586 277.606 198.404 293.504 198.404Z" stroke="white" stroke-linecap="round" stroke-linejoin="round"/>
<path d="M372.663 85.4012C396.209 85.4012 415.297 66.4174 415.297 42.9997C415.297 19.582 396.209 0.598206 372.663 0.598206C349.116 0.598206 330.028 19.582 330.028 42.9997C330.028 66.4174 349.116 85.4012 372.663 85.4012Z" stroke="white" stroke-linecap="round" stroke-linejoin="round"/>
<path d="M337.251 66.6053C337.251 66.6053 397.227 87.7462 408.516 20.124" stroke="white" stroke-linecap="round" stroke-linejoin="round"/>
<path d="M331.499 132.505C342.318 132.505 351.088 124.363 351.088 114.319C351.088 104.275 342.318 96.1332 331.499 96.1332C320.68 96.1332 311.91 104.275 311.91 114.319C311.91 124.363 320.68 132.505 331.499 132.505Z" stroke="white" stroke-linecap="round" stroke-linejoin="round"/>
<path d="M317.016 530.402L288.015 287.909L287.74 285.014" stroke="white" stroke-linecap="round" stroke-linejoin="round"/>
<path d="M155.47 285.014L127.139 530.402" stroke="white" stroke-linecap="round" stroke-linejoin="round"/>
<path d="M105.995 343.376C122.283 363.715 127.94 375.488 120.478 391.831C117.966 397.323 99.5848 408.354 106.545 428.514C111.257 442.153 141.418 408.497 141.418 408.497C141.418 408.497 169.618 383.444 170.958 376.098C172.297 368.752 168.673 364.612 164.153 360.544C159.632 356.477 126.637 327.607 126.637 327.607C126.637 327.607 121.805 335.539 105.995 343.376Z" fill="#356E7A" stroke="white" stroke-linecap="round" stroke-linejoin="round"/>
<path d="M123.479 382.666C123.479 382.666 140.521 380.597 148.737 382.666C156.953 384.736 161.629 369.422 154.561 362.231C147.493 355.041 121.075 333.589 121.075 333.589" stroke="white" stroke-linecap="round" stroke-linejoin="round"/>
<path d="M116.866 396.605C116.866 396.605 128.993 392.011 135.726 414.611" stroke="white" stroke-linecap="round" stroke-linejoin="round"/>
<path d="M120.298 364.301C120.298 364.301 133.633 359.432 138.105 348.042" stroke="white" stroke-linecap="round" stroke-linejoin="round"/>
<path d="M116.531 357.434C116.531 357.434 127.629 353.306 131.349 342.73" stroke="white" stroke-linecap="round" stroke-linejoin="round"/>
<path d="M111.963 351.057C111.963 351.057 123.922 348.245 127.019 339.092" stroke="white" stroke-linecap="round" stroke-linejoin="round"/>
<path d="M70.5597 109.45L83.2843 95.2479C83.2843 95.2479 84.3367 94.0514 84.3367 93.525C84.3367 92.9986 83.2843 91.9457 83.2843 91.9457L75.4749 84.9466C75.4749 84.9466 74.279 83.5946 73.6452 83.7502C73.0341 83.9773 72.5136 84.3973 72.1622 84.9466L58.7678 99.5431" fill="#356E7A"/>
<path d="M70.5597 109.45L83.2843 95.2479C83.2843 95.2479 84.3367 94.0514 84.3367 93.525C84.3367 92.9986 83.2843 91.9457 83.2843 91.9457L75.4749 84.9466C75.4749 84.9466 74.279 83.5946 73.6452 83.7502C73.0341 83.9773 72.5136 84.3973 72.1622 84.9466L58.7678 99.5431" stroke="white" stroke-linecap="round" stroke-linejoin="round"/>
<path d="M32.6965 158.587C33.8701 160.057 34.9563 161.595 35.9495 163.193C37.1454 165.658 38.1858 171.736 37.7314 176.976L48.5545 183.7" stroke="white" stroke-linecap="round" stroke-linejoin="round"/>
<path d="M125.345 224.762L90.7947 210.775C90.7947 210.775 85.425 209.675 78.4527 214.365C73.669 217.607 68.0721 223.613 62.9774 234.704C62.9774 234.704 39.9678 248.343 27.7693 258.573C15.5709 268.802 13.1551 289.381 12.9518 307.327C12.7485 325.274 17.7355 342.957 23.9543 347.36C30.1731 351.763 32.8281 346.618 32.1106 342.694C31.393 338.769 21.5625 325.74 21.3472 316.887C21.3472 316.887 24.4088 333.086 34.6459 342.694C39.3579 347.121 46.2584 337.274 40.0515 330.921C33.8446 324.568 27.6976 312.819 27.6976 312.819C31.1532 319.28 35.2952 325.349 40.0515 330.921C40.9187 331.966 42.0013 332.812 43.2252 333.401C44.4491 333.989 45.7856 334.306 47.1433 334.331C52.812 334.163 56.4118 327.152 50.9942 323.754C43.4958 318.969 37.1574 310.031 37.1574 310.031L39.4655 312.986C43.6273 318.131 57.7632 316.576 58.8634 310.294C59.9637 304.013 51.2693 305.915 47.1553 305.281C43.0413 304.647 38.6523 303.666 40.5418 297.983C42.4314 292.3 39.035 284.547 41.1996 280.431C43.3642 276.316 75.6423 260.822 75.6423 260.822C127.713 257.795 130.212 233.986 131.695 230.516C133.178 227.047 125.345 224.762 125.345 224.762Z" fill="#356E7A" stroke="white" stroke-linecap="round" stroke-linejoin="round"/>
<path d="M32.0627 255.306C32.0627 255.306 36.0332 269.197 46.6411 275.993" stroke="white" stroke-linecap="round" stroke-linejoin="round"/>
<path d="M21.8137 265.835C21.8137 265.835 27.8412 278.685 40.6615 281.161" stroke="white" stroke-linecap="round" stroke-linejoin="round"/>
<path d="M12.9399 307.172C12.9399 307.172 20.4743 314.793 26.0951 307.172C31.716 299.55 30.7234 297.995 32.1824 296.2C33.0196 295.171 37.576 296.2 41.2116 293.449" stroke="white" stroke-linecap="round" stroke-linejoin="round"/>
<path d="M58.3252 274.198C58.3252 274.198 47.5619 270.98 57.8947 288.256C68.2275 305.533 76.8382 316.516 88.4985 326.087C100.159 335.659 104.321 340.696 106.198 343.603C106.198 343.603 119.461 337.035 126.708 327.571L121.339 321.014C121.339 321.014 125.405 310.438 119.557 297.624C113.709 284.81 104.895 282.848 94.7053 280.049C84.5161 277.249 58.3252 274.198 58.3252 274.198Z" stroke="white" stroke-linecap="round" stroke-linejoin="round"/>
<path d="M76.5393 102.773V102.845V102.953C76.6948 103.647 76.8263 104.149 77.5439 104.496C77.9957 104.678 78.4707 104.794 78.9551 104.843C80.725 105.118 82.4352 105.609 84.2052 105.872C85.9631 106.211 87.7795 106.075 89.4673 105.477C90.2308 105.152 90.96 104.751 91.6439 104.281C92.3375 103.838 93.1268 103.635 93.94 103.156" stroke="white" stroke-miterlimit="10"/>
<path d="M88.4985 135.113L88.2234 135.197H88.1038H87.7929H87.4939H87.1949H86.9079H86.7644H86.6209H86.4893H86.3458C81.3185 134.381 76.7109 131.899 73.2624 128.15C74.6901 133.498 74.5592 139.143 72.8852 144.42C71.2112 149.696 68.064 154.383 63.8146 157.929C62.3297 159.264 60.4647 160.1 58.4807 160.322C55.6583 160.441 53.2186 158.515 51.0779 156.673C35.8777 143.727 20.9525 130.004 9.85434 113.338C5.70447 107.093 2.05689 100.297 0.956639 92.8789C-0.956844 80.1609 5.03475 67.1796 13.6933 57.5842C18.0584 52.7985 23.2607 48.4674 29.3599 46.254C37.8151 43.2031 47.2988 44.3756 55.6703 47.7137C60.2627 49.5442 64.7235 52.1046 67.7731 55.993C73.8125 63.686 73.0949 74.5496 73.9082 83.7382V83.8578" stroke="white" stroke-miterlimit="10"/>
<path d="M194.147 140.293C194.147 140.293 219.596 168.721 222.765 209.471C225.934 250.222 226.867 261.42 216.283 280.778C205.699 300.137 185.512 289.225 174.749 286.186C163.985 283.147 105.923 275.275 102.897 275.418C99.8717 275.562 98.8313 281.137 99.1302 281.293" stroke="white" stroke-linecap="round" stroke-linejoin="round"/>
<path d="M55.8376 273.983L57.2967 270.13" stroke="white" stroke-linecap="round" stroke-linejoin="round"/>
<path d="M75.0682 216.554L43.1848 200.809C43.1848 200.809 40.9604 197.22 42.6705 194.468C44.3807 191.716 51.042 182.061 50.2288 174.906C50.2288 174.906 61.2552 173.829 66.4456 179.058C71.6359 184.286 76.7066 179.285 75.6183 175.792C74.53 172.298 62.1881 163.277 49.5591 163.971" stroke="white" stroke-linecap="round" stroke-linejoin="round"/>
<path d="M62.0087 235.254C62.0087 235.254 45.4451 226.604 34.7894 221.16C24.1337 215.717 22.8301 212.965 20.9406 193.989C19.051 175.014 27.5779 163.014 27.5779 163.014C32.2779 157.127 37.1454 156.768 42.551 156.314C45.3394 155.983 48.1618 156.075 50.9224 156.589" stroke="white" stroke-width="0.95" stroke-linecap="round" stroke-linejoin="round"/>
<path d="M34.7893 221.16C34.7893 221.16 45.0623 211.206 46.7486 202.675" stroke="white" stroke-linecap="round" stroke-linejoin="round"/>
<path d="M23.1411 207.21C23.1411 207.21 36.7388 207.449 43.2805 200.976" stroke="white" stroke-linecap="round" stroke-linejoin="round"/>
<path d="M62.188 159.58C62.188 159.58 79.6366 167.129 77.9862 171.736C76.3358 176.342 74.9964 174.631 74.9964 174.631" stroke="white" stroke-linecap="round" stroke-linejoin="round"/>
<path d="M44.2493 192.625C45.9296 193.071 47.6974 193.068 49.3762 192.617C51.055 192.166 52.5861 191.281 53.8167 190.053C58.0383 185.782 58.995 182.707 58.995 182.707C58.995 182.707 64.8192 182.372 67.7373 180.314" stroke="white" stroke-linecap="round" stroke-linejoin="round"/>
<path d="M112.106 94.6975V94.6137V94.518V93.7643C111.999 90.175 106.019 90.3544 103.83 91.3714C101.235 92.7386 99.0789 94.8125 97.6115 97.3536C89.9815 108.684 87.5538 122.957 88.8095 136.561C88.9361 139.905 89.8193 143.178 91.3927 146.132C93.1149 148.968 96.2601 151.157 99.5609 150.858" stroke="white" stroke-miterlimit="10"/>
<path d="M109.08 167.787C101.271 162.81 97.444 146.371 97.9104 134.886C98.2811 125.625 99.2618 115.372 103.424 106.961C105.516 103.053 108.074 99.4131 111.042 96.1212C123.156 81.7641 145.138 87.1719 159.022 94.8411C171.532 101.744 183.084 111.591 189.997 124.321C193.034 129.896 194.027 136.86 194.135 143.081C194.362 157.438 190.236 176.246 177.738 184.956C169.762 190.556 159.536 190.615 150.232 191.441C142.758 193.391 128.705 195.999 124.233 187.182L132.604 150.26C132.604 150.26 137.735 150.104 142.985 144.983C148.02 140.066 154.346 127.551 143.894 113.481C135.391 102.032 121.171 103.671 112.883 110.897C106.389 116.52 103.854 126.451 105.493 133.103C108.315 144.469 112.883 147.269 112.883 147.269L109.08 167.787Z" fill="#356E7A" stroke="white" stroke-linecap="round" stroke-linejoin="round"/>
<path d="M152.851 191.202C152.851 191.202 170.156 201.575 170.981 227.729C171.807 253.883 171.197 261.528 171.197 261.528L113.613 252.088" stroke="white" stroke-linecap="round" stroke-linejoin="round"/>
<path d="M58.7677 99.567C61.0988 99.5741 63.3756 100.272 65.3103 101.573C67.245 102.874 68.7508 104.72 69.6374 106.877C70.5241 109.034 70.7518 111.405 70.2918 113.692C69.8318 115.978 68.7047 118.076 67.053 119.722C65.4012 121.368 63.299 122.487 61.0118 122.938C58.7246 123.389 56.3551 123.151 54.2027 122.256C52.0503 121.36 50.2116 119.846 48.919 117.905C47.6263 115.965 46.9376 113.684 46.9399 111.352C46.9431 109.801 47.2515 108.266 47.8476 106.835C48.4437 105.403 49.3158 104.103 50.4141 103.009C51.5124 101.914 52.8154 101.047 54.2487 100.457C55.682 99.8662 57.2176 99.5638 58.7677 99.567ZM58.7677 105.453C59.9333 105.456 61.072 105.804 62.04 106.453C63.008 107.103 63.7618 108.025 64.2063 109.103C64.6507 110.181 64.7657 111.366 64.5369 112.51C64.308 113.653 63.7456 114.703 62.9205 115.527C62.0955 116.351 61.0449 116.911 59.9016 117.138C58.7582 117.364 57.5733 117.247 56.4967 116.8C55.42 116.353 54.4999 115.597 53.8526 114.628C53.2053 113.658 52.8598 112.518 52.8598 111.352C52.863 109.786 53.4868 108.286 54.5944 107.18C55.702 106.074 57.2029 105.453 58.7677 105.453Z" fill="#356E7A" stroke="white" stroke-linecap="round" stroke-linejoin="round"/>
<path d="M40.2992 131.829C42.0554 130.493 42.1215 127.624 40.4468 125.42C38.772 123.216 35.9907 122.512 34.2344 123.847C32.4782 125.183 32.4121 128.052 34.0868 130.256C35.7616 132.46 38.5429 133.165 40.2992 131.829Z" stroke="white" stroke-linecap="round" stroke-linejoin="round"/>
</svg>
