<?xml version="1.0" encoding="utf-8"?>
<!-- Generator: Adobe Illustrator 22.1.0, SVG Export Plug-In . SVG Version: 6.00 Build 0)  -->
<svg version="1.1" id="Слой_1" xmlns="http://www.w3.org/2000/svg" xmlns:xlink="http://www.w3.org/1999/xlink" x="0px" y="0px"
	 viewBox="0 0 566.9 359" style="enable-background:new 0 0 566.9 359;" xml:space="preserve">
<style type="text/css">
	.st0{display:none;}
	.st1{display:inline;fill:#101010;stroke:#326E7A;stroke-linecap:round;stroke-linejoin:round;stroke-miterlimit:1.5;}
	.st2{fill:#326E7A;}
	.st3{fill:#FFFFFF;}
	.st4{opacity:0.6;}
	.st5{opacity:0.25;}
	.st6{opacity:0.36;}
	.st7{opacity:0.35;}
</style>
<g id="Слой_2_1_" class="st0">
	<rect x="-1012.8" y="-184.5" class="st1" width="855" height="595.5"/>
</g>
<g id="Слой_1_1_" xmlns:serif="http://www.serif.com/">
	<g transform="matrix(1.11554,0,0,1.10533,-61.3444,-50.8914)">
		<g>
			<path class="st2" d="M253.2,265c-0.1,0-0.1,0-0.2-0.1l-7.4-4.3c-0.2-0.1-0.2-0.3-0.1-0.5c0.1-0.2,0.3-0.2,0.5-0.1l7.4,4.3
				c0.2,0.1,0.2,0.3,0.1,0.5C253.4,265,253.3,265,253.2,265z"/>
		</g>
	</g>
	<g transform="matrix(0.943347,0,0,0.961139,43.8852,13.7363)">
		<g>
			<path class="st2" d="M315.2,135.6c-0.2,0-0.3-0.1-0.4-0.2c-0.1-0.2,0-0.5,0.2-0.6l40-22.5c0.2-0.1,0.5,0,0.6,0.2s0,0.5-0.2,0.6
				l-40,22.5C315.4,135.5,315.3,135.6,315.2,135.6z"/>
		</g>
	</g>
	<g>
		<path class="st2" d="M246.9,117.8c-0.1,0-0.1,0-0.2-0.1l-5.5-3.2c-0.1-0.1-0.2-0.2-0.2-0.4c0-0.2,0.1-0.3,0.2-0.4l37.1-21.4
			c0.2-0.1,0.5,0,0.6,0.2s0,0.5-0.2,0.6l-36.5,21.1l4.9,2.8c0.2,0.1,0.3,0.4,0.2,0.6C247.2,117.7,247.1,117.8,246.9,117.8z"/>
	</g>
	<g>
		<path class="st2" d="M184.8,174.4c-0.1,0-0.1,0-0.2-0.1l-41.2-23.8c-0.2-0.1-0.3-0.4-0.2-0.6c0.1-0.2,0.4-0.3,0.6-0.2l41.2,23.8
			c0.2,0.1,0.3,0.4,0.2,0.6C185.1,174.4,184.9,174.4,184.8,174.4z"/>
	</g>
	<g>
		<path class="st2" d="M357.8,238.1c-0.1,0-0.3-0.1-0.4-0.2c-0.1-0.2,0-0.5,0.2-0.6l38.7-22.3l-5.1-2.9c-0.1-0.1-0.2-0.2-0.2-0.4
			c0-0.1,0.1-0.3,0.2-0.4l46.2-26.7l-15-8.4c-0.1-0.1-0.2-0.2-0.2-0.4s0.1-0.3,0.2-0.4l12.6-7.3c0.2-0.1,0.5,0,0.6,0.2
			s0,0.5-0.2,0.6l-11.9,6.9l15,8.4c0.1,0.1,0.2,0.2,0.2,0.4s-0.1,0.3-0.2,0.4l-46.2,26.7l5.1,2.9c0.1,0.1,0.2,0.2,0.2,0.4
			s-0.1,0.3-0.2,0.4L358,238C358,238.1,357.9,238.1,357.8,238.1z"/>
	</g>
	<g transform="matrix(1,0,0,1,-1.09697,-1.06105)">
		<g>
			<path class="st2" d="M223.5,132.5c-0.1,0-0.1,0-0.2-0.1l-30.7-17.7c-0.2-0.1-0.3-0.4-0.2-0.6s0.4-0.3,0.6-0.2l30.7,17.7
				c0.2,0.1,0.3,0.4,0.2,0.6C223.8,132.4,223.6,132.5,223.5,132.5z"/>
		</g>
	</g>
	<g transform="matrix(1.00634,0,0,0.990363,-5.53688,5.01296)">
		<g>
			<path class="st2" d="M437.1,264.5c-0.1,0-0.1,0-0.2-0.1l-63.2-37.1c-0.2-0.1-0.3-0.4-0.2-0.6c0.1-0.2,0.4-0.3,0.6-0.2l63,36.9
				l47.1-27.6c0.2-0.1,0.5,0,0.6,0.2s0,0.5-0.2,0.6l-47.3,27.8C437.3,264.5,437.2,264.5,437.1,264.5z"/>
		</g>
	</g>
	<g>
		<path class="st2" d="M204.7,121.6c-0.1,0-0.3-0.1-0.4-0.2c-0.1-0.2,0-0.5,0.2-0.6l35.1-20.3c0.2-0.1,0.5,0,0.6,0.2s0,0.5-0.2,0.6
			l-35.1,20.3C204.8,121.5,204.8,121.6,204.7,121.6z"/>
	</g>
	<g transform="matrix(1.07052,0,0,0.93873,-48.1618,29.0555)">
		<g>
			<path class="st2" d="M359.6,218.3c-0.1,0-0.1,0-0.2-0.1l-23.7-15.7c-0.2-0.1-0.3-0.4-0.1-0.6c0.1-0.2,0.3-0.3,0.5-0.2l23.7,15.7
				c0.2,0.1,0.3,0.4,0.1,0.6C359.9,218.2,359.7,218.3,359.6,218.3z"/>
		</g>
	</g>
	<g transform="matrix(1.03933,0,0,1.04345,-23.1134,-21.2436)">
		<g>
			<path class="st2" d="M230.3,243c-0.1,0-0.3-0.1-0.4-0.2c-0.1-0.2,0-0.4,0.1-0.6l17.9-10.3c0.2-0.1,0.4,0,0.6,0.1
				c0.1,0.2,0,0.4-0.1,0.6L230.5,243C230.4,243,230.4,243,230.3,243z"/>
		</g>
	</g>
	<g transform="matrix(1,0,0,1,-6.98565,-12.8672)">
		<g>
			<path class="st2" d="M247.2,266c-0.1,0-0.1,0-0.2-0.1l-20.3-11.7c-0.1-0.1-0.2-0.2-0.2-0.4s0.1-0.3,0.2-0.4l24.8-14.3
				c0.2-0.1,0.5,0,0.6,0.2s0,0.5-0.2,0.6l-24.2,14l19.7,11.4c0.2,0.1,0.3,0.4,0.2,0.6C247.4,265.9,247.3,266,247.2,266z"/>
		</g>
	</g>
	<g>
		<path class="st2" d="M182.3,215.3c-0.1,0-0.3-0.1-0.4-0.2c-0.1-0.2-0.1-0.5,0.1-0.6l19.9-11.8c0.2-0.1,0.5-0.1,0.6,0.1
			c0.1,0.2,0.1,0.5-0.1,0.6l-19.9,11.8C182.5,215.2,182.4,215.3,182.3,215.3z"/>
	</g>
	<g>
		<path class="st3" d="M209.9,223.3c-0.1-0.1-0.3-0.1-0.4,0l-6.3,3.7c-0.1,0.1-0.1,0.1-0.2,0.2c0,0.1-0.1,0.1-0.1,0.2v7.1
			c0,0.2,0.1,0.3,0.3,0.4l6.3,3.6h0.1l0,0h0.1l0,0l0,0c0.1,0,0.2-0.1,0.3-0.1l6-3.5c0.2,0,0.4-0.2,0.4-0.4v-7.2
			c0-0.2-0.1-0.3-0.3-0.4L209.9,223.3z M215.6,234.3l-5.5,3.1v-6.2l5.5-3.1V234.3z M203.7,228.1l5.6,3.2v6.2l-5.6-3.2V228.1z
			 M209.7,224.2l5.5,3.2l-5.5,3.2l-5.5-3.2L209.7,224.2z"/>
		<path class="st3" d="M182.3,231.1v-29.7c0-0.2-0.2-0.4-0.4-0.4l-26.1-15.1c-0.1-0.1-0.3-0.1-0.4,0l-26.3,15.2
			c-0.1,0.1-0.2,0.2-0.2,0.4l0,0c-0.1,0.1-0.1,0.2-0.1,0.3v6.2l-10.8-6.3l16.5-9.5c0.1-0.1,0.2-0.2,0.2-0.4s-0.1-0.3-0.2-0.4
			l-10.6-6.1l39.8-23c0.2-0.1,0.3-0.4,0.2-0.6c-0.1-0.2-0.4-0.3-0.6-0.2l-40.5,23.4c-0.1,0.1-0.2,0.2-0.2,0.4s0.1,0.3,0.2,0.4
			l10.6,6.1l-16.2,9.3c0,0-0.1,0-0.1,0.1l-13.3-7.7c0,0,0,0-0.1,0l12.4-7.2c0.1,0,0.1-0.1,0.1-0.2c0.1-0.1,0.2-0.2,0.2-0.3v-30.7
			l13.3-7.7l9,5.2c0.1,0.1,0.2,0.2,0.3,0.2l0,0h0.1c0.1,0,0.1,0,0.2-0.1l10.2-5.9c0.2-0.1,0.3-0.4,0.2-0.6v-4.6c0-0.1,0-0.2-0.1-0.2
			l0,0l-0.1-0.1l0,0l-3.9-2.3l12.1-7l6.6,3.8c0.1,0,0.1,0.1,0.2,0.1l0,0c0,0,0,0,0.1,0s0.3-0.1,0.3-0.2l10.1-5.8l0,0
			c0.2,0,0.4-0.2,0.4-0.4v-7.6l47-27.1l2.5,1.4h0.1l0,0h0.1l0,0l0,0c0.1,0,0.2-0.1,0.3-0.1l5.3-3.1c0.2,0,0.4-0.2,0.4-0.4v-6.4
			c0-0.1,0-0.1-0.1-0.2l0,0c0-0.1-0.1-0.2-0.2-0.2l-5.6-3.2c-0.1-0.1-0.3-0.1-0.4,0l-5.6,3.3c-0.1,0.1-0.1,0.1-0.2,0.2
			c0,0.1-0.1,0.1-0.1,0.2v6.3c0,0.2,0.1,0.3,0.3,0.4l2.3,1.3L175.3,121v-3.1v-0.3v-11.4v-0.3V94.7v-0.5V82.7c0-0.2-0.1-0.3-0.3-0.4
			l-10.4-6c-0.1-0.1-0.3-0.1-0.4,0l-10.5,6.1c-0.1,0.1-0.2,0.2-0.2,0.3c0,0.1-0.1,0.1-0.1,0.2v11.5v0.3v11.4v0.1v11.6v0.1v11.7
			c0,0.2,0.1,0.4,0.3,0.4l3,1.7l-12.1,7l-17-9.8c-0.1-0.1-0.3-0.1-0.4,0l-10.1,5.8c0,0,0,0-0.1,0l0,0l0,0c0,0-0.1,0-0.1,0.1
			c-0.1,0.1-0.1,0.2-0.1,0.3v0.1v4.6c0,0.2,0.2,0.4,0.3,0.4l11.6,6.7l-12.5,7.2v-3.2c0.1-0.1,0.1-0.3,0-0.5l0,0v-34.7
			c0-0.2-0.2-0.4-0.4-0.4l-39.9-23c-0.1-0.1-0.3-0.1-0.4,0L44.8,110c-0.1,0.1-0.2,0.2-0.2,0.4c0,0.1,0.1,0.3,0.2,0.3
			c0,0.1,0,0.1,0,0.2v34.4c0,0.1,0.1,0.3,0.2,0.3l0,0c-0.1,0.1-0.2,0.2-0.2,0.3v34.4c0,0.2,0.2,0.4,0.4,0.4c0,0.1,0.1,0.2,0.2,0.3
			l39.7,22.9c0.1,0,0.1,0.1,0.2,0.1s0.1,0,0.2-0.1l17.5-10.1c0,0.2,0.1,0.3,0.2,0.4l25.4,14.6l0,0v22.3c0,0.2,0.1,0.4,0.3,0.4
			c0,0,0,0.1,0.1,0.1l26.3,15.2c0.1,0,0.1,0.1,0.2,0.1c0.1,0,0.1,0,0.2-0.1l26-15c0.1,0,0.2-0.1,0.3-0.2
			C182.4,231.5,182.4,231.3,182.3,231.1L182.3,231.1z M219.9,87l4.9,2.8v5.4l-2-1.1c-0.1-0.1-0.1-0.1-0.2-0.1l-2.7-1.6V87z
			 M230.4,92.4l-4.8,2.7v-5.4l4.8-2.7V92.4z M225.1,83.5l4.8,2.8l-4.8,2.8l-4.8-2.8L225.1,83.5z M154.4,117.8L154.4,117.8v-11.7V106
			V94.6v-0.3V83.4l9.8,5.6v11.1v0.5v11.2v0.3v11.4v0.3v11l-9.8-5.6V117.8z M174.6,94.2v0.5v11.2v0.3v11.4v0.3v11.4l-9.6,5.5v-10.9
			v-0.3v-11.4v-0.3v-11.2v-0.5V89l9.6-5.5V94.2z M164.5,77.1l9.7,5.6l-9.6,5.6h-0.1l-9.6-5.6L164.5,77.1z M117.8,135.8l20.9,12v3.7
			l-20.9-12C117.8,139.5,117.8,135.8,117.8,135.8z M148.9,146.3l-9.4,5.4v-3.9l9.4-5.4V146.3z M127.6,129.7l20.9,12.1l-9.4,5.4
			l-20.9-12.1L127.6,129.7z M45.8,111.2l39.3,22.7l0,0V168l-39.3-22.7V111.2z M115.6,116.5v34L86,167.6v-34L115.6,116.5z M86,168.6
			l29.6-17.1v34.2L86,202.9V168.6z M76,93.2l39.2,22.7l-29.5,17h-0.1c-0.1,0-0.2,0.1-0.3,0.2l-39.1-22.6L76,93.2z M45.8,180.3v-34.1
			L85,168.8h0.1v34.1L46,180.4C45.9,180.3,45.9,180.3,45.8,180.3z M181.4,202.2V231l-25.3,14.6v-28.8L181.4,202.2z M155.3,245.8
			L129.6,231v-28.9l25.7,14.8V245.8z M155.6,186.8l25.4,14.7L155.9,216h-0.1c-0.1,0-0.2,0-0.3,0.1l-25.3-14.6L155.6,186.8z"/>
		<path class="st3" d="M515.4,224.6l39-22.6c0.1-0.1,0.2-0.2,0.2-0.4c0-0.1-0.1-0.3-0.2-0.4l-77-45l7.3-4.2c0.1,0,0.2-0.1,0.3-0.2
			c0.2-0.1,0.2-0.3,0.1-0.5l0,0v-32c0.1-0.1,0.1-0.3,0-0.5l0,0V86.4c0-0.2-0.2-0.4-0.4-0.4l-28.5-16.5c-0.1-0.1-0.3-0.1-0.4,0
			L427,86.1c-0.1,0.1-0.2,0.2-0.2,0.4c0,0,0,0,0,0.1c-0.1,0.1-0.1,0.2-0.1,0.3V97l-15.2-8.8V70.8v-0.2V47.5c0-0.2-0.2-0.4-0.3-0.4
			l-20.3-11.7c-0.1-0.1-0.3-0.1-0.4,0l-20.4,11.8c-0.1,0.1-0.2,0.2-0.2,0.4l0,0c0,0.1-0.1,0.1-0.1,0.2v16.4l-65.9-38.1
			c-0.1-0.1-0.3-0.1-0.4,0l-45.1,26l-0.1-0.1l-10.4-6c-0.1-0.1-0.3-0.1-0.4,0L237,52.1c-0.1,0.1-0.2,0.2-0.2,0.3
			c0,0.1-0.1,0.1-0.1,0.2v11.5v0.3v0.4c-0.1,0-0.1,0-0.2,0l-6.6,3.8c-0.1,0.1-0.2,0.2-0.2,0.4s0.1,0.3,0.2,0.4l6.6,3.8
			c0.1,0,0.1,0.1,0.2,0.1l0,0v2.6V76v11.6v0.1v11.4c0,0.2,0.1,0.4,0.3,0.4l10.4,6c0.1,0,0.1,0.1,0.2,0.1l0,0c0,0,0,0,0.1,0
			s0.3-0.1,0.3-0.2l10.1-5.8l0,0c0.2,0,0.4-0.2,0.4-0.4V87.5v-0.3v-1.5l16.1,9.3c0.1,0,0.1,0.1,0.2,0.1s0.3-0.1,0.4-0.2
			c0.1-0.2,0-0.5-0.2-0.6l-16.5-9.5v-9v-0.3V64.3v-0.5V52.9l45.1-26.1L369.8,65v5.5v0.1v0.1v22.9c0,0.1,0,0.1,0,0.2c0,0,0,0.1,0,0.2
			v22.9c0,0.2,0.1,0.3,0.3,0.4c0,0,0,0,0.1,0.1l20.4,11.8c0.1,0,0.1,0.1,0.2,0.1s0.1,0,0.2-0.1l20.2-11.7c0.1,0,0.2-0.1,0.2-0.2
			c0.1-0.1,0.2-0.3,0.1-0.5l0,0V94.1c0.1-0.1,0.1-0.3,0-0.4l0,0v-4.6l15.2,8.8v15.9l-36.1,20.8l-33.2-19.2l6-3.5
			c0.2-0.1,0.3-0.4,0.2-0.6l0,0v-4.5c0,0,0,0,0-0.1v-0.1c0-0.2-0.2-0.3-0.4-0.4l-13.4-7.7c-0.1-0.1-0.3-0.1-0.4,0l-10,5.8
			c-0.1,0-0.3,0.1-0.3,0.2s-0.1,0.1-0.1,0.2v0.1v4.6c0,0.1,0,0.2,0.1,0.2c0,0.1,0.1,0.2,0.2,0.2l13.6,7.8c0.1,0,0.1,0.1,0.2,0.1
			s0.1,0,0.2-0.1l3.4-2l0.1,0.1l33.7,19.5c0.1,0,0.1,0.1,0.2,0.1s0.1,0,0.2-0.1l35.8-20.7v4.2c0,0.1,0,0.1,0,0.2c0,0,0,0.1,0,0.2
			v32.2c0,0.2,0.1,0.4,0.3,0.4l0.1,0.1l28.7,16.6c0.1,0,0.1,0.1,0.2,0.1s0.1,0,0.2-0.1l20.3-11.7l76.8,44.8l-37.9,22v-5.2l0,0l0,0
			l0,0c0-0.2-0.1-0.4-0.3-0.4l-11-6.3c-0.1-0.1-0.3-0.1-0.4,0L485,222.4c-0.1,0.1-0.2,0.2-0.2,0.4c0,0.1,0,0.1,0,0.2v16.9l-43.6-25
			l23.7-13l0,0l6.6,3.8c0.1,0,0.1,0.1,0.2,0.1s0.1,0,0.2-0.1l21.7-12.6l0,0c0.2,0,0.3-0.1,0.4-0.3c0.1-0.1,0.2-0.3,0.1-0.5l0,0
			v-12.2l0,0c0-0.2-0.1-0.3-0.2-0.4l-15.4-8.9c-0.1-0.1-0.3-0.1-0.4,0l-18.7,10.8l-45.2-26.1l4-2.3c0.2-0.1,0.3-0.4,0.2-0.6l0,0
			v-4.5c0,0,0,0,0-0.1v-0.1c0-0.2-0.2-0.3-0.3-0.4l-13.4-7.7c-0.1-0.1-0.3-0.1-0.4,0l-10,5.8c-0.1,0-0.3,0.1-0.3,0.2
			c0,0.1-0.1,0.1-0.1,0.2v0.1v4.6c0,0.1,0,0.2,0.1,0.2c0,0.1,0.1,0.2,0.2,0.2l13.6,7.8c0.1,0,0.1,0.1,0.2,0.1s0.1,0,0.2-0.1l5.4-3.1
			l0,0l45.2,26.1l-2.5,1.4c-0.1,0.1-0.2,0.2-0.2,0.4c0,0.1,0,0.2,0.1,0.2v12.2c0,0.1,0,0.2,0,0.2s0,0,0,0.1l0,0
			c0.1,0.1,0.1,0.1,0.2,0.2l7.9,4.5l-27.9,15.3v-3.1l0,0l0,0l0,0v-0.1c0,0,0-0.1-0.1-0.1l0,0c0,0,0-0.1-0.1-0.1l-15.4-8.9
			c-0.1-0.1-0.3-0.1-0.4,0l-26,15c-0.1,0.1-0.2,0.2-0.2,0.4c0,0.1,0,0.2,0.1,0.2v12l-0.1,0.1c-0.1,0.2,0,0.5,0.2,0.6l8.2,4.7
			l-9.1,5.1c-0.2,0.1-0.3,0.4-0.2,0.6c0.1,0.1,0.2,0.2,0.4,0.2c0.1,0,0.1,0,0.2-0.1l9.6-5.4l6.3,3.6c0.1,0,0.1,0.1,0.2,0.1
			s0.1,0,0.2-0.1l25.7-14.8l0,0c0.2,0,0.3-0.1,0.4-0.3c0.1-0.1,0.2-0.3,0.1-0.5l0,0v-8.2l0,0c0.1,0,0.1,0,0.2-0.1l4-2.2
			c0,0.1,0.1,0.1,0.1,0.2l44.3,25.4v2.3c0,0,0,0-0.1,0.1c-0.1,0.2,0,0.5,0.2,0.6l10.9,6.5c0.1,0,0.1,0.1,0.2,0.1s0.1,0,0.2-0.1
			l18.5-10.7c0.2,0,0.3-0.1,0.4-0.3c0.1-0.1,0.1-0.3,0-0.5l0,0v-10.1c0-0.1,0-0.1,0-0.2L515.4,224.6L515.4,224.6z M248,92.7V82
			l9.6-5.5v10.7L248,92.7z M257.6,75.5L248,81V70.5l9.6-5.5V75.5z M257.6,63.8V64l-9.6,5.5V58.6l9.6-5.5V63.8z M247.2,69.6l-9.8-5.6
			l0,0V53.1l9.8,5.6V69.6z M247.2,70.6v10.5l-9.8-5.6V65L247.2,70.6z M247.2,82.1v10.7l-9.8-5.6V76.5L247.2,82.1z M237.4,88.1
			l9.8,5.6v10.7l-9.8-5.6V88.1z M248,93.7l9.6-5.5v10.7l-9.6,5.5V93.7z M247.6,46.7l9.7,5.6l-9.6,5.6h-0.1l-9.6-5.6L247.6,46.7z
			 M230.8,68.8l5.7-3.3v6.6L230.8,68.8z M410.6,93.5l-19.4,11.2V82.4l19.4-11.2V93.5z M370.6,71.2l19.8,11.4v22.2l-19.8-11.4V71.2z
			 M410.6,70.2l-19.4,11.2V59.3l19.4-11.2V70.2z M390.4,81.6l-19.8-11.4v-5.4v-0.1V48.1l19.8,11.4V81.6z M370.6,94.3l19.8,11.4v22.2
			l-19.8-11.4V94.3z M391.2,105.7l19.4-11.2v22.2l-19.4,11.2V105.7z M390.7,36.1l19.6,11.3L391,58.6c0,0,0,0-0.1,0s-0.2,0-0.2,0.1
			l-19.5-11.2L390.7,36.1z M339.9,105.6l12.7,7.3v3.8l-12.7-7.3V105.6z M353.4,113l9.4-5.4v3.9l-9.4,5.4V113z M349.6,99.5l12.7,7.4
			l-9.4,5.4l-12.7-7.4L349.6,99.5z M484.2,118.7l-27.7,16v-31.6l27.7-16V118.7z M455.7,134.9l-28.2-16.3V87.1l28.2,16.3V134.9z
			 M427.6,119.7l28.2,16.3v31.5l-28.2-16.3V119.7z M456.6,135.8l27.7-16v31.5l-27.7,16V135.8z M455.9,70.4l27.9,16.1l-27.9,16.1
			l-27.8-16.1L455.9,70.4z M394.6,146.8l12.7,7.3v3.8l-12.7-7.3V146.8z M408.1,154.1l9.4-5.4v3.9l-9.4,5.4V154.1z M404.4,140.6
			l12.7,7.4l-9.4,5.4L395,146L404.4,140.6z M456.8,184.6l14.5,8.4v11.5l-14.5-8.4V184.6z M493.3,192.3l-21.2,12.2V193l21.2-12.2
			V192.3z M478.3,171.6l14.6,8.4l-21.2,12.2l-14.6-8.4L478.3,171.6z M410.5,228.5l24.8-14.3v11.5l-24.8,14.4V228.5z M420.4,205
			l14.6,8.4l-24.8,14.3l0,0c-0.1,0-0.1,0-0.2,0l-14.5-8.4L420.4,205z M395.1,231.9v-11.7l14.6,8.4v11.7L395.1,231.9z M514.5,228.3
			l-17.7,10.2v-9.2l17.7-10.2V228.3z M496,238.4l-10.2-5.9h-0.1v-9l10.3,5.9L496,238.4L496,238.4z M485.7,233.4l10.3,5.9v9.8
			l-10.3-5.9V233.4z M496.8,239.5l17.7-10.2v9.4l-17.7,10.2V239.5z M503.8,212.5l10.3,5.9l-17.8,10.3l-10.3-5.9L503.8,212.5z"/>
		<path class="st3" d="M270.5,88.1c0,0.2,0.1,0.4,0.3,0.4l0.1,0.1l27.6,15.9c0.1,0,0.1,0.1,0.2,0.1s0.1,0,0.2-0.1l27.3-15.8
			c0.1,0,0.2-0.1,0.3-0.2c0.2-0.1,0.2-0.3,0.1-0.5l0,0V77.9c0.1-0.1,0.1-0.3,0-0.5l0,0V67c0.1-0.1,0.1-0.3,0-0.5l0,0v-9.7
			c0-0.2-0.2-0.4-0.4-0.4l-27.4-15.8c-0.1-0.1-0.3-0.1-0.4,0l-27.6,15.9c-0.1,0.1-0.2,0.2-0.2,0.4c0,0,0,0,0,0.1
			c-0.1,0.1-0.1,0.2-0.1,0.3V88.1z M325.8,57.6v9l-26.6,15.3v-9L325.8,57.6z M325.8,77.5l-26.6,15.3v-9.9l26.6-15.3V77.5z
			 M298.4,92.9l-27-15.6v-9.9l27,15.6V92.9z M271.4,78.3l27,15.6v9.6l-27-15.6V78.3z M299.2,93.8l26.6-15.3v9.6l-26.6,15.3V93.8z
			 M298.4,82l-27-15.6v-8.9l27,15.6V82z M298.6,41.4l26.7,15.4l-26.4,15.3h-0.1c-0.1,0-0.2,0.1-0.3,0.1l-26.6-15.4L298.6,41.4z"/>
		<path class="st3" d="M460.6,316l-20.9-12.1c-0.1-0.1-0.3-0.1-0.4,0l-13,7.5c-0.1,0.1-0.2,0.2-0.2,0.4c0,0.1,0,0.1,0,0.2v13.3
			c0,0.1,0,0.2,0,0.2s0,0,0,0.1l0,0c0,0.1,0.1,0.1,0.2,0.1l9.8,5.7l-33.6,19.4L350,320.5c2.9-2,36.1-20.9,53.9-31.1l19.3,11.1
			c0.1,0,0.1,0.1,0.2,0.1s0.1,0,0.2-0.1l17.2-10l0.1-0.1c0.1-0.1,0.2-0.2,0.2-0.3v-17.7c0-0.2-0.2-0.4-0.4-0.4l-27.4-15.9
			c-0.1-0.1-0.3-0.1-0.4,0l-17.1,9.9c-0.1,0.1-0.2,0.2-0.2,0.4c0,0.1,0,0.2,0.1,0.2l0,0v17.6c0,0.1,0,0.2,0,0.2s0,0,0,0.1l0,0
			c0.1,0.1,0.1,0.1,0.2,0.2l7.3,4.2c-46,26.2-52.8,30.3-53.8,31.1l-20.1-11.6l35.1-20.3c0.1,0,0.1-0.1,0.2-0.2l3.2,1.9
			c0.1,0,0.1,0.1,0.2,0.1s0.1,0,0.2-0.1l11.7-6.7l0.1-0.1c0.1-0.1,0.2-0.2,0.2-0.3v-12l0,0l0,0v-12l0,0v-12c0-0.2-0.1-0.4-0.3-0.4
			l-18.6-10.8c-0.1-0.1-0.3-0.1-0.4,0l-2.6,1.5v-25c0,0,0,0,0-0.1l0,0c0-0.2-0.1-0.3-0.2-0.4l-10.5-6.1c-0.1-0.1-0.3-0.1-0.4,0
			l-10.5,6.1c-0.1,0.1-0.2,0.2-0.2,0.4c0,0.1,0,0.2,0.1,0.2c-0.1,0.1-0.1,0.2-0.1,0.3v27.7c0,0.2,0.1,0.4,0.3,0.4l10.4,6
			c0.1,0,0.1,0.1,0.2,0.1l0,0c0,0,0,0,0.1,0s0.3-0.1,0.3-0.2l1.4-0.8v8.7c-0.1,0.1-0.1,0.2,0,0.3c0,0,0,0,0,0.1v11.6
			c-0.1,0.1-0.1,0.2,0,0.4v11.9c0,0.1,0,0.2,0,0.2s0,0,0,0.1c0,0,0,0,0,0.1s0.1,0.1,0.2,0.1l14.5,8.4l-35.5,20.6l-10.3-6l8.3-4.8
			c0.1,0,0.2-0.1,0.3-0.2c0.2-0.1,0.2-0.3,0.1-0.5l0,0v-31.1c0-0.2-0.2-0.4-0.4-0.4L299,249.2c-0.1-0.1-0.3-0.1-0.4,0L271,265.1
			c-0.1,0.1-0.2,0.2-0.2,0.4c0,0,0,0,0,0.1c-0.1,0.1-0.1,0.2-0.1,0.3v30.9c0,0.2,0.1,0.4,0.3,0.4l0.1,0.1l27.6,15.9
			c0.1,0,0.1,0.1,0.2,0.1s0.1,0,0.2-0.1l18.2-10.5l10.3,6l-41.2,23.8l-67.3-38.9l5.5-3.2c0.1,0,0.2-0.1,0.2-0.2
			c0.1-0.1,0.2-0.3,0.1-0.5v-9.4l20.8-12l8,4.6c0.1,0,0.1,0.1,0.2,0.1s0.1,0,0.2-0.1l15.2-8.8c0.1,0,0.2-0.1,0.3-0.2
			c0.2-0.1,0.2-0.4,0.1-0.5l0,0v-4.3c0.1-0.1,0.1-0.3,0-0.4l0,0v-4.3c0.1-0.1,0.1-0.3,0-0.4l0,0v-4.5l0,0c0.1-0.1,0.1-0.3,0-0.4l0,0
			v-4.4c0.1-0.1,0.1-0.2,0.1-0.3c0-0.2-0.1-0.3-0.2-0.4l-13.6-7.8c-0.1-0.1-0.3-0.1-0.4,0l-15.3,8.8c-0.1,0-0.3,0.1-0.3,0.2
			c0,0.1-0.1,0.1-0.1,0.2v0.1v4.6v0.1v0.1v4.7l0,0v4.7l0,0l0,0v4.8c0,0.1,0,0.2,0.1,0.2c0,0.1,0.1,0.2,0.2,0.2l4.7,2.7l-20,11.5
			v-8.4c0.1-0.1,0.1-0.3,0-0.4v-0.1v-19.1c0-0.2-0.1-0.4-0.3-0.4l-17-9.8c-0.1-0.1-0.3-0.1-0.4,0l-17.1,9.9
			c-0.1,0.1-0.2,0.2-0.2,0.4l0,0c0,0.1-0.1,0.1-0.1,0.2v19.2l0,0v19.2c0,0.2,0.1,0.3,0.3,0.4l0,0l17.1,9.9c0.1,0,0.1,0.1,0.2,0.1
			c0.1,0,0.1,0,0.2-0.1l10.6-6.1l67.9,39.3c0.1,0,0.1,0.1,0.2,0.1s0.1,0,0.2-0.1l41.8-24.1l0.1,0.1c0.1,0,0.1,0.1,0.2,0.1l73.6,42.5
			c0.1,0,0.1,0.1,0.2,0.1s0.1,0,0.2-0.1l33.9-19.6c0.1-0.1,0.2-0.1,0.2-0.2l10.2,5.9c0.1,0,0.1,0.1,0.2,0.1s0.1,0,0.2-0.1l13.1-7.5
			c0,0,0.1,0,0.1-0.1c0.1-0.1,0.2-0.2,0.2-0.3v-13.4C460.9,316.2,460.8,316,460.6,316z M396.4,267.1l26.6,15.3v16.9l-26.6-15.2
			V267.1z M440.4,290l-16.6,9.6v-16.8l16.6-9.6V290z M413,257l26.8,15.5l-16.2,9.4c-0.1,0-0.1-0.1-0.2-0.1l-26.7-15.4L413,257z
			 M367.6,265.7v10.9l-17.7-10.2v-10.9L367.6,265.7z M379.3,270.5l-10.9,6.3v-11l10.9-6.3V270.5z M368.4,277.8l10.9-6.3v11.1
			l-10.9,6.3V277.8z M379.3,258.4l-10.9,6.3v-11l10.9-6.3V258.4z M367.6,264.6l-17.7-10.2v-11l17.7,10.2V264.6z M349.9,267.5
			l17.7,10.2v11.1l-17.7-10.2V267.5z M361,236.5l17.9,10.3l-10.7,6.2c0,0,0,0-0.1,0l-17.8-10.3L361,236.5z M347.3,206.4l9.7,5.6
			l-9.7,5.6l-9.7-5.6L347.3,206.4z M337.1,212.7l9.8,5.7v27.2l-9.8-5.7V212.7z M347.8,245.5v-27.2l9.6-5.6v24.9l-8.2,4.7
			c-0.1,0.1-0.2,0.2-0.2,0.4c0,0.1,0,0.1,0,0.2v1.9L347.8,245.5z M325.9,266.2v30.2l-26.5,15.3v-30.2L325.9,266.2z M298.6,312
			l-27-15.6v-30.2l27,15.6V312z M298.8,250.1l26.7,15.4l-26.4,15.2H299c-0.1,0-0.2,0.1-0.3,0.1l-26.6-15.4L298.8,250.1z
			 M253.5,258.1v4l-12.7-7.3v-4L253.5,258.1z M268.9,258.6l-14.6,8.4v-3.8l14.6-8.4V258.6z M268.9,253.8l-14.6,8.4v-4l14.6-8.4
			V253.8z M240.8,255.8l12.7,7.3v3.8l-12.7-7.3V255.8z M254.3,267.9l14.6-8.4v3.8l-14.6,8.4L254.3,267.9L254.3,267.9z M268.9,248.9
			l-14.6,8.4v-3.9l14.6-8.4V248.9z M253.5,257.2l-12.7-7.3v-3.8l12.7,7.3V257.2z M240.8,260.5l12.7,7.3v3.8l-12.7-7.3V260.5z
			 M255.8,236.9l12.7,7.4l-14.6,8.5l-12.7-7.4L255.8,236.9z M224.1,280L224.1,280v9.5l-16.1,9.3v-18.1l16.1-9.3V280z M207.1,280.8
			v18.1l-16.4-9.5v-18.1L207.1,280.8z M224.1,270.1l-16.1,9.3v-18.2l16.1-9.3V270.1z M207.1,279.5l-16.4-9.5v-18.2l16.4,9.5V279.5z
			 M207.4,241.8l16.3,9.4l-16.1,9.3l0,0c-0.1,0-0.1,0-0.2,0.1l-16.2-9.3L207.4,241.8z M427,325.1v-12.6l19.9,11.5v12.6L427,325.1z
			 M447.7,324.2l12.3-7.1v12.5l-12.3,7.1V324.2z M439.5,304.8l20.1,11.6l-12.1,7h-0.1l-20-11.6L439.5,304.8z"/>
	</g>
	<g transform="matrix(1.17712,0,0,1.133,98.2498,-322.766)">
		<g transform="matrix(1,0,0,1,0,0.1818)">
			<g>
				<g>
					<g class="st4">
						<g>
							<path class="st2" d="M209.7,413.3l-42.2-24.4c-11.7-6.7-29.3-7.5-39.4-1.6L80.2,415c-4.6,2.6-6.8,6.2-6.8,9.9
								c0,4.5,3.3,9.2,9.6,12.9l42.2,24.4c11.7,6.7,29.3,7.5,39.4,1.6l47.9-27.7C222.6,430.2,221.3,420,209.7,413.3z M192.1,430.3
								l-5.7,3.3l-27.9,16.1c-7.1,4.1-19.4,3.6-27.6-1.1l-29.6-17.1c-8.2-4.7-9.1-11.9-2-15.9l33.6-19.4c7.1-4.1,19.4-3.6,27.6,1.1
								l29.6,17.1C198.3,419.1,199.2,426.2,192.1,430.3z"/>
						</g>
					</g>
					<g>
						<path class="st2" d="M147.5,468c-7.8,0-16.1-1.9-22.5-5.6L82.8,438c-6.3-3.6-9.8-8.4-9.8-13.2c0-4,2.5-7.6,7-10.2l47.9-27.7
							c10.2-5.9,28-5.1,39.8,1.6l42.2,24.4c6.2,3.6,9.8,8.4,9.8,13.2c0,4-2.5,7.6-7,10.2L164.8,464C160.2,466.7,154,468,147.5,468z
							 M145.1,383.7c-6.4,0-12.4,1.3-16.9,3.9l-47.9,27.7c-4.3,2.5-6.6,5.9-6.6,9.5c0,4.5,3.4,9.1,9.5,12.6l42.2,24.4
							c11.6,6.7,29.1,7.4,39.1,1.6l47.9-27.7c4.3-2.5,6.6-5.9,6.6-9.6c0-4.5-3.4-9.1-9.5-12.5l0,0l-42.2-24.4
							C160.9,385.6,152.8,383.7,145.1,383.7z M146.6,452.8c-5.5,0-11.3-1.3-15.8-3.9l-29.6-17.1c-4.4-2.5-6.9-6-6.9-9.3
							c0-2.8,1.8-5.4,5-7.2l33.6-19.4c7.2-4.1,19.7-3.6,28,1.1l29.6,17.1c4.4,2.5,6.9,6,6.9,9.3c0,2.8-1.8,5.4-5,7.2L158.7,450
							C155.5,451.9,151.1,452.8,146.6,452.8z M144.9,393.7c-4.4,0-8.7,0.9-11.8,2.7l-33.6,19.4c-3,1.7-4.6,4.1-4.6,6.6
							c0,3.1,2.4,6.3,6.6,8.7l29.6,17.1c8.1,4.7,20.3,5.2,27.3,1.1l33.6-19.4c3-1.7,4.6-4.1,4.6-6.6c0-3.1-2.4-6.3-6.6-8.7
							l-29.6-17.1C156,395.1,150.3,393.7,144.9,393.7z M192.1,430.3L192.1,430.3L192.1,430.3z"/>
					</g>
				</g>
			</g>
		</g>
		<g transform="matrix(0.866025,-0.5,0.866025,0.5,-507.555,540.965)">
			<g class="st5">
				<path class="st2" d="M510.1,329.2L510.1,329.2c-0.1-0.2,0-0.4,0.2-0.6c5-4.5,7.8-11.3,7.8-18.7v-48.8c0-13.3-9.4-24.2-20.9-24.2
					l-55.3,0c-5.6,0-10.9,2.6-14.7,7.2c-0.2,0.2-0.5,0.3-0.6,0.3c-0.2-0.1-0.1-0.3,0.1-0.5c4.1-4.9,9.8-7.8,15.7-7.8l55.3,0
					c11.8,0,21.3,11,21.3,24.6v48.8c0,7.7-3,14.8-8.3,19.6C510.4,329.2,510.2,329.3,510.1,329.2z"/>
			</g>
		</g>
		<g>
			<g class="st6">
				<path class="st2" d="M73.4,424.8l0.1,24.7c0.6,4,3.8,8.1,9.5,11.4l42.2,24.4c11.7,6.7,29.3,7.5,39.4,1.6l47.9-27.7
					c4.3-2.5,6.5-5.7,6.8-9.1v-21.8v-2.8c0.3,4-1.9,7.8-6.8,10.7l-47.9,27.7c-10.1,5.8-27.8,5.1-39.4-1.6L83,437.8
					c-6.8-3.9-10-9-9.6-13.7V424.8z"/>
			</g>
			<g>
				<path class="st2" d="M147.5,491.2c-7.8,0-16.1-1.9-22.5-5.6l-42.2-24.4c-5.6-3.2-9-7.4-9.7-11.7L73,425.9
					c-0.1-0.6-0.1-1.2,0-1.8c0-0.2,0.2-0.3,0.4-0.3c0.2,0,0.3,0.2,0.3,0.4v1.8c0.4,4.2,3.8,8.4,9.4,11.6l42.2,24.4
					c11.5,6.7,29.1,7.4,39.1,1.6l47.9-27.7c4-2.3,6.3-5.4,6.6-8.8v-1.5c0-0.2,0.2-0.4,0.3-0.4c0.2,0,0.4,0.1,0.4,0.3
					c0,0.5,0,1.1,0,1.6v23c-0.3,3.7-2.7,7-7,9.4l-47.9,27.7C160.2,489.9,154,491.2,147.5,491.2z M73.7,428.8l0.1,20.7
					c0.6,4,4,8,9.3,11.1l42.2,24.4c11.6,6.7,29.1,7.4,39.1,1.6l47.9-27.7c4-2.3,6.3-5.4,6.6-8.8V430c-1,2.5-3.2,4.7-6.3,6.5
					l-47.9,27.7c-10.2,5.9-28,5.1-39.8-1.6l-42.2-24.4C78.2,435.5,75.1,432.2,73.7,428.8z"/>
			</g>
		</g>
		<g transform="matrix(0.606812,-0.350343,0.606812,0.350343,-227.836,541.73)">
			<g>
				<path class="st2" d="M435.1,182c-4.5-4.5-7.4-11.3-7.4-18.8v-48.8c0-7.4,2.8-14.4,7.6-19.2c3.9-3.9,8.9-6.1,14-6.1h56.1
					c11.6,0,21,11.1,21,24.7v48.8c0,7.4-2.8,14.4-7.6,19.2c-3.9,3.9-8.9,6.1-14,6.1h-56.1C443.6,187.9,438.8,185.7,435.1,182z
					 M518.1,96.1c-3.6-3.6-8.2-5.7-13.2-5.7h-56.1c-4.7,0-9.2,1.9-12.8,5.5c-4.5,4.5-7,11-7,18v48.8c0,13.3,9.2,24.1,20.4,24.1h56.1
					c4.7,0,9.2-1.9,12.8-5.5c4.5-4.5,7-11,7-18v-48.8C525.3,107.1,522.5,100.5,518.1,96.1z"/>
			</g>
		</g>
		<g transform="matrix(0.606812,-0.350343,0.606812,0.350343,-227.905,541.825)">
			<g>
				<path class="st2" d="M435.2,182c-4.5-4.5-7.4-11.3-7.4-18.8v-48.8c0-7.4,2.8-14.4,7.6-19.2c3.9-3.9,8.9-6.1,14-6.1h56.1
					c11.6,0,21,11.1,21,24.7v48.8c0,7.4-2.8,14.4-7.6,19.2c-3.9,3.9-8.9,6.1-14,6.1h-56.1C443.6,187.9,438.9,185.7,435.2,182z
					 M518.1,96c-3.6-3.6-8.2-5.7-13.2-5.7h-56.1c-4.7,0-9.2,1.9-12.8,5.5c-4.5,4.5-7,11-7,18v48.8c0,13.3,9.2,24.1,20.4,24.1h56.1
					c4.7,0,9.2-1.9,12.8-5.5c4.5-4.5,7-11,7-18v-48.8C525.3,107.1,522.5,100.5,518.1,96z"/>
			</g>
		</g>
		<g>
			<path class="st2" d="M146.6,476.8c-5.5,0-11.3-1.3-15.8-3.9l-29.6-17.1c-4.4-2.5-6.9-6-6.9-9.3c0-2.8,1.8-5.4,5-7.2l7.9-4.6
				c0.2-0.1,0.4,0,0.5,0.1c0.1,0.2,0,0.4-0.1,0.5l-7.9,4.6c-3,1.7-4.6,4.1-4.6,6.6c0,3.1,2.4,6.3,6.6,8.7l29.6,17.1
				c8.1,4.7,20.3,5.2,27.3,1.1l33.6-19.4c3-1.7,4.6-4.1,4.6-6.6c0-3.1-2.4-6.3-6.6-8.7l-6.1-3.5c-0.2-0.1-0.2-0.3-0.1-0.5
				c0.1-0.2,0.3-0.2,0.5-0.1l6.1,3.5c4.4,2.5,6.9,6,6.9,9.3c0,2.8-1.8,5.4-5,7.2L158.7,474C155.5,475.8,151.1,476.8,146.6,476.8z"/>
		</g>
		<g>
			<g class="st7">
				<path class="st2" d="M107.8,434.6l25.1-14.5c7.1-4.1,19.4-3.6,27.6,1.1l23.5,13.5l0.6,0.1l1-0.6l6.7-3.9
					c7.1-4.1,6.2-11.2-2-15.9l-29.6-17.1c-8.2-4.7-20.5-5.2-27.6-1.1l-33.6,19.4c-7.1,4.1-6.2,11.2,2,15.9l5.3,3L107.8,434.6z"/>
			</g>
			<g>
				<path class="st2" d="M184.6,435.2L184.6,435.2l-0.6-0.1h-0.1l-23.5-13.5c-8.1-4.7-20.3-5.2-27.3-1.1L108,434.9
					c-0.1,0-0.1,0.1-0.2,0h-1c-0.1,0-0.1,0-0.2,0l-5.3-3c-4.4-2.5-6.9-6-6.9-9.3c0-2.8,1.8-5.4,5-7.2L133,396
					c7.2-4.1,19.7-3.6,28,1.1l29.6,17.1c4.4,2.5,6.9,6,6.9,9.3c0,2.8-1.8,5.4-5,7.2l-7.7,4.4C184.7,435.2,184.7,435.2,184.6,435.2z
					 M184.1,434.4l0.4,0.1l7.6-4.4c3-1.7,4.6-4.1,4.6-6.6c0-3.1-2.4-6.3-6.6-8.7l-29.6-17.1c-8.1-4.7-20.3-5.2-27.3-1.1L99.6,416
					c-3,1.7-4.6,4.1-4.6,6.6c0,3.1,2.4,6.3,6.6,8.7l5.2,3h0.8l25.1-14.5c7.2-4.1,19.7-3.6,28,1.1L184.1,434.4z"/>
			</g>
		</g>
		<g>
			<path class="st2" d="M146.8,452.9c-5.5,0-11.3-1.3-15.8-3.9l-24.3-14c-0.2-0.1-0.2-0.3-0.1-0.5s0.3-0.2,0.5-0.1l24.3,14
				c8.1,4.7,20.3,5.2,27.3,1.1l25.9-14.9c0.2-0.1,0.4,0,0.5,0.1c0.1,0.2,0,0.4-0.1,0.5l-25.9,14.9
				C155.7,452,151.3,452.9,146.8,452.9z"/>
		</g>
	</g>
</g>
</svg>
