<?xml version="1.0" encoding="utf-8"?><svg xmlns="http://www.w3.org/2000/svg" xmlns:xlink="http://www.w3.org/1999/xlink"><symbol viewBox="0 0 608 323" id="arrow" xmlns="http://www.w3.org/2000/svg"><g stroke-width="3" fill="none" fill-rule="evenodd"><path class="apath" stroke="#1babbe" stroke-width="2" stroke-linejoin="round" stroke-miterlimit="10" d="M414.716 0h20.345c51.83 0 91.976 12.917 120.249 40.071 35.123 33.963 52.657 73.352 52.602 118.169-3.26 52.953-21.62 93.006-55.081 120.156-33.461 27.15-79.5 39.352-138.115 36.604H0"/><path class="apath-default" stroke="#fff" stroke-width="2" stroke-linejoin="round" stroke-miterlimit="10" d="M414.716 0h20.345c51.83 0 91.976 12.917 120.249 40.071 35.123 33.963 52.657 73.352 52.602 118.169-3.26 52.953-21.62 93.006-55.081 120.156-33.461 27.15-79.5 39.352-138.115 36.604H0"/><path class="adashed" stroke="#181818" d="M414.716 0h20.345c51.83 0 91.976 12.917 120.249 40.071 35.123 33.963 52.657 73.352 52.602 118.169-3.26 52.953-21.62 93.006-55.081 120.156-33.461 27.15-79.5 39.352-138.115 36.604H0"/><path class="apolyline" stroke="#1babbe" d="M6.657 322.071L0 315l6.657-7.071"/><path class="apolyline-default" stroke="#fff" d="M6.657 322.071L0 315l6.657-7.071"/></g></symbol><symbol fill="none" viewBox="0 0 172 214" id="fail" xmlns="http://www.w3.org/2000/svg"><g clip-path="url(#ba)"><path d="M30.3 86.7c9.72 0 17.6-7.88 17.6-17.6 0-9.72-7.88-17.6-17.6-17.6-9.72 0-17.6 7.88-17.6 17.6 0 9.72 7.88 17.6 17.6 17.6z" stroke="#fff" stroke-miterlimit="10"/><path d="M19.2 120c9.72 0 17.6-7.88 17.6-17.6 0-9.72-7.88-17.6-17.6-17.6-9.72 0-17.6 7.88-17.6 17.6 0 9.72 7.88 17.6 17.6 17.6z" stroke="#fff" stroke-miterlimit="10"/><path d="M20.9 155.1c9.72 0 17.6-7.88 17.6-17.6 0-9.72-7.88-17.6-17.6-17.6-9.72 0-17.6 7.88-17.6 17.6 0 9.72 7.88 17.6 17.6 17.6z" stroke="#fff" stroke-miterlimit="10"/><path d="M35.2 187.8c9.72 0 17.6-7.88 17.6-17.6 0-9.72-7.88-17.6-17.6-17.6-9.72 0-17.6 7.88-17.6 17.6 0 9.72 7.88 17.6 17.6 17.6z" stroke="#fff" stroke-miterlimit="10"/><path d="M60.2 213.4c9.775 0 17.7-7.925 17.7-17.7 0-9.775-7.925-17.7-17.7-17.7-9.775 0-17.7 7.925-17.7 17.7 0 9.775 7.925 17.7 17.7 17.7zM52.5 59.2c9.72 0 17.6-7.88 17.6-17.6 0-9.72-7.88-17.6-17.6-17.6-9.72 0-17.6 7.88-17.6 17.6 0 9.72 7.88 17.6 17.6 17.6z" stroke="#fff" stroke-miterlimit="10"/><path d="M83.4 41.4c9.72 0 17.6-7.88 17.6-17.6 0-9.72-7.88-17.6-17.6-17.6-9.72 0-17.6 7.88-17.6 17.6 0 9.72 7.88 17.6 17.6 17.6z" stroke="#fff" stroke-miterlimit="10"/><path d="M118.5 35.9c9.72 0 17.6-7.88 17.6-17.6 0-9.72-7.88-17.6-17.6-17.6-9.72 0-17.6 7.88-17.6 17.6 0 9.72 7.88 17.6 17.6 17.6z" fill="#356E7A"/><path d="M153 43.3c9.72 0 17.6-7.88 17.6-17.6 0-9.72-7.88-17.6-17.6-17.6-9.72 0-17.6 7.88-17.6 17.6 0 9.72 7.88 17.6 17.6 17.6z" fill="#356E7A"/><path d="M158.2 8.9c7.1 2.2 12.3 8.9 12.3 16.8 0 9.7-7.9 17.6-17.6 17.6-2.9 0-5.7-.7-8.1-2" stroke="#fff" stroke-miterlimit="10"/><path d="M49.4 209.8C19.8 189 .5 154.6.5 115.6.5 52 52 .5 115.6.5c15.7 0 31.5 3.8 45.1 9.4" stroke="#fff" stroke-miterlimit="10"/><path d="M70.8 181.6c-1.9-1.3-4.5-3.6-6.2-5.1-17.4-14.6-28.5-36.5-28.5-60.9 0-43.9 35.6-79.1 79.4-79.4 10.7-.1 19.2 1.1 31.3 6" stroke="#fff" stroke-miterlimit="10"/></g><defs><clipPath id="ba"><path fill="#fff" d="M0 0h171.1v213.9H0z"/></clipPath></defs></symbol><symbol fill="none" viewBox="0 0 142 128" id="model" xmlns="http://www.w3.org/2000/svg"><path d="M98.596 43.853l27.501-27.549m-29.56 62.595l25.257 25.113M102.15 63.344h19.644M62.3 52.662L18.335 22.489m57.062 18.928l-3.368-17.616M66.23 82.272l-29.187 29.236" stroke="#fff" stroke-miterlimit="10"/><path d="M131.149 21.74c5.993 0 10.851-4.867 10.851-10.87C142 4.867 137.142 0 131.149 0c-5.993 0-10.851 4.867-10.851 10.87 0 6.003 4.858 10.87 10.851 10.87zm-2.994 52.474c5.993 0 10.852-4.867 10.852-10.87 0-6.003-4.859-10.87-10.852-10.87-5.992 0-10.851 4.867-10.851 10.87 0 6.003 4.859 10.87 10.851 10.87zm-2.058 44.416c5.993 0 10.852-4.867 10.852-10.87 0-6.003-4.859-10.87-10.852-10.87-5.992 0-10.851 4.867-10.851 10.87 0 6.003 4.859 10.87 10.851 10.87zm-96.724 9.183c5.993 0 10.851-4.867 10.851-10.87 0-6.003-4.858-10.87-10.851-10.87-5.993 0-10.851 4.867-10.851 10.87 0 6.003 4.858 10.87 10.85 10.87zM10.851 27.174c5.993 0 10.851-4.866 10.851-10.87 0-6.003-4.858-10.87-10.85-10.87C4.857 5.435 0 10.302 0 16.305c0 6.004 4.858 10.87 10.851 10.87zM70.906 25.3c5.993 0 10.852-4.866 10.852-10.87 0-6.003-4.859-10.87-10.852-10.87s-10.85 4.867-10.85 10.87c0 6.004 4.858 10.87 10.85 10.87zm9.168 11.057c-14.78 0-26.754 11.994-26.754 26.8 0 14.805 11.974 26.799 26.754 26.799 14.78 0 26.753-11.994 26.753-26.8.187-14.617-11.973-26.799-26.753-26.799zm-3.93 36.92V69.34h3.93l-3.93-9.933-5.425 13.869h-4.49l7.858-19.866h3.929l8.045 19.866h-9.916zm17.774 0H89.99V53.41h3.928v19.866z" fill="#356E7A"/><path d="M80.074 34.483c-15.903 0-28.625 12.931-28.625 28.674 0 15.742 12.91 28.673 28.625 28.673s28.624-12.931 28.624-28.673c0-15.743-12.722-28.674-28.624-28.674zm0 56.598c-15.341 0-27.69-12.37-27.69-27.737 0-15.367 12.349-27.736 27.69-27.736 15.341 0 27.689 12.369 27.689 27.736.187 15.368-12.348 27.736-27.69 27.736z" fill="#356E7A"/><path d="M80.074 35.42c-15.341 0-27.69 12.37-27.69 27.737 0 15.367 12.349 27.736 27.69 27.736 15.341 0 27.876-12.181 27.876-27.549 0-15.367-12.535-27.924-27.876-27.924zm0 54.723c-14.78 0-26.754-11.994-26.754-26.799s11.974-26.8 26.754-26.8c14.78 0 26.753 11.995 26.753 26.8.187 14.805-11.973 26.8-26.753 26.8z" fill="#356E7A"/></symbol><symbol fill="none" viewBox="0 0 425 305" id="one" xmlns="http://www.w3.org/2000/svg"><path fill-rule="evenodd" clip-rule="evenodd" d="M126.828 0v.841c19.738 0 37.377 3.787 52.915 11.78 15.539 7.993 28.977 18.51 39.896 31.972s19.319 29.448 25.198 47.959c5.879 18.51 8.819 38.703 8.819 60.579 0 21.876-2.94 42.069-8.819 60.579-5.879 18.511-14.279 34.497-25.198 47.959-10.919 13.462-24.357 23.979-39.896 31.972C164.205 301.214 146.566 305 126.828 305s-37.376-3.786-52.915-11.359c-15.538-7.993-28.977-18.931-39.896-32.393-10.92-13.462-19.318-29.448-25.198-47.958C2.94 194.779 0 174.586 0 152.71c0-21.876 2.94-42.069 8.82-60.579 5.879-18.51 14.278-34.496 25.197-47.959 10.919-13.462 24.357-24.4 39.896-32.393C89.452 3.786 107.09 0 126.828 0zm0 67.731c-19.318 0-33.597 7.573-42.416 23.138-8.82 15.565-13.439 36.179-13.439 62.262s4.62 46.697 13.44 62.262c8.818 15.566 23.097 23.138 42.415 23.138 18.898 0 33.177-7.993 42.416-23.559 9.239-15.565 13.859-36.179 13.859-61.841s-4.62-46.276-13.859-61.841c-9.239-15.566-23.518-23.559-42.416-23.559zM425 5.89h-47.456l-95.751 95.917 43.256 41.227 11.759-11.779c2.94-2.944 5.459-5.889 7.979-8.834h.001c2.519-2.945 4.619-5.469 6.299-7.993 1.68-2.525 3.36-4.207 4.62-5.469l1.679-2.104h.42v5.469c0 3.366 0 7.993-.42 13.462-.42 5.469-.84 11.359-.84 18.09v156.496h68.034L425 5.89z" fill="#fff"/></symbol><symbol fill="none" viewBox="0 0 184 185" id="partial" xmlns="http://www.w3.org/2000/svg"><g clip-path="url(#ea)" stroke="#fff"><path d="M183.721 110.591v28.489s-28.47 14.434-28.079 14.191c.39-.243 0-28.387 0-28.387l28.079-14.293zM.28 79.246v28.489s28.47 14.439 28.073 14.197c-.397-.243 0-28.388 0-28.388L.279 79.246zm0 31.345v28.489s28.47 14.439 28.073 14.197c-.397-.243 0-28.393 0-28.393L.279 110.591zm183.441-31.345v28.489s-28.47 14.439-28.079 14.197c.39-.243 0-28.393 0-28.393l28.079-14.293zM.28 47.822v28.483s28.47 14.44 28.073 14.197c-.397-.243 0-28.387 0-28.387L.279 47.822zm1.774-2.212l28.09 14.224 27.717-14.01c-.413.158-28.09-14.213-28.09-14.213L2.054 45.608zM33.02 29.95l28.107 14.214 27.716-14.016c-.424.175-28.107-14.207-28.107-14.207L33.02 29.95zm30.97-15.652l28.12 14.208 27.716-14.016C119.384 14.676 91.707.282 91.707.282L63.99 14.298z" stroke-linecap="round" stroke-linejoin="round"/><path d="M33.282 61.398l28.124 14.207 27.716-14.01c-.424.175-28.101-14.207-28.101-14.207l-27.739 14.01zm30.965-15.676l28.108 14.214L120.07 45.92c-.424.175-28.107-14.208-28.107-14.208l-27.717 14.01z" fill="#1A6F7C" stroke-miterlimit="10"/><path d="M95.218 30.086l28.102 14.208 27.716-14.016c-.424.175-28.101-14.207-28.101-14.207L95.218 30.086zM63.99 76.926l28.12 14.208 27.716-14.016c-.424.175-28.101-14.208-28.101-14.208L63.99 76.926z" stroke-linecap="round" stroke-linejoin="round"/><path d="M94.956 61.268l28.107 14.207 27.716-14.01c-.424.17-28.107-14.213-28.107-14.213L94.956 61.268z" fill="#1A6F7C" stroke-miterlimit="10"/><path d="M125.927 45.61l28.101 14.224 27.717-14.01c-.424.175-28.102-14.208-28.102-14.208L125.927 45.61zm57.794 2.206v28.49s-28.47 14.439-28.079 14.196c.39-.243 0-28.387 0-28.387l28.079-14.299z" stroke-linecap="round" stroke-linejoin="round"/><path d="M31.384 126.318v28.488s28.47 14.434 28.074 14.191c-.397-.243 0-28.387 0-28.387l-28.074-14.292z" fill="#1A6F7C" stroke-miterlimit="10"/><path d="M152.616 126.318v28.483s-28.47 14.439-28.074 14.196c.397-.243 0-28.387 0-28.387l28.074-14.292zM31.384 94.972v28.489s28.47 14.439 28.074 14.197c-.397-.243 0-28.388 0-28.388L31.384 94.972z" stroke-linecap="round" stroke-linejoin="round"/><path d="M152.616 94.972v28.489s-28.47 14.434-28.074 14.191c.397-.243 0-28.387 0-28.387l28.074-14.293z" fill="#1A6F7C" stroke-miterlimit="10"/><path d="M31.384 63.543v28.466s28.47 14.439 28.074 14.196c-.397-.242 0-28.387 0-28.387L31.384 63.543zm121.232 0v28.466s-28.47 14.439-28.074 14.191c.397-.249 0-28.388 0-28.388l28.074-14.27zm-90.149 78.489v28.489s28.47 14.434 28.073 14.191c-.396-.243 0-28.387 0-28.387l-28.073-14.293zm59.066 0v28.484s-28.47 14.439-28.073 14.196c.396-.243 0-28.387 0-28.387l28.073-14.293zm-59.066-31.345v28.489s28.47 14.439 28.073 14.197c-.396-.243 0-28.388 0-28.388l-28.073-14.298zm59.066 0v28.489s-28.47 14.434-28.073 14.191c.396-.243 0-28.387 0-28.387l28.073-14.293zm-59.066-31.43v28.489s28.47 14.44 28.073 14.197c-.396-.243 0-28.388 0-28.388L62.467 79.257zm59.066 0v28.489s-28.47 14.434-28.073 14.191c.396-.243 0-28.387 0-28.387l28.073-14.293z" stroke-linecap="round" stroke-linejoin="round"/></g><defs><clipPath id="ea"><path fill="#fff" d="M0 0h184v185H0z"/></clipPath></defs></symbol><symbol fill="none" viewBox="0 0 222 117" id="spark" xmlns="http://www.w3.org/2000/svg"><g clip-path="url(#fa)" stroke-miterlimit="10" stroke-linecap="round"><path d="M110.8 57.3L205.3.5m-94.5 56.8l97.4-51.8m-97.4 51.8l100-46.6m-100 46.6L213.1 16M110.8 57.3l104.3-35.9M110.8 57.3l106-30.4m-106 30.4l107.5-24.8M110.8 57.3l108.6-19.1M110.8 57.3l109.5-13.4M110.8 57.3l110-7.7m-110 7.7l110.3-1.9m-110.3 1.9L221 61.2" stroke="#fff"/><path d="M110.8 57.3l55.1 7" stroke="#356E7A"/><path d="M111.1 57.3l52.4.1m-52.7-.2l56.8-5.4M111 57.1L172.2 44m-61.1 13.1l68.5-22.2m-68.5 22.2L184 25m-72.9 32.2l77.3-44.4" stroke="#fff"/><path d="M110.8 57.3l53.1 16.5m-53.1-16.5l49.4 25.5m-49.4-25.5L155 91m-44.2-33.7l37.7 40.8m-37.7-40.8l31.2 47.9m-31.2-47.9l25.5 54.8m-25.5-54.8l10.3 56.5m-10.3-56.5l15 59.1m-15-59.1l20 58.6M111 57l-21 60m20.8-59.7l1.8 38.4m-1.8-38.4l4.9 45.6" stroke="#356E7A"/><path d="M110.8 57.3L16.2.5m94.6 56.8L13.4 5.5m97.4 51.8l-100-46.6m100 46.6L8.5 16m102.3 41.3L6.5 21.4m104.3 35.9L4.8 26.9m106 30.4L3.3 32.5m107.5 24.8L2.2 38.2m108.6 19.1L1.3 43.9m109.5 13.4L.8 49.6m110 7.7L.5 55.4m110.3 1.9L.6 61.2" stroke="#fff"/><path d="M110.8 57.3l-55.1 7" stroke="#356E7A"/><path d="M110.5 57.3l-52.5.1m52.8-.2l-56.9-5.4m56.6 5.3L49.4 44m61.1 13.1L42 34.9m68.5 22.2L37.6 25m72.9 32.2L33.2 12.8" stroke="#fff"/><path d="M110.8 57.3L57.7 73.8m53.1-16.5L61.4 82.8m49.4-25.5L66.6 91m44.2-33.7L73.1 98.1m37.7-40.8l-31.2 47.9m31.2-47.9l-25.5 54.8m25.5-54.8l-10.3 56.5m10.3-56.5l-15 59.1m15-59.1L109 95.7m1.8-38.4l-4.9 45.6" stroke="#356E7A"/></g><defs><clipPath id="fa"><path fill="#fff" d="M0 0h221.6v116.9H0z"/></clipPath></defs></symbol><symbol fill="none" viewBox="0 0 500 305" id="three" xmlns="http://www.w3.org/2000/svg"><path fill-rule="evenodd" clip-rule="evenodd" d="M126.891 0v.84c19.748 0 37.395 3.775 52.941 11.746s28.992 18.46 39.916 31.884c10.924 13.425 19.328 29.368 25.21 47.827 5.882 18.46 8.824 38.597 8.824 60.413 0 21.815-2.942 41.953-8.824 60.412-5.882 18.46-14.286 34.402-25.21 47.827-10.924 13.425-24.37 23.913-39.916 31.885-15.546 7.551-33.193 11.327-52.941 11.327-19.748 0-37.395-3.776-52.941-11.327-15.547-7.972-28.992-18.879-39.916-32.304-10.925-13.425-19.328-29.368-25.21-47.827C2.94 194.243 0 174.106 0 152.29c0-21.815 2.941-41.953 8.824-60.412 5.882-18.46 14.285-34.402 25.21-47.827 10.924-13.425 24.37-24.333 39.916-32.304C89.496 3.776 107.143 0 126.89 0zm0 67.545c-19.328 0-33.614 7.551-42.437 23.074-8.824 15.523-13.446 36.08-13.446 62.091 0 26.011 4.622 46.568 13.446 62.091 8.823 15.522 23.109 23.074 42.437 23.074 18.907 0 33.193-7.971 42.437-23.494 9.243-15.523 13.865-36.08 13.865-61.671 0-25.592-4.622-46.149-13.865-61.672-9.244-15.522-23.53-23.493-42.437-23.493zm160.084 13.844l60.924 15.943c3.782-10.908 8.824-19.718 15.546-26.431 6.723-6.713 15.547-10.069 26.471-10.069 10.504 0 18.908 2.937 25.21 8.39 6.303 5.455 9.244 12.587 9.244 21.397 0 8.81-2.941 16.362-8.824 22.655-5.882 6.293-15.126 9.229-27.311 9.229h-22.689v54.12h23.95c12.185 0 21.849 2.937 29.412 9.23 7.563 6.293 11.344 14.264 11.344 23.913 0 10.488-3.781 18.879-11.344 24.753-7.563 5.873-16.807 8.81-27.311 8.81-13.026 0-23.53-3.357-31.093-10.489-7.563-7.132-13.025-15.522-15.966-25.171l-62.185 16.781c2.941 11.747 7.563 22.655 14.286 32.304 6.722 9.649 15.126 18.04 24.79 25.172a121.741 121.741 0 0032.773 17.201c12.185 3.775 25.21 5.873 39.075 5.873 15.126 0 28.992-2.098 42.017-6.293 13.025-4.615 24.37-10.908 34.034-18.879 9.664-7.971 17.227-17.62 22.689-28.528 5.462-10.908 7.983-23.074 7.983-36.08 0-11.327-2.101-20.977-5.882-29.367-3.782-8.391-8.824-15.103-14.706-20.557-5.883-5.454-12.605-9.65-19.748-12.586-7.143-2.937-13.866-4.196-20.168-4.196v-.419c5.042-.42 10.504-1.678 16.807-4.195 6.302-2.518 12.184-6.293 17.647-11.328 5.462-5.034 10.084-11.327 13.865-18.879 3.782-7.551 5.462-16.361 5.462-26.85 0-12.166-2.521-23.494-7.143-33.982-4.621-10.488-11.344-19.298-20.168-26.85-8.823-7.552-19.327-13.425-31.512-17.62-12.185-4.196-26.051-6.293-41.597-6.293-28.151 0-51.26 7.132-69.748 21.396-18.487 14.264-31.092 34.401-37.815 59.993l1.681-2.098z" fill="#fff"/></symbol><symbol fill="none" viewBox="0 0 497 305" id="two" xmlns="http://www.w3.org/2000/svg"><path fill-rule="evenodd" clip-rule="evenodd" d="M126.769.841V0c-19.729 0-37.36 3.786-52.89 11.78C58.346 19.771 44.914 30.71 34 44.171c-10.913 13.464-19.31 29.45-25.185 47.96C2.938 110.641 0 130.834 0 152.71c0 21.876 2.938 42.069 8.815 60.58 5.877 18.51 14.272 34.496 25.186 47.958 10.914 13.462 24.346 24.4 39.877 32.393C89.41 301.214 107.04 305 126.77 305c19.728 0 37.359-3.786 52.89-11.359 15.531-7.993 28.963-18.51 39.877-31.972 10.914-13.462 19.309-29.448 25.186-47.959 5.877-18.51 8.815-38.703 8.815-60.579 0-21.876-2.938-42.069-8.815-60.58-5.877-18.51-14.272-34.496-25.186-47.958-10.914-13.462-24.346-23.98-39.877-31.972C164.128 4.628 146.497.84 126.769.84zM84.372 90.87c8.816-15.566 23.087-23.138 42.397-23.138 18.889 0 33.161 7.993 42.396 23.559 9.234 15.565 13.852 36.179 13.852 61.841s-4.618 46.276-13.852 61.841c-9.235 15.566-23.507 23.559-42.396 23.559-19.31 0-33.582-7.572-42.397-23.138-8.815-15.565-13.432-36.179-13.432-62.262s4.617-46.697 13.433-62.262zm203.629-9.664a111.98 111.98 0 00-.463 1.67l.42-1.682.043.012zm0 0c2.95-10.338 7.393-20.278 12.969-29.46 5.877-9.676 13.433-18.51 22.248-26.083 8.815-7.572 19.309-13.462 31.062-17.669 11.754-4.207 24.766-6.31 39.038-6.31 15.532 0 29.384 2.103 41.977 6.73 12.593 4.628 23.507 10.939 32.741 19.352 9.235 8.414 16.371 18.09 21.408 29.449C494.481 68.572 497 80.772 497 94.234c0 13.042-2.099 24.821-5.877 34.918-3.778 10.096-8.815 19.351-15.531 27.765-6.716 8.414-14.272 15.986-22.667 23.138l-.001.001c-8.395 7.151-16.79 14.303-25.605 21.454-6.294 5.047-12.17 9.674-18.045 14.3l-.005.004a513.913 513.913 0 01-15.531 11.779l-10.914 7.993-4.197 2.945.419.421c.42 0 6.297-.421 18.05-1.262 11.754-.842 27.285-1.262 46.174-1.262h52.051v65.206H290.896v-55.11l.044-.042c18.455-17.655 36.91-35.31 54.945-52.544 18.037-17.236 36.493-34.892 54.949-52.548l.04-.038c7.976-7.993 14.272-15.986 18.89-23.559 4.617-7.572 7.136-15.565 7.136-23.559 0-8.834-3.359-16.406-9.655-22.717-6.297-6.31-14.692-9.676-25.186-9.676-6.296 0-11.753 1.262-16.371 3.366-4.617 2.103-8.395 5.048-11.753 8.414-3.358 3.365-6.296 7.151-8.395 11.358-2.099 4.207-3.778 8.414-5.037 13.042l-62.502-16.816z" fill="#fff"/></symbol><symbol fill="none" viewBox="0 0 12 16" id="up-arrow" xmlns="http://www.w3.org/2000/svg"><path d="M11.455 5.219a.565.565 0 010 .806.569.569 0 01-.798 0L6.57 1.937v13.49a.568.568 0 11-1.137 0V1.938l-4.08 4.088a.579.579 0 01-.807 0 .565.565 0 010-.806L5.601.163a.569.569 0 01.798 0l5.056 5.056z" fill="#fff"/></symbol></svg>