<svg width="13" height="11" viewBox="0 0 13 11" fill="none" xmlns="http://www.w3.org/2000/svg">
<path d="M11.4218 4.0717L11.4407 4.07582H3.34253L5.88829 1.52772C6.01295 1.40332 6.08133 1.23479 6.08133 1.05792C6.08133 0.881041 6.01295 0.713697 5.88829 0.588999L5.49217 0.193188C5.36761 0.0687853 5.20162 0 5.02462 0C4.84752 0 4.68143 0.068294 4.55687 0.192697L0.192947 4.55064C0.0678922 4.67553 -0.000489317 4.8419 2.63602e-06 5.01887C-0.000489317 5.19683 0.0678922 5.36329 0.192947 5.48799L4.55687 9.84632C4.68143 9.97062 4.84742 10.039 5.02462 10.039C5.20162 10.039 5.36761 9.97053 5.49217 9.84632L5.88829 9.45051C6.01295 9.3263 6.08133 9.16043 6.08133 8.98356C6.08133 8.80678 6.01295 8.64965 5.88829 8.52535L3.3138 5.963H11.4308C11.7956 5.963 12.1021 5.64904 12.1021 5.28497V4.72516C12.1021 4.36109 11.7865 4.0717 11.4218 4.0717Z" fill="white"/>
</svg>
