<?xml version="1.0" encoding="utf-8"?>
<!-- Generator: Adobe Illustrator 22.1.0, SVG Export Plug-In . SVG Version: 6.00 Build 0)  -->
<svg version="1.1" id="Слой_1" xmlns:serif="http://www.serif.com/"
	 xmlns="http://www.w3.org/2000/svg" xmlns:xlink="http://www.w3.org/1999/xlink" x="0px" y="0px" viewBox="0 0 300 250"
	 style="enable-background:new 0 0 300 250;" xml:space="preserve">
<style type="text/css">
	.st0{fill:none;stroke:#356E7A;stroke-width:3.05;stroke-linecap:round;stroke-linejoin:round;stroke-miterlimit:1.5;}
	.st1{fill:none;stroke:#FFFFFF;stroke-width:3.05;stroke-linecap:round;stroke-linejoin:round;stroke-miterlimit:1.5;}
	.st2{fill:none;stroke:#FFFFFF;stroke-width:2;stroke-linecap:round;stroke-linejoin:round;stroke-miterlimit:1.5;}
	.st3{fill:none;stroke:#FFFFFF;stroke-linecap:round;stroke-linejoin:round;stroke-miterlimit:1.5;}
	.st4{fill:none;stroke:#FFFFFF;stroke-width:1.64;stroke-linecap:round;stroke-linejoin:round;stroke-miterlimit:1.5;}
	.st5{fill:none;stroke:#FFFFFF;stroke-width:1.34;stroke-linecap:round;stroke-linejoin:round;stroke-miterlimit:1.5;}
	.st6{fill:none;stroke:#FFFFFF;stroke-width:0.92;stroke-linecap:round;stroke-linejoin:round;stroke-miterlimit:1.5;}
	.st7{fill:none;stroke:#FFFFFF;stroke-width:1.09;stroke-linecap:round;stroke-linejoin:round;stroke-miterlimit:1.5;}
	.st8{fill:none;stroke:#FFFFFF;stroke-width:1.05;stroke-linecap:round;stroke-linejoin:round;stroke-miterlimit:1.5;}
	.st9{fill:none;stroke:#FFFFFF;stroke-width:0.62;stroke-linecap:round;stroke-linejoin:round;stroke-miterlimit:1.5;}
	.st10{fill:none;stroke:#FFFFFF;stroke-width:0.7;stroke-linecap:round;stroke-linejoin:round;stroke-miterlimit:1.5;}
	.st11{fill:none;stroke:#FFFFFF;stroke-width:1.45;stroke-linecap:round;stroke-linejoin:round;stroke-miterlimit:1.5;}
	.st12{fill:none;stroke:#FFFFFF;stroke-width:3.4;stroke-linecap:round;stroke-linejoin:round;stroke-miterlimit:1.5;}
	.st13{fill:none;stroke:#FFFFFF;stroke-width:0.8;stroke-linecap:round;stroke-linejoin:round;stroke-miterlimit:1.5;}
	.st14{fill:none;stroke:#FFFFFF;stroke-width:1.59;stroke-linecap:round;stroke-linejoin:round;stroke-miterlimit:1.5;}
	.st15{fill:none;stroke:#FFFFFF;stroke-width:1.53;stroke-linecap:round;stroke-linejoin:round;stroke-miterlimit:1.5;}
	.st16{fill:none;stroke:#FFFFFF;stroke-width:1.11;stroke-linecap:round;stroke-linejoin:round;stroke-miterlimit:1.5;}
	.st17{fill:none;stroke:#FFFFFF;stroke-width:1.32;stroke-linecap:round;stroke-linejoin:round;stroke-miterlimit:1.5;}
	.st18{fill:none;stroke:#FFFFFF;stroke-width:0.94;stroke-linecap:round;stroke-linejoin:round;stroke-miterlimit:1.5;}
	.st19{fill:none;stroke:#FFFFFF;stroke-width:1.2;stroke-linecap:round;stroke-linejoin:round;stroke-miterlimit:1.5;}
	.st20{fill:none;stroke:#FFFFFF;stroke-width:1.03;stroke-linecap:round;stroke-linejoin:round;stroke-miterlimit:1.5;}
	.st21{fill:none;stroke:#FFFFFF;stroke-width:0.99;stroke-linecap:round;stroke-linejoin:round;stroke-miterlimit:1.5;}
	.st22{fill:none;stroke:#FFFFFF;stroke-width:0.69;stroke-linecap:round;stroke-linejoin:round;stroke-miterlimit:1.5;}
	.st23{fill:none;stroke:#FFFFFF;stroke-width:1.06;stroke-linecap:round;stroke-linejoin:round;stroke-miterlimit:1.5;}
	.st24{fill:none;stroke:#FFFFFF;stroke-width:1.46;stroke-linecap:round;stroke-linejoin:round;stroke-miterlimit:1.5;}
	.st25{fill:none;stroke:#FFFFFF;stroke-width:1.07;stroke-linecap:round;stroke-linejoin:round;stroke-miterlimit:1.5;}
	.st26{fill:none;stroke:#FFFFFF;stroke-width:2.14;stroke-linecap:round;stroke-linejoin:round;stroke-miterlimit:1.5;}
	.st27{fill:none;stroke:#FFFFFF;stroke-width:0.71;stroke-linecap:round;stroke-linejoin:round;stroke-miterlimit:1.5;}
	.st28{fill:none;stroke:#FFFFFF;stroke-width:0.85;stroke-linecap:round;stroke-linejoin:round;stroke-miterlimit:1.5;}
	.st29{fill:none;stroke:#FFFFFF;stroke-width:1.39;stroke-linecap:round;stroke-linejoin:round;stroke-miterlimit:1.5;}
	.st30{fill:none;stroke:#FFFFFF;stroke-width:1.7;stroke-linecap:round;stroke-linejoin:round;stroke-miterlimit:1.5;}
	.st31{fill:none;stroke:#FFFFFF;stroke-width:1.36;stroke-linecap:round;stroke-linejoin:round;stroke-miterlimit:1.5;}
	.st32{fill:none;stroke:#FFFFFF;stroke-width:1.14;stroke-linecap:round;stroke-linejoin:round;stroke-miterlimit:1.5;}
	.st33{fill:none;stroke:#FFFFFF;stroke-width:1.69;stroke-linecap:round;stroke-linejoin:round;stroke-miterlimit:1.5;}
	.st34{fill:none;stroke:#FFFFFF;stroke-width:0.95;stroke-linecap:round;stroke-linejoin:round;stroke-miterlimit:1.5;}
	.st35{fill:none;stroke:#FFFFFF;stroke-width:1.8;stroke-linecap:round;stroke-linejoin:round;stroke-miterlimit:1.5;}
	.st36{fill:none;stroke:#356E7A;stroke-width:2;stroke-linecap:round;stroke-linejoin:round;stroke-miterlimit:1.5;}
	.st37{fill:none;stroke:#356E7A;stroke-linecap:round;stroke-linejoin:round;stroke-miterlimit:1.5;}
	.st38{fill:none;stroke:#356E7A;stroke-width:1.64;stroke-linecap:round;stroke-linejoin:round;stroke-miterlimit:1.5;}
	.st39{fill:none;stroke:#356E7A;stroke-width:1.34;stroke-linecap:round;stroke-linejoin:round;stroke-miterlimit:1.5;}
	.st40{fill:none;stroke:#356E7A;stroke-width:0.92;stroke-linecap:round;stroke-linejoin:round;stroke-miterlimit:1.5;}
	.st41{fill:none;stroke:#356E7A;stroke-width:1.09;stroke-linecap:round;stroke-linejoin:round;stroke-miterlimit:1.5;}
	.st42{fill:none;stroke:#356E7A;stroke-width:1.05;stroke-linecap:round;stroke-linejoin:round;stroke-miterlimit:1.5;}
	.st43{fill:none;stroke:#356E7A;stroke-width:0.62;stroke-linecap:round;stroke-linejoin:round;stroke-miterlimit:1.5;}
	.st44{fill:none;stroke:#356E7A;stroke-width:0.7;stroke-linecap:round;stroke-linejoin:round;stroke-miterlimit:1.5;}
	.st45{fill:none;stroke:#356E7A;stroke-width:1.45;stroke-linecap:round;stroke-linejoin:round;stroke-miterlimit:1.5;}
	.st46{fill:none;stroke:#356E7A;stroke-width:0.8;stroke-linecap:round;stroke-linejoin:round;stroke-miterlimit:1.5;}
	.st47{fill:none;stroke:#356E7A;stroke-width:1.59;stroke-linecap:round;stroke-linejoin:round;stroke-miterlimit:1.5;}
	.st48{fill:none;stroke:#356E7A;stroke-width:1.53;stroke-linecap:round;stroke-linejoin:round;stroke-miterlimit:1.5;}
	.st49{fill:none;stroke:#356E7A;stroke-width:1.11;stroke-linecap:round;stroke-linejoin:round;stroke-miterlimit:1.5;}
	.st50{fill:none;stroke:#356E7A;stroke-width:1.32;stroke-linecap:round;stroke-linejoin:round;stroke-miterlimit:1.5;}
	.st51{fill:none;stroke:#356E7A;stroke-width:0.94;stroke-linecap:round;stroke-linejoin:round;stroke-miterlimit:1.5;}
	.st52{fill:none;stroke:#356E7A;stroke-width:1.2;stroke-linecap:round;stroke-linejoin:round;stroke-miterlimit:1.5;}
	.st53{fill:none;stroke:#356E7A;stroke-width:1.03;stroke-linecap:round;stroke-linejoin:round;stroke-miterlimit:1.5;}
	.st54{fill:none;stroke:#356E7A;stroke-width:0.99;stroke-linecap:round;stroke-linejoin:round;stroke-miterlimit:1.5;}
	.st55{fill:none;stroke:#356E7A;stroke-width:0.69;stroke-linecap:round;stroke-linejoin:round;stroke-miterlimit:1.5;}
	.st56{fill:none;stroke:#356E7A;stroke-width:1.06;stroke-linecap:round;stroke-linejoin:round;stroke-miterlimit:1.5;}
	.st57{fill:none;stroke:#356E7A;stroke-width:1.46;stroke-linecap:round;stroke-linejoin:round;stroke-miterlimit:1.5;}
	.st58{fill:none;stroke:#356E7A;stroke-width:1.07;stroke-linecap:round;stroke-linejoin:round;stroke-miterlimit:1.5;}
	.st59{fill:none;stroke:#356E7A;stroke-width:2.14;stroke-linecap:round;stroke-linejoin:round;stroke-miterlimit:1.5;}
	.st60{fill:none;stroke:#356E7A;stroke-width:0.71;stroke-linecap:round;stroke-linejoin:round;stroke-miterlimit:1.5;}
	.st61{fill:none;stroke:#356E7A;stroke-width:0.85;stroke-linecap:round;stroke-linejoin:round;stroke-miterlimit:1.5;}
	.st62{fill:none;stroke:#356E7A;stroke-width:1.39;stroke-linecap:round;stroke-linejoin:round;stroke-miterlimit:1.5;}
	.st63{fill:none;stroke:#356E7A;stroke-width:1.7;stroke-linecap:round;stroke-linejoin:round;stroke-miterlimit:1.5;}
	.st64{fill:none;stroke:#356E7A;stroke-width:1.36;stroke-linecap:round;stroke-linejoin:round;stroke-miterlimit:1.5;}
	.st65{fill:none;stroke:#356E7A;stroke-width:1.14;stroke-linecap:round;stroke-linejoin:round;stroke-miterlimit:1.5;}
	.st66{fill:none;stroke:#356E7A;stroke-width:1.69;stroke-linecap:round;stroke-linejoin:round;stroke-miterlimit:1.5;}
	.st67{fill:none;stroke:#356E7A;stroke-width:0.95;stroke-linecap:round;stroke-linejoin:round;stroke-miterlimit:1.5;}
	.st68{fill:none;stroke:#356E7A;stroke-width:1.8;stroke-linecap:round;stroke-linejoin:round;stroke-miterlimit:1.5;}
	.st69{fill:none;stroke:#FFFFFF;stroke-width:1.38;stroke-linecap:round;stroke-linejoin:round;stroke-miterlimit:1.5;}
	.st70{fill:none;stroke:#FFFFFF;stroke-width:2.37;stroke-linecap:round;stroke-linejoin:round;stroke-miterlimit:1.5;}
	.st71{fill:none;stroke:#FFFFFF;stroke-width:1.63;stroke-linecap:round;stroke-linejoin:round;stroke-miterlimit:1.5;}
	.st72{fill:none;stroke:#FFFFFF;stroke-width:2.49;stroke-linecap:round;stroke-linejoin:round;stroke-miterlimit:1.5;}
	.st73{fill:none;stroke:#FFFFFF;stroke-width:1.04;stroke-linecap:round;stroke-linejoin:round;stroke-miterlimit:1.5;}
	.st74{fill:none;stroke:#FFFFFF;stroke-width:1.47;stroke-linecap:round;stroke-linejoin:round;stroke-miterlimit:1.5;}
	.st75{fill:none;stroke:#FFFFFF;stroke-width:0.45;stroke-linecap:round;stroke-linejoin:round;stroke-miterlimit:1.5;}
	.st76{fill:#FFFFFF;stroke:#FFFFFF;stroke-width:0.95;stroke-linecap:round;stroke-linejoin:round;stroke-miterlimit:1.5;}
	.st77{fill:#FFFFFF;stroke:#FFFFFF;stroke-width:1.24;stroke-linecap:round;stroke-linejoin:round;stroke-miterlimit:1.5;}
</style>
<path class="st0" d="M139.7,177.5V74.1l-25.3-25.8V15.5"/>
<g transform="matrix(-1,0,0,1,1426.74,3.64597)">
	<g transform="matrix(1,0,0,1,229.773,-3.54962)">
		<path class="st1" d="M1050.5,177.4V74l-25.3-25.8V14.6"/>
	</g>
	<g transform="matrix(1,0,0,1,229.773,-3.54962)">
		<path class="st2" d="M1050.5,113.5l-8.4-8.4V92l-7.4-7.9h-9.5l-15.5-16.4h-23.7l-4.2-4.6"/>
	</g>
	<g transform="matrix(1,0,0,1,229.773,-3.54962)">
		<path class="st2" d="M999.4,67.7l-11.2-12.3"/>
	</g>
	<g transform="matrix(1,0,0,1,229.773,-3.54962)">
		<path class="st3" d="M1036.1,85.6v-6.1l-2.4-2.3v-2.8"/>
	</g>
	<g transform="matrix(1,0,0,1,229.773,-3.54962)">
		<path class="st3" d="M1023.4,81.8V67.5"/>
	</g>
	<g transform="matrix(1,0,0,1,229.773,-3.54962)">
		<path class="st3" d="M1023.4,76.2l2.6-2.6v-2.4"/>
	</g>
	<g transform="matrix(1,0,0,1,229.773,-3.54962)">
		<path class="st3" d="M1014.9,72.9V59.9l-7.6-7.9"/>
	</g>
	<g transform="matrix(1,0,0,1,229.773,-3.54962)">
		<path class="st3" d="M1007.2,52v-5.5l-11.5-11.6"/>
	</g>
	<g transform="matrix(1,0,0,1,229.773,-3.54962)">
		<path class="st3" d="M999.8,39v-3.5"/>
	</g>
	<g transform="matrix(1,0,0,1,229.773,-3.54962)">
		<path class="st3" d="M1006,45.3h-5.6"/>
	</g>
	<g transform="matrix(1,0,0,1,229.773,-3.54962)">
		<path class="st3" d="M997.5,65.6V49.7l-7.2-7.4"/>
	</g>
	<g transform="matrix(1,0,0,1,229.773,-3.54962)">
		<path class="st3" d="M995.8,47.8v-5.5l-0.9-0.9"/>
	</g>
	<g transform="matrix(1,0,0,1,229.773,-3.54962)">
		<path class="st3" d="M996.7,48.8h-4.4l-2.6-2.2"/>
	</g>
	<g transform="matrix(1,0,0,1,229.773,-3.54962)">
		<path class="st3" d="M992.8,60.2v-3.8"/>
	</g>
	<g transform="matrix(1,0,0,1,229.773,-3.54962)">
		<path class="st3" d="M993.3,67.7l-3.6-3"/>
	</g>
	<g transform="matrix(1,0,0,1,229.773,-3.54962)">
		<path class="st3" d="M990.9,67.7l-2.3,3.2"/>
	</g>
	<g transform="matrix(1,0,0,1,229.773,-3.54962)">
		<path class="st3" d="M988.6,70.9h-3"/>
	</g>
	<g transform="matrix(1,0,0,1,229.773,-3.54962)">
		<path class="st3" d="M1008.4,67.7l-2.3-2.6"/>
	</g>
	<g transform="matrix(1,0,0,1,229.773,-3.54962)">
		<path class="st3" d="M997.5,64l3.4-3.3v-2.4"/>
	</g>
	<g transform="matrix(1,0,0,1,229.773,-3.54962)">
		<path class="st3" d="M1037.8,60.7v-6.3l2.1-2.3"/>
	</g>
	<g transform="matrix(1,0,0,1,229.773,-3.54962)">
		<path class="st3" d="M1042,65.1v-7.3l3.9-4.2v-5.5l2.6-2.5"/>
	</g>
	<g transform="matrix(1,0,0,1,229.773,-3.54962)">
		<path class="st3" d="M1047.7,70.9V59.8"/>
	</g>
	<g transform="matrix(1,0,0,1,229.773,-3.54962)">
		<path class="st3" d="M1047.7,65.1l2.2-2.5"/>
	</g>
	<g transform="matrix(1,0,0,1,229.773,-3.54962)">
		<path class="st2" d="M1049.9,124.7l-12.1-13.6h-16.6l-8.9-8h-19.9L981,92.2h-4.1"/>
	</g>
	<g transform="matrix(1,0,0,1,229.773,-3.54962)">
		<path class="st3" d="M1016.2,106.9v-7l-6.2-5.3v-4.2"/>
	</g>
	<g transform="matrix(1,0,0,1,229.773,-3.54962)">
		<path class="st3" d="M1002.3,102.9v-6.7l-22.8-23.1"/>
	</g>
	<g transform="matrix(1,0,0,1,229.773,-3.54962)">
		<path class="st3" d="M999.2,92.9v-7.3l-7.5-7.2"/>
	</g>
	<g transform="matrix(1,0,0,1,229.773,-3.54962)">
		<path class="st3" d="M998.2,84.7v-4.8l-2-1.5"/>
	</g>
	<g transform="matrix(1,0,0,1,229.773,-3.54962)">
		<path class="st3" d="M999.2,90.4l3.1-3.4v-2.3"/>
	</g>
	<g transform="matrix(1,0,0,1,229.773,-3.54962)">
		<path class="st3" d="M985.8,79.5h-11.9"/>
	</g>
	<g transform="matrix(1,0,0,1,229.773,-3.54962)">
		<path class="st3" d="M984.4,79.5l-4.5,3.9h-3.3"/>
	</g>
	<g transform="matrix(1,0,0,1,229.773,-3.54962)">
		<path class="st3" d="M988.7,99.5v-7.2l-2.2-2.5"/>
	</g>
	<g transform="matrix(1,0,0,1,229.773,-3.54962)">
		<path class="st3" d="M999.2,103l-3.7-3.5"/>
	</g>
	<g transform="matrix(1,0,0,1,229.773,-3.54962)">
		<path class="st3" d="M1009.2,103l-5.8,7h-13.8"/>
	</g>
	<g transform="matrix(1,0,0,1,229.773,-3.54962)">
		<path class="st3" d="M997.4,110l-1.9,3.2H992"/>
	</g>
	<g transform="matrix(1,0,0,1,229.773,-3.54962)">
		<path class="st3" d="M1000.8,110l-2.6-2.9"/>
	</g>
	<g transform="matrix(1,0,0,1,229.773,-3.54962)">
		<path class="st3" d="M998.2,107.1h-3.5"/>
	</g>
	<g transform="matrix(1,0,0,1,229.773,-3.54962)">
		<path class="st3" d="M987.5,98.2h-4.1l-3.2,3.1h-7"/>
	</g>
	<g transform="matrix(1,0,0,1,229.773,-3.54962)">
		<path class="st3" d="M979,101.3l-3,4h-1.5"/>
	</g>
	<g transform="matrix(1,0,0,1,229.773,-3.54962)">
		<path class="st3" d="M1004.5,43.4V32.7l-4-4.7"/>
	</g>
	<g transform="matrix(1,0,0,1,229.773,-3.54962)">
		<path class="st3" d="M1003.2,31v-5.5"/>
	</g>
	<g transform="matrix(1,0,0,1,229.773,-3.54962)">
		<path class="st3" d="M1004.5,43.4l3.3-3l0-1.8"/>
	</g>
	<g transform="matrix(1,0,0,1,229.773,-3.54962)">
		<path class="st3" d="M1024.9,42.7l-16-16.2v-5.9"/>
	</g>
	<g transform="matrix(1,0,0,1,229.773,-3.54962)">
		<path class="st3" d="M1015.7,33.4V12.9"/>
	</g>
	<g transform="matrix(1,0,0,1,229.773,-3.54962)">
		<path class="st3" d="M1024.9,34.7l-3.5-3.7v-5.5"/>
	</g>
	<g transform="matrix(1,0,0,1,229.773,-3.54962)">
		<path class="st3" d="M1025.5,40.5l5.1-4.3v-8.8"/>
	</g>
	<g transform="matrix(1,0,0,1,229.773,-3.54962)">
		<path class="st3" d="M1030.6,34.7l3.1-2.3v-2.2"/>
	</g>
	<g transform="matrix(1,0,0,1,229.773,-3.54962)">
		<path class="st3" d="M1033.7,56.5V45l8.2-8.3v-13l5-4.5v-5.3"/>
	</g>
	<g transform="matrix(1,0,0,1,229.773,-3.54962)">
		<path class="st3" d="M1041.8,35.2l8-7.8V24"/>
	</g>
	<g transform="matrix(1,0,0,1,229.773,-3.54962)">
		<path class="st3" d="M1046.8,30.1v-3.4"/>
	</g>
	<g transform="matrix(1,0,0,1,229.773,-3.54962)">
		<path class="st3" d="M1041.8,35.2h5l1.7-1.2"/>
	</g>
	<g transform="matrix(1,0,0,1,229.773,-3.54962)">
		<path class="st3" d="M1034.8,43.8h6.2l0.9-0.9"/>
	</g>
	<g transform="matrix(1,0,0,1,229.773,-3.54962)">
		<path class="st3" d="M1036.6,42v-5"/>
	</g>
	<g transform="matrix(1,0,0,1,229.773,-3.54962)">
		<path class="st3" d="M1041.8,28.4l-5.9-6V7.8"/>
	</g>
	<g transform="matrix(1,0,0,1,229.773,-3.54962)">
		<path class="st3" d="M1036,15.8l5.1-5v-2"/>
	</g>
	<g transform="matrix(1,0,0,1,229.773,-3.54962)">
		<path class="st3" d="M1036,18.6l-4.1-2.8v-2.7"/>
	</g>
	<g transform="matrix(1,0,0,1,229.773,-3.54962)">
		<path class="st3" d="M1015.6,22.4l3.7-2.6v-2.3"/>
	</g>
	<g transform="matrix(1,0,0,1,229.773,-3.54962)">
		<path class="st3" d="M1025.4,24.3l2.9-2.6v-2.4"/>
	</g>
	<g transform="matrix(1,0,0,1,229.773,-3.54962)">
		<path class="st3" d="M1019.9,37.7h-5.2l-2.4-2.5"/>
	</g>
	<g transform="matrix(1,0,0,1,229.773,-3.54962)">
		<path class="st3" d="M1030.9,53.8h-9.9l-5.3-5.8"/>
	</g>
	<g transform="matrix(1,0,0,1,229.773,-3.54962)">
		<path class="st3" d="M1019.3,51.6v-6.6l-2.5-1.9"/>
	</g>
	<g transform="matrix(1,0,0,1,229.773,-3.54962)">
		<path class="st3" d="M1028.3,53.8l-2.9,2.9h-3.4"/>
	</g>
	<g transform="matrix(1,0,0,1,229.773,-3.54962)">
		<path class="st3" d="M1038,61.3h-9.7"/>
	</g>
	<g transform="matrix(1,0,0,1,229.773,-3.54962)">
		<path class="st3" d="M1035.6,61.3l-2.4,3.3h-3"/>
	</g>
	<g transform="matrix(1,0,0,1,229.773,-3.54962)">
		<path class="st3" d="M1050.7,91.3l-10-11.3v-2.8"/>
	</g>
	<g transform="matrix(1,0,0,1,229.773,-3.54962)">
		<path class="st3" d="M1043.8,83.2v-8.6"/>
	</g>
	<g transform="matrix(1,0,0,1,229.773,-3.54962)">
		<path class="st3" d="M1039.9,89.9h-6.7l-4.9,5.1h-4.3"/>
	</g>
	<g transform="matrix(1,0,0,1,229.773,-3.54962)">
		<path class="st3" d="M1030.2,93.2V98l-1.9,1.3"/>
	</g>
	<g transform="matrix(1,0,0,1,229.773,-3.54962)">
		<path class="st3" d="M1032.4,90.6h-4.7"/>
	</g>
	<g transform="matrix(1,0,0,1,229.773,-3.54962)">
		<path class="st3" d="M1015,70l3.1-3.3v-2.9"/>
	</g>
	<g transform="matrix(1,0,0,1,229.773,-3.54962)">
		<path class="st3" d="M1012.2,57.2V53"/>
	</g>
	<g transform="matrix(1,0,0,1,229.773,-3.54962)">
		<path class="st3" d="M1012.2,57.2h-5.9l-3.3-2.8"/>
	</g>
	<g transform="matrix(1,0,0,1,229.773,-4.10506)">
		<ellipse class="st3" cx="971.5" cy="101.9" rx="1.7" ry="-1.8"/>
	</g>
	<g transform="matrix(0.610624,0,0,0.610624,387.036,129.007)">
		<ellipse class="st4" cx="1336.6" cy="-44.7" rx="1.7" ry="-1.8"/>
	</g>
	<g transform="matrix(0.74723,0,0,0.74723,383.132,90.4911)">
		<ellipse class="st5" cx="1123.9" cy="17.5" rx="1.7" ry="-1.8"/>
	</g>
	<g transform="matrix(1.08546,0,0,1.08546,236.732,-9.26799)">
		<ellipse class="st6" cx="903.5" cy="106.6" rx="1.7" ry="-1.8"/>
	</g>
	<g transform="matrix(0.914639,0,0,0.914639,320.059,15.193)">
		<ellipse class="st7" cx="988.2" cy="86.9" rx="1.7" ry="-1.8"/>
	</g>
	<g transform="matrix(1.89921,0,0,1.89921,-118.612,-310.93)">
		<path class="st8" d="M695.8,208.7c1,0,1.7,0.8,1.7,1.8c0,1-0.8,1.8-1.7,1.8c-1,0-1.7-0.8-1.7-1.8
			C694.1,209.5,694.8,208.7,695.8,208.7z M695.8,209.6c0.5,0,0.9,0.4,0.9,0.9s-0.4,0.9-0.9,0.9c-0.5,0-0.9-0.4-0.9-0.9
			S695.3,209.6,695.8,209.6z"/>
	</g>
	<g transform="matrix(1.89921,0,0,1.89921,-86.9381,-410.764)">
		<ellipse class="st8" cx="685.8" cy="242.1" rx="1.7" ry="-1.8"/>
	</g>
	<g transform="matrix(1.62011,0,0,1.62011,42.4361,-371.868)">
		<ellipse class="st9" cx="729" cy="247.7" rx="1.7" ry="-1.8"/>
	</g>
	<g transform="matrix(1.43438,0,0,1.43438,153.502,-350.306)">
		<path class="st10" d="M756.6,252.6c1,0,1.7,0.8,1.7,1.8c0,1-0.8,1.8-1.7,1.8c-1,0-1.7-0.8-1.7-1.8
			C754.8,253.4,755.6,252.6,756.6,252.6z M756.6,253.5c0.5,0,0.9,0.4,0.9,0.9s-0.4,0.9-0.9,0.9c-0.5,0-0.9-0.4-0.9-0.9
			S756.1,253.5,756.6,253.5z"/>
	</g>
	<g transform="matrix(2.06537,0,0,2.06537,-52.4627,-567.891)">
		<ellipse class="st11" cx="633.1" cy="278.5" rx="1.7" ry="-1.8"/>
	</g>
	<g transform="matrix(0.881282,0,0,0.881282,411.564,-193.554)">
		<ellipse class="st12" cx="957.3" cy="228" rx="1.7" ry="-1.8"/>
	</g>
	<g transform="matrix(1.25621,0,0,1.25621,172.494,-237.331)">
		<ellipse class="st13" cx="832.6" cy="218.5" rx="1.7" ry="-1.8"/>
	</g>
	<g transform="matrix(0.628104,0,0,0.628104,418.531,-26.2978)">
		<ellipse class="st14" cx="1273.6" cy="108.9" rx="1.7" ry="-1.8"/>
	</g>
	<g transform="matrix(0.628104,0,0,0.628104,452.479,-6.52729)">
		<ellipse class="st14" cx="1241" cy="89.9" rx="1.7" ry="-1.8"/>
	</g>
	<g transform="matrix(0.952786,0,0,0.952786,350.49,-114.676)">
		<ellipse class="st8" cx="935.7" cy="170.5" rx="1.7" ry="-1.8"/>
	</g>
	<g transform="matrix(0.952786,0,0,0.952786,355.885,-126.147)">
		<path class="st8" d="M932.3,176c1,0,1.7,0.8,1.7,1.8c0,1-0.8,1.8-1.7,1.8c-1,0-1.7-0.8-1.7-1.8C930.6,176.8,931.3,176,932.3,176z
			 M932.3,176.8c0.5,0,0.9,0.4,0.9,0.9c0,0.5-0.4,0.9-0.9,0.9c-0.5,0-0.9-0.4-0.9-0.9C931.4,177.2,931.8,176.8,932.3,176.8z"/>
	</g>
	<g transform="matrix(0.653426,0,0,0.653426,529.185,-59.0222)">
		<ellipse class="st15" cx="1128.4" cy="139.7" rx="1.7" ry="-1.8"/>
	</g>
	<g transform="matrix(0.653426,0,0,0.653426,554.548,-85.1154)">
		<ellipse class="st15" cx="1105" cy="163.7" rx="1.7" ry="-1.8"/>
	</g>
	<g transform="matrix(0.653426,0,0,0.653426,561.061,-65.6911)">
		<ellipse class="st15" cx="1099" cy="145.8" rx="1.7" ry="-1.8"/>
	</g>
	<g transform="matrix(0.90225,0,0,0.90225,464.673,-171.241)">
		<ellipse class="st16" cx="903.2" cy="210.7" rx="1.7" ry="-1.8"/>
	</g>
	<g transform="matrix(0.653426,0,0,0.653426,521.704,-76.2382)">
		<ellipse class="st15" cx="1135.3" cy="155.5" rx="1.7" ry="-1.8"/>
	</g>
	<g transform="matrix(0.628104,0,0,0.628104,428.754,-2.41205)">
		<ellipse class="st14" cx="1263.8" cy="86" rx="1.7" ry="-1.8"/>
	</g>
	<g transform="matrix(0.628104,0,0,0.628104,431.698,-39.6237)">
		<ellipse class="st14" cx="1261" cy="121.6" rx="1.7" ry="-1.8"/>
	</g>
	<g transform="matrix(0.628104,0,0,0.628104,446.529,-73.1883)">
		<ellipse class="st14" cx="1246.7" cy="153.8" rx="1.7" ry="-1.8"/>
	</g>
	<g transform="matrix(0.755154,0,0,0.755154,425.557,-95.6449)">
		<ellipse class="st17" cx="1080" cy="167" rx="1.7" ry="-1.8"/>
	</g>
	<g transform="matrix(0.755154,0,0,0.755154,436.579,-75.2513)">
		<ellipse class="st17" cx="1071.2" cy="150.7" rx="1.7" ry="-1.8"/>
	</g>
	<g transform="matrix(0.755154,0,0,0.755154,448.635,-38.5513)">
		<ellipse class="st17" cx="1061.6" cy="121.5" rx="1.7" ry="-1.8"/>
	</g>
	<g transform="matrix(0.755154,0,0,0.755154,442.538,-24.5268)">
		<ellipse class="st17" cx="1066.4" cy="110.3" rx="1.7" ry="-1.8"/>
	</g>
	<g transform="matrix(0.755154,0,0,0.755154,456.063,-15.2108)">
		<ellipse class="st17" cx="1055.6" cy="102.9" rx="1.7" ry="-1.8"/>
	</g>
	<g transform="matrix(1.05852,0,0,1.05852,344.469,-123.166)">
		<ellipse class="st18" cx="861.3" cy="170.9" rx="1.7" ry="-1.8"/>
	</g>
	<g transform="matrix(0.834876,0,0,0.834876,493.819,-52.2109)">
		<ellipse class="st19" cx="942.5" cy="131.8" rx="1.7" ry="-1.8"/>
	</g>
	<g transform="matrix(0.755154,0,0,0.755154,469.53,-18.5726)">
		<ellipse class="st17" cx="1044.9" cy="105.6" rx="1.7" ry="-1.8"/>
	</g>
	<g transform="matrix(0.755154,0,0,0.755154,451.158,-120.497)">
		<ellipse class="st17" cx="1059.6" cy="186.8" rx="1.7" ry="-1.8"/>
	</g>
	<g transform="matrix(0.755154,0,0,0.755154,468.178,-136.256)">
		<ellipse class="st17" cx="1046" cy="199.4" rx="1.7" ry="-1.8"/>
	</g>
	<g transform="matrix(0.755154,0,0,0.755154,505.728,-138.936)">
		<ellipse class="st17" cx="1016.1" cy="201.5" rx="1.7" ry="-1.8"/>
	</g>
	<g transform="matrix(0.755154,0,0,0.755154,500.137,-162.615)">
		<ellipse class="st17" cx="1020.5" cy="220.4" rx="1.7" ry="-1.8"/>
	</g>
	<g transform="matrix(0.755154,0,0,0.755154,477.072,-151.664)">
		<ellipse class="st17" cx="1038.9" cy="211.6" rx="1.7" ry="-1.8"/>
	</g>
	<g transform="matrix(0.967176,0,0,0.967176,404.391,-233.005)">
		<ellipse class="st20" cx="890.6" cy="243.4" rx="1.7" ry="-1.8"/>
	</g>
	<g transform="matrix(1.00923,0,0,1.00923,346.197,-222.283)">
		<ellipse class="st21" cx="894.7" cy="232.2" rx="1.7" ry="-1.8"/>
	</g>
	<g transform="matrix(1.00923,0,0,1.00923,374.591,-197.458)">
		<path class="st21" d="M877.7,215.6c1,0,1.7,0.8,1.7,1.8c0,1-0.8,1.8-1.7,1.8c-1,0-1.7-0.8-1.7-1.8
			C876,216.4,876.8,215.6,877.7,215.6z M877.7,216.5c0.5,0,0.9,0.4,0.9,0.9c0,0.5-0.4,0.9-0.9,0.9c-0.5,0-0.9-0.4-0.9-0.9
			C876.9,216.9,877.3,216.5,877.7,216.5z"/>
	</g>
	<g transform="matrix(1.45404,0,0,1.45404,240.938,-373.725)">
		<ellipse class="st22" cx="712.3" cy="262.3" rx="1.7" ry="-1.8"/>
	</g>
	<g transform="matrix(1.45404,0,0,1.45404,248.534,-292.79)">
		<ellipse class="st22" cx="709.1" cy="228.8" rx="1.7" ry="-1.8"/>
	</g>
	<g transform="matrix(1.45404,0,0,1.45404,208.115,-222.085)">
		<ellipse class="st22" cx="725.8" cy="199.6" rx="1.7" ry="-1.8"/>
	</g>
	<g transform="matrix(0.942834,0,0,0.942834,343.476,-147.419)">
		<ellipse class="st23" cx="948.4" cy="191.9" rx="1.7" ry="-1.8"/>
	</g>
	<g transform="matrix(0.942834,0,0,0.942834,323.245,-155.814)">
		<ellipse class="st23" cx="961.3" cy="197.2" rx="1.7" ry="-1.8"/>
	</g>
	<g transform="matrix(0.942834,0,0,0.942834,331.432,-180.666)">
		<ellipse class="st23" cx="956.1" cy="213.1" rx="1.7" ry="-1.8"/>
	</g>
	<g transform="matrix(0.685902,0,0,0.685902,463.785,-130.111)">
		<ellipse class="st24" cx="1139.7" cy="201.4" rx="1.7" ry="-1.8"/>
	</g>
	<g transform="matrix(0.93884,0,0,0.93884,323.069,-128.714)">
		<ellipse class="st25" cx="964.9" cy="180.1" rx="1.7" ry="-1.8"/>
	</g>
	<g transform="matrix(0.935603,0,0,0.935603,278.211,-83.2588)">
		<ellipse class="st26" cx="996.5" cy="151.1" rx="1.7" ry="-1.8"/>
	</g>
	<g transform="matrix(-0.932451,0.0767343,-0.0767343,-0.932451,1053.43,481.531)">
		<path class="st25" d="M-212.5,433c1,0,1.7,0.8,1.7,1.8s-0.8,1.8-1.7,1.8c-1,0-1.7-0.8-1.7-1.8S-213.4,433-212.5,433z
			 M-212.5,433.9c0.5,0,0.9,0.4,0.9,0.9s-0.4,0.9-0.9,0.9c-0.5,0-0.9-0.4-0.9-0.9S-213,433.9-212.5,433.9z"/>
	</g>
	<g transform="matrix(0.935603,0,0,0.935603,263.732,-28.705)">
		
			<ellipse transform="matrix(0.9865 -0.1635 0.1635 0.9865 -5.435 165.9942)" class="st25" cx="1005.8" cy="116" rx="1.7" ry="-1.8"/>
	</g>
	<g transform="matrix(0.688981,0,0,0.688981,354.206,39.1986)">
		
			<ellipse transform="matrix(0.9865 -0.1635 0.1635 0.9865 7.8683 201.9609)" class="st11" cx="1231" cy="53.2" rx="1.7" ry="-1.8"/>
	</g>
	<g transform="matrix(1.40086,0,0,1.40086,88.6656,-207.015)">
		
			<ellipse transform="matrix(0.9865 -0.1635 0.1635 0.9865 -21.2787 133.2209)" class="st27" cx="798.8" cy="195.9" rx="1.7" ry="-1.8"/>
	</g>
	<g transform="matrix(1.19607,0,0,1.19607,249.968,-98.766)">
		<path class="st28" d="M827.7,151.6c1,0,1.7,0.8,1.7,1.8c0,1-0.8,1.8-1.7,1.8c-1,0-1.7-0.8-1.7-1.8
			C826,152.4,826.7,151.6,827.7,151.6z M827.7,152.5c0.5,0,0.9,0.4,0.9,0.9s-0.4,0.9-0.9,0.9c-0.5,0-0.9-0.4-0.9-0.9
			S827.2,152.5,827.7,152.5z"/>
	</g>
	<g transform="matrix(1.01764,0,0,1.01764,302.711,-79.6502)">
		
			<ellipse transform="matrix(0.9865 -0.1635 0.1635 0.9865 -11.7217 151.4428)" class="st3" cx="914.3" cy="146.9" rx="1.7" ry="-1.8"/>
	</g>
	<g transform="matrix(1.01764,0,0,1.01764,257.193,-42.21)">
		
			<ellipse transform="matrix(0.9865 -0.1635 0.1635 0.9865 -7.7406 155.5448)" class="st3" cx="941.2" cy="124.8" rx="1.7" ry="-1.8"/>
	</g>
	<g transform="matrix(0.733054,0,0,0.733054,393.653,20.0926)">
		
			<ellipse transform="matrix(0.9865 -0.1635 0.1635 0.9865 3.2844 186.3715)" class="st29" cx="1134" cy="73.2" rx="1.7" ry="-1.8"/>
	</g>
	<g transform="matrix(0.733054,0,0,0.733054,382.366,20.0926)">
		
			<ellipse transform="matrix(0.9865 -0.1635 0.1635 0.9865 3.4091 187.8861)" class="st29" cx="1143.3" cy="73.2" rx="1.7" ry="-1.8"/>
	</g>
	<g transform="matrix(0.601229,0,0,0.601229,418.309,45.7793)">
		
			<ellipse transform="matrix(0.9865 -0.1635 0.1635 0.9865 11.9284 216.8915)" class="st30" cx="1323.7" cy="36" rx="1.7" ry="-1.8"/>
	</g>
	<g transform="matrix(0.601229,0,0,0.601229,463.278,77.3661)">
		
			<ellipse transform="matrix(0.9865 -0.1635 0.1635 0.9865 16.4909 209.1088)" class="st30" cx="1278.7" cy="4.4" rx="1.7" ry="-1.8"/>
	</g>
	<g transform="matrix(0.601229,0,0,0.601229,483.972,56.672)">
		
			<ellipse transform="matrix(0.9865 -0.1635 0.1635 0.9865 12.8265 206.0017)" class="st30" cx="1258" cy="25.1" rx="1.7" ry="-1.8"/>
	</g>
	<g transform="matrix(0.601229,0,0,0.601229,523.935,94.9183)">
		
			<ellipse transform="matrix(0.9865 -0.1635 0.1635 0.9865 18.5459 198.9483)" class="st30" cx="1218" cy="-13.2" rx="1.7" ry="-1.8"/>
	</g>
	<g transform="matrix(0.601229,0,0,0.601229,525.848,118.444)">
		
			<ellipse transform="matrix(0.9865 -0.1635 0.1635 0.9865 22.3692 198.3186)" class="st30" cx="1216.1" cy="-36.8" rx="1.7" ry="-1.8"/>
	</g>
	<g transform="matrix(0.601229,0,0,0.601229,559.72,58.5045)">
		
			<ellipse transform="matrix(0.9865 -0.1635 0.1635 0.9865 12.1064 193.5838)" class="st30" cx="1182.2" cy="23.2" rx="1.7" ry="-1.8"/>
	</g>
	<g transform="matrix(0.601229,0,0,0.601229,559.72,-3.63538)">
		
			<ellipse transform="matrix(0.9865 -0.1635 0.1635 0.9865 1.9397 194.4205)" class="st30" cx="1182.2" cy="85.4" rx="1.7" ry="-1.8"/>
	</g>
	<g transform="matrix(0.750153,0,0,0.750153,411.91,-18.7918)">
		
			<ellipse transform="matrix(0.9865 -0.1635 0.1635 0.9865 -2.5077 180.7689)" class="st31" cx="1097.1" cy="105.6" rx="1.7" ry="-1.8"/>
	</g>
	<g transform="matrix(0.750153,0,0,0.750153,464.557,-4.36219)">
		<path class="st31" d="M1054.8,92.3c1,0,1.7,0.8,1.7,1.8c0,1-0.8,1.8-1.7,1.8c-1,0-1.7-0.8-1.7-1.8
			C1053.1,93.1,1053.9,92.3,1054.8,92.3z M1054.8,93.2c0.5,0,0.9,0.4,0.9,0.9c0,0.5-0.4,0.9-0.9,0.9c-0.5,0-0.9-0.4-0.9-0.9
			C1054,93.6,1054.4,93.2,1054.8,93.2z"/>
	</g>
	<g transform="matrix(0.902554,0,0,0.880216,341.75,-78.1552)">
		<path class="st32" d="M984.9,147.4c1,0,1.7,0.8,1.7,1.8c0,1-0.8,1.8-1.7,1.8c-1,0-1.7-0.8-1.7-1.8
			C983.2,148.2,984,147.4,984.9,147.4z M984.9,148.3c0.5,0,0.9,0.4,0.9,0.9c0,0.5-0.4,0.9-0.9,0.9c-0.5,0-0.9-0.4-0.9-0.9
			C984.1,148.7,984.5,148.3,984.9,148.3z"/>
	</g>
	<g transform="matrix(0.591222,0,0,0.591222,438.432,155.287)">
		
			<ellipse transform="matrix(0.9859 -0.1675 0.1675 0.9859 31.5938 220.5394)" class="st33" cx="1323" cy="-77" rx="1.7" ry="-1.8"/>
	</g>
	<g transform="matrix(1,0,0,1,229.773,-3.54962)">
		<path class="st3" d="M1021.6,79.8h-6.7l-3.7-3.6"/>
	</g>
	<g transform="matrix(1,0,0,1,229.773,-3.54962)">
		<path class="st3" d="M1014.1,79.3h-5.3l-4.3-4.5"/>
	</g>
	<g transform="matrix(1,0,0,1,229.773,-3.54962)">
		<path class="st34" d="M1043.2,22.4v-4.3"/>
	</g>
	<g transform="matrix(0.888972,0,0,0.888972,293.536,23.1303)">
		<path class="st25" d="M1104.2,51c0-0.5-0.4-0.9-0.9-0.9h-1.9c-0.5,0-0.9,0.4-0.9,0.9v1.9c0,0.5,0.4,0.9,0.9,0.9h1.9
			c0.5,0,0.9-0.4,0.9-0.9V51z"/>
	</g>
	<g transform="matrix(0.888972,0,0,0.888972,303.53,-14.3522)">
		<path class="st25" d="M1097.4,76.4c0-0.5-0.4-0.9-0.9-0.9h-1.9c-0.5,0-0.9,0.4-0.9,0.9v1.9c0,0.5,0.4,0.9,0.9,0.9h1.9
			c0.5,0,0.9-0.4,0.9-0.9V76.4z"/>
	</g>
	<g transform="matrix(0.888972,0,0,0.888972,292.844,-56.3356)">
		<path class="st25" d="M1104.7,104.8c0-0.5-0.4-0.9-0.9-0.9h-1.9c-0.5,0-0.9,0.4-0.9,0.9v1.9c0,0.5,0.4,0.9,0.9,0.9h1.9
			c0.5,0,0.9-0.4,0.9-0.9V104.8z"/>
	</g>
	<g transform="matrix(0.888972,0,0,0.888972,239.597,78.6738)">
		<path class="st25" d="M1140.7,13.5c0-0.5-0.4-0.9-0.9-0.9h-1.9c-0.5,0-0.9,0.4-0.9,0.9v1.9c0,0.5,0.4,0.9,0.9,0.9h1.9
			c0.5,0,0.9-0.4,0.9-0.9V13.5z"/>
	</g>
	<g transform="matrix(0.528501,0,0,0.528501,446.06,166.902)">
		<path class="st35" d="M1526.8-143.7c0-0.5-0.4-0.9-0.9-0.9h-1.9c-0.5,0-0.9,0.4-0.9,0.9v1.9c0,0.5,0.4,0.9,0.9,0.9h1.9
			c0.5,0,0.9-0.4,0.9-0.9V-143.7z"/>
	</g>
</g>
<path class="st36" d="M139.7,129.5l-8.4-8.4V92l-7.4-7.9h-9.5L98.9,67.7H75.3l-4.2-4.6"/>
<path class="st36" d="M88.6,67.7L77.4,55.4"/>
<path class="st37" d="M125.3,85.7v-6.1l-2.4-2.3v-2.8"/>
<path class="st37" d="M112.6,81.8V67.6"/>
<path class="st37" d="M112.6,76.3l2.6-2.6v-2.4"/>
<path class="st37" d="M104,72.9V60l-7.6-7.9"/>
<path class="st37" d="M96.4,52.1v-5.5L85,34.9"/>
<path class="st37" d="M89,39.1v-3.5"/>
<path class="st37" d="M95.2,45.3h-5.6"/>
<path class="st37" d="M86.7,65.7V49.7l-7.2-7.4"/>
<path class="st37" d="M85,47.9v-5.5L84,41.5"/>
<path class="st37" d="M85.9,48.9h-4.4l-2.6-2.2"/>
<path class="st37" d="M81.9,60.2v-3.8"/>
<path class="st37" d="M82.4,67.7l-3.6-3"/>
<path class="st37" d="M80.1,67.7L77.8,71"/>
<path class="st37" d="M77.8,71h-3"/>
<path class="st37" d="M97.6,67.7l-2.3-2.6"/>
<path class="st37" d="M86.7,64l3.4-3.3v-2.4"/>
<path class="st37" d="M127,60.7v-6.3l2.1-2.3"/>
<path class="st37" d="M131.1,65.1v-7.3l3.9-4.2v-5.5l2.6-2.5"/>
<path class="st37" d="M136.9,71V59.8"/>
<path class="st37" d="M136.9,65.1l2.2-2.5"/>
<path class="st36" d="M139.1,146.3L127,135v-23.8h-16.6l-8.9-8H81.5L70.2,92.3H66"/>
<path class="st37" d="M105.4,106.9v-7l-6.2-5.3v-4.2"/>
<path class="st37" d="M91.5,103v-6.7L68.6,72.9"/>
<path class="st37" d="M88.4,93v-7.3l-7.5-7.2"/>
<path class="st37" d="M87.4,84.8V80l-2-1.5"/>
<path class="st37" d="M88.4,90.5l3.1-3.4v-2.3"/>
<path class="st37" d="M75,79.5H63.1"/>
<path class="st37" d="M73.6,79.5l-4.5,3.9h-3.3"/>
<path class="st37" d="M77.8,99.6v-7.2l-2.2-2.5"/>
<path class="st37" d="M88.4,103.1l-3.7-3.5"/>
<path class="st37" d="M98.4,103.1l-5.8,7H78.8"/>
<path class="st37" d="M86.5,110.1l-1.9,3.2h-3.5"/>
<path class="st37" d="M90,110.1l-2.6-2.9"/>
<path class="st37" d="M87.4,107.1h-3.5"/>
<path class="st37" d="M76.7,98.3h-4.1l-3.2,3.1h-7"/>
<path class="st37" d="M68.2,101.4l-3,4h-1.5"/>
<path class="st37" d="M93.7,43.5V32.8l-4-4.7"/>
<path class="st37" d="M92.3,31.1v-5.5"/>
<path class="st37" d="M93.7,43.5l3.3-3l0-1.8"/>
<path class="st37" d="M114.1,42.8l-16-16.2v-5.9"/>
<path class="st37" d="M104.9,33.4V12.9"/>
<path class="st37" d="M114.1,34.7l-3.5-3.7v-5.5"/>
<path class="st37" d="M114.7,40.6l5.1-4.3v-8.8"/>
<path class="st37" d="M119.8,34.7l3.1-2.3v-2.2"/>
<path class="st37" d="M122.8,56.6V45.1l8.2-8.3v-13l5-4.5V14"/>
<path class="st37" d="M131,35.3l8-7.8v-3.5"/>
<path class="st37" d="M136,30.2v-3.4"/>
<path class="st37" d="M131,35.3h5l1.7-1.2"/>
<path class="st37" d="M124,43.9h6.2l0.9-0.9"/>
<path class="st37" d="M125.8,42.1v-5"/>
<path class="st37" d="M131,28.5l-5.9-6V7.9"/>
<path class="st37" d="M125.2,15.8l5.1-5v-2"/>
<path class="st37" d="M125.2,18.7l-4.1-2.8v-2.7"/>
<path class="st37" d="M104.8,22.5l3.7-2.6v-2.3"/>
<path class="st37" d="M114.6,24.3l2.9-2.6v-2.4"/>
<path class="st37" d="M109.1,37.8h-5.2l-2.4-2.5"/>
<path class="st37" d="M120.1,53.9h-9.9l-5.3-5.8"/>
<path class="st37" d="M108.5,51.7v-6.6l-2.5-1.9"/>
<path class="st37" d="M117.5,53.9l-2.9,2.9h-3.4"/>
<path class="st37" d="M127.2,61.3h-9.7"/>
<path class="st37" d="M124.8,61.3l-2.4,3.3h-3"/>
<path class="st37" d="M139.9,91.4l-10-11.3v-2.8"/>
<path class="st37" d="M132.9,83.2v-8.6"/>
<path class="st37" d="M129.1,90h-6.7l-4.9,5.1h-4.3"/>
<path class="st37" d="M119.3,93.3V98l-1.9,1.3"/>
<path class="st37" d="M121.6,90.6h-4.7"/>
<path class="st37" d="M104,70.2l3.3-3.5v-2.9"/>
<path class="st37" d="M101.4,57.3v-4.2"/>
<path class="st37" d="M101.4,57.3h-5.9l-3.3-2.8"/>
<g transform="matrix(1,0,0,1,0,-0.555436)">
	
		<ellipse transform="matrix(-0.9859 -0.1675 0.1675 -0.9859 103.5161 212.5568)" class="st37" cx="60.7" cy="101.9" rx="1.7" ry="1.8"/>
</g>
<g transform="matrix(0.610624,0,0,0.610624,157.264,132.556)">
	
		<ellipse transform="matrix(-0.9859 -0.1675 0.1675 -0.9859 -300.3665 -114.4592)" class="st38" cx="-155" cy="-44.6" rx="1.7" ry="1.8"/>
</g>
<g transform="matrix(0.74723,0,0,0.74723,153.36,94.0407)">
	
		<ellipse transform="matrix(-0.9859 -0.1675 0.1675 -0.9859 -191.621 19.0748)" class="st39" cx="-95" cy="17.6" rx="1.7" ry="1.8"/>
</g>
<g transform="matrix(1.08546,0,0,1.08546,6.95926,-5.71837)">
	
		<ellipse transform="matrix(-0.9859 -0.1675 0.1675 -0.9859 109.9584 222.6039)" class="st40" cx="64.4" cy="106.7" rx="1.7" ry="1.8"/>
</g>
<g transform="matrix(0.914639,0,0,0.914639,90.2859,18.7426)">
	
		<ellipse transform="matrix(-0.9859 -0.1675 0.1675 -0.9859 -29.5956 171.4574)" class="st41" cx="-7.6" cy="87" rx="1.7" ry="1.8"/>
</g>
<g transform="matrix(1.89921,0,0,1.89921,-348.385,-307.38)">
	<path class="st42" d="M216.2,208.7c1,0,1.7,0.8,1.7,1.8c0,1-0.8,1.8-1.7,1.8c-1,0-1.7-0.8-1.7-1.8
		C214.5,209.5,215.3,208.7,216.2,208.7z M216.2,209.6c0.5,0,0.9,0.4,0.9,0.9c0,0.5-0.4,0.9-0.9,0.9c-0.5,0-0.9-0.4-0.9-0.9
		C215.4,210,215.7,209.6,216.2,209.6z"/>
</g>
<g transform="matrix(1.89921,0,0,1.89921,-316.711,-407.214)">
	<path class="st42" d="M206.2,240.3c1,0,1.7,0.8,1.7,1.8c0,1-0.8,1.8-1.7,1.8c-1,0-1.7-0.8-1.7-1.8
		C204.5,241.1,205.2,240.3,206.2,240.3z M206.2,241.2c0.5,0,0.9,0.4,0.9,0.9c0,0.5-0.4,0.9-0.9,0.9c-0.5,0-0.9-0.4-0.9-0.9
		C205.3,241.6,205.7,241.2,206.2,241.2z"/>
</g>
<g transform="matrix(1.62011,0,0,1.62011,-187.337,-368.318)">
	
		<ellipse transform="matrix(-0.9859 -0.1675 0.1675 -0.9859 289.7015 519.8101)" class="st43" cx="166.8" cy="247.7" rx="1.7" ry="1.8"/>
</g>
<g transform="matrix(1.43438,0,0,1.43438,-76.2705,-346.756)">
	<path class="st44" d="M121.6,252.6c1,0,1.7,0.8,1.7,1.8c0,1-0.8,1.8-1.7,1.8c-1,0-1.7-0.8-1.7-1.8
		C119.8,253.4,120.6,252.6,121.6,252.6z M121.6,253.5c0.5,0,0.9,0.4,0.9,0.9c0,0.5-0.4,0.9-0.9,0.9c-0.5,0-0.9-0.4-0.9-0.9
		C120.7,253.9,121.1,253.5,121.6,253.5z"/>
</g>
<g transform="matrix(2.06537,0,0,2.06537,-282.235,-564.341)">
	
		<ellipse transform="matrix(-0.9859 -0.1675 0.1675 -0.9859 334.8303 585.3287)" class="st45" cx="192.1" cy="278.5" rx="1.7" ry="1.8"/>
</g>
<g transform="matrix(1.25621,0,0,1.25621,-57.279,-233.782)">
	
		<ellipse transform="matrix(-0.9859 -0.1675 0.1675 -0.9859 177.0638 451.9765)" class="st46" cx="107.6" cy="218.5" rx="1.7" ry="1.8"/>
</g>
<g transform="matrix(0.628104,0,0,0.628104,188.758,-22.7482)">
	
		<ellipse transform="matrix(-0.9859 -0.1675 0.1675 -0.9859 -368.8081 186.811)" class="st47" cx="-176.5" cy="109" rx="1.7" ry="1.8"/>
</g>
<g transform="matrix(0.628104,0,0,0.628104,222.707,-2.97767)">
	
		<ellipse transform="matrix(-0.9859 -0.1675 0.1675 -0.9859 -430.2205 143.7516)" class="st47" cx="-209" cy="90" rx="1.7" ry="1.8"/>
</g>
<g transform="matrix(0.952786,0,0,0.952786,120.717,-111.126)">
	
		<ellipse transform="matrix(-0.9859 -0.1675 0.1675 -0.9859 -68.7532 335.3027)" class="st42" cx="-20.2" cy="170.6" rx="1.7" ry="1.8"/>
</g>
<g transform="matrix(0.952786,0,0,0.952786,126.112,-122.597)">
	
		<ellipse transform="matrix(-0.9859 -0.1675 0.1675 -0.9859 -76.7326 349.118)" class="st42" cx="-23.6" cy="177.8" rx="1.7" ry="1.8"/>
</g>
<g transform="matrix(0.653426,0,0,0.653426,299.412,-55.4726)">
	
		<ellipse transform="matrix(-0.9859 -0.1675 0.1675 -0.9859 -550.7259 233.0488)" class="st48" cx="-265.5" cy="139.8" rx="1.7" ry="1.8"/>
</g>
<g transform="matrix(0.653426,0,0,0.653426,324.775,-81.5658)">
	
		<ellipse transform="matrix(-0.9859 -0.1675 0.1675 -0.9859 -601.1318 276.8529)" class="st48" cx="-288.9" cy="163.8" rx="1.7" ry="1.8"/>
</g>
<g transform="matrix(0.653426,0,0,0.653426,331.288,-62.1415)">
	
		<ellipse transform="matrix(-0.9859 -0.1675 0.1675 -0.9859 -610.0458 240.3273)" class="st48" cx="-294.9" cy="145.9" rx="1.7" ry="1.8"/>
</g>
<g transform="matrix(0.90225,0,0,0.90225,234.9,-167.691)">
	
		<ellipse transform="matrix(-0.9859 -0.1675 0.1675 -0.9859 -246.316 400.7711)" class="st49" cx="-106.3" cy="210.8" rx="1.7" ry="1.8"/>
</g>
<g transform="matrix(0.653426,0,0,0.653426,291.932,-72.6886)">
	
		<ellipse transform="matrix(-0.9859 -0.1675 0.1675 -0.9859 -539.7029 265.6853)" class="st48" cx="-258.6" cy="155.6" rx="1.7" ry="1.8"/>
</g>
<g transform="matrix(0.628104,0,0,0.628104,198.981,1.13757)">
	
		<ellipse transform="matrix(-0.9859 -0.1675 0.1675 -0.9859 -384.4236 139.73)" class="st47" cx="-186.3" cy="86.1" rx="1.7" ry="1.8"/>
</g>
<g transform="matrix(0.628104,0,0,0.628104,201.925,-36.0741)">
	
		<ellipse transform="matrix(-0.9859 -0.1675 0.1675 -0.9859 -395.9956 210.0495)" class="st47" cx="-189.1" cy="121.7" rx="1.7" ry="1.8"/>
</g>
<g transform="matrix(0.628104,0,0,0.628104,216.756,-69.6387)">
	
		<ellipse transform="matrix(-0.9859 -0.1675 0.1675 -0.9859 -429.5963 271.5232)" class="st47" cx="-203.3" cy="153.9" rx="1.7" ry="1.8"/>
</g>
<g transform="matrix(0.755154,0,0,0.755154,195.785,-92.0953)">
	
		<ellipse transform="matrix(-0.9859 -0.1675 0.1675 -0.9859 -278.5553 310.6411)" class="st50" cx="-126.2" cy="167.1" rx="1.7" ry="1.8"/>
</g>
<g transform="matrix(0.755154,0,0,0.755154,206.806,-71.7017)">
	
		<ellipse transform="matrix(-0.9859 -0.1675 0.1675 -0.9859 -293.2723 276.9005)" class="st50" cx="-135" cy="150.8" rx="1.7" ry="1.8"/>
</g>
<g transform="matrix(0.755154,0,0,0.755154,218.862,-35.0017)">
	
		<ellipse transform="matrix(-0.9859 -0.1675 0.1675 -0.9859 -307.4506 217.2194)" class="st50" cx="-144.6" cy="121.6" rx="1.7" ry="1.8"/>
</g>
<g transform="matrix(0.755154,0,0,0.755154,212.766,-20.9772)">
	
		<ellipse transform="matrix(-0.9859 -0.1675 0.1675 -0.9859 -295.9328 195.8414)" class="st50" cx="-139.7" cy="110.4" rx="1.7" ry="1.8"/>
</g>
<g transform="matrix(0.755154,0,0,0.755154,226.29,-11.6612)">
	
		<ellipse transform="matrix(-0.9859 -0.1675 0.1675 -0.9859 -316.089 179.2953)" class="st50" cx="-150.5" cy="103" rx="1.7" ry="1.8"/>
</g>
<g transform="matrix(1.05852,0,0,1.05852,114.696,-119.616)">
	
		<ellipse transform="matrix(-0.9859 -0.1675 0.1675 -0.9859 -27.0557 339.555)" class="st51" cx="0.8" cy="170.9" rx="1.7" ry="1.8"/>
</g>
<g transform="matrix(0.834876,0,0,0.834876,264.046,-48.6613)">
	
		<ellipse transform="matrix(-0.9859 -0.1675 0.1675 -0.9859 -316.8394 236.9456)" class="st52" cx="-148.4" cy="131.8" rx="1.7" ry="1.8"/>
</g>
<g transform="matrix(0.755154,0,0,0.755154,239.757,-15.023)">
	
		<ellipse transform="matrix(-0.9859 -0.1675 0.1675 -0.9859 -337.8471 182.8173)" class="st50" cx="-161.2" cy="105.7" rx="1.7" ry="1.8"/>
</g>
<g transform="matrix(0.755154,0,0,0.755154,221.385,-116.947)">
	
		<ellipse transform="matrix(-0.9859 -0.1675 0.1675 -0.9859 -322.3802 346.5481)" class="st50" cx="-146.6" cy="186.9" rx="1.7" ry="1.8"/>
</g>
<g transform="matrix(0.755154,0,0,0.755154,238.406,-132.707)">
	
		<ellipse transform="matrix(-0.9859 -0.1675 0.1675 -0.9859 -351.4168 369.214)" class="st50" cx="-160.1" cy="199.4" rx="1.7" ry="1.8"/>
</g>
<g transform="matrix(0.755154,0,0,0.755154,275.955,-135.387)">
	
		<ellipse transform="matrix(-0.9859 -0.1675 0.1675 -0.9859 -411.1899 368.4429)" class="st50" cx="-190.1" cy="201.6" rx="1.7" ry="1.8"/>
</g>
<g transform="matrix(0.755154,0,0,0.755154,270.364,-159.065)">
	
		<ellipse transform="matrix(-0.9859 -0.1675 0.1675 -0.9859 -405.5034 406.6559)" class="st50" cx="-185.6" cy="220.4" rx="1.7" ry="1.8"/>
</g>
<g transform="matrix(0.755154,0,0,0.755154,247.299,-148.114)">
	
		<ellipse transform="matrix(-0.9859 -0.1675 0.1675 -0.9859 -367.545 392.4062)" class="st50" cx="-167.2" cy="211.7" rx="1.7" ry="1.8"/>
</g>
<g transform="matrix(0.967176,0,0,0.967176,174.618,-229.456)">
	
		<ellipse transform="matrix(-0.9859 -0.1675 0.1675 -0.9859 -142.3586 474.9985)" class="st53" cx="-51.1" cy="243.5" rx="1.7" ry="1.8"/>
</g>
<g transform="matrix(1.00923,0,0,1.00923,116.424,-218.733)">
	
		<ellipse transform="matrix(-0.9859 -0.1675 0.1675 -0.9859 -54.4234 459.8302)" class="st54" cx="-7.8" cy="232.2" rx="1.7" ry="1.8"/>
</g>
<g transform="matrix(1.00923,0,0,1.00923,144.818,-193.908)">
	<path class="st54" d="M-24.7,215.6c1,0,1.7,0.8,1.7,1.8c0,1-0.8,1.8-1.7,1.8c-1,0-1.7-0.8-1.7-1.8
		C-26.5,216.4-25.7,215.6-24.7,215.6z M-24.7,216.5c0.5,0,0.9,0.4,0.9,0.9c0,0.5-0.4,0.9-0.9,0.9c-0.5,0-0.9-0.4-0.9-0.9
		C-25.6,216.9-25.2,216.5-24.7,216.5z"/>
</g>
<g transform="matrix(1.45404,0,0,1.45404,11.165,-370.175)">
	
		<ellipse transform="matrix(-0.9859 -0.1675 0.1675 -0.9859 126.5565 535.4011)" class="st55" cx="85.9" cy="262.4" rx="1.7" ry="1.8"/>
</g>
<g transform="matrix(1.45404,0,0,1.45404,18.7611,-289.241)">
	
		<ellipse transform="matrix(-0.9859 -0.1675 0.1675 -0.9859 125.9244 468.364)" class="st55" cx="82.7" cy="228.9" rx="1.7" ry="1.8"/>
</g>
<g transform="matrix(1.45404,0,0,1.45404,-21.6574,-218.535)">
	
		<ellipse transform="matrix(-0.9859 -0.1675 0.1675 -0.9859 164.041 413.0605)" class="st55" cx="99.4" cy="199.6" rx="1.7" ry="1.8"/>
</g>
<g transform="matrix(0.942834,0,0,0.942834,113.703,-143.869)">
	
		<ellipse transform="matrix(-0.9859 -0.1675 0.1675 -0.9859 -67.1377 378.1737)" class="st56" cx="-17.6" cy="191.9" rx="1.7" ry="1.8"/>
</g>
<g transform="matrix(0.942834,0,0,0.942834,93.4722,-152.264)">
	
		<ellipse transform="matrix(-0.9859 -0.1675 0.1675 -0.9859 -42.3954 390.976)" class="st56" cx="-4.7" cy="197.3" rx="1.7" ry="1.8"/>
</g>
<g transform="matrix(0.942834,0,0,0.942834,101.659,-177.116)">
	
		<ellipse transform="matrix(-0.9859 -0.1675 0.1675 -0.9859 -55.4278 421.5972)" class="st56" cx="-9.9" cy="213.1" rx="1.7" ry="1.8"/>
</g>
<g transform="matrix(0.685902,0,0,0.685902,234.013,-126.561)">
	
		<ellipse transform="matrix(-0.9859 -0.1675 0.1675 -0.9859 -407.4936 368.545)" class="st57" cx="-188.2" cy="201.5" rx="1.7" ry="1.8"/>
</g>
<g transform="matrix(0.93884,0,0,0.93884,93.2964,-125.164)">
	
		<ellipse transform="matrix(-0.9859 -0.1675 0.1675 -0.9859 -40.6709 356.9915)" class="st58" cx="-5.3" cy="180.2" rx="1.7" ry="1.8"/>
</g>
<g transform="matrix(0.935603,0,0,0.935603,48.4384,-79.7092)">
	
		<ellipse transform="matrix(-0.9859 -0.1675 0.1675 -0.9859 20.3769 304.0507)" class="st59" cx="23" cy="151.2" rx="1.7" ry="1.8"/>
</g>
<g transform="matrix(-0.932451,0.0767343,-0.0767343,-0.932451,823.657,485.081)">
	<path class="st58" d="M757.7,512.8c1,0,1.7,0.8,1.7,1.8c0,1-0.8,1.8-1.7,1.8c-1,0-1.7-0.8-1.7-1.8
		C756,513.6,756.8,512.8,757.7,512.8z M757.7,513.7c0.5,0,0.9,0.4,0.9,0.9s-0.4,0.9-0.9,0.9c-0.5,0-0.9-0.4-0.9-0.9
		S757.3,513.7,757.7,513.7z"/>
</g>
<g transform="matrix(0.935603,0,0,0.935603,33.9591,-25.1553)">
	
		<ellipse transform="matrix(-0.9859 -0.1673 0.1673 -0.9859 44.7662 235.9345)" class="st58" cx="32.3" cy="116.1" rx="1.7" ry="1.8"/>
</g>
<g transform="matrix(0.688981,0,0,0.688981,124.434,42.7482)">
	
		<ellipse transform="matrix(-0.9859 -0.1673 0.1673 -0.9859 -189.5628 90.5431)" class="st45" cx="-91" cy="53.3" rx="1.7" ry="1.8"/>
</g>
<g transform="matrix(1.40086,0,0,1.40086,-141.107,-203.465)">
	
		<ellipse transform="matrix(-0.9859 -0.1673 0.1673 -0.9859 262.3165 413.9774)" class="st60" cx="148.6" cy="195.9" rx="1.7" ry="1.8"/>
</g>
<g transform="matrix(1.19607,0,0,1.19607,20.1948,-95.2164)">
	
		<ellipse transform="matrix(-0.9859 -0.1673 0.1673 -0.9859 105.7538 315.8487)" class="st61" cx="66.2" cy="153.5" rx="1.7" ry="1.8"/>
</g>
<g transform="matrix(1.01764,0,0,1.01764,72.9385,-76.1005)">
	
		<ellipse transform="matrix(-0.9859 -0.1673 0.1673 -0.9859 13.6248 295.1415)" class="st37" cx="19.2" cy="147" rx="1.7" ry="1.8"/>
</g>
<g transform="matrix(1.01764,0,0,1.01764,27.4201,-38.6604)">
	
		<ellipse transform="matrix(-0.9859 -0.1673 0.1673 -0.9859 70.7778 255.6827)" class="st37" cx="46.2" cy="124.9" rx="1.7" ry="1.8"/>
</g>
<g transform="matrix(0.733054,0,0,0.733054,163.881,23.6422)">
	
		<ellipse transform="matrix(-0.9859 -0.1673 0.1673 -0.9859 -227.7305 127.4288)" class="st62" cx="-108.5" cy="73.3" rx="1.7" ry="1.8"/>
</g>
<g transform="matrix(0.733054,0,0,0.733054,152.593,23.6422)">
	
		<ellipse transform="matrix(-0.9859 -0.1673 0.1673 -0.9859 -209.3303 128.9793)" class="st62" cx="-99.2" cy="73.3" rx="1.7" ry="1.8"/>
</g>
<g transform="matrix(0.601229,0,0,0.601229,188.536,49.3289)">
	
		<ellipse transform="matrix(-0.9859 -0.1673 0.1673 -0.9859 -385.6754 39.6359)" class="st63" cx="-191.2" cy="36.1" rx="1.7" ry="1.8"/>
</g>
<g transform="matrix(0.601229,0,0,0.601229,233.505,80.9157)">
	
		<ellipse transform="matrix(-0.9859 -0.1673 0.1673 -0.9859 -469.7602 -30.6735)" class="st63" cx="-236.2" cy="4.5" rx="1.7" ry="1.8"/>
</g>
<g transform="matrix(0.601229,0,0,0.601229,254.199,60.2216)">
	
		<ellipse transform="matrix(-0.9859 -0.1673 0.1673 -0.9859 -514.3549 6.9898)" class="st63" cx="-256.9" cy="25.2" rx="1.7" ry="1.8"/>
</g>
<g transform="matrix(0.601229,0,0,0.601229,294.162,98.4679)">
	
		<ellipse transform="matrix(-0.9859 -0.1673 0.1673 -0.9859 -587.3749 -75.7168)" class="st63" cx="-296.9" cy="-13.1" rx="1.7" ry="1.8"/>
</g>
<g transform="matrix(0.601229,0,0,0.601229,296.075,121.993)">
	
		<ellipse transform="matrix(-0.9859 -0.1673 0.1673 -0.9859 -587.2371 -122.7928)" class="st63" cx="-298.8" cy="-36.7" rx="1.7" ry="1.8"/>
</g>
<g transform="matrix(0.601229,0,0,0.601229,329.948,62.0541)">
	
		<ellipse transform="matrix(-0.9859 -0.1673 0.1673 -0.9859 -664.5973 -9.3386)" class="st63" cx="-332.7" cy="23.3" rx="1.7" ry="1.8"/>
</g>
<g transform="matrix(0.601229,0,0,0.601229,329.948,-0.0857577)">
	
		<ellipse transform="matrix(-0.9859 -0.1673 0.1673 -0.9859 -675.0044 114.1629)" class="st63" cx="-332.7" cy="85.5" rx="1.7" ry="1.8"/>
</g>
<g transform="matrix(0.750153,0,0,0.750153,182.137,-15.2422)">
	<path class="st64" d="M-117.1,103.9c1,0,1.7,0.8,1.7,1.8c0,1-0.8,1.8-1.7,1.8c-1,0-1.7-0.8-1.7-1.8
		C-118.8,104.7-118.1,103.9-117.1,103.9z M-117.1,104.8c0.5,0,0.9,0.4,0.9,0.9c0,0.5-0.4,0.9-0.9,0.9c-0.5,0-0.9-0.4-0.9-0.9
		C-118,105.2-117.6,104.8-117.1,104.8z"/>
</g>
<g transform="matrix(0.750153,0,0,0.750153,234.784,-0.812572)">
	<path class="st64" d="M-159.3,92.4c1,0,1.7,0.8,1.7,1.8c0,1-0.8,1.8-1.7,1.8c-1,0-1.7-0.8-1.7-1.8
		C-161.1,93.1-160.3,92.4-159.3,92.4z M-159.3,93.2c0.5,0,0.9,0.4,0.9,0.9c0,0.5-0.4,0.9-0.9,0.9c-0.5,0-0.9-0.4-0.9-0.9
		C-160.2,93.6-159.8,93.2-159.3,93.2z"/>
</g>
<g transform="matrix(0.902554,0,0,0.880216,111.977,-74.6056)">
	<path class="st65" d="M-24.2,147.5c1,0,1.7,0.8,1.7,1.8c0,1-0.8,1.8-1.7,1.8c-1,0-1.7-0.8-1.7-1.8
		C-25.9,148.3-25.2,147.5-24.2,147.5z M-24.2,148.4c0.5,0,0.9,0.4,0.9,0.9s-0.4,0.9-0.9,0.9c-0.5,0-0.9-0.4-0.9-0.9
		S-24.7,148.4-24.2,148.4z"/>
</g>
<g transform="matrix(0.591222,0,0,0.591222,208.659,158.836)">
	
		<ellipse transform="matrix(-0.9852 -0.1715 0.1715 -0.9852 -418.64 -189.9639)" class="st66" cx="-217.5" cy="-76.9" rx="1.7" ry="1.8"/>
</g>
<path class="st37" d="M110.8,79.8H104l-3.7-3.6"/>
<path class="st37" d="M103.3,79.3h-5.3l-4.3-4.5"/>
<path class="st67" d="M132.4,22.5v-4.3"/>
<g transform="matrix(0.888972,0,0,0.888972,63.763,26.6799)">
	<path class="st58" d="M79.6,51.1c0-0.5-0.4-0.9-0.9-0.9h-1.9c-0.5,0-0.9,0.4-0.9,0.9V53c0,0.5,0.4,0.9,0.9,0.9h1.9
		c0.5,0,0.9-0.4,0.9-0.9V51.1z"/>
</g>
<g transform="matrix(0.888972,0,0,0.888972,73.7577,-10.8025)">
	<path class="st58" d="M72.9,76.5c0-0.5-0.4-0.9-0.9-0.9h-1.9c-0.5,0-0.9,0.4-0.9,0.9v1.9c0,0.5,0.4,0.9,0.9,0.9h1.9
		c0.5,0,0.9-0.4,0.9-0.9V76.5z"/>
</g>
<g transform="matrix(0.888972,0,0,0.888972,63.0713,-52.7859)">
	<path class="st58" d="M80.1,104.9c0-0.5-0.4-0.9-0.9-0.9h-1.9c-0.5,0-0.9,0.4-0.9,0.9v1.9c0,0.5,0.4,0.9,0.9,0.9h1.9
		c0.5,0,0.9-0.4,0.9-0.9V104.9z"/>
</g>
<g transform="matrix(0.888972,0,0,0.888972,9.82383,82.2234)">
	<path class="st58" d="M116.1,13.5c0-0.5-0.4-0.9-0.9-0.9h-1.9c-0.5,0-0.9,0.4-0.9,0.9v1.9c0,0.5,0.4,0.9,0.9,0.9h1.9
		c0.5,0,0.9-0.4,0.9-0.9V13.5z"/>
</g>
<g transform="matrix(0.528501,0,0,0.528501,269.535,35.4425)">
	<path class="st68" d="M-257.2,10.1c0-0.5-0.4-0.9-0.9-0.9h-1.9c-0.5,0-0.9,0.4-0.9,0.9V12c0,0.5,0.4,0.9,0.9,0.9h1.9
		c0.5,0,0.9-0.4,0.9-0.9V10.1z"/>
</g>
<g transform="matrix(0.528501,0,0,0.528501,216.287,170.452)">
	<path class="st68" d="M-196.6-143.6c0-0.5-0.4-0.9-0.9-0.9h-1.9c-0.5,0-0.9,0.4-0.9,0.9v1.9c0,0.5,0.4,0.9,0.9,0.9h1.9
		c0.5,0,0.9-0.4,0.9-0.9V-143.6z"/>
</g>
<rect x="126.8" y="174.9" transform="matrix(-0.9852 -0.1715 0.1715 -0.9852 225.7351 374.592)" class="st34" width="4.6" height="5.3"/>
<path class="st34" d="M132.5,174.9h5.5v2.6c0,0-0.2,1.5,1.7,1.5c2,0,1.8-1.5,1.8-1.5v-2.6h3.1v2.6c0,0,0,1.5,1.9,1.5
	c2.3,0,2-1.4,2.1-1.5c0-1,0-2.6,0-2.6h3.5v6.7h-19.7V174.9z"/>
<g transform="matrix(1,0,0,1,1.40044,0)">
	<path class="st34" d="M149.6,240.8v-59.2"/>
</g>
<path class="st34" d="M160.8,181.8v14.6l3.2,2.3"/>
<path class="st34" d="M164.8,181.8l0,12.3l3.3,3.5"/>
<path class="st34" d="M169.4,200.2v33.9"/>
<path class="st34" d="M164.8,202v16.2"/>
<g transform="matrix(1,0,0,1,0.829953,-0.384171)">
	<path class="st34" d="M161.9,182.2v42.3l1.6,1.3"/>
</g>
<g transform="matrix(0.6897,0,0,0.6897,204.257,174.969)">
	<circle class="st69" cx="-51" cy="34.7" r="2"/>
</g>
<g transform="matrix(0.6897,0,0,0.6897,175.87,167.011)">
	<circle class="st69" cx="-26.2" cy="41.6" r="2"/>
</g>
<g transform="matrix(0.6897,0,0,0.6897,167.771,178.346)">
	<circle class="st69" cx="-19.1" cy="31.7" r="2"/>
</g>
<g transform="matrix(0.401072,0,0,0.401072,328.196,321.991)">
	<circle class="st70" cx="-464.6" cy="-321.1" r="2"/>
</g>
<g transform="matrix(0.401072,0,0,0.401072,333.985,334.531)">
	<circle class="st70" cx="-473.3" cy="-340" r="2"/>
</g>
<g transform="matrix(0.401072,0,0,0.401072,313.492,319.472)">
	<circle class="st70" cx="-442.5" cy="-317.4" r="2"/>
</g>
<g transform="matrix(0.582405,0,0,0.582405,171.123,206.579)">
	<circle class="st71" cx="-75" cy="-32.6" r="2"/>
</g>
<g transform="matrix(0.582405,0,0,0.582405,163.83,199.929)">
	<circle class="st71" cx="-67.5" cy="-25.7" r="2"/>
</g>
<g transform="matrix(0.582405,0,0,0.582405,156.691,206.579)">
	<circle class="st71" cx="-60.1" cy="-32.6" r="2"/>
</g>
<g transform="matrix(0.381536,0,0,0.381536,410.409,437.589)">
	<circle class="st72" cx="-631.6" cy="-531.3" r="2"/>
</g>
<g transform="matrix(0.381536,0,0,0.381536,398.821,398.087)">
	<circle class="st72" cx="-613.3" cy="-469" r="2"/>
</g>
<rect x="145.9" y="240.9" transform="matrix(-0.9852 -0.1715 0.1715 -0.9852 250.2496 508.1716)" class="st34" width="2.4" height="4.8"/>
<g transform="matrix(0.507351,0,0,0.60703,257.641,219.069)">
	
		<rect x="-252.2" y="8" transform="matrix(-0.9852 -0.1715 0.1715 -0.9852 -500.0965 -22.4461)" class="st30" width="2.4" height="4.8"/>
</g>
<g transform="matrix(0.507351,0,0,0.60703,240.284,219.069)">
	
		<rect x="-231.6" y="8" transform="matrix(-0.9896 -0.144 0.144 -0.9896 -459.9586 -12.5299)" class="st30" width="2.4" height="4.8"/>
</g>
<g transform="matrix(0.507351,0,0,0.60703,232.703,205.118)">
	
		<rect x="-222.7" y="21.8" transform="matrix(-0.9927 -0.1207 0.1207 -0.9927 -444.1859 21.5038)" class="st30" width="2.4" height="4.7"/>
</g>
<g transform="matrix(0.507351,0,0,0.60703,222.884,234.402)">
	
		<rect x="-211" y="-7.2" transform="matrix(-0.9949 -0.1011 0.1011 -0.9949 -418.0307 -30.8322)" class="st30" width="2.4" height="4.7"/>
</g>
<g transform="matrix(1,0,0,1,9.81463,0)">
	
		<rect x="139.9" y="240.9" transform="matrix(-0.9964 -8.462388e-02 8.462388e-02 -0.9964 261.2379 497.6299)" class="st34" width="2.4" height="4.7"/>
</g>
<g transform="matrix(0.381536,0,0,0.381536,398.817,415.347)">
	<circle class="st72" cx="-613.3" cy="-496.2" r="2"/>
</g>
<g transform="matrix(0.916817,0,0,0.916817,43.2073,51.4084)">
	<circle class="st73" cx="133.1" cy="162.3" r="2"/>
</g>
<rect x="153.7" y="175" transform="matrix(-0.9964 -8.462388e-02 8.462388e-02 -0.9964 293.7543 369.087)" class="st34" width="2" height="6.7"/>
<g transform="matrix(0.61835,0,0,0.676394,163.792,162.672)">
	
		<rect x="-64.5" y="18.6" transform="matrix(-0.9964 -8.462388e-02 8.462388e-02 -0.9964 -128.6308 38.4753)" class="st74" width="2" height="6.7"/>
</g>
<g transform="matrix(0.61835,0,0,0.676394,156.718,162.672)">
	
		<rect x="-57.6" y="18.6" transform="matrix(-0.997 -7.740731e-02 7.740731e-02 -0.997 -114.763 39.4792)" class="st74" width="2" height="6.7"/>
</g>
<g transform="matrix(1,0,0,1,7.88561,-0.127775)">
	
		<rect x="148.9" y="175" transform="matrix(-0.9975 -7.079932e-02 7.079932e-02 -0.9975 286.903 366.9581)" class="st34" width="2" height="6.7"/>
</g>
<g transform="matrix(2.78461,0,0,1,-1099.67,0)">
	
		<rect x="452.4" y="175" transform="matrix(-0.9975 -7.079932e-02 7.079932e-02 -0.9975 893.0212 388.2877)" class="st75" width="2" height="6.7"/>
</g>
<path class="st34" d="M160.8,174.9v-6.5l0.7-1l0.8,1v6.4"/>
<rect x="163.9" y="170" transform="matrix(-0.981 -0.1939 0.1939 -0.981 292.4695 372.1721)" class="st34" width="1.1" height="3.6"/>
<path class="st34" d="M164.4,170v-5.5"/>
<g transform="matrix(1,0,0,1,0.526119,-0.367166)">
	<circle class="st34" cx="163.9" cy="164" r="0.8"/>
</g>
<g transform="matrix(1,0,0,1,-6.63604,7.35521)">
	<circle class="st34" cx="168.2" cy="159.4" r="0.8"/>
</g>
<path class="st34" d="M121.7,179.8v6.5"/>
<path class="st34" d="M124.5,179.8v3.9"/>
<path class="st34" d="M127.4,180.3v6"/>
<path class="st34" d="M130.3,180.3v8.4"/>
<path class="st34" d="M130.3,188.7l-9.9,9.6v19.9"/>
<path class="st34" d="M133.3,181.8v8.5l-9.9,9.5v24"/>
<path class="st34" d="M121.7,188.7v19.9l-5.2,5.4V230"/>
<path class="st34" d="M136,181.8v9.5"/>
<path class="st34" d="M138.8,181.8v12.9l-8.5,8.1v21"/>
<path class="st34" d="M141.9,181.8v10.6"/>
<path class="st34" d="M144.1,181.8v15.5"/>
<path class="st34" d="M147,181.8v59.1"/>
<path class="st34" d="M157.8,181.8v12.3"/>
<path class="st34" d="M154.6,181.8c0,0,0,16.8,0,16.9"/>
<g transform="matrix(1,0,0,1,-0.430788,0.119993)">
	<circle class="st76" cx="137.7" cy="159.7" r="0.6"/>
</g>
<g transform="matrix(1,0,0,1,-0.430788,6.65165)">
	<circle class="st76" cx="137.7" cy="155.7" r="0.6"/>
</g>
<g transform="matrix(0.769148,0,0,0.769148,163.707,118.465)">
	<circle class="st77" cx="-19.2" cy="59.7" r="0.6"/>
</g>
<g transform="matrix(1,0,0,1,-0.430788,13.5539)">
	<circle class="st76" cx="137.7" cy="151.6" r="0.6"/>
</g>
<g transform="matrix(0.769148,0,0,0.769148,163.707,123.774)">
	<circle class="st77" cx="-19.2" cy="55.6" r="0.6"/>
</g>
<g transform="matrix(1,0,0,1,-0.430788,20.4875)">
	<circle class="st76" cx="137.7" cy="147.4" r="0.6"/>
</g>
<g transform="matrix(0.769148,0,0,0.769148,163.707,129.107)">
	<circle class="st77" cx="-19.2" cy="51.4" r="0.6"/>
</g>
<g transform="matrix(1,0,0,1,-0.430788,27.3778)">
	<circle class="st76" cx="137.7" cy="143.3" r="0.6"/>
</g>
<g transform="matrix(0.769148,0,0,0.769148,163.707,134.407)">
	<circle class="st77" cx="-19.2" cy="47.3" r="0.6"/>
</g>
</svg>
