<svg width="30" height="31" viewBox="0 0 30 31" fill="none" xmlns="http://www.w3.org/2000/svg">
<path d="M25.602 4.42354C22.7701 1.57611 19.0051 0.00561828 15 0.000976562C6.72907 0.000976562 0 6.76724 0 15.0844C0 23.4015 6.72907 30.168 15 30.168C23.2709 30.168 30 23.4015 30 15.0844C29.9954 11.0579 28.4334 7.27181 25.602 4.42354ZM9.686 27.6255C9.22928 27.3866 8.75787 27.1397 8.23063 26.894V22.833C8.23063 21.5014 9.08865 20.1238 10.5251 20.1238H12.0939L13.3733 21.4296C13.3372 21.5605 13.3167 21.7069 13.3167 21.8399V22.3624C13.3167 22.7367 13.4594 23.0904 13.7192 23.3631L12.8023 28.6428C12.0516 28.5212 11.3204 28.3388 10.6145 28.0989C10.3125 27.952 10.0058 27.7929 9.686 27.6255ZM13.4632 11.7786C13.6987 12.0639 13.9531 12.3254 14.22 12.5575C15.2128 13.4202 16.3441 13.8577 17.5821 13.8577C18.0014 13.8577 18.6521 13.8066 19.0941 13.7118C19.108 13.8682 19.0882 14.1105 18.9921 14.385C18.8616 14.7564 18.6815 14.9542 18.5937 15.0232C18.5434 15.0092 18.4913 15.0023 18.4388 15.0023C18.3729 15.0023 18.3083 15.0133 18.2462 15.0348C18.0921 15.0882 17.9653 15.2049 17.8994 15.3549C17.3348 16.6325 16.2425 18.1241 15.0218 18.1241C13.7994 18.1241 12.7059 16.6279 12.1413 15.3465C12.0729 15.1903 11.9398 15.0713 11.7773 15.0202C11.7203 15.0023 11.6611 14.9932 11.6015 14.9932C11.541 14.9932 11.4818 15.0025 11.4243 15.0206C11.3278 14.944 11.1552 14.7425 11.0297 14.385C10.9311 14.1031 10.9197 13.8891 10.9256 13.7667C10.9588 13.7682 10.9919 13.7688 11.0247 13.7688C12.4691 13.7688 13.2084 12.3868 13.4632 11.7786ZM12.1476 9.60138C12.6089 8.95732 13.4821 8.18959 15.0222 8.18959C16.5616 8.18959 17.4351 8.95732 17.8965 9.60117C18.6353 10.6335 18.7268 11.8214 18.579 12.551C18.2399 12.6303 17.9045 12.6706 17.5812 12.6706C15.0537 12.6706 13.8322 10.2499 13.7818 10.1469C13.6819 9.94241 13.4787 9.81515 13.252 9.81515C13.2239 9.81515 13.1954 9.81726 13.1668 9.82148C12.9116 9.85863 12.7118 10.0553 12.6694 10.3102C12.6664 10.3286 12.331 12.1101 11.4583 12.5138C11.3202 11.7796 11.4205 10.6164 12.1476 9.60138ZM21.769 27.017C21.7242 27.0426 21.6827 27.0723 21.6376 27.0975C21.4008 27.2292 21.1607 27.3541 20.9185 27.4697C20.871 27.4942 20.824 27.5162 20.7703 27.5398L20.471 27.677L20.0735 27.8437C19.8674 27.926 19.6629 28.0028 19.4669 28.0712L19.2159 28.1556L18.8498 28.2691L18.7083 28.3098C18.5694 28.3386 18.4351 28.368 18.2856 28.3949C17.9053 28.4637 17.5355 28.5169 17.1573 28.557L16.2988 23.3631C16.5469 23.1018 16.6833 22.7481 16.6833 22.3624V21.8399C16.6833 21.7099 16.6804 21.563 16.6481 21.4309L17.9498 20.1238H19.5189C20.9806 20.1238 21.769 21.5195 21.769 22.833L21.769 27.017ZM15.9055 20.5484C15.7237 20.4627 15.5142 20.4192 15.2817 20.4192H14.7624C14.5294 20.4192 14.32 20.4627 14.1382 20.5488L13.3838 19.7861C13.4086 19.719 13.422 19.6426 13.422 19.5654V18.828C13.8935 19.1404 14.4476 19.3109 14.9996 19.3109C15.5554 19.3109 16.0952 19.1361 16.6443 18.7774V19.5654C16.6443 19.6228 16.6619 19.6785 16.6854 19.7393L15.9055 20.5484ZM15.6313 21.7979V22.4254C15.6313 22.6026 15.4882 22.7465 15.3121 22.7465H14.6879C14.5118 22.7465 14.3687 22.6026 14.3687 22.4254V21.7979C14.3687 21.6208 14.5118 21.4769 14.6879 21.4769H15.3121C15.4882 21.4769 15.6313 21.6208 15.6313 21.7979ZM15.552 28.8106C15.3698 28.8182 15.1872 28.8216 15.0038 28.8216C14.7708 28.8216 14.5357 28.8157 14.2948 28.8039C14.1985 28.799 14.1033 28.7898 14.0075 28.783L14.6352 25.0146L14.8455 23.8041H15.1973L15.9731 28.7859C15.9404 28.7882 15.9079 28.7917 15.8752 28.7937C15.7674 28.8009 15.6599 28.8064 15.552 28.8106ZM28.59 16.5076C28.582 16.5915 28.5715 16.6764 28.561 16.7633L28.5417 16.9191L28.4783 17.3475C28.4573 17.4796 28.4321 17.6184 28.4006 17.7712C28.2856 18.3537 28.132 18.9327 27.9389 19.505C27.8944 19.6388 27.8449 19.7773 27.7752 19.9655C27.7752 19.9655 27.6538 20.2749 27.6249 20.3441L27.5229 20.5859C26.5256 22.8902 24.9514 24.8221 22.9397 26.26V22.833C22.9397 21.8082 22.6173 20.8577 22.0317 20.1563C21.3802 19.3767 20.4878 18.9471 19.5189 18.9471H17.8146V17.6826C18.1807 17.2521 18.5043 16.7566 18.778 16.2083C19.3141 16.0931 19.8266 15.5381 20.0928 14.7796C20.4231 13.8378 20.2876 12.991 19.7582 12.644C19.9668 11.4097 19.6218 9.98398 18.8511 8.90773C17.9716 7.67911 16.6111 7.00234 15.0206 7.00234C13.4296 7.00234 12.0687 7.67911 11.1888 8.90794C10.4202 9.98145 10.0735 11.4021 10.2775 12.6309C9.73555 12.9675 9.5861 13.8378 9.91647 14.7796C10.1939 15.5702 10.7002 16.1142 11.2463 16.2138C11.507 16.7405 11.8017 17.2909 12.2517 17.7657V18.9471H10.5252C9.54203 18.9471 8.64202 19.3767 7.99053 20.1563C7.39066 20.8746 7.0603 21.8255 7.0603 22.833V26.2705C4.09283 24.1407 1.99868 20.8416 1.46755 17.0039C1.42809 16.73 1.39703 16.4392 1.3752 16.1399C1.36177 15.9601 1.35295 15.7985 1.34707 15.639L1.34036 15.4376C1.33742 15.3195 1.33574 15.2015 1.33574 15.0825C1.33574 14.901 1.33952 14.7176 1.34624 14.5372C1.35085 14.4238 1.35673 14.3118 1.36555 14.1761C1.58803 10.7521 3.06985 7.55417 5.53816 5.17101C8.01528 2.78046 11.2677 1.42248 14.6965 1.34735C14.6965 1.34735 14.903 1.34439 14.9979 1.34439L15.2065 1.3465C15.2804 1.34734 15.6221 1.35916 15.6221 1.35916C22.1992 1.65588 27.6287 6.6267 28.5316 13.179C28.5551 13.3478 28.5757 13.5202 28.595 13.7076C28.6823 14.5747 28.6869 15.4524 28.6084 16.3155C28.6046 16.3708 28.5996 16.424 28.59 16.5076Z" fill="#5362A7"/>
</svg>
