<?xml version="1.0" encoding="utf-8"?>
<!-- Generator: Adobe Illustrator 22.0.1, SVG Export Plug-In . SVG Version: 6.00 Build 0)  -->
<svg version="1.1" id="Layer_1" xmlns="http://www.w3.org/2000/svg" xmlns:xlink="http://www.w3.org/1999/xlink" x="0px" y="0px"
	 viewBox="0 0 230 120" style="enable-background:new 0 0 230 120;" xml:space="preserve">
<style type="text/css">
	.st0{fill:url(#SVGID_3_);}
	.st1{opacity:0.5;}
	.st2{fill:#FFFFFF;stroke:#D8DFF0;stroke-miterlimit:10;}
	.st3{fill:#F1F1F0;stroke:#004773;stroke-width:0.8;stroke-linecap:round;stroke-linejoin:round;stroke-miterlimit:10;}
	.st4{fill:#FFFFFF;stroke:#004773;stroke-width:0.8;stroke-linecap:round;stroke-linejoin:round;stroke-miterlimit:10;}
	.st5{fill:#439FE0;stroke:#004773;stroke-width:0.8;stroke-linecap:round;stroke-linejoin:round;stroke-miterlimit:10;}
	.st6{fill:#439FE0;}
	.st7{fill:none;stroke:#004773;stroke-width:0.8;stroke-linecap:round;stroke-linejoin:round;stroke-miterlimit:10;}
	
		.st8{fill:none;stroke:#004773;stroke-width:0.8;stroke-linecap:round;stroke-linejoin:round;stroke-miterlimit:10;stroke-dasharray:12,12;}
	.st9{display:none;fill:none;stroke:#455471;stroke-width:0.6572;stroke-miterlimit:10;}
	.st10{fill:#F1F1F0;stroke:#455471;stroke-width:0.8;stroke-linecap:round;stroke-linejoin:round;stroke-miterlimit:10;}
	.st11{fill:#F3AA3E;stroke:#455471;stroke-width:0.8;stroke-linecap:round;stroke-linejoin:round;stroke-miterlimit:10;}
	.st12{fill:#74C936;stroke:#455471;stroke-width:0.8;stroke-linecap:round;stroke-linejoin:round;stroke-miterlimit:10;}
	.st13{opacity:0.2;}
	.st14{fill:#455471;}
	.st15{fill:#FFFFFF;stroke:#455471;stroke-width:0.8;stroke-linecap:round;stroke-linejoin:round;stroke-miterlimit:10;}
	.st16{fill:#FFFFFF;stroke:#455471;stroke-width:0.94;stroke-linecap:round;stroke-miterlimit:10;}
	.st17{fill:none;stroke:#FFFFFF;stroke-width:0.8;stroke-linecap:round;stroke-linejoin:round;stroke-miterlimit:10;}
	.st18{fill:#FFD11D;stroke:#004773;stroke-width:0.8;stroke-linecap:round;stroke-linejoin:round;stroke-miterlimit:10;}
	.st19{fill:#74C936;stroke:#004773;stroke-width:0.8;stroke-linecap:round;stroke-linejoin:round;stroke-miterlimit:10;}
	.st20{fill:#004773;}
	.st21{fill:#FFFFFF;stroke:#004773;stroke-width:0.94;stroke-linecap:round;stroke-miterlimit:10;}
	.st22{fill:#FFFFFF;stroke:#455471;stroke-width:0.8822;stroke-linecap:round;stroke-miterlimit:10;}
	.st23{fill:#F1F1F0;stroke:#455471;stroke-width:0.8822;stroke-miterlimit:10;}
	.st24{fill:#FFFFFF;stroke:#455471;stroke-width:0.8822;stroke-miterlimit:10;}
	.st25{fill:none;stroke:#455471;stroke-width:1.0362;stroke-miterlimit:10;}
	.st26{fill:#74C936;stroke:#455471;stroke-width:0.8822;stroke-linecap:round;stroke-linejoin:round;stroke-miterlimit:10;}
	.st27{fill:#439FE0;stroke:#455471;stroke-width:0.8822;stroke-linecap:round;stroke-linejoin:round;stroke-miterlimit:10;}
	.st28{fill:#439FE0;stroke:#455471;stroke-width:0.8823;stroke-linecap:round;stroke-linejoin:round;stroke-miterlimit:10;}
	.st29{fill:#F3AA3E;stroke:#455471;stroke-width:0.8822;stroke-linecap:round;stroke-linejoin:round;stroke-miterlimit:10;}
	.st30{fill:#FFFFFF;stroke:#455471;stroke-width:0.8822;stroke-linecap:round;stroke-linejoin:round;stroke-miterlimit:10;}
	.st31{fill:#F1F1F0;stroke:#455471;stroke-width:0.8822;stroke-linecap:round;stroke-linejoin:round;stroke-miterlimit:10;}
	.st32{fill:none;stroke:#455471;stroke-width:0.8822;stroke-linecap:round;stroke-linejoin:round;stroke-miterlimit:10;}
	.st33{fill:none;stroke:#FFFFFF;stroke-width:0.8822;stroke-linecap:round;stroke-linejoin:round;stroke-miterlimit:10;}
	.st34{fill:#FFFFFF;}
	.st35{clip-path:url(#SVGID_7_);}
	.st36{fill:none;stroke:#455471;stroke-width:0.8822;stroke-miterlimit:10;}
	.st37{clip-path:url(#SVGID_11_);}
	.st38{fill:#FFFFFF;stroke:#004773;stroke-width:0.8;stroke-linecap:round;stroke-miterlimit:10;}
	.st39{fill:#F1F1F0;stroke:#004773;stroke-width:0.8;stroke-miterlimit:10;}
	.st40{fill:#FFFFFF;stroke:#004773;stroke-width:0.8;stroke-miterlimit:10;}
	.st41{fill:none;stroke:#455471;stroke-width:0.9396;stroke-miterlimit:10;}
	.st42{fill:#439FE0;stroke:#004773;stroke-width:0.8001;stroke-linecap:round;stroke-linejoin:round;stroke-miterlimit:10;}
	.st43{clip-path:url(#SVGID_15_);}
	.st44{fill:none;stroke:#004773;stroke-width:0.8;stroke-miterlimit:10;}
	.st45{fill:#74C936;}
	.st46{fill:#FFD11D;}
	.st47{fill:#F76234;}
	.st48{fill:#FFD11D;stroke:#004773;stroke-linecap:round;stroke-linejoin:round;stroke-miterlimit:10;}
	.st49{fill:none;stroke:#455471;stroke-width:0.7279;stroke-miterlimit:10;}
	.st50{clip-path:url(#SVGID_19_);}
	.st51{fill:#439FE0;stroke:#004773;stroke-width:0.6198;stroke-linecap:round;stroke-linejoin:round;stroke-miterlimit:10;}
	.st52{fill:#FFFFFF;stroke:#004773;stroke-width:0.6198;stroke-linecap:round;stroke-linejoin:round;stroke-miterlimit:10;}
	.st53{fill:none;stroke:#004773;stroke-width:0.6198;stroke-linecap:round;stroke-linejoin:round;stroke-miterlimit:10;}
	.st54{fill:#F1F1F0;stroke:#004773;stroke-width:0.6198;stroke-linecap:round;stroke-linejoin:round;stroke-miterlimit:10;}
	.st55{fill:none;stroke:#004773;stroke-width:0.6198;stroke-miterlimit:10;}
	.st56{clip-path:url(#SVGID_23_);}
	.st57{clip-path:url(#SVGID_27_);}
	.st58{clip-path:url(#SVGID_29_);}
	.st59{fill:#439FE0;stroke:#455471;stroke-width:0.8;stroke-linecap:round;stroke-linejoin:round;stroke-miterlimit:10;}
	.st60{fill:#FFFFFF;stroke:#455471;stroke-width:0.8;stroke-miterlimit:10;}
	.st61{clip-path:url(#SVGID_31_);}
	.st62{fill:none;stroke:#455471;stroke-width:0.8;stroke-linecap:round;stroke-linejoin:round;stroke-miterlimit:10;}
	.st63{fill:#F1F1F0;}
	.st64{fill:none;stroke:#455471;stroke-width:0.8;stroke-miterlimit:10;}
	.st65{fill:none;stroke:#455471;stroke-width:1.0207;stroke-linecap:round;stroke-linejoin:round;stroke-miterlimit:10;}
	.st66{fill:#F1F1F0;stroke:#FFFFFF;stroke-width:0.8;stroke-linecap:round;stroke-linejoin:round;stroke-miterlimit:10;}
	.st67{fill:none;stroke:#E0E0E0;stroke-width:0.7;stroke-linecap:round;stroke-linejoin:round;stroke-miterlimit:10;}
	.st68{clip-path:url(#SVGID_33_);}
	
		.st69{clip-path:url(#SVGID_33_);fill:#FFFFFF;stroke:#004773;stroke-width:0.8;stroke-linecap:round;stroke-linejoin:round;stroke-miterlimit:10;}
	.st70{clip-path:url(#SVGID_35_);}
	.st71{fill:#F76234;stroke:#004773;stroke-width:0.8;stroke-linecap:round;stroke-linejoin:round;stroke-miterlimit:10;}
	.st72{fill:#FFD11D;stroke:#004773;stroke-width:0.8;stroke-linejoin:round;stroke-miterlimit:10;}
	.st73{fill:#F76234;stroke:#004773;stroke-width:0.8;stroke-miterlimit:10;}
	.st74{fill:#FFFFFF;stroke:#004675;stroke-width:0.7;stroke-linecap:round;stroke-linejoin:round;stroke-miterlimit:10;}
	.st75{fill:#FCD745;stroke:#004675;stroke-width:0.7;stroke-linecap:round;stroke-linejoin:round;stroke-miterlimit:10;}
	.st76{fill:#FBE592;stroke:#004675;stroke-width:0.7;stroke-linecap:round;stroke-linejoin:round;stroke-miterlimit:10;}
	.st77{fill:#1DABFB;stroke:#004675;stroke-width:0.7;stroke-linecap:round;stroke-linejoin:round;stroke-miterlimit:10;}
	.st78{fill:#2278CF;stroke:#004675;stroke-width:0.7;stroke-linecap:round;stroke-linejoin:round;stroke-miterlimit:10;}
	.st79{fill:none;stroke:#004675;stroke-width:0.7;stroke-linecap:round;stroke-linejoin:round;stroke-miterlimit:10;}
	.st80{fill:#004675;}
	.st81{fill:#37BC79;}
	.st82{fill:#FBE592;}
	.st83{fill:#CE93D8;}
	.st84{fill:#B3E5FC;}
	.st85{fill:#3D9DE2;}
	.st86{fill:#4E80DC;stroke:#004675;stroke-width:0.7;stroke-linecap:round;stroke-linejoin:round;stroke-miterlimit:10;}
	.st87{fill:#37BC79;stroke:#004675;stroke-width:0.7;stroke-linecap:round;stroke-linejoin:round;stroke-miterlimit:10;}
	.st88{fill:#FFFFFF;stroke:#004675;stroke-width:0.7;stroke-linecap:round;stroke-miterlimit:10;}
	.st89{fill:#D5D5D4;stroke:#004675;stroke-width:0.7;stroke-linecap:round;stroke-linejoin:round;stroke-miterlimit:10;}
	.st90{fill:#F1EAEA;stroke:#004675;stroke-width:0.7;stroke-linecap:round;stroke-linejoin:round;stroke-miterlimit:10;}
	.st91{fill:#E0C2D2;}
	.st92{fill:#F1EAEA;stroke:#004675;stroke-width:0.7;stroke-miterlimit:10;}
	.st93{fill:none;stroke:#004675;stroke-width:0.7;stroke-linecap:round;stroke-miterlimit:10;}
	.st94{fill:#FFFFFF;stroke:#455471;stroke-width:0.8;stroke-linecap:round;stroke-miterlimit:10;}
	.st95{fill:#FFD11D;stroke:#455471;stroke-width:0.8;stroke-linecap:round;stroke-linejoin:round;stroke-miterlimit:10;}
	.st96{opacity:0.2;fill:#455471;}
	.st97{fill:none;stroke:#004773;stroke-linecap:round;stroke-linejoin:round;stroke-miterlimit:10;}
	.st98{fill:#74C936;stroke:#004773;stroke-linecap:round;stroke-linejoin:round;stroke-miterlimit:10;}
	.st99{fill:#439FE0;stroke:#004773;stroke-linecap:round;stroke-linejoin:round;stroke-miterlimit:10;}
	.st100{fill:none;stroke:#004773;stroke-linecap:round;stroke-miterlimit:10;}
	.st101{fill:none;stroke:#74C936;stroke-linecap:round;stroke-linejoin:round;stroke-miterlimit:10;}
	.st102{fill:none;stroke:#439FE0;stroke-linecap:round;stroke-linejoin:round;stroke-miterlimit:10;}
	.st103{fill:none;stroke:#FFD11D;stroke-linecap:round;stroke-linejoin:round;stroke-miterlimit:10;}
	.st104{fill:#FEFEFE;stroke:#004773;stroke-width:0.8;stroke-linecap:round;stroke-linejoin:round;stroke-miterlimit:10;}
	.st105{fill:#F1F1F0;stroke:#004773;stroke-width:0.8;stroke-linecap:round;stroke-miterlimit:10;}
	.st106{fill:none;stroke:#004773;stroke-width:0.8;stroke-linejoin:round;stroke-miterlimit:10;}
	.st107{fill:#6BBD57;}
	.st108{fill:#4A4A4A;}
	.st109{clip-path:url(#SVGID_39_);}
	.st110{fill:#004773;stroke:#004773;stroke-width:0.8;stroke-linecap:round;stroke-linejoin:round;stroke-miterlimit:10;}
	.st111{fill:#F3F5FA;}
	.st112{fill:#6B7C8C;}
	.st113{fill:#4F5A77;}
	.st114{fill:#C8CDD7;}
	.st115{opacity:0.15;fill:#4F5A77;}
	.st116{fill:#83DE9A;}
	.st117{fill:#DCDEE4;}
	.st118{fill:#FFD100;}
	.st119{fill:#F6A08B;}
	.st120{fill:#F1F1F0;stroke:#535353;stroke-width:0.8;stroke-linecap:round;stroke-linejoin:round;stroke-miterlimit:10;}
	.st121{fill:#FFFFFF;stroke:#535353;stroke-width:0.8;stroke-miterlimit:10;}
	.st122{fill:#F76234;stroke:#535353;stroke-width:0.8;stroke-linecap:round;stroke-linejoin:round;stroke-miterlimit:10;}
	.st123{fill:#FFD11D;stroke:#535353;stroke-width:0.8;stroke-linecap:round;stroke-linejoin:round;stroke-miterlimit:10;}
	.st124{fill:#74C936;stroke:#535353;stroke-width:0.8;stroke-linecap:round;stroke-linejoin:round;stroke-miterlimit:10;}
	.st125{fill:#439FE0;stroke:#535353;stroke-width:0.8;stroke-linecap:round;stroke-linejoin:round;stroke-miterlimit:10;}
	.st126{opacity:0.2;fill:#455471;stroke:#535353;stroke-miterlimit:10;}
	.st127{fill:none;stroke:#535353;stroke-width:0.8;stroke-linecap:round;stroke-linejoin:round;stroke-miterlimit:10;}
	.st128{fill:#F76234;stroke:#455471;stroke-width:0.8;stroke-linecap:round;stroke-linejoin:round;stroke-miterlimit:10;}
	.st129{opacity:0.2;fill:#004773;stroke:#455471;stroke-miterlimit:10;}
	.st130{clip-path:url(#SVGID_43_);}
</style>
<g>
	<path class="st38" d="M211.9,45.3v60.6h-148V9.4c0-2.7,2.2-4.8,4.8-4.8h138.4c2.7,0,4.8,2.2,4.8,4.8v28.8V45.3z"/>
	<path class="st39" d="M69.5,105.8V11.6c0-0.8,0.6-1.4,1.4-1.4h134c0.8,0,1.4,0.6,1.4,1.4v94.2H69.5z"/>
	<path class="st40" d="M218.7,115.2H57c-3.3,0-6.2-2-7.4-5l-1.3-3.1c-0.3-0.8,0.3-1.7,1.1-1.7h176.8c0.9,0,1.4,0.9,1.1,1.7l-1.3,3.1
		C224.9,113.2,222,115.2,218.7,115.2z"/>
	<path class="st40" d="M155.9,110.3h-36c-2.7,0-4.9-2.2-4.9-4.9v0h45.7v0C160.7,108.1,158.6,110.3,155.9,110.3z"/>
	<g>
		<g>
			<circle class="st19" cx="90.9" cy="82.6" r="3.4"/>
		</g>
		<g>
			<circle class="st19" cx="122.2" cy="82.6" r="3.4"/>
		</g>
		<g>
			<circle class="st5" cx="153.5" cy="82.6" r="3.4"/>
		</g>
		<g>
			<circle class="st42" cx="184.9" cy="82.6" r="3.4"/>
		</g>
		<g>
			<circle class="st19" cx="90.9" cy="95.6" r="3.4"/>
		</g>
		<g>
			<circle class="st19" cx="122.2" cy="95.6" r="3.4"/>
		</g>
		<g>
			<circle class="st5" cx="153.5" cy="95.6" r="3.4"/>
		</g>
		<g>
			<circle class="st5" cx="184.9" cy="95.6" r="3.4"/>
		</g>
	</g>
	<line class="st38" x1="84.4" y1="72.7" x2="191.3" y2="72.7"/>
	<g>
		<defs>
			<circle id="SVGID_40_" cx="110.3" cy="41.7" r="25.7"/>
		</defs>
		<clipPath id="SVGID_2_">
			<use xlink:href="#SVGID_40_"  style="overflow:visible;"/>
		</clipPath>
	</g>
	<g>
		<rect x="145.7" y="22.2" class="st19" width="6.8" height="38.9"/>
		<rect x="158.6" y="22.2" class="st19" width="6.8" height="38.9"/>
		<rect x="171.6" y="22.2" class="st19" width="6.8" height="38.9"/>
		<rect x="184.5" y="22.2" class="st19" width="6.8" height="38.9"/>
		<rect x="145.7" y="53.5" class="st18" width="6.8" height="7.7"/>
		<rect x="145.7" y="48.6" class="st4" width="6.8" height="4.9"/>
		<rect x="158.6" y="56.7" class="st18" width="6.8" height="4.5"/>
		<rect x="158.6" y="43.6" class="st4" width="6.8" height="13.1"/>
		<rect x="171.6" y="55.8" class="st18" width="6.8" height="5.3"/>
		<rect x="171.6" y="50.5" class="st4" width="6.8" height="5.3"/>
		<rect x="184.5" y="53.8" class="st18" width="6.8" height="7.4"/>
		<rect x="184.5" y="45" class="st4" width="6.8" height="8.7"/>
	</g>
	<g class="st13">
		<path class="st14" d="M76.8,115.8c0.1-13,0.5-26,0.6-39.1c0.1-13,0.6-26,0-39c-0.2-3.9,0.3-8.2-3.4-10.7
			c-2.7-1.9-6.6-2.1-10.1-1.9v7c0.5,0,2.8,0,3.3,0c4.6,0,0.9,73.4,0.8,83.7H76.8z"/>
	</g>
	<g>
		<g>
			<path class="st4" d="M29.3,33.2c0-2.9,2.3-5.2,5.2-5.2H68c2.9,0,5.2,2.3,5.2,5.2v76.6c0,2.9-2.3,5.2-5.2,5.2H34.5
				c-2.9,0-5.2-2.3-5.2-5.2V33.2z"/>
			<rect x="32.9" y="39.8" class="st3" width="36.6" height="63.6"/>
			<g>
				<path class="st20" d="M55.5,37H47c-0.5,0-1-0.4-1-1l0,0c0-0.5,0.4-1,1-1h8.5c0.5,0,1,0.4,1,1l0,0C56.5,36.6,56.1,37,55.5,37z"/>
				<circle class="st20" cx="51.3" cy="32" r="1.2"/>
			</g>
			<circle class="st20" cx="51.3" cy="109.2" r="2.8"/>
		</g>
	</g>
	<g>
		<g>
			<g>
				<line class="st3" x1="37.7" y1="83.7" x2="37.7" y2="79.9"/>
				<line class="st3" x1="43.1" y1="77.2" x2="43.1" y2="83.7"/>
				<line class="st3" x1="48.5" y1="77.6" x2="48.5" y2="83.7"/>
				<line class="st3" x1="54" y1="71.6" x2="54" y2="83.7"/>
				<line class="st3" x1="59.4" y1="70.3" x2="59.4" y2="83.7"/>
				<line class="st3" x1="64.8" y1="67.5" x2="64.8" y2="83.7"/>
			</g>
		</g>
		<polyline class="st7" points="61.7,59.4 64.8,60.3 59.4,63 54,64.3 48.5,70.3 43.1,69.9 37.7,72.6 		"/>
		<line class="st7" x1="63.6" y1="63.2" x2="64.8" y2="60.3"/>
	</g>
	<g class="st13">
		<path class="st14" d="M43.4,36.5c-0.7,1.5-1.9,2.9-1.7,4.2c0.2,1.3,2.1,2.2,2.6,4.1c0.6,2.5-1.6,4.8-4.3,5.3
			c-1.8,0.3-4.6-0.8-6.5-1c-1.5-0.1-2.9,0-4.3,0.3v-6.7c1.1-0.2,2.2-0.4,3.4-0.4c1.3,0,5.7,0.2,5.6-0.8c-0.1-1.3,0.1-2.7,0.5-3.9
			c1.1-3.4,3-6.1,3.5-9.7c0,0,0-0.1,0-0.1h3.7V28C45.7,31.1,44.9,33.4,43.4,36.5z"/>
	</g>
	<g>
		<path class="st38" d="M8.4,13.7c-3.8,3.8-5.9,8.9-5.9,14.3c0,5.4,2.1,10.4,5.9,14.3c3.9,3.9,9.1,5.9,14.3,5.9
			c3.2,0,6.5-0.8,9.5-2.4c2.7,1.9,5.3,2.4,7.1,2.4c0.7,0,1.2-0.1,1.6-0.1c0.8-0.1,1.4-0.8,1.6-1.6c0.1-0.8-0.3-1.6-1-2
			c-1.5-0.8-2.6-2.3-3.2-3.6c6.6-8,6.1-19.7-1.3-27.1c-3.8-3.8-8.9-5.9-14.3-5.9C17.3,7.8,12.2,9.8,8.4,13.7L8.4,13.7z"/>
		<path class="st19" d="M27.2,35.1H18c-1.4,0-2.6-1.2-2.6-2.6v-9.2c0-1.4,1.2-2.6,2.6-2.6h9.2c1.4,0,2.6,1.2,2.6,2.6v9.2
			C29.8,33.9,28.6,35.1,27.2,35.1z"/>
	</g>
	<polyline id="XMLID_75_" class="st17" points="18.7,27.9 21.3,30.5 26.6,25.2 	"/>
	<circle class="st34" cx="110.3" cy="41.7" r="25.7"/>
	<g>
		<defs>
			<circle id="SVGID_42_" cx="110.3" cy="41.7" r="25.7"/>
		</defs>
		<clipPath id="SVGID_3_">
			<use xlink:href="#SVGID_42_"  style="overflow:visible;"/>
		</clipPath>
		<g style="clip-path:url(#SVGID_3_);">
			<g>
				<path class="st5" d="M126.6,65.4v3.5H93.9v-3.5c0-1.5,0.2-3,0.6-4.4c1.4-5,5.1-9.1,10-10.9v1.1c0,3.2,2.6,5.8,5.8,5.8
					s5.8-2.6,5.8-5.8v-1.1C122.2,52.5,126.6,58.4,126.6,65.4z"/>
				<path class="st4" d="M110.3,57c3.2,0,5.8-2.6,5.8-5.8v-1.1c-1.8-0.7-3.8-1.1-5.8-1.1h0c-2.1,0-4,0.4-5.8,1.1v1.1
					C104.4,54.4,107,57,110.3,57z"/>
			</g>
			<line class="st7" x1="116.1" y1="60.3" x2="121.8" y2="60.3"/>
			<path class="st4" d="M107.2,45.7v5.5c0,1.7,1.4,3,3,3c1.7,0,3-1.4,3-3v-5.5H107.2z"/>
			<path class="st4" d="M110.3,49L110.3,49c-5.6,0-10.1-4.5-10.1-10.1V28.7h14.2c3.3,0,6,2.7,6,6v4.3C120.4,44.5,115.8,49,110.3,49z
				"/>
			<g>
				<g>
					<path class="st7" d="M108,35.4c-1.4-0.8-3.2-0.3-4,1.1"/>
					<path class="st7" d="M112.5,35.4c1.4-0.8,3.2-0.3,4,1.1"/>
				</g>
				<g>
					<circle class="st20" cx="106.7" cy="39.4" r="1.1"/>
					<circle class="st20" cx="113.8" cy="39.4" r="1.1"/>
				</g>
				<path class="st7" d="M113.6,44.2c-1.9,1.9-4.9,1.9-6.7,0"/>
			</g>
			<path class="st3" d="M120.1,28.2c0,0,0.6-3.2-2.5-4.8l-0.6,1.1c0,0-1.1-4-5-3.7l0.1,1c0,0-9.9-4.2-14.1,5.4c0,0,0.7,0.5,2,1.1
				c-1.1,1.9-2.4,5.9,0.5,13.2c0,0-1-9.8,3.3-11.9c2.9,0.5,7.9,0.7,12.5-0.5c0,0-0.3,3.1,3.8,4.8v7.6
				C120.1,41.5,124.5,30.6,120.1,28.2z"/>
			<path class="st3" d="M101.8,29.1c3.1,1,8,1.8,14.4,0"/>
		</g>
	</g>
	<circle class="st44" cx="110.3" cy="41.7" r="25.7"/>
</g>
</svg>
