<?xml version="1.0" encoding="utf-8"?>
<!-- Generator: Adobe Illustrator 22.0.1, SVG Export Plug-In . SVG Version: 6.00 Build 0)  -->
<svg version="1.1" id="Layer_1" xmlns="http://www.w3.org/2000/svg" xmlns:xlink="http://www.w3.org/1999/xlink" x="0px" y="0px"
	 viewBox="0 0 100 100" style="enable-background:new 0 0 100 100;" xml:space="preserve">
<style type="text/css">
	.st0{fill:url(#SVGID_3_);}
	.st1{opacity:0.5;}
	.st2{fill:#FFFFFF;stroke:#D8DFF0;stroke-miterlimit:10;}
	.st3{fill:#F1F1F0;stroke:#004773;stroke-width:0.8;stroke-linecap:round;stroke-linejoin:round;stroke-miterlimit:10;}
	.st4{fill:#FFFFFF;stroke:#004773;stroke-width:0.8;stroke-linecap:round;stroke-linejoin:round;stroke-miterlimit:10;}
	.st5{fill:#439FE0;stroke:#004773;stroke-width:0.8;stroke-linecap:round;stroke-linejoin:round;stroke-miterlimit:10;}
	.st6{fill:#439FE0;}
	.st7{fill:none;stroke:#004773;stroke-width:0.8;stroke-linecap:round;stroke-linejoin:round;stroke-miterlimit:10;}
	
		.st8{fill:none;stroke:#004773;stroke-width:0.8;stroke-linecap:round;stroke-linejoin:round;stroke-miterlimit:10;stroke-dasharray:12,12;}
	.st9{display:none;fill:none;stroke:#455471;stroke-width:0.6572;stroke-miterlimit:10;}
	.st10{fill:#F1F1F0;stroke:#455471;stroke-width:0.8;stroke-linecap:round;stroke-linejoin:round;stroke-miterlimit:10;}
	.st11{fill:#F3AA3E;stroke:#455471;stroke-width:0.8;stroke-linecap:round;stroke-linejoin:round;stroke-miterlimit:10;}
	.st12{fill:#74C936;stroke:#455471;stroke-width:0.8;stroke-linecap:round;stroke-linejoin:round;stroke-miterlimit:10;}
	.st13{opacity:0.2;}
	.st14{fill:#455471;}
	.st15{fill:#FFFFFF;stroke:#455471;stroke-width:0.8;stroke-linecap:round;stroke-linejoin:round;stroke-miterlimit:10;}
	.st16{fill:#FFFFFF;stroke:#455471;stroke-width:0.94;stroke-linecap:round;stroke-miterlimit:10;}
	.st17{fill:none;stroke:#FFFFFF;stroke-width:0.8;stroke-linecap:round;stroke-linejoin:round;stroke-miterlimit:10;}
	.st18{fill:#FFD11D;stroke:#004773;stroke-width:0.8;stroke-linecap:round;stroke-linejoin:round;stroke-miterlimit:10;}
	.st19{fill:#74C936;stroke:#004773;stroke-width:0.8;stroke-linecap:round;stroke-linejoin:round;stroke-miterlimit:10;}
	.st20{fill:#004773;}
	.st21{fill:#FFFFFF;stroke:#004773;stroke-width:0.94;stroke-linecap:round;stroke-miterlimit:10;}
	.st22{fill:#FFFFFF;stroke:#455471;stroke-width:0.8822;stroke-linecap:round;stroke-miterlimit:10;}
	.st23{fill:#F1F1F0;stroke:#455471;stroke-width:0.8822;stroke-miterlimit:10;}
	.st24{fill:#FFFFFF;stroke:#455471;stroke-width:0.8822;stroke-miterlimit:10;}
	.st25{fill:none;stroke:#455471;stroke-width:1.0362;stroke-miterlimit:10;}
	.st26{fill:#74C936;stroke:#455471;stroke-width:0.8822;stroke-linecap:round;stroke-linejoin:round;stroke-miterlimit:10;}
	.st27{fill:#439FE0;stroke:#455471;stroke-width:0.8822;stroke-linecap:round;stroke-linejoin:round;stroke-miterlimit:10;}
	.st28{fill:#439FE0;stroke:#455471;stroke-width:0.8823;stroke-linecap:round;stroke-linejoin:round;stroke-miterlimit:10;}
	.st29{fill:#F3AA3E;stroke:#455471;stroke-width:0.8822;stroke-linecap:round;stroke-linejoin:round;stroke-miterlimit:10;}
	.st30{fill:#FFFFFF;stroke:#455471;stroke-width:0.8822;stroke-linecap:round;stroke-linejoin:round;stroke-miterlimit:10;}
	.st31{fill:#F1F1F0;stroke:#455471;stroke-width:0.8822;stroke-linecap:round;stroke-linejoin:round;stroke-miterlimit:10;}
	.st32{fill:none;stroke:#455471;stroke-width:0.8822;stroke-linecap:round;stroke-linejoin:round;stroke-miterlimit:10;}
	.st33{fill:none;stroke:#FFFFFF;stroke-width:0.8822;stroke-linecap:round;stroke-linejoin:round;stroke-miterlimit:10;}
	.st34{fill:#FFFFFF;}
	.st35{clip-path:url(#SVGID_7_);}
	.st36{fill:none;stroke:#455471;stroke-width:0.8822;stroke-miterlimit:10;}
	.st37{clip-path:url(#SVGID_11_);}
	.st38{fill:#FFFFFF;stroke:#004773;stroke-width:0.8;stroke-linecap:round;stroke-miterlimit:10;}
	.st39{fill:#F1F1F0;stroke:#004773;stroke-width:0.8;stroke-miterlimit:10;}
	.st40{fill:#FFFFFF;stroke:#004773;stroke-width:0.8;stroke-miterlimit:10;}
	.st41{fill:none;stroke:#455471;stroke-width:0.9396;stroke-miterlimit:10;}
	.st42{fill:#439FE0;stroke:#004773;stroke-width:0.8001;stroke-linecap:round;stroke-linejoin:round;stroke-miterlimit:10;}
	.st43{clip-path:url(#SVGID_15_);}
	.st44{fill:none;stroke:#004773;stroke-width:0.8;stroke-miterlimit:10;}
	.st45{fill:#74C936;}
	.st46{fill:#FFD11D;}
	.st47{fill:#F76234;}
	.st48{fill:#FFD11D;stroke:#004773;stroke-linecap:round;stroke-linejoin:round;stroke-miterlimit:10;}
	.st49{fill:none;stroke:#455471;stroke-width:0.7279;stroke-miterlimit:10;}
	.st50{clip-path:url(#SVGID_19_);}
	.st51{fill:#439FE0;stroke:#004773;stroke-width:0.6198;stroke-linecap:round;stroke-linejoin:round;stroke-miterlimit:10;}
	.st52{fill:#FFFFFF;stroke:#004773;stroke-width:0.6198;stroke-linecap:round;stroke-linejoin:round;stroke-miterlimit:10;}
	.st53{fill:none;stroke:#004773;stroke-width:0.6198;stroke-linecap:round;stroke-linejoin:round;stroke-miterlimit:10;}
	.st54{fill:#F1F1F0;stroke:#004773;stroke-width:0.6198;stroke-linecap:round;stroke-linejoin:round;stroke-miterlimit:10;}
	.st55{fill:none;stroke:#004773;stroke-width:0.6198;stroke-miterlimit:10;}
	.st56{clip-path:url(#SVGID_23_);}
	.st57{clip-path:url(#SVGID_27_);}
	.st58{clip-path:url(#SVGID_29_);}
	.st59{fill:#439FE0;stroke:#455471;stroke-width:0.8;stroke-linecap:round;stroke-linejoin:round;stroke-miterlimit:10;}
	.st60{fill:#FFFFFF;stroke:#455471;stroke-width:0.8;stroke-miterlimit:10;}
	.st61{clip-path:url(#SVGID_31_);}
	.st62{fill:none;stroke:#455471;stroke-width:0.8;stroke-linecap:round;stroke-linejoin:round;stroke-miterlimit:10;}
	.st63{fill:#F1F1F0;}
	.st64{fill:none;stroke:#455471;stroke-width:0.8;stroke-miterlimit:10;}
	.st65{fill:none;stroke:#455471;stroke-width:1.0207;stroke-linecap:round;stroke-linejoin:round;stroke-miterlimit:10;}
	.st66{fill:#F1F1F0;stroke:#FFFFFF;stroke-width:0.8;stroke-linecap:round;stroke-linejoin:round;stroke-miterlimit:10;}
	.st67{fill:none;stroke:#E0E0E0;stroke-width:0.7;stroke-linecap:round;stroke-linejoin:round;stroke-miterlimit:10;}
	.st68{clip-path:url(#SVGID_33_);}
	
		.st69{clip-path:url(#SVGID_33_);fill:#FFFFFF;stroke:#004773;stroke-width:0.8;stroke-linecap:round;stroke-linejoin:round;stroke-miterlimit:10;}
	.st70{clip-path:url(#SVGID_35_);}
	.st71{fill:#F76234;stroke:#004773;stroke-width:0.8;stroke-linecap:round;stroke-linejoin:round;stroke-miterlimit:10;}
	.st72{fill:#FFD11D;stroke:#004773;stroke-width:0.8;stroke-linejoin:round;stroke-miterlimit:10;}
	.st73{fill:#F76234;stroke:#004773;stroke-width:0.8;stroke-miterlimit:10;}
	.st74{fill:#FFFFFF;stroke:#004675;stroke-width:0.7;stroke-linecap:round;stroke-linejoin:round;stroke-miterlimit:10;}
	.st75{fill:#FCD745;stroke:#004675;stroke-width:0.7;stroke-linecap:round;stroke-linejoin:round;stroke-miterlimit:10;}
	.st76{fill:#FBE592;stroke:#004675;stroke-width:0.7;stroke-linecap:round;stroke-linejoin:round;stroke-miterlimit:10;}
	.st77{fill:#1DABFB;stroke:#004675;stroke-width:0.7;stroke-linecap:round;stroke-linejoin:round;stroke-miterlimit:10;}
	.st78{fill:#2278CF;stroke:#004675;stroke-width:0.7;stroke-linecap:round;stroke-linejoin:round;stroke-miterlimit:10;}
	.st79{fill:none;stroke:#004675;stroke-width:0.7;stroke-linecap:round;stroke-linejoin:round;stroke-miterlimit:10;}
	.st80{fill:#004675;}
	.st81{fill:#37BC79;}
	.st82{fill:#FBE592;}
	.st83{fill:#CE93D8;}
	.st84{fill:#B3E5FC;}
	.st85{fill:#3D9DE2;}
	.st86{fill:#4E80DC;stroke:#004675;stroke-width:0.7;stroke-linecap:round;stroke-linejoin:round;stroke-miterlimit:10;}
	.st87{fill:#37BC79;stroke:#004675;stroke-width:0.7;stroke-linecap:round;stroke-linejoin:round;stroke-miterlimit:10;}
	.st88{fill:#FFFFFF;stroke:#004675;stroke-width:0.7;stroke-linecap:round;stroke-miterlimit:10;}
	.st89{fill:#D5D5D4;stroke:#004675;stroke-width:0.7;stroke-linecap:round;stroke-linejoin:round;stroke-miterlimit:10;}
	.st90{fill:#F1EAEA;stroke:#004675;stroke-width:0.7;stroke-linecap:round;stroke-linejoin:round;stroke-miterlimit:10;}
	.st91{fill:#E0C2D2;}
	.st92{fill:#F1EAEA;stroke:#004675;stroke-width:0.7;stroke-miterlimit:10;}
	.st93{fill:none;stroke:#004675;stroke-width:0.7;stroke-linecap:round;stroke-miterlimit:10;}
	.st94{fill:#FFFFFF;stroke:#455471;stroke-width:0.8;stroke-linecap:round;stroke-miterlimit:10;}
	.st95{fill:#FFD11D;stroke:#455471;stroke-width:0.8;stroke-linecap:round;stroke-linejoin:round;stroke-miterlimit:10;}
	.st96{opacity:0.2;fill:#455471;}
	.st97{fill:none;stroke:#004773;stroke-linecap:round;stroke-linejoin:round;stroke-miterlimit:10;}
	.st98{fill:#74C936;stroke:#004773;stroke-linecap:round;stroke-linejoin:round;stroke-miterlimit:10;}
	.st99{fill:#439FE0;stroke:#004773;stroke-linecap:round;stroke-linejoin:round;stroke-miterlimit:10;}
	.st100{fill:none;stroke:#004773;stroke-linecap:round;stroke-miterlimit:10;}
	.st101{fill:none;stroke:#74C936;stroke-linecap:round;stroke-linejoin:round;stroke-miterlimit:10;}
	.st102{fill:none;stroke:#439FE0;stroke-linecap:round;stroke-linejoin:round;stroke-miterlimit:10;}
	.st103{fill:none;stroke:#FFD11D;stroke-linecap:round;stroke-linejoin:round;stroke-miterlimit:10;}
	.st104{fill:#FEFEFE;stroke:#004773;stroke-width:0.8;stroke-linecap:round;stroke-linejoin:round;stroke-miterlimit:10;}
	.st105{fill:#F1F1F0;stroke:#004773;stroke-width:0.8;stroke-linecap:round;stroke-miterlimit:10;}
	.st106{fill:none;stroke:#004773;stroke-width:0.8;stroke-linejoin:round;stroke-miterlimit:10;}
	.st107{fill:#6BBD57;}
	.st108{fill:#4A4A4A;}
	.st109{clip-path:url(#SVGID_39_);}
	.st110{fill:#004773;stroke:#004773;stroke-width:0.8;stroke-linecap:round;stroke-linejoin:round;stroke-miterlimit:10;}
	.st111{fill:#F3F5FA;}
	.st112{fill:#6B7C8C;}
	.st113{fill:#4F5A77;}
	.st114{fill:#C8CDD7;}
	.st115{opacity:0.15;fill:#4F5A77;}
	.st116{fill:#83DE9A;}
	.st117{fill:#DCDEE4;}
	.st118{fill:#FFD100;}
	.st119{fill:#F6A08B;}
	.st120{fill:#F1F1F0;stroke:#535353;stroke-width:0.8;stroke-linecap:round;stroke-linejoin:round;stroke-miterlimit:10;}
	.st121{fill:#FFFFFF;stroke:#535353;stroke-width:0.8;stroke-miterlimit:10;}
	.st122{fill:#F76234;stroke:#535353;stroke-width:0.8;stroke-linecap:round;stroke-linejoin:round;stroke-miterlimit:10;}
	.st123{fill:#FFD11D;stroke:#535353;stroke-width:0.8;stroke-linecap:round;stroke-linejoin:round;stroke-miterlimit:10;}
	.st124{fill:#74C936;stroke:#535353;stroke-width:0.8;stroke-linecap:round;stroke-linejoin:round;stroke-miterlimit:10;}
	.st125{fill:#439FE0;stroke:#535353;stroke-width:0.8;stroke-linecap:round;stroke-linejoin:round;stroke-miterlimit:10;}
	.st126{opacity:0.2;fill:#455471;stroke:#535353;stroke-miterlimit:10;}
	.st127{fill:none;stroke:#535353;stroke-width:0.8;stroke-linecap:round;stroke-linejoin:round;stroke-miterlimit:10;}
	.st128{fill:#F76234;stroke:#455471;stroke-width:0.8;stroke-linecap:round;stroke-linejoin:round;stroke-miterlimit:10;}
	.st129{opacity:0.2;fill:#004773;stroke:#455471;stroke-miterlimit:10;}
	.st130{clip-path:url(#SVGID_43_);}
</style>
<g>
	<path class="st10" d="M91.8,31.8c0,9.3-7.5,16.8-16.8,16.8v-5.8c6,0,10.9-4.9,10.9-10.9c0-6-4.9-10.9-10.9-10.9v-5.8
		C84.3,15.1,91.8,22.6,91.8,31.8z"/>
	<path class="st10" d="M14.1,31.8c0,6,4.9,10.9,10.9,10.9v5.8c-9.3,0-16.8-7.5-16.8-16.8c0-9.3,7.5-16.8,16.8-16.8v5.8
		C19,20.9,14.1,25.8,14.1,31.8z"/>
	<path id="XMLID_68_" class="st40" d="M68.6,5H31.4C27.3,5,24,8.3,24,12.4v30.3c0,12.8,9.2,23.4,21.4,25.5V80H30.8
		c-1.6,0-2.8,1.3-2.8,2.8v4.9H72v-4.9c0-1.6-1.3-2.8-2.8-2.8H54.6V68.2C66.7,66.1,76,55.5,76,42.7V12.4C76,8.3,72.7,5,68.6,5z"/>
	<path class="st10" d="M76.9,95H23.1c-0.6,0-1.2-0.5-1.2-1.2v-5c0-0.6,0.5-1.2,1.2-1.2h53.8c0.6,0,1.2,0.5,1.2,1.2v5
		C78,94.5,77.5,95,76.9,95z"/>
	<path id="XMLID_67_" class="st60" d="M72,82.8c0-1.6-1.3-2.8-2.8-2.8H54.6V68.2C66.7,66.1,76,55.5,76,42.7V12.4
		C76,8.3,72.7,5,68.6,5H31.4C27.3,5,24,8.3,24,12.4v30.3c0,12.8,9.2,23.4,21.4,25.5V80H30.8c-1.6,0-2.8,1.3-2.8,2.8"/>
	<path class="st96" d="M76,12.4v30.3c0,12.8-9.2,23.4-21.4,25.5v-0.8c9.1-4,15.4-13.1,15.4-23.7V13.4C70,9.3,66.8,5,62.7,5l5.9,0
		C72.7,5,76,8.3,76,12.4z"/>
	<path class="st18" d="M60.6,36.7c-0.4,0.4-0.8,0.7-1.2,1.1c-0.3,0.3-0.5,0.8-0.4,1.2c0.5,2.9,0.8,5.8,1.2,8.7
		c0.1,1.1-1.1,2.1-2.1,1.6c-2.5-1.3-5-2.6-7.6-4c-0.4-0.2-0.9-0.2-1.3,0c-2.6,1.4-5.1,2.7-7.6,4c-1,0.5-2.2-0.5-2.1-1.6
		c0.3-2.9,0.7-5.8,1.2-8.7c0.1-0.5-0.1-0.9-0.4-1.2c-2.2-2.1-4.4-4.2-6.5-6.1c-0.8-0.8-0.3-2.1,0.8-2.3c0.9-0.2,1.9-0.3,2.8-0.5
		c0.5-0.1,0.9-0.2,1.4-0.2c0.4-0.1,0.7-0.1,1.1-0.2c1.2-0.2,2.4-0.4,3.7-0.6c0.5-0.1,0.9-0.4,1.1-0.8c1.4-2.7,2.7-5.4,4-8.1
		c0.5-1.1,1.9-1.1,2.4,0c1.3,2.7,2.6,5.4,4,8.1c0.2,0.4,0.6,0.7,1.1,0.8c3,0.5,5.9,1,8.9,1.5c1.2,0.2,1.7,1.6,0.8,2.3
		c-0.6,0.6-1.2,1.2-1.9,1.7L60.6,36.7z"/>
</g>
</svg>
