<?xml version="1.0" encoding="utf-8"?>
<!-- Generator: Adobe Illustrator 22.0.1, SVG Export Plug-In . SVG Version: 6.00 Build 0)  -->
<svg version="1.1" id="Layer_1" xmlns="http://www.w3.org/2000/svg" xmlns:xlink="http://www.w3.org/1999/xlink" x="0px" y="0px"
	 viewBox="0 0 230 130" style="enable-background:new 0 0 230 130;" xml:space="preserve">
<style type="text/css">
	.st0{fill:url(#SVGID_3_);}
	.st1{opacity:0.5;}
	.st2{fill:#FFFFFF;stroke:#D8DFF0;stroke-miterlimit:10;}
	.st3{fill:#F1F1F0;stroke:#004773;stroke-width:0.8;stroke-linecap:round;stroke-linejoin:round;stroke-miterlimit:10;}
	.st4{fill:#FFFFFF;stroke:#004773;stroke-width:0.8;stroke-linecap:round;stroke-linejoin:round;stroke-miterlimit:10;}
	.st5{fill:#439FE0;stroke:#004773;stroke-width:0.8;stroke-linecap:round;stroke-linejoin:round;stroke-miterlimit:10;}
	.st6{fill:#439FE0;}
	.st7{fill:none;stroke:#004773;stroke-width:0.8;stroke-linecap:round;stroke-linejoin:round;stroke-miterlimit:10;}
	
		.st8{fill:none;stroke:#004773;stroke-width:0.8;stroke-linecap:round;stroke-linejoin:round;stroke-miterlimit:10;stroke-dasharray:12,12;}
	.st9{display:none;fill:none;stroke:#455471;stroke-width:0.6572;stroke-miterlimit:10;}
	.st10{fill:#F1F1F0;stroke:#455471;stroke-width:0.8;stroke-linecap:round;stroke-linejoin:round;stroke-miterlimit:10;}
	.st11{fill:#F3AA3E;stroke:#455471;stroke-width:0.8;stroke-linecap:round;stroke-linejoin:round;stroke-miterlimit:10;}
	.st12{fill:#74C936;stroke:#455471;stroke-width:0.8;stroke-linecap:round;stroke-linejoin:round;stroke-miterlimit:10;}
	.st13{opacity:0.2;}
	.st14{fill:#455471;}
	.st15{fill:#FFFFFF;stroke:#455471;stroke-width:0.8;stroke-linecap:round;stroke-linejoin:round;stroke-miterlimit:10;}
	.st16{fill:#FFFFFF;stroke:#455471;stroke-width:0.94;stroke-linecap:round;stroke-miterlimit:10;}
	.st17{fill:none;stroke:#FFFFFF;stroke-width:0.8;stroke-linecap:round;stroke-linejoin:round;stroke-miterlimit:10;}
	.st18{fill:#FFD11D;stroke:#004773;stroke-width:0.8;stroke-linecap:round;stroke-linejoin:round;stroke-miterlimit:10;}
	.st19{fill:#74C936;stroke:#004773;stroke-width:0.8;stroke-linecap:round;stroke-linejoin:round;stroke-miterlimit:10;}
	.st20{fill:#004773;}
	.st21{fill:#FFFFFF;stroke:#004773;stroke-width:0.94;stroke-linecap:round;stroke-miterlimit:10;}
	.st22{fill:#FFFFFF;stroke:#455471;stroke-width:0.8822;stroke-linecap:round;stroke-miterlimit:10;}
	.st23{fill:#F1F1F0;stroke:#455471;stroke-width:0.8822;stroke-miterlimit:10;}
	.st24{fill:#FFFFFF;stroke:#455471;stroke-width:0.8822;stroke-miterlimit:10;}
	.st25{fill:none;stroke:#455471;stroke-width:1.0362;stroke-miterlimit:10;}
	.st26{fill:#74C936;stroke:#455471;stroke-width:0.8822;stroke-linecap:round;stroke-linejoin:round;stroke-miterlimit:10;}
	.st27{fill:#439FE0;stroke:#455471;stroke-width:0.8822;stroke-linecap:round;stroke-linejoin:round;stroke-miterlimit:10;}
	.st28{fill:#439FE0;stroke:#455471;stroke-width:0.8823;stroke-linecap:round;stroke-linejoin:round;stroke-miterlimit:10;}
	.st29{fill:#F3AA3E;stroke:#455471;stroke-width:0.8822;stroke-linecap:round;stroke-linejoin:round;stroke-miterlimit:10;}
	.st30{fill:#FFFFFF;stroke:#455471;stroke-width:0.8822;stroke-linecap:round;stroke-linejoin:round;stroke-miterlimit:10;}
	.st31{fill:#F1F1F0;stroke:#455471;stroke-width:0.8822;stroke-linecap:round;stroke-linejoin:round;stroke-miterlimit:10;}
	.st32{fill:none;stroke:#455471;stroke-width:0.8822;stroke-linecap:round;stroke-linejoin:round;stroke-miterlimit:10;}
	.st33{fill:none;stroke:#FFFFFF;stroke-width:0.8822;stroke-linecap:round;stroke-linejoin:round;stroke-miterlimit:10;}
	.st34{fill:#FFFFFF;}
	.st35{clip-path:url(#SVGID_7_);}
	.st36{fill:none;stroke:#455471;stroke-width:0.8822;stroke-miterlimit:10;}
	.st37{clip-path:url(#SVGID_11_);}
	.st38{fill:#FFFFFF;stroke:#004773;stroke-width:0.8;stroke-linecap:round;stroke-miterlimit:10;}
	.st39{fill:#F1F1F0;stroke:#004773;stroke-width:0.8;stroke-miterlimit:10;}
	.st40{fill:#FFFFFF;stroke:#004773;stroke-width:0.8;stroke-miterlimit:10;}
	.st41{fill:none;stroke:#455471;stroke-width:0.9396;stroke-miterlimit:10;}
	.st42{fill:#439FE0;stroke:#004773;stroke-width:0.8001;stroke-linecap:round;stroke-linejoin:round;stroke-miterlimit:10;}
	.st43{clip-path:url(#SVGID_15_);}
	.st44{fill:none;stroke:#004773;stroke-width:0.8;stroke-miterlimit:10;}
	.st45{fill:#74C936;}
	.st46{fill:#FFD11D;}
	.st47{fill:#F76234;}
	.st48{fill:#FFD11D;stroke:#004773;stroke-linecap:round;stroke-linejoin:round;stroke-miterlimit:10;}
	.st49{fill:none;stroke:#455471;stroke-width:0.7279;stroke-miterlimit:10;}
	.st50{clip-path:url(#SVGID_19_);}
	.st51{fill:#439FE0;stroke:#004773;stroke-width:0.6198;stroke-linecap:round;stroke-linejoin:round;stroke-miterlimit:10;}
	.st52{fill:#FFFFFF;stroke:#004773;stroke-width:0.6198;stroke-linecap:round;stroke-linejoin:round;stroke-miterlimit:10;}
	.st53{fill:none;stroke:#004773;stroke-width:0.6198;stroke-linecap:round;stroke-linejoin:round;stroke-miterlimit:10;}
	.st54{fill:#F1F1F0;stroke:#004773;stroke-width:0.6198;stroke-linecap:round;stroke-linejoin:round;stroke-miterlimit:10;}
	.st55{fill:none;stroke:#004773;stroke-width:0.6198;stroke-miterlimit:10;}
	.st56{clip-path:url(#SVGID_23_);}
	.st57{clip-path:url(#SVGID_27_);}
	.st58{clip-path:url(#SVGID_29_);}
	.st59{fill:#439FE0;stroke:#455471;stroke-width:0.8;stroke-linecap:round;stroke-linejoin:round;stroke-miterlimit:10;}
	.st60{fill:#FFFFFF;stroke:#455471;stroke-width:0.8;stroke-miterlimit:10;}
	.st61{clip-path:url(#SVGID_31_);}
	.st62{fill:none;stroke:#455471;stroke-width:0.8;stroke-linecap:round;stroke-linejoin:round;stroke-miterlimit:10;}
	.st63{fill:#F1F1F0;}
	.st64{fill:none;stroke:#455471;stroke-width:0.8;stroke-miterlimit:10;}
	.st65{fill:none;stroke:#455471;stroke-width:1.0207;stroke-linecap:round;stroke-linejoin:round;stroke-miterlimit:10;}
	.st66{fill:#F1F1F0;stroke:#FFFFFF;stroke-width:0.8;stroke-linecap:round;stroke-linejoin:round;stroke-miterlimit:10;}
	.st67{fill:none;stroke:#E0E0E0;stroke-width:0.7;stroke-linecap:round;stroke-linejoin:round;stroke-miterlimit:10;}
	.st68{clip-path:url(#SVGID_33_);}
	
		.st69{clip-path:url(#SVGID_33_);fill:#FFFFFF;stroke:#004773;stroke-width:0.8;stroke-linecap:round;stroke-linejoin:round;stroke-miterlimit:10;}
	.st70{clip-path:url(#SVGID_35_);}
	.st71{fill:#F76234;stroke:#004773;stroke-width:0.8;stroke-linecap:round;stroke-linejoin:round;stroke-miterlimit:10;}
	.st72{fill:#FFD11D;stroke:#004773;stroke-width:0.8;stroke-linejoin:round;stroke-miterlimit:10;}
	.st73{fill:#F76234;stroke:#004773;stroke-width:0.8;stroke-miterlimit:10;}
	.st74{fill:#FFFFFF;stroke:#004675;stroke-width:0.7;stroke-linecap:round;stroke-linejoin:round;stroke-miterlimit:10;}
	.st75{fill:#FCD745;stroke:#004675;stroke-width:0.7;stroke-linecap:round;stroke-linejoin:round;stroke-miterlimit:10;}
	.st76{fill:#FBE592;stroke:#004675;stroke-width:0.7;stroke-linecap:round;stroke-linejoin:round;stroke-miterlimit:10;}
	.st77{fill:#1DABFB;stroke:#004675;stroke-width:0.7;stroke-linecap:round;stroke-linejoin:round;stroke-miterlimit:10;}
	.st78{fill:#2278CF;stroke:#004675;stroke-width:0.7;stroke-linecap:round;stroke-linejoin:round;stroke-miterlimit:10;}
	.st79{fill:none;stroke:#004675;stroke-width:0.7;stroke-linecap:round;stroke-linejoin:round;stroke-miterlimit:10;}
	.st80{fill:#004675;}
	.st81{fill:#37BC79;}
	.st82{fill:#FBE592;}
	.st83{fill:#CE93D8;}
	.st84{fill:#B3E5FC;}
	.st85{fill:#3D9DE2;}
	.st86{fill:#4E80DC;stroke:#004675;stroke-width:0.7;stroke-linecap:round;stroke-linejoin:round;stroke-miterlimit:10;}
	.st87{fill:#37BC79;stroke:#004675;stroke-width:0.7;stroke-linecap:round;stroke-linejoin:round;stroke-miterlimit:10;}
	.st88{fill:#FFFFFF;stroke:#004675;stroke-width:0.7;stroke-linecap:round;stroke-miterlimit:10;}
	.st89{fill:#D5D5D4;stroke:#004675;stroke-width:0.7;stroke-linecap:round;stroke-linejoin:round;stroke-miterlimit:10;}
	.st90{fill:#F1EAEA;stroke:#004675;stroke-width:0.7;stroke-linecap:round;stroke-linejoin:round;stroke-miterlimit:10;}
	.st91{fill:#E0C2D2;}
	.st92{fill:#F1EAEA;stroke:#004675;stroke-width:0.7;stroke-miterlimit:10;}
	.st93{fill:none;stroke:#004675;stroke-width:0.7;stroke-linecap:round;stroke-miterlimit:10;}
	.st94{fill:#FFFFFF;stroke:#455471;stroke-width:0.8;stroke-linecap:round;stroke-miterlimit:10;}
	.st95{fill:#FFD11D;stroke:#455471;stroke-width:0.8;stroke-linecap:round;stroke-linejoin:round;stroke-miterlimit:10;}
	.st96{opacity:0.2;fill:#455471;}
	.st97{fill:none;stroke:#004773;stroke-linecap:round;stroke-linejoin:round;stroke-miterlimit:10;}
	.st98{fill:#74C936;stroke:#004773;stroke-linecap:round;stroke-linejoin:round;stroke-miterlimit:10;}
	.st99{fill:#439FE0;stroke:#004773;stroke-linecap:round;stroke-linejoin:round;stroke-miterlimit:10;}
	.st100{fill:none;stroke:#004773;stroke-linecap:round;stroke-miterlimit:10;}
	.st101{fill:none;stroke:#74C936;stroke-linecap:round;stroke-linejoin:round;stroke-miterlimit:10;}
	.st102{fill:none;stroke:#439FE0;stroke-linecap:round;stroke-linejoin:round;stroke-miterlimit:10;}
	.st103{fill:none;stroke:#FFD11D;stroke-linecap:round;stroke-linejoin:round;stroke-miterlimit:10;}
	.st104{fill:#FEFEFE;stroke:#004773;stroke-width:0.8;stroke-linecap:round;stroke-linejoin:round;stroke-miterlimit:10;}
	.st105{fill:#F1F1F0;stroke:#004773;stroke-width:0.8;stroke-linecap:round;stroke-miterlimit:10;}
	.st106{fill:none;stroke:#004773;stroke-width:0.8;stroke-linejoin:round;stroke-miterlimit:10;}
	.st107{fill:#6BBD57;}
	.st108{fill:#4A4A4A;}
	.st109{clip-path:url(#SVGID_39_);}
	.st110{fill:#004773;stroke:#004773;stroke-width:0.8;stroke-linecap:round;stroke-linejoin:round;stroke-miterlimit:10;}
	.st111{fill:#F3F5FA;}
	.st112{fill:#6B7C8C;}
	.st113{fill:#4F5A77;}
	.st114{fill:#C8CDD7;}
	.st115{opacity:0.15;fill:#4F5A77;}
	.st116{fill:#83DE9A;}
	.st117{fill:#DCDEE4;}
	.st118{fill:#FFD100;}
	.st119{fill:#F6A08B;}
	.st120{fill:#F1F1F0;stroke:#535353;stroke-width:0.8;stroke-linecap:round;stroke-linejoin:round;stroke-miterlimit:10;}
	.st121{fill:#FFFFFF;stroke:#535353;stroke-width:0.8;stroke-miterlimit:10;}
	.st122{fill:#F76234;stroke:#535353;stroke-width:0.8;stroke-linecap:round;stroke-linejoin:round;stroke-miterlimit:10;}
	.st123{fill:#FFD11D;stroke:#535353;stroke-width:0.8;stroke-linecap:round;stroke-linejoin:round;stroke-miterlimit:10;}
	.st124{fill:#74C936;stroke:#535353;stroke-width:0.8;stroke-linecap:round;stroke-linejoin:round;stroke-miterlimit:10;}
	.st125{fill:#439FE0;stroke:#535353;stroke-width:0.8;stroke-linecap:round;stroke-linejoin:round;stroke-miterlimit:10;}
	.st126{opacity:0.2;fill:#455471;stroke:#535353;stroke-miterlimit:10;}
	.st127{fill:none;stroke:#535353;stroke-width:0.8;stroke-linecap:round;stroke-linejoin:round;stroke-miterlimit:10;}
	.st128{fill:#F76234;stroke:#455471;stroke-width:0.8;stroke-linecap:round;stroke-linejoin:round;stroke-miterlimit:10;}
	.st129{opacity:0.2;fill:#004773;stroke:#455471;stroke-miterlimit:10;}
	.st130{clip-path:url(#SVGID_43_);}
</style>
<g>
	<path class="st94" d="M66.6,68.3c4.2,0.3,9.4-0.7,14.8-3.1c6.3-2.8,10.7-2,13.1-1L84.4,46.8c-1.2-2.1-4.1-2.1-5.3,0L66.6,68.3z"/>
	<path class="st10" d="M124,115.4H38.2l28.5-47c4.2,0.2,9.4-0.7,14.8-3.1c6.3-2.8,10.7-2,13.1-1l14.1,24.4l5.7,9.9L124,115.4z"/>
	<path class="st15" d="M103.2,18.6c0.2,0,0.4,0,0.6,0c1.4-3.8,5.1-6.6,9.4-6.6c4.7,0,8.6,3.3,9.7,7.6c3.3,0.1,5.9,2.8,5.9,6.2
		l-32.4-0.6C96.4,21.7,99.5,18.6,103.2,18.6z"/>
	<g>
		<path class="st94" d="M223.5,115.5H6.5c-2.8,0-5,2.2-5,5v0c0,2.8,2.2,5,5,5h216.9c2.8,0,5-2.2,5-5v0
			C228.5,117.8,226.2,115.5,223.5,115.5z"/>
	</g>
	<path class="st94" d="M171.8,54.6c-5.4,0.3-12.1-0.9-19-4c-8.1-3.6-13.9-2.5-16.9-1.3l13-22.5c1.5-2.6,5.3-2.6,6.9,0L171.8,54.6z"
		/>
	<g>
		<g>
			<path class="st94" d="M27.6,111h-3.9V67c0-1.1,0.9-1.9,1.9-1.9h0c1.1,0,1.9,0.9,1.9,1.9V111z"/>
			<path class="st10" d="M30.8,111H20.4c-0.9,0-1.6,0.7-1.6,1.6v2.9h13.6v-2.9C32.4,111.8,31.7,111,30.8,111z"/>
			<polygon class="st59" points="8.8,79 29.2,79 29.2,87.5 8.8,87.5 4.9,83.2 			"/>
			<polygon class="st95" points="42.5,79 22,79 22,70.6 42.5,70.6 46.4,74.8 			"/>
			<polygon class="st128" points="42.5,95.9 22,95.9 22,87.5 42.5,87.5 46.4,91.7 			"/>
		</g>
		<rect x="23.7" y="95.9" class="st129" width="3.9" height="1.5"/>
	</g>
	<path class="st96" d="M114.3,98.5c-1.2,1.8-2.5,3.5-3.8,5.4c-1.3,2-1.8,4.2-2.8,6.3c-0.9,1.8-2.6,3.2-3.1,5.1h-9.7
		c-0.2-0.8-0.3-1.7,0-2.6c0.6-2.4,1.8-3.9,3.1-5.9c1.1-1.7,1.6-3.7,2.5-5.6c2-4,5.7-7.1,7.3-11.3c0.2-0.5,0.4-0.9,0.7-1.3
		L114.3,98.5z"/>
	<path class="st10" d="M135.8,49.2c3-1.2,8.7-2.3,16.9,1.3c6.9,3.1,13.6,4.3,19,4l36.7,60.7H97.7L135.8,49.2z"/>
	<g>
		<path class="st12" d="M182.3,93.4c0,7.2,5.8,13.1,13.1,13.1c7.2,0,13.1-5.8,13.1-13.1s-5.8-31.2-13.1-31.2
			C188.2,62.2,182.3,86.2,182.3,93.4z"/>
		<line class="st62" x1="195.4" y1="79.7" x2="195.4" y2="115.5"/>
		<line class="st62" x1="201.2" y1="89.4" x2="195.6" y2="95"/>
		<line class="st62" x1="191.5" y1="84.8" x2="195.3" y2="88.6"/>
	</g>
	<g>
		<path class="st18" d="M136.9,97.7h-7.4v-9.2c0-1.6-1.3-2.9-2.9-2.9H68.7c-1.6,0-2.9,1.3-2.9,2.9v21.1h63.6h10.2v-9.1
			C139.7,98.9,138.4,97.7,136.9,97.7z"/>
		<path class="st4" d="M129.5,106h10.8c0.3,0,0.6,0.3,0.6,0.6v2.5c0,0.3-0.3,0.6-0.6,0.6h-10.8V106z"/>
		<path class="st4" d="M77.8,109.6H65.3c-0.3,0-0.6-0.3-0.6-0.6v-2.5c0-0.3,0.3-0.6,0.6-0.6h12.5V109.6z"/>
		<line class="st3" x1="65.9" y1="102.1" x2="139.7" y2="102.1"/>
		<line class="st3" x1="65.9" y1="97.7" x2="129.5" y2="97.7"/>
		<path class="st5" d="M75.9,90.4h-7.1c-0.3,0-0.6,0.3-0.6,0.6v6.6h8.3V91C76.4,90.7,76.2,90.4,75.9,90.4z"/>
		<path class="st5" d="M84.7,90.4h-5.4c-0.3,0-0.6,0.3-0.6,0.6v6.6h6.6V91C85.3,90.7,85,90.4,84.7,90.4z"/>
		<path class="st5" d="M93.6,90.4h-5.4c-0.3,0-0.6,0.3-0.6,0.6v6.6h6.6V91C94.1,90.7,93.9,90.4,93.6,90.4z"/>
		<path class="st5" d="M102.4,90.4H97c-0.3,0-0.6,0.3-0.6,0.6v6.6h6.6V91C103,90.7,102.7,90.4,102.4,90.4z"/>
		<path class="st5" d="M111.3,90.4h-5.4c-0.3,0-0.6,0.3-0.6,0.6v6.6h6.6V91C111.9,90.7,111.6,90.4,111.3,90.4z"/>
		<path class="st5" d="M129.5,90.4h-4.8c-0.3,0-0.6,0.3-0.6,0.6v6.6h5.3V90.4z"/>
		<line class="st5" x1="68.1" y1="95.5" x2="76.4" y2="95.5"/>
		<line class="st5" x1="78.7" y1="95.5" x2="85.3" y2="95.5"/>
		<line class="st5" x1="87.6" y1="95.5" x2="94.1" y2="95.5"/>
		<line class="st5" x1="96.4" y1="95.5" x2="103" y2="95.5"/>
		<line class="st5" x1="105.3" y1="95.5" x2="111.9" y2="95.5"/>
		<circle class="st3" cx="77.8" cy="109.6" r="5.7"/>
		<circle class="st3" cx="129.5" cy="109.6" r="5.7"/>
		<circle class="st4" cx="77.8" cy="109.6" r="3"/>
		<circle class="st4" cx="129.5" cy="109.6" r="3"/>
		<path class="st5" d="M121.3,90.4h-6.6c-0.3,0-0.6,0.3-0.6,0.6v18.6h7.7V91C121.9,90.7,121.6,90.4,121.3,90.4z"/>
		<rect x="136.6" y="100.9" class="st71" width="3.1" height="2.6"/>
		<rect x="65.9" y="100.9" class="st71" width="3.1" height="2.6"/>
	</g>
	<path class="st15" d="M37.9,45c0.2,0,0.3,0,0.5,0c1.1-3.1,4.1-5.3,7.6-5.3c3.8,0,7,2.6,7.9,6.2c2.7,0.1,4.8,2.3,4.8,5l-26.3-0.4
		C32.5,47.5,34.9,45,37.9,45z"/>
	<g>
		<g id="XMLID_69_">
			<path id="XMLID_70_" class="st59" d="M142.7,14.9c0-5.8,4.7-10.4,10.4-10.4c5.8,0,10.4,4.7,10.4,10.4s-10.4,16.6-10.4,16.6
				S142.7,20.7,142.7,14.9z"/>
		</g>
		<circle class="st15" cx="153.1" cy="14.7" r="5.2"/>
	</g>
</g>
</svg>
