<?xml version="1.0" encoding="utf-8"?>
<!-- Generator: Adobe Illustrator 22.0.1, SVG Export Plug-In . SVG Version: 6.00 Build 0)  -->
<svg version="1.1" id="Layer_1" xmlns="http://www.w3.org/2000/svg" xmlns:xlink="http://www.w3.org/1999/xlink" x="0px" y="0px"
	 viewBox="0 0 180 130" style="enable-background:new 0 0 180 130;" xml:space="preserve">
<style type="text/css">
	.st0{fill:url(#SVGID_3_);}
	.st1{opacity:0.5;}
	.st2{fill:#FFFFFF;stroke:#D8DFF0;stroke-miterlimit:10;}
	.st3{fill:#F1F1F0;stroke:#004773;stroke-width:0.8;stroke-linecap:round;stroke-linejoin:round;stroke-miterlimit:10;}
	.st4{fill:#FFFFFF;stroke:#004773;stroke-width:0.8;stroke-linecap:round;stroke-linejoin:round;stroke-miterlimit:10;}
	.st5{fill:#439FE0;stroke:#004773;stroke-width:0.8;stroke-linecap:round;stroke-linejoin:round;stroke-miterlimit:10;}
	.st6{fill:#439FE0;}
	.st7{fill:none;stroke:#004773;stroke-width:0.8;stroke-linecap:round;stroke-linejoin:round;stroke-miterlimit:10;}
	
		.st8{fill:none;stroke:#004773;stroke-width:0.8;stroke-linecap:round;stroke-linejoin:round;stroke-miterlimit:10;stroke-dasharray:12,12;}
	.st9{display:none;fill:none;stroke:#455471;stroke-width:0.6572;stroke-miterlimit:10;}
	.st10{fill:#F1F1F0;stroke:#455471;stroke-width:0.8;stroke-linecap:round;stroke-linejoin:round;stroke-miterlimit:10;}
	.st11{fill:#F3AA3E;stroke:#455471;stroke-width:0.8;stroke-linecap:round;stroke-linejoin:round;stroke-miterlimit:10;}
	.st12{fill:#74C936;stroke:#455471;stroke-width:0.8;stroke-linecap:round;stroke-linejoin:round;stroke-miterlimit:10;}
	.st13{opacity:0.2;}
	.st14{fill:#455471;}
	.st15{fill:#FFFFFF;stroke:#455471;stroke-width:0.8;stroke-linecap:round;stroke-linejoin:round;stroke-miterlimit:10;}
	.st16{fill:#FFFFFF;stroke:#455471;stroke-width:0.94;stroke-linecap:round;stroke-miterlimit:10;}
	.st17{fill:none;stroke:#FFFFFF;stroke-width:0.8;stroke-linecap:round;stroke-linejoin:round;stroke-miterlimit:10;}
	.st18{fill:#FFD11D;stroke:#004773;stroke-width:0.8;stroke-linecap:round;stroke-linejoin:round;stroke-miterlimit:10;}
	.st19{fill:#74C936;stroke:#004773;stroke-width:0.8;stroke-linecap:round;stroke-linejoin:round;stroke-miterlimit:10;}
	.st20{fill:#004773;}
	.st21{fill:#FFFFFF;stroke:#004773;stroke-width:0.94;stroke-linecap:round;stroke-miterlimit:10;}
	.st22{fill:#FFFFFF;stroke:#455471;stroke-width:0.8822;stroke-linecap:round;stroke-miterlimit:10;}
	.st23{fill:#F1F1F0;stroke:#455471;stroke-width:0.8822;stroke-miterlimit:10;}
	.st24{fill:#FFFFFF;stroke:#455471;stroke-width:0.8822;stroke-miterlimit:10;}
	.st25{fill:none;stroke:#455471;stroke-width:1.0362;stroke-miterlimit:10;}
	.st26{fill:#74C936;stroke:#455471;stroke-width:0.8822;stroke-linecap:round;stroke-linejoin:round;stroke-miterlimit:10;}
	.st27{fill:#439FE0;stroke:#455471;stroke-width:0.8822;stroke-linecap:round;stroke-linejoin:round;stroke-miterlimit:10;}
	.st28{fill:#439FE0;stroke:#455471;stroke-width:0.8823;stroke-linecap:round;stroke-linejoin:round;stroke-miterlimit:10;}
	.st29{fill:#F3AA3E;stroke:#455471;stroke-width:0.8822;stroke-linecap:round;stroke-linejoin:round;stroke-miterlimit:10;}
	.st30{fill:#FFFFFF;stroke:#455471;stroke-width:0.8822;stroke-linecap:round;stroke-linejoin:round;stroke-miterlimit:10;}
	.st31{fill:#F1F1F0;stroke:#455471;stroke-width:0.8822;stroke-linecap:round;stroke-linejoin:round;stroke-miterlimit:10;}
	.st32{fill:none;stroke:#455471;stroke-width:0.8822;stroke-linecap:round;stroke-linejoin:round;stroke-miterlimit:10;}
	.st33{fill:none;stroke:#FFFFFF;stroke-width:0.8822;stroke-linecap:round;stroke-linejoin:round;stroke-miterlimit:10;}
	.st34{fill:#FFFFFF;}
	.st35{clip-path:url(#SVGID_7_);}
	.st36{fill:none;stroke:#455471;stroke-width:0.8822;stroke-miterlimit:10;}
	.st37{clip-path:url(#SVGID_11_);}
	.st38{fill:#FFFFFF;stroke:#004773;stroke-width:0.8;stroke-linecap:round;stroke-miterlimit:10;}
	.st39{fill:#F1F1F0;stroke:#004773;stroke-width:0.8;stroke-miterlimit:10;}
	.st40{fill:#FFFFFF;stroke:#004773;stroke-width:0.8;stroke-miterlimit:10;}
	.st41{fill:none;stroke:#455471;stroke-width:0.9396;stroke-miterlimit:10;}
	.st42{fill:#439FE0;stroke:#004773;stroke-width:0.8001;stroke-linecap:round;stroke-linejoin:round;stroke-miterlimit:10;}
	.st43{clip-path:url(#SVGID_15_);}
	.st44{fill:none;stroke:#004773;stroke-width:0.8;stroke-miterlimit:10;}
	.st45{fill:#74C936;}
	.st46{fill:#FFD11D;}
	.st47{fill:#F76234;}
	.st48{fill:#FFD11D;stroke:#004773;stroke-linecap:round;stroke-linejoin:round;stroke-miterlimit:10;}
	.st49{fill:none;stroke:#455471;stroke-width:0.7279;stroke-miterlimit:10;}
	.st50{clip-path:url(#SVGID_19_);}
	.st51{fill:#439FE0;stroke:#004773;stroke-width:0.6198;stroke-linecap:round;stroke-linejoin:round;stroke-miterlimit:10;}
	.st52{fill:#FFFFFF;stroke:#004773;stroke-width:0.6198;stroke-linecap:round;stroke-linejoin:round;stroke-miterlimit:10;}
	.st53{fill:none;stroke:#004773;stroke-width:0.6198;stroke-linecap:round;stroke-linejoin:round;stroke-miterlimit:10;}
	.st54{fill:#F1F1F0;stroke:#004773;stroke-width:0.6198;stroke-linecap:round;stroke-linejoin:round;stroke-miterlimit:10;}
	.st55{fill:none;stroke:#004773;stroke-width:0.6198;stroke-miterlimit:10;}
	.st56{clip-path:url(#SVGID_23_);}
	.st57{clip-path:url(#SVGID_27_);}
	.st58{clip-path:url(#SVGID_29_);}
	.st59{fill:#439FE0;stroke:#455471;stroke-width:0.8;stroke-linecap:round;stroke-linejoin:round;stroke-miterlimit:10;}
	.st60{fill:#FFFFFF;stroke:#455471;stroke-width:0.8;stroke-miterlimit:10;}
	.st61{clip-path:url(#SVGID_31_);}
	.st62{fill:none;stroke:#455471;stroke-width:0.8;stroke-linecap:round;stroke-linejoin:round;stroke-miterlimit:10;}
	.st63{fill:#F1F1F0;}
	.st64{fill:none;stroke:#455471;stroke-width:0.8;stroke-miterlimit:10;}
	.st65{fill:none;stroke:#455471;stroke-width:1.0207;stroke-linecap:round;stroke-linejoin:round;stroke-miterlimit:10;}
	.st66{fill:#F1F1F0;stroke:#FFFFFF;stroke-width:0.8;stroke-linecap:round;stroke-linejoin:round;stroke-miterlimit:10;}
	.st67{fill:none;stroke:#E0E0E0;stroke-width:0.7;stroke-linecap:round;stroke-linejoin:round;stroke-miterlimit:10;}
	.st68{clip-path:url(#SVGID_33_);}
	
		.st69{clip-path:url(#SVGID_33_);fill:#FFFFFF;stroke:#004773;stroke-width:0.8;stroke-linecap:round;stroke-linejoin:round;stroke-miterlimit:10;}
	.st70{clip-path:url(#SVGID_35_);}
	.st71{fill:#F76234;stroke:#004773;stroke-width:0.8;stroke-linecap:round;stroke-linejoin:round;stroke-miterlimit:10;}
	.st72{fill:#FFD11D;stroke:#004773;stroke-width:0.8;stroke-linejoin:round;stroke-miterlimit:10;}
	.st73{fill:#F76234;stroke:#004773;stroke-width:0.8;stroke-miterlimit:10;}
	.st74{fill:#FFFFFF;stroke:#004675;stroke-width:0.7;stroke-linecap:round;stroke-linejoin:round;stroke-miterlimit:10;}
	.st75{fill:#FCD745;stroke:#004675;stroke-width:0.7;stroke-linecap:round;stroke-linejoin:round;stroke-miterlimit:10;}
	.st76{fill:#FBE592;stroke:#004675;stroke-width:0.7;stroke-linecap:round;stroke-linejoin:round;stroke-miterlimit:10;}
	.st77{fill:#1DABFB;stroke:#004675;stroke-width:0.7;stroke-linecap:round;stroke-linejoin:round;stroke-miterlimit:10;}
	.st78{fill:#2278CF;stroke:#004675;stroke-width:0.7;stroke-linecap:round;stroke-linejoin:round;stroke-miterlimit:10;}
	.st79{fill:none;stroke:#004675;stroke-width:0.7;stroke-linecap:round;stroke-linejoin:round;stroke-miterlimit:10;}
	.st80{fill:#004675;}
	.st81{fill:#37BC79;}
	.st82{fill:#FBE592;}
	.st83{fill:#CE93D8;}
	.st84{fill:#B3E5FC;}
	.st85{fill:#3D9DE2;}
	.st86{fill:#4E80DC;stroke:#004675;stroke-width:0.7;stroke-linecap:round;stroke-linejoin:round;stroke-miterlimit:10;}
	.st87{fill:#37BC79;stroke:#004675;stroke-width:0.7;stroke-linecap:round;stroke-linejoin:round;stroke-miterlimit:10;}
	.st88{fill:#FFFFFF;stroke:#004675;stroke-width:0.7;stroke-linecap:round;stroke-miterlimit:10;}
	.st89{fill:#D5D5D4;stroke:#004675;stroke-width:0.7;stroke-linecap:round;stroke-linejoin:round;stroke-miterlimit:10;}
	.st90{fill:#F1EAEA;stroke:#004675;stroke-width:0.7;stroke-linecap:round;stroke-linejoin:round;stroke-miterlimit:10;}
	.st91{fill:#E0C2D2;}
	.st92{fill:#F1EAEA;stroke:#004675;stroke-width:0.7;stroke-miterlimit:10;}
	.st93{fill:none;stroke:#004675;stroke-width:0.7;stroke-linecap:round;stroke-miterlimit:10;}
	.st94{fill:#FFFFFF;stroke:#455471;stroke-width:0.8;stroke-linecap:round;stroke-miterlimit:10;}
	.st95{fill:#FFD11D;stroke:#455471;stroke-width:0.8;stroke-linecap:round;stroke-linejoin:round;stroke-miterlimit:10;}
	.st96{opacity:0.2;fill:#455471;}
	.st97{fill:none;stroke:#004773;stroke-linecap:round;stroke-linejoin:round;stroke-miterlimit:10;}
	.st98{fill:#74C936;stroke:#004773;stroke-linecap:round;stroke-linejoin:round;stroke-miterlimit:10;}
	.st99{fill:#439FE0;stroke:#004773;stroke-linecap:round;stroke-linejoin:round;stroke-miterlimit:10;}
	.st100{fill:none;stroke:#004773;stroke-linecap:round;stroke-miterlimit:10;}
	.st101{fill:none;stroke:#74C936;stroke-linecap:round;stroke-linejoin:round;stroke-miterlimit:10;}
	.st102{fill:none;stroke:#439FE0;stroke-linecap:round;stroke-linejoin:round;stroke-miterlimit:10;}
	.st103{fill:none;stroke:#FFD11D;stroke-linecap:round;stroke-linejoin:round;stroke-miterlimit:10;}
	.st104{fill:#FEFEFE;stroke:#004773;stroke-width:0.8;stroke-linecap:round;stroke-linejoin:round;stroke-miterlimit:10;}
	.st105{fill:#F1F1F0;stroke:#004773;stroke-width:0.8;stroke-linecap:round;stroke-miterlimit:10;}
	.st106{fill:none;stroke:#004773;stroke-width:0.8;stroke-linejoin:round;stroke-miterlimit:10;}
	.st107{fill:#6BBD57;}
	.st108{fill:#4A4A4A;}
	.st109{clip-path:url(#SVGID_39_);}
	.st110{fill:#004773;stroke:#004773;stroke-width:0.8;stroke-linecap:round;stroke-linejoin:round;stroke-miterlimit:10;}
	.st111{fill:#F3F5FA;}
	.st112{fill:#6B7C8C;}
	.st113{fill:#4F5A77;}
	.st114{fill:#C8CDD7;}
	.st115{opacity:0.15;fill:#4F5A77;}
	.st116{fill:#83DE9A;}
	.st117{fill:#DCDEE4;}
	.st118{fill:#FFD100;}
	.st119{fill:#F6A08B;}
	.st120{fill:#F1F1F0;stroke:#535353;stroke-width:0.8;stroke-linecap:round;stroke-linejoin:round;stroke-miterlimit:10;}
	.st121{fill:#FFFFFF;stroke:#535353;stroke-width:0.8;stroke-miterlimit:10;}
	.st122{fill:#F76234;stroke:#535353;stroke-width:0.8;stroke-linecap:round;stroke-linejoin:round;stroke-miterlimit:10;}
	.st123{fill:#FFD11D;stroke:#535353;stroke-width:0.8;stroke-linecap:round;stroke-linejoin:round;stroke-miterlimit:10;}
	.st124{fill:#74C936;stroke:#535353;stroke-width:0.8;stroke-linecap:round;stroke-linejoin:round;stroke-miterlimit:10;}
	.st125{fill:#439FE0;stroke:#535353;stroke-width:0.8;stroke-linecap:round;stroke-linejoin:round;stroke-miterlimit:10;}
	.st126{opacity:0.2;fill:#455471;stroke:#535353;stroke-miterlimit:10;}
	.st127{fill:none;stroke:#535353;stroke-width:0.8;stroke-linecap:round;stroke-linejoin:round;stroke-miterlimit:10;}
	.st128{fill:#F76234;stroke:#455471;stroke-width:0.8;stroke-linecap:round;stroke-linejoin:round;stroke-miterlimit:10;}
	.st129{opacity:0.2;fill:#004773;stroke:#455471;stroke-miterlimit:10;}
	.st130{clip-path:url(#SVGID_43_);}
</style>
<g>
	<g>
		<path class="st10" d="M152.5,126.2V27.4c0-0.8-0.6-1.4-1.4-1.4H90.1L75.7,40.4v85.8c0,0.8,0.6,1.4,1.4,1.4h41.4h32.7
			C151.9,127.6,152.5,126.9,152.5,126.2z"/>
		<polygon class="st11" points="90.2,26.1 90.2,40.5 75.8,40.5 		"/>
	</g>
	<g>
		<circle class="st12" cx="94.3" cy="80.1" r="3.5"/>
	</g>
	<g>
		<circle class="st12" cx="114" cy="80.1" r="3.5"/>
	</g>
	<g>
		<circle class="st12" cx="133.8" cy="80.1" r="3.5"/>
	</g>
	<g>
		<circle class="st12" cx="94.3" cy="94.3" r="3.5"/>
	</g>
	<g>
		<circle class="st12" cx="114" cy="94.3" r="3.5"/>
	</g>
	<g>
		<circle class="st12" cx="133.8" cy="94.3" r="3.5"/>
	</g>
	<g class="st13">
		<path class="st14" d="M87.4,96c-0.1,10.5-0.4,21-0.6,31.5h-9.1c0.8-23.7,2.9-78.4-1.1-78.4c-0.2,0-0.6,0-1,0v-7.4
			c3,0,6,0.6,8.2,2.1c3.8,2.7,3.4,7.1,3.6,11.3C88,68.8,87.6,82.4,87.4,96z"/>
	</g>
	<path class="st15" d="M83.2,50v73.2c0,2.3-1.9,4.3-4.3,4.3H33.6c-2.3,0-4.3-1.9-4.3-4.3V50c0-2.3,1.9-4.3,4.3-4.3h45.2
		C81.2,45.7,83.2,47.5,83.2,50z"/>
	<rect x="33.6" y="54.2" class="st10" width="45.2" height="64.7"/>
	<line class="st15" x1="50" y1="49.9" x2="62.5" y2="49.9"/>
	<circle class="st14" cx="56.2" cy="123.1" r="1.8"/>
	<line class="st15" x1="90.7" y1="47.1" x2="118.5" y2="47.1"/>
	<line class="st15" x1="90.7" y1="54.3" x2="137.3" y2="54.3"/>
	<line class="st15" x1="90.7" y1="61.4" x2="137.3" y2="61.4"/>
	<line class="st15" x1="90.7" y1="68.5" x2="137.3" y2="68.5"/>
	<line class="st15" x1="90.7" y1="105.5" x2="137.3" y2="105.5"/>
	<line class="st15" x1="90.7" y1="112.6" x2="137.3" y2="112.6"/>
	<g class="st13">
		<path class="st14" d="M45.9,63.7c-1,3.9-6,4.2-9.5,2.6c-2.3-1.1-4.8-2-7.2-0.9v-6.8c0.3,0,0.7-0.1,1.1,0
			c2.7,0.1,7.2-6.9,10.5-12.9h6.4c-1.1,2.1-2.2,4.3-3,6.5c-1,2.7-2.4,3.8,0.3,5.9C46.7,59.7,46.3,62.2,45.9,63.7z"/>
	</g>
	<g>
		<path class="st16" d="M7.9,28.1c-4,4-6.2,9.3-6.2,15c0,5.7,2.2,11,6.2,15c4.1,4.1,9.5,6.2,15,6.2c3.4,0,6.8-0.8,10-2.5
			c2.8,2,5.6,2.5,7.4,2.5c0.7,0,1.3-0.1,1.7-0.1c0.9-0.1,1.5-0.8,1.7-1.7s-0.3-1.7-1.1-2.1c-1.6-0.8-2.7-2.4-3.4-3.8
			c6.9-8.3,6.4-20.7-1.3-28.4c-4-4-9.3-6.2-15-6.2C17.2,21.9,11.9,24.1,7.9,28.1L7.9,28.1z M9.6,56.3"/>
		<path class="st14" d="M20.7,43.1c0-1.2,1-2.2,2.2-2.2c1.2,0,2.2,1,2.2,2.2c0,1.2-1,2.2-2.2,2.2C21.6,45.2,20.7,44.2,20.7,43.1
			L20.7,43.1z M20.7,43.1"/>
		<path class="st14" d="M9.6,43.1c0-1.2,1-2.2,2.2-2.2c1.2,0,2.2,1,2.2,2.2c0,1.2-1,2.2-2.2,2.2C10.5,45.2,9.6,44.2,9.6,43.1
			L9.6,43.1z M9.6,43.1"/>
		<path class="st14" d="M31.8,43.1c0-1.2,1-2.2,2.2-2.2c1.2,0,2.2,1,2.2,2.2c0,1.2-1,2.2-2.2,2.2C32.7,45.2,31.8,44.2,31.8,43.1
			L31.8,43.1z M31.8,43.1"/>
	</g>
	<g class="st13">
		<path class="st14" d="M152.5,39v7.6c-1.5-0.5-3.1-0.7-4.7-0.6c-2.6,0.2-4.7,1.5-7.2,2c-3.7,0.8-7.5-1.1-7.5-4.9
			c0-3.1,3.3-4.6,3.7-6.5c0.3-2.4-4.3-7.2-4.3-10.7h5c1.5,5.1,6.4,13.1,8.1,12.8C147.9,38.3,150.2,38.4,152.5,39z"/>
	</g>
	<g>
		<path class="st16" d="M172.1,8.7c-4-4-9.3-6.2-15-6.2c-5.7,0-11,2.2-15,6.2c-7.7,7.7-8.3,20.1-1.3,28.4c-0.7,1.4-1.8,3-3.4,3.8
			c-0.8,0.4-1.2,1.2-1.1,2.1s0.8,1.5,1.7,1.7c0.4,0.1,1,0.1,1.7,0.1c1.9,0,4.6-0.4,7.4-2.5c3.1,1.7,6.6,2.5,10,2.5
			c5.5,0,10.9-2.1,15-6.2c4-4,6.2-9.3,6.2-15C178.3,18,176.1,12.7,172.1,8.7L172.1,8.7z M170.4,36.9"/>
		<path class="st14" d="M159.3,23.7c0,1.2-1,2.2-2.2,2.2c-1.2,0-2.2-1-2.2-2.2c0-1.2,1-2.2,2.2-2.2
			C158.4,21.5,159.3,22.5,159.3,23.7L159.3,23.7z M159.3,23.7"/>
		<path class="st14" d="M170.4,23.7c0,1.2-1,2.2-2.2,2.2c-1.2,0-2.2-1-2.2-2.2c0-1.2,1-2.2,2.2-2.2
			C169.5,21.5,170.4,22.5,170.4,23.7L170.4,23.7z M170.4,23.7"/>
		<path class="st14" d="M148.2,23.7c0,1.2-1,2.2-2.2,2.2c-1.2,0-2.2-1-2.2-2.2c0-1.2,1-2.2,2.2-2.2
			C147.3,21.5,148.2,22.5,148.2,23.7L148.2,23.7z M148.2,23.7"/>
	</g>
	<polyline id="XMLID_74_" class="st17" points="130.3,76.6 134.2,80.6 142.4,72.4 	"/>
	<polyline id="XMLID_73_" class="st17" points="90.2,90.8 94.1,94.8 102.3,86.6 	"/>
	<g>
		<g>
			<circle class="st6" cx="42.7" cy="88.1" r="2.4"/>
		</g>
		<g>
			<circle class="st6" cx="56.2" cy="88.1" r="2.4"/>
		</g>
		<g>
			<circle class="st6" cx="69.8" cy="88.1" r="2.4"/>
		</g>
		<g>
			<circle class="st6" cx="42.7" cy="97.9" r="2.4"/>
		</g>
		<g>
			<circle class="st6" cx="56.2" cy="97.9" r="2.4"/>
		</g>
		<g>
			<circle class="st6" cx="69.8" cy="97.9" r="2.4"/>
		</g>
	</g>
	<polyline id="XMLID_72_" class="st17" points="39.8,86.1 42.5,88.9 48.1,83.2 	"/>
	<polyline id="XMLID_71_" class="st17" points="53.7,95.9 56.5,98.6 62.1,93 	"/>
	<line class="st10" x1="39.7" y1="70.5" x2="56.3" y2="70.5"/>
	<line class="st10" x1="39.7" y1="75.1" x2="72.7" y2="75.1"/>
	<line class="st10" x1="39.7" y1="80.2" x2="72.7" y2="80.2"/>
	<line class="st10" x1="39.7" y1="105.8" x2="72.7" y2="105.8"/>
	<line class="st10" x1="39.7" y1="110.9" x2="72.7" y2="110.9"/>
</g>
</svg>
