<?xml version="1.0" encoding="utf-8"?>
<!-- Generator: Adobe Illustrator 22.0.1, SVG Export Plug-In . SVG Version: 6.00 Build 0)  -->
<svg version="1.1" id="Layer_1" xmlns="http://www.w3.org/2000/svg" xmlns:xlink="http://www.w3.org/1999/xlink" x="0px" y="0px"
	 viewBox="0 0 250 130" style="enable-background:new 0 0 250 130;" xml:space="preserve">
<style type="text/css">
	.st0{fill:url(#SVGID_3_);}
	.st1{opacity:0.5;}
	.st2{fill:#FFFFFF;stroke:#D8DFF0;stroke-miterlimit:10;}
	.st3{fill:#F1F1F0;stroke:#004773;stroke-width:0.8;stroke-linecap:round;stroke-linejoin:round;stroke-miterlimit:10;}
	.st4{fill:#FFFFFF;stroke:#004773;stroke-width:0.8;stroke-linecap:round;stroke-linejoin:round;stroke-miterlimit:10;}
	.st5{fill:#439FE0;stroke:#004773;stroke-width:0.8;stroke-linecap:round;stroke-linejoin:round;stroke-miterlimit:10;}
	.st6{fill:#439FE0;}
	.st7{fill:none;stroke:#004773;stroke-width:0.8;stroke-linecap:round;stroke-linejoin:round;stroke-miterlimit:10;}
	
		.st8{fill:none;stroke:#004773;stroke-width:0.8;stroke-linecap:round;stroke-linejoin:round;stroke-miterlimit:10;stroke-dasharray:12,12;}
	.st9{display:none;fill:none;stroke:#455471;stroke-width:0.6572;stroke-miterlimit:10;}
	.st10{fill:#F1F1F0;stroke:#455471;stroke-width:0.8;stroke-linecap:round;stroke-linejoin:round;stroke-miterlimit:10;}
	.st11{fill:#F3AA3E;stroke:#455471;stroke-width:0.8;stroke-linecap:round;stroke-linejoin:round;stroke-miterlimit:10;}
	.st12{fill:#74C936;stroke:#455471;stroke-width:0.8;stroke-linecap:round;stroke-linejoin:round;stroke-miterlimit:10;}
	.st13{opacity:0.2;}
	.st14{fill:#455471;}
	.st15{fill:#FFFFFF;stroke:#455471;stroke-width:0.8;stroke-linecap:round;stroke-linejoin:round;stroke-miterlimit:10;}
	.st16{fill:#FFFFFF;stroke:#455471;stroke-width:0.94;stroke-linecap:round;stroke-miterlimit:10;}
	.st17{fill:none;stroke:#FFFFFF;stroke-width:0.8;stroke-linecap:round;stroke-linejoin:round;stroke-miterlimit:10;}
	.st18{fill:#FFD11D;stroke:#004773;stroke-width:0.8;stroke-linecap:round;stroke-linejoin:round;stroke-miterlimit:10;}
	.st19{fill:#74C936;stroke:#004773;stroke-width:0.8;stroke-linecap:round;stroke-linejoin:round;stroke-miterlimit:10;}
	.st20{fill:#004773;}
	.st21{fill:#FFFFFF;stroke:#004773;stroke-width:0.94;stroke-linecap:round;stroke-miterlimit:10;}
	.st22{fill:#FFFFFF;stroke:#455471;stroke-width:0.8822;stroke-linecap:round;stroke-miterlimit:10;}
	.st23{fill:#F1F1F0;stroke:#455471;stroke-width:0.8822;stroke-miterlimit:10;}
	.st24{fill:#FFFFFF;stroke:#455471;stroke-width:0.8822;stroke-miterlimit:10;}
	.st25{fill:none;stroke:#455471;stroke-width:1.0362;stroke-miterlimit:10;}
	.st26{fill:#74C936;stroke:#455471;stroke-width:0.8822;stroke-linecap:round;stroke-linejoin:round;stroke-miterlimit:10;}
	.st27{fill:#439FE0;stroke:#455471;stroke-width:0.8822;stroke-linecap:round;stroke-linejoin:round;stroke-miterlimit:10;}
	.st28{fill:#439FE0;stroke:#455471;stroke-width:0.8823;stroke-linecap:round;stroke-linejoin:round;stroke-miterlimit:10;}
	.st29{fill:#F3AA3E;stroke:#455471;stroke-width:0.8822;stroke-linecap:round;stroke-linejoin:round;stroke-miterlimit:10;}
	.st30{fill:#FFFFFF;stroke:#455471;stroke-width:0.8822;stroke-linecap:round;stroke-linejoin:round;stroke-miterlimit:10;}
	.st31{fill:#F1F1F0;stroke:#455471;stroke-width:0.8822;stroke-linecap:round;stroke-linejoin:round;stroke-miterlimit:10;}
	.st32{fill:none;stroke:#455471;stroke-width:0.8822;stroke-linecap:round;stroke-linejoin:round;stroke-miterlimit:10;}
	.st33{fill:none;stroke:#FFFFFF;stroke-width:0.8822;stroke-linecap:round;stroke-linejoin:round;stroke-miterlimit:10;}
	.st34{fill:#FFFFFF;}
	.st35{clip-path:url(#SVGID_7_);}
	.st36{fill:none;stroke:#455471;stroke-width:0.8822;stroke-miterlimit:10;}
	.st37{clip-path:url(#SVGID_11_);}
	.st38{fill:#FFFFFF;stroke:#004773;stroke-width:0.8;stroke-linecap:round;stroke-miterlimit:10;}
	.st39{fill:#F1F1F0;stroke:#004773;stroke-width:0.8;stroke-miterlimit:10;}
	.st40{fill:#FFFFFF;stroke:#004773;stroke-width:0.8;stroke-miterlimit:10;}
	.st41{fill:none;stroke:#455471;stroke-width:0.9396;stroke-miterlimit:10;}
	.st42{fill:#439FE0;stroke:#004773;stroke-width:0.8001;stroke-linecap:round;stroke-linejoin:round;stroke-miterlimit:10;}
	.st43{clip-path:url(#SVGID_15_);}
	.st44{fill:none;stroke:#004773;stroke-width:0.8;stroke-miterlimit:10;}
	.st45{fill:#74C936;}
	.st46{fill:#FFD11D;}
	.st47{fill:#F76234;}
	.st48{fill:#FFD11D;stroke:#004773;stroke-linecap:round;stroke-linejoin:round;stroke-miterlimit:10;}
	.st49{fill:none;stroke:#455471;stroke-width:0.7279;stroke-miterlimit:10;}
	.st50{clip-path:url(#SVGID_19_);}
	.st51{fill:#439FE0;stroke:#004773;stroke-width:0.6198;stroke-linecap:round;stroke-linejoin:round;stroke-miterlimit:10;}
	.st52{fill:#FFFFFF;stroke:#004773;stroke-width:0.6198;stroke-linecap:round;stroke-linejoin:round;stroke-miterlimit:10;}
	.st53{fill:none;stroke:#004773;stroke-width:0.6198;stroke-linecap:round;stroke-linejoin:round;stroke-miterlimit:10;}
	.st54{fill:#F1F1F0;stroke:#004773;stroke-width:0.6198;stroke-linecap:round;stroke-linejoin:round;stroke-miterlimit:10;}
	.st55{fill:none;stroke:#004773;stroke-width:0.6198;stroke-miterlimit:10;}
	.st56{clip-path:url(#SVGID_23_);}
	.st57{clip-path:url(#SVGID_27_);}
	.st58{clip-path:url(#SVGID_29_);}
	.st59{fill:#439FE0;stroke:#455471;stroke-width:0.8;stroke-linecap:round;stroke-linejoin:round;stroke-miterlimit:10;}
	.st60{fill:#FFFFFF;stroke:#455471;stroke-width:0.8;stroke-miterlimit:10;}
	.st61{clip-path:url(#SVGID_31_);}
	.st62{fill:none;stroke:#455471;stroke-width:0.8;stroke-linecap:round;stroke-linejoin:round;stroke-miterlimit:10;}
	.st63{fill:#F1F1F0;}
	.st64{fill:none;stroke:#455471;stroke-width:0.8;stroke-miterlimit:10;}
	.st65{fill:none;stroke:#455471;stroke-width:1.0207;stroke-linecap:round;stroke-linejoin:round;stroke-miterlimit:10;}
	.st66{fill:#F1F1F0;stroke:#FFFFFF;stroke-width:0.8;stroke-linecap:round;stroke-linejoin:round;stroke-miterlimit:10;}
	.st67{fill:none;stroke:#E0E0E0;stroke-width:0.7;stroke-linecap:round;stroke-linejoin:round;stroke-miterlimit:10;}
	.st68{clip-path:url(#SVGID_33_);}
	
		.st69{clip-path:url(#SVGID_33_);fill:#FFFFFF;stroke:#004773;stroke-width:0.8;stroke-linecap:round;stroke-linejoin:round;stroke-miterlimit:10;}
	.st70{clip-path:url(#SVGID_35_);}
	.st71{fill:#F76234;stroke:#004773;stroke-width:0.8;stroke-linecap:round;stroke-linejoin:round;stroke-miterlimit:10;}
	.st72{fill:#FFD11D;stroke:#004773;stroke-width:0.8;stroke-linejoin:round;stroke-miterlimit:10;}
	.st73{fill:#F76234;stroke:#004773;stroke-width:0.8;stroke-miterlimit:10;}
	.st74{fill:#FFFFFF;stroke:#004675;stroke-width:0.7;stroke-linecap:round;stroke-linejoin:round;stroke-miterlimit:10;}
	.st75{fill:#FCD745;stroke:#004675;stroke-width:0.7;stroke-linecap:round;stroke-linejoin:round;stroke-miterlimit:10;}
	.st76{fill:#FBE592;stroke:#004675;stroke-width:0.7;stroke-linecap:round;stroke-linejoin:round;stroke-miterlimit:10;}
	.st77{fill:#1DABFB;stroke:#004675;stroke-width:0.7;stroke-linecap:round;stroke-linejoin:round;stroke-miterlimit:10;}
	.st78{fill:#2278CF;stroke:#004675;stroke-width:0.7;stroke-linecap:round;stroke-linejoin:round;stroke-miterlimit:10;}
	.st79{fill:none;stroke:#004675;stroke-width:0.7;stroke-linecap:round;stroke-linejoin:round;stroke-miterlimit:10;}
	.st80{fill:#004675;}
	.st81{fill:#37BC79;}
	.st82{fill:#FBE592;}
	.st83{fill:#CE93D8;}
	.st84{fill:#B3E5FC;}
	.st85{fill:#3D9DE2;}
	.st86{fill:#4E80DC;stroke:#004675;stroke-width:0.7;stroke-linecap:round;stroke-linejoin:round;stroke-miterlimit:10;}
	.st87{fill:#37BC79;stroke:#004675;stroke-width:0.7;stroke-linecap:round;stroke-linejoin:round;stroke-miterlimit:10;}
	.st88{fill:#FFFFFF;stroke:#004675;stroke-width:0.7;stroke-linecap:round;stroke-miterlimit:10;}
	.st89{fill:#D5D5D4;stroke:#004675;stroke-width:0.7;stroke-linecap:round;stroke-linejoin:round;stroke-miterlimit:10;}
	.st90{fill:#F1EAEA;stroke:#004675;stroke-width:0.7;stroke-linecap:round;stroke-linejoin:round;stroke-miterlimit:10;}
	.st91{fill:#E0C2D2;}
	.st92{fill:#F1EAEA;stroke:#004675;stroke-width:0.7;stroke-miterlimit:10;}
	.st93{fill:none;stroke:#004675;stroke-width:0.7;stroke-linecap:round;stroke-miterlimit:10;}
	.st94{fill:#FFFFFF;stroke:#455471;stroke-width:0.8;stroke-linecap:round;stroke-miterlimit:10;}
	.st95{fill:#FFD11D;stroke:#455471;stroke-width:0.8;stroke-linecap:round;stroke-linejoin:round;stroke-miterlimit:10;}
	.st96{opacity:0.2;fill:#455471;}
	.st97{fill:none;stroke:#004773;stroke-linecap:round;stroke-linejoin:round;stroke-miterlimit:10;}
	.st98{fill:#74C936;stroke:#004773;stroke-linecap:round;stroke-linejoin:round;stroke-miterlimit:10;}
	.st99{fill:#439FE0;stroke:#004773;stroke-linecap:round;stroke-linejoin:round;stroke-miterlimit:10;}
	.st100{fill:none;stroke:#004773;stroke-linecap:round;stroke-miterlimit:10;}
	.st101{fill:none;stroke:#74C936;stroke-linecap:round;stroke-linejoin:round;stroke-miterlimit:10;}
	.st102{fill:none;stroke:#439FE0;stroke-linecap:round;stroke-linejoin:round;stroke-miterlimit:10;}
	.st103{fill:none;stroke:#FFD11D;stroke-linecap:round;stroke-linejoin:round;stroke-miterlimit:10;}
	.st104{fill:#FEFEFE;stroke:#004773;stroke-width:0.8;stroke-linecap:round;stroke-linejoin:round;stroke-miterlimit:10;}
	.st105{fill:#F1F1F0;stroke:#004773;stroke-width:0.8;stroke-linecap:round;stroke-miterlimit:10;}
	.st106{fill:none;stroke:#004773;stroke-width:0.8;stroke-linejoin:round;stroke-miterlimit:10;}
	.st107{fill:#6BBD57;}
	.st108{fill:#4A4A4A;}
	.st109{clip-path:url(#SVGID_39_);}
	.st110{fill:#004773;stroke:#004773;stroke-width:0.8;stroke-linecap:round;stroke-linejoin:round;stroke-miterlimit:10;}
	.st111{fill:#F3F5FA;}
	.st112{fill:#6B7C8C;}
	.st113{fill:#4F5A77;}
	.st114{fill:#C8CDD7;}
	.st115{opacity:0.15;fill:#4F5A77;}
	.st116{fill:#83DE9A;}
	.st117{fill:#DCDEE4;}
	.st118{fill:#FFD100;}
	.st119{fill:#F6A08B;}
	.st120{fill:#F1F1F0;stroke:#535353;stroke-width:0.8;stroke-linecap:round;stroke-linejoin:round;stroke-miterlimit:10;}
	.st121{fill:#FFFFFF;stroke:#535353;stroke-width:0.8;stroke-miterlimit:10;}
	.st122{fill:#F76234;stroke:#535353;stroke-width:0.8;stroke-linecap:round;stroke-linejoin:round;stroke-miterlimit:10;}
	.st123{fill:#FFD11D;stroke:#535353;stroke-width:0.8;stroke-linecap:round;stroke-linejoin:round;stroke-miterlimit:10;}
	.st124{fill:#74C936;stroke:#535353;stroke-width:0.8;stroke-linecap:round;stroke-linejoin:round;stroke-miterlimit:10;}
	.st125{fill:#439FE0;stroke:#535353;stroke-width:0.8;stroke-linecap:round;stroke-linejoin:round;stroke-miterlimit:10;}
	.st126{opacity:0.2;fill:#455471;stroke:#535353;stroke-miterlimit:10;}
	.st127{fill:none;stroke:#535353;stroke-width:0.8;stroke-linecap:round;stroke-linejoin:round;stroke-miterlimit:10;}
	.st128{fill:#F76234;stroke:#455471;stroke-width:0.8;stroke-linecap:round;stroke-linejoin:round;stroke-miterlimit:10;}
	.st129{opacity:0.2;fill:#004773;stroke:#455471;stroke-miterlimit:10;}
	.st130{clip-path:url(#SVGID_43_);}
</style>
<g>
	<g>
		<rect x="55.8" y="18.3" class="st3" width="150" height="100"/>
		
			<rect x="88.8" y="1.3" transform="matrix(6.123234e-17 -1 1 6.123234e-17 62.5169 199.0237)" class="st4" width="84" height="134"/>
		<path class="st4" d="M210.8,128.3h-160c-2.8,0-5-2.2-5-5v-5h170v5C215.8,126,213.5,128.3,210.8,128.3z"/>
		<path class="st96" d="M205.8,51.4v76.9h-27.5c-1-1.3-1.6-3-1.6-4.8v-9.2c-1.6-0.8-2.7-2.5-2.7-4.4v-0.8c0-2.1,1.3-3.8,3.1-4.5
			l-0.9-3.2c-0.8-3.2-1.1-6.4-0.8-9.7l0.2-1.8c0.2-1.9,1.8-3.3,3.7-3.2c1.2,0,2.2,0.7,2.9,1.6l0.8,1.1v-1.6c0-1.7,1.3-3,3-3h1.8
			v-2.9c0-6.3-0.3-12.1,3.3-17.2l-0.4-10c0.1-3.8,0.8-5,3.3-5.7l6.1-1.6c0.4-0.1,0.8-0.2,1.2-0.2c2.1,0,4,1.4,4.5,3.5L205.8,51.4z"
			/>
		<line class="st3" x1="63.8" y1="26.3" x2="55.8" y2="18.3"/>
		<line class="st3" x1="63.8" y1="110.3" x2="55.8" y2="118.3"/>
		<line class="st3" x1="197.8" y1="26.3" x2="205.8" y2="18.3"/>
		<line class="st3" x1="197.8" y1="110.3" x2="205.8" y2="118.3"/>
		<path class="st5" d="M118.8,118.3h-20c-2.8,0-5-2.2-5-5v0c0-2.8,2.2-5,5-5h20c2.8,0,5,2.2,5,5v0
			C123.8,116,121.5,118.3,118.8,118.3z"/>
		<g>
			<path class="st3" d="M165.7,94.5H95.9c-1.7,0-3.2-1.4-3.2-3.2V51.1c0-1.7,1.4-3.2,3.2-3.2h69.8c1.7,0,3.2,1.4,3.2,3.2v40.2
				C168.8,93.1,167.4,94.5,165.7,94.5z"/>
			
				<rect x="112.4" y="38.1" transform="matrix(-1.836970e-16 1 -1 -1.836970e-16 201.9961 -59.5445)" class="st3" width="36.8" height="66.3"/>
			<rect x="126.5" y="89.6" class="st4" width="8.5" height="4.9"/>
			<g>
				<g>
					<g>
						<path class="st5" d="M130.8,89.6c-10.8-3.5-22.4-3.5-33.2,0c0-15.6,0-31.2,0-46.9c10.8-3.5,22.4-3.5,33.2,0
							C130.8,58.4,130.8,74,130.8,89.6z"/>
						<path class="st4" d="M130.8,89.6c-10.8-3.5-22.4-3.5-33.2,0c0-15.6,0-31.2,0-46.9c10.8-3.5,22.4-3.5,33.2,0
							C130.8,58.4,130.8,74,130.8,89.6z"/>
					</g>
					<g>
						<path class="st7" d="M111.6,46.4c4.7-0.2,9.5,0.2,14.1,1.2"/>
						<path class="st7" d="M107.5,46.7c-1.6,0.2-3.2,0.5-4.8,0.8"/>
					</g>
					<g>
						<path class="st7" d="M125.7,52.6c-2.2-0.5-4.4-0.8-6.6-1"/>
						<path class="st7" d="M102.7,52.6c4.1-0.9,8.2-1.3,12.3-1.2"/>
					</g>
					<g>
						<path class="st7" d="M102.7,57.7c7.6-1.7,15.4-1.7,23,0"/>
					</g>
					<g>
						<path class="st7" d="M111.6,61.5c4.7-0.2,9.5,0.2,14.1,1.2"/>
						<path class="st7" d="M107.5,61.9c-1.6,0.2-3.2,0.5-4.8,0.8"/>
					</g>
					<g>
						<path class="st7" d="M125.7,67.8c-0.8-0.2-1.7-0.3-2.5-0.5"/>
						<path class="st7" d="M102.7,67.8c5.4-1.2,10.9-1.5,16.4-1"/>
					</g>
					<g>
						<path class="st7" d="M102.7,72.9c7.6-1.7,15.4-1.7,23,0"/>
					</g>
					<g>
						<path class="st7" d="M112.2,76.7c4.5-0.2,9,0.2,13.4,1.2"/>
						<path class="st7" d="M108.2,77c-1.8,0.2-3.7,0.5-5.5,0.9"/>
					</g>
				</g>
				<g>
					<g>
						<path class="st5" d="M130.8,89.6c10.8-3.5,22.4-3.5,33.2,0c0-15.6,0-31.2,0-46.9c-10.8-3.5-22.4-3.5-33.2,0
							C130.8,58.4,130.8,74,130.8,89.6z"/>
						<path class="st4" d="M130.8,89.6c10.8-3.5,22.4-3.5,33.2,0c0-15.6,0-31.2,0-46.9c-10.8-3.5-22.4-3.5-33.2,0
							C130.8,58.4,130.8,74,130.8,89.6z"/>
					</g>
					<g>
						<path class="st7" d="M135.9,47.5c4.6-1,9.4-1.4,14.1-1.2"/>
						<path class="st7" d="M158.9,47.5c-1.6-0.3-3.2-0.6-4.8-0.8"/>
					</g>
					<g>
						<path class="st7" d="M142.5,51.6c-2.2,0.2-4.4,0.5-6.6,1"/>
						<path class="st7" d="M146.5,51.4c4.1-0.1,8.3,0.3,12.3,1.2"/>
					</g>
					<g>
						<path class="st7" d="M135.9,57.7c7.6-1.7,15.4-1.7,23,0"/>
					</g>
					<g>
						<path class="st7" d="M135.9,62.7c4.6-1,9.4-1.4,14.1-1.2"/>
						<path class="st7" d="M158.9,62.7c-1.6-0.3-3.2-0.6-4.8-0.8"/>
					</g>
					<g>
						<path class="st7" d="M138.4,67.3c-0.8,0.1-1.7,0.3-2.5,0.5"/>
						<path class="st7" d="M142.5,66.8c5.5-0.5,11-0.2,16.4,1"/>
					</g>
					<g>
						<path class="st7" d="M135.9,72.9c7.6-1.7,15.4-1.7,23,0"/>
					</g>
					<g>
						<path class="st7" d="M135.9,77.9c4.4-1,8.9-1.4,13.4-1.2"/>
						<path class="st7" d="M158.9,77.9c-1.8-0.4-3.6-0.7-5.5-0.9"/>
					</g>
				</g>
			</g>
			<polygon class="st18" points="108.7,54.7 105.1,51.9 101.6,54.7 101.6,38 108.7,38 			"/>
		</g>
		<g>
			<path class="st3" d="M207.9,71.1l-9.3,2.5l-5.3-19.6c-0.2-0.9,0.3-1.8,1.2-2l6.1-1.6c0.9-0.2,1.8,0.3,2,1.2L207.9,71.1z"/>
			<g>
				<line class="st4" x1="192.9" y1="76.3" x2="193.3" y2="53.5"/>
				<line class="st4" x1="243.7" y1="76.1" x2="243.4" y2="53.3"/>
			</g>
			<path class="st3" d="M228.5,71.1l9.3,2.5l5.3-19.6c0.2-0.9-0.3-1.8-1.2-2l-6.1-1.6c-0.9-0.2-1.8,0.3-2,1.2L228.5,71.1z"/>
			<path class="st4" d="M218,45.1c-3.4,0-6.2,2.8-6.2,6.2v9.6h12.3v-9.6C224.2,47.9,221.4,45.1,218,45.1z M220.9,57.6h-5.8v-6.3
				c0-1.6,1.3-2.9,2.9-2.9s2.9,1.3,2.9,2.9V57.6z"/>
			<path class="st4" d="M237.9,128.3h-39.7c-4.2,0-7.6-3.4-7.6-7.6V81.8c0-14.9,12.1-26.9,26.9-26.9h1c14.9,0,26.9,12.1,26.9,26.9
				v38.8C245.5,124.8,242.1,128.3,237.9,128.3z"/>
			<path class="st3" d="M217.8,54.9c-15.1,0.1-27.2,12.7-27.2,27.8v7.8h0c3.2,0,5.8-2.6,5.8-5.8v-2c0-11.9,9.4-21.8,21.3-22
				c12.1-0.2,22,9.6,22,21.6v2.4c0,3.2,2.6,5.8,5.8,5.8l0,0v-8.2C245.5,67.1,233.1,54.8,217.8,54.9z"/>
			
				<rect x="212.4" y="72.3" transform="matrix(0.7072 0.707 -0.707 0.7072 118.9383 -131.3536)" class="st5" width="11.2" height="11.2"/>
			<line class="st4" x1="216.5" y1="75.8" x2="216.5" y2="80"/>
			<line class="st4" x1="219.6" y1="75.8" x2="219.6" y2="80"/>
			<path class="st4" d="M196.3,119c0,1.9,1.6,3.5,3.5,3.5h36.5c1.9,0,3.5-1.6,3.5-3.5v-14.5h-43.6V119z"/>
			<path class="st3" d="M236.3,97.4h-36.5c-1.9,0-3.5,1.6-3.5,3.5v3.6h43.6v-3.6C239.8,98.9,238.3,97.4,236.3,97.4z"/>
			<path class="st4" d="M196.3,119c0,1.9,1.6,3.5,3.5,3.5h36.5c1.9,0,3.5-1.6,3.5-3.5v-14.5h-43.6V119z"/>
			<path class="st5" d="M232.7,110.5L232.7,110.5c-1.2,0-2.1-0.9-2.1-2v-3.9h4.1v3.9C234.7,109.6,233.8,110.5,232.7,110.5z"/>
		</g>
		<g>
			<g>
				<g>
					
						<rect x="180.8" y="95.2" transform="matrix(0.9659 -0.2588 0.2588 0.9659 -21.3625 51.1227)" class="st19" width="5.4" height="22.9"/>
				</g>
				<g>
					<path class="st4" d="M180.6,91.3l2.6,3.6l-5.2,1.4l0.4-4.4c0.4,0.1,0.8,0.1,1.2,0C179.9,91.8,180.3,91.6,180.6,91.3z"/>
					<path class="st110" d="M179.5,89.8l1,1.5c-0.3,0.3-0.6,0.5-1,0.6c-0.4,0.1-0.8,0.1-1.2,0l0.2-1.8
						C178.5,89.6,179.2,89.4,179.5,89.8z"/>
				</g>
			</g>
			<g>
				
					<ellipse transform="matrix(0.2588 -0.9659 0.9659 0.2588 42.7983 266.683)" class="st4" cx="195.2" cy="105.5" rx="13.3" ry="2.4"/>
				<path class="st3" d="M201.7,92.7c-0.4,1.6-2.1,2.6-3.7,2.1s-2.6-2.1-2.1-3.7s4.1-3.6,4.1-3.6S202.1,91.1,201.7,92.7z"/>
			</g>
			<g>
				<rect x="185.9" y="87.7" class="st18" width="6.7" height="20.1"/>
				<line class="st4" x1="185.9" y1="90.7" x2="189.6" y2="90.7"/>
				<line class="st4" x1="185.9" y1="93.3" x2="188.1" y2="93.3"/>
				<line class="st4" x1="185.9" y1="95.9" x2="189.6" y2="95.9"/>
				<line class="st4" x1="185.9" y1="98.5" x2="188.1" y2="98.5"/>
				<line class="st4" x1="185.9" y1="101.1" x2="189.6" y2="101.1"/>
				<line class="st4" x1="185.9" y1="103.7" x2="188.1" y2="103.7"/>
			</g>
			<path class="st3" d="M199.7,111.7h-20.9c-1,0-1.9-0.8-1.9-1.9v-0.8c0-1,0.8-1.9,1.9-1.9h20.9c1,0,1.9,0.8,1.9,1.9v0.8
				C201.5,110.9,200.7,111.7,199.7,111.7z"/>
			<path class="st4" d="M198.8,111.7v11.7c0,2.6-2.1,4.8-4.8,4.8h-9.6c-2.6,0-4.8-2.1-4.8-4.8v-11.7H198.8z"/>
		</g>
		<g>
			<path class="st19" d="M83,95.8c-2.3-0.9-5-0.7-7.1,1c-2.1,1.6-3,4.2-2.7,6.7c2.3,0.9,5,0.7,7.1-1C82.4,100.9,83.3,98.3,83,95.8z"
				/>
			<path class="st71" d="M85.7,115.4c0,3.5-2.3,8.3-5,10.9c-1.2,1.2-2.5,1.9-3.8,1.9c-0.8,0-1.6-0.1-2.2-0.3c-0.9-0.3-1.9-0.3-2.8,0
				c-0.7,0.2-1.5,0.3-2.2,0.3c-1.3,0-2.7-0.8-3.9-2.1c-2.7-2.7-4.8-7.3-4.8-10.8c0-5,3-8.1,5.8-8.8c1.4-0.4,2.9-0.1,4.2,0.2
				c1.3,0.3,2.7,0.4,4,0.2c0.3,0,0.5-0.1,0.8-0.2c1.3-0.3,2.8-0.6,4.2-0.2C82.7,107.4,85.7,110.4,85.7,115.4z"/>
			<path class="st7" d="M70.4,97.4c1.7,1.8,3,4.5,2.9,9.7"/>
		</g>
		<path class="st96" d="M71,80.6c0,11.3-6.1,21.3-15.2,26.6V53.9C67.1,59.5,71,69.2,71,80.6z"/>
		<g>
			<g>
				<path class="st4" d="M65.1,92.7c-3,6.4-8.5,11.8-15.6,14.5c4.4-2,6.8-7.9,6.8-15.4c0-0.3,0-0.5,0-0.8
					c-0.1-4.7-1.1-10.1-3.1-15.5c-2-5.4-4.6-10.2-7.6-13.8c-5.2-6.4-11.2-9.7-16.1-7.9c7.4-2.7,15.2-2.1,21.8,0.9
					c6.6,3.1,12.1,8.7,14.8,16.1v0C68.7,78.2,68.2,86,65.1,92.7z"/>
				<path class="st5" d="M49,107.4c-7.4,2.7-15.2,2.1-21.8-0.9c-6.6-3.1-12.1-8.7-14.8-16.1c-2.7-7.4-2.1-15.2,1-21.8
					c3-6.4,8.4-11.8,15.6-14.5c-4.6,2-6.9,8.3-6.8,16.2c0.1,4.7,1.1,10.1,3.1,15.5c2,5.4,4.6,10.1,7.6,13.8
					C38,105.9,44.1,109.1,49,107.4z"/>
				<path class="st4" d="M39.2,80.6l-14,5.1c-2-5.4-3-10.8-3.1-15.5c4.1,0.2,8.4-0.4,12.5-1.9h0L39.2,80.6z"/>
				<path class="st4" d="M43.7,92.9c-4.1,1.5-7.8,3.8-10.8,6.6c-3-3.7-5.6-8.4-7.6-13.8l14-5.1L43.7,92.9z"/>
				<path class="st19" d="M56.3,91c-4.1-0.2-8.4,0.4-12.6,1.9l-4.5-12.3l14-5.1C55.2,80.9,56.2,86.2,56.3,91z"/>
				<path class="st19" d="M53.2,75.5l-14,5.1l-4.5-12.3c4.1-1.5,7.8-3.8,10.8-6.6C48.6,65.3,51.2,70.1,53.2,75.5z"/>
				<g>
					<path class="st19" d="M45.6,61.6c-3,2.8-6.7,5.1-10.8,6.6h0l-5.3-14.5h0C34.4,52,40.4,55.2,45.6,61.6z"/>
					<path class="st4" d="M34.7,68.2c-4.1,1.5-8.4,2.1-12.5,1.9c-0.2-8.2,2.4-14.6,7.3-16.4L34.7,68.2z"/>
					<path class="st7" d="M22.2,70.1c-3-0.1-6-0.7-8.8-1.7c3.1-6.6,8.7-12,16.1-14.7C24.6,55.5,22,61.9,22.2,70.1z"/>
					<path class="st7" d="M51.3,54.7c-1.5,2.6-3.4,4.9-5.7,7c-5.2-6.4-11.2-9.7-16.1-7.9C36.9,51.1,44.6,51.6,51.3,54.7z"/>
					<path class="st4" d="M49,107.4c-4.9,1.8-11-1.5-16.1-7.9c3-2.8,6.7-5.1,10.8-6.6L49,107.4z"/>
					<path class="st7" d="M49,107.4c-7.4,2.7-15.2,2.1-21.8-0.9c1.5-2.6,3.4-4.9,5.7-7C38,105.9,44.1,109.1,49,107.4z"/>
					<path class="st19" d="M49,107.4l-5.3-14.5c4.1-1.5,8.4-2.1,12.6-1.9v0C56.4,99.2,53.9,105.6,49,107.4z"/>
					<path class="st7" d="M65.1,92.7c-3.1,6.6-8.7,12-16.1,14.7c4.9-1.8,7.4-8.2,7.3-16.4C59.3,91.1,62.3,91.7,65.1,92.7z"/>
				</g>
				<line class="st7" x1="66" y1="70.8" x2="53.2" y2="75.5"/>
				<line class="st7" x1="25.3" y1="85.6" x2="12.4" y2="90.3"/>
				<path class="st7" d="M49,107.4l2.1,5.8c-8.7,3.2-18.1,2.8-26.5-1.1c-8.4-3.9-14.8-10.9-18-19.6c-3.2-8.7-2.8-18.2,1.2-26.6
					c3.9-8.4,10.9-14.7,19.6-17.9l2.1,5.8"/>
			</g>
			<line class="st7" x1="39.4" y1="122.1" x2="39.5" y2="109.1"/>
			<path class="st3" d="M54.8,122.3H24c-2.2,0-3.9,1.8-3.9,3.9v2h38.7v-2C58.7,124.1,57,122.3,54.8,122.3z"/>
		</g>
	</g>
	<path class="st18" d="M213.1,21.3c-0.4,0.4-0.8,0.8-1.2,1.2c-0.4,0.3-0.5,0.8-0.4,1.3c0.5,3.1,0.9,6.1,1.2,9.2
		c0.1,1.2-1.2,2.2-2.2,1.7c-2.6-1.3-5.3-2.8-8-4.2c-0.4-0.2-0.9-0.2-1.4,0c-2.7,1.5-5.4,2.9-8,4.2c-1,0.5-2.3-0.5-2.2-1.7
		c0.3-3,0.8-6.1,1.2-9.2c0.1-0.5-0.1-1-0.5-1.3c-2.3-2.2-4.6-4.4-6.8-6.5c-0.9-0.8-0.3-2.3,0.9-2.5c1-0.2,2-0.3,2.9-0.5
		c0.5-0.1,1-0.2,1.5-0.2c0.4-0.1,0.8-0.1,1.1-0.2c1.3-0.2,2.6-0.4,3.9-0.6c0.5-0.1,0.9-0.4,1.1-0.8c1.4-2.9,2.9-5.7,4.2-8.6
		c0.5-1.1,2-1.1,2.6,0c1.4,2.9,2.8,5.7,4.2,8.6c0.2,0.4,0.6,0.8,1.1,0.8c3.1,0.5,6.3,1,9.4,1.5c1.2,0.2,1.8,1.6,0.9,2.5
		c-0.7,0.6-1.3,1.2-2,1.8L213.1,21.3z"/>
</g>
</svg>
